<?xml version="1.0" encoding="UTF-8"?>
<!DOCTYPE svg PUBLIC "-//W3C//DTD SVG 1.1//EN" "http://www.w3.org/Graphics/SVG/1.1/DTD/svg11.dtd">
<!-- Creator: CorelDRAW X7 -->
<svg xmlns="http://www.w3.org/2000/svg" xml:space="preserve" width="1500px" height="180px" version="1.1" style="shape-rendering:geometricPrecision; text-rendering:geometricPrecision; image-rendering:optimizeQuality; fill-rule:evenodd; clip-rule:evenodd"
viewBox="0 0 1500 180"
 xmlns:xlink="http://www.w3.org/1999/xlink">
 <defs>
  <style type="text/css">
   <![CDATA[
    .str1 {stroke:#FDFDFE;stroke-width:1.1811;stroke-linecap:round;stroke-linejoin:round}
    .str0 {stroke:#C9C9C9;stroke-width:0.900001;stroke-linecap:round;stroke-linejoin:round}
    .fil21 {fill:none}
    .fil23 {fill:#FEFEFE}
    .fil5 {fill:#EEEEEF}
    .fil1 {fill:#FDFDFE}
    .fil3 {fill:#FBFBFB}
    .fil2 {fill:#FBFBFB}
    .fil24 {fill:#E7E7E6}
    .fil26 {fill:#E7E7E6}
    .fil8 {fill:#DCDBDB}
    .fil7 {fill:#DCDBDB}
    .fil19 {fill:#D4D4D4}
    .fil22 {fill:#D4D4D4}
    .fil6 {fill:#D0D0D1}
    .fil18 {fill:#C7C5C3}
    .fil13 {fill:#CBCBCC}
    .fil14 {fill:#CBCBCC}
    .fil10 {fill:#C9C9C9}
    .fil9 {fill:#C9C9C9}
    .fil16 {fill:#BFBFC2}
    .fil12 {fill:#BFBFC2}
    .fil4 {fill:#BCBCBC}
    .fil15 {fill:#ABABAB}
    .fil11 {fill:#747474}
    .fil0 {fill:#F9F7F6}
    .fil20 {fill:#332C2B;fill-opacity:0.101961}
    .fil17 {fill:#353536;fill-opacity:0.101961}
    .fil25 {fill:url(#id2)}
   ]]>
  </style>
    <mask id="id0">
  <linearGradient id="id1" gradientUnits="userSpaceOnUse" x1="747.175" y1="165.309" x2="747.175" y2="175.301">
   <stop offset="0" style="stop-opacity:1; stop-color:white"/>
   <stop offset="0.231373" style="stop-opacity:0.501961; stop-color:white"/>
   <stop offset="1" style="stop-opacity:0; stop-color:white"/>
  </linearGradient>
     <rect style="fill:url(#id1)" x="71" y="161" width="1352.36" height="19.591"/>
    </mask>
  <linearGradient id="id2" gradientUnits="userSpaceOnUse" x1="1162.67" y1="133.297" x2="1164.86" y2="144.047">
   <stop offset="0" style="stop-opacity:1; stop-color:#EEEEEF"/>
   <stop offset="1" style="stop-opacity:1; stop-color:#D0D0D1"/>
  </linearGradient>
 </defs>
 <g id="Layer_x0020_1">
  <metadata id="CorelCorpID_0Corel-Layer"/>
  <g id="_631910904">
   <polygon class="fil0" style="mask:url(#id0)" points="72,162 1422,162 1422,179 72,179 "/>
   <g>
    <polygon class="fil1" points="989,162 989,75 962,75 962,162 "/>
    <polygon class="fil1" points="1193,162 1193,42 1159,42 1159,162 "/>
    <polygon class="fil1" points="156,162 156,55 132,55 132,162 "/>
    <polygon class="fil1" points="230,162 230,45 203,45 203,162 "/>
    <polygon class="fil1" points="308,162 308,59 281,59 281,162 "/>
    <polygon class="fil1" points="455,162 455,89 439,89 439,162 "/>
    <polygon class="fil1" points="409,162 409,90 382,90 382,162 "/>
    <polygon class="fil1" points="540,162 540,74 525,74 525,162 "/>
    <polygon class="fil1" points="604,162 604,60 577,60 577,162 "/>
    <polygon class="fil1" points="717,162 717,84 690,84 690,162 "/>
    <polygon class="fil1" points="810,162 810,67 783,67 783,162 "/>
    <polygon class="fil1" points="897,162 897,62 871,62 871,162 "/>
    <polygon class="fil1" points="1120,162 1120,78 1093,78 1093,162 "/>
    <polygon class="fil1" points="1057,162 1057,63 1030,63 1030,162 "/>
    <polygon class="fil1" points="1297,162 1297,74 1270,74 1270,162 "/>
    <polygon class="fil1" points="1401,162 1401,53 1375,53 1375,162 "/>
    <polygon class="fil1" points="105,162 105,69 79,69 79,162 "/>
    <g>
     <path class="fil2" d="M249 87l26 0 0 28 34 0 0 47 -4 0 0 -1 -27 0 0 1 -29 0 0 -75zm5 7l2 0 0 2 -2 0 0 -2zm4 0l2 0 0 2 -2 0 0 -2zm4 0l2 0 0 2 -2 0 0 -2zm-8 6l2 0 0 2 -2 0 0 -2zm4 0l2 0 0 2 -2 0 0 -2zm4 0l2 0 0 2 -2 0 0 -2zm-8 6l2 0 0 2 -2 0 0 -2zm4 0l2 0 0 2 -2 0 0 -2zm4 0l2 0 0 2 -2 0 0 -2zm-8 14l2 0 0 -1 -2 0 0 1zm4 0l2 0 0 -1 -2 0 0 1zm4 0l2 0 0 -1 -2 0 0 1zm-8 -6l2 0 0 -1 -2 0 0 1zm4 0l2 0 0 -1 -2 0 0 1zm4 0l2 0 0 -1 -2 0 0 1zm-8 30l2 0 0 -1 -2 0 0 1zm4 0l2 0 0 -1 -2 0 0 1zm4 0l2 0 0 -1 -2 0 0 1zm-8 -6l2 0 0 -1 -2 0 0 1zm4 0l2 0 0 -1 -2 0 0 1zm4 0l2 0 0 -1 -2 0 0 1zm-8 -6l2 0 0 -1 -2 0 0 1zm4 0l2 0 0 -1 -2 0 0 1zm4 0l2 0 0 -1 -2 0 0 1zm-8 -7l2 0 0 1 -2 0 0 -1zm4 0l2 0 0 1 -2 0 0 -1zm4 0l2 0 0 1 -2 0 0 -1zm16 24l27 0 0 2 -27 0 0 -2zm0 8l27 0 0 -2 -27 0 0 2zm0 -18l27 0 0 -2 -27 0 0 2zm0 6l27 0 0 -2 -27 0 0 2zm0 -14l27 0 0 2 -27 0 0 -2zm0 -6l27 0 0 2 -27 0 0 -2zm0 -6l27 0 0 1 -27 0 0 -1z"/>
     <path class="fil2" d="M426 71l2 0 5 14 0 77 -16 0 0 -77 6 -14 1 0 1 -26 1 26zm-6 18l2 0 0 1 -2 0 0 -1zm4 0l2 0 0 1 -2 0 0 -1zm4 0l2 0 0 1 -2 0 0 -1zm-8 6l2 0 0 1 -2 0 0 -1zm4 0l2 0 0 1 -2 0 0 -1zm4 0l2 0 0 1 -2 0 0 -1zm-8 6l2 0 0 1 -2 0 0 -1zm4 0l2 0 0 1 -2 0 0 -1zm4 0l2 0 0 1 -2 0 0 -1zm-8 13l2 0 0 -1 -2 0 0 1zm4 0l2 0 0 -1 -2 0 0 1zm4 0l2 0 0 -1 -2 0 0 1zm-8 -6l2 0 0 -1 -2 0 0 1zm4 0l2 0 0 -1 -2 0 0 1zm4 0l2 0 0 -1 -2 0 0 1zm-8 30l2 0 0 -1 -2 0 0 1zm4 0l2 0 0 -1 -2 0 0 1zm4 0l2 0 0 -1 -2 0 0 1zm-8 -6l2 0 0 -1 -2 0 0 1zm4 0l2 0 0 -1 -2 0 0 1zm4 0l2 0 0 -1 -2 0 0 1zm-8 -6l2 0 0 -1 -2 0 0 1zm4 0l2 0 0 -1 -2 0 0 1zm4 0l2 0 0 -1 -2 0 0 1zm-8 -7l2 0 0 1 -2 0 0 -1zm4 0l2 0 0 1 -2 0 0 -1zm4 0l2 0 0 1 -2 0 0 -1z"/>
     <path class="fil2" d="M445 126l17 0 0 -30 20 0 0 -8 17 0 0 8 5 0 0 66 -59 0 0 -36zm22 -27l10 0 0 1 -10 0 0 -1zm0 35l10 0 0 1 -10 0 0 -1zm0 -4l10 0 0 1 -10 0 0 -1zm0 -5l10 0 0 1 -10 0 0 -1zm0 -4l10 0 0 1 -10 0 0 -1zm0 -4l10 0 0 1 -10 0 0 -1zm0 -5l10 0 0 1 -10 0 0 -1zm0 -4l10 0 0 1 -10 0 0 -1zm0 -5l10 0 0 1 -10 0 0 -1zm-18 28l11 0 0 1 -11 0 0 -1zm0 26l11 0 0 1 -11 0 0 -1zm0 -4l11 0 0 1 -11 0 0 -1zm0 -4l11 0 0 1 -11 0 0 -1zm0 -5l11 0 0 1 -11 0 0 -1zm0 -4l11 0 0 1 -11 0 0 -1zm0 -5l11 0 0 1 -11 0 0 -1zm37 -38l3 0 0 2 -3 0 0 -2zm5 0l2 0 0 2 -2 0 0 -2zm4 0l2 0 0 2 -2 0 0 -2zm-9 6l3 0 0 2 -3 0 0 -2zm5 0l2 0 0 2 -2 0 0 -2zm4 0l2 0 0 2 -2 0 0 -2zm-9 6l3 0 0 2 -3 0 0 -2zm5 0l2 0 0 2 -2 0 0 -2zm4 0l2 0 0 2 -2 0 0 -2zm-9 14l3 0 0 -2 -3 0 0 2zm5 0l2 0 0 -2 -2 0 0 2zm4 0l2 0 0 -2 -2 0 0 2zm-9 -6l3 0 0 -2 -3 0 0 2zm5 0l2 0 0 -2 -2 0 0 2zm4 0l2 0 0 -2 -2 0 0 2zm-9 30l3 0 0 -2 -3 0 0 2zm5 0l2 0 0 -2 -2 0 0 2zm4 0l2 0 0 -2 -2 0 0 2zm-9 -6l3 0 0 -2 -3 0 0 2zm5 0l2 0 0 -2 -2 0 0 2zm4 0l2 0 0 -2 -2 0 0 2zm-9 -6l3 0 0 -2 -3 0 0 2zm5 0l2 0 0 -2 -2 0 0 2zm4 0l2 0 0 -2 -2 0 0 2zm-9 -8l3 0 0 2 -3 0 0 -2zm5 0l2 0 0 2 -2 0 0 -2zm4 0l2 0 0 2 -2 0 0 -2z"/>
     <path class="fil2" d="M510 108l23 0 0 54 -23 0 0 -54zm4 9l15 0 0 1 -15 0 0 -1zm0 35l15 0 0 1 -15 0 0 -1zm0 -5l15 0 0 2 -15 0 0 -2zm0 -4l15 0 0 1 -15 0 0 -1zm0 -4l15 0 0 1 -15 0 0 -1zm0 -5l15 0 0 1 -15 0 0 -1zm0 -4l15 0 0 1 -15 0 0 -1zm0 -4l15 0 0 1 -15 0 0 -1zm0 -5l15 0 0 1 -15 0 0 -1z"/>
     <path class="fil2" d="M547 79l22 0 0 83 -22 0 0 -83zm6 8l2 0 0 2 -2 0 0 -2zm4 0l2 0 0 2 -2 0 0 -2zm4 0l2 0 0 2 -2 0 0 -2zm-8 6l2 0 0 2 -2 0 0 -2zm4 0l2 0 0 2 -2 0 0 -2zm4 0l2 0 0 2 -2 0 0 -2zm-8 6l2 0 0 2 -2 0 0 -2zm4 0l2 0 0 2 -2 0 0 -2zm4 0l2 0 0 2 -2 0 0 -2zm-8 14l2 0 0 -1 -2 0 0 1zm4 0l2 0 0 -1 -2 0 0 1zm4 0l2 0 0 -1 -2 0 0 1zm-8 -6l2 0 0 -1 -2 0 0 1zm4 0l2 0 0 -1 -2 0 0 1zm4 0l2 0 0 -1 -2 0 0 1zm-8 30l2 0 0 -1 -2 0 0 1zm4 0l2 0 0 -1 -2 0 0 1zm4 0l2 0 0 -1 -2 0 0 1zm-8 -6l2 0 0 -1 -2 0 0 1zm4 0l2 0 0 -1 -2 0 0 1zm4 0l2 0 0 -1 -2 0 0 1zm-8 -6l2 0 0 -1 -2 0 0 1zm4 0l2 0 0 -1 -2 0 0 1zm4 0l2 0 0 -1 -2 0 0 1zm-8 -7l2 0 0 1 -2 0 0 -1zm4 0l2 0 0 1 -2 0 0 -1zm4 0l2 0 0 1 -2 0 0 -1z"/>
     <path class="fil2" d="M626 121l-28 0 0 17 -17 0 0 24 45 0 0 -41zm-26 4l5 0 0 2 -5 0 0 -2zm9 0l5 0 0 2 -5 0 0 -2zm9 0l5 0 0 2 -5 0 0 -2zm-18 5l5 0 0 1 -5 0 0 -1zm9 0l5 0 0 1 -5 0 0 -1zm9 0l5 0 0 1 -5 0 0 -1zm-18 5l5 0 0 1 -5 0 0 -1zm9 0l5 0 0 1 -5 0 0 -1zm9 0l5 0 0 1 -5 0 0 -1zm-18 11l5 0 0 -1 -5 0 0 1zm9 0l5 0 0 -1 -5 0 0 1zm9 0l5 0 0 -1 -5 0 0 1zm-18 -5l5 0 0 -1 -5 0 0 1zm9 0l5 0 0 -1 -5 0 0 1zm9 0l5 0 0 -1 -5 0 0 1zm-18 20l5 0 0 -2 -5 0 0 2zm9 0l5 0 0 -2 -5 0 0 2zm9 0l5 0 0 -2 -5 0 0 2zm-18 -5l5 0 0 -1 -5 0 0 1zm9 0l5 0 0 -1 -5 0 0 1zm9 0l5 0 0 -1 -5 0 0 1zm-18 -6l5 0 0 1 -5 0 0 -1zm9 0l5 0 0 1 -5 0 0 -1zm9 0l5 0 0 1 -5 0 0 -1z"/>
     <path class="fil2" d="M666 162l0 -99 -2 0 0 37 -32 0 0 62 34 0zm-29 -55l23 0 0 2 -23 0 0 -2zm0 7l23 0 0 2 -23 0 0 -2zm0 7l23 0 0 2 -23 0 0 -2zm0 7l23 0 0 1 -23 0 0 -1zm0 7l23 0 0 1 -23 0 0 -1zm0 7l23 0 0 1 -23 0 0 -1zm0 6l23 0 0 2 -23 0 0 -2zm0 7l23 0 0 2 -23 0 0 -2z"/>
     <path class="fil3" d="M664 100l0 -37 0 -21c-7,33 -27,20 -30,58l30 0z"/>
     <path class="fil2" d="M329 79l33 0 0 83 -33 0 0 -83zm3 10l27 0 0 1 -27 0 0 -1zm0 6l27 0 0 1 -27 0 0 -1zm0 6l27 0 0 1 -27 0 0 -1zm0 13l27 0 0 -1 -27 0 0 1zm0 -6l27 0 0 -1 -27 0 0 1zm0 30l27 0 0 -1 -27 0 0 1zm0 -6l27 0 0 -1 -27 0 0 1zm0 -6l27 0 0 -1 -27 0 0 1zm0 -7l27 0 0 1 -27 0 0 -1z"/>
     <path class="fil2" d="M368 100l34 0 0 62 -34 0 0 -62zm4 8l7 0 0 1 -7 0 0 -1zm9 0l8 0 0 1 -8 0 0 -1zm10 0l8 0 0 1 -8 0 0 -1zm-19 6l7 0 0 1 -7 0 0 -1zm9 0l8 0 0 1 -8 0 0 -1zm10 0l8 0 0 1 -8 0 0 -1zm-19 6l7 0 0 1 -7 0 0 -1zm9 0l8 0 0 1 -8 0 0 -1zm10 0l8 0 0 1 -8 0 0 -1zm-19 13l7 0 0 -1 -7 0 0 1zm9 0l8 0 0 -1 -8 0 0 1zm10 0l8 0 0 -1 -8 0 0 1zm-19 -6l7 0 0 -1 -7 0 0 1zm9 0l8 0 0 -1 -8 0 0 1zm10 0l8 0 0 -1 -8 0 0 1zm-19 31l7 0 0 -2 -7 0 0 2zm9 0l8 0 0 -2 -8 0 0 2zm10 0l8 0 0 -2 -8 0 0 2zm-19 -6l7 0 0 -2 -7 0 0 2zm9 0l8 0 0 -2 -8 0 0 2zm10 0l8 0 0 -2 -8 0 0 2zm-19 -6l7 0 0 -2 -7 0 0 2zm9 0l8 0 0 -2 -8 0 0 2zm10 0l8 0 0 -2 -8 0 0 2zm-19 -8l7 0 0 2 -7 0 0 -2zm9 0l8 0 0 2 -8 0 0 -2zm10 0l8 0 0 2 -8 0 0 -2z"/>
     <path class="fil2" d="M674 108l23 0 0 54 -23 0 0 -54zm4 9l15 0 0 1 -15 0 0 -1zm0 35l15 0 0 1 -15 0 0 -1zm0 -5l15 0 0 2 -15 0 0 -2zm0 -4l15 0 0 1 -15 0 0 -1zm0 -4l15 0 0 1 -15 0 0 -1zm0 -5l15 0 0 1 -15 0 0 -1zm0 -4l15 0 0 1 -15 0 0 -1zm0 -4l15 0 0 1 -15 0 0 -1zm0 -5l15 0 0 1 -15 0 0 -1z"/>
     <path class="fil2" d="M708 100l34 0 0 62 -34 0 0 -62zm3 8l8 0 0 1 -8 0 0 -1zm10 0l8 0 0 1 -8 0 0 -1zm10 0l7 0 0 1 -7 0 0 -1zm-20 6l8 0 0 1 -8 0 0 -1zm10 0l8 0 0 1 -8 0 0 -1zm10 0l7 0 0 1 -7 0 0 -1zm-20 6l8 0 0 1 -8 0 0 -1zm10 0l8 0 0 1 -8 0 0 -1zm10 0l7 0 0 1 -7 0 0 -1zm-20 13l8 0 0 -1 -8 0 0 1zm10 0l8 0 0 -1 -8 0 0 1zm10 0l7 0 0 -1 -7 0 0 1zm-20 -6l8 0 0 -1 -8 0 0 1zm10 0l8 0 0 -1 -8 0 0 1zm10 0l7 0 0 -1 -7 0 0 1zm-20 31l8 0 0 -2 -8 0 0 2zm10 0l8 0 0 -2 -8 0 0 2zm10 0l7 0 0 -2 -7 0 0 2zm-20 -6l8 0 0 -2 -8 0 0 2zm10 0l8 0 0 -2 -8 0 0 2zm10 0l7 0 0 -2 -7 0 0 2zm-20 -6l8 0 0 -2 -8 0 0 2zm10 0l8 0 0 -2 -8 0 0 2zm10 0l7 0 0 -2 -7 0 0 2zm-20 -8l8 0 0 2 -8 0 0 -2zm10 0l8 0 0 2 -8 0 0 -2zm10 0l7 0 0 2 -7 0 0 -2z"/>
     <path class="fil2" d="M241 121l-28 0 0 17 -17 0 0 24 45 0 0 -41zm-26 4l5 0 0 2 -5 0 0 -2zm9 0l5 0 0 2 -5 0 0 -2zm9 0l5 0 0 2 -5 0 0 -2zm-18 5l5 0 0 1 -5 0 0 -1zm9 0l5 0 0 1 -5 0 0 -1zm9 0l5 0 0 1 -5 0 0 -1zm-18 5l5 0 0 1 -5 0 0 -1zm9 0l5 0 0 1 -5 0 0 -1zm9 0l5 0 0 1 -5 0 0 -1zm-18 11l5 0 0 -1 -5 0 0 1zm9 0l5 0 0 -1 -5 0 0 1zm9 0l5 0 0 -1 -5 0 0 1zm-18 -5l5 0 0 -1 -5 0 0 1zm9 0l5 0 0 -1 -5 0 0 1zm9 0l5 0 0 -1 -5 0 0 1zm-18 20l5 0 0 -2 -5 0 0 2zm9 0l5 0 0 -2 -5 0 0 2zm9 0l5 0 0 -2 -5 0 0 2zm-18 -5l5 0 0 -1 -5 0 0 1zm9 0l5 0 0 -1 -5 0 0 1zm9 0l5 0 0 -1 -5 0 0 1zm-18 -6l5 0 0 1 -5 0 0 -1zm9 0l5 0 0 1 -5 0 0 -1zm9 0l5 0 0 1 -5 0 0 -1z"/>
     <path class="fil2" d="M173 79l17 0 0 83 -17 0 0 -83zm5 8l1 0 0 2 -1 0 0 -2zm3 0l1 0 0 2 -1 0 0 -2zm3 0l1 0 0 2 -1 0 0 -2zm-6 6l1 0 0 2 -1 0 0 -2zm3 0l1 0 0 2 -1 0 0 -2zm3 0l1 0 0 2 -1 0 0 -2zm-6 6l1 0 0 2 -1 0 0 -2zm3 0l1 0 0 2 -1 0 0 -2zm3 0l1 0 0 2 -1 0 0 -2zm-6 14l1 0 0 -1 -1 0 0 1zm3 0l1 0 0 -1 -1 0 0 1zm3 0l1 0 0 -1 -1 0 0 1zm-6 -6l1 0 0 -1 -1 0 0 1zm3 0l1 0 0 -1 -1 0 0 1zm3 0l1 0 0 -1 -1 0 0 1zm-6 30l1 0 0 -1 -1 0 0 1zm3 0l1 0 0 -1 -1 0 0 1zm3 0l1 0 0 -1 -1 0 0 1zm-6 -6l1 0 0 -1 -1 0 0 1zm3 0l1 0 0 -1 -1 0 0 1zm3 0l1 0 0 -1 -1 0 0 1zm-6 -6l1 0 0 -1 -1 0 0 1zm3 0l1 0 0 -1 -1 0 0 1zm3 0l1 0 0 -1 -1 0 0 1zm-6 -7l1 0 0 1 -1 0 0 -1zm3 0l1 0 0 1 -1 0 0 -1zm3 0l1 0 0 1 -1 0 0 -1z"/>
     <path class="fil2" d="M829 87l25 0 0 28 34 0 0 47 -4 0 0 -1 -27 0 0 1 -28 0 0 -75zm4 7l2 0 0 2 -2 0 0 -2zm4 0l2 0 0 2 -2 0 0 -2zm4 0l2 0 0 2 -2 0 0 -2zm-8 6l2 0 0 2 -2 0 0 -2zm4 0l2 0 0 2 -2 0 0 -2zm4 0l2 0 0 2 -2 0 0 -2zm-8 6l2 0 0 2 -2 0 0 -2zm4 0l2 0 0 2 -2 0 0 -2zm4 0l2 0 0 2 -2 0 0 -2zm-8 14l2 0 0 -1 -2 0 0 1zm4 0l2 0 0 -1 -2 0 0 1zm4 0l2 0 0 -1 -2 0 0 1zm-8 -6l2 0 0 -1 -2 0 0 1zm4 0l2 0 0 -1 -2 0 0 1zm4 0l2 0 0 -1 -2 0 0 1zm-8 30l2 0 0 -1 -2 0 0 1zm4 0l2 0 0 -1 -2 0 0 1zm4 0l2 0 0 -1 -2 0 0 1zm-8 -6l2 0 0 -1 -2 0 0 1zm4 0l2 0 0 -1 -2 0 0 1zm4 0l2 0 0 -1 -2 0 0 1zm-8 -6l2 0 0 -1 -2 0 0 1zm4 0l2 0 0 -1 -2 0 0 1zm4 0l2 0 0 -1 -2 0 0 1zm-8 -7l2 0 0 1 -2 0 0 -1zm4 0l2 0 0 1 -2 0 0 -1zm4 0l2 0 0 1 -2 0 0 -1zm16 24l27 0 0 2 -27 0 0 -2zm0 8l27 0 0 -2 -27 0 0 2zm0 -18l27 0 0 -2 -27 0 0 2zm0 6l27 0 0 -2 -27 0 0 2zm0 -14l27 0 0 2 -27 0 0 -2zm0 -6l27 0 0 2 -27 0 0 -2zm0 -6l27 0 0 1 -27 0 0 -1z"/>
     <path class="fil2" d="M1006 71l1 0 6 14 0 77 -17 0 0 -77 6 -14 1 0 1 -26 2 26zm-7 18l2 0 0 1 -2 0 0 -1zm4 0l3 0 0 1 -3 0 0 -1zm5 0l2 0 0 1 -2 0 0 -1zm-9 6l2 0 0 1 -2 0 0 -1zm4 0l3 0 0 1 -3 0 0 -1zm5 0l2 0 0 1 -2 0 0 -1zm-9 6l2 0 0 1 -2 0 0 -1zm4 0l3 0 0 1 -3 0 0 -1zm5 0l2 0 0 1 -2 0 0 -1zm-9 13l2 0 0 -1 -2 0 0 1zm4 0l3 0 0 -1 -3 0 0 1zm5 0l2 0 0 -1 -2 0 0 1zm-9 -6l2 0 0 -1 -2 0 0 1zm4 0l3 0 0 -1 -3 0 0 1zm5 0l2 0 0 -1 -2 0 0 1zm-9 30l2 0 0 -1 -2 0 0 1zm4 0l3 0 0 -1 -3 0 0 1zm5 0l2 0 0 -1 -2 0 0 1zm-9 -6l2 0 0 -1 -2 0 0 1zm4 0l3 0 0 -1 -3 0 0 1zm5 0l2 0 0 -1 -2 0 0 1zm-9 -6l2 0 0 -1 -2 0 0 1zm4 0l3 0 0 -1 -3 0 0 1zm5 0l2 0 0 -1 -2 0 0 1zm-9 -7l2 0 0 1 -2 0 0 -1zm4 0l3 0 0 1 -3 0 0 -1zm5 0l2 0 0 1 -2 0 0 -1z"/>
     <path class="fil2" d="M1024 126l17 0 0 -30 21 0 0 -8 17 0 0 8 4 0 0 66 -59 0 0 -36zm22 -27l11 0 0 1 -11 0 0 -1zm0 35l11 0 0 1 -11 0 0 -1zm0 -4l11 0 0 1 -11 0 0 -1zm0 -5l11 0 0 1 -11 0 0 -1zm0 -4l11 0 0 1 -11 0 0 -1zm0 -4l11 0 0 1 -11 0 0 -1zm0 -5l11 0 0 1 -11 0 0 -1zm0 -4l11 0 0 1 -11 0 0 -1zm0 -5l11 0 0 1 -11 0 0 -1zm-18 28l11 0 0 1 -11 0 0 -1zm0 26l11 0 0 1 -11 0 0 -1zm0 -4l11 0 0 1 -11 0 0 -1zm0 -4l11 0 0 1 -11 0 0 -1zm0 -5l11 0 0 1 -11 0 0 -1zm0 -4l11 0 0 1 -11 0 0 -1zm0 -5l11 0 0 1 -11 0 0 -1zm38 -38l2 0 0 2 -2 0 0 -2zm4 0l2 0 0 2 -2 0 0 -2zm4 0l2 0 0 2 -2 0 0 -2zm-8 6l2 0 0 2 -2 0 0 -2zm4 0l2 0 0 2 -2 0 0 -2zm4 0l2 0 0 2 -2 0 0 -2zm-8 6l2 0 0 2 -2 0 0 -2zm4 0l2 0 0 2 -2 0 0 -2zm4 0l2 0 0 2 -2 0 0 -2zm-8 14l2 0 0 -2 -2 0 0 2zm4 0l2 0 0 -2 -2 0 0 2zm4 0l2 0 0 -2 -2 0 0 2zm-8 -6l2 0 0 -2 -2 0 0 2zm4 0l2 0 0 -2 -2 0 0 2zm4 0l2 0 0 -2 -2 0 0 2zm-8 30l2 0 0 -2 -2 0 0 2zm4 0l2 0 0 -2 -2 0 0 2zm4 0l2 0 0 -2 -2 0 0 2zm-8 -6l2 0 0 -2 -2 0 0 2zm4 0l2 0 0 -2 -2 0 0 2zm4 0l2 0 0 -2 -2 0 0 2zm-8 -6l2 0 0 -2 -2 0 0 2zm4 0l2 0 0 -2 -2 0 0 2zm4 0l2 0 0 -2 -2 0 0 2zm-8 -8l2 0 0 2 -2 0 0 -2zm4 0l2 0 0 2 -2 0 0 -2zm4 0l2 0 0 2 -2 0 0 -2z"/>
     <path class="fil2" d="M1090 108l22 0 0 54 -22 0 0 -54zm3 9l15 0 0 1 -15 0 0 -1zm0 35l15 0 0 1 -15 0 0 -1zm0 -5l15 0 0 2 -15 0 0 -2zm0 -4l15 0 0 1 -15 0 0 -1zm0 -4l15 0 0 1 -15 0 0 -1zm0 -5l15 0 0 1 -15 0 0 -1zm0 -4l15 0 0 1 -15 0 0 -1zm0 -4l15 0 0 1 -15 0 0 -1zm0 -5l15 0 0 1 -15 0 0 -1z"/>
     <path class="fil2" d="M1126 79l23 0 0 83 -23 0 0 -83zm6 8l2 0 0 2 -2 0 0 -2zm4 0l2 0 0 2 -2 0 0 -2zm4 0l2 0 0 2 -2 0 0 -2zm-8 6l2 0 0 2 -2 0 0 -2zm4 0l2 0 0 2 -2 0 0 -2zm4 0l2 0 0 2 -2 0 0 -2zm-8 6l2 0 0 2 -2 0 0 -2zm4 0l2 0 0 2 -2 0 0 -2zm4 0l2 0 0 2 -2 0 0 -2zm-8 14l2 0 0 -1 -2 0 0 1zm4 0l2 0 0 -1 -2 0 0 1zm4 0l2 0 0 -1 -2 0 0 1zm-8 -6l2 0 0 -1 -2 0 0 1zm4 0l2 0 0 -1 -2 0 0 1zm4 0l2 0 0 -1 -2 0 0 1zm-8 30l2 0 0 -1 -2 0 0 1zm4 0l2 0 0 -1 -2 0 0 1zm4 0l2 0 0 -1 -2 0 0 1zm-8 -6l2 0 0 -1 -2 0 0 1zm4 0l2 0 0 -1 -2 0 0 1zm4 0l2 0 0 -1 -2 0 0 1zm-8 -6l2 0 0 -1 -2 0 0 1zm4 0l2 0 0 -1 -2 0 0 1zm4 0l2 0 0 -1 -2 0 0 1zm-8 -7l2 0 0 1 -2 0 0 -1zm4 0l2 0 0 1 -2 0 0 -1zm4 0l2 0 0 1 -2 0 0 -1z"/>
     <path class="fil2" d="M1205 121l-28 0 0 17 -17 0 0 24 45 0 0 -41zm-26 4l5 0 0 2 -5 0 0 -2zm9 0l5 0 0 2 -5 0 0 -2zm10 0l4 0 0 2 -4 0 0 -2zm-19 5l5 0 0 1 -5 0 0 -1zm9 0l5 0 0 1 -5 0 0 -1zm10 0l4 0 0 1 -4 0 0 -1zm-19 5l5 0 0 1 -5 0 0 -1zm9 0l5 0 0 1 -5 0 0 -1zm10 0l4 0 0 1 -4 0 0 -1zm-19 11l5 0 0 -1 -5 0 0 1zm9 0l5 0 0 -1 -5 0 0 1zm10 0l4 0 0 -1 -4 0 0 1zm-19 -5l5 0 0 -1 -5 0 0 1zm9 0l5 0 0 -1 -5 0 0 1zm10 0l4 0 0 -1 -4 0 0 1zm-19 20l5 0 0 -2 -5 0 0 2zm9 0l5 0 0 -2 -5 0 0 2zm10 0l4 0 0 -2 -4 0 0 2zm-19 -5l5 0 0 -1 -5 0 0 1zm9 0l5 0 0 -1 -5 0 0 1zm10 0l4 0 0 -1 -4 0 0 1zm-19 -6l5 0 0 1 -5 0 0 -1zm9 0l5 0 0 1 -5 0 0 -1zm10 0l4 0 0 1 -4 0 0 -1z"/>
     <path class="fil2" d="M1245 162l0 -99 -2 0 0 37 -32 0 0 62 34 0zm-29 -55l24 0 0 2 -24 0 0 -2zm0 7l24 0 0 2 -24 0 0 -2zm0 7l24 0 0 2 -24 0 0 -2zm0 7l24 0 0 1 -24 0 0 -1zm0 7l24 0 0 1 -24 0 0 -1zm0 7l24 0 0 1 -24 0 0 -1zm0 6l24 0 0 2 -24 0 0 -2zm0 7l24 0 0 2 -24 0 0 -2z"/>
     <path class="fil3" d="M1243 100l0 -37 0 -21c-7,33 -27,20 -30,58l30 0z"/>
     <path class="fil2" d="M908 79l34 0 0 83 -34 0 0 -83zm3 10l27 0 0 1 -27 0 0 -1zm0 6l27 0 0 1 -27 0 0 -1zm0 6l27 0 0 1 -27 0 0 -1zm0 13l27 0 0 -1 -27 0 0 1zm0 -6l27 0 0 -1 -27 0 0 1zm0 30l27 0 0 -1 -27 0 0 1zm0 -6l27 0 0 -1 -27 0 0 1zm0 -6l27 0 0 -1 -27 0 0 1zm0 -7l27 0 0 1 -27 0 0 -1z"/>
     <path class="fil2" d="M948 100l33 0 0 62 -33 0 0 -62zm3 8l7 0 0 1 -7 0 0 -1zm9 0l8 0 0 1 -8 0 0 -1zm10 0l8 0 0 1 -8 0 0 -1zm-19 6l7 0 0 1 -7 0 0 -1zm9 0l8 0 0 1 -8 0 0 -1zm10 0l8 0 0 1 -8 0 0 -1zm-19 6l7 0 0 1 -7 0 0 -1zm9 0l8 0 0 1 -8 0 0 -1zm10 0l8 0 0 1 -8 0 0 -1zm-19 13l7 0 0 -1 -7 0 0 1zm9 0l8 0 0 -1 -8 0 0 1zm10 0l8 0 0 -1 -8 0 0 1zm-19 -6l7 0 0 -1 -7 0 0 1zm9 0l8 0 0 -1 -8 0 0 1zm10 0l8 0 0 -1 -8 0 0 1zm-19 31l7 0 0 -2 -7 0 0 2zm9 0l8 0 0 -2 -8 0 0 2zm10 0l8 0 0 -2 -8 0 0 2zm-19 -6l7 0 0 -2 -7 0 0 2zm9 0l8 0 0 -2 -8 0 0 2zm10 0l8 0 0 -2 -8 0 0 2zm-19 -6l7 0 0 -2 -7 0 0 2zm9 0l8 0 0 -2 -8 0 0 2zm10 0l8 0 0 -2 -8 0 0 2zm-19 -8l7 0 0 2 -7 0 0 -2zm9 0l8 0 0 2 -8 0 0 -2zm10 0l8 0 0 2 -8 0 0 -2z"/>
     <path class="fil2" d="M1253 108l23 0 0 54 -23 0 0 -54zm4 9l15 0 0 1 -15 0 0 -1zm0 35l15 0 0 1 -15 0 0 -1zm0 -5l15 0 0 2 -15 0 0 -2zm0 -4l15 0 0 1 -15 0 0 -1zm0 -4l15 0 0 1 -15 0 0 -1zm0 -5l15 0 0 1 -15 0 0 -1zm0 -4l15 0 0 1 -15 0 0 -1zm0 -4l15 0 0 1 -15 0 0 -1zm0 -5l15 0 0 1 -15 0 0 -1z"/>
     <path class="fil2" d="M1287 100l34 0 0 62 -34 0 0 -62zm4 8l7 0 0 1 -7 0 0 -1zm9 0l8 0 0 1 -8 0 0 -1zm10 0l8 0 0 1 -8 0 0 -1zm-19 6l7 0 0 1 -7 0 0 -1zm9 0l8 0 0 1 -8 0 0 -1zm10 0l8 0 0 1 -8 0 0 -1zm-19 6l7 0 0 1 -7 0 0 -1zm9 0l8 0 0 1 -8 0 0 -1zm10 0l8 0 0 1 -8 0 0 -1zm-19 13l7 0 0 -1 -7 0 0 1zm9 0l8 0 0 -1 -8 0 0 1zm10 0l8 0 0 -1 -8 0 0 1zm-19 -6l7 0 0 -1 -7 0 0 1zm9 0l8 0 0 -1 -8 0 0 1zm10 0l8 0 0 -1 -8 0 0 1zm-19 31l7 0 0 -2 -7 0 0 2zm9 0l8 0 0 -2 -8 0 0 2zm10 0l8 0 0 -2 -8 0 0 2zm-19 -6l7 0 0 -2 -7 0 0 2zm9 0l8 0 0 -2 -8 0 0 2zm10 0l8 0 0 -2 -8 0 0 2zm-19 -6l7 0 0 -2 -7 0 0 2zm9 0l8 0 0 -2 -8 0 0 2zm10 0l8 0 0 -2 -8 0 0 2zm-19 -8l7 0 0 2 -7 0 0 -2zm9 0l8 0 0 2 -8 0 0 -2zm10 0l8 0 0 2 -8 0 0 -2z"/>
     <path class="fil2" d="M820 121l-28 0 0 17 -17 0 0 24 45 0 0 -41zm-26 4l5 0 0 2 -5 0 0 -2zm9 0l5 0 0 2 -5 0 0 -2zm10 0l4 0 0 2 -4 0 0 -2zm-19 5l5 0 0 1 -5 0 0 -1zm9 0l5 0 0 1 -5 0 0 -1zm10 0l4 0 0 1 -4 0 0 -1zm-19 5l5 0 0 1 -5 0 0 -1zm9 0l5 0 0 1 -5 0 0 -1zm10 0l4 0 0 1 -4 0 0 -1zm-19 11l5 0 0 -1 -5 0 0 1zm9 0l5 0 0 -1 -5 0 0 1zm10 0l4 0 0 -1 -4 0 0 1zm-19 -5l5 0 0 -1 -5 0 0 1zm9 0l5 0 0 -1 -5 0 0 1zm10 0l4 0 0 -1 -4 0 0 1zm-19 20l5 0 0 -2 -5 0 0 2zm9 0l5 0 0 -2 -5 0 0 2zm10 0l4 0 0 -2 -4 0 0 2zm-19 -5l5 0 0 -1 -5 0 0 1zm9 0l5 0 0 -1 -5 0 0 1zm10 0l4 0 0 -1 -4 0 0 1zm-19 -6l5 0 0 1 -5 0 0 -1zm9 0l5 0 0 1 -5 0 0 -1zm10 0l4 0 0 1 -4 0 0 -1z"/>
     <path class="fil2" d="M753 79l16 0 0 83 -16 0 0 -83zm4 8l2 0 0 2 -2 0 0 -2zm3 0l2 0 0 2 -2 0 0 -2zm3 0l2 0 0 2 -2 0 0 -2zm-6 6l2 0 0 2 -2 0 0 -2zm3 0l2 0 0 2 -2 0 0 -2zm3 0l2 0 0 2 -2 0 0 -2zm-6 6l2 0 0 2 -2 0 0 -2zm3 0l2 0 0 2 -2 0 0 -2zm3 0l2 0 0 2 -2 0 0 -2zm-6 14l2 0 0 -1 -2 0 0 1zm3 0l2 0 0 -1 -2 0 0 1zm3 0l2 0 0 -1 -2 0 0 1zm-6 -6l2 0 0 -1 -2 0 0 1zm3 0l2 0 0 -1 -2 0 0 1zm3 0l2 0 0 -1 -2 0 0 1zm-6 30l2 0 0 -1 -2 0 0 1zm3 0l2 0 0 -1 -2 0 0 1zm3 0l2 0 0 -1 -2 0 0 1zm-6 -6l2 0 0 -1 -2 0 0 1zm3 0l2 0 0 -1 -2 0 0 1zm3 0l2 0 0 -1 -2 0 0 1zm-6 -6l2 0 0 -1 -2 0 0 1zm3 0l2 0 0 -1 -2 0 0 1zm3 0l2 0 0 -1 -2 0 0 1zm-6 -7l2 0 0 1 -2 0 0 -1zm3 0l2 0 0 1 -2 0 0 -1zm3 0l2 0 0 1 -2 0 0 -1z"/>
     <path class="fil2" d="M72 126l17 0 0 -30 21 0 0 -8 17 0 0 8 5 0 0 66 -60 0 0 -36zm22 -27l11 0 0 1 -11 0 0 -1zm0 35l11 0 0 1 -11 0 0 -1zm0 -4l11 0 0 1 -11 0 0 -1zm0 -5l11 0 0 1 -11 0 0 -1zm0 -4l11 0 0 1 -11 0 0 -1zm0 -4l11 0 0 1 -11 0 0 -1zm0 -5l11 0 0 1 -11 0 0 -1zm0 -4l11 0 0 1 -11 0 0 -1zm0 -5l11 0 0 1 -11 0 0 -1zm-17 28l10 0 0 1 -10 0 0 -1zm0 26l10 0 0 1 -10 0 0 -1zm0 -4l10 0 0 1 -10 0 0 -1zm0 -4l10 0 0 1 -10 0 0 -1zm0 -5l10 0 0 1 -10 0 0 -1zm0 -4l10 0 0 1 -10 0 0 -1zm0 -5l10 0 0 1 -10 0 0 -1zm37 -38l2 0 0 2 -2 0 0 -2zm4 0l2 0 0 2 -2 0 0 -2zm4 0l2 0 0 2 -2 0 0 -2zm-8 6l2 0 0 2 -2 0 0 -2zm4 0l2 0 0 2 -2 0 0 -2zm4 0l2 0 0 2 -2 0 0 -2zm-8 6l2 0 0 2 -2 0 0 -2zm4 0l2 0 0 2 -2 0 0 -2zm4 0l2 0 0 2 -2 0 0 -2zm-8 14l2 0 0 -2 -2 0 0 2zm4 0l2 0 0 -2 -2 0 0 2zm4 0l2 0 0 -2 -2 0 0 2zm-8 -6l2 0 0 -2 -2 0 0 2zm4 0l2 0 0 -2 -2 0 0 2zm4 0l2 0 0 -2 -2 0 0 2zm-8 30l2 0 0 -2 -2 0 0 2zm4 0l2 0 0 -2 -2 0 0 2zm4 0l2 0 0 -2 -2 0 0 2zm-8 -6l2 0 0 -2 -2 0 0 2zm4 0l2 0 0 -2 -2 0 0 2zm4 0l2 0 0 -2 -2 0 0 2zm-8 -6l2 0 0 -2 -2 0 0 2zm4 0l2 0 0 -2 -2 0 0 2zm4 0l2 0 0 -2 -2 0 0 2zm-8 -8l2 0 0 2 -2 0 0 -2zm4 0l2 0 0 2 -2 0 0 -2zm4 0l2 0 0 2 -2 0 0 -2z"/>
     <path class="fil2" d="M138 108l22 0 0 54 -22 0 0 -54zm3 9l16 0 0 1 -16 0 0 -1zm0 35l16 0 0 1 -16 0 0 -1zm0 -5l16 0 0 2 -16 0 0 -2zm0 -4l16 0 0 1 -16 0 0 -1zm0 -4l16 0 0 1 -16 0 0 -1zm0 -5l16 0 0 1 -16 0 0 -1zm0 -4l16 0 0 1 -16 0 0 -1zm0 -4l16 0 0 1 -16 0 0 -1zm0 -5l16 0 0 1 -16 0 0 -1z"/>
     <path class="fil2" d="M1349 79l34 0 0 83 -34 0 0 -83zm3 10l27 0 0 1 -27 0 0 -1zm0 6l27 0 0 1 -27 0 0 -1zm0 6l27 0 0 1 -27 0 0 -1zm0 13l27 0 0 -1 -27 0 0 1zm0 -6l27 0 0 -1 -27 0 0 1zm0 30l27 0 0 -1 -27 0 0 1zm0 -6l27 0 0 -1 -27 0 0 1zm0 -6l27 0 0 -1 -27 0 0 1zm0 -7l27 0 0 1 -27 0 0 -1z"/>
     <path class="fil2" d="M1388 100l34 0 0 62 -34 0 0 -62zm4 8l7 0 0 1 -7 0 0 -1zm9 0l8 0 0 1 -8 0 0 -1zm10 0l8 0 0 1 -8 0 0 -1zm-19 6l7 0 0 1 -7 0 0 -1zm9 0l8 0 0 1 -8 0 0 -1zm10 0l8 0 0 1 -8 0 0 -1zm-19 6l7 0 0 1 -7 0 0 -1zm9 0l8 0 0 1 -8 0 0 -1zm10 0l8 0 0 1 -8 0 0 -1zm-19 13l7 0 0 -1 -7 0 0 1zm9 0l8 0 0 -1 -8 0 0 1zm10 0l8 0 0 -1 -8 0 0 1zm-19 -6l7 0 0 -1 -7 0 0 1zm9 0l8 0 0 -1 -8 0 0 1zm10 0l8 0 0 -1 -8 0 0 1zm-19 31l7 0 0 -2 -7 0 0 2zm9 0l8 0 0 -2 -8 0 0 2zm10 0l8 0 0 -2 -8 0 0 2zm-19 -6l7 0 0 -2 -7 0 0 2zm9 0l8 0 0 -2 -8 0 0 2zm10 0l8 0 0 -2 -8 0 0 2zm-19 -6l7 0 0 -2 -7 0 0 2zm9 0l8 0 0 -2 -8 0 0 2zm10 0l8 0 0 -2 -8 0 0 2zm-19 -8l7 0 0 2 -7 0 0 -2zm9 0l8 0 0 2 -8 0 0 -2zm10 0l8 0 0 2 -8 0 0 -2z"/>
     <path class="fil2" d="M1336 71l2 0 5 14 0 77 -16 0 0 -77 6 -14 1 0 1 -26 1 26zm-6 18l2 0 0 1 -2 0 0 -1zm4 0l2 0 0 1 -2 0 0 -1zm4 0l3 0 0 1 -3 0 0 -1zm-8 6l2 0 0 1 -2 0 0 -1zm4 0l2 0 0 1 -2 0 0 -1zm4 0l3 0 0 1 -3 0 0 -1zm-8 6l2 0 0 1 -2 0 0 -1zm4 0l2 0 0 1 -2 0 0 -1zm4 0l3 0 0 1 -3 0 0 -1zm-8 13l2 0 0 -1 -2 0 0 1zm4 0l2 0 0 -1 -2 0 0 1zm4 0l3 0 0 -1 -3 0 0 1zm-8 -6l2 0 0 -1 -2 0 0 1zm4 0l2 0 0 -1 -2 0 0 1zm4 0l3 0 0 -1 -3 0 0 1zm-8 30l2 0 0 -1 -2 0 0 1zm4 0l2 0 0 -1 -2 0 0 1zm4 0l3 0 0 -1 -3 0 0 1zm-8 -6l2 0 0 -1 -2 0 0 1zm4 0l2 0 0 -1 -2 0 0 1zm4 0l3 0 0 -1 -3 0 0 1zm-8 -6l2 0 0 -1 -2 0 0 1zm4 0l2 0 0 -1 -2 0 0 1zm4 0l3 0 0 -1 -3 0 0 1zm-8 -7l2 0 0 1 -2 0 0 -1zm4 0l2 0 0 1 -2 0 0 -1zm4 0l3 0 0 1 -3 0 0 -1z"/>
    </g>
    <g>
     <g>
      <polygon class="fil4" points="702,117 718,117 718,118 702,118 "/>
      <g>
       <path class="fil5" d="M703 135l7 0 7 0c3,0 9,3 12,7l-19 0 -19 0c3,-4 9,-7 12,-7z"/>
       <polygon class="fil4" points="694,142 726,142 726,144 694,144 "/>
       <polygon class="fil6" points="712,74 717,135 703,135 708,74 "/>
       <path class="fil5" d="M703 127l14 0c1,0 3,2 5,5l-12 0 -12 0c2,-3 4,-5 5,-5z"/>
       <polygon class="fil4" points="700,132 720,132 720,133 700,133 "/>
       <path class="fil5" d="M704 120l12 0c2,0 3,2 5,4l-11 0 -11 0c2,-2 3,-4 5,-4z"/>
       <polygon class="fil4" points="701,124 719,124 719,125 701,125 "/>
       <path class="fil5" d="M705 113l10 0c2,0 3,2 5,4l-20 0c2,-2 3,-4 5,-4z"/>
       <path class="fil5" d="M705 107l10 0c1,0 3,1 4,3l-18 0c1,-2 3,-3 4,-3z"/>
       <polygon class="fil4" points="703,110 717,110 717,111 703,111 "/>
       <path class="fil5" d="M706 101l8 0c2,0 3,1 4,3l-16 0c1,-2 2,-3 4,-3z"/>
       <polygon class="fil4" points="703,104 717,104 717,105 703,105 "/>
       <path class="fil5" d="M706 95l8 0c1,0 3,1 4,3l-16 0c1,-2 3,-3 4,-3z"/>
       <polygon class="fil4" points="704,98 716,98 716,99 704,99 "/>
       <path class="fil5" d="M706 90l8 0c1,0 2,1 3,2l-14 0c1,-1 2,-2 3,-2z"/>
       <polygon class="fil4" points="704,92 716,92 716,93 704,93 "/>
       <path class="fil5" d="M707 84l3 0 3 0c1,0 2,1 3,3l-6 0 -6 0c1,-2 2,-3 3,-3z"/>
       <polygon class="fil4" points="705,87 715,87 715,87 705,87 "/>
       <path class="fil5" d="M707 79l3 0 3 0c1,0 2,1 3,3l-6 0 -6 0c1,-2 2,-3 3,-3z"/>
       <polygon class="fil4" points="705,82 715,82 715,82 705,82 "/>
       <path class="fil5" d="M708 75l2 0 2 0c1,0 3,1 3,2l-5 0 -5 0c0,-1 2,-2 3,-2z"/>
       <polygon class="fil4" points="706,77 714,77 714,77 706,77 "/>
       <path class="fil5" d="M710 70l0 0c3,0 5,1 5,3l-5 0 -5 0c0,-2 2,-3 5,-3l0 0z"/>
       <polygon class="fil4" points="706,73 714,73 714,74 706,74 "/>
       <polygon class="fil6" points="710,70 709,70 710,68 710,68 710,68 711,70 "/>
       <path class="fil5" d="M710 70l-1 0c0,-1 0,-1 1,-1 1,0 1,0 1,1l-1 0z"/>
       <polygon class="fil4" points="709,70 711,70 711,70 709,70 "/>
       <path class="fil5" d="M710 69l-1 0c1,-1 1,-1 1,-1 0,0 0,0 1,1l-1 0z"/>
       <polygon class="fil4" points="710,69 710,69 710,69 710,69 "/>
       <path class="fil5" d="M710 68l0 0c0,0 0,0 0,0 0,0 0,0 0,0l0 0z"/>
       <polygon class="fil4" points="710,68 710,68 710,68 710,68 "/>
       <polygon class="fil6" points="700,160 720,160 720,144 700,144 "/>
       <g>
        <polygon class="fil7" points="696,142 698,142 698,160 696,160 "/>
        <polygon class="fil7" points="722,142 724,142 724,160 722,160 "/>
       </g>
       <path class="fil4" d="M707 160l6 0 0 -8c0,-2 -1,-3 -3,-3l0 0c-2,0 -3,1 -3,3l0 8z"/>
       <g>
        <path class="fil4" d="M703 156l3 0 0 -4c0,-1 -1,-2 -2,-2l0 0c-1,0 -1,1 -1,2l0 4z"/>
        <path class="fil4" d="M714 156l3 0 0 -4c0,-1 0,-2 -1,-2l0 0c-1,0 -2,1 -2,2l0 4z"/>
       </g>
       <polygon class="fil5" points="733,160 733,162 687,162 687,160 "/>
      </g>
     </g>
     <g>
      <polygon class="fil5" points="781,65 784,65 787,65 789,140 784,140 779,140 "/>
      <polygon class="fil8" points="784,65 787,65 789,140 784,140 "/>
      <g>
       <path class="fil8" d="M784 59c-7,0 -2,-10 0,-17 2,7 7,17 0,17z"/>
       <path class="fil9" d="M784 42c2,7 7,17 0,17l0 -17z"/>
      </g>
      <polygon class="fil5" points="759,140 809,140 809,144 759,144 "/>
      <polygon class="fil7" points="784,140 809,140 809,144 784,144 "/>
      <path class="fil8" d="M759 144l25 0 25 0c-14,2 -14,12 -14,12l-11 0 -11 0c0,0 0,-10 -14,-12z"/>
      <path class="fil10" d="M784 144l25 0c-14,2 -14,12 -14,12l-11 0 0 -12z"/>
      <polygon class="fil5" points="784,156 755,156 747,162 784,162 821,162 813,156 "/>
      <polygon class="fil7" points="784,162 822,162 814,156 784,156 "/>
      <polygon class="fil8" points="777,63 791,63 787,65 781,65 "/>
      <polygon class="fil9" points="784,63 791,63 787,65 784,65 "/>
      <polygon class="fil5" points="777,63 791,63 791,61 777,61 "/>
      <polygon class="fil7" points="784,63 791,63 791,61 784,61 "/>
      <polygon class="fil6" points="778,60 789,60 789,61 778,61 "/>
      <polygon class="fil4" points="784,60 789,60 789,61 784,61 "/>
      <polygon class="fil5" points="777,58 790,58 790,60 778,60 "/>
      <polygon class="fil7" points="784,58 790,58 790,60 784,60 "/>
     </g>
     <g>
      <path class="fil7" d="M659 136c0,0 -1,-1 -1,-3 0,-2 1,-3 1,-4 0,-1 -1,-2 -1,-3 0,-2 0,-4 0,-4 0,0 0,2 1,4 1,1 2,2 1,5 -1,3 0,4 0,4l-1 1z"/>
      <path class="fil7" d="M640 162c1,-1 1,-2 3,-3 2,-2 12,-9 12,-9 0,0 1,5 -1,7 -1,2 -4,3 -6,5l-8 0z"/>
      <path class="fil5" d="M649 162c0,-1 2,-3 3,-5 3,-2 4,-2 5,-5 0,-3 0,-5 1,-8 0,-3 -2,-7 1,-10 2,-3 5,-4 4,-7 -1,-2 -2,-4 -2,-5 1,-2 3,0 3,-2 1,-2 0,-3 0,-3 0,0 1,3 -1,4 -2,2 1,4 2,6 0,2 -3,5 -4,7 -1,2 -1,4 0,5 0,2 2,4 0,9 -2,6 -5,10 -4,12 0,1 0,1 0,2l-8 0z"/>
      <path class="fil5" d="M642 162c0,-1 0,-2 1,-3 2,-2 4,-11 4,-11 0,0 1,-2 1,-7 0,-4 -4,-7 -4,-9 0,-2 5,0 5,0 0,0 3,4 2,9 0,5 0,10 -2,14 -2,4 -3,5 -3,6 0,1 0,1 0,1l-4 0z"/>
      <path class="fil7" d="M656 162c0,-1 0,-1 0,-2 0,-2 -2,-3 -2,-5 0,-2 2,-4 2,-4 -4,5 2,4 2,7 1,2 0,3 1,4l-3 0z"/>
      <polygon class="fil11" points="647,126 647,127 647,127 647,127 647,127 647,128 648,128 647,129 648,129 647,130 648,130 647,131 649,131 649,130 "/>
      <path class="fil12" d="M653 157c0,0 1,-1 1,-1 1,-1 1,-1 1,-1l0 1c0,0 0,0 1,0l-1 0c1,0 1,0 1,0l0 0c0,1 0,1 0,1l0 0c0,0 -1,1 -1,1l-2 -1z"/>
      <path class="fil13" d="M640 155c2,3 5,2 8,1 2,-1 4,-2 4,-2 0,0 0,1 1,1 0,0 0,2 0,3 0,1 2,1 2,0 0,-2 0,-4 0,-5 -1,-1 -1,-1 -1,-1 0,0 4,-3 4,-8 1,-5 -1,-7 -3,-10 -2,-2 -3,-2 -3,-2 0,0 -1,-4 -2,-4 -1,-1 -1,-5 -2,-5 -1,0 -1,0 -1,1 0,1 0,2 0,4 0,1 1,4 1,4 0,0 -2,-1 -3,0 0,2 1,2 1,2 0,0 2,2 3,3 0,0 0,0 0,0l-1 0c0,0 0,0 -1,-1 0,0 -1,0 -1,0 0,0 0,-1 0,-2 -1,0 -1,1 -1,1 0,0 0,1 0,1 0,1 0,1 0,1 0,0 1,2 2,2 2,1 4,0 4,0 0,0 0,2 -1,4 -2,1 -2,4 -2,4 0,0 -1,-1 -2,-3 -1,-1 -2,-2 -2,-2 0,0 0,-1 0,-1 0,-1 0,-1 0,-1l-1 0c0,0 0,0 0,0l0 0c-1,0 -1,0 -1,0l0 0c0,0 0,0 -1,0l1 1c0,0 0,1 0,2 0,0 1,1 1,2 1,0 1,1 1,1 0,0 1,2 1,3 0,0 0,1 0,1l-1 2c-2,-9 -5,0 -4,3z"/>
      <path class="fil12" d="M644 152c-1,-5 -2,-4 -3,-2 0,1 -1,2 0,2 2,2 3,0 3,0z"/>
      <path class="fil7" d="M643 124c0,0 0,3 1,4 1,1 3,3 3,4 0,1 -1,2 -2,2 0,0 1,1 0,1 -1,1 -2,0 -2,0l-6 -4c0,0 0,0 -1,0 0,1 -1,2 -3,2 -2,0 -4,2 -4,1 0,0 1,-1 3,-2 2,-1 4,-1 4,-2 0,0 0,-1 0,-1 0,0 -1,-2 0,-4 2,-2 3,-3 3,-3 0,0 -1,-5 0,-5 0,0 1,5 1,5 0,0 1,-1 4,-2 4,0 5,-1 7,-2 3,-1 3,-1 3,-1 0,0 0,-1 0,-2 0,0 1,-1 1,-1 0,0 0,1 1,1 1,0 1,0 1,0 0,0 1,0 1,-1 0,0 0,0 0,0 0,0 -2,-2 -2,-5 -1,-3 -1,-5 0,-6 0,0 1,3 2,5 2,3 2,3 2,3 0,0 1,0 3,-1 1,-1 2,-2 3,-2 0,1 -1,3 -3,4 -2,1 -3,1 -3,2 0,1 -1,3 -2,4 0,0 -1,0 -1,0 0,0 0,1 0,1 1,0 1,-1 1,-1 1,0 0,1 1,1 1,1 1,0 1,1 1,0 0,0 -2,0 -1,0 -2,0 -2,0 0,0 -6,5 -8,6 -2,2 -4,1 -4,1l-1 -3z"/>
      <path class="fil7" d="M632 152c0,2 2,1 2,4 0,1 1,3 1,4 0,1 0,1 0,2l1 0c0,-1 -1,-1 -1,-2 0,-3 0,-5 -1,-6 -1,-1 -1,0 -2,-2z"/>
      <path class="fil5" d="M638 162c0,-1 1,-2 0,-3 0,-2 -3,-3 -2,-5 0,-3 5,-5 6,-7 2,-3 2,-6 2,-6 0,0 2,2 0,6 -2,4 -6,5 -5,7 0,2 2,3 2,5 0,1 1,2 1,3l-4 0z"/>
      <path class="fil5" d="M643 143c0,0 -2,-2 -1,-5 0,-3 0,-6 0,-6l0 -3 2 1 3 2 -2 1c0,0 -1,3 0,6 0,3 0,4 0,4l-2 0z"/>
      <path class="fil5" d="M642 129l1 -5c0,0 0,-1 0,-3 1,-1 0,-5 0,-6 0,-1 -1,-5 -1,-5 0,0 1,4 2,5 1,1 2,1 2,5 -1,4 -1,6 0,8 2,2 1,4 1,4l0 0 -3 -2 -2 -1z"/>
      <path class="fil5" d="M649 111c0,0 -2,4 -3,6 0,1 0,2 0,3 0,0 1,0 1,0 0,-2 0,-5 2,-9z"/>
      <path class="fil5" d="M651 117c0,0 1,2 0,3 0,1 -1,3 0,5 1,1 3,3 2,5 0,1 0,1 -1,1 0,1 0,1 0,1 0,0 0,0 1,0 1,0 2,-1 2,-3 -1,-3 -3,-4 -4,-6 0,-2 1,-5 0,-6z"/>
      <path class="fil7" d="M648 106c0,0 -1,3 1,5 2,2 4,3 4,4 1,1 1,6 1,9 0,2 1,5 1,7 0,0 0,0 0,0l0 0c0,0 0,0 0,0l0 1 1 2 0 -4 0 -12c0,0 -1,-3 -4,-6 -4,-2 -4,-2 -4,-6zm7 25l0 0c0,0 0,0 0,0l0 0z"/>
      <path class="fil7" d="M643 124c0,0 0,3 1,4 1,1 3,3 3,4 0,1 -1,2 -2,2 0,0 1,1 0,1 -1,1 -2,0 -2,0l-6 -4c0,0 0,0 -1,0 0,1 -1,2 -3,2 -2,0 -4,2 -4,1 0,0 1,-1 3,-2 2,-1 4,-1 4,-2 0,0 0,-1 0,-1 0,0 -1,-2 0,-4 2,-2 3,-3 3,-3 0,0 -1,-5 0,-5 0,0 1,5 1,5 0,0 0,-1 2,-1l1 3z"/>
      <path class="fil14" d="M647 145c-1,0 -1,0 -1,-1 -1,-1 -2,-2 -2,-2 0,0 0,-1 0,-1 0,-1 0,-1 0,-1l-1 0c0,0 0,0 0,0l0 0c-1,0 -1,0 -1,0l0 0c0,0 0,0 -1,0l1 1c0,0 0,1 0,2 0,0 1,1 1,2 1,0 1,1 1,1 0,0 1,0 1,1l2 -2z"/>
      <path class="fil15" d="M645 134c0,0 0,0 0,0 -1,2 -4,-2 -4,-2 1,1 3,2 4,2z"/>
      <path class="fil15" d="M643 131c0,0 0,0 0,1 0,0 0,0 0,0 -1,0 -1,-1 -1,-1 0,0 1,0 1,0z"/>
      <path class="fil5" d="M638 122c0,0 1,1 1,2 0,1 0,2 -1,3 -1,1 -1,3 1,5 1,3 3,5 3,6 0,1 1,0 1,0l-1 -2c0,0 -3,-3 -3,-6 -1,-3 2,-5 -1,-8z"/>
      <path class="fil16" d="M657 137c0,-1 0,-2 0,-3 0,-1 -1,-2 -1,-2 0,-1 0,-1 -1,-1l0 0c0,0 0,0 0,0l0 0c0,0 0,0 -1,0l1 0c0,0 -1,0 -1,0l1 1c0,0 0,0 0,0 0,0 0,1 0,1l0 1 0 0c1,1 1,2 2,3z"/>
      <path class="fil14" d="M649 127c0,-1 0,-4 -1,-4 -1,0 -1,0 -1,1 0,1 0,2 0,3l2 0z"/>
      <path class="fil11" d="M650 129c0,1 0,1 0,1 0,0 -1,0 -1,0 0,0 0,0 0,-1 0,0 0,0 1,0z"/>
      <path class="fil7" d="M660 162c0,0 0,-1 0,-1 0,0 0,-1 0,-1 0,-1 1,-2 1,-3 0,-2 -1,-2 -1,-3 0,-1 2,-2 3,-3 0,0 0,-1 0,-1 0,0 0,1 0,2 -1,1 -2,1 -2,2 1,2 2,2 1,4 0,2 -1,2 0,3 0,0 0,1 0,1l-2 0z"/>
     </g>
     <g>
      <g>
       <g>
        <g>
         <path class="fil7" d="M175 159l36 0c1,0 2,1 2,1l0 0c0,1 -1,2 -2,2l0 0 -36 0 0 0c-1,0 -2,-1 -2,-2l0 0c0,0 1,-1 2,-1z"/>
         <path class="fil5" d="M176 156l33 0c1,0 2,1 2,2l0 0c0,0 -1,1 -2,1l-33 0c0,0 -1,-1 -1,-1l0 0c0,-1 1,-2 1,-2z"/>
         <path class="fil7" d="M181 154l24 0c2,0 3,1 4,2l-32 0c1,-1 2,-2 4,-2z"/>
         <path class="fil5" d="M179 152l27 0c1,0 2,0 2,1l0 0c0,1 -1,1 -2,1l-27 0c0,0 -1,0 -1,-1l0 0c0,-1 1,-1 1,-1z"/>
         <path class="fil7" d="M179 152c6,-5 1,-12 8,-17l6 0 6 0c7,5 2,12 7,17l-13 0 -14 0zm21 -14l0 0 0 1 0 0 0 0 -1 0 0 0 0 -1 1 0zm-5 0l0 0 -1 1 1 0 0 0 0 0 1 0 -1 -1 0 0zm-4 0l0 0 0 1 0 0 0 0 -1 0 0 0 0 -1 1 0zm-5 0l0 0 -1 1 1 0 0 0 1 0 0 0 0 -1 -1 0zm2 3l0 0 0 1 0 0 0 1 1 -1 0 0 0 -1 -1 0zm5 0l0 0 1 1 -1 0 0 1 -1 -1 0 0 0 -1 1 0zm4 0l0 0 0 1 0 0 0 1 1 -1 0 0 0 -1 -1 0zm5 0l0 0 1 1 -1 0 0 1 -1 -1 0 0 0 -1 1 0zm-18 0l0 0 1 1 -1 0 0 1 0 -1 -1 0 1 -1 0 0zm16 5l0 0 0 -1 0 0 0 -1 -1 1 0 0 0 1 1 0zm-5 0l0 0 -1 -1 1 0 0 -1 0 1 1 0 -1 1 0 0zm-4 0l0 0 0 -1 0 0 0 -1 -1 1 0 0 0 1 1 0zm-5 0l0 0 -1 -1 1 0 0 -1 1 1 0 0 0 1 -1 0zm2 2l0 0 0 0 0 1 0 0 1 0 0 -1 0 0 -1 0zm5 0l0 0 1 0 -1 1 0 0 -1 0 0 -1 0 0 1 0zm4 0l0 0 0 0 0 1 0 0 1 0 0 -1 0 0 -1 0zm5 0l0 0 1 0 -1 1 0 0 -1 0 0 -1 0 0 1 0zm-18 0l0 0 1 0 -1 1 0 0 0 0 -1 -1 1 0 0 0z"/>
         <path class="fil7" d="M191 133l1 -12c0,0 0,-1 1,-1 1,0 1,1 1,1l1 12 -2 0 -2 0z"/>
         <polygon class="fil5" points="187,135 193,135 199,135 199,133 193,133 187,133 "/>
        </g>
        <g>
         <path class="fil17" d="M193 159l18 0c1,0 2,1 2,1l0 0c0,1 -1,2 -2,2l0 0 -18 0 0 -3z"/>
         <path class="fil17" d="M193 156l16 0c1,0 2,1 2,2l0 0c0,0 -1,1 -2,1l-16 0 0 -3z"/>
         <path class="fil17" d="M193 154l12 0c2,0 3,1 4,2l-16 0 0 -2z"/>
         <path class="fil17" d="M193 152l13 0c1,0 2,0 2,1l0 0c0,1 -1,1 -2,1l-13 0 0 -2z"/>
         <path class="fil17" d="M193 135l6 0c7,5 2,12 7,17l-13 0 0 -3 0 0 1 -1 -1 0 0 0 0 -5 0 -1 1 0 -1 -1 0 0 0 -6zm7 3l0 0 0 1 0 0 0 0 -1 0 0 0 0 -1 1 0zm-5 0l0 0 -1 1 1 0 0 0 0 0 1 0 -1 -1 0 0zm2 3l0 0 0 1 0 0 0 1 1 -1 0 0 0 -1 -1 0zm5 0l0 0 1 1 -1 0 0 1 -1 -1 0 0 0 -1 1 0zm-2 5l0 0 0 -1 0 0 0 -1 -1 1 0 0 0 1 1 0zm-5 0l0 0 -1 -1 1 0 0 -1 0 1 1 0 -1 1 0 0zm2 2l0 0 0 0 0 1 0 0 1 0 0 -1 0 0 -1 0zm5 0l0 0 1 0 -1 1 0 0 -1 0 0 -1 0 0 1 0z"/>
         <path class="fil17" d="M193 120c1,0 1,1 1,1l1 12 -2 0 0 -13z"/>
         <polygon class="fil17" points="193,135 199,135 199,133 193,133 "/>
        </g>
       </g>
       <g>
        <g>
         <path class="fil7" d="M106 159l37 0c0,0 1,1 1,1l0 0c0,1 -1,2 -1,2l0 0 -37 0 0 0c-1,0 -1,-1 -1,-2l0 0c0,0 0,-1 1,-1z"/>
         <path class="fil5" d="M108 156l33 0c1,0 1,1 1,2l0 0c0,0 0,1 -1,1l-33 0c-1,0 -2,-1 -2,-1l0 0c0,-1 1,-2 2,-2z"/>
         <path class="fil7" d="M112 154l24 0c2,0 4,1 4,2l-32 0c1,-1 3,-2 4,-2z"/>
         <path class="fil5" d="M111 152l27 0c1,0 1,0 1,1l0 0c0,1 0,1 -1,1l-27 0c-1,0 -1,0 -1,-1l0 0c0,-1 0,-1 1,-1z"/>
         <path class="fil7" d="M111 152c6,-5 0,-12 7,-17l6 0 6 0c7,5 2,12 8,17l-14 0 -13 0zm20 -14l0 0 1 1 -1 0 0 0 0 0 -1 0 1 -1 0 0zm-4 0l-1 0 0 1 0 0 1 0 0 0 0 0 0 -1 0 0zm-5 0l0 0 1 1 -1 0 0 0 0 0 -1 0 1 -1 0 0zm-4 0l-1 0 0 1 0 0 1 0 0 0 0 0 0 -1 0 0zm2 3l-1 0 0 1 0 0 1 1 0 -1 1 0 -1 -1 0 0zm4 0l1 0 0 1 0 0 -1 1 0 -1 0 0 0 -1 0 0zm5 0l-1 0 0 1 0 0 1 1 0 -1 1 0 -1 -1 0 0zm4 0l1 0 0 1 0 0 -1 1 0 -1 0 0 0 -1 0 0zm-18 0l1 0 0 1 0 0 -1 1 0 -1 0 0 0 -1 0 0zm16 5l0 0 1 -1 -1 0 0 -1 0 1 -1 0 1 1 0 0zm-4 0l-1 0 0 -1 0 0 1 -1 0 1 0 0 0 1 0 0zm-5 0l0 0 1 -1 -1 0 0 -1 0 1 -1 0 1 1 0 0zm-4 0l-1 0 0 -1 0 0 1 -1 0 1 0 0 0 1 0 0zm2 2l-1 0 0 0 0 1 1 0 0 0 1 -1 -1 0 0 0zm4 0l1 0 0 0 0 1 -1 0 0 0 0 -1 0 0 0 0zm5 0l-1 0 0 0 0 1 1 0 0 0 1 -1 -1 0 0 0zm4 0l1 0 0 0 0 1 -1 0 0 0 0 -1 0 0 0 0zm-18 0l1 0 0 0 0 1 -1 0 0 0 0 -1 0 0 0 0z"/>
         <path class="fil7" d="M122 133l1 -12c0,0 1,-1 1,-1 1,0 1,1 1,1l2 12 -3 0 -2 0z"/>
         <polygon class="fil5" points="118,135 124,135 130,135 131,133 124,133 118,133 "/>
        </g>
        <g>
         <path class="fil17" d="M124 159l19 0c0,0 1,1 1,1l0 0c0,1 -1,2 -1,2l0 0 -19 0 0 -3z"/>
         <path class="fil17" d="M124 156l17 0c1,0 1,1 1,2l0 0c0,0 0,1 -1,1l-17 0 0 -3z"/>
         <path class="fil17" d="M124 154l12 0c2,0 4,1 4,2l-16 0 0 -2z"/>
         <path class="fil17" d="M124 152l14 0c1,0 1,0 1,1l0 0c0,1 0,1 -1,1l-14 0 0 -2z"/>
         <path class="fil17" d="M124 135l6 0c7,5 2,12 8,17l-14 0 0 -3 1 0 0 -1 0 0 -1 0 0 -5 1 -1 0 0 0 -1 -1 0 0 -6zm7 3l0 0 1 1 -1 0 0 0 0 0 -1 0 1 -1 0 0zm-4 0l-1 0 0 1 0 0 1 0 0 0 0 0 0 -1 0 0zm2 3l-1 0 0 1 0 0 1 1 0 -1 1 0 -1 -1 0 0zm4 0l1 0 0 1 0 0 -1 1 0 -1 0 0 0 -1 0 0zm-2 5l0 0 1 -1 -1 0 0 -1 0 1 -1 0 1 1 0 0zm-4 0l-1 0 0 -1 0 0 1 -1 0 1 0 0 0 1 0 0zm2 2l-1 0 0 0 0 1 1 0 0 0 1 -1 -1 0 0 0zm4 0l1 0 0 0 0 1 -1 0 0 0 0 -1 0 0 0 0z"/>
         <path class="fil17" d="M124 120c1,0 1,1 1,1l2 12 -3 0 0 -13z"/>
         <polygon class="fil17" points="124,135 130,135 131,133 124,133 "/>
        </g>
       </g>
      </g>
      <g>
       <g>
        <path class="fil7" d="M133 158l51 0c1,0 2,1 2,2l0 0c0,1 -1,2 -2,2l-51 0c-1,0 -2,-1 -2,-2l0 0c0,-1 1,-2 2,-2z"/>
        <path class="fil5" d="M135 154l47 0c1,0 2,1 2,2l0 0c0,1 -1,2 -2,2l-47 0c-1,0 -2,-1 -2,-2l0 0c0,-1 1,-2 2,-2z"/>
        <path class="fil7" d="M142 151l34 0c2,0 4,1 5,3l-45 0c1,-2 3,-3 6,-3z"/>
        <path class="fil5" d="M140 148l38 0c1,0 1,0 1,1l0 0c0,1 0,2 -1,2l-38 0c-1,0 -2,-1 -2,-2l0 0c0,-1 1,-1 2,-1z"/>
        <path class="fil7" d="M140 148c8,-8 0,-18 10,-23l9 0 8 0c10,5 3,15 11,23l-19 0 -19 0zm28 -20l1 1 0 0 0 1 -1 0 0 0 -1 -1 1 0 0 -1zm-6 0l-1 1 0 0 0 1 1 0 0 0 1 -1 -1 0 0 -1zm-7 0l1 1 0 0 0 1 -1 0 0 0 -1 -1 1 0 0 -1zm-6 0l0 1 -1 0 1 1 0 0 1 0 0 -1 0 0 -1 -1zm3 5l0 0 -1 1 1 0 0 1 1 -1 0 0 0 -1 -1 0zm7 0l0 0 1 1 -1 0 0 1 -1 -1 0 0 0 -1 1 0zm6 0l-1 0 0 1 0 0 1 1 0 -1 1 0 -1 -1 0 0zm6 0l1 0 0 1 0 0 -1 1 0 -1 -1 0 1 -1 0 0zm-25 0l1 0 0 1 0 0 -1 1 -1 -1 0 0 0 -1 1 0zm22 7l1 -1 0 -1 0 0 -1 -1 0 1 -1 0 1 1 0 1zm-6 0l-1 -1 0 -1 0 0 1 -1 0 1 1 0 -1 1 0 1zm-7 0l1 -1 0 -1 0 0 -1 -1 0 1 -1 0 1 1 0 1zm-6 0l0 -1 -1 -1 1 0 0 -1 1 1 0 0 0 1 -1 1zm3 2l0 0 -1 1 1 1 0 0 1 0 0 -1 0 -1 -1 0zm7 0l0 0 1 1 -1 1 0 0 -1 0 0 -1 0 -1 1 0zm6 0l-1 0 0 1 0 1 1 0 0 0 1 -1 -1 -1 0 0zm6 0l1 0 0 1 0 1 -1 0 0 0 -1 -1 1 -1 0 0zm-25 0l1 0 0 1 0 1 -1 0 -1 0 0 -1 0 -1 1 0z"/>
        <path class="fil7" d="M155 121l2 -17c0,0 1,-1 2,-1 1,0 1,1 1,1l2 17 -3 0 -4 0z"/>
        <polygon class="fil5" points="150,125 159,125 167,125 167,121 159,121 150,121 "/>
       </g>
       <g>
        <path class="fil17" d="M159 158l25 0c1,0 2,1 2,2l0 0c0,1 -1,2 -2,2l-25 0 0 -4z"/>
        <path class="fil17" d="M159 154l23 0c1,0 2,1 2,2l0 0c0,1 -1,2 -2,2l-23 0 0 -4z"/>
        <path class="fil17" d="M159 151l17 0c2,0 4,1 5,3l-22 0 0 -3z"/>
        <path class="fil17" d="M159 148l19 0c1,0 1,0 1,1l0 0c0,1 0,2 -1,2l-19 0 0 -3z"/>
        <path class="fil17" d="M159 125l8 0c10,5 3,15 11,23l-19 0 0 -4 0 0 1 -1 -1 -1 0 0 0 -7 0 -1 1 0 -1 -1 0 0 0 -8zm9 3l1 1 0 0 0 1 -1 0 0 0 -1 -1 1 0 0 -1zm-6 0l-1 1 0 0 0 1 1 0 0 0 1 -1 -1 0 0 -1zm3 5l-1 0 0 1 0 0 1 1 0 -1 1 0 -1 -1 0 0zm6 0l1 0 0 1 0 0 -1 1 0 -1 -1 0 1 -1 0 0zm-3 7l1 -1 0 -1 0 0 -1 -1 0 1 -1 0 1 1 0 1zm-6 0l-1 -1 0 -1 0 0 1 -1 0 1 1 0 -1 1 0 1zm3 2l-1 0 0 1 0 1 1 0 0 0 1 -1 -1 -1 0 0zm6 0l1 0 0 1 0 1 -1 0 0 0 -1 -1 1 -1 0 0z"/>
        <path class="fil17" d="M159 103c1,0 1,1 1,1l2 17 -3 0 0 -18z"/>
        <polygon class="fil17" points="159,125 167,125 167,121 159,121 "/>
       </g>
      </g>
     </g>
     <g>
      <g>
       <path class="fil5" d="M1054 123c-13,0 -6,-19 9,-23 16,4 23,23 10,23l-10 0 -9 0z"/>
       <path class="fil7" d="M1060 102c0,-1 1,-2 2,-2l2 0c1,0 2,1 3,2l-7 0z"/>
       <path class="fil7" d="M1061 98c0,0 1,2 1,2l1 0 1 0c0,0 1,-2 1,-2l-2 0 -2 0z"/>
       <polygon class="fil5" points="1062,98 1064,98 1064,94 1062,94 "/>
       <polygon class="fil7" points="1063,94 1063,86 1064,94 1063,94 "/>
      </g>
      <g>
       <polygon class="fil5" points="1042,125 1085,125 1085,122 1042,122 "/>
       <polygon class="fil6" points="1040,121 1086,121 1085,122 1042,122 "/>
       <polygon class="fil5" points="1036,129 1015,129 1015,162 1036,162 "/>
       <polygon class="fil6" points="1036,133 1018,133 1018,162 1036,162 "/>
       <polygon class="fil5" points="1091,129 1112,129 1112,162 1091,162 "/>
       <polygon class="fil6" points="1091,133 1109,133 1109,162 1091,162 "/>
       <polygon class="fil4" points="1036,133 1091,133 1091,154 1036,154 "/>
       <path class="fil5" d="M1038 133l8 0 7 0 0 12 -2 0c0,-3 -1,-7 -5,-8 -4,1 -5,5 -5,8l-3 0 0 -12z"/>
       <path class="fil5" d="M1056 133l7 0 8 0 0 12 -3 0c0,-3 -1,-7 -5,-8 -4,1 -5,5 -5,8l-2 0 0 -12z"/>
       <path class="fil5" d="M1073 133l8 0 7 0 0 12 -2 0c0,-3 -1,-7 -5,-8 -4,1 -5,5 -5,8l-3 0 0 -12z"/>
       <polygon class="fil7" points="1036,133 1038,133 1038,146 1036,146 "/>
       <polygon class="fil5" points="1035,146 1039,146 1039,147 1035,147 "/>
       <polygon class="fil6" points="1039,147 1037,147 1035,147 1035,147 1037,147 1039,147 "/>
       <polygon class="fil5" points="1034,147 1040,147 1040,148 1034,148 "/>
       <polygon class="fil6" points="1039,148 1037,148 1035,148 1034,148 1037,148 1040,148 "/>
       <polygon class="fil7" points="1038,126 1088,126 1088,128 1038,128 "/>
       <polygon class="fil9" points="1038,125 1089,125 1088,126 1039,126 "/>
       <path class="fil7" d="M1059 124c-7,0 -4,-11 4,-13 8,2 12,13 5,13l-5 0 -4 0z"/>
       <path class="fil6" d="M1061 112c1,-1 1,-1 2,-1l1 0c0,0 1,0 1,1l-4 0z"/>
       <path class="fil9" d="M1062 109c0,0 1,2 1,2l0 0 1 0c0,0 0,-2 0,-2l-1 0 -1 0z"/>
       <polygon class="fil7" points="1063,109 1064,109 1064,107 1063,107 "/>
       <polygon class="fil9" points="1063,107 1063,103 1064,107 1063,107 "/>
       <polygon class="fil6" points="1091,131 1063,131 1036,131 1036,133 1063,133 1091,133 "/>
       <polygon class="fil5" points="1091,128 1063,128 1036,128 1036,131 1063,131 1091,131 "/>
       <polygon class="fil5" points="1039,154 1091,154 1091,155 1039,155 "/>
       <polygon class="fil7" points="1039,155 1091,155 1091,157 1039,157 "/>
       <polygon class="fil7" points="1053,133 1056,133 1056,146 1053,146 "/>
       <polygon class="fil5" points="1052,146 1057,146 1057,147 1052,147 "/>
       <polygon class="fil6" points="1057,147 1055,147 1053,147 1052,147 1055,147 1057,147 "/>
       <polygon class="fil5" points="1052,147 1057,147 1057,148 1052,148 "/>
       <polygon class="fil7" points="1071,133 1073,133 1073,146 1071,146 "/>
       <polygon class="fil5" points="1070,146 1074,146 1074,147 1070,147 "/>
       <polygon class="fil6" points="1074,147 1072,147 1070,147 1070,147 1072,147 1074,147 "/>
       <polygon class="fil5" points="1070,147 1075,147 1075,148 1070,148 "/>
       <polygon class="fil7" points="1088,133 1091,133 1091,146 1088,146 "/>
       <polygon class="fil5" points="1087,146 1092,146 1092,147 1087,147 "/>
       <polygon class="fil6" points="1092,147 1090,147 1088,147 1087,147 1090,147 1092,147 "/>
       <polygon class="fil5" points="1087,147 1092,147 1092,148 1087,148 "/>
       <polygon class="fil6" points="1092,148 1090,148 1087,148 1087,148 1090,148 1092,148 "/>
       <polygon class="fil6" points="1057,148 1055,148 1052,148 1052,148 1055,148 1057,148 "/>
       <polygon class="fil6" points="1074,148 1072,148 1070,148 1070,148 1072,148 1075,148 "/>
       <g>
        <g>
         <polygon class="fil7" points="1023,129 1031,129 1031,123 1023,123 "/>
         <polygon class="fil6" points="1023,123 1027,123 1031,123 1030,122 1027,122 1024,122 "/>
         <polygon class="fil5" points="1024,122 1030,122 1030,113 1024,113 "/>
         <polygon class="fil7" points="1024,113 1027,113 1030,113 1032,109 1027,109 1022,109 "/>
         <polygon class="fil6" points="1022,109 1032,109 1032,107 1022,107 "/>
         <path class="fil5" d="M1024 107c-1,-2 1,-6 3,-10 2,4 4,8 3,10l-6 0z"/>
        </g>
        <g>
         <polygon class="fil7" points="1096,129 1103,129 1103,123 1096,123 "/>
         <polygon class="fil6" points="1096,123 1100,123 1104,123 1103,122 1100,122 1096,122 "/>
         <polygon class="fil5" points="1096,122 1103,122 1103,113 1096,113 "/>
         <polygon class="fil7" points="1096,113 1100,113 1103,113 1105,109 1100,109 1094,109 "/>
         <polygon class="fil6" points="1094,109 1105,109 1105,107 1094,107 "/>
         <path class="fil5" d="M1096 107c-1,-2 1,-6 4,-10 2,4 4,8 3,10l-7 0z"/>
        </g>
       </g>
       <polygon class="fil7" points="1050,124 1077,124 1077,125 1050,125 "/>
       <polygon class="fil9" points="1049,124 1078,124 1077,124 1050,124 "/>
       <g>
        <path class="fil4" d="M1024 162l0 -6c0,-2 2,-3 3,-4 1,1 2,2 2,4l0 6 -5 0z"/>
        <g>
         <path class="fil4" d="M1023 162l0 -6c0,-2 -1,-3 -2,-4 -1,1 -3,2 -3,4l0 6 5 0z"/>
         <path class="fil4" d="M1035 162l0 -6c0,-2 -1,-3 -2,-4 -1,1 -3,2 -3,4l0 6 5 0z"/>
        </g>
       </g>
       <polygon class="fil5" points="1039,157 1091,157 1091,158 1039,158 "/>
       <g>
        <path class="fil4" d="M1097 162l0 -6c0,-2 2,-3 3,-4 1,1 2,2 2,4l0 6 -5 0z"/>
        <g>
         <path class="fil4" d="M1096 162l0 -6c0,-2 -1,-3 -2,-4 -1,1 -3,2 -3,4l0 6 5 0z"/>
         <path class="fil4" d="M1109 162l0 -6c0,-2 -2,-3 -3,-4 -1,1 -2,2 -2,4l0 6 5 0z"/>
        </g>
       </g>
       <polygon class="fil7" points="1031,158 1096,158 1096,159 1031,159 "/>
       <polygon class="fil5" points="1030,159 1097,159 1097,160 1030,160 "/>
       <polygon class="fil7" points="1028,160 1098,160 1098,162 1028,162 "/>
       <polygon class="fil7" points="1035,148 1039,148 1039,159 1035,159 "/>
       <polygon class="fil7" points="1088,148 1091,148 1091,159 1088,159 "/>
       <polygon class="fil7" points="1053,148 1056,148 1056,159 1053,159 "/>
       <polygon class="fil7" points="1070,148 1074,148 1074,159 1070,159 "/>
      </g>
     </g>
     <g>
      <polygon class="fil18" points="846,153 865,153 884,153 889,157 865,157 841,157 "/>
      <path class="fil7" d="M849 154c-1,0 0,-1 0,-1l0 0c0,0 -1,0 -1,-1 0,-1 0,-1 0,-1l2 -5c0,0 0,0 0,-1 0,0 0,0 0,0 0,0 0,0 0,0 -1,0 -1,1 -2,1 0,1 -1,1 -1,2 -1,0 -2,1 -2,1 0,1 0,1 -1,1 0,1 0,1 -1,1 0,1 0,1 0,1 0,1 -1,1 -1,0 0,-1 0,-3 0,-3 1,0 1,-1 1,-1 0,0 1,-1 1,-2 1,-1 1,-1 1,-3 1,-1 1,-2 1,-3 1,-1 1,-1 1,-1 0,0 0,-5 1,-8 2,-2 4,-2 4,-2 0,0 1,-2 3,-3 2,-1 6,-1 6,-1 0,0 0,-2 0,-2 0,0 0,0 0,-1 0,-1 1,-1 1,-1 0,0 0,0 0,-1 0,0 0,-1 0,-1 0,0 0,-1 0,-2 0,-2 0,-3 0,-4 -1,-1 0,-1 -1,-1 0,0 0,-1 0,-1 -1,-1 -1,-1 -1,-1 0,0 0,0 0,-1 -1,0 -1,-1 -1,-1 -1,-1 -1,-1 -1,-2 -1,0 0,0 0,0 0,0 -1,0 -1,0 0,0 0,0 0,-1 -1,0 -1,-1 -1,-1 0,0 0,0 0,-1 0,0 0,0 0,0 0,0 0,0 0,0 0,0 0,0 0,0 0,0 0,0 0,-1 1,0 1,0 1,0 0,0 -1,0 0,0 0,-1 0,-1 0,-1l0 1c0,0 1,0 1,0 0,0 0,0 0,0l-1 -1c0,0 0,0 0,-1 0,0 0,0 0,0 0,0 1,1 1,1 1,1 1,2 1,2 0,0 0,0 0,0 1,1 1,2 1,2l1 2c0,0 1,0 1,0 0,1 0,1 0,1 1,0 2,2 2,2l0 -2 0 0 0 0c0,0 0,0 0,0 0,-1 0,-1 0,-2 0,0 0,0 0,0 0,0 0,0 0,-1 0,0 0,-2 0,-2 1,0 1,0 1,0 0,0 0,-1 0,-1 1,1 1,1 2,1 0,0 0,0 1,1 0,0 1,0 1,1 0,0 0,1 0,1 0,0 0,0 0,0 0,1 0,2 0,2 0,0 1,1 1,1 0,0 0,1 0,1 -1,-1 -1,-1 -1,-1 0,-1 0,-1 0,-1l0 1c0,0 -1,0 -1,0 0,0 0,0 0,0l0 1 0 0 0 1c0,0 1,1 2,2 1,1 1,1 2,2 0,0 0,0 0,1 1,0 1,0 1,0 0,0 0,0 0,0 1,-1 2,0 2,0 0,0 1,0 1,0 0,0 0,-1 0,-2 0,-1 0,-3 0,-3 0,0 0,0 0,0 0,0 0,0 0,0l0 0c0,0 0,-1 0,-1 0,0 1,0 1,0l-1 -1c0,0 0,0 -1,0 0,-1 0,-1 0,-1 0,0 0,0 0,-1 1,-1 1,-1 1,-1 0,0 1,0 1,-1 1,0 2,0 2,0 0,0 0,0 0,0 0,0 1,1 1,1 0,0 1,0 1,0 0,0 0,0 0,0 0,0 1,-1 1,-1 1,0 1,0 1,0 0,0 0,0 0,1 1,1 0,1 0,1 0,0 0,1 0,1 0,0 0,3 0,3 0,0 1,0 1,1 0,0 0,0 0,0 0,0 -1,2 0,4 0,2 0,5 0,7 -1,2 -2,5 -2,5 0,0 0,1 -1,2 0,2 0,2 0,2 0,0 0,1 -1,2 0,0 -1,0 -1,0 0,0 1,1 1,2 1,0 1,2 1,2 1,1 1,2 1,2 1,1 2,1 2,3 0,1 0,1 -1,2 0,1 0,2 0,4 0,1 0,2 0,2 0,1 -1,2 -1,2 0,0 -1,1 -1,1 0,0 0,1 0,1 0,0 0,1 -1,1 0,0 -1,0 -2,0 0,-1 0,-3 0,-3 1,-1 1,-1 2,-1 0,0 0,0 0,0 0,-1 0,-1 0,-1 0,0 0,0 0,-1 0,0 0,-1 1,-1 0,-1 0,-2 0,-3 0,-2 0,-2 0,-2 0,0 0,0 0,-1 0,0 0,0 0,0 0,0 -3,-4 -4,-4 0,-1 -1,-2 -1,-2l-1 0c0,0 0,1 -1,3 0,1 0,2 0,2 0,1 0,1 0,1 0,0 0,0 0,1 0,1 -1,3 -1,3 0,1 0,4 0,4 1,1 1,1 1,2 0,0 0,0 0,1 1,0 2,1 2,1 0,1 0,1 -1,1l-2 0c-1,0 -1,0 -1,-1 0,-1 0,-1 0,-1 0,-1 -1,0 -1,-1 -1,-1 0,-2 0,-3 0,-1 0,-5 0,-5 0,0 0,-2 0,-2 0,0 0,-1 -1,-1 0,0 -1,0 -2,-1 0,0 0,-1 0,-1 1,0 1,-1 1,-1 0,-1 0,-1 0,-1 0,0 0,0 -1,0 0,0 -1,0 -1,0l0 1c0,0 0,0 1,0 0,1 0,2 0,2 -1,0 -1,1 -2,1 -1,0 -1,-1 -1,-1 0,-1 0,-1 0,-1 0,0 0,0 0,0 0,-1 0,-2 0,-2 0,0 0,0 -1,0 0,0 -1,0 -1,0 0,0 0,1 0,1 0,1 -1,1 -1,1 0,0 0,1 0,2 -1,1 -2,2 -2,2 0,0 0,2 0,2 1,1 1,2 1,3 1,0 1,1 1,1 1,0 1,1 1,1 0,1 0,1 0,1 1,0 1,1 2,1 0,1 0,2 0,2l-3 0c-1,0 0,-2 0,-2 0,0 -1,-1 -1,-1 0,0 0,1 -1,0 0,0 0,-1 0,-2 0,0 -1,-2 -1,-3 -1,-2 -2,-2 -2,-3 0,-1 1,-1 1,-2 1,-1 1,-2 1,-2 0,0 -1,0 -1,0 -1,0 -1,0 -1,0 0,0 0,0 -1,1 -1,2 -2,2 -2,3 -1,0 -1,0 -1,1 0,0 0,0 -1,1 0,1 0,1 0,1l-1 3c0,0 0,1 0,1 0,1 -1,1 -1,1 0,0 0,0 0,1 0,0 1,0 1,1 0,0 0,0 0,0l-2 0zm22 -14l0 0 0 -1 0 1zm6 -21l-1 -1c0,0 0,-2 0,-2 1,-1 1,-3 1,-3 0,0 0,-1 0,-1l0 0c0,0 0,1 0,1 1,0 1,1 1,1 0,0 -1,1 -1,1 1,1 0,1 0,2 0,0 0,0 0,2zm-7 3c0,0 0,0 0,0 0,0 0,-1 0,-1 0,0 0,0 0,0 0,0 0,0 0,0 0,0 0,-1 -1,-1 0,0 0,0 0,0 0,0 0,-2 0,-2 0,0 0,0 0,0 0,-1 0,-1 0,-1 0,0 0,0 0,0 0,-1 0,-1 0,-1 0,0 1,1 2,1 1,1 1,2 1,2 0,0 1,1 1,1 1,0 2,0 2,0 0,0 0,0 0,0 0,0 1,0 1,0 0,0 -1,1 -2,2 0,0 -1,0 -1,0 0,0 -1,0 -1,0 -1,0 -1,0 -1,0l-1 0z"/>
      <path class="fil9" d="M875 108c0,0 0,-1 0,-1 1,-1 1,-1 1,-1 1,1 0,1 0,2 0,0 -1,0 -1,0z"/>
      <path class="fil9" d="M879 107c0,0 -1,0 -1,-1 0,0 1,0 1,0 0,0 1,0 1,1 0,0 -1,0 -1,0z"/>
      <path class="fil9" d="M883 107c0,0 -1,0 -1,-1 0,0 0,-1 1,-1 0,0 0,0 0,1 0,0 0,1 0,1z"/>
      <path class="fil4" d="M877 110l-1 -1c1,-1 3,-1 3,0 1,0 1,0 1,0 0,0 0,0 0,0 0,0 -1,0 -1,0l0 0 0 0 0 0c0,0 -2,0 -2,1z"/>
      <path class="fil15" d="M882 108c0,0 0,0 0,0 0,-1 0,0 0,-1 0,0 0,0 0,0 1,0 1,1 1,1 0,0 -1,-1 -1,-1 0,0 0,1 0,1l0 0z"/>
      <path class="fil9" d="M858 106c0,0 0,0 0,0 0,0 0,0 0,0 0,0 0,0 0,0z"/>
      <path class="fil9" d="M859 107c0,0 0,0 0,0 0,0 0,0 1,0 0,0 0,0 0,1 0,0 1,0 1,0 0,0 0,0 0,-1 -1,0 -1,0 -1,0 0,0 0,0 0,-1 0,0 0,0 0,0 0,0 0,0 0,0 0,0 -1,0 -1,0 0,0 0,1 0,1z"/>
      <path class="fil9" d="M859 105c0,0 1,0 1,0 0,0 0,0 0,0 0,0 0,0 -1,0z"/>
      <path class="fil4" d="M864 108l1 0c0,0 0,-1 0,-1 0,0 1,0 1,0 0,0 0,0 0,0 0,0 -1,0 -1,0 0,0 0,0 0,0 0,0 -1,0 -1,0 0,0 0,1 0,1z"/>
      <polygon class="fil19" points="841,157 889,157 889,162 841,162 "/>
     </g>
     <g>
      <polygon class="fil5" points="495,102 519,102 519,105 495,105 "/>
      <path class="fil5" d="M495 105c0,0 29,19 38,53 6,0 7,0 10,0 -8,-31 -40,-53 -40,-53l-8 0z"/>
      <path class="fil7" d="M495 105c0,0 1,1 2,2l8 0c-1,-1 -2,-2 -2,-2l-8 0z"/>
      <polygon class="fil5" points="479,158 559,158 559,162 479,162 "/>
      <path class="fil7" d="M479 83c0,0 0,0 0,0 0,1 0,1 0,1 0,0 0,0 0,0 0,0 0,0 0,0 0,0 1,0 1,0 0,0 0,0 0,0 0,0 0,1 1,1 0,0 1,0 2,0 0,0 1,0 1,0 0,0 0,0 1,0 0,1 1,1 2,1 1,0 2,0 2,1 0,0 1,0 1,0 0,0 0,0 1,1 1,0 2,0 2,0 1,0 1,0 1,0 0,0 0,0 0,0 0,0 1,1 1,1 0,0 0,0 1,1 0,0 0,0 0,0 0,0 0,0 1,0 0,0 1,0 1,0l0 0c0,0 0,0 0,0 -1,1 -2,1 -3,1 0,0 -2,2 -2,2 0,0 -1,0 -1,2 1,1 1,1 2,1 1,1 2,2 2,2 1,1 2,1 2,1 1,1 2,1 2,2 -1,0 -1,0 -1,0 0,0 -1,0 -1,0 0,0 0,0 -1,0 0,0 0,0 0,0 0,1 0,1 0,1l20 0c0,-1 0,-1 0,-2 -1,0 -1,0 -2,0 -2,0 -3,0 -3,-1 -1,0 -2,0 -3,0 0,0 0,0 0,0 -1,0 -1,0 -1,0 0,0 0,0 0,0 0,0 -1,-2 -2,-3 0,0 0,0 0,0 0,0 0,-1 0,-1 0,-1 0,-1 0,-1 0,-1 0,-1 0,-1 0,0 0,0 0,-1 0,0 0,0 0,0 0,-1 0,-1 0,-1 0,0 0,-1 0,-1 0,0 0,0 0,0 0,0 0,0 0,0 1,1 1,1 2,1 0,0 1,0 1,0 1,-1 0,-1 1,-1 1,0 2,0 2,0 0,-1 0,-1 0,-1 0,0 0,0 0,0 0,0 1,0 1,0 0,-1 0,-1 0,-1 0,0 -1,0 -2,0 -1,0 -1,0 -1,0 0,0 -1,0 -1,1 -1,1 -1,1 -1,0 -1,0 -1,0 -1,-1 0,-1 0,-2 0,-3 -1,0 -1,-1 -1,-1 0,0 0,0 1,0 1,-1 2,-1 2,-1 1,0 1,0 1,0 0,0 0,1 0,1 0,1 0,1 0,1 1,0 1,0 1,0 0,0 1,0 0,0 0,-1 0,-1 0,-1l0 0c0,0 0,0 0,0 1,0 1,0 2,0 0,0 0,1 1,1 0,0 0,0 0,0 0,0 0,0 0,0 0,0 0,-1 0,-1 0,0 0,1 0,1 1,0 1,0 1,0 0,-1 0,-1 0,-1 0,0 0,0 0,0 0,0 0,0 0,0 0,0 0,0 0,-1 0,0 -1,0 -2,0 -1,-1 -1,-1 -2,-1 0,-1 -1,-1 -1,-1 0,0 -2,0 -2,0 0,0 -1,0 -1,0 0,0 -1,0 -1,0 -1,0 -1,0 -2,0 0,0 -1,0 -1,0 0,0 -1,0 -2,0 -1,0 -2,0 -3,0 0,0 -1,0 -1,0l0 0c0,0 0,0 1,0 0,0 0,0 0,0 0,-1 0,-1 0,-1 0,0 0,0 0,0 0,0 0,0 -1,0 0,0 0,0 0,0 0,0 0,0 0,0 0,0 0,0 0,0 0,0 0,0 0,0 0,0 0,0 0,0 0,0 0,-1 -1,-1 0,0 0,0 0,0 0,0 0,1 -1,1 0,0 0,-1 0,-1 0,0 -1,0 -1,1 0,0 -1,0 -1,0 -1,0 -1,0 -1,0 0,0 0,0 0,0 0,1 0,1 -1,1 0,0 0,0 0,0 0,0 0,0 0,0 0,1 0,1 0,1 0,0 -1,0 -1,0 0,0 0,0 0,0 0,0 0,0 0,0 0,0 0,1 0,1 0,0 0,-1 0,0 0,0 0,0 0,0 0,0 0,0 -1,0 0,0 0,0 0,1 0,0 1,0 1,0 0,0 0,0 -1,0 0,0 -1,0 -1,0 0,0 0,0 -1,0 0,0 -2,0 -2,0 0,-1 -1,-1 -2,-1 0,0 -1,0 -1,0 0,0 -1,0 -2,0 0,0 -1,0 -1,0 0,0 0,0 0,0zm18 11c0,0 1,0 1,1 1,0 1,0 1,0 0,0 0,0 1,0 0,1 1,1 1,2 0,0 0,0 0,1 0,0 1,1 2,1 0,0 0,0 0,0 0,0 0,0 0,0 0,-1 -1,-2 -1,-2 0,0 0,0 0,-1 0,0 -1,0 -1,0 0,0 0,0 0,0 0,0 1,0 0,-1 0,0 0,0 0,0 0,0 0,0 0,0l0 -1c0,0 0,0 -1,0 -1,0 -2,0 -2,0 0,0 -1,0 -1,0zm14 -5c0,0 0,0 0,0 1,0 1,-1 1,-1 0,0 -1,0 -1,0 0,1 0,1 0,1zm-2 1c0,0 0,0 1,0 0,0 0,0 1,0 0,0 1,0 1,-1 0,0 0,0 0,0 0,0 -2,0 -2,0 -1,0 0,1 -1,1 0,0 0,0 0,0 0,0 0,0 0,0zm-8 -5c0,0 0,0 1,1 0,0 1,0 1,0 1,0 1,1 1,1 1,0 1,0 2,1 0,0 0,1 0,1 0,0 0,-1 0,-1 0,0 -1,-2 -2,-3 -1,0 -1,0 -3,0zm2 2c0,0 0,0 0,1 0,0 0,0 0,0 0,0 1,1 2,1 0,1 0,2 0,2 0,0 0,0 1,0 0,0 0,0 0,0 0,0 0,0 0,-1 0,0 0,0 0,-1 -1,0 -1,-1 -2,-1 0,-1 0,-1 -1,-1 0,0 0,0 0,0z"/>
     </g>
     <g>
      <path class="fil6" d="M1238 155c0,0 -1,5 -5,5 -10,1 -14,-5 -18,-12 0,0 0,-1 -1,-1 0,0 0,0 0,1 0,0 4,7 6,9 1,1 6,5 12,4 5,0 6,-4 6,-4 0,0 0,-2 0,-2z"/>
      <path class="fil7" d="M1238 149c0,0 -1,3 -1,4 0,2 -1,2 -1,3 1,1 2,2 3,1 1,0 4,-3 6,-4 1,-1 1,-2 1,-2 0,0 4,0 5,0 1,0 3,1 3,1 0,0 -3,4 -3,6 -1,1 -1,3 -1,4l2 0c0,-1 0,-2 1,-3 0,-1 6,-5 6,-5 0,0 1,1 3,1 2,1 4,0 4,0l3 7 2 0 -2 -9c0,0 6,0 8,1 2,0 5,1 6,0 2,-1 3,-2 4,-2 1,0 2,0 2,1 0,1 1,4 1,4l0 5 2 0c0,-1 0,-2 0,-3 1,-1 2,-2 2,-3 -1,-2 -1,-4 -1,-4 0,0 1,0 2,2 2,1 3,1 3,1l1 2 0 3c0,1 0,1 0,2l2 0 0 -1 0 1 1 0c0,-1 0,-1 -1,-2 0,0 0,0 0,0l0 0 0 -8c0,0 0,-1 -1,-1 -1,-1 -2,-1 -3,-2 0,-1 1,-5 0,-8 5,5 2,6 4,11 1,3 4,-1 4,-1 1,-1 0,-1 0,-1 -4,5 -4,-2 -4,-4 0,-4 -4,-8 -5,-9 -1,0 -1,-1 -1,-1 -1,-1 -1,-1 -3,-2 -2,-1 -5,-2 -10,-2 -4,1 -10,1 -12,0 -1,0 -4,-1 -7,1 -4,1 -13,6 -15,8 -2,1 -3,1 -3,1 -1,0 -1,0 -1,0 1,-2 2,-6 0,-7 -1,-1 0,-1 0,1 0,2 -3,6 -3,6 0,0 -4,1 -3,7z"/>
      <path class="fil9" d="M1244 142c1,-2 2,-6 0,-7 -1,-1 0,-1 0,1 0,2 -3,6 -3,6 0,0 0,1 1,2 0,0 2,-2 2,-2z"/>
      <path class="fil6" d="M1242 146c0,0 1,-2 2,-2 1,0 -1,3 -2,4l0 -2z"/>
      <path class="fil9" d="M1239 148c0,0 0,1 0,2 0,-1 1,-1 0,-2z"/>
      <path class="fil9" d="M1237 155c0,0 0,1 0,1 0,0 0,0 0,0l0 0c0,0 1,-1 0,-1z"/>
      <path class="fil9" d="M1237 152c2,0 4,2 5,4 0,0 0,0 0,0 1,-1 0,-1 0,-1 -1,-2 -2,-3 -5,-3 0,0 0,0 0,0z"/>
      <path class="fil6" d="M1226 132c0,-1 0,-2 0,-2 1,0 2,0 2,0 0,0 1,0 1,1 0,0 1,5 1,5l-5 0 1 -4z"/>
      <path class="fil7" d="M1212 139c0,0 4,-2 5,-3 1,0 10,-5 10,-5 0,0 1,0 0,0 0,1 -3,2 -3,2 -3,2 -4,3 -6,4 -1,0 -5,2 -5,3 -1,0 -1,-1 -1,-1z"/>
      <path class="fil5" d="M1219 139c0,0 -2,4 -3,4 0,1 -1,0 -1,0 -1,0 -1,-4 -1,-4 0,0 0,0 -1,-1 0,0 1,-1 2,-1 0,1 0,2 0,2 0,0 1,2 1,2l2 -4 1 2z"/>
      <path class="fil5" d="M1214 131l-3 0 6 -4 5 6 -2 -1 0 2c0,0 3,0 4,3 0,3 0,6 0,7 0,2 0,2 0,2 0,0 1,1 2,4 0,2 1,5 1,5 0,0 1,1 3,3 0,1 1,2 1,4l-4 0c-1,-1 -1,-2 -1,-2 -2,-2 -3,-3 -3,-4 -1,-2 -1,-2 -1,-2 0,0 0,3 -1,4 -1,1 -2,2 -2,3 0,0 0,0 0,1l-4 0c0,-2 0,-4 1,-6 0,-2 2,-7 2,-7l0 -3c0,0 -2,0 -2,1 -1,1 -1,1 -1,1 0,0 -1,1 -1,1 -1,0 -2,-1 -2,-1 0,0 0,-1 1,-2 2,-1 3,-1 3,-1l2 -1c0,0 -1,-2 -1,-4 0,-2 1,-4 1,-4 0,-2 -4,1 -4,-5z"/>
      <path class="fil7" d="M1224 146c0,0 1,1 2,4 0,2 1,5 1,5 0,0 1,1 3,3 0,1 1,2 1,4l-4 0c-1,-1 -1,-2 -1,-2 -2,-2 -3,-3 -3,-4 -1,-2 -1,-2 -1,-2 0,0 0,3 -1,4 -1,1 -2,2 -2,3 0,0 0,0 0,1l-4 0c0,-2 0,-4 1,-6 0,-2 2,-7 2,-7l0 -2c1,1 3,0 6,-1z"/>
      <polygon class="fil6" points="1211,131 1217,127 1222,133 "/>
     </g>
     <g>
      <g>
       <polygon class="fil5" points="579,158 610,158 610,162 579,162 "/>
       <polygon class="fil5" points="582,154 607,154 607,158 582,158 "/>
       <polygon class="fil5" points="584,151 605,151 605,154 584,154 "/>
       <polygon class="fil5" points="586,130 602,130 602,145 586,145 "/>
       <polygon class="fil5" points="586,151 603,151 603,145 586,145 "/>
       <polygon class="fil7" points="586,145 602,145 603,145 586,145 "/>
       <polygon class="fil7" points="584,154 605,154 605,154 584,154 "/>
       <polygon class="fil7" points="586,150 603,150 603,151 586,151 "/>
       <polygon class="fil7" points="582,157 607,157 607,158 582,158 "/>
       <path class="fil7" d="M592 134l2 -1 0 0 -1 0 0 -1 2 0 0 1 0 0 0 0 2 1 0 -1 0 0 0 -1 2 0 0 1 0 0 0 2 -1 0 0 5 1 0 0 1 0 0 0 1 -2 0 0 -1 0 0 0 0 -5 0 0 0 0 0 0 1 -2 0 0 -1 0 0 0 -1 0 0 0 -5 0 0 0 -2 0 0 0 -1 2 0 0 1 0 0 0 1zm0 2l2 -1 3 1 0 4 -5 0 0 -4z"/>
       <path class="fil7" d="M586 130l17 0c1,0 1,-1 1,-1l0 0c0,0 0,0 -1,0l-17 0c0,0 -1,0 -1,0l0 0c0,0 1,1 1,1z"/>
       <polygon class="fil5" points="589,94 595,94 600,94 603,122 595,122 586,122 "/>
       <path class="fil7" d="M585 120c1,0 2,1 2,2l6 0c0,-1 1,-2 2,-2 0,0 2,1 2,2l5 0c0,-1 1,-2 2,-2l0 2 0 2 -9 0 -10 0 0 -2 0 -2z"/>
       <path class="fil5" d="M603 126l1 -2 -19 0 1 2 0 3 17 0 0 -3zm-15 -1l0 0c1,0 1,1 1,1l0 1 -2 0 0 -1c0,0 1,-1 1,-1zm3 0l0 0c1,0 1,1 1,1l0 1 -2 0 0 -1c0,0 1,-1 1,-1zm4 0l0 0c0,0 1,1 1,1l0 1 -2 0 0 -1c0,0 0,-1 1,-1zm3 0l0 0c0,0 1,1 1,1l0 1 -2 0 0 -1c0,0 0,-1 1,-1zm3 0l0 0c1,0 1,1 1,1l0 1 -2 0 0 -1c0,0 0,-1 1,-1z"/>
       <polygon class="fil5" points="603,92 586,92 586,89 603,89 "/>
       <polygon class="fil7" points="598,87 591,87 591,89 598,89 "/>
       <polygon class="fil7" points="593,87 595,75 596,87 "/>
       <path class="fil7" d="M602 92c0,0 0,0 0,1 -1,0 -1,0 -1,1l-1 0 -11 0 -1 0c0,-1 0,-1 -1,-1 0,-1 0,-1 0,-1l1 0 2 0 9 0 2 0 1 0z"/>
       <polygon class="fil7" points="595,106 595,107 596,108 595,109 595,110 594,109 593,108 594,107 "/>
       <g>
        <polygon class="fil7" points="594,105 595,95 595,105 "/>
        <polygon class="fil7" points="594,111 595,122 595,111 "/>
       </g>
      </g>
      <g>
       <polygon class="fil20" points="595,158 610,158 610,162 595,162 "/>
       <polygon class="fil20" points="595,154 607,154 607,158 595,158 "/>
       <polygon class="fil20" points="595,151 605,151 605,154 595,154 "/>
       <polygon class="fil20" points="595,130 602,130 602,145 595,145 "/>
       <polygon class="fil20" points="595,151 603,151 603,145 595,145 "/>
       <polygon class="fil20" points="595,145 602,145 603,145 595,145 "/>
       <polygon class="fil20" points="595,154 605,154 605,154 595,154 "/>
       <polygon class="fil20" points="595,150 603,150 603,151 595,151 "/>
       <polygon class="fil20" points="595,157 607,157 607,158 595,158 "/>
       <polygon class="fil20" points="595,132 595,132 595,133 595,133 595,133 597,134 597,133 597,133 597,132 599,132 599,133 599,133 599,135 598,135 598,140 599,140 599,141 599,141 599,142 597,142 597,141 597,141 597,141 595,141 595,140 597,140 597,136 595,135 "/>
       <path class="fil20" d="M595 130l8 0c1,0 1,-1 1,-1l0 0c0,0 0,0 -1,0l-8 0 0 1z"/>
       <polygon class="fil20" points="595,94 600,94 603,122 595,122 "/>
       <path class="fil20" d="M595 120c0,0 2,1 2,2l5 0c0,-1 1,-2 2,-2l0 2 0 2 -9 0 0 -4z"/>
       <path class="fil20" d="M603 126l1 -2 -9 0 0 1 0 0c0,0 1,1 1,1l0 1 -1 0 0 2 8 0 0 -3zm-5 -1l0 0c0,0 1,1 1,1l0 1 -2 0 0 -1c0,0 0,-1 1,-1zm3 0l0 0c1,0 1,1 1,1l0 1 -2 0 0 -1c0,0 0,-1 1,-1z"/>
       <polygon class="fil20" points="603,92 595,92 595,89 603,89 "/>
       <polygon class="fil20" points="598,87 595,87 595,89 598,89 "/>
       <polygon class="fil20" points="595,75 596,87 595,87 "/>
       <path class="fil20" d="M602 92c0,0 0,0 0,1 -1,0 -1,0 -1,1l-1 0 -5 0 0 -2 4 0 2 0 1 0z"/>
       <polygon class="fil20" points="595,106 595,107 596,108 595,109 595,110 "/>
       <g>
        <polygon class="fil20" points="595,95 595,105 595,105 "/>
        <polygon class="fil20" points="595,122 595,111 595,111 "/>
       </g>
      </g>
     </g>
     <g>
      <path class="fil21 str0" d="M930 80l18 -21c-5,7 -8,23 -3,30l-15 -9z"/>
      <path class="fil21 str0" d="M932 81l18 -21c-8,10 -4,30 6,37l-24 -16z"/>
      <polyline class="fil21 str0" points="933,78 937,84 935,75 942,89 937,73 949,92 939,70 946,79 941,68 946,72 944,65 "/>
      <path class="fil7" d="M913 161c-5,-28 -2,-58 17,-81l3 0 36 25c0,0 -3,7 -5,20 -2,14 -2,31 -2,31l0 5 -49 0z"/>
      <path class="fil5" d="M912 158l0 -1 50 0 0 1 -50 0zm0 -4l0 -1 50 0 0 1 -50 0zm-1 -5l0 -1 51 0 0 1 -51 0zm0 -5l0 -1 51 0 0 1 -51 0zm0 -4l0 -1 52 0 -1 1 -51 0zm0 -5l0 -1 52 0 0 1 -52 0zm0 -5l0 -1 52 0 0 1 -52 0zm0 -4l0 -1 53 0 0 0 0 1 -53 0zm1 -5l0 -1 53 0 0 1 -53 0zm1 -5l0 -1 53 0 0 1 -53 0zm1 -4l0 -1 53 0 0 1 -53 0zm1 -5l0 -1 53 0 0 1 -53 0zm2 -5l0 -1 46 0 2 1 -48 0zm2 -4l0 -1 38 0 1 1 -39 0zm2 -5l1 -1 28 0 2 1 -31 0zm3 -5l0 -1 19 0 2 1 -21 0z"/>
      <path class="fil22" d="M966 103l3 2c0,0 -3,7 -5,20 -2,14 -2,31 -2,31l0 5 -4 0c0,-19 1,-42 8,-58z"/>
      <path class="fil5" d="M923 161l-8 0c-7,-28 1,-64 15,-80l2 0c-17,23 -16,54 -9,80z"/>
      <path class="fil7" d="M933 81c-1,29 7,60 29,80l-9 0c-15,-19 -26,-56 -20,-80z"/>
      <path class="fil4" d="M933 81c-1,29 7,60 29,80l-3 0c-18,-16 -29,-52 -26,-80z"/>
      <path class="fil4" d="M933 81c-1,29 7,60 29,80l-3 0c-18,-16 -29,-52 -26,-80l0 0 0 0z"/>
      <path class="fil22" d="M933 81c-1,29 7,60 29,80l-3 0c-16,-15 -30,-47 -26,-80z"/>
      <path class="fil4" d="M939 91c2,0 4,2 4,4 0,2 -2,4 -4,4 -2,0 -4,-2 -4,-4 0,-2 2,-4 4,-4z"/>
      <g>
       <path class="fil9" d="M968 140l3 -13c0,0 4,5 5,9 1,4 0,7 0,7l-8 -3z"/>
       <path class="fil7" d="M971 127c0,0 4,5 5,9 1,4 0,7 0,7l-1 0c0,-8 -4,-16 -4,-16z"/>
       <path class="fil5" d="M976 131c0,0 3,3 5,7 2,4 2,5 2,5l-8 1c0,0 1,-6 1,-13z"/>
       <path class="fil7" d="M960 138c2,0 4,1 4,1 0,1 -2,2 -4,2 -2,0 -4,-1 -4,-2 0,0 2,-1 4,-1z"/>
       <path class="fil6" d="M956 139l-2 8 6 0 7 0 -3 -8c0,1 -2,2 -4,2 -2,0 -4,-1 -4,-2z"/>
       <path class="fil7" d="M970 138c2,0 4,1 4,1 0,1 -2,2 -4,2 -2,0 -4,-1 -4,-2 0,0 2,-1 4,-1z"/>
       <path class="fil6" d="M966 139l-2 8 6 0 7 0 -3 -8c0,1 -2,2 -4,2 -2,0 -4,-1 -4,-2z"/>
       <g>
        <g>
         <path class="fil6" d="M958 157l0 5 2 0 -1 -5 -1 0zm-26 0l0 5 1 0 0 -5 -1 0zm3 0l0 5 2 0 -1 -5 -1 0zm3 0l1 5 1 0 -1 -5 -1 0zm2 0l1 5 1 0 0 -5 -2 0zm3 0l1 5 1 0 -1 -5 -1 0zm3 0l1 5 1 0 -1 -5 -1 0zm11 0l0 5 -1 0 0 -5 1 0zm-2 0l-1 5 -2 0 1 -5 2 0zm5 0l1 5 2 0 -1 -5 -2 0zm3 0l2 5 1 0 -1 -5 -2 0zm-11 0l-2 5 -1 0 1 -5 2 0z"/>
         <polygon class="fil7" points="937,143 941,157 969,157 963,144 "/>
         <path class="fil6" d="M947 157l1 0 -5 -14 -1 0 5 14zm5 0l1 0 -5 -14 0 0 4 14zm6 0l1 0 -5 -14 -1 0 5 14zm5 0l1 0 -5 -14 -1 0 5 14z"/>
         <polygon class="fil5" points="937,143 931,144 931,157 941,157 "/>
         <path class="fil7" d="M936 143l0 0 3 14 1 0 -4 -14zm-2 0l0 0 3 14 0 0 -3 -14zm-1 0l0 0 2 14 0 0 -2 -14zm-1 1l0 0 0 13 1 0 -1 -13z"/>
         <polygon class="fil5" points="934,157 935,162 936,162 936,157 "/>
         <polygon class="fil5" points="937,157 938,162 940,162 939,157 "/>
         <polygon class="fil5" points="940,157 942,162 943,162 942,157 "/>
         <g>
          <polygon class="fil5" points="946,157 947,162 948,162 948,157 "/>
          <polygon class="fil5" points="949,157 950,162 951,162 950,157 "/>
          <polygon class="fil5" points="952,157 953,162 955,162 953,157 "/>
         </g>
         <g>
          <polygon class="fil5" points="967,157 967,162 965,162 966,157 "/>
          <polygon class="fil5" points="964,157 964,162 962,162 963,157 "/>
          <polygon class="fil5" points="961,157 960,162 959,162 960,157 "/>
         </g>
        </g>
        <g>
         <path class="fil6" d="M969 157l1 5 1 0 0 -5 -2 0zm-25 0l0 5 1 0 0 -5 -1 0zm3 0l0 5 2 0 -1 -5 -1 0zm3 0l0 5 2 0 -1 -5 -1 0zm2 0l0 5 2 0 0 -5 -2 0zm3 0l1 5 1 0 -1 -5 -1 0zm3 0l1 5 1 0 -1 -5 -1 0zm11 0l0 5 -2 0 1 -5 1 0zm-2 0l-1 5 -2 0 1 -5 2 0zm5 0l1 5 2 0 -1 -5 -2 0zm3 0l2 5 1 0 -1 -5 -2 0zm-11 0l-2 5 -1 0 1 -5 2 0z"/>
         <polygon class="fil7" points="949,143 953,157 981,157 975,144 "/>
         <path class="fil6" d="M959 157l1 0 -5 -14 -1 0 5 14zm5 0l1 0 -5 -14 -1 0 5 14zm6 0l1 0 -5 -14 -1 0 5 14zm5 0l1 0 -5 -14 -1 0 5 14z"/>
         <polygon class="fil5" points="949,143 943,144 943,157 953,157 "/>
         <path class="fil7" d="M948 143l0 0 3 14 1 0 -4 -14zm-2 0l0 0 3 14 0 0 -3 -14zm-1 0l0 0 1 14 1 0 -2 -14zm-1 1l0 0 0 13 1 0 -1 -13z"/>
         <polygon class="fil5" points="946,157 947,162 948,162 948,157 "/>
         <polygon class="fil5" points="949,157 950,162 952,162 951,157 "/>
         <polygon class="fil5" points="952,157 954,162 955,162 954,157 "/>
         <g>
          <polygon class="fil5" points="958,157 959,162 960,162 959,157 "/>
          <polygon class="fil5" points="961,157 962,162 963,162 962,157 "/>
          <polygon class="fil5" points="964,157 965,162 967,162 965,157 "/>
         </g>
         <g>
          <polygon class="fil5" points="979,157 979,162 977,162 978,157 "/>
          <polygon class="fil5" points="976,157 975,162 974,162 975,157 "/>
          <polygon class="fil5" points="973,157 972,162 971,162 972,157 "/>
         </g>
        </g>
        <g>
         <path class="fil6" d="M981 157l1 5 1 0 -1 -5 -1 0zm-25 0l0 5 1 0 0 -5 -1 0zm2 0l1 5 1 0 0 -5 -2 0zm3 0l1 5 1 0 0 -5 -2 0zm3 0l0 5 1 0 0 -5 -1 0zm3 0l0 5 2 0 -1 -5 -1 0zm3 0l0 5 2 0 -1 -5 -1 0zm11 0l-1 5 -1 0 1 -5 1 0zm-3 0l-1 5 -1 0 1 -5 1 0zm6 0l1 5 1 0 -1 -5 -1 0zm3 0l1 5 2 0 -2 -5 -1 0zm-12 0l-1 5 -1 0 1 -5 1 0z"/>
         <polygon class="fil7" points="961,143 965,157 993,157 987,144 "/>
         <path class="fil6" d="M970 157l1 0 -5 -14 -1 0 5 14zm6 0l1 0 -5 -14 -1 0 5 14zm6 0l1 0 -5 -14 -1 0 5 14zm5 0l0 0 -4 -14 -1 0 5 14z"/>
         <polygon class="fil5" points="961,143 955,144 955,157 965,157 "/>
         <path class="fil7" d="M960 143l-1 0 4 14 0 0 -3 -14zm-2 0l0 0 2 14 1 0 -3 -14zm-1 0l-1 0 2 14 1 0 -2 -14zm-1 1l-1 0 1 13 0 0 0 -13z"/>
         <polygon class="fil5" points="958,157 959,162 960,162 959,157 "/>
         <polygon class="fil5" points="961,157 962,162 963,162 962,157 "/>
         <polygon class="fil5" points="964,157 965,162 967,162 965,157 "/>
         <g>
          <polygon class="fil5" points="970,157 970,162 972,162 971,157 "/>
          <polygon class="fil5" points="973,157 974,162 975,162 974,157 "/>
          <polygon class="fil5" points="976,157 977,162 978,162 977,157 "/>
         </g>
         <g>
          <polygon class="fil5" points="991,157 990,162 989,162 989,157 "/>
          <polygon class="fil5" points="988,157 987,162 986,162 986,157 "/>
          <polygon class="fil5" points="985,157 984,162 983,162 983,157 "/>
         </g>
        </g>
       </g>
      </g>
     </g>
     <g>
      <polygon class="fil9" points="449,133 420,133 391,133 393,134 420,134 447,134 "/>
      <g>
       <polygon class="fil5" points="447,134 394,134 394,148 447,148 "/>
       <polygon class="fil7" points="450,133 421,133 391,133 403,127 421,127 438,127 "/>
       <polygon class="fil5" points="351,134 404,134 404,148 351,148 "/>
       <polygon class="fil7" points="348,133 377,133 407,133 395,127 377,127 360,127 "/>
       <polygon class="fil9" points="348,133 377,133 407,133 404,134 377,134 351,134 "/>
      </g>
      <path class="fil5" d="M388 153l23 0 0 -35 0 -2 -3 0 0 2 -18 0 0 -2 -2 0 0 2 0 35zm23 -37l0 0 -1 -1 -1 0 -1 0 0 1 0 0 3 0zm-21 0l0 0 0 -1 -1 0 -1 0 0 1 0 0 2 0z"/>
      <g>
       <polygon class="fil5" points="337,146 390,146 390,162 337,162 "/>
       <polygon class="fil7" points="334,145 364,145 393,145 381,139 364,139 346,139 "/>
       <polygon class="fil9" points="334,145 364,145 393,145 390,146 364,146 337,146 "/>
       <g>
        <path class="fil6" d="M343 154l0 0c1,0 2,1 2,2l0 3 -4 0 0 -3c0,-1 1,-2 2,-2z"/>
        <path class="fil6" d="M348 154l0 0c1,0 2,1 2,2l0 3 -3 0 0 -3c0,-1 0,-2 1,-2z"/>
        <path class="fil6" d="M353 154l0 0c1,0 2,1 2,2l0 3 -3 0 0 -3c0,-1 0,-2 1,-2z"/>
        <path class="fil6" d="M359 154l0 0c1,0 1,1 1,2l0 3 -3 0 0 -3c0,-1 1,-2 2,-2z"/>
        <path class="fil6" d="M364 154l0 0c1,0 1,1 1,2l0 3 -3 0 0 -3c0,-1 1,-2 2,-2z"/>
        <path class="fil6" d="M369 154l0 0c1,0 1,1 1,2l0 3 -3 0 0 -3c0,-1 1,-2 2,-2z"/>
        <path class="fil6" d="M374 154l0 0c1,0 2,1 2,2l0 3 -4 0 0 -3c0,-1 1,-2 2,-2z"/>
        <path class="fil6" d="M379 154l0 0c1,0 2,1 2,2l0 3 -4 0 0 -3c0,-1 1,-2 2,-2z"/>
        <path class="fil6" d="M384 154l0 0c1,0 2,1 2,2l0 3 -4 0 0 -3c0,-1 1,-2 2,-2z"/>
       </g>
       <g>
        <polygon class="fil6" points="345,149 345,152 341,152 341,149 "/>
        <polygon class="fil6" points="350,149 350,152 347,152 347,149 "/>
        <polygon class="fil6" points="355,149 355,152 352,152 352,149 "/>
        <polygon class="fil6" points="360,149 360,152 357,152 357,149 "/>
        <polygon class="fil6" points="365,149 365,152 362,152 362,149 "/>
        <polygon class="fil6" points="370,149 370,152 367,152 367,149 "/>
        <polygon class="fil6" points="376,149 376,152 372,152 372,149 "/>
        <polygon class="fil6" points="381,149 381,152 377,152 377,149 "/>
        <polygon class="fil6" points="386,149 386,152 382,152 382,149 "/>
       </g>
      </g>
      <polygon class="fil5" points="461,146 408,146 408,162 461,162 "/>
      <polygon class="fil7" points="464,145 435,145 405,145 417,139 435,139 452,139 "/>
      <polygon class="fil9" points="464,145 435,145 405,145 408,146 435,146 461,146 "/>
      <g>
       <path class="fil6" d="M455 154l0 0c-1,0 -2,1 -2,2l0 3 4 0 0 -3c0,-1 -1,-2 -2,-2z"/>
       <path class="fil6" d="M450 154l0 0c-1,0 -2,1 -2,2l0 3 4 0 0 -3c0,-1 -1,-2 -2,-2z"/>
       <path class="fil6" d="M445 154l0 0c-1,0 -2,1 -2,2l0 3 4 0 0 -3c0,-1 -1,-2 -2,-2z"/>
       <path class="fil6" d="M440 154l0 0c-1,0 -2,1 -2,2l0 3 3 0 0 -3c0,-1 0,-2 -1,-2z"/>
       <path class="fil6" d="M435 154l0 0c-1,0 -2,1 -2,2l0 3 3 0 0 -3c0,-1 0,-2 -1,-2z"/>
       <path class="fil6" d="M429 154l0 0c-1,0 -1,1 -1,2l0 3 3 0 0 -3c0,-1 -1,-2 -2,-2z"/>
       <path class="fil6" d="M424 154l0 0c-1,0 -1,1 -1,2l0 3 3 0 0 -3c0,-1 -1,-2 -2,-2z"/>
       <path class="fil6" d="M419 154l0 0c-1,0 -2,1 -2,2l0 3 4 0 0 -3c0,-1 -1,-2 -2,-2z"/>
       <path class="fil6" d="M414 154l0 0c-1,0 -2,1 -2,2l0 3 4 0 0 -3c0,-1 -1,-2 -2,-2z"/>
      </g>
      <g>
       <polygon class="fil6" points="453,149 453,152 457,152 457,149 "/>
       <polygon class="fil6" points="448,149 448,152 452,152 452,149 "/>
       <polygon class="fil6" points="443,149 443,152 447,152 447,149 "/>
       <polygon class="fil6" points="438,149 438,152 441,152 441,149 "/>
       <polygon class="fil6" points="433,149 433,152 436,152 436,149 "/>
       <polygon class="fil6" points="428,149 428,152 431,152 431,149 "/>
       <polygon class="fil6" points="423,149 423,152 426,152 426,149 "/>
       <polygon class="fil6" points="417,149 417,152 421,152 421,149 "/>
       <polygon class="fil6" points="412,149 412,152 416,152 416,149 "/>
      </g>
      <g>
       <polygon class="fil5" points="413,153 385,153 385,162 413,162 "/>
       <polygon class="fil7" points="382,152 399,152 416,152 405,147 399,147 393,147 "/>
       <polygon class="fil9" points="382,152 399,152 416,152 414,153 399,153 384,153 "/>
      </g>
      <g>
       <polygon class="fil4" points="399,103 401,104 403,106 399,106 395,106 397,104 "/>
       <polygon class="fil6" points="393,106 405,106 405,107 393,107 "/>
       <polygon class="fil9" points="395,107 399,107 403,107 405,107 399,107 393,107 "/>
       <polygon class="fil4" points="394,107 399,107 404,107 405,108 399,108 393,108 "/>
       <polygon class="fil6" points="391,108 407,108 407,108 391,108 "/>
       <polygon class="fil9" points="392,109 406,109 407,108 391,108 "/>
       <polygon class="fil4" points="392,109 399,109 406,109 408,110 399,110 390,110 "/>
       <polygon class="fil6" points="390,110 408,110 408,111 390,111 "/>
       <polygon class="fil9" points="391,112 407,112 408,111 390,111 "/>
       <polygon class="fil5" points="392,111 406,111 406,118 392,118 "/>
       <g>
        <polygon class="fil6" points="393,112 395,112 395,117 393,117 "/>
        <polygon class="fil6" points="396,112 397,112 397,117 396,117 "/>
        <polygon class="fil6" points="398,112 400,112 400,117 398,117 "/>
        <polygon class="fil6" points="401,112 402,112 402,117 401,117 "/>
        <polygon class="fil6" points="403,112 405,112 405,117 403,117 "/>
       </g>
      </g>
      <polygon class="fil7" points="390,118 408,118 408,119 390,119 "/>
      <polygon class="fil4" points="390,120 408,120 408,119 390,119 "/>
      <polygon class="fil4" points="390,121 408,121 408,121 390,121 "/>
      <polygon class="fil4" points="390,118 388,118 388,119 390,119 "/>
      <polygon class="fil4" points="390,120 388,120 388,121 390,121 "/>
      <polygon class="fil4" points="411,118 408,118 408,119 411,119 "/>
      <polygon class="fil4" points="411,120 408,120 408,121 411,121 "/>
      <g>
       <path class="fil7" d="M394 131l10 0 0 1 -1 0 0 8 1 0 0 1 -10 0 0 -1 1 0 0 -8 -1 0 0 -1zm4 1l-2 0 0 8 2 0 0 -8zm2 0l-2 0 0 8 2 0 0 -8zm2 0l-1 0 0 8 1 0 0 -8z"/>
       <polygon class="fil9" points="395,131 403,131 403,130 395,130 "/>
       <polygon class="fil7" points="394,129 404,129 404,130 394,130 "/>
       <polygon class="fil9" points="395,141 403,141 403,141 395,141 "/>
       <polygon class="fil7" points="394,141 404,141 404,142 394,142 "/>
       <polygon class="fil7" points="399,146 401,144 404,142 399,142 394,142 397,144 "/>
       <polygon class="fil9" points="395,129 403,129 403,129 395,129 "/>
       <g>
        <polygon class="fil7" points="395,129 403,129 402,128 396,128 "/>
        <polygon class="fil7" points="396,128 402,128 402,128 396,128 "/>
        <polygon class="fil7" points="396,127 402,127 401,127 397,127 "/>
        <polygon class="fil7" points="397,127 401,127 401,126 397,126 "/>
        <polygon class="fil7" points="397,126 401,126 400,126 398,126 "/>
        <polygon class="fil7" points="398,126 400,126 400,125 398,125 "/>
        <polygon class="fil7" points="398,125 400,125 399,125 399,125 "/>
       </g>
       <polygon class="fil7" points="399,124 399,124 399,124 399,124 "/>
      </g>
      <g>
       <polygon class="fil6" points="441,135 441,138 445,138 445,135 "/>
       <polygon class="fil6" points="436,135 436,138 440,138 440,135 "/>
       <polygon class="fil6" points="431,135 431,138 434,138 434,135 "/>
       <polygon class="fil6" points="426,135 426,138 429,138 429,135 "/>
       <polygon class="fil6" points="421,135 421,138 424,138 424,135 "/>
       <polygon class="fil6" points="416,135 416,138 419,138 419,135 "/>
       <polygon class="fil6" points="411,135 411,138 414,138 414,135 "/>
      </g>
      <g>
       <polygon class="fil6" points="357,135 357,138 353,138 353,135 "/>
       <polygon class="fil6" points="362,135 362,138 359,138 359,135 "/>
       <polygon class="fil6" points="367,135 367,138 364,138 364,135 "/>
       <polygon class="fil6" points="372,135 372,138 369,138 369,135 "/>
       <polygon class="fil6" points="377,135 377,138 374,138 374,135 "/>
       <polygon class="fil6" points="383,135 383,138 379,138 379,135 "/>
       <polygon class="fil6" points="388,135 388,138 384,138 384,135 "/>
      </g>
      <polygon class="fil6" points="394,155 404,155 404,162 394,162 "/>
      <g>
       <polygon class="fil6" points="409,155 410,155 410,160 409,160 "/>
       <polygon class="fil6" points="388,155 390,155 390,160 388,160 "/>
      </g>
      <polygon class="fil4" points="399,103 399,103 399,98 399,98 "/>
      <polygon class="fil4" points="388,125 390,125 390,118 390,118 390,125 390,126 390,126 388,126 "/>
      <polygon class="fil4" points="411,125 408,125 408,118 408,118 408,125 408,126 408,126 411,126 "/>
      <polygon class="fil9" points="388,116 390,116 390,116 388,116 "/>
      <polygon class="fil7" points="388,116 390,116 390,116 388,116 "/>
      <polygon class="fil9" points="408,116 411,116 410,116 408,116 "/>
      <polygon class="fil7" points="408,116 410,116 410,116 408,116 "/>
      <polygon class="fil23" points="399,126 399,126 399,126 399,126 "/>
     </g>
     <g>
      <polygon class="fil5" points="1328,130 1370,130 1370,134 1328,134 "/>
      <path class="fil5" d="M1331 149l36 0 0 -13 -36 0 0 13zm4 -9l4 0 0 5 -4 0 0 -5zm12 0l4 0 0 5 -4 0 0 -5zm12 0l4 0 0 5 -4 0 0 -5z"/>
      <polygon class="fil7" points="1333,149 1333,159 1331,159 1331,149 "/>
      <polygon class="fil6" points="1327,136 1371,136 1371,134 1327,134 "/>
      <polygon class="fil7" points="1343,149 1343,159 1340,159 1340,149 "/>
      <polygon class="fil7" points="1358,149 1358,159 1355,159 1355,149 "/>
      <polygon class="fil7" points="1367,149 1367,159 1364,159 1364,149 "/>
      <polygon class="fil5" points="1330,159 1334,159 1334,162 1330,162 "/>
      <polygon class="fil5" points="1339,159 1344,159 1344,162 1339,162 "/>
      <polygon class="fil5" points="1354,159 1358,159 1358,162 1354,162 "/>
      <polygon class="fil5" points="1364,159 1368,159 1368,162 1364,162 "/>
      <polygon class="fil6" points="1331,146 1367,146 1367,145 1331,145 "/>
      <g>
       <polygon class="fil9" points="1331,131 1331,132 1331,132 1331,133 1331,133 1330,133 1330,132 1330,132 "/>
       <polygon class="fil9" points="1334,131 1335,132 1335,132 1335,133 1334,133 1334,133 1334,132 1334,132 "/>
       <polygon class="fil9" points="1338,131 1338,132 1339,132 1338,133 1338,133 1338,133 1337,132 1338,132 "/>
       <polygon class="fil9" points="1342,131 1342,132 1342,132 1342,133 1342,133 1341,133 1341,132 1341,132 "/>
       <polygon class="fil9" points="1345,131 1346,132 1346,132 1346,133 1345,133 1345,133 1345,132 1345,132 "/>
       <polygon class="fil9" points="1349,131 1349,132 1350,132 1349,133 1349,133 1349,133 1348,132 1349,132 "/>
       <polygon class="fil9" points="1367,131 1367,132 1367,132 1367,133 1367,133 1368,133 1368,132 1368,132 "/>
       <polygon class="fil9" points="1364,131 1363,132 1363,132 1363,133 1364,133 1364,133 1364,132 1364,132 "/>
       <polygon class="fil9" points="1360,131 1360,132 1359,132 1360,133 1360,133 1360,133 1361,132 1360,132 "/>
       <polygon class="fil9" points="1356,131 1356,132 1356,132 1356,133 1356,133 1357,133 1357,132 1357,132 "/>
       <polygon class="fil9" points="1353,131 1352,132 1352,132 1352,133 1353,133 1353,133 1353,132 1353,132 "/>
      </g>
      <polygon class="fil4" points="1332,138 1333,137 1334,136 1332,136 1331,136 1331,137 "/>
      <polygon class="fil4" points="1336,138 1335,137 1334,136 1336,136 1338,136 1337,137 "/>
      <polygon class="fil4" points="1340,138 1341,137 1342,136 1340,136 1338,136 1339,137 "/>
      <polygon class="fil4" points="1343,138 1343,137 1342,136 1343,136 1345,136 1344,137 "/>
      <polygon class="fil4" points="1358,138 1357,137 1356,136 1358,136 1360,136 1359,137 "/>
      <polygon class="fil4" points="1354,138 1355,137 1356,136 1354,136 1353,136 1354,137 "/>
      <polygon class="fil4" points="1351,138 1350,137 1349,136 1351,136 1353,136 1352,137 "/>
      <polygon class="fil4" points="1347,138 1348,137 1349,136 1347,136 1345,136 1346,137 "/>
      <polygon class="fil4" points="1362,138 1363,137 1364,136 1362,136 1360,136 1361,137 "/>
      <polygon class="fil4" points="1365,138 1365,137 1364,136 1365,136 1367,136 1366,137 "/>
      <g>
       <polygon class="fil6" points="1331,147 1367,147 1367,147 1331,147 "/>
       <polygon class="fil6" points="1331,148 1367,148 1367,148 1331,148 "/>
      </g>
      <g>
       <polygon class="fil7" points="1318,117 1321,117 1321,127 1318,127 "/>
       <polygon class="fil7" points="1377,117 1380,117 1380,127 1377,127 "/>
      </g>
      <path class="fil6" d="M1390 102c-20,15 -62,15 -82,0l0 1 15 27 26 0 26 0 15 -27 0 -1z"/>
     </g>
     <g>
      <polygon class="fil24" points="1132,162 1164,162 1195,162 1189,158 1164,158 1139,158 "/>
      <g>
       <path class="fil25" d="M1164 160c11,0 21,-10 21,-21 0,-12 -10,-21 -21,-21 -12,0 -21,9 -21,21 0,11 9,21 21,21z"/>
       <path class="fil21 str1" d="M1146 144c0,1 1,3 2,4m16 -28c-10,0 -18,7 -19,16"/>
       <g>
        <path class="fil4" d="M1156 115c0,0 -1,-1 -1,-2 0,-1 1,-2 1,-2 0,0 0,2 0,2 0,0 1,0 1,0 0,-1 -1,-1 -1,-1 0,0 1,0 2,1 0,1 -1,2 -1,2l-1 0z"/>
        <path class="fil4" d="M1156 115l0 0c0,0 0,1 0,2 0,0 2,1 2,1l1 0c0,0 -1,-2 -1,-2 -1,0 -1,0 -1,0 0,0 0,-1 0,-1 0,-1 -1,0 -1,0z"/>
        <path class="fil4" d="M1171 115c0,0 2,-1 2,-2 0,-1 -1,-2 -2,-2 0,0 0,2 0,2 0,0 0,0 0,0 0,-1 0,-1 0,-1 0,0 -1,0 -1,1 0,1 0,2 0,2l1 0z"/>
        <path class="fil4" d="M1171 115l0 0c0,0 1,1 0,2 0,0 -2,1 -2,1l-1 0c0,0 1,-2 2,-2 0,0 0,0 0,0 0,0 0,-1 0,-1 0,-1 1,0 1,0z"/>
        <g>
         <path class="fil11" d="M1162 114c0,0 0,0 0,0 0,0 0,1 0,1 -1,0 -1,-1 -1,-1 0,0 0,0 1,0z"/>
         <path class="fil11" d="M1166 114c0,0 0,0 0,0 0,0 0,1 0,1 -1,0 -1,-1 -1,-1 0,0 0,0 1,0z"/>
        </g>
        <g>
         <path class="fil4" d="M1160 119c0,0 -2,0 -3,1 0,0 -1,2 -1,2l1 -2 3 0 0 -1z"/>
         <polygon class="fil4" points="1158,118 1155,119 1153,120 1155,119 1159,119 "/>
         <path class="fil4" d="M1161 120c0,0 -2,1 -2,1 0,1 1,2 2,2 0,0 -1,-1 -1,-1l2 -1 -1 -1z"/>
         <path class="fil4" d="M1168 119c0,0 2,0 2,1 1,0 2,2 2,2l-2 -2 -3 0 1 -1z"/>
         <polygon class="fil4" points="1169,118 1173,119 1174,120 1172,119 1169,119 "/>
         <path class="fil4" d="M1166 120c0,0 2,1 2,1 1,1 0,2 -1,2 -1,0 0,-1 0,-1l-1 -1 0 -1z"/>
        </g>
        <path class="fil7" d="M1164 114c3,0 6,2 6,4 0,2 -3,3 -6,3 -3,0 -6,-1 -6,-3 0,-2 3,-4 6,-4z"/>
       </g>
      </g>
     </g>
     <g>
      <path class="fil7" d="M242 126c0,-1 0,-2 0,-2 -1,-1 0,-6 3,-6 1,-2 1,-3 3,-3 1,0 2,1 2,2 3,0 4,6 4,7 0,0 0,1 -1,2 0,0 0,0 0,0 0,0 2,0 2,1 -1,1 -2,1 -2,3 -1,1 0,2 -1,2 -1,0 -1,-1 -1,-1 0,0 -1,1 0,2 1,0 6,0 7,2 2,2 1,2 2,5 0,3 2,6 2,8 -1,2 -5,3 -7,4 1,1 2,1 2,1 3,1 3,1 4,2 0,0 3,2 2,5 -1,1 -2,2 -3,2l-12 0 -13 0c-1,0 -2,-1 -2,-2 -1,-3 1,-5 2,-5 1,-1 1,-1 3,-2 1,0 2,-1 3,-3 -2,0 -7,-1 -7,-2 -1,-2 1,-5 2,-8 0,-3 -1,-3 1,-5 2,-2 6,-2 8,-2 1,-1 0,-2 0,-2 -1,0 -1,1 -1,1 -1,0 -1,-1 -1,-2 -1,-2 -2,-2 -2,-3 0,-1 1,-1 1,-1 0,0 0,0 0,0zm-1 15c0,0 0,1 1,3 0,2 0,2 0,2 0,0 -2,1 -3,0 0,0 1,-4 2,-5zm14 0c0,0 -1,1 -1,3 -1,2 -1,3 -1,3 1,1 1,2 1,2 0,0 2,-1 3,-2 0,-1 -1,-1 -1,-1 0,-1 0,-1 0,-1 0,0 0,0 0,0 0,-1 0,-1 -1,-4z"/>
      <path class="fil6" d="M248 115c1,0 2,1 2,2 3,0 4,6 4,7 0,0 0,1 -1,2 0,0 0,0 0,0 0,0 2,0 2,1 -1,1 -2,1 -2,3 -1,1 0,2 -1,2 -1,0 -1,-1 -1,-1 0,0 -1,1 0,2 1,0 6,0 7,2 2,2 1,2 2,5 0,3 2,6 2,8 -1,2 -5,3 -7,4 1,1 2,1 2,1 3,1 3,1 4,2 0,0 3,2 2,5 -1,1 -2,2 -3,2l-12 0 0 -47zm7 26c0,0 -1,1 -1,3 -1,2 -1,3 -1,3 1,1 1,2 1,2 0,0 2,-1 3,-2 0,-1 -1,-1 -1,-1 0,-1 0,-1 0,-1 0,0 0,0 0,0 0,-1 0,-1 -1,-4z"/>
     </g>
     <g>
      <polygon class="fil5" points="289,94 300,94 300,105 289,105 "/>
      <polygon class="fil5" points="289,119 301,119 301,108 289,108 "/>
      <polygon class="fil7" points="288,108 302,108 302,106 288,106 "/>
      <polygon class="fil5" points="288,134 302,134 302,122 288,122 "/>
      <polygon class="fil7" points="287,122 302,122 302,120 287,120 "/>
      <polygon class="fil5" points="287,149 302,149 302,137 287,137 "/>
      <polygon class="fil7" points="287,137 303,137 303,134 287,134 "/>
      <polygon class="fil26" points="288,134 302,134 303,134 287,134 "/>
      <polygon class="fil26" points="289,119 301,119 302,120 287,120 "/>
      <polygon class="fil26" points="289,105 300,105 302,106 288,106 "/>
      <g>
       <g>
        <polygon class="fil7" points="289,139 291,139 291,147 289,147 "/>
        <polygon class="fil7" points="298,139 300,139 300,147 298,147 "/>
       </g>
       <polygon class="fil7" points="294,139 296,139 296,147 294,147 "/>
      </g>
      <g>
       <g>
        <polygon class="fil7" points="290,124 292,124 292,131 290,131 "/>
        <polygon class="fil7" points="298,124 300,124 300,131 298,131 "/>
       </g>
       <polygon class="fil7" points="294,124 296,124 296,131 294,131 "/>
      </g>
      <g>
       <polygon class="fil7" points="291,117 293,117 293,110 291,110 "/>
       <polygon class="fil7" points="296,117 298,117 298,110 296,110 "/>
      </g>
      <path class="fil4" d="M295 96c2,0 3,2 3,3 0,2 -1,3 -3,3 -2,0 -3,-1 -3,-3 0,-1 1,-3 3,-3zm0 1c1,0 3,1 3,2 0,2 -2,3 -3,3 -2,0 -3,-1 -3,-3 0,-1 1,-2 3,-2z"/>
      <path class="fil7" d="M295 97c-2,0 -3,1 -3,2 0,2 1,3 3,3 1,0 3,-1 3,-3 0,-1 -2,-2 -3,-2z"/>
      <g>
       <polygon class="fil4" points="295,99 295,99 294,97 295,97 295,97 295,99 295,99 "/>
       <path class="fil4" d="M295 99c0,0 0,0 0,0 0,0 0,0 0,0 0,0 0,0 0,0 0,0 0,0 0,0z"/>
      </g>
      <g>
       <polygon class="fil4" points="295,99 295,100 294,101 293,101 293,100 295,99 295,99 "/>
       <path class="fil4" d="M295 99c0,0 0,0 0,0 0,0 0,0 0,0 0,0 0,0 0,0 0,0 0,0 0,0z"/>
      </g>
      <g>
       <path class="fil7" d="M295 83c3,0 7,-1 8,-3 0,0 -2,5 -1,8 -2,-1 -5,-3 -7,-5z"/>
       <path class="fil7" d="M294 83c-2,0 -6,-1 -7,-3 0,0 2,5 1,8 2,-1 5,-3 6,-5z"/>
      </g>
      <path class="fil5" d="M295 90c-3,0 -7,0 -10,0 4,-4 10,-10 10,-19 0,9 6,15 10,19 -3,0 -7,0 -10,0z"/>
      <path class="fil9" d="M295 90c-2,0 -5,0 -7,0 3,-3 7,-7 7,-14 0,7 4,11 7,14 -2,0 -5,0 -7,0z"/>
      <polygon class="fil7" points="288,92 301,92 301,94 288,94 "/>
      <polygon class="fil5" points="288,92 295,92 301,92 299,91 295,91 291,91 "/>
      <polygon class="fil26" points="291,92 299,92 299,90 291,90 "/>
      <polygon class="fil5" points="285,151 295,151 305,151 307,162 295,162 283,162 "/>
      <polygon class="fil7" points="285,151 286,151 284,162 283,162 "/>
      <polygon class="fil7" points="284,149 305,149 305,151 284,151 "/>
      <polygon class="fil7" points="305,151 304,151 306,162 307,162 "/>
      <polygon class="fil7" points="290,151 295,151 300,151 301,154 303,162 295,162 287,162 288,154 "/>
      <path class="fil5" d="M293 153l2 0 1 0c3,0 4,2 4,5l1 4 -6 0 -6 0 0 -4c1,-3 2,-5 4,-5z"/>
      <path class="fil7" d="M292 162l6 0 0 -5c0,-1 -2,-3 -3,-3l0 0c-2,0 -3,2 -3,3l0 5z"/>
      <polygon class="fil7" points="284,162 288,162 288,161 284,161 "/>
      <polygon class="fil7" points="284,160 288,160 288,159 284,159 "/>
      <polygon class="fil7" points="284,158 288,158 288,157 284,157 "/>
      <polygon class="fil7" points="284,156 289,156 289,155 284,155 "/>
      <polygon class="fil7" points="306,160 302,160 302,159 306,159 "/>
      <polygon class="fil7" points="306,158 302,158 302,157 306,157 "/>
      <polygon class="fil7" points="305,156 301,156 301,155 305,155 "/>
      <polygon class="fil7" points="306,162 302,162 302,161 306,161 "/>
     </g>
    </g>
   </g>
  </g>
 </g>
</svg>
