<?xml version="1.0" encoding="UTF-8"?>
<!DOCTYPE svg PUBLIC "-//W3C//DTD SVG 1.1//EN" "http://www.w3.org/Graphics/SVG/1.1/DTD/svg11.dtd">
<!-- Creator: CorelDRAW X7 -->
<svg xmlns="http://www.w3.org/2000/svg" xml:space="preserve" width="1500px" height="1500px" version="1.1" style="shape-rendering:geometricPrecision; text-rendering:geometricPrecision; image-rendering:optimizeQuality; fill-rule:evenodd; clip-rule:evenodd"
viewBox="0 0 1500 1500"
 xmlns:xlink="http://www.w3.org/1999/xlink">
 <defs>
  <style type="text/css">
   <![CDATA[
    .fil0 {fill:none}
    .fil17 {fill:#FDFDFE}
    .fil27 {fill:black}
    .fil13 {fill:black}
    .fil16 {fill:#006FA6}
    .fil2 {fill:#0077B3}
    .fil3 {fill:#0081C2}
    .fil1 {fill:#008FD7}
    .fil9 {fill:#0B1930}
    .fil8 {fill:#0E2242}
    .fil11 {fill:#1A1A1A}
    .fil28 {fill:#2B2B2B}
    .fil20 {fill:#333333}
    .fil18 {fill:#666666}
    .fil19 {fill:#999999}
    .fil15 {fill:#B3B3B3}
    .fil14 {fill:#CCCCCC}
    .fil22 {fill:#E6E6E6}
    .fil7 {fill:#F0BC95}
    .fil5 {fill:#F0BC95}
    .fil6 {fill:#FFE1BD}
    .fil4 {fill:#FFE1BD}
    .fil12 {fill:white}
    .fil25 {fill:#0081C2;fill-rule:nonzero}
    .fil24 {fill:#008FD6;fill-rule:nonzero}
    .fil23 {fill:#00A0F0;fill-rule:nonzero}
    .fil10 {fill:#0E2242;fill-rule:nonzero}
    .fil26 {fill:red;fill-rule:nonzero}
    .fil29 {fill:#E6E6E6;fill-opacity:0.501961}
    .fil21 {fill:#E6E6E6}
   ]]>
  </style>
     <clipPath id="id0">
      <path d="M477 989c-24,27 -16,4 -33,30 -16,26 -97,247 -113,286 -4,11 -7,46 26,53 75,18 246,-23 411,-22 162,0 318,43 401,24 41,-10 34,-43 30,-55 -15,-39 -97,-260 -113,-286 -17,-26 -9,-3 -33,-30 -138,-158 -440,-155 -576,0z"/>
     </clipPath>
     <clipPath id="id1">
      <path d="M987 621c29,2 47,27 42,56 -8,39 -47,40 -37,80 3,14 -26,30 -36,24 -31,-20 -35,-77 -29,-109 5,-29 32,-52 60,-51z"/>
     </clipPath>
     <clipPath id="id2">
      <path d="M543 621c-28,2 -47,27 -41,56 7,39 46,40 36,80 -3,14 26,30 36,24 31,-20 36,-77 30,-109 -6,-29 -33,-52 -61,-51z"/>
     </clipPath>
     <clipPath id="id3">
      <path d="M899 508c0,0 15,29 37,47 23,18 27,110 27,176 0,0 84,-144 15,-269 0,0 68,-123 16,-211 0,0 -88,70 -114,49 0,0 28,-20 26,-37 -100,67 -363,-38 -386,202 -17,192 49,267 49,267 0,0 -21,-159 13,-177 46,-44 29,-51 59,-37 29,15 152,58 258,-10z"/>
     </clipPath>
      <clipPath id="id4">
       <path d="M113 388c0,0 5,-29 -4,-43 -8,-13 131,-66 137,-77 67,-57 88,-28 82,16 -6,46 -68,120 -102,158 -33,37 -33,61 -56,58 -23,-2 -75,-25 -94,-53 -19,-28 28,-9 46,-37 8,-13 9,-21 6,-20 -3,2 -6,4 -15,-2z"/>
      </clipPath>
      <clipPath id="id5">
       <path d="M221 532c0,0 23,-22 25,-38 2,-16 149,32 161,27 91,-3 90,34 56,66 -35,33 -133,53 -185,61 -52,9 -66,28 -84,11 -17,-16 -44,-70 -41,-104 3,-35 28,11 61,-1 15,-5 21,-10 18,-11 -4,-1 -8,-1 -11,-11z"/>
      </clipPath>
 </defs>
 <g id="Layer_x0020_1">
  <metadata id="CorelCorpID_0Corel-Layer"/>
  <rect class="fil0" width="1500" height="1500"/>
  <g id="_1767228800272">
   <rect class="fil0" width="1500" height="1500"/>
   <g>
    <path class="fil1" d="M477 989c-24,27 -16,4 -33,30 -16,26 -97,247 -113,286 -4,11 -7,46 26,53 75,18 246,-23 411,-22 162,0 318,43 401,24 41,-10 34,-43 30,-55 -15,-39 -97,-260 -113,-286 -17,-26 -9,-3 -33,-30 -138,-158 -440,-155 -576,0z"/>
    <g style="clip-path:url(#id0)">
     <g>
      <path id="1" class="fil2" d="M1126 1241c25,2 42,2 85,65 42,64 -76,66 -77,66 0,0 -150,-85 -8,-131z"/>
      <path class="fil2" d="M404 1241c0,0 -26,-7 -84,65 -59,73 76,66 76,66 0,0 150,-85 8,-131z"/>
      <path class="fil3" d="M591 882c0,0 40,11 62,42 23,31 29,73 45,78 46,12 132,2 137,0 6,-3 24,-38 40,-78 16,-39 78,-45 74,-47 -3,-2 -185,-67 -312,-4 0,0 -28,-30 -46,9z"/>
     </g>
    </g>
    <path class="fil0" d="M477 989c-24,27 -16,4 -33,30 -16,26 -97,247 -113,286 -4,11 -7,46 26,53 75,18 246,-23 411,-22 162,0 318,43 401,24 41,-10 34,-43 30,-55 -15,-39 -97,-260 -113,-286 -17,-26 -9,-3 -33,-30 -138,-158 -440,-155 -576,0z"/>
    <path class="fil4" d="M987 621c29,2 47,27 42,56 -8,39 -47,40 -37,80 3,14 -26,30 -36,24 -31,-20 -35,-77 -29,-109 5,-29 32,-52 60,-51z"/>
    <g style="clip-path:url(#id1)">
     <g>
      <path id="1" class="fil5" d="M1034 692c0,0 -6,-56 -35,-54 -29,2 -53,26 -55,57 -2,31 27,52 35,43 7,-9 22,16 34,14 12,-2 22,-61 21,-60z"/>
     </g>
    </g>
    <path class="fil0" d="M987 621c29,2 47,27 42,56 -8,39 -47,40 -37,80 3,14 -26,30 -36,24 -31,-20 -35,-77 -29,-109 5,-29 32,-52 60,-51z"/>
    <path class="fil4" d="M543 621c-28,2 -47,27 -41,56 7,39 46,40 36,80 -3,14 26,30 36,24 31,-20 36,-77 30,-109 -6,-29 -33,-52 -61,-51z"/>
    <g style="clip-path:url(#id2)">
     <g>
      <path id="1" class="fil5" d="M497 692c0,0 5,-56 34,-54 29,2 53,26 55,57 3,31 -27,52 -34,43 -8,-9 -23,16 -35,14 -12,-2 -21,-61 -20,-60z"/>
     </g>
    </g>
    <path class="fil0" d="M543 621c-28,2 -47,27 -41,56 7,39 46,40 36,80 -3,14 26,30 36,24 31,-20 36,-77 30,-109 -6,-29 -33,-52 -61,-51z"/>
    <path class="fil5" d="M765 806l0 0c44,0 80,36 80,80l0 60c0,44 -69,80 -80,80 -12,0 -80,-36 -80,-80l0 -60c0,-44 36,-80 80,-80z"/>
    <path class="fil6" d="M765 943c-102,0 -175,-97 -185,-109 -8,-10 -18,-177 -18,-209 0,-122 91,-221 203,-221 112,0 203,99 203,221 0,32 -10,199 -18,209 -10,12 -82,109 -185,109z"/>
    <path class="fil7" d="M720 858c0,0 26,18 90,4 0,0 -49,39 -90,-4z"/>
    <path class="fil7" d="M765 788c0,0 26,1 37,-12 0,0 3,-3 -37,-3 -39,0 -36,3 -36,3 11,13 36,12 36,12z"/>
    <path class="fil8" d="M899 508c0,0 15,29 37,47 23,18 27,110 27,176 0,0 84,-144 15,-269 0,0 68,-123 16,-211 0,0 -88,70 -114,49 0,0 28,-20 26,-37 -100,67 -363,-38 -386,202 -17,192 49,267 49,267 0,0 -21,-159 13,-177 46,-44 29,-51 59,-37 29,15 152,58 258,-10z"/>
    <g style="clip-path:url(#id3)">
     <g>
      <path id="1" class="fil9" d="M587 317c0,0 -71,155 -25,166 46,11 42,24 72,32 29,9 -25,70 -25,70 0,0 -3,186 -40,164 -38,-22 -90,-127 -69,-186 21,-58 -43,-87 -5,-125 38,-39 -14,-63 92,-121z"/>
      <path class="fil9" d="M897 511l2 -2c0,0 34,-11 79,-47 44,-36 56,119 45,148 -11,28 -34,153 -66,140 -31,-14 -27,-171 -60,-239z"/>
      <path class="fil9" d="M993 240c0,0 3,3 1,11 -2,9 -77,148 -132,73 0,0 -12,-14 18,-24 31,-10 113,-61 113,-60z"/>
     </g>
    </g>
    <path class="fil0" d="M899 508c0,0 15,29 37,47 23,18 27,110 27,176 0,0 84,-144 15,-269 0,0 68,-123 16,-211 0,0 -88,70 -114,49 0,0 28,-20 26,-37 -100,67 -363,-38 -386,202 -17,192 49,267 49,267 0,0 -21,-159 13,-177 46,-44 29,-51 59,-37 29,15 152,58 258,-10z"/>
    <path class="fil0" d="M603 637c0,0 43,-70 107,-21"/>
    <path class="fil10" d="M606 639c-2,3 -4,6 -7,4 -3,-2 -2,-5 0,-8 -2,0 39,-76 114,-22 3,2 5,4 3,7 -3,3 -5,2 -7,0 -59,-40 -99,14 -103,19z"/>
    <path class="fil10" d="M924 639c2,3 4,6 7,4 3,-2 3,-5 1,-8 1,0 -40,-76 -115,-22 -3,2 -5,4 -2,7 2,3 4,2 7,0 58,-40 98,14 102,19z"/>
    <g>
     <ellipse class="fil11" cx="676" cy="701" rx="20" ry="24"/>
     <ellipse class="fil12" cx="683" cy="689" rx="7" ry="8"/>
    </g>
    <g>
     <ellipse class="fil11" cx="854" cy="701" rx="20" ry="24"/>
     <ellipse class="fil12" cx="862" cy="689" rx="7" ry="8"/>
    </g>
    <path class="fil13" d="M862 793c-1,1 0,4 2,8 -17,18 -46,43 -95,45 -50,1 -80,-23 -97,-39 3,-4 4,-7 3,-8 -1,-1 -4,2 -7,6 -3,4 -4,8 -3,8 0,1 2,0 5,-4 7,6 30,43 98,41 69,-2 91,-40 98,-47 3,4 5,5 6,4 0,0 -1,-4 -4,-8 -2,-4 -5,-6 -6,-6z"/>
    <path class="fil4" d="M908 1297c0,0 174,-63 220,-56 47,7 111,96 28,122 -84,26 -232,-8 -232,-8 0,0 -117,32 -141,19 -23,-14 -17,-36 -17,-36l49 -69c0,0 16,-11 34,0 19,12 59,29 59,28z"/>
    <path class="fil4" d="M622 1297c0,0 -174,-63 -220,-56 -46,7 -111,96 -27,122 83,26 231,-8 231,-8 0,0 117,32 141,19 24,-14 17,-36 17,-36l-48 -69c0,0 -16,-11 -35,0 -18,12 -59,29 -59,28z"/>
    <path class="fil14" d="M465 1406l602 0 27 -398c2,-16 -13,-29 -29,-29l-599 0c-16,0 -30,13 -29,29l28 398z"/>
    <rect class="fil15" x="459" y="1374" width="613.038" height="32.4095" rx="4" ry="5"/>
    <rect class="fil16" x="709" y="1136" width="112" height="112" rx="14" ry="14"/>
    <path class="fil17" d="M781 1165c13,0 25,6 33,16l-7 4 -8 5c-5,-5 -11,-8 -18,-8 -13,0 -25,11 -25,25 0,13 12,25 25,25 7,0 13,-3 18,-8l8 5 7 4c-8,9 -20,16 -33,16 -23,0 -42,-19 -42,-42 0,-23 19,-42 42,-42z"/>
    <g>
     <path class="fil18" d="M1349 265l-81 -84c-3,-3 -14,-2 -14,-2l-135 205c-2,3 -2,8 1,11l75 86c1,1 12,5 17,-2l137 -203c3,-3 2,-8 0,-11z"/>
     <rect class="fil14" transform="matrix(-0.0203214 -0.0211157 -0.0160754 0.0237352 1344.49 270.43)" width="4475" height="9050" rx="250" ry="250"/>
    </g>
    <g>
     <path class="fil19" d="M1323 311l-1 -1c0,0 -1,0 -2,1l-6 9c0,0 0,1 1,1l0 0c0,0 1,0 2,-1l6 -9c0,0 0,0 0,0z"/>
     <rect class="fil15" transform="matrix(-0.0217991 -0.00416731 -0.0114318 0.016879 1323.9 310.638)" width="113" height="644" rx="56" ry="56"/>
    </g>
    <g>
     <path class="fil19" d="M1311 328l-1 0c0,0 -1,0 -2,1l-6 9c0,0 0,1 1,1l0 0c0,0 1,0 2,-1l6 -9c0,0 0,-1 0,-1z"/>
     <rect class="fil15" transform="matrix(-0.0217991 -0.00416731 -0.0114318 0.016879 1311.77 328.549)" width="113" height="644" rx="56" ry="56"/>
    </g>
    <rect class="fil11" transform="matrix(-0.0194013 -0.0197255 -0.0129533 0.0191253 1330.25 282.872)" width="4475" height="9050" rx="182" ry="182"/>
    <circle class="fil11" transform="matrix(-0.00208932 -0.0142501 -0.0123518 0.00599834 1160.31 421.596)" r="550"/>
    <circle class="fil11" transform="matrix(-0.000382934 -0.00214718 -0.00184155 0.000965737 1285.31 225.574)" r="550"/>
    <rect class="fil11" transform="matrix(-0.00308975 -0.00323634 -5.73287E-005 9.05509E-005 1302.09 242.442)" width="4475" height="9050" rx="2238" ry="2238"/>
    <g>
     <path class="fil20" d="M113 388c0,0 5,-29 -4,-43 -8,-13 131,-66 137,-77 67,-57 88,-28 82,16 -6,46 -68,120 -102,158 -33,37 -33,61 -56,58 -23,-2 -75,-25 -94,-53 -19,-28 28,-9 46,-37 8,-13 9,-21 6,-20 -3,2 -6,4 -15,-2z"/>
     <g style="clip-path:url(#id4)">
      <g>
       <path id="1" class="fil21" d="M161 500c0,0 12,-3 23,-18 11,-15 32,-46 49,-61 37,-32 101,-130 88,-168 -3,-5 -5,-9 -7,-12 -8,-12 -15,-14 -22,-21 -10,-11 38,18 42,37 3,20 -18,88 -37,114 -18,27 -87,92 -95,109 -9,17 -21,26 -41,20z"/>
       <path class="fil11" d="M80 423c-1,1 -12,13 -2,14 10,1 42,6 56,-22 14,-28 -6,-26 -6,-24 0,8 -17,-4 -20,-2 -3,2 -28,33 -28,34z"/>
      </g>
     </g>
     <path class="fil0" d="M113 388c0,0 5,-29 -4,-43 -8,-13 131,-66 137,-77 67,-57 88,-28 82,16 -6,46 -68,120 -102,158 -33,37 -33,61 -56,58 -23,-2 -75,-25 -94,-53 -19,-28 28,-9 46,-37 8,-13 9,-21 6,-20 -3,2 -6,4 -15,-2z"/>
     <path class="fil14" d="M99 470c0,0 8,0 24,-21 0,0 3,-3 6,1 4,4 10,10 9,13 -1,4 -12,17 -19,19 -7,1 -20,-9 -20,-12z"/>
     <path class="fil22" d="M170 353c0,0 -15,-33 -20,-36 -5,-3 6,-10 10,-5 4,4 22,30 21,35 -2,5 -1,10 -11,6z"/>
     <path class="fil22" d="M187 342c0,0 -14,-31 -18,-34 -5,-2 5,-9 9,-4 4,4 20,28 19,32 -1,5 -1,9 -10,6z"/>
     <path class="fil22" d="M204 327c0,0 -12,-26 -16,-28 -4,-2 5,-8 9,-4 3,3 17,23 15,27 -1,4 0,8 -8,5z"/>
     <path class="fil22" d="M227 316c0,0 -15,-25 -19,-26 -4,-2 4,-9 8,-5 3,3 20,21 19,25 0,4 0,7 -8,6z"/>
     <path class="fil22" d="M242 304c0,0 -13,-22 -17,-23 -3,-1 4,-7 7,-4 3,2 17,18 17,21 -1,4 0,7 -7,6z"/>
     <path class="fil14" d="M188 362l28 55c0,0 13,-5 13,-12 0,-6 -27,-49 -28,-55 -1,-6 -12,13 -13,12z"/>
     <path class="fil14" d="M232 402c0,0 12,-4 14,-8 1,-4 1,-66 4,-69 2,-3 -14,5 -15,12 -1,7 -1,61 -3,65z"/>
    </g>
    <g>
     <path class="fil20" d="M221 532c0,0 23,-22 25,-38 2,-16 149,32 161,27 91,-3 90,34 56,66 -35,33 -133,53 -185,61 -52,9 -66,28 -84,11 -17,-16 -44,-70 -41,-104 3,-35 28,11 61,-1 15,-5 21,-10 18,-11 -4,-1 -8,-1 -11,-11z"/>
     <g style="clip-path:url(#id5)">
      <g>
       <path id="1" class="fil21" d="M187 653c0,0 12,6 31,1 18,-5 55,-17 79,-18 51,-2 166,-40 180,-79 1,-6 2,-10 2,-14 2,-15 -3,-21 -4,-31 -1,-15 20,39 10,57 -10,18 -72,59 -104,69 -32,10 -130,17 -148,25 -18,8 -34,8 -46,-10z"/>
       <path class="fil11" d="M172 538c-2,0 -18,3 -11,10 7,7 30,32 60,19 29,-14 11,-25 10,-24 -5,7 -11,-14 -15,-15 -3,0 -44,9 -44,10z"/>
      </g>
     </g>
     <path class="fil0" d="M221 532c0,0 23,-22 25,-38 2,-16 149,32 161,27 91,-3 90,34 56,66 -35,33 -133,53 -185,61 -52,9 -66,28 -84,11 -17,-16 -44,-70 -41,-104 3,-35 28,11 61,-1 15,-5 21,-10 18,-11 -4,-1 -8,-1 -11,-11z"/>
     <path class="fil14" d="M157 588c0,0 6,6 33,-1 0,0 4,-1 4,5 1,5 2,15 -2,16 -3,2 -20,6 -27,3 -7,-3 -10,-20 -8,-23z"/>
     <path class="fil22" d="M290 540c0,0 10,-37 7,-42 -2,-6 12,-4 12,2 0,7 -2,39 -6,42 -5,3 -7,7 -13,-2z"/>
     <path class="fil22" d="M311 542c0,0 9,-34 7,-39 -2,-5 11,-4 11,2 0,6 -2,36 -6,39 -4,3 -6,6 -12,-2z"/>
     <path class="fil22" d="M334 541c0,0 8,-29 6,-33 -2,-4 9,-3 9,2 1,5 -1,30 -5,33 -3,2 -5,5 -10,-2z"/>
     <path class="fil22" d="M361 547c0,0 3,-29 1,-33 -2,-5 9,-5 10,0 1,5 2,31 -1,34 -3,2 -5,6 -10,-1z"/>
     <path class="fil22" d="M381 547c0,0 3,-26 1,-29 -2,-4 7,-4 8,0 1,5 2,27 -1,29 -2,2 -4,5 -8,0z"/>
     <path class="fil14" d="M299 560l-14 61c0,0 14,5 18,0 5,-6 11,-57 14,-63 3,-6 -18,2 -18,2z"/>
     <path class="fil14" d="M308 620c0,0 13,5 17,2 3,-2 44,-52 48,-53 4,-1 -15,-5 -20,0 -5,5 -40,49 -45,51z"/>
    </g>
    <path class="fil23" d="M1082 961c-5,0 -9,-4 -9,-9 0,-5 4,-9 9,-9 33,-1 54,15 64,46 1,5 -2,10 -6,11 -5,2 -10,-1 -11,-5 -8,-23 -23,-35 -47,-34z"/>
    <path class="fil24" d="M1084 925c-5,0 -9,-5 -9,-10 0,-5 4,-9 10,-9 23,1 43,7 59,19 15,12 27,28 36,50 1,5 -1,10 -6,12 -5,2 -10,0 -12,-5 -7,-18 -17,-32 -30,-42 -12,-9 -29,-14 -48,-15z"/>
    <path class="fil25" d="M1085 891c-5,0 -9,-4 -9,-9 0,-5 4,-9 9,-9 32,0 58,8 79,23 22,16 37,39 47,68 2,5 -1,11 -5,12 -5,2 -10,-1 -12,-6 -9,-26 -22,-46 -40,-59 -18,-13 -41,-20 -69,-20z"/>
    <path class="fil26" d="M540 347c-4,-9 -4,-16 3,-24 7,-9 19,-10 27,-4 14,12 14,39 15,67 -27,4 -54,7 -68,-5 -8,-6 -8,-18 -1,-27 7,-8 14,-9 24,-7z"/>
    <path class="fil26" d="M485 195c9,-21 18,-33 40,-36 25,-3 47,12 50,34 5,39 -33,84 -72,130 -50,-34 -100,-67 -105,-106 -3,-22 14,-42 39,-46 22,-3 34,6 48,24z"/>
    <path class="fil26" d="M532 430c2,-6 4,-9 9,-10 6,-1 12,2 13,7 3,10 -6,22 -14,34 -13,-7 -26,-14 -28,-24 -2,-5 2,-10 8,-12 5,-1 9,1 12,5z"/>
    <path class="fil26" d="M947 275c3,-11 7,-18 18,-20 12,-4 24,2 26,13 6,20 -11,45 -28,70 -27,-14 -53,-27 -59,-47 -2,-10 5,-22 17,-25 11,-3 18,1 26,9z"/>
    <path class="fil26" d="M1087 151c20,-14 36,-18 58,-7 25,12 35,40 24,61 -19,39 -83,56 -146,73 -25,-61 -49,-122 -29,-161 11,-22 39,-29 63,-17 22,11 28,26 30,51z"/>
    <path class="fil26" d="M989 371c5,-4 9,-6 14,-3 7,2 10,8 8,14 -4,10 -19,16 -35,21 -7,-14 -14,-29 -10,-39 2,-5 8,-8 15,-5 5,2 7,6 8,12z"/>
    <path class="fil27" d="M1251 689c-39,-14 -25,67 -74,60 0,0 -55,-20 -78,-28 -23,-8 -3,-69 -3,-77 2,-20 -20,-6 -11,-32 3,-6 15,-3 15,-3 0,0 106,38 117,42 10,4 8,8 13,11 3,3 50,20 54,20 6,0 7,-4 18,-1 10,4 117,42 117,42 0,0 11,5 9,11 -9,26 -17,2 -28,18 -5,7 -29,66 -51,58 -23,-8 -78,-28 -78,-28 -43,-25 20,-79 -20,-93z"/>
    <g>
     <path class="fil28" d="M1108 634c-9,12 -17,62 -11,75 1,3 2,3 4,4 21,8 65,27 79,28 16,2 52,-61 36,-73 -17,-11 -78,-32 -100,-34 -3,-1 -7,0 -8,0z"/>
     <path class="fil28" d="M1396 737c0,15 -25,59 -38,65 -3,1 -4,1 -6,1 -21,-8 -67,-21 -79,-29 -13,-8 -1,-80 19,-79 20,2 80,25 99,36 2,2 5,5 5,6z"/>
    </g>
    <path class="fil29" d="M1387 750c-8,17 5,-11 -9,-20 -4,-2 18,1 9,20z"/>
    <path class="fil29" d="M1212 687c-8,17 4,-11 -9,-19 -4,-2 18,0 9,19z"/>
   </g>
  </g>
 </g>
</svg>
