<?xml version="1.0" encoding="UTF-8"?>
<!DOCTYPE svg PUBLIC "-//W3C//DTD SVG 1.1//EN" "http://www.w3.org/Graphics/SVG/1.1/DTD/svg11.dtd">
<!-- Creator: CorelDRAW X7 -->
<svg xmlns="http://www.w3.org/2000/svg" xml:space="preserve" width="1500px" height="1500px" version="1.1" style="shape-rendering:geometricPrecision; text-rendering:geometricPrecision; image-rendering:optimizeQuality; fill-rule:evenodd; clip-rule:evenodd"
viewBox="0 0 1500 1500"
 xmlns:xlink="http://www.w3.org/1999/xlink">
 <defs>
  <style type="text/css">
   <![CDATA[
    .fil0 {fill:none}
    .fil14 {fill:black}
    .fil2 {fill:#0077B3}
    .fil3 {fill:#0081C2}
    .fil4 {fill:#0081C2}
    .fil1 {fill:#008FD7}
    .fil10 {fill:#0B1930}
    .fil9 {fill:#0E2242}
    .fil12 {fill:#1A1A1A}
    .fil20 {fill:#25D366}
    .fil21 {fill:#25D366}
    .fil24 {fill:#333333}
    .fil16 {fill:#424242}
    .fil15 {fill:#4D4D4D}
    .fil25 {fill:#666666}
    .fil26 {fill:#E6E6E6}
    .fil8 {fill:#F0BC95}
    .fil6 {fill:#F0BC95}
    .fil19 {fill:#F34A38}
    .fil7 {fill:#FFE1BD}
    .fil5 {fill:#FFE1BD}
    .fil23 {fill:white}
    .fil13 {fill:white}
    .fil18 {fill:#88ACDA;fill-rule:nonzero}
    .fil22 {fill:#495894;fill-rule:nonzero}
    .fil11 {fill:#0E2242;fill-rule:nonzero}
    .fil17 {fill:white;fill-rule:nonzero}
   ]]>
  </style>
     <clipPath id="id0">
      <path d="M492 979c-24,28 -17,5 -33,31 -17,27 -100,252 -116,292 -4,11 -7,47 27,55 76,17 250,-24 419,-23 165,0 326,44 410,24 42,-10 35,-43 30,-56 -15,-40 -99,-265 -115,-292 -17,-26 -9,-3 -34,-31 -141,-161 -449,-158 -588,0z"/>
     </clipPath>
     <clipPath id="id1">
      <path d="M1013 604c29,1 48,27 42,57 -7,40 -47,40 -37,82 3,13 -26,30 -37,23 -31,-19 -36,-78 -30,-110 6,-30 34,-54 62,-52z"/>
     </clipPath>
     <clipPath id="id2">
      <path d="M559 604c-29,1 -47,27 -42,57 7,40 47,40 37,82 -3,13 27,30 37,23 32,-19 36,-78 30,-110 -5,-30 -33,-54 -62,-52z"/>
     </clipPath>
     <clipPath id="id3">
      <path d="M923 488c0,0 15,30 38,48 23,18 28,112 28,180 0,0 85,-148 14,-275 0,0 70,-126 17,-215 0,0 -90,71 -116,50 0,0 28,-21 26,-38 -102,68 -371,-39 -394,206 -18,197 50,273 50,273 0,0 -22,-163 13,-181 47,-45 30,-52 60,-37 30,14 155,58 264,-11z"/>
     </clipPath>
     <clipPath id="id4">
      <path d="M731 1345l112 0 5 -196c0,-8 2,-15 -5,-15l-112 0c-7,0 -6,7 -6,15l6 196z"/>
     </clipPath>
     <clipPath id="id5">
      <path d="M906 1330c0,0 192,70 244,63 51,-8 122,-106 30,-135 -93,-29 -257,9 -257,9 0,0 -129,-36 -155,-21 -26,15 -20,39 -20,39l54 77c0,0 18,12 38,-1 21,-13 66,-31 66,-31z"/>
     </clipPath>
     <clipPath id="id6">
      <path d="M668 1330c0,0 -193,70 -244,63 -51,-8 -123,-106 -30,-135 92,-29 256,9 256,9 0,0 130,-36 156,-21 26,15 19,39 19,39l-54 77c0,0 -18,12 -38,-1 -20,-13 -65,-31 -65,-31z"/>
     </clipPath>
 </defs>
 <g id="Layer_x0020_1">
  <metadata id="CorelCorpID_0Corel-Layer"/>
  <rect class="fil0" width="1500" height="1500"/>
  <g id="_1730963156064">
   <rect class="fil0" width="1500" height="1500"/>
   <g>
    <path class="fil1" d="M492 979c-24,28 -17,5 -33,31 -17,27 -100,252 -116,292 -4,11 -7,47 27,55 76,17 250,-24 419,-23 165,0 326,44 410,24 42,-10 35,-43 30,-56 -15,-40 -99,-265 -115,-292 -17,-26 -9,-3 -34,-31 -141,-161 -449,-158 -588,0z"/>
    <g style="clip-path:url(#id0)">
     <g>
      <path id="1" class="fil2" d="M1163 1257c25,1 42,2 86,58 43,56 -78,58 -78,58 0,0 -154,-76 -8,-116z"/>
      <path class="fil3" d="M607 889c0,0 39,10 62,41 23,31 54,65 66,77 57,53 98,3 106,-4 9,-7 33,-36 47,-77 14,-41 82,-41 79,-43 -4,-2 -187,-67 -314,-4 0,0 -28,-30 -46,10z"/>
      <path class="fil2" d="M399 1258c0,0 -26,-7 -86,67 -60,74 78,67 78,67 0,0 154,-87 8,-134z"/>
      <path class="fil4" d="M1014 1427c0,0 24,-290 28,-338 3,-48 -4,0 -10,11 -5,11 -18,128 -49,145 -31,18 35,37 -13,67 -47,30 -90,130 -39,133 52,3 85,-19 83,-18z"/>
      <path class="fil4" d="M554 1427c0,0 -24,-290 -27,-338 -4,-48 3,0 9,11 6,11 18,128 49,145 31,18 -34,37 13,67 47,30 91,130 39,133 -52,3 -85,-19 -83,-18z"/>
     </g>
    </g>
    <path class="fil0" d="M492 979c-24,28 -17,5 -33,31 -17,27 -100,252 -116,292 -4,11 -7,47 27,55 76,17 250,-24 419,-23 165,0 326,44 410,24 42,-10 35,-43 30,-56 -15,-40 -99,-265 -115,-292 -17,-26 -9,-3 -34,-31 -141,-161 -449,-158 -588,0z"/>
    <path class="fil5" d="M1013 604c29,1 48,27 42,57 -7,40 -47,40 -37,82 3,13 -26,30 -37,23 -31,-19 -36,-78 -30,-110 6,-30 34,-54 62,-52z"/>
    <g style="clip-path:url(#id1)">
     <g>
      <path id="1" class="fil6" d="M1061 676c0,0 -6,-57 -36,-55 -30,2 -53,26 -56,58 -2,31 28,53 35,44 8,-9 23,16 36,14 12,-1 22,-62 21,-61z"/>
     </g>
    </g>
    <path class="fil0" d="M1013 604c29,1 48,27 42,57 -7,40 -47,40 -37,82 3,13 -26,30 -37,23 -31,-19 -36,-78 -30,-110 6,-30 34,-54 62,-52z"/>
    <path class="fil5" d="M559 604c-29,1 -47,27 -42,57 7,40 47,40 37,82 -3,13 27,30 37,23 32,-19 36,-78 30,-110 -5,-30 -33,-54 -62,-52z"/>
    <g style="clip-path:url(#id2)">
     <g>
      <path id="1" class="fil6" d="M512 676c0,0 6,-57 35,-55 30,2 54,26 56,58 3,31 -27,53 -35,44 -7,-9 -23,16 -35,14 -13,-1 -22,-62 -21,-61z"/>
     </g>
    </g>
    <path class="fil0" d="M559 604c-29,1 -47,27 -42,57 7,40 47,40 37,82 -3,13 27,30 37,23 32,-19 36,-78 30,-110 -5,-30 -33,-54 -62,-52z"/>
    <path class="fil6" d="M786 793l0 0c45,0 82,36 82,81l0 62c0,44 -46,81 -82,81 -36,0 -81,-37 -81,-81l0 -62c0,-45 37,-81 81,-81z"/>
    <path class="fil7" d="M786 932c-104,0 -179,-99 -189,-111 -8,-11 -18,-180 -18,-213 0,-125 93,-227 207,-227 115,0 208,102 208,227 0,33 -10,202 -19,213 -10,12 -84,111 -189,111z"/>
    <path class="fil8" d="M741 846c0,0 26,18 91,4 0,0 -50,39 -91,-4z"/>
    <path class="fil8" d="M786 774c0,0 26,2 38,-12 0,0 3,-3 -38,-3 -40,0 -37,3 -37,3 11,14 37,12 37,12z"/>
    <path class="fil9" d="M923 488c0,0 15,30 38,48 23,18 28,112 28,180 0,0 85,-148 14,-275 0,0 70,-126 17,-215 0,0 -90,71 -116,50 0,0 28,-21 26,-38 -102,68 -371,-39 -394,206 -18,197 50,273 50,273 0,0 -22,-163 13,-181 47,-45 30,-52 60,-37 30,14 155,58 264,-11z"/>
    <g style="clip-path:url(#id3)">
     <g>
      <path id="1" class="fil10" d="M604 293c0,0 -72,158 -25,170 47,11 43,24 73,33 30,8 -25,71 -25,71 0,0 -3,189 -41,167 -39,-23 -92,-130 -71,-189 22,-60 -43,-89 -4,-129 38,-39 -15,-64 93,-123z"/>
      <path class="fil10" d="M921 491l2 -2c0,0 35,-11 80,-48 46,-37 58,121 47,151 -11,29 -35,157 -67,143 -33,-14 -28,-174 -62,-244z"/>
      <path class="fil10" d="M1019 214c0,0 4,3 1,12 -2,9 -79,151 -135,74 0,0 -12,-14 19,-24 31,-10 115,-62 115,-62z"/>
     </g>
    </g>
    <path class="fil0" d="M923 488c0,0 15,30 38,48 23,18 28,112 28,180 0,0 85,-148 14,-275 0,0 70,-126 17,-215 0,0 -90,71 -116,50 0,0 28,-21 26,-38 -102,68 -371,-39 -394,206 -18,197 50,273 50,273 0,0 -22,-163 13,-181 47,-45 30,-52 60,-37 30,14 155,58 264,-11z"/>
    <path class="fil0" d="M620 620c0,0 44,-72 110,-21"/>
    <path class="fil11" d="M624 622c-2,3 -4,6 -7,4 -3,-2 -3,-5 -1,-8 -2,0 40,-78 117,-23 3,2 5,5 3,8 -3,3 -5,2 -8,-1 -59,-41 -100,15 -104,20z"/>
    <path class="fil11" d="M949 622c2,3 4,6 7,4 3,-2 2,-5 0,-8 2,0 -40,-78 -117,-23 -3,2 -4,5 -2,8 2,3 4,2 7,-1 60,-41 101,15 105,20z"/>
    <g>
     <ellipse class="fil12" cx="695" cy="689" rx="21" ry="25"/>
     <ellipse class="fil13" cx="702" cy="677" rx="7" ry="8"/>
    </g>
    <g>
     <ellipse class="fil12" cx="878" cy="689" rx="21" ry="25"/>
     <ellipse class="fil13" cx="885" cy="677" rx="7" ry="8"/>
    </g>
    <path class="fil14" d="M885 780c-1,0 0,4 3,7 -18,19 -48,45 -98,46 -51,1 -81,-23 -99,-40 3,-4 4,-7 3,-8 -1,-1 -4,2 -7,6 -3,4 -4,8 -3,9 0,1 2,-1 5,-4 7,6 30,44 101,42 70,-2 92,-41 99,-48 3,3 5,5 6,4 1,-1 0,-5 -3,-9 -3,-4 -6,-6 -7,-5z"/>
    <path class="fil15" d="M731 1345l112 0 5 -196c0,-8 2,-15 -5,-15l-112 0c-7,0 -6,7 -6,15l6 196z"/>
    <g style="clip-path:url(#id4)">
     <g>
      <path id="1" class="fil16" d="M725 1152c0,0 -1,-12 7,-12 6,0 105,0 107,0 6,0 9,6 9,11 1,-4 3,-21 3,-21l-133 0 7 22z"/>
     </g>
    </g>
    <path class="fil0" d="M731 1345l112 0 5 -196c0,-8 2,-15 -5,-15l-112 0c-7,0 -6,7 -6,15l6 196z"/>
    <path class="fil17" d="M841 1122c-3,0 -5,-2 -5,-4 0,-2 2,-4 4,-4 16,-1 25,7 30,21 1,2 -1,5 -3,5 -2,1 -4,0 -5,-2 -3,-11 -10,-16 -21,-16z"/>
    <path class="fil17" d="M842 1105c-3,0 -5,-2 -5,-4 0,-3 2,-4 5,-4 11,0 20,3 27,8 7,6 13,14 17,23 1,3 -1,5 -3,6 -2,1 -5,0 -6,-2 -3,-9 -7,-15 -13,-19 -6,-5 -13,-7 -22,-8z"/>
    <path class="fil17" d="M842 1090c-2,0 -4,-2 -4,-5 0,-2 2,-4 4,-4 15,0 27,4 37,11 9,7 17,18 21,32 1,2 0,4 -2,5 -3,1 -5,0 -6,-3 -4,-12 -10,-21 -18,-27 -9,-6 -19,-9 -32,-9z"/>
    <path class="fil5" d="M906 1330c0,0 192,70 244,63 51,-8 122,-106 30,-135 -93,-29 -257,9 -257,9 0,0 -129,-36 -155,-21 -26,15 -20,39 -20,39l54 77c0,0 18,12 38,-1 21,-13 66,-31 66,-31z"/>
    <g style="clip-path:url(#id5)">
     <g>
      <path id="1" class="fil6" d="M367 1356c0,0 48,24 76,21 74,-8 217,-64 230,-45 13,20 -181,83 -258,68 -77,-16 -50,-46 -48,-44z"/>
      <path class="fil6" d="M1206 1356c0,0 -47,24 -76,21 -74,-8 -217,-64 -230,-45 -13,20 181,83 258,68 77,-16 50,-46 48,-44z"/>
     </g>
    </g>
    <path class="fil0" d="M906 1330c0,0 192,70 244,63 51,-8 122,-106 30,-135 -93,-29 -257,9 -257,9 0,0 -129,-36 -155,-21 -26,15 -20,39 -20,39l54 77c0,0 18,12 38,-1 21,-13 66,-31 66,-31z"/>
    <path class="fil5" d="M668 1330c0,0 -193,70 -244,63 -51,-8 -123,-106 -30,-135 92,-29 256,9 256,9 0,0 130,-36 156,-21 26,15 19,39 19,39l-54 77c0,0 -18,12 -38,-1 -20,-13 -65,-31 -65,-31z"/>
    <g style="clip-path:url(#id6)">
     <g>
      <path id="1" class="fil6" d="M367 1356c0,0 48,24 76,21 74,-8 217,-64 230,-45 13,20 -181,83 -258,68 -77,-16 -50,-46 -48,-44z"/>
      <path class="fil6" d="M1206 1356c0,0 -47,24 -76,21 -74,-8 -217,-64 -230,-45 -13,20 181,83 258,68 77,-16 50,-46 48,-44z"/>
     </g>
    </g>
    <path class="fil0" d="M668 1330c0,0 -193,70 -244,63 -51,-8 -123,-106 -30,-135 92,-29 256,9 256,9 0,0 130,-36 156,-21 26,15 19,39 19,39l-54 77c0,0 -18,12 -38,-1 -20,-13 -65,-31 -65,-31z"/>
    <path class="fil18" d="M1194 219c-3,2 -5,3 -7,4 2,-3 3,-7 4,-11l0 0c0,-1 -1,-1 -2,-1l0 0c-3,3 -6,5 -10,7 0,0 -1,0 -1,0 0,1 -1,1 -2,0 -5,-3 -10,-3 -16,-2l0 0c-2,0 -4,1 -6,2 -7,4 -11,11 -12,19 0,3 1,6 2,8 0,1 0,1 0,1 0,0 -1,0 -1,0 0,0 0,0 0,0 -16,2 -32,-2 -45,-12l0 0c0,-1 -1,0 -2,0l0 0c-1,4 -1,8 0,12 1,6 5,11 10,15 -2,0 -4,-1 -6,-1l0 0c0,-1 -1,0 -1,1l0 0c2,9 9,16 17,18 0,0 0,0 0,0 -1,0 -3,0 -4,0l0 0c-1,0 -1,1 -1,2l0 0c4,7 13,12 21,11 -6,6 -13,11 -21,12l-3 1c-1,0 -1,1 -1,2 0,0 0,1 1,1 10,4 22,4 32,2 10,-2 18,-6 25,-11 7,-5 12,-12 16,-19 4,-7 7,-14 8,-22 1,-8 1,-15 -1,-22l0 -1c0,-1 0,-2 1,-3 2,-4 5,-7 6,-12l0 0c0,0 0,0 0,0l0 0c0,-1 -1,-2 -1,-1l0 0z"/>
    <path class="fil18" d="M1281 356c-3,1 -6,2 -9,3 4,-3 6,-7 8,-12l0 0c0,-1 -1,-2 -2,-1l0 0c-5,2 -9,4 -14,5 -1,0 -1,0 -1,0 -1,0 -2,0 -3,-1 -5,-5 -11,-7 -18,-8l0 0c-3,0 -6,1 -9,1 -10,3 -17,10 -19,20 -1,3 -2,7 -1,10 0,1 -1,1 -1,1 0,0 0,0 0,0 -1,0 -1,0 -1,0 -20,-2 -38,-12 -50,-28l0 0c-1,-1 -2,-1 -3,0l0 0c-2,4 -4,9 -4,14 0,8 3,15 8,20 -2,0 -4,-1 -6,-2l0 0c-1,-1 -3,0 -3,1l0 0c0,11 6,22 16,27 0,0 0,0 0,0 -2,0 -4,-1 -5,-1l0 0c-1,0 -2,1 -2,2l0 0c3,10 12,18 22,20 -9,5 -19,8 -30,8l-3 0c-1,0 -2,0 -2,1 0,1 0,2 1,3 12,7 25,11 39,12 12,0 23,-2 34,-6 9,-4 18,-10 25,-18 6,-7 12,-16 15,-25 4,-9 6,-18 6,-27l0 -1c0,-1 1,-2 2,-3 5,-4 9,-8 12,-12l0 0c0,-1 0,-1 0,-1l0 0c0,-1 -1,-2 -2,-2l0 0z"/>
    <path class="fil18" d="M1318 239c-1,0 -3,1 -4,1 2,-2 3,-4 4,-6l0 0c0,0 -1,-1 -1,-1l0 0c-3,1 -5,2 -7,3 -1,0 -1,0 -1,0 0,0 -1,0 -1,-1 -2,-2 -6,-3 -9,-3l0 0c-2,0 -3,0 -5,0 -4,2 -8,5 -9,10 -1,2 -1,3 -1,5 0,0 0,0 0,0 0,0 0,1 0,1 0,0 0,0 0,0 -10,-2 -19,-7 -25,-15l0 0c-1,0 -1,0 -1,0l0 0c-2,2 -2,5 -3,7 0,4 2,8 4,10 -1,0 -2,0 -3,-1l0 0c0,0 -1,0 -1,1l0 0c0,5 3,11 8,13 0,0 0,0 0,0 -1,0 -2,0 -3,0l0 0c0,0 -1,0 -1,1l0 0c2,5 6,9 11,10 -4,2 -9,4 -14,4l-2 -1c-1,0 -1,1 -1,1 0,1 0,1 0,1 6,4 13,6 20,6 6,0 11,-1 16,-3 5,-2 9,-5 13,-8 3,-4 6,-8 8,-13 1,-4 2,-9 2,-13l0 0c0,-1 1,-2 1,-2 3,-2 5,-4 6,-6l0 0c0,0 0,-1 0,-1l0 0c0,0 0,-1 -1,0l0 0z"/>
    <circle class="fil19" transform="matrix(0.0612498 -0.0200951 0.0200951 0.0612498 401.998 183.029)" r="1184"/>
    <g>
     <path class="fil17" d="M387 196l18 -6c0,10 -6,19 -16,23 -12,3 -26,-3 -30,-15 -5,-13 2,-27 15,-31 6,-2 12,-1 17,1 1,1 3,0 3,-1l5 -9c1,-1 0,-2 -1,-3 -9,-4 -18,-5 -28,-2 -20,6 -32,28 -25,49 6,20 28,31 48,24 20,-6 31,-27 26,-46 0,0 -3,-9 -3,-9l-33 11c-2,1 -2,2 -2,4l3 9c1,1 2,2 3,1z"/>
     <path class="fil17" d="M447 162l-3 -9c-1,-1 -2,-1 -3,-1l-8 2c-1,1 -1,2 -1,3l3 9 -9 3c-1,0 -2,2 -1,3l2 7c0,1 2,2 3,2l9 -3 3 9c0,1 1,1 2,1l8 -2c1,-1 2,-2 1,-3l-3 -9 9 -3c1,0 2,-2 2,-3l-3 -7c0,-1 -1,-2 -3,-2l-8 3 0 0z"/>
    </g>
    <circle class="fil19" transform="matrix(0.0343567 -0.0112719 0.0112719 0.0343567 496.133 306.394)" r="1184"/>
    <g>
     <path class="fil17" d="M488 314l10 -4c0,6 -4,11 -9,13 -7,2 -15,-1 -17,-8 -3,-7 1,-15 8,-18 4,-1 7,0 10,1 1,0 2,0 2,-1l2 -4c1,-1 1,-2 0,-2 -5,-3 -10,-3 -16,-2 -11,4 -18,16 -14,28 4,11 16,17 27,14 11,-4 17,-15 14,-26 0,-1 -1,-5 -1,-5l-19 6c0,0 -1,1 -1,2l2 5c0,1 1,1 2,1z"/>
     <path class="fil17" d="M521 295l-2 -5c0,-1 0,-1 -1,-1l-4 1c-1,1 -1,1 -1,2l2 5 -5 2c-1,0 -1,0 -1,1l1 4c0,1 1,1 2,1l5 -2 1 5c1,1 1,1 2,1l4 -1c1,0 1,-1 1,-2l-2 -5 5 -1c1,-1 1,-1 1,-2l-1 -4c-1,-1 -1,-1 -2,-1l-5 2 0 0z"/>
    </g>
    <path class="fil20" d="M1193 743c23,10 34,36 25,60 -10,23 -36,34 -59,25 -9,-4 -16,-10 -21,-18l-15 -1c0,-1 5,-8 9,-13 -3,-9 -2,-19 2,-28 9,-23 36,-34 59,-25z"/>
    <g>
     <path class="fil17" d="M1192 823c-10,4 -21,4 -31,0 -6,-2 -11,-6 -15,-11l-3 -3 -16 -2 9 -14 0 -4c-1,-6 0,-13 3,-19 4,-10 12,-18 22,-22 10,-4 21,-4 31,0 10,4 18,12 22,22 4,10 4,21 0,31 -4,10 -12,18 -22,22zm5 -85l-2 -1c0,0 -1,0 -1,0 -26,-9 -55,4 -66,29 -3,8 -4,16 -3,24l-15 22c-1,2 -1,3 0,3l0 0c1,1 1,1 1,1l26 4c5,5 12,10 19,13 26,11 56,-1 68,-26 11,-27 -1,-58 -27,-69z"/>
     <path class="fil17" d="M1195 805l-8 -6c-1,-1 -2,-1 -4,0l-3 1c-1,0 -3,0 -4,-1 -4,-3 -9,-15 -10,-20 0,-2 0,-3 2,-4l3 -2c1,-1 2,-2 2,-3l-1 -11c0,-2 -2,-4 -5,-3 -3,1 -8,3 -9,7 -4,6 -4,15 2,29 8,17 17,22 24,23 4,1 8,-1 11,-4 2,-1 2,-4 0,-6z"/>
    </g>
    <path class="fil21" d="M1124 625c20,0 36,15 36,35 1,20 -15,36 -35,36 -7,0 -14,-2 -20,-6l-11 3c0,0 1,-6 2,-11 -4,-6 -7,-13 -7,-21 0,-19 16,-36 35,-36z"/>
    <g>
     <path class="fil17" d="M1148 683c-6,6 -14,9 -22,9 -5,0 -10,-1 -14,-3l-3 -1 -13 3 3 -13 -2 -3c-2,-4 -3,-9 -3,-14 -1,-8 3,-16 9,-23 5,-6 13,-9 22,-9 8,0 16,3 22,9 6,6 10,14 10,22 0,8 -3,17 -9,23zm-23 -63l-1 0c0,0 -1,0 -1,0 -22,2 -39,20 -38,41 0,7 2,13 4,18l-3 21c-1,1 0,2 1,2l0 0c0,0 0,0 0,0l21 -5c5,3 11,4 17,4 22,0 40,-18 41,-40 0,-23 -18,-41 -41,-41z"/>
     <path class="fil17" d="M1145 669l-8 -2c-1,0 -2,0 -3,1l-2 2c0,0 -2,1 -3,0 -3,-1 -11,-8 -13,-11 -1,-1 -1,-3 0,-3l1 -3c1,-1 1,-2 1,-3l-4 -7c0,-2 -3,-2 -4,-1 -2,2 -5,5 -5,8 -1,5 2,12 11,20 10,10 18,11 24,10 3,-1 5,-4 7,-7 1,-1 0,-3 -2,-4z"/>
    </g>
    <path class="fil21" d="M1278 629c27,11 39,41 29,68 -11,27 -42,40 -69,29 -10,-4 -18,-11 -24,-20l-17 -2c1,-1 6,-8 10,-15 -2,-10 -2,-21 3,-31 11,-27 41,-40 68,-29z"/>
    <g>
     <path class="fil17" d="M1277 721c-12,4 -24,4 -36,0 -7,-3 -13,-7 -17,-13l-3 -3 -19 -3 11 -16 -1 -5c0,-7 1,-14 4,-21 4,-12 13,-21 25,-25 11,-5 24,-5 35,-1 12,5 21,14 26,26 5,11 5,24 0,35 -5,12 -14,21 -25,26zm5 -98l-2 -1c0,0 -1,0 -1,-1 -30,-10 -64,5 -75,34 -4,9 -5,19 -5,28l-17 26c-1,1 0,2 1,3l0 0c0,0 0,0 0,0l31 5c6,6 13,12 21,15 30,13 65,-1 78,-30 14,-31 0,-66 -31,-79z"/>
     <path class="fil17" d="M1281 700l-10 -7c-1,-1 -3,-1 -4,-1l-4 2c-1,1 -3,0 -4,-1 -5,-4 -11,-18 -12,-24 0,-1 0,-3 2,-4l3 -2c2,-1 3,-2 2,-4l0 -12c0,-2 -3,-4 -6,-4 -4,2 -9,4 -11,8 -4,7 -4,18 3,34 9,19 19,26 27,27 5,0 10,-2 13,-5 3,-1 3,-5 1,-7z"/>
    </g>
    <rect class="fil13" transform="matrix(0.0337031 -0.00424702 0.00274733 0.021802 233.954 417.279)" width="3050" height="7825"/>
    <path class="fil22" d="M338 389l-135 17c-14,2 -24,14 -22,28l17 136c2,14 14,23 28,22l67 -9 -8 -66 -17 2c-3,0 -5,-1 -5,-4l-3 -21c0,-2 1,-4 4,-5l17 -2 -3 -20c-3,-24 10,-39 32,-42l17 -2c3,0 5,1 5,3l2 18c0,3 -1,5 -3,5l-11 1c-12,2 -13,8 -12,16l2 18 25 -4c3,0 5,2 5,4l0 22c0,2 -1,4 -3,4l-23 3 8 67 40 -6c14,-1 23,-14 22,-28l-17 -135c-2,-14 -15,-24 -29,-22z"/>
    <rect class="fil13" transform="matrix(0.0134451 -0.00444235 0.00287369 0.00869745 464.716 741.673)" width="3050" height="7825"/>
    <path class="fil22" d="M505 722l-54 18c-5,1 -8,7 -7,13l18 54c2,5 8,8 13,7l27 -9 -9 -27 -6 3c-1,0 -2,-1 -3,-2l-2 -8c-1,-1 0,-2 1,-2l7 -2 -3 -9c-3,-9 1,-16 9,-19l7 -3c1,0 2,1 2,2l3 7c0,1 0,2 -1,2l-5 1c-4,2 -4,4 -3,8l2 7 10 -4c1,0 2,1 3,2l1 9c0,0 0,1 -1,1l-9 3 9 27 16 -5c5,-2 8,-8 6,-14l-18 -54c-1,-5 -7,-8 -13,-6z"/>
    <rect class="fil13" transform="matrix(0.0209275 -0.00966168 0.00624999 0.0135377 337.12 637.232)" width="3050" height="7825"/>
    <path class="fil22" d="M399 597l-84 39c-9,4 -13,14 -9,23l39 84c4,9 14,13 23,9l41 -20 -19 -41 -10 5c-2,1 -3,0 -4,-1l-6 -13c-1,-2 0,-4 1,-4l11 -5 -6 -13c-7,-15 -2,-27 12,-33l11 -5c1,-1 3,0 3,1l5 11c1,2 0,3 -1,4l-7 3c-7,3 -7,7 -4,12l5 12 16 -8c1,0 3,0 4,2l4 14c1,1 0,3 -1,3l-15 7 19 41 25 -11c9,-4 12,-14 8,-23l-38 -84c-4,-9 -15,-13 -23,-9z"/>
    <path class="fil18" d="M1276 149c-2,1 -3,1 -4,2 1,-2 2,-3 3,-5l0 0c0,-1 -1,-1 -1,-1l0 0c-2,1 -4,2 -6,3 0,0 0,0 0,0 -1,0 -1,0 -1,0 -3,-2 -6,-3 -9,-2l0 0c-1,0 -2,0 -3,1 -4,1 -7,5 -7,9 0,2 0,3 0,4 0,1 0,1 0,1 0,0 0,0 0,0 0,0 0,0 0,0 -9,0 -17,-3 -23,-9l0 0c0,0 -1,0 -1,0l0 0c-1,2 -1,4 -1,6 0,4 2,7 5,9 -1,-1 -2,-1 -3,-1l0 0c-1,0 -1,0 -1,0l0 0c0,5 4,9 8,11 0,0 0,0 0,0 -1,0 -1,0 -2,0l0 0c-1,0 -1,0 -1,1l0 0c2,4 6,6 11,7 -4,2 -8,4 -12,5l-2 0c0,0 0,0 0,1 0,0 0,1 0,1 5,2 11,3 17,2 5,0 10,-2 14,-4 3,-3 7,-6 9,-9 2,-4 4,-8 5,-12 1,-4 1,-8 1,-11l0 -1c0,0 0,-1 0,-1 2,-2 3,-4 5,-6l0 0c0,0 0,0 0,0l0 0c0,-1 -1,-1 -1,-1l0 0z"/>
    <path class="fil23" d="M781 1198c2,0 4,0 6,0 2,0 4,0 6,0 2,0 4,2 4,4 0,2 0,4 0,6 0,2 -1,4 -1,6 0,2 -2,4 -4,4 0,0 -1,0 -1,0 1,0 3,-1 4,-2 -1,-1 -1,-1 -1,-1 -1,0 -1,-1 -2,-1 0,1 -1,1 -3,1 -1,0 -4,-1 -4,-4 0,-2 3,-4 4,-4 2,0 3,0 4,1 0,0 0,-1 1,-1 0,0 1,0 1,-1 0,-1 -1,-1 -2,-2 -1,0 -2,-1 -4,-1 -1,0 -3,1 -5,3 -1,1 -2,3 -2,5 0,2 1,4 2,5 1,1 2,2 4,2 -1,0 -2,0 -3,0 -2,0 -3,0 -4,0 -2,0 -4,-2 -4,-4 0,-2 0,-4 0,-6 0,-2 0,-4 0,-6 -1,-2 1,-4 4,-4z"/>
    <g>
     <path class="fil24" d="M740 1153c3,0 7,0 10,0 4,0 7,0 11,0 1,0 2,1 3,2 1,1 1,2 1,4 0,0 0,0 0,0 0,1 -1,3 -1,3 -1,1 -2,2 -4,2 -3,0 -6,0 -10,0 -3,0 -6,0 -10,0 -1,0 -2,-1 -3,-2 -1,0 -1,-2 -1,-3 0,0 0,0 0,0 0,-2 0,-3 1,-4 1,-1 2,-2 3,-2z"/>
     <g>
      <g>
       <path class="fil12" d="M743 1155c1,0 3,0 3,1 1,1 1,2 1,3 0,1 0,2 -1,3 -1,1 -2,1 -3,1 -1,0 -2,0 -3,-1 0,-1 -1,-2 -1,-3 0,-1 0,-2 1,-3 1,-1 2,-1 3,-1z"/>
       <path class="fil14" d="M743 1155c1,0 2,1 3,1 1,1 1,2 1,3 0,1 -1,2 -1,3 -1,0 -2,0 -3,0 -1,0 -2,0 -2,0 -1,-1 -1,-2 -1,-3 0,-1 0,-2 1,-3 0,0 1,-1 2,-1z"/>
      </g>
      <g>
       <path class="fil25" d="M759 1156c1,0 1,0 2,1 1,0 1,1 1,2 0,1 -1,2 -1,2 -1,1 -2,1 -2,1 -1,0 -2,0 -3,-1 0,0 -1,-1 -1,-2 0,-1 1,-2 1,-2 1,-1 2,-1 3,-1z"/>
       <path class="fil26" d="M759 1156c0,0 1,0 2,1 0,1 0,1 0,2 0,1 0,2 -1,2 0,0 -1,1 -1,1 -1,0 -2,-1 -2,-1 -1,0 -1,-1 -1,-2 0,-1 0,-1 0,-2 1,-1 2,-1 3,-1z"/>
      </g>
     </g>
    </g>
   </g>
  </g>
 </g>
</svg>
