<?xml version="1.0" encoding="UTF-8"?>
<!DOCTYPE svg PUBLIC "-//W3C//DTD SVG 1.1//EN" "http://www.w3.org/Graphics/SVG/1.1/DTD/svg11.dtd">
<!-- Creator: CorelDRAW X7 -->
<svg xmlns="http://www.w3.org/2000/svg" xml:space="preserve" width="1500px" height="1500px" version="1.1" style="shape-rendering:geometricPrecision; text-rendering:geometricPrecision; image-rendering:optimizeQuality; fill-rule:evenodd; clip-rule:evenodd"
viewBox="0 0 1500 1500"
 xmlns:xlink="http://www.w3.org/1999/xlink">
 <defs>
  <style type="text/css">
   <![CDATA[
    .str0 {stroke:black;stroke-width:4.50004;stroke-opacity:0.188235}
    .fil0 {fill:none}
    .fil25 {fill:none;fill-rule:nonzero}
    .fil29 {fill:#FDFDFE}
    .fil28 {fill:#006FA6}
    .fil33 {fill:#006FA6}
    .fil8 {fill:#0077B3}
    .fil3 {fill:#0081C2}
    .fil2 {fill:#0081C2}
    .fil1 {fill:#008FD7}
    .fil9 {fill:#048BC9}
    .fil4 {fill:#0E2242}
    .fil20 {fill:#1A1A1A}
    .fil38 {fill:#2CB5F5}
    .fil11 {fill:#333333}
    .fil13 {fill:#4D4D4D}
    .fil30 {fill:#575757}
    .fil24 {fill:#5C5C5C}
    .fil12 {fill:#666666}
    .fil32 {fill:#6E6E6E}
    .fil31 {fill:gray}
    .fil22 {fill:#8B4439}
    .fil27 {fill:#999999}
    .fil26 {fill:#B3B3B3}
    .fil37 {fill:#C4E7F2}
    .fil39 {fill:#E6E6E6}
    .fil17 {fill:#F0BC95}
    .fil7 {fill:#F0BC95}
    .fil6 {fill:#F9B700}
    .fil16 {fill:#FCCEAB}
    .fil5 {fill:#FFCC00}
    .fil15 {fill:#FFE1BD}
    .fil18 {fill:#FFE1BD}
    .fil40 {fill:#FFEE00}
    .fil21 {fill:white}
    .fil14 {fill:black;fill-rule:nonzero}
    .fil35 {fill:#008FD6;fill-rule:nonzero}
    .fil36 {fill:#0092DB;fill-rule:nonzero}
    .fil34 {fill:#00A0F0;fill-rule:nonzero}
    .fil19 {fill:#0E2242;fill-rule:nonzero}
    .fil23 {fill:#666666;fill-rule:nonzero}
    .fil10 {fill:black;fill-opacity:0.188235}
   ]]>
  </style>
     <clipPath id="id0">
      <path d="M231 983c-32,9 -39,23 -54,47 -15,25 -90,228 -104,264 -4,10 -7,42 24,49 68,16 222,-21 372,-21 150,0 304,37 372,21 31,-7 28,-39 24,-49 -14,-36 -90,-239 -104,-264 -15,-24 -22,-38 -54,-47 -38,-12 -135,-27 -238,-29 -103,2 -200,17 -238,29z"/>
     </clipPath>
     <clipPath id="id1">
      <path d="M692 679c-20,-2 -38,21 -42,52 -4,32 9,59 28,61 20,3 39,-21 42,-52 4,-32 -9,-59 -28,-61z"/>
     </clipPath>
     <clipPath id="id2">
      <path d="M675 635c-25,-3 -50,39 -57,93 -6,54 9,100 34,103 24,2 50,-39 56,-93 6,-54 -9,-100 -33,-103z"/>
     </clipPath>
     <clipPath id="id3">
      <path d="M652 614c-33,-4 -66,46 -74,111 -7,65 13,120 47,124 33,4 66,-45 74,-110 7,-65 -13,-121 -47,-125z"/>
     </clipPath>
     <clipPath id="id4">
      <path d="M511 960c-188,0 -217,-145 -217,-293 0,-112 84,-204 187,-204 103,0 187,92 187,204 0,114 3,247 -157,293z"/>
     </clipPath>
     <clipPath id="id5">
      <path d="M544 1247c0,0 182,1 239,-13 57,-14 109,124 14,135 -63,7 -164,-28 -227,-54 -32,-13 -54,-23 -54,-23 -57,-1 -40,-21 -78,-2 -39,19 -64,-22 -56,-29l53 -48c6,-6 17,-6 44,4 28,9 64,31 65,30z"/>
     </clipPath>
     <clipPath id="id6">
      <path d="M395 1287c0,0 -196,-46 -244,-55 -47,-9 -118,109 -26,135 93,26 254,-17 254,-17 0,0 130,32 155,17 26,-16 18,-40 18,-40l-56 -74c0,0 -17,-12 -37,1 -20,14 -64,33 -64,33z"/>
     </clipPath>
     <clipPath id="id7">
      <path d="M497 896c-42,-2 -77,-34 -77,-56 0,-22 49,-6 91,-5 43,2 63,-10 63,12 0,22 -34,51 -77,49z"/>
     </clipPath>
     <clipPath id="id8" style="clip-rule:nonzero">
      <path d="M244 648c0,-1 5,-259 190,-276l-15 5c-125,33 -122,292 -122,293l-53 -22z"/>
     </clipPath>
     <clipPath id="id9">
      <path d="M826 625l435 91c0,0 0,0 1,1 30,158 5,327 -68,503 0,0 0,0 0,0l-453 37 85 -632z"/>
     </clipPath>
     <clipPath id="id10">
      <path d="M1112 971l0 0c14,0 24,12 26,26l52 313c3,15 -13,16 -187,53 18,-2 5,-41 5,-288 0,-57 47,-104 104,-104z"/>
     </clipPath>
     <clipPath id="id11">
      <path d="M1060 436l204 -67c4,-2 8,1 9,5l22 108c1,4 -2,9 -6,10l-204 67c-4,1 -9,-1 -9,-6l-22 -107c-1,-4 2,-9 6,-10z"/>
     </clipPath>
     <clipPath id="id12">
      <path d="M865 392l172 -107c4,-2 8,-1 10,3l44 94c2,4 1,9 -3,11l-172 107c-4,2 -8,1 -10,-3l-44 -94c-2,-3 0,-8 3,-11z"/>
     </clipPath>
     <clipPath id="id13">
      <path d="M1094 216l194 -91c4,-1 9,0 10,5l34 104c2,4 0,9 -4,11l-195 91c-4,2 -8,0 -9,-4l-35 -105c-1,-4 1,-9 5,-11z"/>
     </clipPath>
     <clipPath id="id14">
      <path d="M264 623c33,-4 66,45 74,110 8,65 -13,120 -46,124 -33,4 -66,-45 -74,-110 -8,-65 13,-120 46,-124z"/>
     </clipPath>
     <clipPath id="id15">
      <path d="M242 644c25,-3 50,38 56,92 7,54 -8,100 -33,103 -25,3 -50,-39 -56,-93 -7,-53 8,-99 33,-102z"/>
     </clipPath>
     <clipPath id="id16">
      <path d="M225 687c19,-2 38,21 42,53 3,31 -10,58 -29,61 -19,2 -38,-22 -42,-53 -4,-31 9,-59 29,-61z"/>
     </clipPath>
 </defs>
 <g id="Layer_x0020_1">
  <metadata id="CorelCorpID_0Corel-Layer"/>
  <rect class="fil0" width="1500" height="1500"/>
  <g id="_1730968632832">
   <rect class="fil0" width="1500" height="1500"/>
   <g>
    <path class="fil1" d="M231 983c-32,9 -39,23 -54,47 -15,25 -90,228 -104,264 -4,10 -7,42 24,49 68,16 222,-21 372,-21 150,0 304,37 372,21 31,-7 28,-39 24,-49 -14,-36 -90,-239 -104,-264 -15,-24 -22,-38 -54,-47 -38,-12 -135,-27 -238,-29 -103,2 -200,17 -238,29z"/>
    <g style="clip-path:url(#id0)">
     <g>
      <path id="1" class="fil2" d="M273 1117c0,0 -30,148 6,166 35,19 168,20 213,15 44,-5 71,-7 113,6 42,14 88,21 93,-18 4,-39 -3,-182 -3,-182 0,0 20,193 50,190 30,-2 -16,45 -41,41 -26,-3 -54,16 -98,16 -43,0 -126,0 -168,-3 -42,-3 -216,-2 -220,-3 -5,-1 10,-56 55,-228z"/>
      <path class="fil2" d="M376 972c0,0 -14,81 -16,92 -3,11 98,-30 108,-27 10,3 92,26 104,32 12,7 -12,-104 -37,-116 -26,-12 -94,-60 -159,19z"/>
      <path class="fil3" d="M248 976c0,0 111,-7 136,11 25,18 169,0 169,0 0,0 41,-17 109,-16 0,0 -28,-66 -78,-62 -50,3 -226,-60 -336,67z"/>
     </g>
    </g>
    <path class="fil0" d="M231 983c-32,9 -39,23 -54,47 -15,25 -90,228 -104,264 -4,10 -7,42 24,49 68,16 222,-21 372,-21 150,0 304,37 372,21 31,-7 28,-39 24,-49 -14,-36 -90,-239 -104,-264 -15,-24 -22,-38 -54,-47 -38,-12 -135,-27 -238,-29 -103,2 -200,17 -238,29z"/>
    <path class="fil4" d="M280 801c0,0 30,90 81,94 50,4 -12,-125 -12,-125 0,0 -36,-61 -69,31z"/>
    <polygon class="fil5" points="462,1061 477,1061 512,1354 426,1354 "/>
    <path class="fil6" d="M443 1036c1,20 9,39 27,40 17,-1 26,-20 26,-40l-53 0z"/>
    <path class="fil7" d="M462 834l0 0c40,0 73,33 73,73l0 56c0,40 -49,73 -65,73 -22,0 -81,-33 -81,-73l0 -56c0,-40 33,-73 73,-73z"/>
    <path class="fil8" d="M534 945c0,0 17,8 23,19 5,11 33,94 33,94 0,0 -50,-11 -120,-22 0,0 54,-36 64,-91z"/>
    <path class="fil9" d="M692 679c-20,-2 -38,21 -42,52 -4,32 9,59 28,61 20,3 39,-21 42,-52 4,-32 -9,-59 -28,-61z"/>
    <g style="clip-path:url(#id1)">
     <g>
      <path id="1" class="fil10 str0" d="M621 745c0,0 47,32 77,-1 0,0 21,22 32,2 0,0 30,45 41,4 0,0 19,37 -1,80 -21,44 -92,61 -105,37 -13,-24 -59,-69 -44,-122z"/>
     </g>
    </g>
    <path class="fil0" d="M692 679c-20,-2 -38,21 -42,52 -4,32 9,59 28,61 20,3 39,-21 42,-52 4,-32 -9,-59 -28,-61z"/>
    <path class="fil11" d="M675 635c-25,-3 -50,39 -57,93 -6,54 9,100 34,103 24,2 50,-39 56,-93 6,-54 -9,-100 -33,-103z"/>
    <g style="clip-path:url(#id2)">
     <g>
      <path id="1" class="fil10 str0" d="M621 745c0,0 47,32 77,-1 0,0 21,22 32,2 0,0 30,45 41,4 0,0 19,37 -1,80 -21,44 -92,61 -105,37 -13,-24 -59,-69 -44,-122z"/>
     </g>
    </g>
    <path class="fil0" d="M675 635c-25,-3 -50,39 -57,93 -6,54 9,100 34,103 24,2 50,-39 56,-93 6,-54 -9,-100 -33,-103z"/>
    <path class="fil12" d="M645 491c0,0 52,36 43,155 0,0 -1,14 -1,16 -1,1 -65,-85 -65,-85 0,0 23,-86 23,-86z"/>
    <path class="fil13" d="M652 614c-33,-4 -66,46 -74,111 -7,65 13,120 47,124 33,4 66,-45 74,-110 7,-65 -13,-121 -47,-125z"/>
    <g style="clip-path:url(#id3)">
     <g>
      <path id="1" class="fil10 str0" d="M621 745c0,0 47,32 77,-1 0,0 21,22 32,2 0,0 30,45 41,4 0,0 19,37 -1,80 -21,44 -92,61 -105,37 -13,-24 -59,-69 -44,-122z"/>
     </g>
    </g>
    <path class="fil0" d="M652 614c-33,-4 -66,46 -74,111 -7,65 13,120 47,124 33,4 66,-45 74,-110 7,-65 -13,-121 -47,-125z"/>
    <path class="fil14" d="M641 817c0,1 64,75 17,80l-88 8 -1 -12 88 -8c24,-3 -25,-60 -25,-60l9 -8z"/>
    <path class="fil15" d="M511 960c-188,0 -217,-145 -217,-293 0,-112 84,-204 187,-204 103,0 187,92 187,204 0,114 3,247 -157,293z"/>
    <g style="clip-path:url(#id4)">
     <g>
      <path id="1" class="fil16" d="M337 765c0,0 11,32 4,49 -8,17 20,96 47,115 26,19 -82,6 -92,-14 -10,-19 -14,-153 41,-150z"/>
     </g>
    </g>
    <path class="fil0" d="M511 960c-188,0 -217,-145 -217,-293 0,-112 84,-204 187,-204 103,0 187,92 187,204 0,114 3,247 -157,293z"/>
    <path class="fil0" d="M636 821c0,0 57,66 21,70l-88 8"/>
    <path class="fil14" d="M652 832c16,22 40,61 6,65l-88 8 -1 -12 88 -8c14,-2 2,-23 -10,-40 2,-3 3,-6 4,-10 1,-1 1,-2 1,-3z"/>
    <path class="fil17" d="M465 897c0,0 19,17 66,4 0,0 -37,36 -66,-4z"/>
    <path class="fil17" d="M516 816c0,0 20,1 29,-14 0,0 2,-3 -29,-3 -32,0 -30,3 -30,3 9,15 30,14 30,14z"/>
    <path class="fil4" d="M613 560c0,0 14,26 35,43 20,16 17,101 17,162 0,0 35,-123 -1,-246 0,0 75,-103 40,-189 0,0 -88,54 -112,35 0,0 19,-29 18,-45 -92,62 -387,27 -367,269 -17,177 57,177 57,177 0,0 3,-147 34,-164 43,-40 27,-47 54,-33 28,13 127,53 225,-9z"/>
    <path class="fil0" d="M358 677c0,0 36,-65 91,-20"/>
    <path class="fil18" d="M544 1247c0,0 182,1 239,-13 57,-14 109,124 14,135 -63,7 -164,-28 -227,-54 -32,-13 -54,-23 -54,-23 -57,-1 -40,-21 -78,-2 -39,19 -64,-22 -56,-29l53 -48c6,-6 17,-6 44,4 28,9 64,31 65,30z"/>
    <g style="clip-path:url(#id5)">
     <g>
      <path id="1" class="fil16" d="M467 1267c0,0 23,-21 33,-16 10,6 32,41 46,46 13,5 140,58 173,60 33,3 76,19 104,12 29,-8 -22,36 -174,-6 -152,-41 -182,-96 -182,-96z"/>
     </g>
    </g>
    <path class="fil0" d="M544 1247c0,0 182,1 239,-13 57,-14 109,124 14,135 -63,7 -164,-28 -227,-54 -32,-13 -54,-23 -54,-23 -57,-1 -40,-21 -78,-2 -39,19 -64,-22 -56,-29l53 -48c6,-6 17,-6 44,4 28,9 64,31 65,30z"/>
    <path class="fil19" d="M361 678c-1,3 -3,6 -5,4 -3,-2 -3,-5 -1,-7 -2,-1 35,-70 102,-21 3,2 4,4 2,7 -2,3 -3,2 -6,0 -52,-37 -88,13 -92,17z"/>
    <path class="fil19" d="M629 678c1,3 2,6 5,4 2,-2 2,-5 0,-7 2,-1 -30,-70 -89,-21 -3,2 -4,4 -2,7 1,3 3,2 5,0 46,-37 77,13 81,17z"/>
    <g>
     <ellipse class="fil20" cx="437" cy="716" rx="19" ry="22"/>
     <ellipse class="fil21" cx="444" cy="705" rx="6" ry="7"/>
    </g>
    <g>
     <ellipse class="fil20" cx="596" cy="716" rx="19" ry="22"/>
     <ellipse class="fil21" cx="603" cy="705" rx="6" ry="7"/>
    </g>
    <path class="fil18" d="M395 1287c0,0 -196,-46 -244,-55 -47,-9 -118,109 -26,135 93,26 254,-17 254,-17 0,0 130,32 155,17 26,-16 18,-40 18,-40l-56 -74c0,0 -17,-12 -37,1 -20,14 -64,33 -64,33z"/>
    <g style="clip-path:url(#id6)">
     <g>
      <path id="1" class="fil16" d="M379 1356c0,-5 4,-18 -6,-16 -11,2 -166,37 -209,36 -44,-1 71,29 215,-20z"/>
     </g>
    </g>
    <path class="fil0" d="M395 1287c0,0 -196,-46 -244,-55 -47,-9 -118,109 -26,135 93,26 254,-17 254,-17 0,0 130,32 155,17 26,-16 18,-40 18,-40l-56 -74c0,0 -17,-12 -37,1 -20,14 -64,33 -64,33z"/>
    <path class="fil22" d="M497 896c-42,-2 -77,-34 -77,-56 0,-22 49,-6 91,-5 43,2 63,-10 63,12 0,22 -34,51 -77,49z"/>
    <g style="clip-path:url(#id7)">
     <g>
      <path id="1" class="fil21" d="M578 863c19,-1 -12,-23 -184,-6 0,0 -14,-23 0,-27 15,-4 157,-4 157,-4l35 7 -8 30z"/>
     </g>
    </g>
    <path class="fil0" d="M497 896c-42,-2 -77,-34 -77,-56 0,-22 49,-6 91,-5 43,2 63,-10 63,12 0,22 -34,51 -77,49z"/>
    <path class="fil8" d="M389 940c0,0 -17,9 -22,20 -6,11 -16,98 -16,98 0,0 50,-11 119,-22 0,0 -71,-41 -81,-96z"/>
    <path class="fil23" d="M244 648c0,-1 5,-259 190,-276l-15 5c-125,33 -122,292 -122,293l-53 -22z"/>
    <g style="clip-path:url(#id8)">
     <g>
      <path id="1" class="fil24" d="M240 588l-8 81 81 -12 -2 -66c0,0 -64,60 -71,-3z"/>
     </g>
    </g>
    <path class="fil25" d="M244 648c0,-1 5,-259 190,-276l-15 5c-125,33 -122,292 -122,293l-53 -22z"/>
    <path class="fil12" d="M803 625l23 0 -85 632 -23 0c-7,0 -12,-6 -11,-13l81 -607c1,-6 8,-12 15,-12z"/>
    <path class="fil26" d="M826 625l435 91c0,0 0,0 1,1 30,158 5,327 -68,503 0,0 0,0 0,0l-453 37 85 -632z"/>
    <g style="clip-path:url(#id9)">
     <g>
      <path id="1" class="fil27" d="M486 511l347 115c15,198 -15,410 -84,630l-369 46 106 -791z"/>
     </g>
    </g>
    <path class="fil0" d="M826 625l435 91c0,0 0,0 1,1 30,158 5,327 -68,503 0,0 0,0 0,0l-453 37 85 -632z"/>
    <path class="fil28" d="M1054 802l72 15c6,2 9,5 10,12 4,27 1,52 -10,72 -3,6 -6,11 -13,12l-74 6c-7,0 -12,-6 -11,-12 9,-29 14,-60 13,-93 0,-7 7,-13 13,-12z"/>
    <path class="fil29" d="M1112 844c10,0 13,5 16,13l-4 3 -5 4c-2,-3 -3,-6 -9,-6 -5,0 -10,9 -12,21 -1,11 1,20 7,20 5,0 7,-2 10,-6l4 4 3 3c-5,8 -9,13 -19,13 -10,0 -17,-15 -14,-34 2,-19 14,-35 23,-35z"/>
    <path class="fil30" d="M886 1358l120 5c0,0 98,-20 124,-42 26,-22 44,-35 44,-35l-313 61c0,0 -9,1 -8,6 2,5 8,5 8,5 0,0 25,0 25,0z"/>
    <path class="fil31" d="M1112 971l0 0c14,0 24,12 26,26l52 313c3,15 -13,16 -187,53 18,-2 5,-41 5,-288 0,-57 47,-104 104,-104z"/>
    <g style="clip-path:url(#id10)">
     <g>
      <path id="1" class="fil32" d="M1051 991c-20,31 -36,47 -32,92 6,54 12,247 12,247 0,0 2,33 -15,37 -16,3 -50,-17 -50,-11 0,5 34,-372 34,-372l51 7z"/>
     </g>
    </g>
    <path class="fil0" d="M1112 971l0 0c14,0 24,12 26,26l52 313c3,15 -13,16 -187,53 18,-2 5,-41 5,-288 0,-57 47,-104 104,-104z"/>
    <circle class="fil20" cx="566" cy="900" r="20"/>
    <rect class="fil33" transform="matrix(0.00301261 0.000169524 -0 0.00301261 572.664 1128.86)" width="11200" height="11200" rx="1350" ry="1350"/>
    <path class="fil29" d="M594 1139c4,0 8,2 10,5l-2 1 -2 1c-2,-1 -4,-2 -6,-2 -4,0 -7,3 -7,7 0,4 3,7 7,8 2,0 4,-1 6,-2l2 1 2 2c-2,2 -6,4 -10,4 -7,-1 -12,-6 -12,-13 0,-7 5,-13 12,-12z"/>
    <g>
     <path class="fil28" d="M618 1145c2,1 4,2 6,3l-2 1 -1 1c-1,-1 -2,-2 -3,-2 -2,0 -4,2 -4,4 0,3 2,4 4,5 1,0 2,-1 3,-1l1 0 2 1c-2,2 -4,3 -6,2 -4,0 -7,-3 -7,-7 0,-4 3,-7 7,-7z"/>
     <path class="fil28" d="M625 1148l2 2c2,-2 6,-1 6,2l-3 0c-2,0 -5,0 -5,4 0,5 6,5 8,3 0,0 0,1 0,1l2 0 0 -8c0,-7 -8,-7 -10,-4zm7 6c0,4 -4,4 -4,3 -1,-2 0,-4 4,-3z"/>
     <path class="fil28" d="M641 1147l0 1c0,0 1,-1 3,-1 2,0 3,2 3,2l-1 2c0,0 -1,-1 -3,-1 -1,0 -2,1 -2,3l0 8 -3 0 0 -14 3 0z"/>
     <path class="fil28" d="M653 1151l2 6c1,-4 3,-9 3,-9l3 0c0,0 -5,14 -6,16 -1,3 -3,3 -4,3l-1 0 0 -3c0,0 0,0 1,0 1,0 2,-2 2,-3 -1,-3 -2,-6 -4,-9 1,0 1,0 1,0 1,0 2,0 3,-1z"/>
     <path class="fil28" d="M667 1152l0 6c0,0 1,1 1,1l2 0 0 3 -3 0c-2,0 -4,-2 -4,-3l0 -8 -1 0 0 -1c2,-1 4,-3 4,-6l1 1 0 3 3 1 0 3 -3 0z"/>
     <path class="fil28" d="M672 1151l2 2c2,-2 6,-2 6,2l-3 -1c-2,0 -5,1 -5,4 0,6 6,6 8,3 0,1 0,1 0,2l2 0 0 -8c0,-7 -8,-7 -10,-4zm7 6c0,4 -4,4 -5,2 -1,-1 1,-3 5,-2z"/>
     <circle class="fil28" transform="matrix(0.015428 0.000868157 -0 0.015428 650.177 1148.41)" r="132"/>
    </g>
    <path class="fil34" d="M1228 664c-8,1 -14,-5 -15,-13 0,-8 6,-14 14,-14 52,-2 84,24 99,72 3,7 -1,15 -9,17 -7,2 -15,-2 -17,-9 -11,-35 -35,-54 -72,-53z"/>
    <path class="fil35" d="M1231 609c-8,0 -15,-7 -14,-15 0,-9 7,-15 15,-15 36,2 67,12 91,30 25,18 43,44 56,77 3,8 -1,17 -8,20 -8,2 -16,-1 -19,-9 -11,-28 -26,-50 -46,-64 -20,-15 -45,-23 -75,-24z"/>
    <path class="fil36" d="M1232 556c-8,0 -14,-6 -14,-14 0,-8 6,-15 14,-15 50,1 91,13 124,37 33,24 57,60 73,106 2,8 -2,16 -9,18 -8,3 -16,-1 -18,-9 -14,-41 -35,-71 -63,-92 -28,-20 -64,-31 -107,-31z"/>
    <path class="fil37" d="M1060 436l204 -67c4,-2 8,1 9,5l22 108c1,4 -2,9 -6,10l-204 67c-4,1 -9,-1 -9,-6l-22 -107c-1,-4 2,-9 6,-10z"/>
    <g style="clip-path:url(#id11)">
     <g>
      <g>
       <rect class="fil38" transform="matrix(0.159996 -0.184132 0.209709 0.0630123 1037.55 454.263)" width="684" height="684" rx="76" ry="76"/>
       <rect class="fil37" transform="matrix(0.159996 -0.184132 0.209709 0.0630123 1035.46 443.877)" width="684" height="684" rx="76" ry="76"/>
      </g>
     </g>
    </g>
    <path class="fil0" d="M1060 436l204 -67c4,-2 8,1 9,5l22 108c1,4 -2,9 -6,10l-204 67c-4,1 -9,-1 -9,-6l-22 -107c-1,-4 2,-9 6,-10z"/>
    <path class="fil37" d="M865 392l172 -107c4,-2 8,-1 10,3l44 94c2,4 1,9 -3,11l-172 107c-4,2 -8,1 -10,-3l-44 -94c-2,-3 0,-8 3,-11z"/>
    <g style="clip-path:url(#id12)">
     <g>
      <g>
       <rect class="fil38" transform="matrix(0.105563 -0.205029 0.206731 0.0107566 848.897 414.713)" width="684" height="684" rx="76" ry="76"/>
       <rect class="fil37" transform="matrix(0.105563 -0.205029 0.206731 0.0107566 844.646 405.645)" width="684" height="684" rx="76" ry="76"/>
      </g>
     </g>
    </g>
    <path class="fil0" d="M865 392l172 -107c4,-2 8,-1 10,3l44 94c2,4 1,9 -3,11l-172 107c-4,2 -8,1 -10,-3l-44 -94c-2,-3 0,-8 3,-11z"/>
    <path class="fil37" d="M1094 216l194 -91c4,-1 9,0 10,5l34 104c2,4 0,9 -4,11l-195 91c-4,2 -8,0 -9,-4l-35 -105c-1,-4 1,-9 5,-11z"/>
    <g style="clip-path:url(#id13)">
     <g>
      <g>
       <rect class="fil38" transform="matrix(0.136592 -0.202103 0.215783 0.0372297 1073.84 237.638)" width="684" height="684" rx="76" ry="76"/>
       <rect class="fil37" transform="matrix(0.136592 -0.202103 0.215783 0.0372297 1070.51 227.58)" width="684" height="684" rx="76" ry="76"/>
      </g>
     </g>
    </g>
    <path class="fil0" d="M1094 216l194 -91c4,-1 9,0 10,5l34 104c2,4 0,9 -4,11l-195 91c-4,2 -8,0 -9,-4l-35 -105c-1,-4 1,-9 5,-11z"/>
    <path class="fil39" d="M264 263l0 -83c0,-8 3,-15 8,-21l0 0 0 0 0 0c6,-5 13,-9 22,-9l142 0c8,0 16,4 21,9l0 0 0 0 0 0c5,6 9,13 9,21l0 83c0,8 -4,15 -9,21l0 0c-6,5 -13,9 -21,9l-10 0 -4 35c0,1 -1,2 -3,2 -1,0 -1,0 -2,-1l-39 -36 -84 0c-9,0 -16,-4 -22,-9l0 0c-5,-6 -8,-13 -8,-21z"/>
    <g>
     <circle class="fil40" cx="362" cy="222" r="49"/>
     <g>
      <g>
       <ellipse class="fil20" cx="339" cy="208" rx="5" ry="6"/>
       <circle class="fil21" cx="341" cy="205" r="2"/>
      </g>
      <g>
       <ellipse class="fil20" cx="385" cy="208" rx="5" ry="6"/>
       <circle class="fil21" cx="387" cy="205" r="2"/>
      </g>
     </g>
     <path class="fil22" d="M362 256c-17,0 -35,-24 -31,-26 11,-5 51,-5 62,0 4,2 -14,26 -31,26z"/>
    </g>
    <path class="fil13" d="M264 623c33,-4 66,45 74,110 8,65 -13,120 -46,124 -33,4 -66,-45 -74,-110 -8,-65 13,-120 46,-124z"/>
    <g style="clip-path:url(#id14)">
     <g>
      <path id="1" class="fil10 str0" d="M189 740c0,0 47,33 78,-1 0,0 21,23 32,3 0,0 29,44 40,4 0,0 20,36 -1,80 -21,43 -91,60 -104,37 -14,-24 -60,-70 -45,-123z"/>
     </g>
    </g>
    <path class="fil0" d="M264 623c33,-4 66,45 74,110 8,65 -13,120 -46,124 -33,4 -66,-45 -74,-110 -8,-65 13,-120 46,-124z"/>
    <path class="fil11" d="M242 644c25,-3 50,38 56,92 7,54 -8,100 -33,103 -25,3 -50,-39 -56,-93 -7,-53 8,-99 33,-102z"/>
    <g style="clip-path:url(#id15)">
     <g>
      <path id="1" class="fil10 str0" d="M189 740c0,0 47,33 78,-1 0,0 21,23 32,3 0,0 29,44 40,4 0,0 20,36 -1,80 -21,43 -91,60 -104,37 -14,-24 -60,-70 -45,-123z"/>
     </g>
    </g>
    <path class="fil0" d="M242 644c25,-3 50,38 56,92 7,54 -8,100 -33,103 -25,3 -50,-39 -56,-93 -7,-53 8,-99 33,-102z"/>
    <path class="fil9" d="M225 687c19,-2 38,21 42,53 3,31 -10,58 -29,61 -19,2 -38,-22 -42,-53 -4,-31 9,-59 29,-61z"/>
    <g style="clip-path:url(#id16)">
     <g>
      <path id="1" class="fil10 str0" d="M190 738c0,0 46,33 77,-1 0,0 21,23 32,3 0,0 30,44 41,4 0,0 19,36 -2,80 -21,44 -91,60 -104,37 -13,-24 -60,-69 -44,-123z"/>
     </g>
    </g>
    <path class="fil0" d="M225 687c19,-2 38,21 42,53 3,31 -10,58 -29,61 -19,2 -38,-22 -42,-53 -4,-31 9,-59 29,-61z"/>
   </g>
  </g>
 </g>
</svg>
