<?xml version="1.0" encoding="UTF-8"?>
<!DOCTYPE svg PUBLIC "-//W3C//DTD SVG 1.1//EN" "http://www.w3.org/Graphics/SVG/1.1/DTD/svg11.dtd">
<!-- Creator: CorelDRAW X7 -->
<svg xmlns="http://www.w3.org/2000/svg" xml:space="preserve" width="1500px" height="1500px" version="1.1" style="shape-rendering:geometricPrecision; text-rendering:geometricPrecision; image-rendering:optimizeQuality; fill-rule:evenodd; clip-rule:evenodd"
viewBox="0 0 1500 1500"
 xmlns:xlink="http://www.w3.org/1999/xlink">
 <defs>
  <style type="text/css">
   <![CDATA[
    .fil0 {fill:none}
    .fil24 {fill:#FDFDFE}
    .fil23 {fill:#006FA6}
    .fil5 {fill:#008FD7}
    .fil10 {fill:#0B1930}
    .fil9 {fill:#0E2242}
    .fil12 {fill:#8B4439}
    .fil20 {fill:#996633}
    .fil19 {fill:#AB753F}
    .fil16 {fill:#BA8148}
    .fil18 {fill:#E0E089}
    .fil21 {fill:#E6E6E6}
    .fil1 {fill:#EBC800}
    .fil8 {fill:#F0BC95}
    .fil4 {fill:#F0BC95}
    .fil7 {fill:#F7CCAA}
    .fil14 {fill:gold}
    .fil2 {fill:gold}
    .fil6 {fill:#FFE1BD}
    .fil3 {fill:#FFE1BD}
    .fil17 {fill:#FFFF99}
    .fil13 {fill:white}
    .fil11 {fill:#0E2242;fill-rule:nonzero}
    .fil22 {fill:#1A1A1A;fill-rule:nonzero}
    .fil15 {fill:gold;fill-rule:nonzero}
   ]]>
  </style>
     <clipPath id="id0">
      <path d="M934 591c24,1 39,22 35,46 -6,32 -39,33 -31,67 3,11 -21,24 -30,19 -25,-16 -29,-64 -24,-90 4,-24 27,-43 50,-42z"/>
     </clipPath>
     <clipPath id="id1">
      <path d="M566 591c-24,1 -39,22 -35,46 6,32 39,33 31,67 -3,11 21,24 30,19 25,-16 29,-64 24,-90 -4,-24 -27,-43 -50,-42z"/>
     </clipPath>
     <clipPath id="id2">
      <path d="M861 497c0,0 12,24 31,39 19,15 22,91 22,146 0,0 70,-120 12,-224 0,0 57,-102 14,-174 0,0 -58,39 -87,46 0,0 15,-22 14,-36 -83,55 -301,-32 -320,167 -15,160 40,222 40,222 0,0 -18,-133 11,-147 38,-37 24,-43 49,-31 24,12 126,48 214,-8z"/>
     </clipPath>
     <clipPath id="id3">
      <path d="M677 728c-22,-9 -34,-3 -36,6 -24,115 242,114 218,0 -2,-9 -14,-15 -36,-6 -33,15 -113,14 -146,0z"/>
     </clipPath>
      <clipPath id="id4">
       <path d="M748 881l228 57c4,1 -1,6 -17,11l-211 53 -228 -58c-3,0 2,-6 4,-6l224 -57z"/>
      </clipPath>
       <clipPath id="id5">
        <path d="M666 901l219 59 0 7 -35 9 0 -7 -219 -59 35 -9z"/>
       </clipPath>
       <clipPath id="id6">
        <path d="M748 881l228 57c4,1 -1,6 -17,11l-211 53 -228 -58c-3,0 2,-6 4,-6l224 -57z"/>
       </clipPath>
      <clipPath id="id7">
       <path d="M527 938l223 56 0 348 -223 -57c-5,-1 -9,-6 -9,-11l0 -329c0,-5 4,-8 9,-7z"/>
      </clipPath>
       <clipPath id="id8">
       </clipPath>
       <clipPath id="id9">
        <path d="M527 938l223 56 0 348 -223 -57c-5,-1 -9,-6 -9,-11l0 -329c0,-5 4,-8 9,-7z"/>
       </clipPath>
      <clipPath id="id10">
       <path d="M973 938l-223 56 0 348 223 -57c5,-1 9,-6 9,-11l0 -328c0,-6 -4,-9 -9,-8z"/>
      </clipPath>
       <clipPath id="id11">
        <path d="M885 960l0 40 -35 9 0 -40 0 0 35 -9z"/>
       </clipPath>
       <clipPath id="id12">
        <path d="M973 938l-223 56 0 348 223 -57c5,-1 9,-6 9,-11l0 -328c0,-6 -4,-9 -9,-8z"/>
       </clipPath>
 </defs>
 <g id="Layer_x0020_1">
  <metadata id="CorelCorpID_0Corel-Layer"/>
  <rect class="fil0" width="1500" height="1500"/>
  <g id="_1730963169632">
   <rect class="fil0" width="1500" height="1500"/>
   <g>
    <g>
     <polygon class="fil1" points="334,403 286,329 250,216 250,215 249,214 354,388 411,347 411,347 412,346 413,345 413,344 414,343 414,342 415,341 415,340 415,339 415,337 414,335 709,948 709,948 709,949 709,949 709,949 709,949 709,949 709,950 708,950 708,950 708,950 708,950 690,963 697,985 697,985 697,985 697,986 697,986 697,987 696,987 696,987 696,987 695,987 695,987 695,987 695,987 694,987 694,987 694,987 694,987 676,974 658,987 657,987 657,987 657,987 656,987 656,987 655,987 655,987 132,540 133,541 135,542 137,542 139,542 141,542 143,541 143,541 129,529 129,529 143,541 145,540 209,493 68,346 70,347 166,416 225,482 240,471 335,540 336,541 337,541 339,542 340,542 341,542 342,542 344,542 345,542 347,541 349,540 350,538 351,537 352,535 352,533 352,531 352,529 315,416 "/>
     <path class="fil2" d="M250 216l36 113 119 -1c5,0 10,5 10,11 0,3 -2,6 -4,8l0 0 -96 69 37 113c1,5 -1,11 -7,13 -3,1 -7,0 -10,-2l-95 -69 -95 69c-5,4 -11,3 -15,-2 -2,-3 -2,-6 -1,-9l0 0 37 -113 -96 -69c-5,-3 -6,-10 -3,-14 3,-3 6,-5 10,-5l117 1 37 -113c1,-5 7,-8 12,-7 4,1 6,4 7,7z"/>
    </g>
    <g>
     <polygon class="fil1" points="1083,360 1120,278 1156,165 1157,164 1074,353 996,296 996,296 995,295 994,295 993,294 992,293 992,292 992,290 991,289 991,288 992,286 992,284 779,937 778,937 778,938 778,939 778,939 779,939 779,940 779,940 779,941 780,941 780,941 780,941 815,967 802,1008 802,1009 802,1010 802,1011 802,1011 802,1012 803,1013 803,1013 804,1013 805,1013 805,1013 806,1013 806,1013 807,1013 807,1013 807,1013 808,1013 843,987 878,1013 879,1013 880,1013 880,1013 881,1013 882,1013 883,1013 883,1012 884,1012 1276,487 1275,489 1273,490 1271,491 1269,491 1268,491 1278,478 1277,478 1268,491 1267,491 1265,491 1264,491 1262,490 1226,463 1339,293 1338,295 1337,296 1241,366 1195,441 1166,420 1071,489 1070,490 1069,490 1068,491 1066,491 1065,492 1064,492 1063,491 1061,491 1059,490 1058,489 1056,488 1055,486 1055,484 1054,482 1054,480 1055,478 1091,366 "/>
     <path class="fil2" d="M1156 165l-36 113 -118 0c-6,0 -11,4 -11,10 0,3 2,6 5,8l0 0 95 70 -36 112c-2,5 1,11 6,13 4,1 7,0 10,-2l95 -69 96 70c4,3 11,2 14,-3 2,-2 2,-6 1,-9l1 0 -37 -112 96 -70c4,-3 5,-10 2,-14 -2,-3 -6,-5 -9,-4l-118 0 -36 -113c-2,-5 -8,-8 -13,-6 -3,1 -6,3 -7,6z"/>
    </g>
    <g>
     <path class="fil1" d="M327 806l-54 -43 -27 -86 0 -1 -1 0 0 -1 -1 -1 116 108 8 -5 0 0 1 -1 0 -1 1 0 0 -1 1 -1 0 -1 0 -1 0 -1 0 -1 -1 -2 0 -1 -1 -1 241 240 1 1 0 0 0 1 0 0 0 1 0 0 0 1 0 0 0 0 0 0 -1 1 0 0 0 0 -29 21 11 34 0 1 0 0 0 1 0 1 0 0 -1 0 0 1 -1 0 0 0 -1 0 0 0 0 0 -1 0 0 0 -34 -18 -25 18 0 0 -1 0 0 0 -1 0 -1 0 -367 -145 1 1 2 0 1 -1 2 0 1 -1 3 -2 -15 -7 0 1 15 6 69 -51 85 47 0 -1 0 -2 -28 -85 32 -23zm228 244l35 19 -35 -19 0 0z"/>
     <path class="fil2" d="M246 677l27 86 90 -1c5,0 8,4 8,8 0,3 -1,5 -3,7l0 0 -73 52 28 85c1,5 -1,9 -5,10 -3,1 -5,1 -7,-1l-73 -53 -72 53c-4,3 -8,2 -11,-2 -1,-2 -2,-4 -1,-6l0 -1 28 -85 -73 -52c-3,-3 -4,-8 -2,-11 2,-3 5,-4 7,-4l89 1 28 -86c1,-4 6,-6 10,-5 2,1 4,3 5,5z"/>
    </g>
    <g>
     <g>
      <path class="fil1" d="M1169 820l69 -59 36 -113 1 -1 0 -1 1 -1 1 -1 -150 145 -14 -10 0 0 0 0 -1 -1 -1 -1 -1 -1 0 -1 0 -2 -1 -1 0 -1 0 -2 1 -2 1 -2 1 -1 -385 397 0 1 0 0 -1 1 0 1 0 0 0 1 0 0 1 1 0 0 0 0 0 1 1 0 0 0 35 26 -13 41 -1 1 0 1 1 0 0 1 0 1 1 0 0 1 1 0 1 0 0 0 1 0 0 0 0 0 1 0 0 0 39 -24 32 23 1 1 1 0 0 0 1 0 1 0 559 -265 -2 0 -2 1 -2 -1 -2 0 -1 -1 -4 -3 19 -9 0 0 -19 9 -92 -67 -109 68 -1 0 -1 -2 -1 -2 0 -2 0 -2 1 -2 36 -112 -40 -29zm-441 347l0 0 2 -2 -2 2z"/>
     </g>
     <path class="fil2" d="M1274 648l-36 113 -119 0c-5,0 -10,4 -10,10 0,3 2,6 4,8l0 0 96 70 -36 112c-2,6 1,11 6,13 4,1 7,0 10,-2l95 -69 96 70c4,3 11,2 14,-3 2,-2 2,-6 1,-9l0 0 -36 -112 95 -70c5,-3 6,-9 3,-14 -2,-3 -6,-4 -9,-4l-118 0 -36 -113c-2,-5 -8,-8 -13,-6 -4,1 -6,3 -7,6z"/>
    </g>
    <path class="fil3" d="M934 591c24,1 39,22 35,46 -6,32 -39,33 -31,67 3,11 -21,24 -30,19 -25,-16 -29,-64 -24,-90 4,-24 27,-43 50,-42z"/>
    <g style="clip-path:url(#id0)">
     <g>
      <path id="1" class="fil4" d="M973 649c0,0 -5,-46 -29,-44 -24,1 -44,21 -46,47 -2,25 23,43 29,36 6,-8 19,13 29,11 10,-1 18,-50 17,-50z"/>
     </g>
    </g>
    <path class="fil0" d="M934 591c24,1 39,22 35,46 -6,32 -39,33 -31,67 3,11 -21,24 -30,19 -25,-16 -29,-64 -24,-90 4,-24 27,-43 50,-42z"/>
    <path class="fil3" d="M566 591c-24,1 -39,22 -35,46 6,32 39,33 31,67 -3,11 21,24 30,19 25,-16 29,-64 24,-90 -4,-24 -27,-43 -50,-42z"/>
    <g style="clip-path:url(#id1)">
     <g>
      <path id="1" class="fil4" d="M527 649c0,0 5,-46 29,-44 24,1 44,21 46,47 2,25 -23,43 -29,36 -6,-8 -19,13 -29,11 -10,-1 -18,-50 -17,-50z"/>
     </g>
    </g>
    <path class="fil0" d="M566 591c-24,1 -39,22 -35,46 6,32 39,33 31,67 -3,11 21,24 30,19 25,-16 29,-64 24,-90 -4,-24 -27,-43 -50,-42z"/>
    <path class="fil5" d="M473 923c-47,12 -65,181 -8,238 7,7 54,5 83,8 69,7 133,-2 202,0 69,-2 133,7 202,0 29,-3 76,-1 83,-8 57,-57 39,-226 -8,-238 -22,-35 -189,-115 -277,-115 -88,0 -255,80 -277,115z"/>
    <path class="fil4" d="M750 744l0 0c37,0 66,30 66,66l0 50c0,37 -57,66 -66,66 -10,0 -66,-29 -66,-66l0 -50c0,-36 30,-66 66,-66z"/>
    <path class="fil6" d="M750 858c-85,0 -145,-81 -154,-91 -6,-8 -14,-146 -14,-173 0,-101 75,-184 168,-184 93,0 168,83 168,184 0,27 -8,165 -14,173 -9,10 -69,91 -154,91z"/>
    <path class="fil7" d="M720 827c0,0 18,5 59,0 0,0 -29,26 -59,0z"/>
    <path class="fil8" d="M750 726c0,0 21,1 30,-10 0,0 3,-3 -30,-3 -33,0 -30,3 -30,3 9,11 30,10 30,10z"/>
    <path class="fil9" d="M861 497c0,0 12,24 31,39 19,15 22,91 22,146 0,0 70,-120 12,-224 0,0 57,-102 14,-174 0,0 -58,39 -87,46 0,0 15,-22 14,-36 -83,55 -301,-32 -320,167 -15,160 40,222 40,222 0,0 -18,-133 11,-147 38,-37 24,-43 49,-31 24,12 126,48 214,-8z"/>
    <g style="clip-path:url(#id2)">
     <g>
      <path id="1" class="fil10" d="M939 282c0,0 2,2 0,9 -2,7 -63,120 -107,59 0,0 -9,-9 16,-18 24,-8 90,-51 91,-50z"/>
      <path class="fil10" d="M604 342c0,0 -58,126 -20,135 37,9 34,19 58,26 24,7 -20,57 -20,57 0,0 -3,151 -33,133 -31,-18 -74,-103 -56,-151 17,-47 -35,-71 -4,-102 30,-31 -12,-51 75,-98z"/>
      <path class="fil10" d="M860 498l1 -2c0,0 28,-8 64,-38 37,-29 46,97 37,121 -9,23 -28,125 -53,114 -26,-12 -23,-139 -49,-195z"/>
     </g>
    </g>
    <path class="fil0" d="M861 497c0,0 12,24 31,39 19,15 22,91 22,146 0,0 70,-120 12,-224 0,0 57,-102 14,-174 0,0 -58,39 -87,46 0,0 15,-22 14,-36 -83,55 -301,-32 -320,167 -15,160 40,222 40,222 0,0 -18,-133 11,-147 38,-37 24,-43 49,-31 24,12 126,48 214,-8z"/>
    <path class="fil0" d="M615 604c0,0 36,-59 90,-17"/>
    <path class="fil11" d="M618 605c-2,3 -3,5 -6,4 -2,-2 -2,-4 0,-7 -2,0 32,-63 95,-19 2,2 4,5 2,7 -2,2 -4,1 -6,0 -49,-34 -82,11 -85,15z"/>
    <path class="fil11" d="M882 605c2,3 3,5 6,4 2,-2 2,-4 0,-7 2,0 -32,-63 -95,-19 -2,2 -4,5 -2,7 2,2 4,1 6,0 49,-34 82,11 85,15z"/>
    <path class="fil12" d="M677 728c-22,-9 -34,-3 -36,6 -24,115 242,114 218,0 -2,-9 -14,-15 -36,-6 -33,15 -113,14 -146,0z"/>
    <g style="clip-path:url(#id3)">
     <g>
      <path id="1" class="fil13" d="M609 760c0,0 36,-23 51,-14 31,17 151,17 182,0 15,-9 52,14 52,14 -1,1 -16,-34 -16,-34l-34 -18 -186 0 -34 18c0,0 -15,35 -15,34z"/>
     </g>
    </g>
    <path class="fil0" d="M677 728c-22,-9 -34,-3 -36,6 -24,115 242,114 218,0 -2,-9 -14,-15 -36,-6 -33,15 -113,14 -146,0z"/>
    <path class="fil0" d="M656 646c0,0 26,-15 53,8"/>
    <path class="fil14" d="M675 603l9 28 27 8c2,1 2,2 2,4 0,0 -1,1 -2,1l-27 9 -9 27c0,1 -2,2 -3,2 -1,0 -2,-1 -2,-2l-8 -27 -28 -9c-1,0 -2,-2 -1,-3 0,-1 1,-2 1,-2l28 -8 8 -28c1,-1 2,-2 4,-1 0,0 1,1 1,1z"/>
    <path class="fil15" d="M816 631l9 -28c0,0 1,-1 1,-1 2,-1 3,0 4,1l8 28 28 8c0,0 1,1 1,2 1,1 0,3 -1,3l-28 9 -8 27c0,1 -1,2 -2,2 -1,0 -3,-1 -3,-2l-9 -27 -27 -9c-1,0 -2,-1 -2,-1 0,-2 0,-3 2,-4l27 -8z"/>
    <g>
     <path class="fil16" d="M748 881l228 57c4,1 -1,6 -17,11l-211 53 -228 -58c-3,0 2,-6 4,-6l224 -57z"/>
     <g style="clip-path:url(#id4)">
      <g>
       <polygon id="1" class="fil17" points="632,892 885,960 885,1000 850,1009 850,969 590,899 "/>
      </g>
      <g style="clip-path:url(#id5)">
       <g>
        <polygon id="2" class="fil18" points="847,970 888,959 888,1005 845,1016 "/>
       </g>
      </g>
      <g style="clip-path:url(#id6)">
       <polygon class="fil0" points="632,892 885,960 885,1000 850,1009 850,969 590,899 "/>
      </g>
     </g>
     <path class="fil0" d="M748 881l228 57c4,1 -1,6 -17,11l-211 53 -228 -58c-3,0 2,-6 4,-6l224 -57z"/>
     <path class="fil19" d="M527 938l223 56 0 348 -223 -57c-5,-1 -9,-6 -9,-11l0 -329c0,-5 4,-8 9,-7z"/>
     <g style="clip-path:url(#id7)">
      <g>
       <polygon id="1" class="fil17" points="632,892 885,960 885,1000 850,1009 850,969 590,899 "/>
      </g>
      <g style="clip-path:url(#id8)">
       <g>
        <polygon id="2" class="fil18" points="847,970 888,959 888,1005 845,1016 "/>
       </g>
      </g>
      <g style="clip-path:url(#id9)">
       <polygon class="fil0" points="632,892 885,960 885,1000 850,1009 850,969 590,899 "/>
      </g>
     </g>
     <path class="fil0" d="M527 938l223 56 0 348 -223 -57c-5,-1 -9,-6 -9,-11l0 -329c0,-5 4,-8 9,-7z"/>
     <path class="fil20" d="M973 938l-223 56 0 348 223 -57c5,-1 9,-6 9,-11l0 -328c0,-6 -4,-9 -9,-8z"/>
     <g style="clip-path:url(#id10)">
      <g>
       <polygon id="1" class="fil17" points="632,892 885,960 885,1000 850,1009 850,969 590,899 "/>
      </g>
      <g style="clip-path:url(#id11)">
       <g>
        <polygon id="2" class="fil18" points="847,970 888,959 888,1005 845,1016 "/>
       </g>
      </g>
      <g style="clip-path:url(#id12)">
       <polygon class="fil0" points="632,892 885,960 885,1000 850,1009 850,969 590,899 "/>
      </g>
     </g>
     <path class="fil0" d="M973 938l-223 56 0 348 223 -57c5,-1 9,-6 9,-11l0 -328c0,-6 -4,-9 -9,-8z"/>
    </g>
    <g>
     <rect class="fil21" transform="matrix(0.241347 0.0658353 -0 0.274444 532.452 958.225)" width="356" height="144" rx="17" ry="17"/>
     <path class="fil22" d="M537 969c-1,0 -2,-1 -2,-2 0,-1 1,-2 2,-1l76 20c1,1 2,2 2,3 0,0 -1,1 -2,1l-76 -21z"/>
     <path class="fil22" d="M537 978c-1,0 -2,-1 -2,-2 0,-1 1,-1 2,-1l46 13c1,0 2,1 2,2 0,1 -1,1 -2,1l-46 -13z"/>
     <path class="fil22" d="M536 988c-1,0 -1,-1 -1,-2 0,-1 0,-2 1,-1l48 13c1,0 1,1 1,2 0,1 0,1 -1,1l-48 -13z"/>
     <g>
      <rect class="fil23" transform="matrix(0.00164499 0.000448725 -0 0.00164499 593.254 988.22)" width="11200" height="11200" rx="1350" ry="1350"/>
      <path class="fil24" d="M605 996c2,1 4,2 5,4l-1 1 -1 0c-1,-1 -2,-2 -3,-2 -2,-1 -4,1 -4,3 0,2 2,4 4,5 1,0 2,0 3,0l1 1 1 1c-1,1 -3,1 -5,1 -4,-1 -7,-5 -7,-9 0,-4 3,-6 7,-5z"/>
     </g>
    </g>
    <path class="fil3" d="M1036 1120c-33,-6 -65,-5 -96,0 -13,2 -23,6 -23,19l0 0c0,10 6,16 14,19 -11,2 -19,12 -19,23l0 0c0,11 8,21 19,23 -9,3 -14,12 -14,21l0 0c0,11 8,21 18,23 -6,3 -11,10 -11,17l0 0c0,11 9,17 19,19 26,5 53,6 80,0 25,-5 15,-21 22,-33 6,-13 14,-9 14,-26l0 0c0,-6 -3,-11 -8,-16 8,-2 13,-20 13,-28l0 0c0,-9 -5,-17 -11,-19 6,-3 6,-9 6,-25l0 0c0,-13 -11,-15 -23,-17z"/>
    <path class="fil3" d="M450 1120c33,-6 65,-5 96,0 13,2 23,6 23,19l0 0c0,10 -6,16 -14,19 11,2 19,12 19,23l0 0c0,11 -8,21 -19,23 8,3 14,12 14,21l0 0c0,11 -8,21 -18,23 6,3 11,10 11,17l0 0c0,11 -9,17 -19,19 -27,5 -53,6 -80,0 -25,-5 -15,-21 -22,-33 -6,-13 -14,-9 -14,-26l0 0c0,-6 3,-11 8,-16 -8,-2 -13,-20 -13,-28l0 0c0,-9 5,-17 11,-19 -6,-3 -6,-9 -6,-25l0 0c0,-13 10,-15 23,-17z"/>
   </g>
  </g>
 </g>
</svg>
