<?xml version="1.0" encoding="UTF-8"?>
<!DOCTYPE svg PUBLIC "-//W3C//DTD SVG 1.1//EN" "http://www.w3.org/Graphics/SVG/1.1/DTD/svg11.dtd">
<!-- Creator: CorelDRAW X7 -->
<svg xmlns="http://www.w3.org/2000/svg" xml:space="preserve" width="1500px" height="1500px" version="1.1" style="shape-rendering:geometricPrecision; text-rendering:geometricPrecision; image-rendering:optimizeQuality; fill-rule:evenodd; clip-rule:evenodd"
viewBox="0 0 1500 1500"
 xmlns:xlink="http://www.w3.org/1999/xlink">
 <defs>
  <style type="text/css">
   <![CDATA[
    .fil0 {fill:none}
    .fil20 {fill:#FDFDFE}
    .fil30 {fill:black}
    .fil16 {fill:black}
    .fil19 {fill:#006FA6}
    .fil5 {fill:#0077B3}
    .fil6 {fill:#0081C2}
    .fil1 {fill:#0083C4}
    .fil4 {fill:#008FD7}
    .fil12 {fill:#0B1930}
    .fil11 {fill:#0E2242}
    .fil14 {fill:#1A1A1A}
    .fil31 {fill:#2B2B2B}
    .fil2 {fill:#2CB5F5}
    .fil23 {fill:#333333}
    .fil3 {fill:#4CC6FF}
    .fil21 {fill:#666666}
    .fil22 {fill:#999999}
    .fil18 {fill:#B3B3B3}
    .fil17 {fill:#CCCCCC}
    .fil25 {fill:#E6E6E6}
    .fil10 {fill:#F0BC95}
    .fil8 {fill:#F0BC95}
    .fil9 {fill:#FFE1BD}
    .fil7 {fill:#FFE1BD}
    .fil15 {fill:white}
    .fil28 {fill:#0081C2;fill-rule:nonzero}
    .fil27 {fill:#008FD6;fill-rule:nonzero}
    .fil26 {fill:#00A0F0;fill-rule:nonzero}
    .fil13 {fill:#0E2242;fill-rule:nonzero}
    .fil29 {fill:red;fill-rule:nonzero}
    .fil32 {fill:#E6E6E6;fill-opacity:0.501961}
    .fil24 {fill:#E6E6E6}
   ]]>
  </style>
      <clipPath id="id0">
       <path d="M504 1050c-21,23 -14,4 -28,26 -14,22 -83,210 -96,244 -4,9 -7,39 22,45 64,15 209,-20 350,-19 138,1 272,37 342,20 35,-8 30,-36 26,-46 -13,-34 -83,-222 -97,-244 -14,-22 -7,-3 -28,-26 -118,-134 -375,-132 -491,0z"/>
      </clipPath>
      <clipPath id="id1">
       <path d="M939 736c24,2 40,23 35,48 -6,33 -39,34 -31,68 3,12 -22,26 -30,20 -27,-16 -31,-65 -26,-92 5,-25 28,-45 52,-44z"/>
      </clipPath>
      <clipPath id="id2">
       <path d="M560 736c-24,2 -40,23 -35,48 6,33 39,34 31,68 -3,12 22,26 31,20 26,-16 30,-65 25,-92 -5,-25 -28,-45 -52,-44z"/>
      </clipPath>
      <clipPath id="id3">
       <path d="M864 640c0,0 12,25 32,40 19,15 23,94 23,150 0,0 71,-123 12,-230 0,0 58,-105 14,-180 0,0 -75,60 -97,43 0,0 23,-18 22,-32 -86,57 -310,-33 -329,172 -15,164 41,228 41,228 0,0 -18,-136 11,-151 39,-38 25,-44 50,-32 26,13 130,50 221,-8z"/>
      </clipPath>
       <clipPath id="id4">
        <path d="M193 538c0,0 4,-26 -3,-37 -7,-12 112,-56 117,-66 57,-49 75,-24 70,13 -6,39 -58,103 -87,135 -29,32 -28,52 -48,50 -20,-2 -64,-22 -80,-46 -16,-23 23,-7 39,-31 7,-11 8,-18 5,-17 -3,2 -5,4 -13,-1z"/>
       </clipPath>
       <clipPath id="id5">
        <path d="M285 660c0,0 20,-18 22,-32 1,-14 127,27 137,22 78,-2 77,30 48,57 -30,28 -114,45 -158,52 -44,8 -57,24 -71,10 -15,-14 -38,-60 -36,-90 3,-29 24,10 53,0 12,-4 17,-9 15,-10 -4,0 -7,0 -10,-9z"/>
       </clipPath>
 </defs>
 <g id="Layer_x0020_1">
  <metadata id="CorelCorpID_0Corel-Layer"/>
  <rect class="fil0" width="1500" height="1500"/>
  <g id="_2264330070176">
   <g>
    <g>
     <circle class="fil1" cx="750" cy="709" r="615"/>
     <circle class="fil2" cx="750" cy="761" r="562"/>
     <circle class="fil3" cx="750" cy="834" r="490"/>
    </g>
    <g>
     <path class="fil4" d="M504 1050c-21,23 -14,4 -28,26 -14,22 -83,210 -96,244 -4,9 -7,39 22,45 64,15 209,-20 350,-19 138,1 272,37 342,20 35,-8 30,-36 26,-46 -13,-34 -83,-222 -97,-244 -14,-22 -7,-3 -28,-26 -118,-134 -375,-132 -491,0z"/>
     <g style="clip-path:url(#id0)">
      <g>
       <path id="1" class="fil5" d="M1058 1265c21,2 36,2 72,56 36,54 -65,56 -65,56 0,0 -129,-73 -7,-112z"/>
       <path class="fil5" d="M441 1265c0,0 -21,-6 -71,56 -50,62 64,56 65,56 0,0 128,-73 6,-112z"/>
       <path class="fil6" d="M601 959c0,0 34,9 53,35 20,27 25,63 39,67 39,10 112,2 116,0 5,-3 21,-33 35,-66 13,-33 66,-39 63,-41 -3,-2 -158,-57 -267,-3 0,0 -23,-25 -39,8z"/>
      </g>
     </g>
     <path class="fil0" d="M504 1050c-21,23 -14,4 -28,26 -14,22 -83,210 -96,244 -4,9 -7,39 22,45 64,15 209,-20 350,-19 138,1 272,37 342,20 35,-8 30,-36 26,-46 -13,-34 -83,-222 -97,-244 -14,-22 -7,-3 -28,-26 -118,-134 -375,-132 -491,0z"/>
     <path class="fil7" d="M939 736c24,2 40,23 35,48 -6,33 -39,34 -31,68 3,12 -22,26 -30,20 -27,-16 -31,-65 -26,-92 5,-25 28,-45 52,-44z"/>
     <g style="clip-path:url(#id1)">
      <g>
       <path id="1" class="fil8" d="M979 797c0,0 -5,-48 -30,-46 -25,1 -45,22 -47,48 -2,26 23,45 30,37 6,-8 19,13 29,12 11,-1 19,-52 18,-51z"/>
      </g>
     </g>
     <path class="fil0" d="M939 736c24,2 40,23 35,48 -6,33 -39,34 -31,68 3,12 -22,26 -30,20 -27,-16 -31,-65 -26,-92 5,-25 28,-45 52,-44z"/>
     <path class="fil7" d="M560 736c-24,2 -40,23 -35,48 6,33 39,34 31,68 -3,12 22,26 31,20 26,-16 30,-65 25,-92 -5,-25 -28,-45 -52,-44z"/>
     <g style="clip-path:url(#id2)">
      <g>
       <path id="1" class="fil8" d="M521 797c0,0 4,-48 29,-46 25,1 45,22 47,48 2,26 -23,45 -30,37 -6,-8 -19,13 -29,12 -10,-1 -18,-52 -17,-51z"/>
      </g>
     </g>
     <path class="fil0" d="M560 736c-24,2 -40,23 -35,48 6,33 39,34 31,68 -3,12 22,26 31,20 26,-16 30,-65 25,-92 -5,-25 -28,-45 -52,-44z"/>
     <path class="fil8" d="M750 894l0 0c37,0 68,31 68,68l0 52c0,37 -59,67 -68,67 -11,0 -68,-30 -68,-67l0 -52c0,-37 30,-68 68,-68z"/>
     <path class="fil9" d="M750 1011c-88,0 -150,-83 -158,-94 -7,-8 -16,-150 -16,-177 0,-105 78,-190 174,-190 95,0 173,85 173,190 0,27 -9,169 -15,177 -9,11 -71,94 -158,94z"/>
     <path class="fil10" d="M712 939c0,0 21,15 76,3 0,0 -42,33 -76,-3z"/>
     <path class="fil10" d="M750 879c0,0 21,1 31,-10 0,0 2,-3 -31,-3 -34,0 -32,3 -32,3 10,11 32,10 32,10z"/>
     <path class="fil11" d="M864 640c0,0 12,25 32,40 19,15 23,94 23,150 0,0 71,-123 12,-230 0,0 58,-105 14,-180 0,0 -75,60 -97,43 0,0 23,-18 22,-32 -86,57 -310,-33 -329,172 -15,164 41,228 41,228 0,0 -18,-136 11,-151 39,-38 25,-44 50,-32 26,13 130,50 221,-8z"/>
     <g style="clip-path:url(#id3)">
      <g>
       <path id="1" class="fil12" d="M598 477c0,0 -61,132 -21,141 39,10 35,21 61,28 25,7 -21,60 -21,60 0,0 -3,158 -35,139 -32,-19 -77,-108 -59,-158 19,-50 -36,-74 -4,-107 33,-33 -12,-54 79,-103z"/>
       <path class="fil12" d="M862 642l1 -2c0,0 30,-9 68,-40 38,-31 48,102 39,126 -9,25 -29,131 -56,120 -27,-12 -24,-145 -52,-204z"/>
       <path class="fil12" d="M944 411c0,0 3,2 1,10 -2,7 -66,126 -113,62 0,0 -10,-12 16,-21 26,-8 96,-52 96,-51z"/>
      </g>
     </g>
     <path class="fil0" d="M864 640c0,0 12,25 32,40 19,15 23,94 23,150 0,0 71,-123 12,-230 0,0 58,-105 14,-180 0,0 -75,60 -97,43 0,0 23,-18 22,-32 -86,57 -310,-33 -329,172 -15,164 41,228 41,228 0,0 -18,-136 11,-151 39,-38 25,-44 50,-32 26,13 130,50 221,-8z"/>
     <path class="fil0" d="M611 750c0,0 37,-60 92,-18"/>
     <path class="fil13" d="M614 751c-2,3 -3,5 -6,4 -2,-2 -2,-4 0,-7 -2,0 33,-65 97,-19 3,2 4,4 2,6 -1,3 -3,2 -6,0 -50,-34 -84,12 -87,16z"/>
     <path class="fil13" d="M886 751c1,3 3,5 5,4 3,-2 2,-4 1,-7 1,0 -34,-65 -98,-19 -2,2 -4,4 -2,6 2,3 4,2 6,0 50,-34 84,12 88,16z"/>
     <g>
      <ellipse class="fil14" cx="673" cy="804" rx="17" ry="21"/>
      <ellipse class="fil15" cx="680" cy="794" rx="6" ry="7"/>
     </g>
     <g>
      <ellipse class="fil14" cx="826" cy="804" rx="17" ry="21"/>
      <ellipse class="fil15" cx="832" cy="794" rx="6" ry="7"/>
     </g>
     <path class="fil16" d="M832 883c-1,1 0,3 2,7 -14,15 -40,37 -81,38 -43,1 -68,-19 -83,-34 3,-3 3,-6 3,-6 -1,-1 -4,1 -6,5 -3,3 -4,7 -3,7 1,1 2,0 5,-3 5,5 25,36 83,35 59,-2 78,-35 84,-40 2,3 4,4 4,3 1,-1 0,-4 -2,-7 -3,-3 -5,-6 -6,-5z"/>
     <path class="fil7" d="M872 1313c0,0 148,-54 188,-48 39,6 94,82 23,104 -72,23 -198,-7 -198,-7 0,0 -100,28 -120,16 -20,-11 -15,-30 -15,-30l42 -59c0,0 13,-10 29,0 16,10 51,25 51,24z"/>
     <path class="fil7" d="M628 1313c0,0 -149,-54 -188,-48 -40,6 -95,82 -24,104 72,23 198,-7 198,-7 0,0 100,28 120,16 20,-11 15,-30 15,-30l-42 -59c0,0 -13,-10 -29,0 -16,10 -50,25 -50,24z"/>
     <path class="fil17" d="M493 1406l514 0 24 -339c1,-14 -12,-26 -26,-26l-510 0c-14,0 -27,12 -26,26l24 339z"/>
     <rect class="fil18" x="488" y="1378" width="523.122" height="27.6559" rx="4" ry="5"/>
     <rect class="fil19" x="702" y="1176" width="95.9336" height="95.9336" rx="12" ry="12"/>
     <path class="fil20" d="M763 1200c11,0 21,6 28,14l-6 3 -7 4c-3,-4 -9,-6 -15,-6 -11,0 -21,9 -21,21 0,12 10,21 21,21 6,0 12,-2 15,-6l7 4 6 3c-7,8 -17,14 -28,14 -19,0 -35,-16 -35,-36 0,-20 16,-36 35,-36z"/>
     <g>
      <path class="fil21" d="M1248 432l-69 -72c-3,-2 -13,-1 -13,-1l-114 175c-2,3 -2,7 0,9l64 73c1,1 11,5 15,-1l117 -173c2,-3 2,-7 0,-10z"/>
      <rect class="fil17" transform="matrix(-0.0173408 -0.0180186 -0.0137176 0.0202539 1244.03 436.893)" width="4475" height="9050" rx="250" ry="250"/>
     </g>
     <g>
      <path class="fil22" d="M1226 471l-1 0c0,-1 -1,0 -2,1l-5 7c0,0 0,1 1,1l0 0c0,0 1,0 1,-1l5 -7c1,-1 1,-1 1,-1z"/>
      <rect class="fil18" transform="matrix(-0.0186018 -0.00355608 -0.0097551 0.0144033 1226.46 471.203)" width="113" height="644" rx="56" ry="56"/>
     </g>
     <g>
      <path class="fil22" d="M1215 486l0 0c-1,0 -2,0 -2,1l-5 7c0,1 0,1 1,1l0 1c0,0 1,-1 1,-1l5 -8c0,0 0,-1 0,-1z"/>
      <rect class="fil18" transform="matrix(-0.0186018 -0.00355608 -0.0097551 0.0144033 1216.11 486.487)" width="113" height="644" rx="56" ry="56"/>
     </g>
     <rect class="fil14" transform="matrix(-0.0165556 -0.0168323 -0.0110534 0.0163202 1231.87 447.51)" width="4475" height="9050" rx="182" ry="182"/>
     <circle class="fil14" transform="matrix(-0.00178288 -0.01216 -0.0105401 0.00511855 1086.86 565.887)" r="550"/>
     <circle class="fil14" transform="matrix(-0.000326768 -0.00183225 -0.00157144 0.00082409 1193.53 398.616)" r="550"/>
     <rect class="fil14" transform="matrix(-0.00263657 -0.00276166 -4.89202E-005 7.72696E-005 1207.84 413.01)" width="4475" height="9050" rx="2238" ry="2238"/>
     <g>
      <path class="fil23" d="M193 538c0,0 4,-26 -3,-37 -7,-12 112,-56 117,-66 57,-49 75,-24 70,13 -6,39 -58,103 -87,135 -29,32 -28,52 -48,50 -20,-2 -64,-22 -80,-46 -16,-23 23,-7 39,-31 7,-11 8,-18 5,-17 -3,2 -5,4 -13,-1z"/>
      <g style="clip-path:url(#id4)">
       <g>
        <path id="1" class="fil24" d="M234 632c0,0 11,-2 20,-14 9,-13 27,-40 41,-53 32,-27 86,-111 75,-143 -2,-4 -4,-8 -5,-10 -7,-11 -13,-12 -19,-18 -8,-9 33,15 36,32 3,16 -16,74 -32,97 -15,23 -74,78 -81,93 -8,14 -18,22 -35,16z"/>
        <path class="fil14" d="M165 567c-1,1 -10,12 -2,12 9,1 36,5 48,-19 12,-24 -5,-22 -5,-20 0,7 -15,-4 -17,-2 -3,1 -24,28 -24,29z"/>
       </g>
      </g>
      <path class="fil0" d="M193 538c0,0 4,-26 -3,-37 -7,-12 112,-56 117,-66 57,-49 75,-24 70,13 -6,39 -58,103 -87,135 -29,32 -28,52 -48,50 -20,-2 -64,-22 -80,-46 -16,-23 23,-7 39,-31 7,-11 8,-18 5,-17 -3,2 -5,4 -13,-1z"/>
      <path class="fil17" d="M181 607c0,0 7,0 21,-18 0,0 2,-2 5,1 3,3 9,9 8,11 -2,3 -11,15 -17,16 -6,2 -17,-8 -17,-10z"/>
      <path class="fil25" d="M242 508c0,0 -13,-29 -17,-31 -5,-3 5,-9 9,-5 3,4 18,26 17,30 -1,4 -1,8 -9,6z"/>
      <path class="fil25" d="M256 498c0,0 -11,-27 -15,-29 -5,-2 5,-7 8,-4 3,4 17,24 16,28 -1,4 -1,7 -9,5z"/>
      <path class="fil25" d="M271 485c0,0 -10,-22 -14,-24 -3,-2 5,-6 7,-3 3,3 15,20 14,23 -1,3 -1,6 -7,4z"/>
      <path class="fil25" d="M291 476c0,0 -13,-21 -17,-23 -3,-1 4,-7 7,-4 3,3 17,18 16,22 0,3 1,6 -6,5z"/>
      <path class="fil25" d="M303 465c0,0 -11,-18 -14,-19 -3,-1 3,-6 6,-4 2,2 14,16 14,19 -1,3 0,5 -6,4z"/>
      <path class="fil17" d="M258 515l23 47c0,0 11,-4 11,-10 0,-6 -23,-42 -24,-47 -1,-6 -10,11 -10,10z"/>
      <path class="fil17" d="M295 549c0,0 10,-3 11,-7 1,-3 2,-56 4,-58 2,-3 -12,4 -13,10 -1,5 -1,52 -2,55z"/>
     </g>
     <g>
      <path class="fil23" d="M285 660c0,0 20,-18 22,-32 1,-14 127,27 137,22 78,-2 77,30 48,57 -30,28 -114,45 -158,52 -44,8 -57,24 -71,10 -15,-14 -38,-60 -36,-90 3,-29 24,10 53,0 12,-4 17,-9 15,-10 -4,0 -7,0 -10,-9z"/>
      <g style="clip-path:url(#id5)">
       <g>
        <path id="1" class="fil24" d="M256 763c0,0 10,5 26,1 16,-4 48,-14 68,-15 43,-2 142,-34 154,-67 1,-6 1,-9 2,-13 1,-13 -3,-18 -4,-26 0,-13 17,33 9,49 -9,15 -62,50 -89,58 -27,9 -111,15 -126,22 -16,7 -29,6 -40,-9z"/>
        <path class="fil14" d="M243 666c-1,-1 -15,2 -9,8 6,6 26,27 51,16 25,-12 10,-22 9,-21 -5,7 -10,-11 -13,-12 -3,-1 -37,7 -38,9z"/>
       </g>
      </g>
      <path class="fil0" d="M285 660c0,0 20,-18 22,-32 1,-14 127,27 137,22 78,-2 77,30 48,57 -30,28 -114,45 -158,52 -44,8 -57,24 -71,10 -15,-14 -38,-60 -36,-90 3,-29 24,10 53,0 12,-4 17,-9 15,-10 -4,0 -7,0 -10,-9z"/>
      <path class="fil17" d="M231 708c0,0 5,5 28,-1 0,0 3,0 4,4 0,5 1,13 -2,14 -3,2 -17,5 -24,2 -6,-2 -8,-17 -6,-19z"/>
      <path class="fil25" d="M344 667c0,0 8,-31 6,-36 -2,-5 10,-3 11,2 0,6 -2,33 -6,36 -4,2 -6,6 -11,-2z"/>
      <path class="fil25" d="M362 669c0,0 8,-29 6,-34 -2,-4 9,-3 9,2 1,5 -1,31 -5,33 -3,3 -5,6 -10,-1z"/>
      <path class="fil25" d="M382 668c0,0 7,-25 5,-28 -2,-4 8,-3 8,1 0,5 -1,26 -4,28 -3,2 -5,5 -9,-1z"/>
      <path class="fil25" d="M404 673c0,0 4,-25 2,-29 -2,-3 7,-3 8,1 1,4 2,26 -1,28 -2,3 -4,6 -9,0z"/>
      <path class="fil25" d="M421 673c0,0 3,-22 2,-25 -2,-3 6,-3 7,1 0,3 1,22 -1,24 -2,2 -3,4 -8,0z"/>
      <path class="fil17" d="M352 684l-12 52c0,0 12,4 16,0 3,-5 8,-49 11,-54 3,-5 -15,2 -15,2z"/>
      <path class="fil17" d="M360 735c0,0 11,4 14,2 3,-2 37,-44 41,-45 3,-1 -12,-4 -17,0 -4,4 -35,41 -38,43z"/>
     </g>
     <path class="fil26" d="M1020 1026c-4,0 -8,-3 -8,-7 0,-5 3,-8 8,-8 28,-1 46,13 54,39 2,4 -1,9 -5,10 -4,1 -8,-1 -9,-5 -6,-19 -19,-30 -40,-29z"/>
     <path class="fil27" d="M1022 995c-5,0 -8,-3 -8,-8 0,-4 4,-8 8,-8 20,1 37,7 51,17 13,9 23,24 30,42 2,4 0,9 -4,11 -5,1 -9,-1 -11,-5 -6,-16 -14,-27 -25,-35 -11,-8 -25,-13 -41,-14z"/>
     <path class="fil28" d="M1022 966c-4,0 -7,-3 -7,-7 0,-5 3,-8 8,-8 27,0 49,7 67,20 18,13 32,33 40,58 2,4 0,9 -4,10 -5,2 -9,-1 -10,-5 -8,-22 -20,-39 -35,-50 -15,-12 -35,-17 -59,-18z"/>
     <path class="fil29" d="M558 503c-4,-9 -4,-15 2,-21 6,-8 17,-9 23,-3 12,10 12,33 13,56 -23,4 -46,7 -58,-3 -7,-6 -7,-16 -1,-24 6,-6 12,-7 21,-5z"/>
     <path class="fil29" d="M511 372c7,-18 15,-27 34,-30 21,-3 40,10 42,28 5,34 -28,73 -61,112 -43,-29 -85,-57 -90,-91 -2,-18 13,-36 34,-39 18,-2 29,5 41,20z"/>
     <path class="fil29" d="M551 573c1,-5 3,-7 8,-8 5,-2 10,1 11,6 2,8 -5,18 -13,28 -11,-6 -22,-12 -24,-20 -1,-4 2,-9 7,-10 5,-1 8,0 11,4z"/>
     <path class="fil29" d="M905 441c2,-10 6,-15 15,-18 10,-2 20,3 23,12 4,16 -10,38 -24,59 -23,-11 -46,-23 -51,-39 -2,-9 4,-19 15,-22 9,-2 15,1 22,8z"/>
     <path class="fil29" d="M1024 335c18,-12 31,-15 50,-6 21,11 30,34 21,52 -17,34 -71,48 -126,63 -20,-53 -41,-105 -24,-138 9,-19 33,-25 54,-15 19,10 24,23 25,44z"/>
     <path class="fil29" d="M941 522c4,-3 7,-4 12,-2 5,2 8,7 6,12 -3,9 -16,14 -29,18 -6,-12 -13,-24 -9,-33 1,-5 7,-7 13,-5 4,2 6,5 7,10z"/>
     <path class="fil30" d="M1164 794c-33,-12 -21,58 -63,51 0,0 -47,-17 -67,-23 -19,-7 -2,-59 -2,-67 2,-16 -17,-5 -9,-27 2,-5 12,-2 12,-2 0,0 91,33 100,36 9,3 7,7 11,9 3,3 43,17 47,17 5,0 6,-4 14,0 9,3 100,35 100,35 0,0 10,4 8,10 -7,22 -15,1 -24,15 -4,6 -24,56 -43,49 -20,-6 -67,-23 -67,-23 -37,-22 17,-68 -17,-80z"/>
     <g>
      <path class="fil31" d="M1042 747c-7,11 -14,53 -9,64 1,3 2,3 3,4 18,6 56,22 68,24 13,1 44,-53 30,-63 -14,-10 -66,-27 -85,-29 -3,0 -6,0 -7,0z"/>
      <path class="fil31" d="M1288 835c0,13 -22,50 -33,55 -2,2 -3,2 -4,1 -18,-6 -58,-18 -68,-24 -11,-7 -1,-69 16,-67 17,1 69,20 84,30 3,2 5,4 5,5z"/>
     </g>
     <path class="fil32" d="M1280 846c-6,14 4,-9 -7,-17 -4,-2 15,1 7,17z"/>
     <path class="fil32" d="M1131 793c-7,14 4,-10 -8,-17 -3,-2 16,0 8,17z"/>
    </g>
   </g>
   <rect class="fil0" width="1500" height="1500"/>
  </g>
 </g>
</svg>
