<?xml version="1.0" encoding="UTF-8"?>
<!DOCTYPE svg PUBLIC "-//W3C//DTD SVG 1.1//EN" "http://www.w3.org/Graphics/SVG/1.1/DTD/svg11.dtd">
<!-- Creator: CorelDRAW X7 -->
<svg xmlns="http://www.w3.org/2000/svg" xml:space="preserve" width="1500px" height="1500px" version="1.1" style="shape-rendering:geometricPrecision; text-rendering:geometricPrecision; image-rendering:optimizeQuality; fill-rule:evenodd; clip-rule:evenodd"
viewBox="0 0 1500 1500"
 xmlns:xlink="http://www.w3.org/1999/xlink">
 <defs>
  <style type="text/css">
   <![CDATA[
    .fil0 {fill:none}
    .fil30 {fill:#FDFDFE}
    .fil29 {fill:#006FA6}
    .fil7 {fill:#0077B3}
    .fil8 {fill:#0081C2}
    .fil9 {fill:#0081C2}
    .fil1 {fill:#0083C4}
    .fil6 {fill:#008FD7}
    .fil16 {fill:#0B1930}
    .fil15 {fill:#0E2242}
    .fil2 {fill:#2CB5F5}
    .fil3 {fill:#4CC6FF}
    .fil18 {fill:#8B4439}
    .fil26 {fill:#996633}
    .fil25 {fill:#AB753F}
    .fil22 {fill:#BA8148}
    .fil24 {fill:#E0E089}
    .fil27 {fill:#E6E6E6}
    .fil4 {fill:#EBC800}
    .fil14 {fill:#F0BC95}
    .fil11 {fill:#F0BC95}
    .fil13 {fill:#F7CCAA}
    .fil20 {fill:gold}
    .fil5 {fill:gold}
    .fil12 {fill:#FFE1BD}
    .fil10 {fill:#FFE1BD}
    .fil23 {fill:#FFFF99}
    .fil19 {fill:white}
    .fil17 {fill:#0E2242;fill-rule:nonzero}
    .fil28 {fill:#1A1A1A;fill-rule:nonzero}
    .fil21 {fill:gold;fill-rule:nonzero}
   ]]>
  </style>
     <clipPath id="id0">
      <path d="M506 992c-19,22 -13,4 -25,24 -13,21 -78,196 -90,227 -4,9 -6,37 20,43 60,13 195,-19 326,-18 129,0 253,34 319,19 32,-8 27,-34 23,-44 -12,-31 -76,-206 -89,-227 -13,-20 -7,-2 -26,-24 -110,-125 -349,-123 -458,0z"/>
     </clipPath>
     <clipPath id="id1">
      <path d="M916 680c23,1 38,21 33,45 -5,32 -37,32 -29,65 2,11 -21,24 -30,19 -25,-16 -28,-62 -24,-88 5,-24 27,-42 50,-41z"/>
     </clipPath>
     <clipPath id="id2">
      <path d="M555 680c-23,1 -38,21 -33,45 5,32 37,32 29,65 -2,11 21,24 29,19 25,-16 29,-62 24,-88 -4,-24 -26,-42 -49,-41z"/>
     </clipPath>
     <clipPath id="id3">
      <path d="M844 588c0,0 12,23 30,38 19,14 22,89 22,143 0,0 68,-118 12,-219 0,0 56,-100 13,-171 0,0 -56,38 -85,46 0,0 15,-23 14,-36 -81,54 -295,-31 -313,164 -15,156 39,216 39,216 0,0 -17,-129 11,-143 37,-36 23,-42 47,-30 24,12 124,47 210,-8z"/>
     </clipPath>
     <clipPath id="id4">
      <path d="M664 814c-21,-9 -33,-3 -35,6 -24,113 237,111 213,0 -2,-9 -14,-15 -35,-6 -33,14 -111,14 -143,0z"/>
     </clipPath>
      <clipPath id="id5">
       <path d="M733 963l224 57c4,0 -1,6 -17,10l-207 52 -222 -56c-3,-1 1,-6 3,-7l219 -56z"/>
      </clipPath>
       <clipPath id="id6">
        <path d="M654 984l213 57 0 7 -33 8 0 -6 -215 -58 35 -8z"/>
       </clipPath>
       <clipPath id="id7">
        <path d="M733 963l224 57c4,0 -1,6 -17,10l-207 52 -222 -56c-3,-1 1,-6 3,-7l219 -56z"/>
       </clipPath>
      <clipPath id="id8">
       <path d="M518 1019l218 55 0 340 -219 -55c-5,-1 -9,-6 -9,-11l0 -321c0,-6 5,-9 10,-8z"/>
      </clipPath>
       <clipPath id="id9">
       </clipPath>
       <clipPath id="id10">
        <path d="M518 1019l218 55 0 340 -219 -55c-5,-1 -9,-6 -9,-11l0 -321c0,-6 5,-9 10,-8z"/>
       </clipPath>
      <clipPath id="id11">
       <path d="M953 1020l-218 55 0 340 219 -56c5,-1 8,-6 8,-11l0 -321c0,-5 -4,-9 -9,-7z"/>
      </clipPath>
       <clipPath id="id12">
        <path d="M867 1041l0 39 -33 9 0 -39 -1 0 34 -9z"/>
       </clipPath>
       <clipPath id="id13">
        <path d="M953 1020l-218 55 0 340 219 -56c5,-1 8,-6 8,-11l0 -321c0,-5 -4,-9 -9,-7z"/>
       </clipPath>
 </defs>
 <g id="Layer_x0020_1">
  <metadata id="CorelCorpID_0Corel-Layer"/>
  <rect class="fil0" width="1500" height="1500"/>
  <g id="_2264102312544">
   <rect class="fil0" width="1500" height="1500"/>
   <g>
    <g>
     <circle class="fil1" cx="735" cy="700" r="615"/>
     <circle class="fil2" cx="735" cy="752" r="562"/>
     <circle class="fil3" cx="735" cy="825" r="490"/>
    </g>
    <g>
     <polygon class="fil4" points="348,491 282,433 246,323 246,322 245,321 245,320 244,319 390,461 403,451 403,451 404,450 405,449 406,448 406,447 407,446 407,445 408,444 408,443 407,441 407,439 406,437 405,436 762,808 762,809 763,810 763,810 763,811 763,812 763,812 763,813 763,813 762,814 762,814 762,814 761,814 761,815 724,842 738,886 738,887 738,887 738,888 738,889 738,889 737,890 736,890 736,891 735,891 735,891 734,891 734,891 733,891 733,891 732,890 692,865 657,890 657,891 656,891 655,891 654,891 653,891 653,890 132,641 134,641 136,642 137,642 139,642 141,641 143,640 146,638 128,629 128,629 146,638 237,572 343,639 344,638 345,637 346,635 346,633 346,631 346,629 310,519 "/>
     <path class="fil5" d="M246 323l36 110 116 0c5,0 10,4 10,10 0,3 -2,6 -5,8l0 0 -93 68 36 110c1,5 -2,11 -7,13 -3,1 -7,0 -9,-2l-93 -68 -94 68c-4,3 -11,2 -14,-2 -2,-3 -2,-6 -1,-9l0 0 36 -110 -94 -68c-5,-3 -6,-10 -3,-14 3,-3 6,-4 9,-4l115 0 36 -110c2,-6 7,-8 13,-7 3,1 5,4 6,7z"/>
    </g>
    <g>
     <path class="fil4" d="M1130 438l57 -65 35 -110 1 -1 0 -1 1 -1 -124 156 -35 -25 -334 462 35 25 -13 41 -1 1 0 0 0 1 1 1 0 0 1 1 0 0 1 1 0 0 1 0 0 0 1 0 0 0 1 -1 0 0 0 0 35 -25 34 25 1 0 1 1 1 0 0 0 1 0 1 -1 505 -342 -2 1 -2 0 -2 0 -2 0 -2 0 -1 -1 -1 -1 16 -11 0 0 -16 11 -80 -58 154 -131 -94 68 -67 58 -6 -5 -93 68 -1 1 -1 0 -1 1 -1 0 -2 0 -1 0 -1 0 -2 0 -1 -1 -2 -1 -1 -1 -1 -2 -1 -2 0 -2 0 -2 0 -2 36 -110 -29 -21zm-400 412l0 0 0 1 0 0 0 1 0 0 0 0 1 1 0 0 334 -462 -1 0 -1 -1 0 -1 -1 -1 0 -1 -1 -1 0 -2 0 -1 0 -2 1 -2 1 -1 -333 470 0 1 0 0 0 1z"/>
     <path class="fil5" d="M1222 263l-35 110 -116 0c-5,0 -10,5 -10,10 0,3 2,6 4,8l0 0 94 68 -36 110c-2,6 1,11 6,13 4,1 7,0 10,-2l93 -68 94 69c4,3 10,2 14,-3 2,-2 2,-6 1,-9l0 0 -36 -110 94 -68c4,-3 5,-9 2,-14 -2,-3 -5,-4 -9,-4l-115 0 -35 -110c-2,-5 -8,-8 -13,-6 -3,1 -6,3 -7,6z"/>
    </g>
    <g>
     <path class="fil4" d="M700 937l8 24 39 10 0 0 1 0 0 0 1 1 0 0 0 1 0 1 0 0 0 0 0 1 0 0 0 0 -1 1 0 0 0 0 0 0 -29 21 11 33 0 1 0 0 0 1 0 0 0 1 -1 0 0 1 -1 0 0 0 0 0 -417 2 1 0 1 0 0 0 -153 0 1 0 1 -1 2 0 71 -52 70 4 -15 -44 65 -47 -86 -18 -27 -84 0 -1 -1 -1 0 0 -1 -1 0 -1 -1 0 -1 -1 -1 0 461 146 1 0 0 0 0 1 0 0 1 0 0 1 0 0 0 0zm30 93l-56 0 0 0 56 0z"/>
     <path class="fil5" d="M242 794l27 84 88 -1c4,0 8,4 8,8 0,3 -2,5 -4,6l0 0 -71 52 28 83c1,4 -1,9 -5,10 -3,1 -6,0 -8,-2l-70 -51 -71 52c-4,2 -8,1 -11,-2 -1,-2 -2,-5 -1,-7l0 0 27 -83 -71 -52c-3,-2 -4,-7 -1,-10 1,-3 4,-4 6,-4l88 1 27 -84c1,-4 5,-6 9,-5 3,1 4,3 5,5z"/>
    </g>
    <g>
     <polygon class="fil4" points="712,916 700,951 655,957 654,957 653,957 653,958 652,958 652,959 652,959 652,960 652,961 652,961 652,961 652,962 652,962 653,963 653,963 653,963 653,963 688,988 675,1029 675,1030 675,1031 675,1031 675,1032 675,1032 676,1033 676,1033 677,1034 678,1034 1162,1110 1161,1110 1159,1109 1157,1108 1156,1107 1155,1105 1154,1103 1154,1101 1154,1099 1154,1097 1158,1085 1363,1110 1361,1110 1359,1109 1357,1108 1263,1040 1175,1035 1190,987 1097,919 1097,919 1096,918 1095,918 1094,917 1094,916 1093,915 1093,915 1218,901 1254,791 1254,790 1255,789 1255,788 1256,787 1257,786 1258,786 1259,785 1260,785 714,913 714,914 713,914 713,914 712,914 712,915 712,915 712,915 "/>
     <path class="fil5" d="M1254 791l-36 110 -116 0c-5,0 -10,5 -10,10 0,3 2,6 5,8l0 0 93 68 -36 110c-1,6 2,11 7,13 3,1 7,0 9,-2l93 -68 94 68c4,4 11,3 14,-2 2,-2 2,-6 1,-9l0 0 -36 -110 94 -68c5,-3 6,-9 3,-14 -3,-3 -6,-4 -9,-4l-115 0 -36 -110c-2,-5 -7,-8 -13,-6 -3,1 -5,3 -6,6z"/>
    </g>
    <path class="fil6" d="M506 992c-19,22 -13,4 -25,24 -13,21 -78,196 -90,227 -4,9 -6,37 20,43 60,13 195,-19 326,-18 129,0 253,34 319,19 32,-8 27,-34 23,-44 -12,-31 -76,-206 -89,-227 -13,-20 -7,-2 -26,-24 -110,-125 -349,-123 -458,0z"/>
    <g style="clip-path:url(#id0)">
     <g>
      <path id="1" class="fil7" d="M1028 1208c19,1 33,1 67,45 33,44 -61,45 -61,45 0,0 -120,-59 -6,-90z"/>
      <path class="fil8" d="M595 922c0,0 31,8 49,32 18,24 42,51 51,59 44,42 76,3 83,-2 6,-6 26,-28 36,-60 11,-32 64,-32 61,-34 -2,-1 -145,-52 -244,-3 0,0 -22,-23 -36,8z"/>
      <path class="fil7" d="M434 1209c0,0 -20,-6 -67,52 -46,57 61,52 61,52 0,0 119,-68 6,-104z"/>
      <path class="fil9" d="M912 1340c0,0 19,-226 22,-263 2,-37 -3,0 -8,9 -4,8 -14,99 -38,113 -24,14 27,28 -10,52 -36,23 -70,101 -30,103 40,2 66,-15 64,-14z"/>
      <path class="fil9" d="M555 1340c0,0 -19,-226 -22,-263 -2,-37 3,0 8,9 4,8 14,99 38,113 24,14 -27,28 10,52 36,23 70,101 30,103 -40,2 -66,-15 -64,-14z"/>
     </g>
    </g>
    <path class="fil0" d="M506 992c-19,22 -13,4 -25,24 -13,21 -78,196 -90,227 -4,9 -6,37 20,43 60,13 195,-19 326,-18 129,0 253,34 319,19 32,-8 27,-34 23,-44 -12,-31 -76,-206 -89,-227 -13,-20 -7,-2 -26,-24 -110,-125 -349,-123 -458,0z"/>
    <path class="fil10" d="M916 680c23,1 38,21 33,45 -5,32 -37,32 -29,65 2,11 -21,24 -30,19 -25,-16 -28,-62 -24,-88 5,-24 27,-42 50,-41z"/>
    <g style="clip-path:url(#id1)">
     <g>
      <path id="1" class="fil11" d="M953 737c0,0 -4,-45 -28,-44 -23,2 -42,21 -44,46 -2,25 22,43 28,35 6,-7 18,13 28,12 10,-2 17,-50 16,-49z"/>
     </g>
    </g>
    <path class="fil0" d="M916 680c23,1 38,21 33,45 -5,32 -37,32 -29,65 2,11 -21,24 -30,19 -25,-16 -28,-62 -24,-88 5,-24 27,-42 50,-41z"/>
    <path class="fil10" d="M555 680c-23,1 -38,21 -33,45 5,32 37,32 29,65 -2,11 21,24 29,19 25,-16 29,-62 24,-88 -4,-24 -26,-42 -49,-41z"/>
    <g style="clip-path:url(#id2)">
     <g>
      <path id="1" class="fil11" d="M517 737c0,0 5,-45 29,-44 23,2 42,21 44,46 2,25 -22,43 -28,35 -6,-7 -18,13 -28,12 -10,-2 -17,-50 -17,-49z"/>
     </g>
    </g>
    <path class="fil0" d="M555 680c-23,1 -38,21 -33,45 5,32 37,32 29,65 -2,11 21,24 29,19 25,-16 29,-62 24,-88 -4,-24 -26,-42 -49,-41z"/>
    <path class="fil11" d="M736 830l0 0c35,0 64,29 64,64l0 49c0,36 -56,65 -64,65 -10,0 -65,-29 -65,-65l0 -49c0,-35 29,-64 65,-64z"/>
    <path class="fil12" d="M735 941c-83,0 -142,-79 -150,-89 -6,-8 -14,-143 -14,-169 0,-100 73,-180 164,-180 91,0 165,80 165,180 0,26 -8,161 -14,169 -8,10 -67,89 -151,89z"/>
    <path class="fil13" d="M706 911c0,0 18,4 58,0 0,0 -29,25 -58,0z"/>
    <path class="fil14" d="M735 812c0,0 21,1 30,-10 0,0 2,-3 -30,-3 -32,0 -29,3 -29,3 9,11 29,10 29,10z"/>
    <path class="fil15" d="M844 588c0,0 12,23 30,38 19,14 22,89 22,143 0,0 68,-118 12,-219 0,0 56,-100 13,-171 0,0 -56,38 -85,46 0,0 15,-23 14,-36 -81,54 -295,-31 -313,164 -15,156 39,216 39,216 0,0 -17,-129 11,-143 37,-36 23,-42 47,-30 24,12 124,47 210,-8z"/>
    <g style="clip-path:url(#id3)">
     <g>
      <path id="1" class="fil16" d="M920 377c0,0 3,2 1,9 -2,7 -62,118 -105,58 0,0 -9,-9 15,-17 24,-8 89,-50 89,-50z"/>
      <path class="fil16" d="M592 436c0,0 -56,123 -20,132 37,9 34,19 57,26 24,6 -19,56 -19,56 0,0 -3,147 -33,130 -30,-18 -71,-101 -54,-148 17,-46 -34,-69 -4,-100 30,-31 -12,-50 73,-96z"/>
      <path class="fil16" d="M843 589l1 -2c0,0 27,-8 63,-37 35,-29 45,95 36,118 -8,23 -27,122 -52,111 -25,-11 -22,-135 -48,-190z"/>
     </g>
    </g>
    <path class="fil0" d="M844 588c0,0 12,23 30,38 19,14 22,89 22,143 0,0 68,-118 12,-219 0,0 56,-100 13,-171 0,0 -56,38 -85,46 0,0 15,-23 14,-36 -81,54 -295,-31 -313,164 -15,156 39,216 39,216 0,0 -17,-129 11,-143 37,-36 23,-42 47,-30 24,12 124,47 210,-8z"/>
    <path class="fil0" d="M604 693c0,0 34,-58 87,-17"/>
    <path class="fil17" d="M606 694c-1,2 -3,5 -5,3 -3,-1 -2,-4 -1,-6 -1,0 32,-62 93,-19 3,2 4,4 2,7 -2,2 -3,1 -6,-1 -47,-32 -80,12 -83,16z"/>
    <path class="fil17" d="M865 694c1,2 3,5 5,3 3,-1 2,-4 1,-6 1,0 -32,-62 -93,-19 -3,2 -4,4 -2,7 1,2 3,1 5,-1 48,-32 80,12 84,16z"/>
    <path class="fil18" d="M664 814c-21,-9 -33,-3 -35,6 -24,113 237,111 213,0 -2,-9 -14,-15 -35,-6 -33,14 -111,14 -143,0z"/>
    <g style="clip-path:url(#id4)">
     <g>
      <path id="1" class="fil19" d="M597 845c0,0 36,-22 50,-14 30,18 149,18 179,0 14,-8 50,14 50,14 -1,1 -15,-33 -15,-33l-34 -17 -181 0 -34 17c0,0 -14,34 -15,33z"/>
     </g>
    </g>
    <path class="fil0" d="M664 814c-21,-9 -33,-3 -35,6 -24,113 237,111 213,0 -2,-9 -14,-15 -35,-6 -33,14 -111,14 -143,0z"/>
    <path class="fil0" d="M643 733c0,0 26,-14 52,9"/>
    <path class="fil20" d="M662 692l9 27 26 8c2,0 3,2 2,3 0,1 -1,2 -2,2l-26 8 -9 27c0,1 -2,2 -3,2 -1,-1 -1,-1 -2,-2l-8 -27 -27 -8c-1,0 -2,-2 -1,-3 0,-1 1,-2 1,-2l27 -8 8 -27c1,-1 2,-2 4,-2 1,0 1,1 1,2z"/>
    <path class="fil21" d="M800 719l8 -27c1,-1 1,-2 2,-2 2,0 3,1 4,2l8 27 26 8c1,0 2,1 2,2 1,1 0,3 -2,3l-26 8 -8 27c-1,1 -1,1 -2,2 -2,0 -3,-1 -4,-2l-8 -27 -26 -8c-1,0 -2,-1 -2,-2 -1,-1 0,-3 2,-3l26 -8z"/>
    <g>
     <path class="fil22" d="M733 963l224 57c4,0 -1,6 -17,10l-207 52 -222 -56c-3,-1 1,-6 3,-7l219 -56z"/>
     <g style="clip-path:url(#id5)">
      <g>
       <polygon id="1" class="fil23" points="620,975 867,1041 867,1080 834,1089 834,1050 579,982 "/>
      </g>
      <g style="clip-path:url(#id6)">
       <g>
        <polygon id="2" class="fil24" points="830,1051 871,1040 871,1085 829,1096 "/>
       </g>
      </g>
      <g style="clip-path:url(#id7)">
       <polygon class="fil0" points="620,975 867,1041 867,1080 834,1089 834,1050 579,982 "/>
      </g>
     </g>
     <path class="fil0" d="M733 963l224 57c4,0 -1,6 -17,10l-207 52 -222 -56c-3,-1 1,-6 3,-7l219 -56z"/>
     <path class="fil25" d="M518 1019l218 55 0 340 -219 -55c-5,-1 -9,-6 -9,-11l0 -321c0,-6 5,-9 10,-8z"/>
     <g style="clip-path:url(#id8)">
      <g>
       <polygon id="1" class="fil23" points="620,975 867,1041 867,1080 834,1089 834,1050 579,982 "/>
      </g>
      <g style="clip-path:url(#id9)">
       <g>
        <polygon id="2" class="fil24" points="830,1051 871,1040 871,1085 829,1096 "/>
       </g>
      </g>
      <g style="clip-path:url(#id10)">
       <polygon class="fil0" points="620,975 867,1041 867,1080 834,1089 834,1050 579,982 "/>
      </g>
     </g>
     <path class="fil0" d="M518 1019l218 55 0 340 -219 -55c-5,-1 -9,-6 -9,-11l0 -321c0,-6 5,-9 10,-8z"/>
     <path class="fil26" d="M953 1020l-218 55 0 340 219 -56c5,-1 8,-6 8,-11l0 -321c0,-5 -4,-9 -9,-7z"/>
     <g style="clip-path:url(#id11)">
      <g>
       <polygon id="1" class="fil23" points="620,975 867,1041 867,1080 834,1089 834,1050 579,982 "/>
      </g>
      <g style="clip-path:url(#id12)">
       <g>
        <polygon id="2" class="fil24" points="830,1051 871,1040 871,1085 829,1096 "/>
       </g>
      </g>
      <g style="clip-path:url(#id13)">
       <polygon class="fil0" points="620,975 867,1041 867,1080 834,1089 834,1050 579,982 "/>
      </g>
     </g>
     <path class="fil0" d="M953 1020l-218 55 0 340 219 -56c5,-1 8,-6 8,-11l0 -321c0,-5 -4,-9 -9,-7z"/>
    </g>
    <g>
     <rect class="fil27" transform="matrix(0.236209 0.0644338 -0 0.268602 522.526 1039.22)" width="356" height="144" rx="17" ry="17"/>
     <path class="fil28" d="M527 1050c-1,-1 -2,-2 -2,-2 0,-1 1,-2 2,-2l75 21c1,0 2,1 2,2 0,1 -1,1 -2,1l-75 -20z"/>
     <path class="fil28" d="M527 1059c-1,0 -2,-1 -2,-2 0,-1 1,-2 2,-1l45 12c1,0 2,1 2,2 0,1 -1,2 -2,1l-45 -12z"/>
     <path class="fil28" d="M526 1068c-1,0 -1,-1 -1,-2 0,-1 0,-1 1,-1l47 13c1,0 1,1 1,2 0,1 0,1 -1,1l-47 -13z"/>
     <g>
      <rect class="fil29" transform="matrix(0.00160997 0.000439173 -0 0.00160997 582.033 1068.58)" width="11200" height="11200" rx="1350" ry="1350"/>
      <path class="fil30" d="M594 1076c2,1 4,2 5,4l-1 1 -2 0c0,-1 -1,-2 -2,-2 -3,0 -4,1 -4,3 0,2 1,4 4,5 1,0 2,0 2,0l2 1 1 1c-1,1 -3,1 -5,1 -4,-1 -7,-5 -7,-9 0,-3 3,-6 7,-5z"/>
     </g>
    </g>
    <path class="fil10" d="M988 1197c-26,-5 -52,-5 -76,0 -10,2 -18,7 -18,19l0 0c0,10 5,15 11,19 -8,2 -15,11 -15,22l0 0c0,11 7,21 15,23 -7,3 -11,11 -11,21l0 0c0,10 6,20 14,22 -5,3 -8,9 -8,17l0 0c0,10 7,16 15,18 21,5 42,6 63,0 19,-5 12,-20 17,-32 5,-13 11,-9 11,-25l0 0c0,-6 -2,-12 -6,-17 6,-2 10,-19 10,-27l0 0c0,-8 -4,-16 -9,-19 5,-2 5,-8 5,-24l0 0c0,-13 -8,-15 -18,-17z"/>
    <path class="fil10" d="M473 1197c28,-5 55,-5 82,0 10,2 20,7 20,19l0 0c0,10 -6,15 -13,19 10,2 17,11 17,22l0 0c0,11 -7,21 -16,23 7,3 12,11 12,21l0 0c0,10 -7,20 -16,22 5,3 9,9 9,17l0 0c0,10 -7,16 -16,18 -23,5 -45,6 -68,0 -22,-5 -13,-20 -19,-32 -6,-13 -12,-9 -12,-25l0 0c0,-6 2,-12 7,-17 -7,-2 -11,-19 -11,-27l0 0c0,-8 4,-16 9,-19 -5,-2 -5,-8 -5,-24l0 0c0,-13 9,-15 20,-17z"/>
   </g>
  </g>
 </g>
</svg>
