<?xml version="1.0" encoding="UTF-8"?>
<!DOCTYPE svg PUBLIC "-//W3C//DTD SVG 1.1//EN" "http://www.w3.org/Graphics/SVG/1.1/DTD/svg11.dtd">
<!-- Creator: CorelDRAW X7 -->
<svg xmlns="http://www.w3.org/2000/svg" xml:space="preserve" width="1200px" height="1200px" version="1.1" style="shape-rendering:geometricPrecision; text-rendering:geometricPrecision; image-rendering:optimizeQuality; fill-rule:evenodd; clip-rule:evenodd"
viewBox="0 0 1200 1200"
 xmlns:xlink="http://www.w3.org/1999/xlink">
 <defs>
  <style type="text/css">
   <![CDATA[
    .str1 {stroke:#A1A1A1;stroke-width:2.95276}
    .str2 {stroke:#0E78B5;stroke-width:2.95276}
    .str0 {stroke:#D59961;stroke-width:2.95276;stroke-linecap:round;stroke-linejoin:round}
    .fil3 {fill:none}
    .fil2 {fill:#FEFEFE}
    .fil1 {fill:#FCE0AE}
    .fil4 {fill:#EFF3F8}
    .fil5 {fill:#E1F2FC}
    .fil6 {fill:#CADCEE}
    .fil8 {fill:#91D3F5}
    .fil7 {fill:#00A2E9}
    .fil0 {fill:#91D3F5;fill-opacity:0.250980}
   ]]>
  </style>
 </defs>
 <g id="Layer_x0020_1">
  <metadata id="CorelCorpID_0Corel-Layer"/>
  <g id="_849354760">
   <g>
    <path class="fil0" d="M585 35c310,0 561,251 561,561 0,309 -251,561 -561,561 -310,0 -561,-252 -561,-561 0,-310 251,-561 561,-561z"/>
    <path class="fil0" d="M585 157c-243,0 -439,196 -439,439 0,242 196,439 439,439 242,0 439,-197 439,-439 0,-243 -197,-439 -439,-439z"/>
    <path class="fil0" d="M585 280c174,0 316,141 316,316 0,174 -142,316 -316,316 -175,0 -316,-142 -316,-316 0,-175 141,-316 316,-316z"/>
    <path class="fil0" d="M585 397c109,0 198,89 198,199 0,109 -89,198 -198,198 -110,0 -198,-89 -198,-198 0,-110 88,-199 198,-199z"/>
   </g>
   <g>
    <path class="fil1 str0" d="M956 635c46,-19 37,-10 55,-55 18,45 9,36 55,55 -46,18 -37,9 -55,54 -18,-45 -9,-36 -55,-54z"/>
    <path class="fil2" d="M1011 580c18,45 9,36 55,55 -46,18 -37,9 -55,54 0,-49 17,-47 44,-54 -28,-8 -44,-9 -44,-55z"/>
    <path class="fil3 str0" d="M956 635c46,-19 37,-10 55,-55 18,45 9,36 55,55 -46,18 -37,9 -55,54 -18,-45 -9,-36 -55,-54z"/>
   </g>
   <g>
    <path class="fil1 str0" d="M893 833c45,-18 36,-9 54,-54 18,45 10,36 55,54 -45,18 -37,10 -55,55 -18,-45 -9,-37 -54,-55z"/>
    <path class="fil2" d="M947 779c18,45 10,36 55,54 -45,18 -37,10 -55,55 0,-49 17,-48 44,-55 -27,-7 -44,-8 -44,-54z"/>
    <path class="fil3 str0" d="M893 833c45,-18 36,-9 54,-54 18,45 10,36 55,54 -45,18 -37,10 -55,55 -18,-45 -9,-37 -54,-55z"/>
   </g>
   <g>
    <path class="fil1 str0" d="M114 680c45,-18 36,-9 54,-55 18,46 10,37 55,55 -45,18 -37,9 -55,54 -18,-45 -9,-36 -54,-54z"/>
    <path class="fil2" d="M168 625c18,46 10,37 55,55 -45,18 -37,9 -55,54 0,-49 17,-47 44,-54 -27,-7 -44,-9 -44,-55z"/>
    <path class="fil3 str0" d="M114 680c45,-18 36,-9 54,-55 18,46 10,37 55,55 -45,18 -37,9 -55,54 -18,-45 -9,-36 -54,-54z"/>
   </g>
   <rect class="fil4 str1" x="348" y="626" width="473" height="359"/>
   <path class="fil5 str2" d="M336 601l497 0c8,0 14,6 14,13l0 383c0,7 -6,13 -14,13l-497 0c-7,0 -13,-6 -13,-13l0 -383c0,-7 6,-13 13,-13zm83 56l331 0 -165 114 -166 -114zm374 40l0 217 -10 -6 0 0 -148 -102 148 -102 0 0 10 -7zm-43 257l-331 0 166 -114 165 114zm-373 -40l0 -217 10 7 0 0 148 102 -148 102 0 0 -10 6z"/>
   <path class="fil5 str1" d="M419 657l331 0 -165 114 -166 -114zm374 40l0 217 -10 -6 0 0 -148 -102 148 -102 0 0 10 -7zm-43 257l-331 0 166 -114 165 114zm-373 -40l0 -217 10 7 0 0 148 102 -148 102 0 0 -10 6z"/>
   <path class="fil6" d="M419 657l331 0 -19 14 -292 0 -20 -14zm374 40l0 27 -139 95 -19 -13 148 -102 0 0 10 -7zm0 217l0 0 -10 -6 0 0 10 6zm-335 40l-39 0 166 -114 165 114 -146 -101 -146 101zm-81 -40l0 -217 10 7 0 0 9 6 0 191 -9 7 0 0 -10 6z"/>
   <path class="fil2" d="M812 601l21 0c8,0 14,6 14,13l0 383c0,7 -6,13 -14,13l-21 0c7,0 13,-6 13,-13l0 -383c0,-7 -6,-13 -13,-13zm-227 170l-166 -114 -21 0 174 122 13 -8zm208 143l-158 -108 158 -109 0 -15 -180 124 180 123 0 -15zm-374 40l166 -114 -11 -8 -176 122 21 0zm-42 -40l0 -217 -22 -14 1 245 21 -14z"/>
   <path class="fil3 str2" d="M336 601l497 0c8,0 14,6 14,13l0 383c0,7 -6,13 -14,13l-497 0c-7,0 -13,-6 -13,-13l0 -383c0,-7 6,-13 13,-13zm83 56l331 0 -165 114 -166 -114zm374 40l0 217 -10 -6 0 0 -148 -102 148 -102 0 0 10 -7zm-43 257l-331 0 166 -114 165 114zm-373 -40l0 -217 10 7 0 0 148 102 -148 102 0 0 -10 6z"/>
   <line class="fil3 str2" x1="585" y1="431" x2="585" y2= "1010" />
   <line class="fil3 str2" x1="855" y1="432" x2="739" y2= "1010" />
   <line class="fil3 str2" x1="944" y1="390" x2="847" y2= "699" />
   <line class="fil3 str2" x1="314" y1="432" x2="431" y2= "1010" />
   <line class="fil3 str2" x1="226" y1="390" x2="323" y2= "699" />
   <path class="fil5 str2" d="M585 431c-31,-28 -80,-46 -135,-46 -56,0 -105,18 -136,47 -21,-20 -52,-35 -88,-42 32,-89 129,-262 359,-262 229,0 327,173 359,262 -36,7 -67,22 -89,42 -31,-29 -80,-47 -135,-47 -55,0 -104,18 -135,46z"/>
   <path class="fil7 str2" d="M585 431c-17,-15 -40,-28 -66,-36 0,-2 0,-4 0,-5 0,-214 66,-262 66,-262 0,0 65,48 65,262 0,1 0,3 0,5 -26,8 -48,21 -65,36z"/>
   <path class="fil7 str2" d="M314 432c-21,-20 -52,-35 -88,-42 32,-89 129,-262 359,-262 -210,0 -271,304 -271,304z"/>
   <path class="fil2" d="M822 408c12,7 24,15 33,24 0,0 -59,-297 -263,-304 147,25 211,211 230,280z"/>
   <path class="fil7 str2" d="M855 432c22,-20 53,-35 89,-42 -32,-89 -130,-262 -359,-262 210,0 270,304 270,304z"/>
   <path class="fil8" d="M920 396c7,-3 15,-5 24,-6 -31,-86 -123,-250 -335,-262 188,19 250,134 311,268z"/>
   <path class="fil8" d="M586 129c9,7 64,63 64,261 0,1 0,3 0,5 -8,3 -17,6 -24,10 -2,-148 -22,-231 -40,-276z"/>
   <path class="fil2" d="M495 389c2,-139 38,-240 90,-261 -56,40 -66,209 -66,267 -7,-2 -17,-4 -24,-6z"/>
   <path class="fil8" d="M314 432c-8,-8 -17,-14 -27,-20 35,-102 121,-284 297,-284l1 0c-210,0 -271,304 -271,304z"/>
   <path class="fil3 str2" d="M585 431c-31,-28 -80,-46 -135,-46 -56,0 -105,18 -136,47 -21,-20 -52,-35 -88,-42 32,-89 129,-262 359,-262 229,0 327,173 359,262 -36,7 -67,22 -89,42 -31,-29 -80,-47 -135,-47 -55,0 -104,18 -135,46z"/>
   <path class="fil3 str2" d="M585 431c-17,-15 -40,-28 -66,-36 0,-2 0,-4 0,-5 0,-214 66,-262 66,-262 0,0 65,48 65,262 0,1 0,3 0,5 -26,8 -48,21 -65,36z"/>
   <path class="fil3 str2" d="M314 432c-21,-20 -52,-35 -88,-42 32,-89 129,-262 359,-262 -210,0 -271,304 -271,304z"/>
  </g>
 </g>
</svg>
