<?xml version="1.0" encoding="UTF-8"?>
<!DOCTYPE svg PUBLIC "-//W3C//DTD SVG 1.1//EN" "http://www.w3.org/Graphics/SVG/1.1/DTD/svg11.dtd">
<!-- Creator: CorelDRAW X7 -->
<svg xmlns="http://www.w3.org/2000/svg" xml:space="preserve" width="1500px" height="1500px" version="1.1" style="shape-rendering:geometricPrecision; text-rendering:geometricPrecision; image-rendering:optimizeQuality; fill-rule:evenodd; clip-rule:evenodd"
viewBox="0 0 1500 1500"
 xmlns:xlink="http://www.w3.org/1999/xlink">
 <defs>
  <style type="text/css">
   <![CDATA[
    .str0 {stroke:#4D4D4D;stroke-width:11.8111}
    .fil0 {fill:none}
    .fil4 {fill:#0081C2}
    .fil5 {fill:#0081C2}
    .fil3 {fill:#008FD7}
    .fil13 {fill:#0E2242}
    .fil15 {fill:#1A1A1A}
    .fil7 {fill:#C4E7F2}
    .fil18 {fill:#CCCCCC}
    .fil6 {fill:#D9F6FF}
    .fil12 {fill:#F0BC95}
    .fil9 {fill:#F0BC95}
    .fil11 {fill:#FCCEAB}
    .fil17 {fill:#FCCEAB}
    .fil10 {fill:#FFE1BD}
    .fil8 {fill:#FFE1BD}
    .fil1 {fill:#FFFFC4}
    .fil16 {fill:white}
    .fil14 {fill:#0E2242;fill-rule:nonzero}
    .fil19 {fill:#1A1A1A;fill-rule:nonzero}
    .fil21 {fill:#333333;fill-rule:nonzero}
    .fil20 {fill:#E6E6E6;fill-rule:nonzero}
    .fil22 {fill:white;fill-rule:nonzero}
    .fil2 {fill:#CCCCCC;fill-opacity:0.400000}
   ]]>
  </style>
     <clipPath id="id0">
      <path d="M542 1335l202 0 121 116 -430 0 107 -116z"/>
     </clipPath>
     <clipPath id="id1">
      <path d="M403 977c-23,26 -16,4 -32,29 -16,26 -96,243 -111,281 -4,11 35,73 68,81 38,8 60,7 113,-31 7,-5 43,-411 44,-5 71,3 137,-15 204,-14 159,0 313,42 395,23 40,-9 33,-42 29,-54 -15,-38 -95,-255 -111,-281 -16,-25 -9,-3 -32,-29 -136,-155 -433,-153 -567,0z"/>
     </clipPath>
     <clipPath id="id2">
      <path d="M535 1328l-112 106c0,0 389,35 389,-25 0,0 -1,-2 -4,-4 -16,-11 -61,-56 -65,-77l-208 0z"/>
     </clipPath>
     <clipPath id="id3">
      <path d="M874 603c27,-2 49,19 47,49 -1,39 -39,45 -24,83 5,12 -21,32 -32,27 -33,-14 -45,-69 -44,-101 2,-29 25,-55 53,-58z"/>
     </clipPath>
     <clipPath id="id4">
      <path d="M441 664c-28,6 -42,33 -33,61 13,36 51,32 47,72 -1,14 29,26 38,18 28,-23 24,-79 14,-109 -9,-28 -39,-47 -66,-42z"/>
     </clipPath>
     <clipPath id="id5">
      <path d="M534 1310c0,0 59,-94 151,-37 47,36 251,-96 332,-44 51,32 96,63 70,84 -138,115 -295,-11 -391,36 -51,24 -50,-12 -115,20 -26,-8 -46,-34 -47,-59z"/>
     </clipPath>
 </defs>
 <g id="Layer_x0020_1">
  <metadata id="CorelCorpID_0Corel-Layer"/>
  <rect class="fil0" width="1500" height="1500"/>
  <g id="_1730977273744">
   <g>
    <polygon class="fil1" points="542,1335 744,1335 865,1451 435,1451 "/>
    <g style="clip-path:url(#id0)">
     <g>
      <path id="1" class="fil2" d="M540 1334l-108 103c0,0 384,37 384,-23 -8,-7 -70,-53 -71,-80l-205 0z"/>
     </g>
    </g>
    <polygon class="fil0" points="542,1335 744,1335 865,1451 435,1451 "/>
    <path class="fil3" d="M403 977c-23,26 -16,4 -32,29 -16,26 -96,243 -111,281 -4,11 35,73 68,81 38,8 60,7 113,-31 7,-5 43,-411 44,-5 71,3 137,-15 204,-14 159,0 313,42 395,23 40,-9 33,-42 29,-54 -15,-38 -95,-255 -111,-281 -16,-25 -9,-3 -32,-29 -136,-155 -433,-153 -567,0z"/>
    <g style="clip-path:url(#id1)">
     <g>
      <path id="1" class="fil4" d="M514 889c0,0 39,10 61,40 22,31 53,64 65,75 55,52 95,4 103,-3 9,-8 33,-35 47,-75 13,-40 80,-41 76,-43 -3,-2 -182,-66 -307,-4 0,0 -28,-29 -45,10z"/>
      <path class="fil5" d="M995 998c0,0 -35,-11 -64,6 -30,17 0,-15 39,-27 39,-11 25,21 25,21z"/>
      <path class="fil5" d="M377 998c0,0 35,-11 64,6 30,17 0,-15 -39,-27 -39,-11 -25,21 -25,21z"/>
      <path class="fil5" d="M1001 1222c0,0 56,27 127,90 71,63 -177,61 -177,61 0,0 -94,-156 50,-151z"/>
      <path class="fil5" d="M251 1314c0,0 -21,-29 114,-101 135,-72 109,115 109,115 0,0 -3,161 -145,95 -142,-67 -78,-108 -78,-109z"/>
      <path class="fil5" d="M870 1342c0,0 21,-207 24,-241 2,-34 -3,0 -8,7 -5,8 -16,92 -42,104 -26,13 29,26 -11,48 -39,21 -76,93 -33,95 44,2 72,-14 70,-13z"/>
      <path class="fil5" d="M502 1153c0,0 6,135 31,133 25,-2 -8,28 31,31 39,3 -1,34 -30,25 -29,-9 -64,2 -64,2 0,0 -24,-243 32,-191z"/>
     </g>
    </g>
    <path class="fil0" d="M403 977c-23,26 -16,4 -32,29 -16,26 -96,243 -111,281 -4,11 35,73 68,81 38,8 60,7 113,-31 7,-5 43,-411 44,-5 71,3 137,-15 204,-14 159,0 313,42 395,23 40,-9 33,-42 29,-54 -15,-38 -95,-255 -111,-281 -16,-25 -9,-3 -32,-29 -136,-155 -433,-153 -567,0z"/>
    <path class="fil6" d="M535 1328l-112 106c0,0 389,35 389,-25 0,0 -1,-2 -4,-4 -16,-11 -61,-56 -65,-77l-208 0z"/>
    <g style="clip-path:url(#id2)">
     <g>
      <path id="1" class="fil7" d="M695 1443c0,0 80,-26 73,-51 0,0 0,0 0,0 0,0 35,4 44,17 8,12 1,50 -117,34z"/>
     </g>
    </g>
    <path class="fil0" d="M535 1328l-112 106c0,0 389,35 389,-25 0,0 -1,-2 -4,-4 -16,-11 -61,-56 -65,-77l-208 0z"/>
    <path class="fil8" d="M874 603c27,-2 49,19 47,49 -1,39 -39,45 -24,83 5,12 -21,32 -32,27 -33,-14 -45,-69 -44,-101 2,-29 25,-55 53,-58z"/>
    <g style="clip-path:url(#id3)">
     <g>
      <path id="1" class="fil9" d="M928 666c0,0 -13,-54 -41,-48 -28,5 -48,32 -46,62 2,31 34,48 40,38 6,-10 24,12 36,9 11,-3 12,-62 11,-61z"/>
     </g>
    </g>
    <path class="fil0" d="M874 603c27,-2 49,19 47,49 -1,39 -39,45 -24,83 5,12 -21,32 -32,27 -33,-14 -45,-69 -44,-101 2,-29 25,-55 53,-58z"/>
    <path class="fil8" d="M441 664c-28,6 -42,33 -33,61 13,36 51,32 47,72 -1,14 29,26 38,18 28,-23 24,-79 14,-109 -9,-28 -39,-47 -66,-42z"/>
    <g style="clip-path:url(#id4)">
     <g>
      <path id="1" class="fil9" d="M406 740c0,0 -3,-55 26,-58 28,-2 54,18 61,48 7,30 -19,54 -28,47 -8,-8 -19,18 -31,18 -12,0 -30,-56 -28,-55z"/>
     </g>
    </g>
    <path class="fil0" d="M441 664c-28,6 -42,33 -33,61 13,36 51,32 47,72 -1,14 29,26 38,18 28,-23 24,-79 14,-109 -9,-28 -39,-47 -66,-42z"/>
    <path class="fil9" d="M686 797l0 0c44,0 79,35 79,78l0 60c0,43 -50,78 -79,78 -30,0 -78,-35 -78,-78l0 -60c0,-43 35,-78 78,-78z"/>
    <path class="fil10" d="M702 947c-100,14 -184,-70 -196,-81 -9,-9 -42,-169 -46,-200 -17,-120 58,-229 167,-244 109,-16 211,68 228,188 5,31 18,194 12,205 -8,13 -66,118 -165,132z"/>
    <path class="fil11" d="M518 845c0,0 5,-23 13,-17 7,5 14,45 43,59 30,13 55,61 23,59 -32,-2 -89,-63 -79,-101z"/>
    <path class="fil12" d="M647 873c0,0 22,-21 86,-16 0,0 -53,-31 -86,16z"/>
    <path class="fil12" d="M680 796c0,0 25,-2 34,-15 0,0 3,-3 -36,3 -38,5 -35,8 -35,8 12,9 37,4 37,4z"/>
    <path class="fil13" d="M771 505c0,0 19,26 44,41 24,14 41,103 50,167 0,0 62,-152 -23,-264 0,0 50,-129 -13,-207 0,0 -76,80 -104,64 0,0 24,-24 20,-40 -88,79 -359,13 -348,249 10,190 84,254 84,254 0,0 -42,-153 -11,-175 38,-49 21,-53 52,-43 30,10 156,35 249,-46z"/>
    <path class="fil0" d="M501 672c0,0 32,-75 102,-36"/>
    <path class="fil14" d="M503 659c-3,-2 -4,-3 -7,-2 -3,2 -2,4 0,5 -2,1 45,43 113,-1 3,-2 4,-4 2,-6 -2,-1 -4,0 -7,2 -53,33 -97,4 -101,2z"/>
    <path class="fil14" d="M815 629c2,3 4,5 6,3 3,-2 2,-5 0,-8 2,0 -49,-69 -115,-6 -2,3 -3,5 -1,8 3,2 5,1 7,-2 52,-47 98,1 103,5z"/>
    <ellipse class="fil15" transform="matrix(0.132267 -0.0344688 0.0423845 0.162641 767.082 662.566)" rx="147" ry="141"/>
    <ellipse class="fil16" transform="matrix(0.0441481 -0.011505 0.0141471 0.0542866 771.059 649.453)" rx="147" ry="141"/>
    <path class="fil17" d="M499 846c0,0 6,-22 13,-17 7,6 14,45 44,59 29,14 55,61 22,59 -32,-1 -89,-63 -79,-101z"/>
    <path class="fil8" d="M512 831c0,0 -52,45 -6,146 4,77 -214,190 -210,292 3,63 4,118 40,118 209,4 152,-310 250,-360 53,-27 40,-104 -10,-133 -51,-29 -44,-83 -64,-63z"/>
    <path class="fil0 str0" d="M748 1409c-11,-1 -55,0 -70,0"/>
    <path class="fil0 str0" d="M740 1391c-26,-1 -21,4 -59,-1 -4,-1 -63,0 -75,0"/>
    <path class="fil0 str0" d="M733 1371c-7,2 -120,0 -151,1 -2,0 -5,-2 -1,1"/>
    <path class="fil0 str0" d="M655 1407c-16,7 -126,-2 -135,1"/>
    <path class="fil0 str0" d="M589 1388c-12,1 -16,4 -21,-4 -6,0 8,3 -17,3 -1,0 -44,3 -33,3"/>
    <path class="fil0 str0" d="M722 1357c-7,-1 -44,-3 -49,0"/>
    <rect class="fil18" transform="matrix(-0.135703 0.235045 -0.293099 -0.169221 544.135 1367.34)" width="13.0867" height="1.75395" rx="1" ry="1"/>
    <path class="fil15" d="M654 1176l0 0c4,2 4,8 1,13l-86 148c-3,6 -23,34 -26,32 -3,-2 11,-34 14,-39l85 -148c3,-6 9,-8 12,-6z"/>
    <path class="fil8" d="M534 1310c0,0 59,-94 151,-37 47,36 251,-96 332,-44 51,32 96,63 70,84 -138,115 -295,-11 -391,36 -51,24 -50,-12 -115,20 -26,-8 -46,-34 -47,-59z"/>
    <g style="clip-path:url(#id5)">
     <g>
      <path id="1" class="fil9" d="M707 1348c0,0 18,-16 28,-16 10,0 58,15 109,25 0,0 -137,-9 -137,-9z"/>
     </g>
    </g>
    <path class="fil0" d="M534 1310c0,0 59,-94 151,-37 47,36 251,-96 332,-44 51,32 96,63 70,84 -138,115 -295,-11 -391,36 -51,24 -50,-12 -115,20 -26,-8 -46,-34 -47,-59z"/>
    <path class="fil19" d="M549 714c-1,-1 -1,-3 0,-3 0,0 26,-20 59,1 1,1 2,2 1,3 -1,1 -2,1 -3,0 -24,-11 -55,2 -57,-1z"/>
    <path class="fil15" d="M743 836c0,0 -75,-21 -111,18 0,0 2,7 8,2 7,-4 33,-30 101,-17 0,0 8,1 2,-3z"/>
    <path class="fil20" d="M820 171c-50,-33 -12,-89 25,-77 0,-34 63,-45 89,-12 0,-44 75,-44 75,0 38,-33 101,12 76,45 37,11 25,66 0,66 37,11 25,66 0,66 25,33 -38,77 -76,33 -12,44 -88,44 -88,0 -25,33 -76,22 -63,-11 -38,11 -63,-33 -38,-55 -25,0 -38,-55 0,-55zm83 173c0,-15 -13,-28 -28,-28 -16,0 -29,13 -29,28 0,16 13,29 29,29 15,0 28,-13 28,-29zm-32 46c0,-10 -9,-19 -19,-19 -11,0 -19,9 -19,19 0,10 8,19 19,19 10,0 19,-9 19,-19zm-25 31c0,-6 -4,-10 -9,-10 -6,0 -10,4 -10,10 0,5 4,9 10,9 5,0 9,-4 9,-9z"/>
    <path class="fil20" d="M429 234c49,-32 12,-86 -25,-75 0,-33 -61,-44 -86,-11 0,-43 -74,-43 -74,0 -37,-33 -98,11 -73,43 -37,11 -25,64 0,64 -37,11 -25,65 0,65 -25,32 36,75 73,32 13,43 86,43 86,0 25,33 74,22 62,-10 37,10 61,-33 37,-54 24,0 37,-54 0,-54zm-81 169c0,-15 12,-27 28,-27 15,0 27,12 27,27 0,16 -12,28 -27,28 -16,0 -28,-12 -28,-28zm32 45c0,-10 8,-18 18,-18 10,0 18,8 18,18 0,10 -8,19 -18,19 -10,0 -18,-9 -18,-19zm24 30c0,-5 4,-9 9,-9 5,0 9,4 9,9 0,5 -4,9 -9,9 -5,0 -9,-4 -9,-9z"/>
    <path class="fil20" d="M1010 438c-60,-39 -15,-105 30,-92 0,-39 75,-52 105,-13 0,-52 90,-52 90,0 45,-39 119,13 89,53 45,13 30,78 0,78 45,13 30,79 0,79 30,39 -44,91 -89,39 -15,52 -105,52 -105,0 -30,39 -90,26 -75,-13 -45,13 -75,-39 -45,-66 -30,0 -45,-65 0,-65zm7 142c0,-18 -15,-33 -34,-33 -19,0 -34,15 -34,33 0,19 15,34 34,34 19,0 34,-15 34,-34zm-65 36c0,-13 -10,-23 -22,-23 -13,0 -23,10 -23,23 0,12 10,22 23,22 12,0 22,-10 22,-22zm-47 23c0,-6 -5,-11 -11,-11 -6,0 -11,5 -11,11 0,6 5,11 11,11 6,0 11,-5 11,-11z"/>
    <path class="fil21" d="M218 257l-4 2c0,0 -1,0 -1,0 -2,1 -3,3 -2,5 1,3 2,4 5,3 0,0 1,-1 1,-1l4 -2 10 28c1,3 4,6 8,4 6,-2 14,-19 13,-23 -1,-2 -2,-3 -6,-2 -2,1 -3,3 -2,5 -1,5 -4,11 -5,11 -1,1 -1,-1 -2,-2l-9 -26 7 -4c1,0 1,0 2,0 2,-1 2,-3 1,-6 -1,-1 -2,-3 -4,-2 -1,0 -1,1 -2,2l-7 4 -2 -6c0,-1 0,-2 0,-3 -1,-2 -3,-1 -5,-1 -3,1 -5,3 -4,5 1,1 1,2 2,2l2 7z"/>
    <path id="1" class="fil21" d="M280 276c-1,1 -1,3 0,4 0,2 2,2 5,2 2,-1 4,-3 4,-5 0,-1 -1,-2 -1,-2l-7 -28c-2,-6 -4,-8 -7,-7 -4,1 -8,4 -11,11l-1 0 -5 -22c0,-1 0,-2 0,-3 0,-2 -4,-3 -5,-3 -3,1 -5,3 -4,6 0,1 1,1 1,2l13 50c-1,1 -1,2 0,3 0,2 1,3 4,2 3,0 5,-2 5,-5 0,-1 -1,-2 -2,-2l-4 -19c2,-7 5,-9 7,-10 1,0 1,1 2,4l6 22z"/>
    <path id="2" class="fil21" d="M295 218c-4,0 -5,4 -4,9 0,3 1,5 4,4 3,0 5,-4 4,-10 0,-2 -2,-4 -4,-3zm3 54c0,1 -1,2 0,3 0,3 2,4 4,4 3,0 6,-3 6,-6 0,-1 -1,-2 -2,-2l-4 -28c0,-1 0,-2 0,-3 0,-2 -3,-4 -5,-4 -5,1 -5,4 -5,6 0,1 1,2 2,3l4 27z"/>
    <path id="3" class="fil21" d="M324 248c6,-7 8,-8 9,-8 0,0 1,0 1,1l2 28c0,1 0,1 0,2 0,3 1,4 4,4 4,-1 5,-2 5,-5 0,-1 0,-1 -1,-2l-2 -33c0,-3 -4,-5 -6,-5 -3,0 -5,1 -12,10l-1 -3c1,-1 1,-2 1,-3 0,-2 -1,-3 -5,-3 -2,0 -5,2 -5,4 0,1 1,2 1,3l1 8c-1,2 -1,4 -1,5 0,2 1,3 2,3l1 17c-1,1 -1,1 -1,2 0,3 2,3 5,3 2,0 5,-1 5,-4 0,-1 -1,-1 -1,-2l-2 -22z"/>
    <path id="4" class="fil21" d="M364 217c1,-1 1,-2 1,-3 0,-2 -1,-4 -5,-4 -5,0 -5,2 -5,4 0,1 0,3 1,3l-1 50c-1,1 -1,2 -1,3 0,4 3,5 5,5 3,0 5,-1 5,-5 0,-1 -1,-2 -1,-3l0 -13 1 0c1,3 3,5 4,7l7 11c0,2 1,3 3,4 3,0 6,-2 6,-5 0,-2 -2,-3 -3,-3l-11 -17 11 -15c1,0 2,-1 2,-3 0,-2 -1,-4 -4,-4 -2,-1 -4,1 -4,3l-6 8c-1,2 -3,4 -5,8l0 0 0 -31z"/>
    <path class="fil21" d="M1080 409c-11,1 -25,11 -25,22 0,6 4,11 9,11 5,0 7,-1 11,-3 2,-1 5,-2 7,-2 3,0 4,2 4,5 0,9 -11,14 -15,15 -3,0 -5,-2 -5,-3 0,0 0,-1 0,-2 0,-1 -1,-3 -4,-3 -4,0 -5,4 -5,7 0,6 7,9 13,9 7,0 26,-7 26,-26 -1,-7 -5,-12 -11,-11 -3,0 -7,1 -10,2 -2,1 -5,3 -7,3 -2,0 -3,-1 -3,-3 0,-5 6,-12 16,-12 2,0 3,0 3,1 1,1 1,1 2,1 3,0 5,-1 5,-5 -1,-4 -6,-6 -11,-6z"/>
    <path id="1" class="fil21" d="M1115 413l-5 0c0,0 -1,-1 -2,-1 -3,0 -5,2 -5,5 0,3 1,5 4,6 1,-1 2,-1 3,-1l4 -1 -3 36c0,5 2,9 7,10 8,0 25,-15 26,-19 0,-3 -1,-5 -5,-6 -3,0 -5,2 -5,4 -3,6 -10,11 -11,10 -1,0 -1,-1 -1,-2l2 -34 11 -1c0,1 1,1 2,1 2,0 4,-2 4,-6 0,-2 -1,-4 -4,-4 -1,0 -1,0 -2,1l-10 1 1 -8c1,-1 1,-2 1,-3 0,-3 -2,-3 -4,-4 -5,0 -7,1 -8,4 0,2 0,2 1,2l-1 10z"/>
    <path id="2" class="fil21" d="M1181 421c-14,-3 -29,9 -33,30 -3,13 3,20 8,21 8,2 13,1 22,-6 3,-3 10,-10 12,-20 2,-8 2,-23 -9,-25zm-4 8c4,1 5,7 3,15 -2,7 -5,12 -9,16 -4,3 -7,5 -10,4 -4,-1 -5,-6 -3,-13 3,-13 12,-23 19,-22z"/>
    <path id="3" class="fil21" d="M1194 472c-1,0 -2,1 -2,2 -1,3 0,5 3,6 6,2 8,1 9,-2 1,-1 0,-3 0,-4l8 -21c6,-5 12,-7 12,-7 1,1 1,2 1,3 -1,1 -2,2 -2,3 -1,2 1,3 4,4 3,2 5,0 6,-3 4,-10 2,-14 -1,-15 -3,-2 -9,0 -16,4l0 0 1 -4c1,0 2,-1 2,-2 1,-2 -1,-4 -4,-5 -3,-1 -6,0 -7,2l0 3 -14 36z"/>
    <path id="4" class="fil21" d="M1240 495c-11,10 -15,13 -17,12 -1,-1 -2,-3 -1,-5 1,-1 2,-1 2,-2 2,-3 0,-5 -3,-6 -2,-2 -5,-1 -6,1 -1,2 0,3 -1,4 -2,8 1,13 5,15 5,3 10,3 20,-6l40 -38c2,0 3,-1 4,-2 1,-3 0,-5 -3,-7 -4,-2 -6,0 -7,2l-23 23 4 -32c1,-2 2,-6 -2,-8 -2,-1 -6,-1 -7,2 -1,2 -1,3 -1,4l-4 43z"/>
    <path class="fil21" d="M852 198c0,0 -1,1 -1,2 0,3 2,4 5,4 5,0 6,-2 6,-5 0,-1 -1,-2 -1,-2l-1 -20c3,-6 7,-9 7,-9 1,0 1,1 1,2 0,0 0,1 0,2 0,2 2,3 4,3 4,0 5,-2 5,-5 -1,-10 -4,-12 -7,-12 -3,0 -7,4 -11,9l0 0 0 -3c1,-1 1,-2 1,-2 -1,-2 -2,-3 -5,-3 -3,0 -5,2 -5,3l1 3 1 33z"/>
    <path id="1" class="fil21" d="M902 158c-10,-1 -21,13 -22,32 0,10 5,14 12,14 12,0 20,-11 20,-14 0,-2 0,-4 -4,-4 -3,0 -5,1 -4,4 -1,3 -6,7 -11,6 -3,0 -5,-2 -5,-7 0,-2 1,-4 1,-6l4 -1c17,-3 20,-7 20,-12 0,-4 -2,-12 -11,-12zm0 7c3,0 4,3 4,6 0,1 -2,3 -15,5 2,-6 6,-11 11,-11z"/>
    <path id="2" class="fil21" d="M928 205c2,1 4,0 5,-4 3,-7 6,-11 11,-19 5,-8 9,-12 9,-16 0,-3 -1,-4 -3,-4 -3,-1 -5,1 -6,4 -3,6 -5,9 -7,12 -1,3 -4,8 -6,14l-1 -11c0,-5 0,-10 0,-14 0,-1 1,-2 1,-3 1,-1 0,-4 -4,-4 -3,-1 -5,1 -5,3 -1,1 -1,2 0,2 -1,5 0,12 1,21 1,7 1,11 1,13 -1,5 2,6 4,6z"/>
    <path id="3" class="fil21" d="M972 147c-4,0 -7,3 -8,8 0,3 0,5 3,6 3,0 7,-3 8,-8 0,-3 -1,-5 -3,-6zm-18 55c0,0 -1,1 -1,2 -1,3 0,5 3,6 3,0 7,0 7,-4 0,-1 0,-2 0,-2l6 -29c0,-1 1,-2 1,-4 1,-1 -1,-4 -3,-5 -6,-1 -6,2 -7,5 0,0 0,2 0,2l-6 29z"/>
    <path id="4" class="fil21" d="M1002 175c-10,-3 -24,7 -29,25 -3,10 1,15 7,17 12,3 23,-6 24,-9 0,-1 0,-4 -3,-5 -3,0 -5,1 -6,3 -1,3 -7,5 -11,4 -4,-1 -5,-4 -3,-9 1,-2 1,-4 2,-5l4 0c18,1 21,-2 23,-6 1,-4 1,-13 -8,-15zm-2 7c3,1 3,4 3,6 -1,2 -3,3 -16,1 3,-4 8,-9 13,-7z"/>
    <path id="5" class="fil21" d="M1031 186c0,-2 -1,-3 -4,-5 -1,0 -4,0 -5,3 -1,1 -1,3 -1,3l-8 33c-1,3 -1,5 2,7 3,1 5,0 6,-3l16 -17 -4 23c-1,2 0,4 3,6 3,1 5,0 5,-2 3,-6 8,-12 13,-17 4,-3 6,-7 9,-13 1,0 2,-1 2,-2 1,-2 0,-4 -2,-5 -3,-1 -6,0 -7,2 0,1 0,2 0,3 -1,3 -4,7 -7,10 -2,2 -5,6 -7,9l0 0 3 -21c3,-6 2,-9 0,-10 -3,-1 -6,0 -6,2 -1,1 -1,2 -1,4l-15 17 -1 0 7 -24c0,-1 1,-1 2,-3z"/>
    <path class="fil22" d="M618 219c-2,0 -5,0 -7,-2 -2,-2 -4,-4 -4,-6 -1,-5 2,-11 9,-18l20 -21c7,-9 9,-16 8,-21 -1,-8 -5,-14 -13,-19 -8,-5 -15,-6 -23,-5 -4,1 -8,4 -14,9 -5,5 -9,7 -10,8 -3,0 -5,-1 -7,-2 -2,-2 -4,-4 -4,-7 -1,-5 3,-11 12,-17 7,-6 14,-9 20,-10 12,-3 25,0 37,8 12,8 19,19 21,31 2,9 0,18 -5,26 -2,5 -8,12 -16,20 -9,9 -14,16 -17,21 -2,3 -4,4 -7,5zm1 36c-2,1 -5,0 -8,-1 -2,-2 -4,-4 -4,-6 -1,-4 0,-8 1,-11 2,-4 5,-7 8,-7 6,-1 10,2 11,9 1,4 0,7 -1,10 -1,4 -3,6 -7,6z"/>
    <path class="fil22" d="M697 216c-3,1 -5,0 -6,-2 -2,-2 -3,-4 -3,-6 0,-4 3,-8 10,-14l19 -16c7,-6 11,-12 10,-17 0,-6 -3,-12 -9,-17 -6,-5 -12,-8 -19,-7 -3,0 -7,2 -13,5 -5,4 -8,6 -9,6 -3,0 -5,-1 -6,-3 -2,-1 -3,-3 -3,-6 0,-4 4,-8 12,-13 8,-4 14,-6 19,-6 11,-1 21,3 30,12 10,8 14,18 15,29 0,8 -2,15 -7,21 -3,4 -9,9 -17,15 -8,7 -14,12 -17,16 -2,2 -4,3 -6,3zm-4 32c-2,0 -4,-1 -6,-2 -2,-2 -4,-4 -4,-6 0,-4 1,-7 3,-9 2,-4 4,-5 8,-5 5,0 8,3 8,9 0,3 -1,6 -2,8 -2,3 -4,5 -7,5z"/>
    <path class="fil22" d="M562 243c-1,1 -2,2 -4,2 -2,0 -4,-1 -5,-2 -2,-2 -2,-7 -1,-14l3 -18c1,-7 0,-12 -3,-15 -3,-4 -8,-6 -14,-5 -6,0 -11,1 -14,5 -2,2 -4,5 -5,10 -1,4 -2,7 -3,8 -1,1 -3,1 -4,1 -2,0 -4,-1 -5,-2 -2,-2 -2,-7 0,-14 2,-6 5,-10 8,-13 6,-5 14,-8 23,-8 10,0 18,3 23,9 5,5 7,10 7,16 0,4 0,10 -2,17 -1,8 -2,14 -2,18 0,2 0,4 -2,5zm14 20c-1,1 -3,2 -5,2 -2,0 -3,0 -4,-2 -2,-2 -3,-4 -4,-6 0,-3 1,-5 2,-7 3,-3 6,-2 10,1 1,2 2,4 3,6 0,2 0,4 -2,6z"/>
   </g>
   <rect class="fil0" width="1500" height="1500"/>
  </g>
 </g>
</svg>
