<?xml version="1.0" encoding="UTF-8"?>
<!DOCTYPE svg PUBLIC "-//W3C//DTD SVG 1.1//EN" "http://www.w3.org/Graphics/SVG/1.1/DTD/svg11.dtd">
<!-- Creator: CorelDRAW X7 -->
<svg xmlns="http://www.w3.org/2000/svg" xml:space="preserve" width="1500px" height="1500px" version="1.1" style="shape-rendering:geometricPrecision; text-rendering:geometricPrecision; image-rendering:optimizeQuality; fill-rule:evenodd; clip-rule:evenodd"
viewBox="0 0 1500 1500"
 xmlns:xlink="http://www.w3.org/1999/xlink">
 <defs>
  <style type="text/css">
   <![CDATA[
    .fil0 {fill:none}
    .fil6 {fill:#0081C2}
    .fil7 {fill:#0081C2}
    .fil5 {fill:#008FD7}
    .fil12 {fill:#0B1930}
    .fil11 {fill:#0E2242}
    .fil15 {fill:#1A1A1A}
    .fil1 {fill:#D1B73B}
    .fil10 {fill:#F0BC95}
    .fil4 {fill:#F0BC95}
    .fil9 {fill:#F7CCAA}
    .fil26 {fill:#F7CCAA}
    .fil22 {fill:#FFDF47}
    .fil23 {fill:#FFDF47}
    .fil8 {fill:#FFE1BD}
    .fil3 {fill:#FFE1BD}
    .fil14 {fill:white}
    .fil16 {fill:black;fill-rule:nonzero}
    .fil25 {fill:#0077B3;fill-rule:nonzero}
    .fil20 {fill:#0081C2;fill-rule:nonzero}
    .fil13 {fill:#0E2242;fill-rule:nonzero}
    .fil18 {fill:#6699FF;fill-rule:nonzero}
    .fil21 {fill:#9999FF;fill-rule:nonzero}
    .fil17 {fill:#FF6600;fill-rule:nonzero}
    .fil2 {fill:#FFDF47;fill-rule:nonzero}
    .fil19 {fill:#FFDF47;fill-rule:nonzero}
    .fil24 {fill:#FF99CC;fill-opacity:0.290196}
   ]]>
  </style>
     <clipPath id="id0">
      <path d="M982 713c25,2 42,24 37,51 -7,35 -42,36 -33,73 3,12 -24,27 -33,21 -28,-18 -32,-70 -27,-98 5,-27 30,-48 56,-47z"/>
     </clipPath>
     <clipPath id="id1">
      <path d="M578 713c-26,2 -42,24 -37,51 6,35 42,36 33,73 -3,12 23,27 33,21 28,-18 32,-70 26,-98 -5,-27 -29,-48 -55,-47z"/>
     </clipPath>
     <clipPath id="id2">
      <path d="M522 1049c-21,24 -14,4 -29,27 -14,23 -69,189 -82,224 -4,9 -4,74 26,80 37,9 285,-22 344,-22l4 0 4 0c58,0 306,31 344,22 30,-6 30,-71 26,-80 -14,-35 -68,-201 -82,-224 -15,-23 -8,-3 -30,-27 -62,-71 -162,-106 -262,-104 -100,-2 -201,33 -263,104z"/>
     </clipPath>
     <clipPath id="id3">
      <path d="M901 611c0,0 14,26 34,42 21,16 25,100 25,160 0,0 76,-131 13,-245 0,0 62,-111 15,-191 0,0 -63,43 -96,51 0,0 17,-25 16,-40 -91,61 -330,-34 -350,184 -16,174 44,242 44,242 0,0 -20,-145 11,-161 42,-40 27,-46 54,-33 27,13 138,52 234,-9z"/>
     </clipPath>
     <clipPath id="id4">
      <path d="M700 874c-24,-10 -37,-3 -39,6 -3,10 -4,41 41,56 36,12 120,12 156,0 45,-15 44,-46 41,-56 -3,-9 -16,-16 -39,-6 -37,16 -124,16 -160,0z"/>
     </clipPath>
      <clipPath id="id5">
       <path d="M464 1094c-19,-39 21,-59 45,-49 24,11 53,56 36,108 -17,52 45,66 48,84 4,18 -85,87 -117,37 -39,-61 35,-83 -12,-180z"/>
      </clipPath>
      <clipPath id="id6">
       <path d="M483 1205c46,-8 91,-7 134,0 17,3 32,9 32,27l0 0c0,13 -8,22 -20,26 15,3 27,16 27,32l0 0c0,16 -11,29 -26,32 11,5 19,17 19,30l0 0c0,16 -11,29 -26,32 9,4 16,13 16,24l0 0c0,14 -12,24 -26,26 -38,7 -75,8 -112,0 -35,-7 -22,-29 -31,-46 -9,-18 -10,-11 -16,-34 -3,-9 -1,-19 6,-26 -7,-10 -10,-28 -10,-39 0,-5 2,-22 4,-26 -2,-5 -4,-11 -4,-35l0 0c0,-18 15,-20 33,-23z"/>
      </clipPath>
      <clipPath id="id7">
       <path d="M1107 1094c19,-39 -21,-59 -45,-49 -24,11 -54,56 -36,108 17,52 -45,66 -48,84 -4,18 85,87 117,37 39,-61 -36,-83 12,-180z"/>
      </clipPath>
      <clipPath id="id8">
       <path d="M1088 1205c-46,-8 -91,-7 -134,0 -17,3 -32,9 -32,27l0 0c0,13 8,22 20,26 -15,3 -27,16 -27,32l0 0c0,16 11,29 26,32 -11,5 -19,17 -19,30l0 0c0,16 11,29 26,32 -10,4 -16,13 -16,24l0 0c0,14 12,24 26,26 38,7 75,8 112,0 35,-7 21,-29 31,-46 9,-18 10,-11 16,-34 3,-9 1,-19 -6,-26 7,-10 10,-28 10,-39 0,-5 -2,-22 -5,-26 3,-5 5,-11 5,-35l0 0c0,-18 -15,-20 -33,-23z"/>
      </clipPath>
 </defs>
 <g id="Layer_x0020_1">
  <metadata id="CorelCorpID_0Corel-Layer"/>
  <rect class="fil0" width="1500" height="1500"/>
  <g id="_1767228841008">
   <rect class="fil0" width="1500" height="1500"/>
   <g>
    <g>
     <polygon class="fil1" points="250,234 308,293 307,292 306,290 305,289 305,288 305,287 305,286 305,286 305,285 305,284 306,284 307,283 309,283 310,283 312,284 313,285 315,286 317,287 319,289 320,290 320,291 321,291 321,291 322,291 323,291 323,291 324,291 328,288 332,285 336,283 341,280 345,277 349,274 353,272 358,269 358,268 359,268 359,267 359,266 359,266 359,265 359,264 358,264 354,257 350,252 296,186 301,193 306,200 306,201 306,202 307,202 307,203 306,204 306,205 306,205 305,206 300,209 295,212 290,215 286,218 281,221 276,224 271,228 267,231 266,231 265,231 265,231 264,231 264,231 263,230 262,230 261,229 259,227 257,225 255,224 253,223 252,222 250,222 248,222 247,222 246,223 246,224 245,225 245,226 245,227 246,228 246,229 247,230 248,232 "/>
     <polygon class="fil1" points="213,280 276,335 279,338 283,340 286,343 290,345 294,347 298,349 302,351 306,352 311,354 315,355 319,356 324,357 328,358 332,359 335,360 339,361 342,362 346,363 349,364 351,365 354,366 356,367 358,368 359,369 360,370 308,319 307,318 305,317 303,316 300,315 298,314 295,313 291,311 288,310 284,309 280,308 276,307 271,306 267,305 262,304 257,303 252,301 247,300 242,298 238,296 233,294 229,291 225,289 221,286 217,283 "/>
     <polygon class="fil1" points="293,326 347,376 344,373 341,370 338,366 338,366 337,365 282,314 283,315 283,315 286,319 290,323 "/>
     <polygon class="fil1" points="273,372 329,416 335,420 340,424 346,427 352,429 357,431 363,432 369,432 375,432 381,431 387,429 393,426 398,423 403,420 407,416 410,411 412,407 414,402 416,397 417,391 417,388 417,386 417,383 417,380 417,377 416,374 416,370 415,367 414,364 413,361 412,358 411,354 409,351 408,348 406,345 404,342 402,338 399,335 397,331 349,276 352,280 354,284 357,288 359,291 361,295 363,299 364,302 366,306 367,309 368,313 369,316 370,320 371,324 371,327 371,330 372,334 372,337 372,340 371,344 370,350 369,355 366,361 363,366 360,371 356,375 351,379 345,383 338,386 331,388 325,389 318,390 311,389 305,388 298,386 292,384 285,380 279,376 "/>
     <polygon class="fil1" points="408,356 450,402 450,402 451,403 451,403 452,403 452,403 458,402 464,401 469,400 475,399 481,397 486,396 492,395 498,394 503,393 509,392 515,390 520,389 526,388 532,387 537,386 543,385 544,384 544,384 545,384 545,383 545,383 545,382 545,382 545,381 544,378 544,375 543,372 542,368 541,365 540,362 540,359 539,356 538,352 537,349 536,346 535,343 535,339 534,336 533,333 532,330 532,329 532,329 500,273 501,274 501,274 502,278 503,281 504,285 505,289 506,292 506,296 507,300 508,303 509,307 510,311 511,314 512,318 513,321 514,325 515,328 516,332 516,333 516,333 516,334 515,335 515,335 514,335 514,336 513,336 507,337 500,339 494,340 488,341 481,342 475,344 468,345 462,346 456,348 449,349 443,350 437,352 430,353 424,354 418,355 411,357 411,357 410,357 409,356 409,356 "/>
     <polygon class="fil1" points="420,191 460,255 460,255 459,253 458,251 458,248 457,246 457,244 456,242 455,240 455,237 455,237 455,237 455,236 455,236 455,235 455,235 456,235 456,235 459,234 462,234 465,233 467,232 470,232 473,231 476,230 479,230 482,229 485,229 488,228 490,227 493,227 496,226 499,225 502,225 503,224 503,224 504,224 504,223 504,223 504,222 504,222 504,221 503,217 502,214 501,210 500,206 499,203 499,199 498,195 497,192 496,188 495,184 494,181 493,177 492,173 491,169 490,166 489,162 489,161 453,85 453,86 454,90 455,94 456,98 457,103 458,107 459,111 460,115 461,119 462,123 463,127 464,132 465,136 466,140 467,144 468,148 469,152 470,153 470,153 469,154 469,155 469,155 468,156 468,156 467,156 464,157 461,158 457,158 454,159 451,160 448,161 444,161 441,162 438,163 435,163 431,164 428,165 425,166 422,166 419,167 415,168 415,168 415,168 414,168 414,169 414,169 414,170 414,170 414,171 415,173 415,176 416,178 417,180 417,183 418,185 419,188 419,190 "/>
     <polygon class="fil1" points="444,281 481,336 481,336 481,335 480,333 480,331 479,329 479,327 478,325 478,323 477,320 476,318 476,318 476,317 476,317 476,317 477,316 477,316 477,316 478,316 480,315 483,314 486,314 488,313 491,313 494,312 496,312 499,311 499,311 500,311 500,310 500,310 500,310 501,309 501,309 500,308 500,305 499,301 498,298 497,295 496,291 495,288 494,284 493,281 492,278 491,274 491,271 490,267 489,264 488,260 487,257 486,254 486,253 486,253 449,188 449,188 449,189 450,193 451,197 452,200 453,204 454,208 455,212 456,216 457,220 458,223 459,227 460,231 461,235 462,239 463,242 464,246 465,250 465,251 465,251 465,252 465,252 465,253 465,253 464,253 464,253 461,254 458,255 455,255 452,256 449,257 446,257 443,258 440,258 439,259 439,259 439,259 438,259 438,260 438,260 438,261 438,261 439,264 440,266 440,269 441,271 442,273 442,276 443,278 444,280 444,281 "/>
     <polygon class="fil1" points="580,265 602,321 602,321 602,320 602,318 602,316 601,313 601,311 601,308 600,306 600,303 600,301 600,299 599,296 599,294 599,291 598,289 598,286 598,284 598,281 597,279 597,276 597,274 597,271 596,269 596,266 596,264 595,261 595,259 595,256 595,254 594,251 594,248 594,246 593,243 593,241 593,238 593,235 592,233 592,230 592,228 591,225 591,222 591,220 591,217 590,214 590,212 590,209 589,206 589,204 589,201 588,198 588,196 588,193 588,190 587,187 587,185 587,182 586,179 586,176 586,174 585,171 585,168 585,165 584,163 584,160 584,157 584,154 583,153 559,76 559,77 559,80 559,83 560,86 560,90 560,93 561,96 561,99 561,102 562,105 562,108 563,111 563,114 563,118 564,121 564,124 564,127 565,130 565,133 565,136 566,139 566,142 566,145 567,148 567,151 567,154 568,157 568,160 568,163 569,165 569,168 569,171 570,174 570,177 570,180 570,183 571,186 571,189 571,192 572,194 572,197 572,200 573,203 573,206 573,209 574,212 574,214 574,217 575,220 575,223 575,226 575,228 576,231 576,234 576,237 577,239 577,242 577,245 578,248 578,250 578,253 579,256 579,258 579,261 580,264 580,264 "/>
     <polygon class="fil1" points="530,334 558,383 559,384 559,384 560,385 560,385 561,385 561,385 567,384 573,384 579,383 585,383 591,382 597,382 602,381 608,381 614,380 620,380 626,379 632,379 638,378 644,378 650,377 656,377 656,377 657,376 657,376 658,376 658,375 658,375 658,374 658,374 658,370 658,367 657,364 657,361 657,357 657,354 656,351 656,347 656,344 655,341 655,338 655,334 655,331 654,328 654,324 654,321 654,320 638,264 638,264 638,268 638,272 639,276 639,279 639,283 639,287 640,290 640,294 640,298 641,302 641,305 641,309 642,313 642,316 642,320 643,324 643,324 642,325 642,325 642,326 641,326 641,327 640,327 640,327 633,328 626,328 620,329 613,330 606,330 600,331 593,331 587,332 580,332 573,333 567,334 560,334 553,335 547,335 540,336 534,336 533,336 532,336 532,336 531,335 531,335 "/>
     <polygon class="fil1" points="717,235 724,294 724,294 724,293 725,290 725,286 726,282 726,279 727,275 727,272 728,268 728,264 728,262 729,261 729,260 729,259 729,258 730,257 730,257 730,257 730,257 731,257 731,258 731,259 731,260 732,261 732,263 732,264 732,268 733,271 733,275 734,279 734,282 734,286 735,290 735,293 729,233 729,229 728,225 728,221 727,217 727,213 726,209 726,205 726,201 725,199 725,197 725,196 725,195 724,194 724,193 724,193 723,193 723,193 723,193 722,194 722,195 722,196 722,197 721,199 721,201 721,205 720,209 719,213 719,217 718,221 718,225 717,229 717,233 717,234 "/>
     <polygon class="fil1" points="648,323 663,373 664,373 664,374 665,374 665,375 666,375 669,375 672,375 675,375 677,374 680,374 683,374 685,374 688,374 691,374 694,374 696,374 699,374 702,374 705,374 707,374 710,374 711,374 711,374 712,373 712,373 713,372 713,372 713,371 714,371 714,368 714,366 715,363 715,360 715,358 716,355 716,353 716,350 717,347 717,345 717,342 718,339 718,337 718,334 719,331 719,329 719,328 719,328 720,327 720,327 720,326 721,326 721,326 722,326 723,326 725,326 727,326 729,326 731,326 733,326 734,326 736,326 737,326 737,326 738,326 738,326 738,326 739,327 739,327 739,328 739,331 739,333 740,336 740,339 740,341 741,344 741,347 741,349 741,352 742,355 742,357 742,360 743,362 743,365 743,368 743,370 744,371 744,371 744,372 745,372 745,373 746,373 746,373 747,373 750,373 752,373 755,373 758,373 760,373 763,373 766,373 768,373 771,373 774,372 777,372 779,372 782,372 785,372 787,372 790,372 791,372 792,372 793,371 793,370 794,369 794,368 794,367 795,316 795,318 795,319 794,320 794,321 793,321 792,322 791,322 788,322 785,322 782,322 779,322 775,322 772,322 769,322 766,322 763,323 760,323 757,323 754,323 751,323 748,323 745,323 742,323 742,323 741,323 740,322 740,322 739,322 739,321 738,321 738,320 738,317 738,314 737,311 737,308 737,305 736,302 736,299 736,296 735,293 735,290 735,287 735,284 734,281 734,278 734,275 733,272 733,272 733,271 733,271 732,270 732,270 731,270 731,270 730,270 728,270 726,270 724,270 722,270 720,270 718,270 716,270 714,270 713,270 713,270 712,270 712,271 712,271 711,272 711,273 711,273 710,276 710,279 710,282 709,285 709,288 709,291 708,294 708,297 707,300 707,303 707,306 706,309 706,312 706,315 705,317 705,320 705,321 704,322 704,322 703,323 703,323 702,324 702,324 701,324 698,324 695,324 692,324 689,324 686,324 682,324 679,324 676,324 673,324 670,324 667,325 664,325 661,325 658,325 655,325 652,325 651,325 650,324 649,324 649,323 "/>
     <polygon class="fil1" points="801,319 800,370 800,370 800,371 800,371 800,372 800,372 801,372 801,372 802,372 804,373 807,373 810,373 813,373 815,373 818,374 821,374 824,374 827,374 829,374 832,374 835,375 838,375 841,375 844,375 846,375 847,375 848,375 848,375 848,375 849,374 849,374 849,373 849,373 857,322 857,323 857,324 857,324 856,325 856,325 855,325 855,326 854,326 851,325 848,325 845,325 841,325 838,325 835,324 832,324 829,324 826,324 822,324 819,323 816,323 813,323 810,323 807,322 804,322 803,322 803,322 802,322 802,321 802,321 802,320 801,320 "/>
     <polygon class="fil1" points="872,227 863,288 863,287 863,286 863,286 864,285 864,285 864,284 864,284 865,284 865,284 865,284 866,285 866,285 866,286 866,287 867,288 867,290 867,293 866,296 866,298 866,301 866,304 866,306 866,309 866,312 866,314 866,317 866,320 866,322 866,325 866,328 866,330 866,333 866,335 866,338 866,341 866,343 866,346 866,348 866,351 866,353 866,356 866,358 866,361 866,364 865,366 865,369 865,371 865,374 866,374 866,375 866,375 866,376 867,376 867,377 867,377 868,377 872,377 875,377 879,378 883,378 886,378 890,378 894,379 898,379 898,379 899,379 899,379 900,378 900,378 900,378 901,377 901,377 902,374 903,372 904,369 905,366 906,364 906,361 907,358 908,356 909,353 910,350 911,348 912,345 913,342 914,339 915,337 916,334 917,331 918,329 919,326 920,323 921,320 922,317 923,315 924,312 925,309 926,306 927,303 928,301 929,298 930,295 931,292 932,289 932,288 933,286 933,285 934,284 934,284 934,284 934,283 935,283 935,283 935,284 935,284 935,284 935,285 935,285 935,286 935,287 934,290 934,293 933,295 933,298 932,301 931,304 931,307 930,310 930,313 929,316 929,319 928,321 927,324 927,327 926,330 926,333 925,336 925,338 924,341 924,344 923,347 923,350 922,352 922,355 921,358 920,361 920,363 919,366 919,369 918,372 918,374 917,377 917,378 917,378 917,379 918,379 918,380 919,380 919,380 920,380 923,380 926,381 928,381 931,381 934,381 937,381 940,382 943,382 946,382 949,382 952,382 955,383 958,383 961,383 964,383 967,383 968,383 968,383 969,383 969,383 970,382 970,382 970,381 993,332 993,333 993,333 992,334 991,334 991,334 990,335 989,335 986,334 983,334 979,334 976,334 973,333 970,333 966,333 963,333 960,333 956,332 953,332 950,332 946,332 943,331 940,331 936,331 936,331 935,331 935,330 934,330 934,329 934,329 934,328 934,327 934,324 935,321 935,318 936,315 937,312 937,309 938,306 938,303 939,300 940,297 940,294 941,290 941,287 942,284 943,281 943,278 944,275 944,271 945,268 946,265 946,262 947,259 948,255 948,252 949,249 950,246 950,242 951,239 951,236 952,233 953,229 953,226 954,225 954,224 954,224 954,223 954,223 954,222 953,222 953,222 953,222 953,222 952,223 952,223 952,224 951,226 950,227 950,229 949,232 947,235 946,238 945,242 944,245 943,248 942,251 941,254 940,257 939,260 937,264 936,267 935,270 934,273 933,276 932,279 931,282 930,285 929,288 928,291 927,294 926,297 925,300 924,303 923,306 922,309 920,312 919,315 918,318 917,321 916,324 915,327 915,328 915,328 914,329 914,329 913,329 913,329 912,329 912,329 907,329 903,329 899,329 895,328 891,328 886,328 882,327 878,327 878,327 877,327 877,327 876,326 876,326 876,325 875,324 875,324 875,321 875,318 875,315 875,312 876,309 876,307 876,304 876,301 876,298 876,295 876,292 876,289 876,286 876,284 876,281 876,278 876,275 876,272 876,269 876,266 876,263 876,260 876,257 876,254 876,251 876,248 876,245 877,242 877,239 877,236 877,233 877,230 877,228 876,226 876,225 876,224 876,224 875,223 875,223 875,223 874,223 874,223 874,224 873,224 873,225 873,225 873,226 "/>
     <polygon class="fil1" points="867,264 858,320 858,318 859,315 868,258 867,261 "/>
     <polygon class="fil1" points="1115,229 1079,290 1079,288 1080,288 1080,287 1081,286 1081,286 1082,286 1082,286 1082,287 1082,287 1082,288 1082,289 1081,291 1081,292 1081,293 1079,297 1078,301 1077,304 1076,308 1075,311 1074,315 1073,319 1072,322 1072,323 1072,324 1107,267 1108,267 1108,266 1109,262 1110,258 1111,254 1112,250 1114,246 1115,242 1116,238 1117,234 1118,232 1118,230 1118,229 1118,228 1119,227 1119,226 1118,226 1118,225 1118,225 1117,226 1117,226 1116,227 1116,228 "/>
     <polygon class="fil1" points="1077,299 1045,352 1045,352 1045,351 1046,351 1046,350 1047,350 1047,350 1047,350 1048,350 1050,350 1051,351 1053,351 1055,352 1056,352 1058,352 1060,353 1061,353 1062,353 1062,353 1063,354 1063,354 1063,354 1063,355 1063,355 1063,356 1062,359 1062,361 1061,364 1060,366 1059,369 1059,372 1058,374 1057,377 1056,379 1056,382 1055,385 1054,387 1053,390 1053,392 1052,395 1051,397 1051,398 1051,399 1051,399 1052,400 1052,400 1052,400 1053,401 1053,401 1056,401 1058,402 1061,403 1063,403 1066,404 1068,404 1071,405 1073,405 1076,406 1078,406 1081,407 1083,408 1085,408 1088,409 1090,409 1093,410 1094,410 1095,410 1096,409 1096,409 1097,408 1136,362 1135,363 1134,364 1133,364 1132,364 1131,364 1128,364 1125,363 1123,362 1120,362 1117,361 1114,361 1112,360 1109,359 1106,359 1103,358 1100,357 1098,357 1095,356 1092,355 1089,355 1087,354 1086,354 1085,354 1085,353 1085,353 1084,352 1084,352 1084,351 1084,350 1085,348 1086,345 1087,342 1087,339 1088,336 1089,333 1090,330 1091,327 1092,324 1092,321 1093,318 1094,316 1095,313 1096,310 1097,307 1097,304 1098,303 1098,303 1097,302 1097,302 1097,301 1097,301 1096,301 1096,301 1094,300 1092,300 1090,299 1088,299 1086,298 1084,298 1082,297 1080,297 1080,297 1079,297 1079,297 1078,297 1078,298 1077,298 1077,299 "/>
     <polygon class="fil1" points="1001,329 977,378 977,379 977,380 976,381 977,382 977,382 977,383 978,383 979,384 981,384 984,385 986,385 989,386 991,387 994,387 996,388 999,388 1002,389 1004,390 1007,390 1009,391 1012,391 1014,392 1017,392 1020,393 1020,393 1021,393 1021,393 1022,393 1022,392 1023,392 1023,391 1024,391 1053,343 1053,344 1052,344 1052,345 1051,345 1050,345 1050,345 1049,346 1049,345 1046,345 1043,344 1040,343 1037,343 1034,342 1031,342 1028,341 1025,340 1023,340 1020,339 1017,338 1014,338 1011,337 1008,336 1005,336 1003,335 1002,335 1001,334 1001,334 1000,333 1000,332 1000,331 1001,330 "/>
     <polygon class="fil1" points="1286,141 1231,211 1228,215 1226,218 1224,221 1221,224 1219,227 1216,230 1214,233 1212,236 1209,240 1207,243 1205,246 1202,249 1200,252 1198,255 1195,258 1193,261 1193,262 1192,263 1192,264 1192,264 1192,265 1192,266 1192,267 1193,267 1195,269 1198,271 1201,272 1203,274 1206,276 1208,278 1211,280 1214,282 1214,282 1214,282 1215,283 1215,284 1215,284 1215,285 1214,286 1214,287 1210,291 1207,295 1204,299 1200,304 1197,308 1194,312 1191,316 1187,321 1184,325 1181,329 1178,333 1174,337 1171,341 1168,346 1165,350 1162,354 1159,358 1155,362 1152,366 1149,370 1146,374 1143,378 1140,382 1137,386 1134,389 1131,393 1128,397 1125,401 1122,405 1119,409 1116,413 1113,417 1113,417 1112,418 1112,419 1112,419 1112,420 1113,421 1113,421 1113,422 1118,424 1122,427 1126,429 1130,432 1134,435 1138,437 1142,440 1147,443 1147,443 1148,443 1148,443 1149,443 1150,443 1150,442 1151,442 1196,400 1196,401 1195,401 1194,401 1193,402 1193,402 1192,401 1191,401 1187,398 1182,395 1177,392 1173,389 1168,386 1163,383 1159,380 1154,377 1154,377 1153,376 1153,376 1153,375 1153,374 1153,373 1153,373 1154,372 1157,368 1160,363 1164,359 1167,355 1170,350 1174,346 1177,341 1181,337 1184,333 1187,328 1191,324 1194,319 1198,315 1201,310 1205,306 1208,301 1212,297 1215,292 1219,288 1223,283 1226,278 1230,273 1233,269 1237,264 1241,259 1244,255 1248,250 1252,245 1256,240 1259,235 1263,231 1267,226 1267,225 1268,224 1268,223 1268,223 1268,222 1268,221 1267,221 1267,220 1264,218 1261,216 1258,214 1255,212 1252,210 1249,208 1246,206 1243,204 1243,203 1243,203 1242,202 1242,201 1243,200 1243,199 1243,198 1244,197 1246,194 1249,190 1251,187 1254,183 1257,180 1259,177 1262,173 1264,170 1267,166 1270,163 1272,159 1275,155 1278,152 1280,148 1283,145 "/>
     <polygon class="fil1" points="1312,257 1254,314 1255,314 1255,313 1256,313 1257,313 1257,313 1258,313 1259,313 1261,315 1263,317 1266,319 1268,320 1271,322 1273,324 1276,325 1278,327 1279,328 1280,328 1280,328 1281,328 1282,327 1283,327 1283,326 1345,270 1344,271 1343,272 1342,272 1342,272 1341,272 1340,272 1339,271 1337,270 1334,268 1331,266 1328,264 1325,262 1323,260 1320,258 1317,256 1317,256 1316,255 1315,255 1314,256 1314,256 1313,256 "/>
    </g>
    <path class="fil2" d="M305 206c2,-1 2,-4 1,-6 -23,-38 -65,-59 -100,-38 -18,10 -26,27 -26,45 -1,18 5,37 15,52 13,20 35,37 62,44 26,6 48,11 52,18 4,6 4,10 0,12 -6,3 -18,-7 -26,-18 -2,-2 -3,-3 -5,-2 -11,7 -22,14 -33,21 -1,1 -1,3 -1,4 29,43 65,64 101,45 16,-9 24,-23 26,-39 2,-17 -3,-37 -14,-56 -13,-22 -38,-36 -63,-40 -23,-4 -41,-8 -47,-18 -2,-3 -3,-6 0,-8 4,-2 8,1 14,7 3,2 4,3 6,2 12,-9 25,-17 38,-25zm102 148c1,2 3,3 4,3 34,-7 68,-14 102,-21 2,0 3,-2 3,-4 -5,-19 -10,-38 -15,-58 0,-1 -2,-3 -4,-2 -17,3 -34,7 -51,10 -1,0 -2,0 -2,-2 -2,-6 -4,-12 -6,-19 0,-1 0,-2 2,-3 8,-1 16,-3 24,-5 1,0 2,-1 1,-3 -5,-20 -10,-40 -16,-61 0,-2 -2,-2 -3,-2 -8,2 -16,3 -24,5 -1,0 -2,0 -3,-2 -1,-6 -3,-13 -5,-19 0,-2 0,-3 1,-3 17,-4 35,-8 52,-12 2,0 3,-2 2,-4 -5,-22 -11,-44 -16,-66 -1,-2 -2,-4 -4,-4 -38,9 -76,18 -113,26 -2,1 -3,4 -3,6 7,22 14,44 20,65 7,21 13,41 19,61 6,20 12,39 18,58 6,19 12,37 17,56zm175 -88c-1,0 -2,-1 -2,-2 -2,-15 -4,-29 -5,-44 -2,-15 -4,-30 -5,-46 -2,-15 -4,-31 -6,-47 -2,-17 -3,-33 -5,-50 -1,-2 -2,-4 -4,-4 -19,2 -37,4 -56,6 -2,0 -4,3 -4,5 3,23 7,46 10,68 3,21 6,43 9,63 2,21 5,41 8,61 3,19 5,38 8,57 0,2 2,4 4,3 35,-3 70,-6 106,-9 1,0 3,-2 3,-3 -2,-20 -4,-40 -5,-60 -1,-1 -2,-3 -4,-3 -18,2 -35,3 -52,5zm110 -204c-2,0 -4,3 -4,5 -4,23 -8,46 -11,68 -4,22 -7,44 -10,65 -4,21 -7,42 -10,62 -3,19 -6,39 -9,58 -1,3 1,5 4,5 16,-1 33,-1 49,-1 1,0 4,-2 4,-4 2,-15 4,-31 6,-47 0,-2 2,-3 3,-3 5,0 11,0 16,0 2,0 3,0 3,2 2,16 4,32 5,48 0,2 2,3 4,3 16,0 32,-1 49,-1 3,0 5,-4 4,-7 -2,-19 -5,-38 -8,-57 -2,-20 -5,-40 -8,-61 -3,-21 -6,-42 -9,-64 -3,-22 -6,-45 -9,-68 0,-2 -2,-5 -4,-5 -22,1 -44,1 -65,2zm37 171c0,3 -1,3 -11,4 -1,0 -2,-2 -1,-4 1,-10 3,-21 4,-32 1,-6 1,-8 2,-8 1,0 2,3 3,8 1,11 2,22 3,32zm125 93c2,0 3,-1 3,-4 3,-15 5,-30 8,-46 2,-16 5,-32 7,-49 1,-2 2,-4 3,-4 1,0 2,1 2,7 -1,16 -1,32 -1,48 0,15 -1,31 -1,46 0,2 2,3 3,3 11,1 22,2 34,2 1,0 3,0 3,-2 6,-16 11,-32 17,-48 6,-16 12,-33 18,-50 2,-6 3,-7 3,-7 1,0 1,1 0,4 -3,18 -6,35 -10,52 -3,17 -6,33 -9,49 -1,3 0,4 2,4 18,1 36,2 53,4 2,0 4,-2 5,-3 4,-19 8,-38 12,-58 5,-20 9,-40 14,-61 4,-21 9,-42 14,-64 5,-23 10,-45 15,-69 1,-2 0,-4 -2,-4 -31,-2 -61,-5 -92,-7 -2,0 -4,2 -4,4 -8,25 -15,50 -22,74 0,2 -1,3 -2,3 0,0 -1,-1 0,-3 1,-25 2,-50 3,-76 0,-2 -1,-4 -3,-4 -30,-2 -59,-4 -89,-7 -2,0 -3,2 -3,4 -3,24 -6,47 -9,69 -3,23 -6,45 -9,66 -3,21 -6,42 -8,62 -3,20 -5,39 -8,58 0,2 1,3 3,3 16,1 33,3 50,4zm284 -233c-1,-1 -4,2 -5,3 -12,22 -24,43 -36,63 -11,20 -22,40 -34,60 -10,19 -21,38 -32,56 -10,19 -20,36 -30,54 -2,3 -1,5 2,6 15,3 30,7 46,10 1,1 3,0 4,-2 8,-14 16,-29 24,-44 1,-1 2,-2 3,-2 6,1 11,2 16,4 1,0 2,1 1,3 -4,16 -9,31 -13,46 0,2 1,4 3,4 14,4 29,7 44,10 3,1 6,-2 7,-5 4,-19 9,-37 14,-56 5,-20 10,-40 15,-60 5,-20 10,-41 16,-62 5,-22 11,-44 17,-67 0,-2 0,-5 -2,-6 -20,-5 -40,-10 -60,-15zm-30 173c-1,3 -2,2 -11,0 -1,0 -1,-2 0,-3 5,-10 11,-20 16,-30 3,-6 4,-8 5,-8 1,1 0,4 -1,9 -3,10 -6,21 -9,32zm83 135c2,1 5,0 6,-1 18,-23 36,-45 55,-69 19,-24 39,-48 59,-73 2,-3 5,-3 6,-2 7,5 15,10 22,15 2,2 5,1 7,-1 14,-17 28,-35 43,-52 2,-3 1,-5 0,-6 -32,-24 -65,-48 -99,-72 -1,-1 -3,-1 -4,1 -14,19 -29,38 -42,56 -2,2 -2,6 -1,7 8,5 16,11 24,16 1,1 1,4 0,6 -20,26 -40,51 -59,75 -18,24 -37,48 -54,71 -2,2 -1,4 0,5 12,8 25,16 37,24z"/>
    <path class="fil3" d="M982 713c25,2 42,24 37,51 -7,35 -42,36 -33,73 3,12 -24,27 -33,21 -28,-18 -32,-70 -27,-98 5,-27 30,-48 56,-47z"/>
    <g style="clip-path:url(#id0)">
     <g>
      <path id="1" class="fil4" d="M1024 778c0,0 -5,-51 -32,-50 -26,2 -48,24 -50,52 -2,28 25,47 32,39 6,-8 20,14 31,13 11,-1 20,-55 19,-54z"/>
     </g>
    </g>
    <path class="fil0" d="M982 713c25,2 42,24 37,51 -7,35 -42,36 -33,73 3,12 -24,27 -33,21 -28,-18 -32,-70 -27,-98 5,-27 30,-48 56,-47z"/>
    <path class="fil3" d="M578 713c-26,2 -42,24 -37,51 6,35 42,36 33,73 -3,12 23,27 33,21 28,-18 32,-70 26,-98 -5,-27 -29,-48 -55,-47z"/>
    <g style="clip-path:url(#id1)">
     <g>
      <path id="1" class="fil4" d="M536 778c0,0 5,-51 32,-50 26,2 47,24 49,52 3,28 -24,47 -31,39 -7,-8 -20,14 -31,13 -11,-1 -20,-55 -19,-54z"/>
     </g>
    </g>
    <path class="fil0" d="M578 713c-26,2 -42,24 -37,51 6,35 42,36 33,73 -3,12 23,27 33,21 28,-18 32,-70 26,-98 -5,-27 -29,-48 -55,-47z"/>
    <path class="fil5" d="M522 1049c-21,24 -14,4 -29,27 -14,23 -69,189 -82,224 -4,9 -4,74 26,80 37,9 285,-22 344,-22l4 0 4 0c58,0 306,31 344,22 30,-6 30,-71 26,-80 -14,-35 -68,-201 -82,-224 -15,-23 -8,-3 -30,-27 -62,-71 -162,-106 -262,-104 -100,-2 -201,33 -263,104z"/>
    <g style="clip-path:url(#id2)">
     <g>
      <path id="1" class="fil6" d="M622 969c0,0 35,9 56,37 20,27 47,58 58,68 50,47 87,3 94,-4 8,-6 30,-31 42,-67 12,-37 73,-37 70,-39 -4,-2 -166,-60 -279,-3 0,0 -25,-27 -41,8z"/>
      <path class="fil7" d="M498 1068c0,0 32,-10 58,5 27,16 0,-13 -35,-24 -36,-10 -23,19 -23,19z"/>
      <path class="fil7" d="M384 1354c0,0 -19,-26 103,-91 122,-65 99,105 99,105 0,0 -3,145 -131,85 -128,-61 -71,-98 -71,-99z"/>
      <path class="fil7" d="M595 1191c0,0 -15,180 10,195 24,15 99,-9 120,-8 21,1 -1,-37 -25,-43 -25,-6 -38,7 -39,-20 -1,-27 12,-48 -4,-56 -15,-7 -46,-14 -61,-68 0,0 -1,-1 -1,0z"/>
      <path class="fil7" d="M1072 1068c0,0 -32,-10 -59,5 -26,16 0,-13 36,-24 36,-10 23,19 23,19z"/>
      <path class="fil7" d="M1186 1354c0,0 19,-26 -103,-91 -123,-65 -99,105 -99,105 0,0 3,145 131,85 128,-61 71,-98 71,-99z"/>
      <path class="fil7" d="M975 1191c0,0 15,180 -10,195 -24,15 -99,-9 -120,-8 -21,1 1,-37 25,-43 25,-6 38,7 39,-20 1,-27 -12,-48 4,-56 15,-7 46,-14 61,-68 0,0 1,-1 1,0z"/>
     </g>
    </g>
    <path class="fil0" d="M522 1049c-21,24 -14,4 -29,27 -14,23 -69,189 -82,224 -4,9 -4,74 26,80 37,9 285,-22 344,-22l4 0 4 0c58,0 306,31 344,22 30,-6 30,-71 26,-80 -14,-35 -68,-201 -82,-224 -15,-23 -8,-3 -30,-27 -62,-71 -162,-106 -262,-104 -100,-2 -201,33 -263,104z"/>
    <path class="fil4" d="M780 877l0 0c39,0 71,32 71,71l0 54c0,39 -45,71 -71,71 -27,0 -71,-32 -71,-71l0 -54c0,-39 32,-71 71,-71z"/>
    <path class="fil8" d="M780 1005c-93,0 -159,-88 -168,-99 -7,-9 -16,-160 -16,-189 0,-111 82,-201 184,-201 102,0 184,90 184,201 0,29 -9,180 -16,189 -9,11 -75,99 -168,99z"/>
    <path class="fil9" d="M747 953c0,0 20,5 65,0 0,0 -32,29 -65,0z"/>
    <path class="fil10" d="M780 861c0,0 23,1 33,-11 0,0 3,-3 -33,-3 -36,0 -33,3 -33,3 10,12 33,11 33,11z"/>
    <path class="fil11" d="M901 611c0,0 14,26 34,42 21,16 25,100 25,160 0,0 76,-131 13,-245 0,0 62,-111 15,-191 0,0 -63,43 -96,51 0,0 17,-25 16,-40 -91,61 -330,-34 -350,184 -16,174 44,242 44,242 0,0 -20,-145 11,-161 42,-40 27,-46 54,-33 27,13 138,52 234,-9z"/>
    <g style="clip-path:url(#id3)">
     <g>
      <path id="1" class="fil12" d="M998 369c0,0 3,2 1,10 -2,7 -64,134 -115,68 0,0 -11,-12 16,-22 26,-9 98,-57 98,-56z"/>
      <path class="fil12" d="M620 441c0,0 -63,138 -22,148 41,9 37,21 63,28 27,8 -22,63 -22,63 0,0 -2,165 -36,145 -33,-19 -80,-113 -61,-165 19,-52 -38,-77 -4,-112 33,-34 -13,-56 82,-107z"/>
      <path class="fil12" d="M900 613l1 -3c0,0 31,-9 70,-41 40,-32 51,106 41,131 -10,26 -31,137 -59,125 -28,-12 -24,-152 -53,-212z"/>
     </g>
    </g>
    <path class="fil0" d="M901 611c0,0 14,26 34,42 21,16 25,100 25,160 0,0 76,-131 13,-245 0,0 62,-111 15,-191 0,0 -63,43 -96,51 0,0 17,-25 16,-40 -91,61 -330,-34 -350,184 -16,174 44,242 44,242 0,0 -20,-145 11,-161 42,-40 27,-46 54,-33 27,13 138,52 234,-9z"/>
    <path class="fil0" d="M632 728c0,0 39,-64 98,-19"/>
    <path class="fil13" d="M635 729c-1,3 -3,6 -6,4 -2,-2 -2,-5 0,-7 -2,0 35,-69 104,-21 2,2 4,5 2,7 -2,3 -4,2 -7,0 -53,-37 -89,13 -93,17z"/>
    <path class="fil13" d="M924 729c2,3 4,6 6,4 3,-2 3,-5 1,-7 2,0 -36,-69 -104,-21 -3,2 -4,5 -2,7 2,3 4,2 6,0 53,-37 90,13 93,17z"/>
    <path class="fil14" d="M700 874c-24,-10 -37,-3 -39,6 -3,10 -4,41 41,56 36,12 120,12 156,0 45,-15 44,-46 41,-56 -3,-9 -16,-16 -39,-6 -37,16 -124,16 -160,0z"/>
    <g style="clip-path:url(#id4)">
     <g>
      <path id="1" class="fil15" d="M656 879c0,0 7,16 23,19 15,3 -16,10 -21,6 -5,-4 -11,-16 -2,-25z"/>
      <path class="fil15" d="M903 879c0,0 -7,16 -23,19 -15,3 16,10 21,6 5,-4 11,-16 2,-25z"/>
     </g>
    </g>
    <path class="fil0" d="M700 874c-24,-10 -37,-3 -39,6 -3,10 -4,41 41,56 36,12 120,12 156,0 45,-15 44,-46 41,-56 -3,-9 -16,-16 -39,-6 -37,16 -124,16 -160,0z"/>
    <path class="fil0" d="M677 773c0,0 29,-16 58,10"/>
    <path class="fil16" d="M658 774c-1,-1 0,-2 1,-3 0,0 30,-16 61,10 1,1 1,2 0,3 -1,1 -2,1 -3,0 -23,-15 -57,-6 -59,-10z"/>
    <path class="fil16" d="M902 774c0,-1 0,-2 -1,-3 -1,0 -30,-16 -61,10 -1,1 -1,2 -1,3 1,1 2,1 3,0 24,-15 58,-6 60,-10z"/>
    <path class="fil17" d="M1450 591c0,0 -122,88 -149,41 -5,-8 -5,-19 -2,-30 -10,-1 -19,-5 -25,-12 -7,-9 -8,-23 0,-42 0,-1 1,-1 1,-2 -4,-2 -8,-4 -12,-7 -5,-5 -10,-11 -12,-17 -7,-14 -6,-30 2,-43 18,-24 10,-57 10,-58l20 8c0,0 9,30 -14,61 -4,7 -4,16 -1,24 2,4 5,8 8,10 2,2 5,4 7,5 16,-28 35,-45 48,-51 7,-4 14,-4 19,-3 8,2 12,8 11,17 -1,8 -7,20 -22,34 -16,16 -31,22 -44,23 -1,2 -2,4 -3,6 -5,12 -5,20 -2,23 3,4 9,6 17,5 7,-12 17,-24 28,-35 9,-9 19,-16 28,-22 10,-6 19,-10 27,-10 12,-1 20,3 24,15 6,18 -12,37 -38,51 -17,9 -37,17 -55,19 -1,0 -1,1 -2,1 -3,8 -4,15 -1,21 16,28 133,-55 133,-55l-1 23zm-101 -29c-6,5 -11,11 -16,17 12,-3 23,-8 34,-14 18,-10 31,-21 29,-28 -1,-2 -2,-2 -4,-2 -5,0 -12,3 -19,8 -8,4 -16,11 -24,19zm-10 -67c-8,5 -20,14 -31,30 6,-3 11,-7 17,-13 8,-7 12,-13 15,-17l-1 0z"/>
    <path class="fil18" d="M1177 657c0,0 -91,27 -97,-7 -1,-6 2,-12 6,-18 -6,-3 -11,-7 -12,-12 -3,-7 0,-15 8,-25 1,0 1,0 1,-1 -2,-2 -4,-4 -5,-6 -3,-4 -4,-9 -4,-13 -1,-9 3,-19 10,-24 16,-11 18,-32 18,-32l10 8c0,0 -1,19 -21,33 -4,3 -6,9 -5,14 0,3 1,5 2,8 1,1 2,3 4,4 15,-13 29,-19 38,-20 5,-1 9,0 12,2 4,3 6,7 3,12 -2,5 -8,10 -20,16 -13,6 -23,6 -31,4 -1,1 -2,2 -3,3 -5,6 -7,10 -6,13 1,3 5,5 10,7 6,-6 15,-11 23,-15 7,-3 15,-6 21,-7 7,-2 13,-2 18,-1 7,2 11,7 11,14 0,12 -15,20 -33,22 -12,2 -25,2 -36,0 -1,0 -1,0 -1,0 -4,4 -6,8 -6,12 4,20 90,-4 90,-4l-5 13zm-54 -38c-4,2 -8,4 -12,7 7,0 15,0 22,-1 13,-3 23,-6 23,-11 0,-1 -1,-2 -2,-2 -3,-1 -7,-1 -12,1 -6,1 -12,3 -19,6zm9 -41c-6,0 -15,4 -25,11 4,-1 8,-2 13,-4 6,-3 9,-5 12,-7l0 0z"/>
    <path class="fil19" d="M470 494c0,0 0,0 0,0 0,0 0,0 0,0 0,0 0,0 0,0 -1,0 -1,1 -1,2l0 0c0,0 0,1 1,2 1,1 2,2 4,2 1,0 2,0 2,-1 1,-1 2,-3 2,-5 0,-1 -1,-3 -3,-5 -2,-2 -4,-3 -7,-3 -2,-1 -4,0 -6,2 -2,2 -3,5 -2,8 0,3 1,6 4,9 4,3 8,6 12,6 4,0 8,-1 11,-4 3,-3 5,-8 4,-13 -1,-5 -3,-11 -8,-15 -4,-5 -10,-8 -17,-8 -5,0 -11,1 -16,7 -5,5 -6,10 -5,16 1,6 5,12 11,19 1,1 0,2 0,3 -1,0 -2,0 -3,0 -6,-8 -10,-15 -12,-22 -1,-7 1,-13 7,-19 6,-6 12,-8 18,-8 8,0 15,4 20,9 5,5 8,12 9,18 0,6 -2,12 -6,16 -3,4 -8,5 -13,5 -5,-1 -10,-3 -14,-7 -4,-4 -6,-8 -6,-12 0,-4 1,-8 4,-11 2,-2 5,-3 9,-3 3,0 6,2 9,5 2,2 3,5 4,7 0,3 -1,6 -3,7 -2,2 -4,3 -6,2 -2,0 -4,-1 -6,-3 -1,-1 -2,-3 -2,-4l0 0 0 0c0,-2 1,-4 2,-5 1,-1 2,-1 4,-1 1,0 2,1 3,2 2,2 1,4 0,5l0 0c-2,1 -3,1 -4,0 0,0 0,0 0,-1l0 0c-1,-1 0,-2 0,-2z"/>
    <path class="fil20" d="M1201 480c0,0 0,0 0,0 0,0 0,0 0,0 0,1 0,1 0,1 1,0 2,0 2,-1l0 0c1,0 2,-1 2,-2 0,-2 0,-4 0,-5 -1,-1 -1,-2 -3,-2 -1,-1 -4,-1 -5,1 -2,1 -3,3 -4,5 -1,4 -1,7 0,10 2,2 3,4 6,5 3,1 7,0 10,-2 3,-2 6,-6 7,-10 2,-6 1,-12 -1,-16 -2,-5 -5,-8 -10,-9 -6,-2 -12,0 -17,3 -5,4 -9,10 -11,17 -2,7 -2,16 2,23 3,6 8,10 17,13 8,2 14,0 20,-5 5,-5 10,-13 14,-23 0,-1 1,-1 2,-1 1,0 2,2 2,3 -4,11 -9,19 -15,25 -7,5 -15,7 -24,5 -10,-3 -16,-8 -20,-15 -4,-8 -4,-18 -2,-26 2,-8 7,-15 13,-19 6,-5 13,-6 20,-5 6,2 10,6 13,12 2,5 3,12 1,19 -1,5 -4,10 -8,12 -5,3 -10,4 -14,3 -4,-1 -7,-4 -9,-7 -1,-4 -1,-9 0,-13 1,-4 3,-6 5,-8 3,-2 6,-2 9,-2 3,1 5,3 6,5 1,3 1,6 0,8 0,3 -2,4 -3,5l0 0 0 0c-2,1 -4,1 -6,1 -2,-1 -3,-2 -3,-3 -1,-2 -1,-4 0,-5 1,-4 4,-3 5,-3l0 0c2,1 2,2 2,4 0,0 0,1 0,1l0 0c-1,1 -2,1 -3,1z"/>
    <path class="fil21" d="M50 533c0,0 116,80 140,36 5,-8 4,-18 1,-29 10,-1 18,-4 23,-11 7,-9 8,-22 0,-40 -1,0 -1,-1 -1,-1 4,-2 8,-4 11,-7 5,-4 9,-10 11,-16 6,-13 5,-28 -3,-40 -17,-23 -10,-54 -10,-54l-18 7c0,0 -8,28 13,58 5,6 5,14 2,22 -2,3 -4,7 -7,9 -2,2 -5,4 -7,5 -15,-26 -33,-41 -46,-47 -6,-3 -12,-4 -17,-3 -8,2 -11,8 -10,17 1,7 7,18 21,31 15,14 29,20 42,21 0,2 1,4 2,5 5,12 6,18 3,22 -3,4 -9,5 -17,5 -6,-12 -16,-23 -26,-33 -9,-8 -18,-15 -27,-20 -9,-5 -18,-8 -25,-9 -11,0 -19,4 -22,15 -5,16 12,34 36,47 16,8 35,15 52,17 0,0 1,0 2,0 3,8 4,15 1,20 -14,27 -125,-49 -125,-49l1 22zm94 -29c6,4 11,10 15,15 -11,-3 -22,-7 -31,-12 -17,-9 -30,-19 -28,-26 1,-1 2,-2 4,-2 4,0 10,3 17,7 8,4 16,10 23,18zm8 -63c8,4 19,13 30,28 -5,-3 -11,-7 -16,-12 -8,-7 -12,-12 -14,-16l0 0z"/>
    <g>
     <path class="fil22" d="M298 432l14 22 26 -7c2,-1 4,0 5,3 0,1 0,2 -1,3l0 0 0 0 -16 21 15 22c1,2 1,4 -1,5 -1,1 -3,1 -4,1l0 0 -25 -9 -16 21c-1,2 -4,2 -6,1 -1,-1 -1,-3 -1,-4l1 -26 -25 -9c-2,-1 -3,-3 -3,-5 1,-2 2,-3 3,-3l25 -7 1 -26c0,-3 2,-4 4,-4 2,0 3,0 4,1l0 0zm-10 79c0,-1 0,-1 1,-2l-1 2z"/>
    </g>
    <g>
     <path class="fil23" d="M434 542l12 19 21 -6c2,-1 5,0 5,2 1,2 0,3 0,4l0 0 0 0 -14 17 12 19c2,2 1,4 -1,5 -1,1 -2,1 -3,1l0 0 -21 -8 -14 18c-1,2 -4,2 -5,1 -2,-1 -2,-3 -2,-4l1 -22 -21 -7c-2,-1 -3,-3 -3,-6 1,-1 2,-2 3,-2l21 -6 1 -22c0,-3 2,-4 4,-4 2,0 3,0 4,1l0 0zm-10 68c0,-1 0,-1 1,-2l-1 2z"/>
    </g>
    <path class="fil23" d="M1045 451l12 -18 0 0c1,-1 2,-2 3,-2 2,0 4,1 4,4l1 22 21 6c1,0 3,1 3,3 1,2 0,4 -2,5l-21 7 0 22c1,2 0,3 -1,4 -2,1 -4,1 -6,-1l-13 -18 -21 8 0 0c-1,0 -3,0 -4,0 -2,-2 -2,-4 -1,-6l13 -18 -14 -18 0 0 0 0c-1,-1 -1,-2 -1,-4 1,-2 3,-3 5,-2l22 6z"/>
    <path class="fil23" d="M1144 755l17 -14 0 0c1,-1 2,-2 4,-1 2,0 3,2 3,5l-6 21 19 12c1,0 2,2 2,3 0,2 -1,4 -3,4l-23 2 -5 21c0,2 -1,3 -2,3 -2,1 -5,0 -5,-2l-9 -20 -22 1 0 0c-1,0 -3,0 -3,-1 -2,-2 -2,-4 0,-6l17 -14 -9 -21 0 0c0,-1 0,-2 1,-3 1,-2 3,-3 5,-2l19 12z"/>
    <path class="fil24" d="M669 814c19,0 35,7 35,15 0,9 -16,16 -35,16 -20,0 -36,-7 -36,-16 0,-8 16,-15 36,-15z"/>
    <path class="fil24" d="M901 814c-20,0 -36,7 -36,15 0,9 16,16 36,16 19,0 35,-7 35,-16 0,-8 -16,-15 -35,-15z"/>
    <path class="fil23" d="M537 843c0,0 -73,-12 -86,9 0,0 -2,8 10,5 12,-3 21,-14 76,-14z"/>
    <path class="fil23" d="M541 839c0,0 -96,-37 -120,-11 0,0 -5,11 12,9 17,-1 33,-13 108,2z"/>
    <path class="fil23" d="M539 851c0,0 -56,-2 -64,16 0,0 -1,6 8,2 9,-3 14,-13 56,-18z"/>
    <path class="fil22" d="M1007 844c0,0 64,-11 76,9 0,0 2,7 -9,4 -10,-3 -18,-13 -67,-13z"/>
    <path class="fil22" d="M1003 840c0,0 86,-32 107,-8 0,0 4,9 -11,8 -15,-1 -29,-13 -96,0z"/>
    <path class="fil22" d="M1004 851c0,0 51,-2 57,14 0,0 1,6 -7,3 -7,-4 -12,-12 -50,-17z"/>
    <g>
     <path class="fil23" d="M483 668l9 13 15 -4c2,-1 5,0 5,3 1,1 0,2 0,3l0 0 0 0 -10 13 9 14c1,1 1,4 -1,5 -1,1 -3,1 -4,1l0 0 -15 -6 -10 13c-2,2 -4,2 -6,1 -1,-1 -2,-3 -1,-4l0 -16 -15 -5c-2,-1 -3,-4 -3,-6 1,-1 2,-2 3,-2l16 -5 0 -16c0,-2 2,-4 4,-4 2,0 3,1 4,2l0 0zm-9 52c0,-1 0,-1 0,-2l0 2z"/>
    </g>
    <path class="fil25" d="M287 580c0,0 42,29 51,13 2,-3 2,-6 1,-10 3,-1 6,-2 8,-5 3,-3 3,-8 0,-14 0,0 0,-1 0,-1 1,0 3,-1 4,-2 2,-2 3,-4 4,-6 2,-5 2,-11 -1,-15 -6,-8 -4,-20 -4,-20l-7 3c0,0 -2,10 5,21 2,2 2,6 1,8 -1,2 -2,3 -3,4 0,0 -1,1 -2,1 -6,-9 -12,-15 -17,-17 -2,-1 -5,-1 -6,-1 -3,1 -5,3 -4,6 0,3 3,7 8,12 5,5 10,7 15,8 0,0 1,1 1,2 2,4 2,6 1,7 -1,2 -3,2 -6,2 -3,-4 -6,-8 -10,-12 -3,-3 -6,-5 -10,-7 -3,-2 -6,-3 -9,-3 -4,-1 -7,1 -8,5 -2,6 4,13 13,17 6,3 13,6 19,7 1,0 1,0 1,0 1,2 2,5 1,7 -6,10 -47,-18 -47,-18l1 8zm35 -11c1,2 3,4 5,6 -4,-1 -8,-3 -12,-5 -6,-3 -11,-7 -10,-9 0,-1 1,-1 2,-1 1,0 4,1 6,3 3,1 6,4 9,6zm2 -23c3,2 7,5 11,10 -2,-1 -4,-2 -6,-4 -2,-2 -4,-4 -5,-6l0 0z"/>
    <g>
     <path class="fil3" d="M464 1094c-19,-39 21,-59 45,-49 24,11 53,56 36,108 -17,52 45,66 48,84 4,18 -85,87 -117,37 -39,-61 35,-83 -12,-180z"/>
     <g style="clip-path:url(#id5)">
      <g id="_1767228847312">
       <path id="1" class="fil4" d="M647 1246c0,0 -38,8 -73,10 -35,2 59,2 59,2 0,0 36,-2 14,-12z"/>
       <path class="fil4" d="M647 1310c0,0 -38,8 -73,10 -35,2 58,2 58,2 0,0 37,-2 15,-12z"/>
       <path class="fil4" d="M641 1373c0,0 -32,7 -61,9 -30,2 49,2 49,2 0,0 31,-2 12,-11z"/>
       <path class="fil26" d="M565 1178l-7 -9c0,0 -8,-31 -20,-14 -12,16 -3,54 -61,58 -59,5 83,20 96,-1 13,-20 -8,-34 -8,-34z"/>
      </g>
     </g>
     <path class="fil0" d="M464 1094c-19,-39 21,-59 45,-49 24,11 53,56 36,108 -17,52 45,66 48,84 4,18 -85,87 -117,37 -39,-61 35,-83 -12,-180z"/>
     <path class="fil3" d="M483 1205c46,-8 91,-7 134,0 17,3 32,9 32,27l0 0c0,13 -8,22 -20,26 15,3 27,16 27,32l0 0c0,16 -11,29 -26,32 11,5 19,17 19,30l0 0c0,16 -11,29 -26,32 9,4 16,13 16,24l0 0c0,14 -12,24 -26,26 -38,7 -75,8 -112,0 -35,-7 -22,-29 -31,-46 -9,-18 -10,-11 -16,-34 -3,-9 -1,-19 6,-26 -7,-10 -10,-28 -10,-39 0,-5 2,-22 4,-26 -2,-5 -4,-11 -4,-35l0 0c0,-18 15,-20 33,-23z"/>
     <g style="clip-path:url(#id6)">
      <g id="_1767228844784">
       <path id="1" class="fil26" d="M652 1238c0,0 -66,13 -118,16 -53,4 88,4 88,4 0,0 63,-5 30,-20z"/>
       <path class="fil26" d="M658 1302c0,0 -67,14 -116,17 -49,3 82,3 82,3 0,0 65,-5 34,-20z"/>
       <path class="fil26" d="M648 1370c0,0 -50,9 -89,11 -38,2 65,3 65,3 0,0 48,-3 24,-14z"/>
       <path class="fil26" d="M450 1358c0,0 20,13 25,26 5,13 8,34 18,37 10,4 61,19 125,12 63,-8 -42,25 -65,16 -24,-8 -70,5 -80,-12 -11,-16 -24,-79 -23,-79z"/>
      </g>
     </g>
     <path class="fil0" d="M483 1205c46,-8 91,-7 134,0 17,3 32,9 32,27l0 0c0,13 -8,22 -20,26 15,3 27,16 27,32l0 0c0,16 -11,29 -26,32 11,5 19,17 19,30l0 0c0,16 -11,29 -26,32 9,4 16,13 16,24l0 0c0,14 -12,24 -26,26 -38,7 -75,8 -112,0 -35,-7 -22,-29 -31,-46 -9,-18 -10,-11 -16,-34 -3,-9 -1,-19 6,-26 -7,-10 -10,-28 -10,-39 0,-5 2,-22 4,-26 -2,-5 -4,-11 -4,-35l0 0c0,-18 15,-20 33,-23z"/>
    </g>
    <g>
     <path class="fil3" d="M1107 1094c19,-39 -21,-59 -45,-49 -24,11 -54,56 -36,108 17,52 -45,66 -48,84 -4,18 85,87 117,37 39,-61 -36,-83 12,-180z"/>
     <g style="clip-path:url(#id7)">
      <g id="_1767228842480">
       <path id="1" class="fil4" d="M924 1246c0,0 38,8 73,10 35,2 -59,2 -59,2 0,0 -36,-2 -14,-12z"/>
       <path class="fil4" d="M924 1310c0,0 38,8 73,10 35,2 -59,2 -59,2 0,0 -36,-2 -14,-12z"/>
       <path class="fil4" d="M930 1373c0,0 32,7 61,9 30,2 -49,2 -49,2 0,0 -31,-2 -12,-11z"/>
       <path class="fil26" d="M1006 1178l7 -9c0,0 8,-31 20,-14 12,16 3,54 61,58 59,5 -83,20 -96,-1 -13,-20 8,-34 8,-34z"/>
      </g>
     </g>
     <path class="fil0" d="M1107 1094c19,-39 -21,-59 -45,-49 -24,11 -54,56 -36,108 17,52 -45,66 -48,84 -4,18 85,87 117,37 39,-61 -36,-83 12,-180z"/>
     <path class="fil3" d="M1088 1205c-46,-8 -91,-7 -134,0 -17,3 -32,9 -32,27l0 0c0,13 8,22 20,26 -15,3 -27,16 -27,32l0 0c0,16 11,29 26,32 -11,5 -19,17 -19,30l0 0c0,16 11,29 26,32 -10,4 -16,13 -16,24l0 0c0,14 12,24 26,26 38,7 75,8 112,0 35,-7 21,-29 31,-46 9,-18 10,-11 16,-34 3,-9 1,-19 -6,-26 7,-10 10,-28 10,-39 0,-5 -2,-22 -5,-26 3,-5 5,-11 5,-35l0 0c0,-18 -15,-20 -33,-23z"/>
     <g style="clip-path:url(#id8)">
      <g id="_1767228841456">
       <path id="1" class="fil26" d="M919 1238c0,0 66,13 118,16 53,4 -88,4 -88,4 0,0 -64,-5 -30,-20z"/>
       <path class="fil26" d="M913 1302c0,0 67,14 116,17 49,3 -82,3 -82,3 0,0 -65,-5 -34,-20z"/>
       <path class="fil26" d="M923 1370c0,0 50,9 88,11 39,2 -64,3 -64,3 0,0 -48,-3 -24,-14z"/>
       <path class="fil26" d="M1121 1358c0,0 -20,13 -25,26 -5,13 -8,34 -18,37 -10,4 -62,19 -125,12 -63,-8 41,25 65,16 24,-8 70,5 80,-12 11,-16 23,-79 23,-79z"/>
      </g>
     </g>
     <path class="fil0" d="M1088 1205c-46,-8 -91,-7 -134,0 -17,3 -32,9 -32,27l0 0c0,13 8,22 20,26 -15,3 -27,16 -27,32l0 0c0,16 11,29 26,32 -11,5 -19,17 -19,30l0 0c0,16 11,29 26,32 -10,4 -16,13 -16,24l0 0c0,14 12,24 26,26 38,7 75,8 112,0 35,-7 21,-29 31,-46 9,-18 10,-11 16,-34 3,-9 1,-19 -6,-26 7,-10 10,-28 10,-39 0,-5 -2,-22 -5,-26 3,-5 5,-11 5,-35l0 0c0,-18 -15,-20 -33,-23z"/>
    </g>
   </g>
  </g>
 </g>
</svg>
