<?xml version="1.0" encoding="UTF-8"?>
<!DOCTYPE svg PUBLIC "-//W3C//DTD SVG 1.1//EN" "http://www.w3.org/Graphics/SVG/1.1/DTD/svg11.dtd">
<!-- Creator: CorelDRAW X7 -->
<svg xmlns="http://www.w3.org/2000/svg" xml:space="preserve" width="1500px" height="1500px" version="1.1" style="shape-rendering:geometricPrecision; text-rendering:geometricPrecision; image-rendering:optimizeQuality; fill-rule:evenodd; clip-rule:evenodd"
viewBox="0 0 1500 1500"
 xmlns:xlink="http://www.w3.org/1999/xlink">
 <defs>
  <style type="text/css">
   <![CDATA[
    .str0 {stroke:#4D4D4D;stroke-width:11.8111}
    .fil0 {fill:none}
    .fil7 {fill:#0081C2}
    .fil8 {fill:#0081C2}
    .fil1 {fill:#0083C4}
    .fil6 {fill:#008FD7}
    .fil16 {fill:#0E2242}
    .fil18 {fill:#1A1A1A}
    .fil2 {fill:#2CB5F5}
    .fil3 {fill:#4CC6FF}
    .fil10 {fill:#C4E7F2}
    .fil21 {fill:#CCCCCC}
    .fil9 {fill:#D9F6FF}
    .fil15 {fill:#F0BC95}
    .fil12 {fill:#F0BC95}
    .fil14 {fill:#FCCEAB}
    .fil20 {fill:#FCCEAB}
    .fil13 {fill:#FFE1BD}
    .fil11 {fill:#FFE1BD}
    .fil4 {fill:#FFFFC4}
    .fil19 {fill:white}
    .fil17 {fill:#0E2242;fill-rule:nonzero}
    .fil22 {fill:#1A1A1A;fill-rule:nonzero}
    .fil24 {fill:#333333;fill-rule:nonzero}
    .fil23 {fill:white;fill-rule:nonzero}
    .fil5 {fill:#CCCCCC;fill-opacity:0.400000}
   ]]>
  </style>
      <clipPath id="id0">
       <path d="M625 1312l173 0 103 99 -367 0 91 -99z"/>
      </clipPath>
      <clipPath id="id1">
       <path d="M507 1006c-20,23 -14,4 -27,26 -14,22 -82,207 -95,240 -4,9 30,62 58,68 32,8 51,7 96,-26 6,-5 37,-351 37,-5 62,3 118,-12 175,-12 136,1 267,37 337,21 34,-9 28,-36 24,-46 -12,-33 -81,-218 -94,-240 -14,-22 -8,-3 -28,-26 -116,-132 -369,-130 -483,0z"/>
      </clipPath>
      <clipPath id="id2">
       <path d="M619 1306l-95 91c0,0 332,29 332,-22 0,0 -1,-2 -4,-3 -13,-10 -52,-48 -56,-66l-177 0z"/>
      </clipPath>
      <clipPath id="id3">
       <path d="M908 688c24,-3 42,16 41,41 -1,33 -34,38 -21,71 4,11 -18,28 -27,23 -28,-12 -38,-59 -37,-86 1,-25 21,-47 44,-49z"/>
      </clipPath>
      <clipPath id="id4">
       <path d="M539 740c-23,4 -36,27 -28,51 11,32 43,28 40,62 -1,12 25,22 33,15 23,-19 20,-67 12,-93 -8,-24 -34,-40 -57,-35z"/>
      </clipPath>
      <clipPath id="id5">
       <path d="M619 1291c0,0 50,-80 128,-32 40,31 214,-82 284,-37 43,27 82,53 59,72 -117,97 -251,-10 -333,30 -44,21 -43,-10 -98,17 -23,-7 -39,-29 -40,-50z"/>
      </clipPath>
 </defs>
 <g id="Layer_x0020_1">
  <metadata id="CorelCorpID_0Corel-Layer"/>
  <rect class="fil0" width="1500" height="1500"/>
  <g id="_2264102359808">
   <g>
    <g>
     <circle class="fil1" cx="750" cy="704" r="615"/>
     <circle class="fil2" cx="750" cy="756" r="562"/>
     <circle class="fil3" cx="750" cy="829" r="490"/>
    </g>
    <g>
     <polygon class="fil4" points="625,1312 798,1312 901,1411 534,1411 "/>
     <g style="clip-path:url(#id0)">
      <g>
       <path id="1" class="fil5" d="M624 1311l-92 88c0,0 327,32 327,-19 -7,-7 -60,-46 -60,-69l-175 0z"/>
      </g>
     </g>
     <polygon class="fil0" points="625,1312 798,1312 901,1411 534,1411 "/>
     <path class="fil6" d="M507 1006c-20,23 -14,4 -27,26 -14,22 -82,207 -95,240 -4,9 30,62 58,68 32,8 51,7 96,-26 6,-5 37,-351 37,-5 62,3 118,-12 175,-12 136,1 267,37 337,21 34,-9 28,-36 24,-46 -12,-33 -81,-218 -94,-240 -14,-22 -8,-3 -28,-26 -116,-132 -369,-130 -483,0z"/>
     <g style="clip-path:url(#id1)">
      <g>
       <path id="1" class="fil7" d="M601 931c0,0 33,9 52,35 19,26 45,54 56,64 47,44 81,3 88,-3 7,-6 28,-30 40,-64 11,-34 68,-35 65,-37 -3,-1 -156,-56 -262,-3 0,0 -24,-25 -39,8z"/>
       <path class="fil8" d="M1012 1024c0,0 -30,-9 -55,5 -25,15 0,-12 34,-22 33,-10 21,17 21,17z"/>
       <path class="fil8" d="M484 1024c0,0 30,-9 55,5 26,15 0,-12 -33,-22 -34,-10 -22,17 -22,17z"/>
       <path class="fil8" d="M1017 1216c0,0 48,23 109,77 60,53 -152,52 -152,52 0,0 -80,-134 43,-129z"/>
       <path class="fil8" d="M377 1294c0,0 -18,-25 97,-86 115,-61 93,99 93,99 0,0 -2,137 -123,80 -121,-57 -67,-92 -67,-93z"/>
       <path class="fil8" d="M905 1318c0,0 18,-177 20,-206 3,-29 -2,0 -6,7 -4,6 -14,78 -36,88 -22,11 25,23 -9,41 -34,18 -65,79 -28,81 37,2 61,-12 59,-11z"/>
       <path class="fil8" d="M591 1157c0,0 5,115 26,113 22,-1 -6,24 27,27 33,2 -1,29 -26,21 -25,-7 -54,2 -54,2 0,0 -20,-208 27,-163z"/>
      </g>
     </g>
     <path class="fil0" d="M507 1006c-20,23 -14,4 -27,26 -14,22 -82,207 -95,240 -4,9 30,62 58,68 32,8 51,7 96,-26 6,-5 37,-351 37,-5 62,3 118,-12 175,-12 136,1 267,37 337,21 34,-9 28,-36 24,-46 -12,-33 -81,-218 -94,-240 -14,-22 -8,-3 -28,-26 -116,-132 -369,-130 -483,0z"/>
     <path class="fil9" d="M619 1306l-95 91c0,0 332,29 332,-22 0,0 -1,-2 -4,-3 -13,-10 -52,-48 -56,-66l-177 0z"/>
     <g style="clip-path:url(#id2)">
      <g>
       <path id="1" class="fil10" d="M756 1404c0,0 68,-22 62,-43 0,0 0,0 0,0 0,0 30,3 38,14 7,11 0,43 -100,29z"/>
      </g>
     </g>
     <path class="fil0" d="M619 1306l-95 91c0,0 332,29 332,-22 0,0 -1,-2 -4,-3 -13,-10 -52,-48 -56,-66l-177 0z"/>
     <path class="fil11" d="M908 688c24,-3 42,16 41,41 -1,33 -34,38 -21,71 4,11 -18,28 -27,23 -28,-12 -38,-59 -37,-86 1,-25 21,-47 44,-49z"/>
     <g style="clip-path:url(#id3)">
      <g>
       <path id="1" class="fil12" d="M955 741c0,0 -11,-46 -35,-41 -24,5 -41,28 -39,54 2,26 28,40 34,31 5,-8 20,11 30,8 10,-3 11,-53 10,-52z"/>
      </g>
     </g>
     <path class="fil0" d="M908 688c24,-3 42,16 41,41 -1,33 -34,38 -21,71 4,11 -18,28 -27,23 -28,-12 -38,-59 -37,-86 1,-25 21,-47 44,-49z"/>
     <path class="fil11" d="M539 740c-23,4 -36,27 -28,51 11,32 43,28 40,62 -1,12 25,22 33,15 23,-19 20,-67 12,-93 -8,-24 -34,-40 -57,-35z"/>
     <g style="clip-path:url(#id4)">
      <g>
       <path id="1" class="fil12" d="M509 804c0,0 -2,-47 22,-49 25,-2 47,15 53,41 5,25 -17,46 -24,40 -7,-7 -17,15 -27,16 -10,0 -25,-48 -24,-48z"/>
      </g>
     </g>
     <path class="fil0" d="M539 740c-23,4 -36,27 -28,51 11,32 43,28 40,62 -1,12 25,22 33,15 23,-19 20,-67 12,-93 -8,-24 -34,-40 -57,-35z"/>
     <path class="fil12" d="M749 853l0 0c36,0 66,30 66,67l0 51c0,36 -42,66 -66,66 -26,0 -67,-30 -67,-66l0 -51c0,-37 30,-67 67,-67z"/>
     <path class="fil13" d="M761 981c-85,12 -156,-60 -166,-69 -8,-8 -36,-144 -40,-171 -14,-102 50,-195 143,-208 93,-13 180,58 195,160 3,27 15,166 9,175 -6,12 -55,101 -141,113z"/>
     <path class="fil14" d="M605 894c0,0 5,-19 11,-15 6,5 12,39 37,50 25,12 47,53 19,51 -27,-1 -76,-54 -67,-86z"/>
     <path class="fil15" d="M715 918c0,0 19,-18 74,-14 0,0 -46,-26 -74,14z"/>
     <path class="fil15" d="M743 852c0,0 22,-2 30,-12 0,0 1,-3 -31,2 -33,4 -30,6 -30,6 10,8 31,4 31,4z"/>
     <path class="fil16" d="M821 604c0,0 16,22 37,35 21,12 35,88 43,142 0,0 53,-129 -20,-225 0,0 43,-110 -11,-177 0,0 -65,69 -89,55 0,0 21,-21 18,-34 -76,67 -307,11 -297,213 8,162 71,216 71,216 0,0 -36,-130 -9,-149 33,-42 18,-46 44,-37 26,8 133,30 213,-39z"/>
     <path class="fil0" d="M591 746c0,0 27,-64 87,-30"/>
     <path class="fil17" d="M592 735c-2,-1 -4,-3 -6,-1 -2,1 -2,3 0,4 -1,0 38,36 97,-1 2,-2 3,-4 1,-5 -2,-1 -3,0 -6,1 -45,29 -83,4 -86,2z"/>
     <path class="fil17" d="M858 710c2,2 4,4 6,2 2,-2 1,-4 0,-7 1,0 -42,-58 -98,-5 -2,2 -4,5 -1,7 2,2 3,1 5,-1 44,-41 84,0 88,4z"/>
     <ellipse class="fil18" transform="matrix(0.112867 -0.0294132 0.0361678 0.138786 817.445 738.342)" rx="147" ry="141"/>
     <ellipse class="fil19" transform="matrix(0.0376728 -0.00981757 0.0120721 0.0463243 820.839 727.153)" rx="147" ry="141"/>
     <path class="fil20" d="M589 895c0,0 5,-19 11,-14 6,4 12,38 37,50 25,11 47,52 19,50 -27,-1 -76,-53 -67,-86z"/>
     <path class="fil11" d="M599 882c0,0 -43,38 -4,125 3,65 -183,162 -179,249 2,54 3,100 34,101 178,3 130,-265 213,-308 45,-23 34,-88 -9,-113 -43,-25 -37,-71 -55,-54z"/>
     <path class="fil0 str0" d="M801 1375c-9,0 -47,0 -59,0"/>
     <path class="fil0 str0" d="M794 1360c-22,-1 -17,3 -50,-1 -4,-1 -54,0 -64,0"/>
     <path class="fil0 str0" d="M788 1343c-6,2 -102,0 -129,1 -1,0 -4,-2 -1,1"/>
     <path class="fil0 str0" d="M722 1374c-14,5 -108,-2 -116,1"/>
     <path class="fil0 str0" d="M665 1358c-10,0 -13,2 -18,-4 -4,0 7,3 -14,2 -1,0 -38,3 -28,3"/>
     <path class="fil0 str0" d="M779 1331c-6,-1 -37,-3 -42,0"/>
     <rect class="fil21" transform="matrix(-0.115799 0.20057 -0.250109 -0.144401 627.198 1339.75)" width="13.0867" height="1.75395" rx="1" ry="1"/>
     <path class="fil18" d="M721 1176l0 0c3,2 3,7 1,12l-73 126c-3,5 -20,29 -23,27 -3,-2 9,-28 12,-33l73 -126c2,-5 7,-8 10,-6z"/>
     <path class="fil11" d="M619 1291c0,0 50,-80 128,-32 40,31 214,-82 284,-37 43,27 82,53 59,72 -117,97 -251,-10 -333,30 -44,21 -43,-10 -98,17 -23,-7 -39,-29 -40,-50z"/>
     <g style="clip-path:url(#id5)">
      <g>
       <path id="1" class="fil12" d="M766 1323c0,0 15,-13 24,-13 9,0 49,12 93,21 0,0 -117,-8 -117,-8z"/>
      </g>
     </g>
     <path class="fil0" d="M619 1291c0,0 50,-80 128,-32 40,31 214,-82 284,-37 43,27 82,53 59,72 -117,97 -251,-10 -333,30 -44,21 -43,-10 -98,17 -23,-7 -39,-29 -40,-50z"/>
     <path class="fil22" d="M631 782c-1,-1 -1,-2 0,-3 0,0 23,-16 51,2 1,0 1,1 1,2 -1,1 -2,1 -3,0 -21,-9 -47,2 -49,-1z"/>
     <path class="fil18" d="M797 887c0,0 -64,-19 -95,14 0,0 2,6 7,3 6,-4 28,-26 86,-15 0,0 7,0 2,-2z"/>
     <path class="fil23" d="M863 319c-43,-29 -11,-76 21,-66 0,-28 54,-38 75,-10 0,-37 65,-37 65,0 32,-28 86,10 64,38 33,9 22,56 0,56 33,10 22,57 0,57 22,28 -32,66 -64,28 -11,38 -75,38 -75,0 -22,28 -65,19 -54,-9 -32,9 -54,-29 -32,-47 -22,0 -32,-47 0,-47zm70 148c0,-14 -10,-25 -24,-25 -13,0 -24,11 -24,25 0,13 11,24 24,24 14,0 24,-11 24,-24zm-27 39c0,-9 -7,-16 -16,-16 -9,0 -16,7 -16,16 0,9 7,16 16,16 9,0 16,-7 16,-16zm-21 26c0,-5 -4,-8 -8,-8 -5,0 -8,3 -8,8 0,4 3,8 8,8 4,0 8,-4 8,-8z"/>
     <path class="fil23" d="M529 373c42,-28 10,-74 -21,-65 0,-27 -53,-37 -74,-9 0,-37 -63,-37 -63,0 -31,-28 -84,9 -63,37 -31,9 -21,55 0,55 -31,9 -21,55 0,55 -21,28 32,64 63,28 11,36 74,36 74,0 21,27 63,18 52,-10 32,10 53,-27 32,-46 21,0 31,-45 0,-45zm-69 144c0,-13 10,-23 24,-23 13,0 23,10 23,23 0,13 -10,24 -23,24 -14,0 -24,-11 -24,-24zm27 38c0,-8 7,-15 15,-15 9,0 16,7 16,15 0,9 -7,16 -16,16 -8,0 -15,-7 -15,-16zm20 26c0,-4 4,-8 8,-8 4,0 8,4 8,8 0,4 -4,8 -8,8 -4,0 -8,-4 -8,-8z"/>
     <path class="fil23" d="M1025 547c-51,-34 -13,-90 26,-79 0,-33 63,-44 89,-11 0,-44 76,-44 76,0 39,-33 103,11 77,45 38,11 26,67 0,67 38,11 26,67 0,67 26,34 -38,78 -77,34 -12,44 -89,44 -89,0 -25,33 -76,22 -64,-12 -38,12 -64,-33 -38,-56 -26,0 -38,-55 0,-55zm5 121c0,-16 -12,-29 -28,-29 -16,0 -29,13 -29,29 0,16 13,29 29,29 16,0 28,-13 28,-29zm-55 30c0,-10 -8,-19 -19,-19 -10,0 -19,9 -19,19 0,11 9,19 19,19 11,0 19,-8 19,-19zm-39 20c0,-5 -5,-9 -10,-9 -5,0 -10,4 -10,9 0,6 5,10 10,10 5,0 10,-4 10,-10z"/>
     <path class="fil24" d="M349 392l-3 2c0,0 -1,0 -2,0 -1,1 -2,3 -1,4 0,3 2,4 4,3 1,0 1,-1 1,-1l3 -2 9 24c1,3 4,5 7,4 5,-2 12,-17 11,-20 -1,-2 -2,-3 -5,-2 -2,1 -2,2 -2,4 -1,5 -3,10 -4,10 -1,0 -1,-1 -2,-2l-8 -22 6 -4c1,1 1,1 2,0 1,0 2,-2 1,-4 -1,-1 -2,-3 -4,-2 0,0 -1,0 -1,1l-6 4 -2 -5c1,-1 1,-2 0,-3 0,-2 -2,-1 -4,-1 -3,1 -4,3 -3,5 0,1 0,1 1,1l2 6z"/>
     <path id="1" class="fil24" d="M402 409c-1,1 -1,2 -1,3 1,1 3,2 5,1 2,0 4,-2 3,-4 0,-1 -1,-1 -1,-2l-6 -23c-1,-5 -2,-7 -6,-6 -3,0 -6,4 -9,9l0 0 -5 -19c0,0 1,-1 0,-2 0,-2 -3,-3 -4,-3 -3,1 -4,3 -4,5 1,1 1,2 2,2l10 43c0,0 0,1 0,2 1,2 1,3 4,2 2,0 4,-2 4,-4 0,-1 -1,-2 -1,-2l-4 -16c2,-6 4,-8 6,-8 1,-1 1,0 2,3l5 19z"/>
     <path id="2" class="fil24" d="M414 359c-3,0 -4,4 -3,8 0,2 1,4 4,3 2,0 4,-4 3,-8 0,-3 -2,-4 -4,-3zm3 46c0,1 0,1 0,3 0,2 2,3 4,3 2,0 5,-2 5,-5 -1,-1 -1,-2 -2,-2l-4 -24c0,0 1,-1 1,-3 -1,-1 -3,-3 -5,-3 -4,1 -4,4 -4,6 0,1 1,1 1,2l4 23z"/>
     <path id="3" class="fil24" d="M440 385c5,-7 6,-8 7,-8 0,0 1,1 1,1l2 25c0,0 -1,1 -1,2 1,2 2,3 4,2 3,0 5,-1 5,-3 -1,-1 -1,-2 -1,-2l-2 -29c-1,-2 -3,-4 -5,-4 -3,0 -4,1 -11,9l0 -3c0,0 1,-2 0,-3 0,-1 -1,-2 -4,-2 -2,0 -4,2 -4,4 0,1 0,1 1,2l0 7c0,1 0,3 0,4 0,2 0,3 1,3l1 14c-1,1 -1,1 -1,2 0,2 2,3 4,3 2,-1 5,-2 5,-4 0,-1 -1,-1 -1,-1l-1 -19z"/>
     <path id="4" class="fil24" d="M474 358c0,-1 0,-2 0,-2 0,-2 -1,-4 -4,-4 -4,0 -4,2 -4,4 0,0 0,2 1,2l-1 43c-1,0 -1,2 -1,2 0,4 2,4 4,4 3,1 5,-1 5,-3 0,-1 -1,-2 -1,-3l0 -11 0 0c1,3 3,4 4,6l6 9c0,2 1,3 2,3 3,0 5,-1 5,-4 0,-1 -1,-2 -2,-2l-10 -15 10 -12c1,0 2,-2 2,-3 0,-2 -1,-4 -4,-4 -2,0 -3,1 -3,3l-5 7c-1,1 -3,3 -5,6l0 0 1 -26z"/>
     <path class="fil24" d="M1085 522c-10,1 -22,9 -22,19 0,5 3,9 8,9 4,0 6,-1 9,-2 2,-1 4,-2 6,-3 2,0 3,2 3,5 1,8 -9,12 -13,13 -2,0 -3,-1 -4,-2 1,-1 1,-1 1,-2 0,-1 -1,-3 -4,-3 -3,0 -4,3 -4,6 0,5 6,8 11,8 5,0 22,-6 22,-22 0,-7 -4,-10 -9,-10 -3,0 -6,1 -9,2 -2,1 -4,3 -6,3 -1,0 -2,-1 -2,-3 0,-4 5,-10 13,-10 2,0 3,0 3,1 0,0 1,0 2,0 2,0 4,-1 3,-4 0,-3 -4,-5 -8,-5z"/>
     <path id="1" class="fil24" d="M1114 525l-4 1c0,-1 -1,-1 -2,-1 -2,0 -4,1 -4,4 0,2 1,4 4,4 1,0 1,0 2,0l4 -1 -3 31c0,4 2,8 6,8 7,1 22,-12 22,-16 0,-2 -1,-4 -4,-5 -3,0 -4,2 -4,4 -3,4 -9,9 -10,8 -1,0 -1,-1 -1,-2l2 -29 9 -1c1,1 1,1 2,1 2,0 3,-2 3,-4 1,-2 0,-4 -3,-4 0,0 -1,0 -2,0l-8 1 1 -6c0,-1 1,-2 1,-3 0,-2 -3,-3 -4,-3 -4,0 -6,1 -6,3 0,1 0,2 0,2l-1 8z"/>
     <path id="2" class="fil24" d="M1170 532c-11,-3 -24,8 -28,26 -2,11 3,17 7,18 7,1 11,0 19,-6 2,-2 8,-8 10,-17 2,-7 2,-19 -8,-21zm-3 7c4,1 4,6 3,13 -2,6 -4,10 -8,14 -3,2 -6,4 -9,3 -3,-1 -3,-5 -2,-11 2,-11 11,-20 16,-19z"/>
     <path id="3" class="fil24" d="M1182 576c-1,0 -2,1 -2,1 -1,3 0,5 3,6 5,1 6,1 8,-2 0,-1 0,-3 -1,-3l7 -19c5,-4 10,-5 11,-5 0,0 0,1 0,2 -1,1 -1,2 -1,2 -1,2 0,3 3,4 3,2 4,0 5,-2 4,-9 2,-13 -1,-14 -3,-1 -8,1 -13,4l0 0 1 -3c1,0 1,-1 1,-2 1,-1 -1,-3 -3,-4 -3,-1 -6,0 -6,1l0 3 -12 31z"/>
     <path id="4" class="fil24" d="M1221 595c-9,9 -13,11 -14,10 -2,0 -2,-2 -1,-4 0,0 1,-1 1,-1 2,-3 1,-4 -2,-6 -2,-1 -5,0 -6,2 -1,1 0,1 0,3 -2,6 0,11 4,13 4,2 8,2 17,-6l34 -32c2,0 3,-1 4,-2 1,-2 -1,-4 -3,-6 -3,-1 -5,1 -6,2l-19 20 3 -28c1,-2 1,-5 -2,-6 -1,-1 -5,-1 -6,1 -1,2 -1,2 0,4l-4 36z"/>
     <path class="fil24" d="M890 342c0,0 -1,1 -1,2 0,2 2,3 4,3 5,0 6,-1 6,-4 0,-1 -1,-2 -2,-2l0 -17c2,-5 5,-8 6,-8 1,0 1,1 1,2 0,0 0,1 0,2 0,1 1,2 3,2 3,0 4,-2 4,-4 0,-8 -3,-10 -5,-10 -3,0 -6,3 -10,7l0 0 0 -2c0,-1 0,-2 0,-2 0,-2 -1,-3 -3,-3 -3,1 -5,2 -5,3l1 3 1 28z"/>
     <path id="1" class="fil24" d="M933 308c-9,-1 -19,11 -19,27 0,9 4,12 10,12 10,0 17,-10 17,-12 0,-1 0,-3 -3,-4 -3,0 -4,2 -4,4 -1,2 -5,6 -9,6 -3,0 -4,-2 -4,-7 0,-2 0,-3 1,-5l3 -1c15,-3 17,-6 17,-10 0,-4 -2,-10 -9,-10zm-1 6c3,0 4,2 4,5 0,1 -2,2 -13,4 2,-5 5,-9 9,-9z"/>
     <path id="2" class="fil24" d="M954 348c3,0 4,0 5,-3 3,-6 5,-10 9,-17 5,-7 8,-10 8,-13 0,-3 -1,-4 -3,-4 -2,0 -3,1 -5,4 -2,4 -4,7 -5,10 -2,2 -4,7 -6,11l0 -9c-1,-4 -1,-8 -1,-12 1,0 2,-1 2,-2 0,-1 -1,-4 -4,-4 -3,0 -5,1 -5,3 0,1 0,2 1,2 -1,4 -1,10 0,18 1,5 1,9 1,11 -1,4 2,5 3,5z"/>
     <path id="3" class="fil24" d="M992 299c-3,-1 -6,2 -6,6 -1,3 0,5 2,5 3,1 6,-2 7,-7 0,-2 -1,-4 -3,-4zm-15 46c0,0 -1,1 -1,2 -1,3 0,5 3,5 2,1 5,0 6,-3 0,-1 0,-2 -1,-2l6 -25c0,0 1,-1 1,-3 0,-1 -1,-4 -3,-4 -5,-1 -5,1 -6,3 0,1 0,2 0,3l-5 24z"/>
     <path id="4" class="fil24" d="M1018 322c-8,-3 -20,6 -25,21 -2,9 1,13 6,15 10,3 20,-5 20,-7 1,-2 1,-4 -2,-5 -2,0 -4,1 -5,3 -1,2 -6,4 -10,3 -2,-1 -3,-3 -2,-7 1,-2 1,-4 2,-5l3 0c15,1 18,-1 20,-5 1,-4 0,-11 -7,-13zm-2 6c3,1 3,3 2,6 0,1 -2,2 -13,1 3,-5 7,-8 11,-7z"/>
     <path id="5" class="fil24" d="M1042 332c1,-2 0,-3 -2,-4 -2,-1 -4,-1 -5,2 -1,1 -1,2 0,3l-7 27c-2,3 -1,5 1,6 2,1 4,1 6,-2l13 -15 -4 21c0,1 0,3 3,4 3,1 4,0 4,-2 3,-5 7,-9 12,-14 2,-3 5,-6 7,-11 1,0 1,-1 2,-2 0,-1 -1,-3 -2,-4 -2,-1 -5,0 -6,2 0,0 0,1 0,2 -1,3 -3,6 -6,9 -2,2 -4,5 -6,7l0 0 3 -18c2,-5 1,-7 -1,-8 -2,-1 -4,0 -5,2 0,1 0,2 0,3l-14 14 0 0 6 -20c0,-1 1,-1 1,-2z"/>
     <path class="fil23" d="M690 360c-2,0 -4,-1 -6,-2 -2,-1 -3,-3 -3,-5 -1,-4 2,-9 8,-16l16 -17c6,-8 9,-14 8,-19 -1,-6 -5,-11 -12,-15 -6,-4 -13,-6 -19,-5 -4,1 -8,3 -12,8 -5,4 -8,6 -9,6 -2,1 -4,0 -6,-1 -2,-2 -3,-4 -3,-6 -1,-4 2,-9 10,-14 6,-6 12,-8 17,-9 11,-2 21,0 32,7 10,7 16,16 18,27 1,7 0,15 -4,22 -3,4 -7,10 -15,17 -7,7 -11,13 -14,17 -2,3 -3,4 -6,5zm1 31c-2,0 -4,0 -6,-1 -3,-2 -4,-4 -4,-6 -1,-3 -1,-6 1,-9 1,-4 4,-5 7,-6 5,-1 8,2 9,8 1,3 0,6 -1,8 -1,3 -3,5 -6,6z"/>
     <path class="fil23" d="M757 358c-2,0 -3,-1 -5,-2 -1,-2 -2,-4 -2,-5 0,-4 3,-8 9,-13l16 -13c6,-5 9,-10 9,-14 -1,-6 -3,-11 -8,-15 -6,-5 -11,-7 -16,-6 -3,0 -7,1 -12,4 -4,4 -7,5 -8,5 -2,0 -3,0 -5,-2 -1,-1 -2,-3 -2,-5 0,-4 3,-8 10,-11 7,-4 12,-6 16,-6 10,0 18,3 26,10 8,7 12,16 13,25 0,7 -2,13 -7,19 -2,3 -7,7 -14,12 -7,6 -12,10 -14,14 -2,2 -4,3 -6,3zm-3 26c-2,1 -4,0 -5,-1 -2,-2 -3,-3 -3,-5 0,-3 1,-6 2,-8 2,-3 4,-4 7,-4 4,-1 7,2 7,8 0,2 -1,5 -2,7 -1,2 -3,3 -6,3z"/>
     <path class="fil23" d="M643 380c-1,1 -3,2 -4,2 -2,0 -3,-1 -4,-2 -2,-2 -2,-6 -1,-11l3 -16c0,-6 -1,-11 -3,-13 -3,-3 -7,-5 -12,-4 -5,0 -9,1 -12,4 -2,2 -3,4 -4,8 -1,4 -2,7 -3,7 -1,1 -2,2 -4,2 -1,0 -3,-1 -3,-2 -2,-2 -2,-6 0,-12 2,-5 4,-9 6,-11 5,-5 12,-7 20,-7 8,0 15,2 20,8 3,4 5,8 6,13 0,4 -1,8 -2,15 -1,7 -2,12 -2,15 0,2 0,3 -1,4zm12 17c-1,1 -3,2 -5,2 -1,0 -3,0 -4,-1 -1,-2 -2,-4 -2,-6 -1,-2 0,-4 1,-6 3,-2 6,-2 8,1 2,2 3,3 3,5 0,2 0,4 -1,5z"/>
    </g>
   </g>
   <rect class="fil0" width="1500" height="1500"/>
  </g>
 </g>
</svg>
