<?xml version="1.0" encoding="UTF-8"?>
<!DOCTYPE svg PUBLIC "-//W3C//DTD SVG 1.1//EN" "http://www.w3.org/Graphics/SVG/1.1/DTD/svg11.dtd">
<!-- Creator: CorelDRAW X7 -->
<svg xmlns="http://www.w3.org/2000/svg" xml:space="preserve" width="1500px" height="1500px" version="1.1" style="shape-rendering:geometricPrecision; text-rendering:geometricPrecision; image-rendering:optimizeQuality; fill-rule:evenodd; clip-rule:evenodd"
viewBox="0 0 1500 1500"
 xmlns:xlink="http://www.w3.org/1999/xlink">
 <defs>
  <style type="text/css">
   <![CDATA[
    .fil0 {fill:none}
    .fil17 {fill:black}
    .fil5 {fill:#0077B3}
    .fil6 {fill:#0081C2}
    .fil7 {fill:#0081C2}
    .fil1 {fill:#0083C4}
    .fil4 {fill:#008FD7}
    .fil13 {fill:#0B1930}
    .fil12 {fill:#0E2242}
    .fil15 {fill:#1A1A1A}
    .fil22 {fill:#25D366}
    .fil23 {fill:#25D366}
    .fil2 {fill:#2CB5F5}
    .fil26 {fill:#333333}
    .fil19 {fill:#424242}
    .fil3 {fill:#4CC6FF}
    .fil18 {fill:#4D4D4D}
    .fil27 {fill:#666666}
    .fil28 {fill:#E6E6E6}
    .fil11 {fill:#F0BC95}
    .fil9 {fill:#F0BC95}
    .fil21 {fill:#F34A38}
    .fil10 {fill:#FFE1BD}
    .fil8 {fill:#FFE1BD}
    .fil25 {fill:white}
    .fil16 {fill:white}
    .fil24 {fill:#495894;fill-rule:nonzero}
    .fil14 {fill:#0E2242;fill-rule:nonzero}
    .fil20 {fill:white;fill-rule:nonzero}
   ]]>
  </style>
      <clipPath id="id0">
       <path d="M504 1055c-21,23 -14,4 -28,26 -14,22 -83,210 -96,244 -4,9 -7,39 22,45 64,15 209,-20 350,-19 138,1 272,37 342,20 35,-8 30,-36 26,-46 -13,-34 -83,-222 -97,-244 -14,-22 -7,-3 -28,-26 -118,-134 -375,-132 -491,0z"/>
      </clipPath>
      <clipPath id="id1">
       <path d="M939 741c24,2 40,23 35,48 -6,33 -39,34 -31,68 3,12 -22,26 -30,20 -27,-16 -31,-65 -26,-92 5,-25 28,-45 52,-44z"/>
      </clipPath>
      <clipPath id="id2">
       <path d="M560 741c-24,2 -40,23 -35,48 6,33 39,34 31,68 -3,12 22,26 31,20 26,-16 30,-65 25,-92 -5,-25 -28,-45 -52,-44z"/>
      </clipPath>
      <clipPath id="id3">
       <path d="M864 645c0,0 12,25 32,40 19,15 23,94 23,150 0,0 71,-123 12,-230 0,0 58,-105 14,-180 0,0 -75,60 -97,43 0,0 23,-18 22,-32 -86,57 -310,-33 -329,172 -15,164 41,228 41,228 0,0 -18,-136 11,-151 39,-38 25,-44 50,-32 26,13 130,50 221,-8z"/>
      </clipPath>
      <clipPath id="id4">
       <path d="M703 1361l94 0 4 -164c0,-7 2,-13 -4,-13l-94 0c-5,0 -4,6 -4,13l4 164z"/>
      </clipPath>
      <clipPath id="id5">
       <path d="M849 1348c0,0 161,59 204,52 43,-6 103,-88 25,-113 -77,-24 -214,8 -214,8 0,0 -108,-30 -130,-17 -22,12 -16,33 -16,33l45 64c0,0 15,10 32,-1 17,-11 54,-26 54,-26z"/>
      </clipPath>
      <clipPath id="id6">
       <path d="M651 1348c0,0 -161,59 -204,52 -43,-6 -103,-88 -25,-113 77,-24 214,8 214,8 0,0 108,-30 130,-17 22,12 16,33 16,33l-45 64c0,0 -15,10 -32,-1 -17,-11 -54,-26 -54,-26z"/>
      </clipPath>
 </defs>
 <g id="Layer_x0020_1">
  <metadata id="CorelCorpID_0Corel-Layer"/>
  <rect class="fil0" width="1500" height="1500"/>
  <g id="_2264323108432">
   <g>
    <g>
     <circle class="fil1" cx="750" cy="714" r="615"/>
     <circle class="fil2" cx="750" cy="766" r="562"/>
     <circle class="fil3" cx="750" cy="839" r="490"/>
    </g>
    <g>
     <path class="fil4" d="M504 1055c-21,23 -14,4 -28,26 -14,22 -83,210 -96,244 -4,9 -7,39 22,45 64,15 209,-20 350,-19 138,1 272,37 342,20 35,-8 30,-36 26,-46 -13,-34 -83,-222 -97,-244 -14,-22 -7,-3 -28,-26 -118,-134 -375,-132 -491,0z"/>
     <g style="clip-path:url(#id0)">
      <g>
       <path id="1" class="fil5" d="M1064 1287c21,1 36,1 72,48 36,47 -65,49 -65,49 0,0 -129,-63 -7,-97z"/>
       <path class="fil6" d="M600 979c0,0 33,9 52,35 19,26 45,54 55,64 47,44 81,3 88,-3 8,-6 28,-30 40,-64 11,-34 68,-35 65,-37 -3,-1 -155,-56 -262,-3 0,0 -23,-25 -38,8z"/>
       <path class="fil5" d="M426 1288c0,0 -22,-6 -72,56 -50,61 65,55 65,55 0,0 129,-72 7,-111z"/>
       <path class="fil7" d="M940 1429c0,0 20,-243 23,-282 3,-40 -3,0 -8,9 -5,9 -15,106 -41,121 -26,15 29,31 -11,56 -39,25 -75,109 -32,111 43,2 71,-16 69,-15z"/>
       <path class="fil7" d="M556 1429c0,0 -20,-243 -23,-282 -3,-40 3,0 8,9 4,9 15,106 41,121 26,15 -29,31 10,56 40,25 76,109 33,111 -43,2 -71,-16 -69,-15z"/>
      </g>
     </g>
     <path class="fil0" d="M504 1055c-21,23 -14,4 -28,26 -14,22 -83,210 -96,244 -4,9 -7,39 22,45 64,15 209,-20 350,-19 138,1 272,37 342,20 35,-8 30,-36 26,-46 -13,-34 -83,-222 -97,-244 -14,-22 -7,-3 -28,-26 -118,-134 -375,-132 -491,0z"/>
     <path class="fil8" d="M939 741c24,2 40,23 35,48 -6,33 -39,34 -31,68 3,12 -22,26 -30,20 -27,-16 -31,-65 -26,-92 5,-25 28,-45 52,-44z"/>
     <g style="clip-path:url(#id1)">
      <g>
       <path id="1" class="fil9" d="M979 802c0,0 -5,-48 -30,-46 -25,1 -45,22 -47,48 -2,26 23,45 30,37 6,-8 19,13 29,12 11,-1 19,-52 18,-51z"/>
      </g>
     </g>
     <path class="fil0" d="M939 741c24,2 40,23 35,48 -6,33 -39,34 -31,68 3,12 -22,26 -30,20 -27,-16 -31,-65 -26,-92 5,-25 28,-45 52,-44z"/>
     <path class="fil8" d="M560 741c-24,2 -40,23 -35,48 6,33 39,34 31,68 -3,12 22,26 31,20 26,-16 30,-65 25,-92 -5,-25 -28,-45 -52,-44z"/>
     <g style="clip-path:url(#id2)">
      <g>
       <path id="1" class="fil9" d="M521 802c0,0 4,-48 29,-46 25,1 45,22 47,48 2,26 -23,45 -30,37 -6,-8 -19,13 -29,12 -10,-1 -18,-52 -17,-51z"/>
      </g>
     </g>
     <path class="fil0" d="M560 741c-24,2 -40,23 -35,48 6,33 39,34 31,68 -3,12 22,26 31,20 26,-16 30,-65 25,-92 -5,-25 -28,-45 -52,-44z"/>
     <path class="fil9" d="M750 899l0 0c37,0 68,31 68,68l0 52c0,37 -39,67 -68,67 -30,0 -68,-30 -68,-67l0 -52c0,-37 30,-68 68,-68z"/>
     <path class="fil10" d="M750 1016c-88,0 -150,-83 -158,-94 -7,-8 -16,-150 -16,-177 0,-105 78,-189 174,-189 95,0 173,84 173,189 0,27 -9,169 -15,177 -9,11 -71,94 -158,94z"/>
     <path class="fil11" d="M712 944c0,0 21,15 76,3 0,0 -42,33 -76,-3z"/>
     <path class="fil11" d="M750 884c0,0 21,1 31,-10 0,0 2,-3 -31,-3 -34,0 -32,3 -32,3 10,11 32,10 32,10z"/>
     <path class="fil12" d="M864 645c0,0 12,25 32,40 19,15 23,94 23,150 0,0 71,-123 12,-230 0,0 58,-105 14,-180 0,0 -75,60 -97,43 0,0 23,-18 22,-32 -86,57 -310,-33 -329,172 -15,164 41,228 41,228 0,0 -18,-136 11,-151 39,-38 25,-44 50,-32 26,13 130,50 221,-8z"/>
     <g style="clip-path:url(#id3)">
      <g>
       <path id="1" class="fil13" d="M598 482c0,0 -61,132 -21,141 39,10 35,21 61,28 25,7 -21,60 -21,60 0,0 -3,158 -35,139 -32,-19 -77,-108 -59,-158 19,-50 -36,-74 -4,-107 33,-33 -12,-54 79,-103z"/>
       <path class="fil13" d="M862 647l1 -2c0,0 30,-9 68,-40 38,-30 48,102 39,126 -9,25 -29,131 -56,120 -27,-12 -24,-145 -52,-204z"/>
       <path class="fil13" d="M944 416c0,0 3,2 1,10 -2,7 -66,126 -113,62 0,0 -10,-12 16,-21 26,-8 96,-52 96,-51z"/>
      </g>
     </g>
     <path class="fil0" d="M864 645c0,0 12,25 32,40 19,15 23,94 23,150 0,0 71,-123 12,-230 0,0 58,-105 14,-180 0,0 -75,60 -97,43 0,0 23,-18 22,-32 -86,57 -310,-33 -329,172 -15,164 41,228 41,228 0,0 -18,-136 11,-151 39,-38 25,-44 50,-32 26,13 130,50 221,-8z"/>
     <path class="fil0" d="M611 755c0,0 37,-60 92,-18"/>
     <path class="fil14" d="M614 756c-2,3 -3,5 -6,4 -2,-2 -2,-4 0,-7 -2,0 33,-65 97,-19 3,2 4,4 2,6 -1,3 -3,2 -6,0 -50,-34 -84,12 -87,16z"/>
     <path class="fil14" d="M886 756c1,3 3,5 5,4 3,-2 2,-4 1,-7 1,0 -34,-65 -98,-19 -2,2 -4,4 -2,6 2,3 4,2 6,0 50,-34 84,12 88,16z"/>
     <g>
      <ellipse class="fil15" cx="673" cy="813" rx="17" ry="21"/>
      <ellipse class="fil16" cx="680" cy="803" rx="6" ry="7"/>
     </g>
     <g>
      <ellipse class="fil15" cx="826" cy="813" rx="17" ry="21"/>
      <ellipse class="fil16" cx="832" cy="803" rx="6" ry="7"/>
     </g>
     <path class="fil17" d="M832 888c-1,1 0,3 2,7 -14,15 -40,37 -81,38 -43,1 -68,-19 -83,-34 3,-3 3,-6 3,-6 -1,-1 -4,1 -6,5 -3,3 -4,7 -3,7 1,1 2,0 5,-3 5,5 25,36 83,35 59,-2 78,-35 84,-40 2,3 4,4 4,3 1,-1 0,-4 -2,-7 -3,-3 -5,-6 -6,-5z"/>
     <path class="fil18" d="M703 1361l94 0 4 -164c0,-7 2,-13 -4,-13l-94 0c-5,0 -4,6 -4,13l4 164z"/>
     <g style="clip-path:url(#id4)">
      <g>
       <path id="1" class="fil19" d="M698 1199c0,0 0,-10 6,-10 6,0 88,0 90,0 5,0 8,5 8,9 0,-3 2,-17 2,-17l-111 0 5 18z"/>
      </g>
     </g>
     <path class="fil0" d="M703 1361l94 0 4 -164c0,-7 2,-13 -4,-13l-94 0c-5,0 -4,6 -4,13l4 164z"/>
     <path class="fil20" d="M795 1174c-2,0 -3,-1 -4,-3 0,-2 2,-4 4,-4 13,0 21,6 25,18 0,2 -1,4 -3,4 -2,1 -3,0 -4,-2 -3,-9 -9,-13 -18,-13z"/>
     <path class="fil20" d="M796 1160c-2,0 -4,-1 -4,-3 0,-2 2,-4 4,-4 9,0 17,3 23,7 6,5 10,11 14,20 0,2 -1,4 -2,4 -2,1 -4,0 -5,-2 -3,-7 -7,-12 -12,-16 -5,-3 -11,-5 -18,-6z"/>
     <path class="fil20" d="M796 1147c-2,0 -3,-1 -3,-3 0,-2 1,-4 3,-4 12,0 23,3 31,9 8,6 14,15 18,27 1,1 0,3 -2,4 -2,1 -4,0 -5,-2 -3,-10 -8,-18 -15,-23 -7,-5 -16,-8 -27,-8z"/>
     <path class="fil8" d="M849 1348c0,0 161,59 204,52 43,-6 103,-88 25,-113 -77,-24 -214,8 -214,8 0,0 -108,-30 -130,-17 -22,12 -16,33 -16,33l45 64c0,0 15,10 32,-1 17,-11 54,-26 54,-26z"/>
     <g style="clip-path:url(#id5)">
      <g>
       <path id="1" class="fil9" d="M400 1369c0,0 39,21 63,18 62,-6 182,-54 192,-37 11,16 -151,69 -215,56 -65,-13 -42,-38 -40,-37z"/>
       <path class="fil9" d="M1100 1369c0,0 -39,21 -63,18 -62,-6 -182,-54 -193,-37 -10,16 152,69 216,56 64,-13 42,-38 40,-37z"/>
      </g>
     </g>
     <path class="fil0" d="M849 1348c0,0 161,59 204,52 43,-6 103,-88 25,-113 -77,-24 -214,8 -214,8 0,0 -108,-30 -130,-17 -22,12 -16,33 -16,33l45 64c0,0 15,10 32,-1 17,-11 54,-26 54,-26z"/>
     <path class="fil8" d="M651 1348c0,0 -161,59 -204,52 -43,-6 -103,-88 -25,-113 77,-24 214,8 214,8 0,0 108,-30 130,-17 22,12 16,33 16,33l-45 64c0,0 -15,10 -32,-1 -17,-11 -54,-26 -54,-26z"/>
     <g style="clip-path:url(#id6)">
      <g>
       <path id="1" class="fil9" d="M400 1369c0,0 39,21 63,18 62,-6 182,-54 192,-37 11,16 -151,69 -215,56 -65,-13 -42,-38 -40,-37z"/>
       <path class="fil9" d="M1100 1369c0,0 -39,21 -63,18 -62,-6 -182,-54 -193,-37 -10,16 152,69 216,56 64,-13 42,-38 40,-37z"/>
      </g>
     </g>
     <path class="fil0" d="M651 1348c0,0 -161,59 -204,52 -43,-6 -103,-88 -25,-113 77,-24 214,8 214,8 0,0 108,-30 130,-17 22,12 16,33 16,33l-45 64c0,0 -15,10 -32,-1 -17,-11 -54,-26 -54,-26z"/>
     <path class="fil20" d="M1090 420c-2,1 -4,2 -6,3 2,-2 3,-5 4,-9l0 0c0,0 -1,-1 -2,0l0 0c-3,2 -5,4 -8,5 -1,0 -1,0 -1,1 -1,0 -1,0 -2,-1 -4,-2 -8,-3 -13,-2l0 0c-2,1 -4,2 -6,3 -5,3 -9,9 -9,15 0,2 0,5 1,7 0,0 0,0 0,1 0,0 0,0 0,0 0,0 0,0 0,0 -14,2 -27,-2 -38,-11l0 0c0,0 -1,0 -1,1l0 0c-1,3 -1,6 -1,10 1,5 4,9 9,12 -2,0 -3,-1 -5,-1l0 0c-1,0 -1,0 -1,1l0 0c1,8 7,13 14,15 0,0 0,0 0,0 -1,0 -2,0 -3,0l0 0c-1,0 -1,1 -1,2l0 0c4,6 10,10 17,9 -4,5 -11,9 -17,10l-3 1c0,0 -1,0 -1,1 0,1 1,1 1,2 9,2 18,3 27,1 8,-2 15,-5 21,-10 6,-4 10,-9 14,-15 3,-6 5,-12 6,-19 1,-6 0,-12 -1,-18l0 0c0,-1 0,-2 1,-3 2,-3 4,-6 5,-10l0 0c0,0 0,0 0,0l0 0c0,-1 -1,-1 -1,-1l0 0z"/>
     <path class="fil20" d="M1163 535c-2,1 -5,1 -8,2 3,-3 6,-6 7,-10l0 0c0,-1 -1,-2 -2,-1l0 0c-4,2 -8,3 -12,4 0,0 0,0 0,0 -1,0 -2,0 -2,-1 -5,-4 -10,-6 -16,-6l0 0c-3,0 -5,0 -7,1 -8,2 -14,8 -16,16 -1,3 -2,6 -1,9 0,0 0,0 -1,0 0,1 0,1 0,1 0,0 0,0 0,0 -17,-2 -32,-11 -42,-24l0 0c-1,-1 -2,-1 -2,0l0 0c-3,3 -4,7 -4,12 0,6 2,12 7,17 -2,-1 -4,-2 -6,-3l0 0c-1,0 -2,1 -2,1l0 0c0,10 5,19 14,23 -1,0 -1,0 -1,0 -1,0 -3,0 -4,-1l0 0c-1,0 -2,1 -1,2l0 0c2,8 9,15 18,17 -7,4 -16,7 -25,6l-3 0c0,0 -1,1 -1,2 -1,0 0,1 0,2 10,6 21,9 33,9 10,1 20,-1 28,-5 8,-3 15,-8 21,-14 6,-6 10,-13 13,-21 3,-7 5,-15 5,-23l0 0c0,-2 1,-3 2,-3 4,-3 7,-7 10,-11l0 0c0,0 0,0 0,0l0 0c0,-1 -1,-2 -2,-1l0 0z"/>
     <path class="fil20" d="M1194 436c-1,1 -2,1 -4,1 2,-1 3,-2 3,-4l0 0c1,-1 0,-1 0,-1l0 0c-2,1 -4,2 -6,2 0,0 0,0 -1,0 0,0 0,0 -1,0 -2,-2 -4,-3 -7,-3l0 0c-2,0 -3,0 -4,0 -4,1 -7,4 -8,8 0,1 0,3 0,4 0,1 0,1 0,1 -1,0 -1,0 -1,0 0,0 0,0 0,0 -8,-1 -16,-5 -21,-12l0 0c0,0 0,0 -1,0l0 0c-1,2 -1,4 -1,6 -1,3 1,6 3,8 -1,0 -2,0 -3,-1l0 0c0,0 -1,0 -1,1l0 0c0,4 3,9 7,11 0,0 0,0 0,0 -1,0 -2,0 -2,-1l0 0c-1,0 -1,1 -1,1l0 0c1,4 5,8 9,8 -4,3 -8,4 -12,4l-2 0c0,0 0,0 -1,0 0,1 0,1 1,1 5,3 10,5 16,5 5,0 10,0 14,-2 4,-2 7,-4 10,-8 3,-2 5,-6 7,-10 1,-3 2,-7 2,-11l0 0c0,-1 0,-1 1,-2 2,-1 3,-3 5,-5l0 0c0,0 0,0 0,0l0 0c0,-1 -1,-1 -1,-1l0 0z"/>
     <circle class="fil21" transform="matrix(0.0511603 -0.0167849 0.0167849 0.0511603 428.659 389.914)" r="1184"/>
     <g>
      <path class="fil20" d="M416 401l15 -5c0,8 -5,16 -13,19 -11,3 -22,-2 -25,-12 -4,-11 1,-23 12,-26 5,-2 10,-2 15,0 1,1 2,0 2,-1l4 -7c1,-1 0,-2 -1,-3 -7,-3 -15,-4 -23,-1 -17,5 -27,23 -21,40 5,17 23,27 40,21 17,-5 26,-22 22,-39 0,0 -3,-7 -3,-7l-27 9c-1,1 -2,2 -2,3l3 8c0,1 1,1 2,1z"/>
      <path class="fil20" d="M466 373l-3 -8c0,-1 -1,-1 -2,-1l-6 2c-1,0 -2,1 -1,2l2 8 -7 2c-1,1 -2,2 -1,3l2 6c0,1 1,1 2,1l7 -2 3 7c0,1 1,1 2,1l6 -2c1,0 2,-1 1,-2l-2 -8 7 -2c1,0 2,-1 2,-2l-2 -7c-1,-1 -2,-1 -3,-1l-7 3 0 0z"/>
     </g>
     <circle class="fil21" transform="matrix(0.0286972 -0.00941511 0.00941511 0.0286972 507.288 492.957)" r="1184"/>
     <g>
      <path class="fil20" d="M500 499l9 -3c0,5 -3,9 -8,11 -6,2 -12,-1 -14,-7 -2,-6 1,-13 7,-15 3,0 6,0 8,1 1,0 1,0 2,-1l2 -4c0,0 0,-1 -1,-1 -4,-2 -8,-3 -13,-1 -9,3 -15,13 -12,23 3,9 14,14 23,11 9,-3 15,-12 12,-22 0,0 -1,-3 -1,-3l-16 5c0,0 -1,1 0,1l1 4c0,1 1,1 1,1z"/>
      <path class="fil20" d="M528 483l-1 -4c0,0 -1,-1 -2,-1l-3 2c-1,0 -1,0 -1,1l2 4 -4 1c-1,1 -1,1 -1,2l1 3c0,1 1,1 1,1l4 -1 2 4c0,0 1,1 1,0l4 -1c0,0 0,-1 0,-1l-1 -4 4 -2c1,0 1,0 1,-1l-1 -3c-1,-1 -1,-1 -2,-1l-4 1 0 0z"/>
     </g>
     <path class="fil22" d="M1089 858c20,8 29,30 21,49 -8,20 -30,29 -49,21 -8,-3 -14,-8 -18,-14l-12 -2c0,0 4,-6 7,-10 -2,-8 -1,-16 2,-23 8,-20 30,-29 49,-21z"/>
     <g>
      <path class="fil20" d="M1089 924c-9,4 -18,4 -26,1 -5,-2 -10,-5 -13,-9l-2 -3 -14 -2 8 -12 0 -3c-1,-5 0,-11 2,-16 4,-8 10,-15 18,-18 9,-3 18,-4 26,0 9,3 15,10 19,18 3,8 3,18 0,26 -4,8 -10,15 -18,18zm3 -71l-1 0c0,0 -1,0 -1,-1 -22,-7 -46,4 -55,25 -2,6 -3,13 -3,20l-12 19c-1,1 -1,2 0,2l0 0c1,0 1,0 1,0l22 4c4,4 9,8 15,11 22,9 47,-1 57,-22 10,-22 0,-48 -23,-58z"/>
      <path class="fil20" d="M1091 910l-7 -6c0,0 -2,0 -3,0l-2 1c-2,1 -3,0 -4,0 -3,-3 -8,-13 -8,-18 0,-1 0,-2 1,-3l3 -1c1,-1 1,-2 1,-3l0 -9c0,-2 -2,-3 -4,-3 -3,1 -7,3 -8,6 -3,5 -3,13 2,25 6,14 14,18 20,19 3,1 7,-1 9,-3 2,-1 2,-4 0,-5z"/>
     </g>
     <path class="fil23" d="M1032 759c16,0 30,13 30,29 0,17 -13,30 -29,30 -6,1 -12,-1 -17,-4l-9 2c0,0 1,-5 2,-10 -4,-4 -6,-10 -6,-17 0,-16 13,-30 29,-30z"/>
     <g>
      <path class="fil20" d="M1052 807c-5,5 -12,8 -19,8 -4,0 -8,-1 -12,-2l-2 -2 -10 3 2 -11 -2 -2c-2,-4 -3,-8 -3,-12 0,-7 3,-14 8,-19 5,-5 11,-8 18,-8 7,0 14,3 19,8 5,5 8,11 8,18 0,7 -2,14 -7,19zm-19 -52l-1 0c-1,0 -1,0 -1,0 -18,1 -32,16 -32,34 0,6 2,11 4,16l-3 17c-1,1 0,2 1,2l0 0c0,0 0,0 0,0l17 -5c5,2 10,4 15,4 18,0 33,-15 34,-34 0,-19 -15,-34 -34,-34z"/>
      <path class="fil20" d="M1049 796l-6 -2c-1,0 -2,0 -3,1l-1 1c-1,1 -2,1 -3,1 -3,-1 -10,-7 -11,-10 -1,-1 -1,-2 0,-2l1 -2c1,-1 1,-2 1,-3l-3 -6c-1,-1 -3,-2 -4,-1 -2,2 -4,4 -4,7 -1,4 1,10 9,17 9,8 15,9 20,8 2,-1 4,-3 6,-6 1,-1 0,-3 -2,-3z"/>
     </g>
     <path class="fil23" d="M1160 762c23,10 33,35 24,57 -9,23 -34,33 -57,24 -8,-3 -15,-9 -20,-16l-14 -2c0,0 5,-7 8,-12 -2,-9 -1,-18 2,-27 9,-22 35,-33 57,-24z"/>
     <g>
      <path class="fil20" d="M1159 839c-9,4 -20,4 -29,0 -6,-2 -11,-6 -15,-10l-3 -3 -15 -3 9 -13 -1 -4c0,-6 1,-12 3,-18 4,-9 12,-17 21,-21 10,-4 20,-4 30,0 10,4 17,11 21,21 4,10 4,20 0,30 -4,9 -11,17 -21,21zm5 -82l-2 0c0,-1 -1,-1 -1,-1 -25,-9 -53,4 -63,28 -3,8 -4,16 -3,23l-15 22c-1,1 0,2 1,3l0 0c0,0 0,0 0,0l26 4c5,5 11,10 18,13 25,10 54,-1 65,-26 11,-25 -1,-55 -26,-66z"/>
      <path class="fil20" d="M1163 822l-8 -6c-1,-1 -3,-1 -4,-1l-3 2c-1,0 -3,0 -4,-1 -3,-3 -9,-15 -10,-20 0,-1 1,-3 2,-3l3 -2c1,-1 2,-2 2,-3l-1 -10c0,-3 -2,-4 -4,-3 -4,1 -8,3 -10,6 -3,6 -3,15 3,29 7,15 16,21 23,22 3,0 7,-2 10,-4 2,-2 2,-4 1,-6z"/>
     </g>
     <rect class="fil16" transform="matrix(0.0281513 -0.00354742 0.00229477 0.0182107 288.296 585.576)" width="3050" height="7825"/>
     <path class="fil24" d="M375 562l-113 14c-11,2 -20,12 -18,24l14 113c2,11 12,20 24,18l56 -7 -7 -55 -15 2c-2,0 -3,-2 -3,-3l-3 -18c0,-2 1,-4 3,-4l15 -2 -3 -17c-2,-20 9,-33 27,-35l14 -2c2,0 4,1 4,3l2 15c0,2 -1,4 -3,4l-9 1c-10,1 -11,6 -10,13l2 15 21 -3c2,0 4,2 4,4l0 18c0,2 -1,3 -3,3l-19 3 7 55 33 -4c12,-2 20,-12 18,-24l-14 -113c-1,-11 -12,-20 -24,-18z"/>
     <rect class="fil16" transform="matrix(0.0112304 -0.00371057 0.00240031 0.00726475 481.046 856.534)" width="3050" height="7825"/>
     <path class="fil24" d="M515 840l-45 15c-5,1 -7,6 -6,11l15 45c1,5 6,7 11,6l22 -8 -7 -22 -6 2c0,0 -1,0 -1,-1l-3 -7c0,-1 0,-2 1,-2l6 -2 -2 -7c-3,-8 0,-14 7,-16l6 -2c1,0 2,0 2,1l2 6c0,1 0,2 -1,2l-3 1c-4,1 -4,3 -4,6l2 6 9 -3c1,0 2,1 2,1l1 8c0,0 0,1 -1,1l-7 3 7 22 13 -4c5,-2 7,-7 6,-11l-15 -46c-2,-4 -7,-7 -11,-5z"/>
     <rect class="fil16" transform="matrix(0.0174801 -0.00807014 0.00522045 0.0113076 374.468 769.298)" width="3050" height="7825"/>
     <path class="fil24" d="M426 736l-70 33c-8,3 -11,11 -7,18l32 71c3,7 12,10 19,7l35 -16 -16 -35 -9 4c-1,1 -3,1 -3,-1l-5 -11c-1,-1 0,-2 1,-3l9 -4 -5 -11c-6,-12 -1,-22 10,-27l9 -5c1,0 2,0 3,1l4 10c1,1 0,2 -1,3l-6 2c-6,3 -5,7 -3,11l4 9 13 -6c1,-1 3,0 3,1l4 12c0,1 0,2 -1,3l-12 5 16 35 20 -10c8,-3 11,-11 7,-19l-32 -70c-3,-7 -12,-10 -19,-7z"/>
     <path class="fil20" d="M1158 362c-1,0 -2,1 -3,1 1,-1 2,-3 2,-4l0 0c1,-1 0,-1 0,-1l0 0c-2,1 -3,2 -5,3 0,0 0,0 0,0 -1,0 -1,0 -1,0 -2,-2 -5,-2 -7,-2l0 0c-1,0 -2,0 -3,1 -3,1 -5,4 -6,7 0,2 0,3 0,4 0,0 0,0 0,0 0,0 0,1 0,1 0,0 0,0 0,0 -7,0 -14,-3 -19,-8l0 0c0,0 -1,0 -1,0l0 0c-1,2 -1,4 -1,5 1,3 2,6 4,7 -1,0 -1,0 -2,0l0 0c-1,-1 -1,0 -1,0l0 0c1,4 3,7 7,9 0,0 0,0 0,0 -1,0 -1,0 -2,0l0 0c0,0 -1,0 0,0l0 0c1,4 5,6 8,6 -3,3 -6,4 -10,5l-1 0c0,0 0,0 0,0 0,1 0,1 0,1 4,2 9,3 14,2 4,0 8,-2 12,-4 3,-2 5,-4 7,-7 2,-3 4,-6 5,-10 0,-3 1,-6 0,-9l0 -1c0,0 0,-1 1,-1 1,-1 2,-3 3,-5l0 0c0,0 0,0 0,0l0 0c0,0 0,-1 -1,0l0 0z"/>
     <path class="fil25" d="M745 1237c2,0 3,0 5,0 2,0 3,0 5,0 2,0 4,2 3,4 0,2 0,4 0,5 0,2 0,4 0,5 0,2 -2,4 -3,4 -1,0 -1,0 -2,0 2,-1 3,-1 4,-3 0,0 -1,0 -1,0 -1,0 -1,-1 -1,-1 -1,1 -1,1 -3,1 -1,0 -3,-1 -3,-3 0,-2 2,-4 3,-4 2,0 2,0 3,1 0,0 1,-1 1,-1 0,0 1,0 1,0 0,-1 -1,-2 -2,-2 -1,-1 -1,-1 -3,-1 -1,0 -3,1 -4,2 -1,1 -2,3 -2,5 0,1 1,3 2,4 0,1 2,1 3,2 -1,0 -2,0 -3,0 -1,0 -2,0 -3,0 -2,0 -3,-2 -3,-4 0,-1 0,-3 0,-5 0,-1 0,-3 -1,-5 0,-2 2,-4 4,-4z"/>
     <g>
      <path class="fil26" d="M711 1200c3,0 6,0 9,0 3,0 6,0 8,0 1,0 2,1 3,2 1,0 1,2 1,3 0,0 0,0 0,0 0,1 -1,2 -1,3 -1,1 -2,1 -3,1 -3,0 -6,0 -8,0 -3,0 -6,0 -9,0 -1,0 -2,0 -2,-1 -1,-1 -1,-2 -2,-3 0,0 0,0 0,0 0,-1 1,-3 1,-3 1,-1 2,-2 3,-2z"/>
      <g>
       <g>
        <path class="fil15" d="M714 1201c1,0 2,1 2,2 1,0 1,1 1,2 0,1 0,2 -1,3 -1,0 -1,0 -2,0 -1,0 -2,0 -3,0 0,-1 -1,-2 -1,-3 0,-1 0,-2 1,-2 1,-1 2,-2 3,-2z"/>
        <path class="fil17" d="M714 1202c1,0 1,0 2,1 0,1 1,1 1,2 0,1 -1,2 -1,2 -1,1 -2,1 -2,1 -1,0 -2,0 -2,-1 -1,0 -1,-1 -1,-2 0,-1 0,-1 0,-2 1,-1 2,-1 3,-1z"/>
       </g>
       <g>
        <path class="fil27" d="M727 1202c0,0 1,1 2,1 0,1 0,1 0,2 0,1 0,2 -1,2 0,0 -1,1 -2,1 0,0 -1,-1 -1,-1 -1,0 -1,-1 -1,-2 0,-1 0,-1 0,-2 1,0 2,-1 3,-1z"/>
        <path class="fil28" d="M726 1203c1,0 2,0 2,0 1,1 1,2 1,2 0,1 -1,1 -1,2 0,0 -1,0 -2,0 0,0 -1,0 -1,0 0,-1 -1,-1 -1,-2 0,0 0,-1 1,-2 0,0 1,0 1,0z"/>
       </g>
      </g>
     </g>
    </g>
   </g>
   <rect class="fil0" width="1500" height="1500"/>
  </g>
 </g>
</svg>
