<?xml version="1.0" encoding="UTF-8"?>
<!DOCTYPE svg PUBLIC "-//W3C//DTD SVG 1.1//EN" "http://www.w3.org/Graphics/SVG/1.1/DTD/svg11.dtd">
<!-- Creator: CorelDRAW X7 -->
<svg xmlns="http://www.w3.org/2000/svg" xml:space="preserve" width="1500px" height="1500px" version="1.1" style="shape-rendering:geometricPrecision; text-rendering:geometricPrecision; image-rendering:optimizeQuality; fill-rule:evenodd; clip-rule:evenodd"
viewBox="0 0 1500 1500"
 xmlns:xlink="http://www.w3.org/1999/xlink">
 <defs>
  <style type="text/css">
   <![CDATA[
    .str0 {stroke:yellow;stroke-width:14.7639;stroke-linecap:round;stroke-linejoin:round}
    .str1 {stroke:yellow;stroke-width:5.90556;stroke-linecap:round;stroke-linejoin:round}
    .fil0 {fill:none}
    .fil9 {fill:#0081C2}
    .fil10 {fill:#0081C2}
    .fil1 {fill:#0083C4}
    .fil8 {fill:#008FD7}
    .fil15 {fill:#0B1930}
    .fil14 {fill:#0E2242}
    .fil18 {fill:#1A1A1A}
    .fil2 {fill:#2CB5F5}
    .fil3 {fill:#4CC6FF}
    .fil4 {fill:#D1B73B}
    .fil13 {fill:#F0BC95}
    .fil7 {fill:#F0BC95}
    .fil12 {fill:#F7CCAA}
    .fil28 {fill:#F7CCAA}
    .fil11 {fill:#FFE1BD}
    .fil6 {fill:#FFE1BD}
    .fil25 {fill:yellow}
    .fil17 {fill:white}
    .fil19 {fill:black;fill-rule:nonzero}
    .fil27 {fill:#0077B3;fill-rule:nonzero}
    .fil23 {fill:#0081C2;fill-rule:nonzero}
    .fil16 {fill:#0E2242;fill-rule:nonzero}
    .fil21 {fill:#6699FF;fill-rule:nonzero}
    .fil24 {fill:#9999FF;fill-rule:nonzero}
    .fil20 {fill:#FF6600;fill-rule:nonzero}
    .fil5 {fill:#FFDF47;fill-rule:nonzero}
    .fil22 {fill:yellow;fill-rule:nonzero}
    .fil26 {fill:#FF99CC;fill-opacity:0.290196}
   ]]>
  </style>
      <clipPath id="id0">
       <path d="M968 719c24,1 40,23 35,48 -6,33 -39,33 -31,68 3,12 -22,25 -31,20 -26,-17 -30,-65 -25,-92 5,-26 28,-45 52,-44z"/>
      </clipPath>
      <clipPath id="id1">
       <path d="M588 719c-24,1 -40,23 -35,48 6,33 39,33 31,68 -3,12 22,25 31,20 26,-17 30,-65 25,-92 -4,-26 -28,-45 -52,-44z"/>
      </clipPath>
      <clipPath id="id2">
       <path d="M535 1035c-20,23 -13,3 -27,25 -14,22 -65,178 -77,211 -4,9 -4,70 24,76 35,8 269,-21 324,-21l4 0 4 0c55,0 288,29 323,21 28,-6 29,-67 25,-76 -13,-33 -64,-189 -77,-211 -14,-22 -8,-2 -28,-25 -58,-67 -153,-100 -247,-98 -94,-2 -189,31 -248,98z"/>
      </clipPath>
      <clipPath id="id3">
       <path d="M892 622c0,0 13,25 32,40 20,15 24,94 24,151 0,0 71,-124 12,-231 0,0 58,-105 14,-180 0,0 -59,41 -90,48 0,0 16,-23 15,-37 -86,57 -311,-33 -330,172 -15,165 41,228 41,228 0,0 -18,-136 11,-151 40,-38 25,-43 51,-31 25,12 130,49 220,-9z"/>
      </clipPath>
      <clipPath id="id4">
       <path d="M703 870c-22,-9 -35,-3 -37,6 -3,9 -4,39 38,53 35,11 113,11 148,0 42,-14 41,-44 38,-53 -2,-9 -14,-15 -37,-6 -34,15 -116,15 -150,0z"/>
      </clipPath>
       <clipPath id="id5">
        <path d="M481 1078c-19,-37 19,-57 42,-46 23,10 50,52 34,101 -16,49 42,62 45,79 4,17 -80,82 -110,35 -37,-57 33,-79 -11,-169z"/>
       </clipPath>
       <clipPath id="id6">
        <path d="M498 1182c44,-8 86,-7 126,0 17,2 31,8 31,25l0 0c0,13 -8,21 -19,25 14,3 26,15 26,30l0 0c0,15 -11,28 -25,30 10,5 18,16 18,28l0 0c0,15 -10,27 -24,30 8,4 14,13 14,23l0 0c0,14 -11,22 -24,25 -36,6 -71,7 -106,0 -33,-7 -20,-28 -28,-44 -9,-16 -10,-10 -16,-32 -3,-8 -1,-18 6,-24 -7,-10 -10,-27 -10,-37 0,-5 2,-20 5,-25 -2,-5 -4,-10 -4,-32l0 0c0,-17 14,-19 30,-22z"/>
       </clipPath>
       <clipPath id="id7">
        <path d="M1086 1078c18,-37 -20,-57 -42,-46 -23,10 -51,52 -34,101 16,49 -42,62 -46,79 -3,17 81,82 111,35 36,-57 -34,-79 11,-169z"/>
       </clipPath>
       <clipPath id="id8">
        <path d="M1069 1182c-44,-8 -86,-7 -127,0 -16,2 -30,8 -30,25l0 0c0,13 8,21 19,25 -15,3 -26,15 -26,30l0 0c0,15 11,28 25,30 -11,5 -18,16 -18,28l0 0c0,15 10,27 24,30 -9,4 -15,13 -15,23l0 0c0,14 12,22 25,25 35,6 70,7 106,0 32,-7 20,-28 28,-44 9,-16 10,-10 16,-32 2,-8 0,-18 -6,-24 7,-10 9,-27 9,-37 0,-5 -1,-20 -4,-25 2,-5 4,-10 4,-32l0 0c0,-17 -14,-19 -30,-22z"/>
       </clipPath>
 </defs>
 <g id="Layer_x0020_1">
  <metadata id="CorelCorpID_0Corel-Layer"/>
  <rect class="fil0" width="1500" height="1500"/>
  <g id="_2264102323712">
   <g>
    <g>
     <circle class="fil1" cx="783" cy="712" r="615"/>
     <circle class="fil2" cx="783" cy="764" r="562"/>
     <circle class="fil3" cx="783" cy="837" r="490"/>
    </g>
    <g>
     <g>
      <polygon class="fil4" points="279,267 334,323 333,322 332,321 331,320 331,319 331,318 330,317 331,316 331,315 331,315 332,314 333,314 334,313 336,314 337,314 339,315 341,316 342,318 344,320 345,320 345,321 346,321 346,321 347,321 347,321 348,321 348,321 352,318 356,316 360,313 364,311 368,308 372,305 376,303 381,300 381,300 381,299 382,299 382,298 382,297 382,297 382,296 381,295 377,289 373,284 323,223 327,229 332,235 332,236 332,237 332,238 332,238 332,239 332,240 331,240 331,241 326,244 322,247 317,250 313,253 308,256 304,259 299,261 295,264 294,265 294,265 293,265 293,265 292,264 291,264 291,263 290,263 288,261 286,259 284,258 282,257 281,256 279,256 278,256 276,257 276,257 275,258 275,259 275,260 275,261 275,262 275,263 276,264 277,265 "/>
      <polygon class="fil4" points="245,311 304,362 307,365 310,368 313,370 317,372 321,374 324,376 328,378 332,379 336,380 340,381 344,382 348,383 352,384 356,385 360,386 363,387 366,388 369,389 372,390 374,391 377,392 379,392 381,393 382,394 383,395 334,348 333,347 331,346 329,345 327,344 324,342 321,341 318,340 315,339 311,338 307,337 303,336 299,335 295,334 290,333 286,332 281,331 276,329 272,328 268,326 263,324 259,322 255,319 252,317 248,314 "/>
      <polygon class="fil4" points="320,354 371,401 368,398 365,395 362,392 362,391 361,391 309,343 310,343 310,344 313,348 317,351 "/>
      <polygon class="fil4" points="301,397 354,439 359,443 364,447 370,449 375,452 380,453 386,454 391,454 397,454 403,453 408,451 414,448 419,445 423,442 427,439 430,435 432,430 434,426 435,421 436,416 436,413 437,410 437,407 436,405 436,402 436,399 435,396 434,393 434,390 433,387 432,384 430,381 429,378 428,375 426,372 424,369 422,365 420,362 417,359 372,307 375,311 377,314 380,318 382,321 384,325 385,328 387,332 388,335 389,338 390,342 391,345 392,348 393,352 393,355 394,358 394,361 394,365 394,368 393,371 392,376 391,382 389,387 386,392 383,396 379,400 374,404 369,407 362,410 356,412 349,414 343,414 337,414 331,413 324,411 318,408 312,405 307,401 "/>
      <polygon class="fil4" points="428,382 467,426 468,426 468,426 469,427 469,427 470,427 475,426 480,425 486,423 491,422 496,421 502,420 507,419 512,418 518,417 523,416 528,415 534,414 539,413 544,411 550,410 555,409 556,409 556,409 557,409 557,408 557,408 557,407 557,407 557,406 556,403 556,400 555,397 554,394 553,391 553,388 552,385 551,382 550,379 549,376 549,373 548,370 547,367 546,364 546,361 545,357 545,357 544,357 515,304 515,305 515,305 516,309 517,312 518,316 519,319 520,323 521,326 522,329 522,333 523,336 524,340 525,343 526,346 527,350 528,353 528,356 529,360 529,360 529,361 529,362 529,362 529,363 528,363 528,363 527,363 521,365 515,366 509,367 503,368 497,370 491,371 485,372 479,373 473,375 467,376 461,377 455,378 449,379 443,381 437,382 431,383 430,383 430,383 429,383 429,382 "/>
      <polygon class="fil4" points="439,227 477,288 476,287 476,285 475,283 475,281 474,279 474,277 473,275 473,273 472,271 472,270 472,270 472,269 472,269 472,269 472,269 473,268 473,268 476,268 479,267 481,267 484,266 487,265 489,265 492,264 495,264 497,263 500,262 503,262 506,261 508,261 511,260 514,259 516,259 517,259 517,258 518,258 518,257 518,257 519,256 519,256 518,255 518,252 517,248 516,245 515,241 514,238 513,235 512,231 511,228 511,224 510,221 509,217 508,214 507,210 506,207 505,203 505,200 504,199 470,127 470,128 471,132 472,136 473,140 474,144 475,148 476,152 477,155 478,159 479,163 480,167 481,171 482,175 483,179 484,183 485,186 486,190 486,191 486,192 486,192 485,193 485,193 485,194 484,194 484,194 480,195 477,196 474,196 471,197 468,198 465,198 462,199 459,200 456,200 453,201 450,202 447,202 444,203 441,204 438,204 435,205 434,205 434,205 434,206 434,206 433,206 433,207 433,207 434,208 434,210 435,212 435,215 436,217 437,219 437,222 438,224 439,226 "/>
      <polygon class="fil4" points="462,312 497,363 497,363 497,363 496,361 496,359 495,357 494,355 494,353 493,351 493,349 492,347 492,346 492,346 492,346 492,345 493,345 493,345 493,344 493,344 496,344 498,343 501,343 504,342 506,342 509,341 511,341 514,340 514,340 514,340 515,339 515,339 515,339 515,338 515,338 515,337 514,334 513,331 512,328 512,325 511,321 510,318 509,315 508,312 507,309 507,305 506,302 505,299 504,296 503,292 502,289 501,286 501,285 501,285 466,224 466,224 467,225 468,229 469,232 469,236 470,239 471,243 472,247 473,250 474,254 475,258 476,261 477,265 478,268 479,272 480,275 481,279 482,282 482,283 482,284 482,284 482,285 481,285 481,285 481,286 480,286 478,286 475,287 472,288 469,288 466,289 463,289 461,290 458,290 457,291 457,291 457,291 457,291 456,292 456,292 456,293 456,293 457,296 458,298 458,300 459,302 460,305 460,307 461,309 461,311 462,312 "/>
      <polygon class="fil4" points="590,296 611,350 611,349 611,349 610,347 610,344 610,342 610,340 609,337 609,335 609,333 609,331 608,328 608,326 608,324 608,321 607,319 607,317 607,314 607,312 606,310 606,307 606,305 606,303 605,300 605,298 605,295 604,293 604,291 604,288 604,286 603,283 603,281 603,279 603,276 602,274 602,271 602,269 602,266 601,264 601,261 601,259 600,256 600,254 600,251 600,249 599,246 599,244 599,241 598,239 598,236 598,234 598,231 597,229 597,226 597,224 596,221 596,218 596,216 596,213 595,211 595,208 595,205 594,203 594,200 594,198 594,195 593,192 593,192 570,119 570,120 570,123 571,126 571,128 571,131 571,134 572,137 572,140 572,143 573,146 573,149 573,152 574,155 574,158 574,161 575,164 575,166 575,169 576,172 576,175 576,178 577,181 577,183 577,186 578,189 578,192 578,195 578,197 579,200 579,203 579,206 580,208 580,211 580,214 581,217 581,219 581,222 582,225 582,228 582,230 582,233 583,236 583,238 583,241 584,244 584,246 584,249 585,252 585,254 585,257 585,260 586,262 586,265 586,267 587,270 587,272 587,275 587,278 588,280 588,283 588,285 589,288 589,290 589,293 589,296 590,296 "/>
      <polygon class="fil4" points="543,362 570,408 570,408 570,409 571,409 571,410 572,410 572,410 578,409 583,409 589,408 594,408 600,407 606,407 611,406 617,406 622,405 628,405 633,404 639,404 644,403 650,403 656,402 661,402 662,402 662,402 663,401 663,401 663,401 663,400 664,399 664,399 663,396 663,393 663,390 663,387 662,384 662,380 662,377 662,374 661,371 661,368 661,365 660,362 660,359 660,356 660,352 659,349 659,349 644,295 644,296 644,300 645,303 645,307 645,310 646,314 646,317 646,321 647,324 647,328 647,331 647,335 648,338 648,341 648,345 649,348 649,352 649,352 649,353 649,354 648,354 648,355 647,355 647,355 646,355 640,356 634,356 627,357 621,357 615,358 609,359 602,359 596,360 590,360 584,361 577,361 571,362 565,362 559,363 552,363 546,364 546,364 545,364 545,363 544,363 544,362 "/>
      <polygon class="fil4" points="719,268 726,324 726,324 726,323 726,320 727,317 727,313 728,310 728,306 728,303 729,299 729,296 730,294 730,293 730,292 730,291 731,290 731,290 731,289 731,289 732,289 732,290 732,290 732,291 733,292 733,293 733,294 733,296 733,299 734,303 734,306 735,310 735,313 735,317 736,320 736,323 730,267 730,263 729,259 729,255 729,252 728,248 728,244 727,240 727,236 727,234 727,233 726,232 726,230 726,230 726,229 725,229 725,228 725,229 724,229 724,229 724,230 724,231 723,233 723,234 723,236 722,240 722,244 721,248 721,252 720,255 720,259 719,263 719,267 719,267 "/>
      <polygon class="fil4" points="654,351 668,398 669,399 669,399 670,400 670,400 671,400 674,400 676,400 679,400 681,400 684,400 687,400 689,400 692,400 694,399 697,399 700,399 702,399 705,399 707,399 710,399 712,399 713,399 714,399 714,399 715,398 715,398 715,397 716,397 716,396 716,394 716,391 717,389 717,386 717,384 718,382 718,379 718,377 719,374 719,372 719,369 719,367 720,364 720,362 720,359 721,357 721,356 721,356 721,355 722,355 722,354 722,354 723,354 723,354 725,354 727,354 728,354 730,354 732,354 734,354 735,354 737,354 738,354 738,354 738,354 739,354 739,355 739,355 739,355 740,356 740,358 740,361 740,363 741,366 741,368 741,371 741,373 742,376 742,378 742,381 742,383 743,386 743,388 743,391 744,393 744,396 744,396 744,397 745,397 745,398 745,398 746,398 747,398 747,398 750,398 752,398 755,398 757,398 760,398 762,398 765,398 767,398 770,398 772,398 775,398 778,398 780,398 783,398 785,398 788,398 789,397 789,397 790,396 791,396 791,395 791,394 792,393 793,345 792,346 792,347 792,348 791,349 790,350 789,350 788,350 785,350 783,350 780,350 777,351 774,351 771,351 768,351 765,351 763,351 760,351 757,351 754,351 751,351 748,351 745,351 743,351 742,351 741,351 741,351 740,350 740,350 739,350 739,349 739,348 739,346 738,343 738,340 738,337 737,334 737,332 737,329 737,326 736,323 736,320 736,318 735,315 735,312 735,309 735,306 734,303 734,303 734,302 734,302 733,302 733,301 732,301 732,301 731,301 729,301 727,301 726,301 724,301 722,301 720,301 718,301 716,301 715,301 715,302 715,302 714,302 714,303 714,303 713,304 713,304 713,307 712,310 712,313 712,316 711,318 711,321 711,324 710,327 710,330 710,332 709,335 709,338 709,341 708,343 708,346 707,349 707,349 707,350 707,351 706,351 706,352 705,352 704,352 704,352 701,352 698,352 695,352 692,352 689,352 686,352 683,352 681,353 678,353 675,353 672,353 669,353 666,353 663,353 660,353 657,353 656,353 656,353 655,352 655,352 "/>
      <polygon class="fil4" points="798,348 797,395 797,396 797,396 797,397 797,397 797,397 798,398 798,398 799,398 801,398 804,398 806,398 809,399 812,399 814,399 817,399 820,399 822,399 825,400 828,400 830,400 833,400 835,400 838,400 841,401 841,401 842,401 842,400 843,400 843,400 843,399 844,399 844,398 851,351 851,351 851,352 851,353 850,353 850,353 849,354 849,354 848,354 845,354 842,353 839,353 836,353 833,353 830,353 827,352 824,352 821,352 818,352 815,352 812,351 809,351 806,351 803,351 800,351 800,351 800,350 799,350 799,350 799,349 799,349 798,348 "/>
      <polygon class="fil4" points="865,261 856,318 856,317 857,317 857,316 857,315 857,315 858,315 858,315 858,315 858,315 859,315 859,315 859,316 859,316 860,317 860,319 860,320 860,323 860,326 860,328 860,331 860,333 860,336 860,338 860,341 859,343 859,346 859,348 859,351 859,353 859,356 859,358 859,361 859,363 859,365 859,368 859,370 859,373 859,375 859,377 859,380 859,382 859,385 859,387 859,389 859,392 859,394 859,397 859,399 859,400 859,400 859,401 859,401 860,401 860,402 861,402 861,402 865,402 868,402 871,403 875,403 878,403 882,403 885,404 889,404 889,404 890,404 890,404 891,403 891,403 892,403 892,402 892,402 893,399 894,397 895,394 896,392 896,389 897,387 898,384 899,382 900,379 901,377 902,374 903,372 904,369 904,367 905,364 906,362 907,359 908,356 909,354 910,351 911,349 912,346 913,343 913,341 914,338 915,335 916,333 917,330 918,327 919,325 920,322 921,319 922,318 922,317 923,316 923,315 923,314 923,314 924,314 924,314 924,314 924,314 924,314 924,315 924,315 924,316 924,316 924,317 924,320 923,323 922,325 922,328 921,331 921,334 920,336 920,339 919,342 919,344 918,347 918,350 917,353 917,355 916,358 916,361 915,363 915,366 914,368 914,371 913,374 913,376 912,379 912,382 911,384 911,387 910,389 910,392 909,394 909,397 908,400 908,402 908,403 908,403 908,404 908,404 908,405 909,405 909,405 910,405 913,405 915,406 918,406 921,406 924,406 926,406 929,406 932,407 935,407 938,407 940,407 943,407 946,408 949,408 952,408 954,408 955,408 955,408 956,408 956,408 957,407 957,407 958,406 979,360 979,361 978,361 978,361 977,362 977,362 976,362 976,362 972,362 969,362 966,362 963,361 960,361 957,361 954,361 950,360 947,360 944,360 941,360 938,360 935,359 932,359 929,359 925,359 925,359 924,359 924,358 923,358 923,357 923,357 923,356 923,355 924,353 924,350 925,347 925,344 926,341 926,338 927,335 927,332 928,329 929,326 929,324 930,321 930,318 931,315 931,312 932,309 933,306 933,303 934,300 934,297 935,294 936,291 936,288 937,285 937,281 938,278 938,275 939,272 940,269 940,266 941,263 942,260 942,259 942,258 942,258 942,257 942,257 942,257 942,256 941,256 941,256 941,257 941,257 940,258 940,258 939,259 939,261 938,263 937,266 936,269 935,272 934,275 933,278 932,281 931,284 930,286 929,289 928,292 927,295 925,298 924,301 923,304 922,307 921,310 920,313 919,316 918,319 917,321 916,324 915,327 914,330 913,333 913,336 912,338 911,341 910,344 909,347 908,350 907,352 906,355 905,356 905,356 905,357 904,357 904,357 903,357 903,357 902,357 898,357 894,357 890,357 886,356 882,356 879,356 875,356 871,355 870,355 870,355 869,355 869,354 869,354 868,353 868,353 868,352 868,349 868,347 868,344 868,341 868,339 868,336 868,333 868,330 868,328 868,325 868,322 869,320 869,317 869,314 869,311 869,309 869,306 869,303 869,300 869,298 869,295 869,292 869,289 869,286 869,284 869,281 869,278 869,275 869,272 869,269 869,267 869,264 869,262 869,260 869,259 869,258 868,258 868,257 868,257 867,257 867,257 867,257 866,258 866,258 866,259 866,259 865,260 "/>
      <polygon class="fil4" points="860,296 851,349 852,346 852,344 861,290 860,293 "/>
      <polygon class="fil4" points="1094,263 1059,320 1060,319 1061,318 1061,317 1062,317 1062,317 1062,317 1062,317 1063,317 1063,318 1062,319 1062,320 1062,321 1062,322 1061,323 1060,327 1059,330 1058,334 1057,337 1056,340 1056,344 1055,347 1054,350 1053,351 1053,352 1086,299 1087,298 1087,297 1088,294 1089,290 1090,286 1091,282 1092,278 1094,275 1095,271 1096,267 1096,265 1097,264 1097,263 1097,262 1097,261 1097,260 1097,260 1097,259 1096,259 1096,260 1096,260 1095,261 1094,262 "/>
      <polygon class="fil4" points="1058,329 1027,379 1028,378 1028,378 1029,377 1029,377 1029,377 1030,377 1030,377 1031,377 1032,377 1034,377 1035,378 1037,378 1039,379 1040,379 1042,379 1043,380 1044,380 1044,380 1044,380 1045,381 1045,381 1045,381 1045,382 1045,382 1044,385 1043,387 1043,390 1042,392 1041,395 1041,397 1040,400 1039,402 1038,404 1038,407 1037,409 1036,412 1036,414 1035,417 1034,419 1034,421 1034,422 1034,423 1034,423 1034,423 1034,424 1035,424 1035,424 1036,425 1038,425 1040,426 1043,426 1045,427 1047,427 1050,428 1052,428 1054,429 1057,429 1059,430 1061,430 1064,431 1066,431 1068,432 1071,433 1073,433 1074,433 1075,433 1076,433 1076,432 1077,431 1113,388 1113,389 1112,390 1111,390 1110,390 1109,390 1106,390 1103,389 1101,388 1098,388 1096,387 1093,387 1090,386 1088,385 1085,385 1083,384 1080,384 1077,383 1075,382 1072,382 1070,381 1067,381 1066,380 1066,380 1065,380 1065,379 1065,379 1065,378 1065,378 1065,377 1065,374 1066,372 1067,369 1068,366 1069,363 1069,361 1070,358 1071,355 1072,353 1072,350 1073,347 1074,344 1075,341 1076,339 1076,336 1077,333 1077,333 1077,332 1077,332 1077,331 1077,331 1076,331 1076,330 1076,330 1074,330 1072,329 1070,329 1068,328 1067,328 1065,328 1063,327 1061,327 1061,327 1060,327 1060,327 1059,327 1059,328 1058,328 1058,329 "/>
      <polygon class="fil4" points="986,357 964,403 964,404 963,405 963,406 963,407 964,407 964,408 965,408 965,408 968,409 970,410 972,410 975,411 977,411 980,412 982,412 984,413 987,413 989,414 992,415 994,415 997,416 999,416 1001,417 1004,417 1004,417 1005,417 1005,417 1006,417 1007,417 1007,416 1008,416 1008,415 1036,370 1035,371 1035,371 1034,372 1034,372 1033,372 1032,372 1032,373 1031,372 1028,372 1026,371 1023,371 1020,370 1018,369 1015,369 1012,368 1009,367 1007,367 1004,366 1001,366 999,365 996,364 993,364 991,363 988,362 987,362 986,362 986,361 986,361 986,360 986,359 986,358 "/>
      <polygon class="fil4" points="1255,180 1203,246 1200,249 1198,252 1196,255 1194,258 1192,261 1189,264 1187,267 1185,270 1183,273 1180,276 1178,279 1176,282 1174,284 1172,287 1169,290 1167,293 1167,294 1167,294 1166,295 1166,296 1166,297 1166,298 1167,298 1167,298 1170,300 1172,302 1174,304 1177,305 1179,307 1182,309 1184,311 1187,312 1187,313 1187,313 1188,314 1188,314 1188,315 1188,316 1187,316 1187,317 1184,321 1181,325 1177,329 1174,333 1171,337 1168,341 1165,345 1162,349 1159,353 1156,357 1153,361 1150,365 1147,369 1144,373 1141,376 1138,380 1135,384 1132,388 1129,392 1126,395 1123,399 1120,403 1117,406 1115,410 1112,414 1109,418 1106,421 1103,425 1100,429 1098,432 1095,436 1092,439 1092,440 1091,441 1091,441 1091,442 1091,443 1092,443 1092,444 1092,444 1096,447 1100,449 1104,452 1108,454 1112,456 1116,459 1120,461 1123,464 1124,464 1125,464 1125,464 1126,464 1127,464 1127,464 1128,463 1170,424 1170,425 1169,425 1168,425 1168,425 1167,425 1166,425 1166,425 1161,422 1157,419 1152,416 1148,414 1144,411 1139,408 1135,405 1131,403 1130,402 1130,402 1129,401 1129,400 1129,400 1129,399 1130,398 1130,397 1133,393 1137,389 1140,385 1143,381 1146,377 1149,373 1152,369 1156,364 1159,360 1162,356 1165,352 1168,348 1172,344 1175,339 1178,335 1182,331 1185,327 1188,322 1192,318 1195,313 1198,309 1202,305 1205,300 1209,296 1212,291 1216,287 1219,282 1223,278 1226,273 1230,269 1233,264 1237,260 1237,259 1238,258 1238,258 1238,257 1238,256 1237,255 1237,255 1237,254 1234,252 1231,251 1228,249 1226,247 1223,245 1220,243 1217,241 1215,239 1214,239 1214,238 1214,237 1214,236 1214,235 1214,234 1214,234 1215,233 1217,230 1220,226 1222,223 1225,220 1227,217 1230,213 1232,210 1235,207 1237,203 1240,200 1242,197 1245,194 1247,190 1250,187 1252,183 "/>
      <polygon class="fil4" points="1279,289 1225,343 1225,343 1226,342 1227,342 1227,342 1228,342 1228,342 1229,342 1231,344 1234,345 1236,347 1238,349 1241,350 1243,352 1245,354 1248,355 1248,356 1249,356 1249,356 1250,356 1251,355 1252,355 1252,354 1310,302 1310,302 1309,303 1308,303 1307,303 1306,303 1306,303 1305,303 1302,301 1300,299 1297,297 1295,295 1292,294 1289,292 1287,290 1284,288 1284,288 1283,288 1282,288 1282,288 1281,288 1280,289 "/>
     </g>
     <path class="fil5" d="M331 241c2,-1 2,-4 1,-6 -22,-35 -62,-56 -95,-36 -16,10 -23,26 -24,43 -1,17 5,35 14,49 13,19 34,35 59,41 24,6 45,11 49,17 3,6 3,10 0,11 -6,3 -17,-6 -25,-16 -1,-2 -3,-3 -5,-2 -10,7 -20,13 -30,19 -2,2 -2,3 -1,5 27,40 60,59 95,41 15,-8 23,-21 24,-36 2,-16 -2,-35 -13,-53 -12,-20 -36,-34 -59,-38 -22,-3 -39,-7 -45,-16 -2,-3 -2,-6 0,-7 4,-2 8,0 14,6 2,2 3,2 5,1 12,-7 24,-15 36,-23zm96 139c1,2 2,3 4,3 32,-6 64,-13 96,-20 2,0 3,-2 2,-3 -4,-18 -9,-36 -14,-55 0,-1 -1,-3 -3,-2 -16,3 -32,7 -48,10 -1,0 -2,-1 -3,-2 -1,-6 -3,-12 -5,-18 0,-1 1,-2 2,-3 7,-1 15,-3 22,-4 1,0 2,-2 2,-4 -5,-18 -10,-38 -15,-57 -1,-1 -2,-2 -3,-2 -8,2 -15,3 -23,5 -1,0 -2,-1 -2,-2 -2,-6 -4,-12 -5,-18 -1,-2 0,-3 1,-3 16,-3 32,-7 49,-11 1,0 2,-2 2,-4 -6,-20 -11,-41 -16,-62 0,-2 -2,-4 -4,-3 -35,8 -71,16 -106,24 -2,0 -3,3 -2,5 6,21 12,42 18,62 6,19 12,38 18,57 6,19 12,37 17,55 5,18 11,35 16,52zm164 -82c0,0 -1,-1 -2,-2 -1,-14 -3,-28 -4,-42 -2,-14 -3,-28 -5,-43 -2,-14 -3,-29 -5,-45 -2,-15 -3,-31 -5,-46 0,-3 -2,-4 -4,-4 -17,2 -35,3 -52,5 -2,0 -4,3 -4,6 3,21 6,42 9,63 3,20 6,40 8,60 3,19 6,38 8,57 3,18 5,36 8,53 0,2 2,4 3,4 33,-3 67,-6 100,-9 2,0 3,-1 3,-3 -2,-18 -3,-37 -5,-56 0,-2 -1,-3 -3,-3 -17,2 -33,3 -50,5zm104 -193c-2,0 -3,3 -4,5 -3,22 -7,43 -10,65 -3,20 -7,41 -10,61 -3,19 -6,39 -9,57 -2,19 -5,37 -8,55 -1,3 1,5 3,5 16,0 31,-1 47,-1 1,0 3,-1 3,-3 2,-15 4,-30 6,-45 0,-1 2,-3 3,-3 5,0 10,0 15,0 2,0 3,1 3,2 2,16 3,31 5,45 0,2 2,3 4,3 15,0 30,0 45,-1 3,0 5,-3 5,-6 -3,-18 -5,-36 -8,-54 -2,-19 -5,-38 -7,-57 -3,-20 -6,-40 -9,-60 -3,-21 -5,-43 -8,-64 -1,-3 -2,-5 -4,-5 -21,0 -42,1 -62,1zm35 162c1,3 0,3 -10,3 -1,0 -2,-2 -1,-3 1,-10 2,-21 4,-31 1,-5 1,-8 2,-8 1,0 1,3 2,8 1,10 2,21 3,31zm118 87c2,0 3,-1 3,-3 2,-15 5,-29 7,-44 2,-15 5,-30 7,-46 1,-2 2,-4 2,-4 1,0 2,1 2,7 0,15 0,30 0,45 0,14 -1,29 -1,43 0,2 1,3 3,3 10,1 21,2 31,2 2,0 3,0 4,-2 5,-15 10,-30 15,-45 6,-16 11,-31 17,-47 2,-5 3,-7 3,-7 1,0 1,1 1,4 -4,16 -7,33 -10,49 -3,16 -6,31 -9,46 0,2 1,4 2,4 17,1 34,2 51,3 1,0 3,-1 3,-3 4,-17 8,-35 12,-54 4,-19 9,-38 13,-57 4,-20 9,-40 13,-61 5,-21 10,-42 15,-64 1,-3 0,-4 -2,-5 -29,-2 -58,-4 -87,-6 -2,0 -3,2 -4,4 -7,23 -14,46 -20,69 -1,2 -1,4 -2,4 0,0 -1,-1 -1,-4 1,-23 2,-47 3,-71 0,-2 -1,-4 -2,-4 -28,-2 -56,-4 -84,-6 -2,0 -3,2 -3,3 -3,23 -6,44 -9,66 -3,21 -5,41 -8,61 -2,20 -5,40 -7,59 -3,18 -5,37 -8,55 0,1 1,3 2,3 16,1 32,2 48,3zm268 -219c-2,-1 -4,1 -5,3 -12,20 -23,40 -34,59 -11,19 -21,38 -32,56 -10,18 -20,36 -30,53 -10,18 -19,34 -29,51 -1,3 0,5 2,5 14,4 29,7 43,10 1,1 4,0 5,-2 7,-13 14,-27 22,-41 1,-2 2,-2 3,-2 5,1 10,2 15,3 1,0 2,2 1,3 -4,15 -8,30 -12,44 -1,2 0,3 2,4 14,3 28,6 42,9 3,1 5,-2 6,-5 4,-17 9,-35 13,-53 5,-18 10,-37 15,-56 4,-19 9,-39 14,-59 6,-20 11,-41 17,-62 0,-3 0,-5 -2,-6 -19,-5 -38,-9 -56,-14zm-29 162c-1,3 -1,3 -10,1 -1,-1 -1,-2 0,-4 5,-9 10,-18 15,-28 3,-5 4,-7 5,-7 1,1 0,4 -1,8 -3,10 -6,20 -9,30zm79 128c1,1 4,0 5,-2 17,-21 34,-42 52,-64 18,-22 37,-45 56,-69 1,-2 4,-3 5,-2 7,5 14,10 21,15 2,1 4,0 6,-2 13,-16 27,-32 40,-49 2,-2 2,-4 1,-5 -31,-22 -61,-45 -93,-68 -1,-1 -3,-1 -4,1 -14,18 -27,36 -40,53 -1,2 -2,5 0,6 7,5 14,10 22,15 1,1 1,4 0,6 -19,24 -38,48 -55,71 -18,23 -35,45 -52,66 -1,2 -1,5 1,6 11,7 23,14 35,22z"/>
     <path class="fil6" d="M968 719c24,1 40,23 35,48 -6,33 -39,33 -31,68 3,12 -22,25 -31,20 -26,-17 -30,-65 -25,-92 5,-26 28,-45 52,-44z"/>
     <g style="clip-path:url(#id0)">
      <g>
       <path id="1" class="fil7" d="M1008 779c0,0 -5,-47 -30,-46 -25,2 -45,22 -47,49 -2,26 23,44 30,37 6,-8 19,13 29,12 11,-2 19,-52 18,-52z"/>
      </g>
     </g>
     <path class="fil0" d="M968 719c24,1 40,23 35,48 -6,33 -39,33 -31,68 3,12 -22,25 -31,20 -26,-17 -30,-65 -25,-92 5,-26 28,-45 52,-44z"/>
     <path class="fil6" d="M588 719c-24,1 -40,23 -35,48 6,33 39,33 31,68 -3,12 22,25 31,20 26,-17 30,-65 25,-92 -4,-26 -28,-45 -52,-44z"/>
     <g style="clip-path:url(#id1)">
      <g>
       <path id="1" class="fil7" d="M549 779c0,0 4,-47 29,-46 25,2 45,22 47,49 2,26 -23,44 -29,37 -7,-8 -20,13 -30,12 -10,-2 -18,-52 -17,-52z"/>
      </g>
     </g>
     <path class="fil0" d="M588 719c-24,1 -40,23 -35,48 6,33 39,33 31,68 -3,12 22,25 31,20 26,-17 30,-65 25,-92 -4,-26 -28,-45 -52,-44z"/>
     <path class="fil8" d="M535 1035c-20,23 -13,3 -27,25 -14,22 -65,178 -77,211 -4,9 -4,70 24,76 35,8 269,-21 324,-21l4 0 4 0c55,0 288,29 323,21 28,-6 29,-67 25,-76 -13,-33 -64,-189 -77,-211 -14,-22 -8,-2 -28,-25 -58,-67 -153,-100 -247,-98 -94,-2 -189,31 -248,98z"/>
     <g style="clip-path:url(#id2)">
      <g>
       <path id="1" class="fil9" d="M630 960c0,0 33,8 52,34 19,26 45,55 55,64 47,45 81,3 89,-3 7,-6 27,-30 39,-64 12,-34 68,-35 65,-36 -2,-2 -155,-56 -262,-3 0,0 -23,-25 -38,8z"/>
       <path class="fil10" d="M513 1053c0,0 30,-10 55,5 25,14 0,-13 -34,-23 -33,-9 -21,18 -21,18z"/>
       <path class="fil10" d="M405 1323c0,0 -17,-25 98,-86 115,-62 92,98 92,98 0,0 -2,137 -123,80 -121,-57 -67,-92 -67,-92z"/>
       <path class="fil10" d="M604 1169c0,0 -14,169 9,183 23,14 94,-8 114,-7 19,1 -1,-35 -24,-41 -24,-5 -36,7 -37,-19 -1,-25 12,-44 -3,-52 -15,-7 -44,-14 -58,-64 0,-1 -1,-1 -1,0z"/>
       <path class="fil10" d="M1053 1053c0,0 -30,-10 -55,5 -25,14 0,-13 34,-23 33,-9 21,18 21,18z"/>
       <path class="fil10" d="M1161 1323c0,0 17,-25 -98,-86 -115,-62 -92,98 -92,98 0,0 2,137 123,80 121,-57 67,-92 67,-92z"/>
       <path class="fil10" d="M962 1169c0,0 14,169 -9,183 -23,14 -94,-8 -114,-7 -20,1 1,-35 24,-41 24,-5 36,7 37,-19 1,-25 -12,-44 3,-52 15,-7 43,-14 58,-64 0,-1 1,-1 1,0z"/>
      </g>
     </g>
     <path class="fil0" d="M535 1035c-20,23 -13,3 -27,25 -14,22 -65,178 -77,211 -4,9 -4,70 24,76 35,8 269,-21 324,-21l4 0 4 0c55,0 288,29 323,21 28,-6 29,-67 25,-76 -13,-33 -64,-189 -77,-211 -14,-22 -8,-2 -28,-25 -58,-67 -153,-100 -247,-98 -94,-2 -189,31 -248,98z"/>
     <path class="fil7" d="M778 873l0 0c37,0 67,30 67,67l0 51c0,36 -42,67 -67,67 -26,0 -67,-31 -67,-67l0 -51c0,-37 30,-67 67,-67z"/>
     <path class="fil11" d="M778 994c-88,0 -150,-83 -158,-94 -7,-8 -15,-150 -15,-178 0,-104 77,-189 173,-189 96,0 174,85 174,189 0,28 -9,170 -16,178 -8,11 -70,94 -158,94z"/>
     <path class="fil12" d="M748 945c0,0 18,5 61,0 0,0 -31,27 -61,0z"/>
     <path class="fil13" d="M778 858c0,0 22,1 31,-10 0,0 3,-3 -31,-3 -34,0 -31,3 -31,3 9,11 31,10 31,10z"/>
     <path class="fil14" d="M892 622c0,0 13,25 32,40 20,15 24,94 24,151 0,0 71,-124 12,-231 0,0 58,-105 14,-180 0,0 -59,41 -90,48 0,0 16,-23 15,-37 -86,57 -311,-33 -330,172 -15,165 41,228 41,228 0,0 -18,-136 11,-151 40,-38 25,-43 51,-31 25,12 130,49 220,-9z"/>
     <g style="clip-path:url(#id3)">
      <g>
       <path id="1" class="fil15" d="M984 394c0,0 3,2 1,10 -2,7 -61,126 -109,64 0,0 -10,-11 15,-20 25,-10 92,-54 93,-54z"/>
       <path class="fil15" d="M627 462c0,0 -59,130 -20,139 38,10 35,21 59,28 25,6 -20,58 -20,58 0,0 -3,156 -34,137 -32,-18 -76,-106 -58,-155 18,-49 -35,-73 -4,-106 32,-32 -12,-52 77,-101z"/>
       <path class="fil15" d="M891 624l1 -2c0,0 29,-9 67,-39 37,-30 47,99 38,124 -9,24 -29,129 -56,117 -26,-11 -23,-143 -50,-200z"/>
      </g>
     </g>
     <path class="fil0" d="M892 622c0,0 13,25 32,40 20,15 24,94 24,151 0,0 71,-124 12,-231 0,0 58,-105 14,-180 0,0 -59,41 -90,48 0,0 16,-23 15,-37 -86,57 -311,-33 -330,172 -15,165 41,228 41,228 0,0 -18,-136 11,-151 40,-38 25,-43 51,-31 25,12 130,49 220,-9z"/>
     <path class="fil0" d="M639 733c0,0 37,-61 92,-18"/>
     <path class="fil16" d="M642 734c-2,3 -3,5 -6,3 -2,-1 -2,-4 0,-6 -2,-1 33,-65 98,-20 2,2 4,5 2,7 -2,2 -4,1 -6,0 -50,-35 -85,12 -88,16z"/>
     <path class="fil16" d="M914 734c2,3 3,5 6,3 2,-1 2,-4 0,-6 2,-1 -33,-65 -97,-20 -3,2 -4,5 -3,7 2,2 4,1 7,0 50,-35 84,12 87,16z"/>
     <path class="fil17" d="M703 870c-22,-9 -35,-3 -37,6 -3,9 -4,39 38,53 35,11 113,11 148,0 42,-14 41,-44 38,-53 -2,-9 -14,-15 -37,-6 -34,15 -116,15 -150,0z"/>
     <g style="clip-path:url(#id4)">
      <g>
       <path id="1" class="fil18" d="M662 875c0,0 6,15 21,18 14,3 -15,9 -20,5 -4,-3 -10,-14 -1,-23z"/>
       <path class="fil18" d="M894 875c0,0 -7,15 -21,18 -15,3 15,9 19,5 5,-3 11,-14 2,-23z"/>
      </g>
     </g>
     <path class="fil0" d="M703 870c-22,-9 -35,-3 -37,6 -3,9 -4,39 38,53 35,11 113,11 148,0 42,-14 41,-44 38,-53 -2,-9 -14,-15 -37,-6 -34,15 -116,15 -150,0z"/>
     <path class="fil0" d="M681 775c0,0 27,-15 55,9"/>
     <path class="fil19" d="M664 776c-1,-1 -1,-2 0,-3 1,0 29,-15 57,10 1,1 2,2 1,3 -1,1 -2,0 -3,0 -22,-15 -54,-7 -55,-10z"/>
     <path class="fil19" d="M893 776c0,-1 0,-2 -1,-3 0,0 -28,-15 -57,10 -1,1 -2,2 -1,3 1,1 2,0 3,0 22,-15 54,-7 56,-10z"/>
     <path class="fil20" d="M1410 604c-1,0 -116,83 -141,39 -5,-8 -5,-18 -2,-29 -10,-1 -18,-4 -23,-11 -7,-9 -8,-22 0,-40 0,-1 0,-1 0,-1 -4,-2 -7,-4 -11,-7 -5,-5 -9,-10 -12,-16 -5,-13 -5,-29 3,-40 17,-24 9,-55 9,-55l19 7c0,0 8,28 -13,58 -4,6 -4,15 -1,22 2,4 4,7 7,10 2,2 5,3 7,4 15,-26 33,-42 45,-48 7,-3 13,-4 18,-3 7,2 11,8 10,16 0,8 -7,19 -21,33 -14,14 -29,21 -41,21 -1,2 -2,4 -3,6 -4,11 -5,18 -2,22 3,3 9,5 17,4 7,-11 16,-23 26,-33 9,-8 18,-15 26,-21 9,-5 18,-9 26,-9 11,-1 19,3 22,14 6,17 -11,35 -36,48 -16,9 -34,16 -51,18 -1,1 -1,1 -2,1 -3,8 -4,15 -1,20 15,26 125,-52 125,-52l0 22zm-96 -28c-5,5 -10,11 -15,16 11,-3 22,-7 32,-13 17,-9 29,-19 27,-26 0,-2 -2,-2 -4,-2 -4,0 -10,3 -17,7 -8,5 -16,11 -23,18zm-9 -62c-8,4 -19,13 -29,28 5,-3 10,-7 16,-12 7,-7 11,-13 13,-16l0 0z"/>
     <path class="fil21" d="M1152 666c0,0 -85,25 -91,-6 -1,-6 1,-12 5,-17 -5,-3 -10,-7 -11,-12 -2,-7 0,-14 8,-24 0,0 0,0 1,0 -2,-2 -4,-4 -5,-6 -2,-4 -4,-8 -4,-12 -1,-9 3,-18 10,-23 14,-11 17,-30 17,-31l9 8c0,0 -1,19 -19,32 -4,3 -6,8 -6,13 1,2 1,5 3,7 0,1 1,3 3,4 14,-13 27,-18 36,-19 5,-1 9,0 11,2 4,3 5,7 3,12 -2,4 -8,9 -19,14 -12,6 -21,6 -29,4 -1,1 -2,2 -3,3 -5,6 -6,10 -5,12 0,3 4,5 8,7 7,-6 15,-11 23,-14 6,-4 13,-6 19,-7 7,-2 13,-2 18,-1 6,2 10,6 10,13 0,11 -14,19 -32,21 -11,2 -23,2 -34,0 0,0 0,0 -1,0 -3,4 -5,8 -5,12 4,18 85,-5 85,-5l-5 13zm-50 -36c-5,2 -9,4 -12,6 7,1 14,0 21,-1 12,-2 21,-5 21,-10 0,-1 0,-1 -1,-2 -3,0 -7,0 -12,1 -6,1 -12,3 -17,6zm7 -39c-5,1 -13,4 -23,11 4,-1 8,-2 12,-4 6,-3 9,-5 12,-7l-1 0z"/>
     <path class="fil22" d="M486 512c0,0 1,0 1,0 -1,0 -1,0 -1,0 0,0 0,0 0,0 -1,0 -1,1 -1,2l0 0c0,0 0,1 1,2 1,1 2,2 4,2 1,0 2,0 2,-1 1,-1 2,-3 2,-4 0,-2 -1,-4 -3,-5 -1,-2 -4,-3 -6,-4 -2,0 -4,1 -6,2 -2,2 -3,5 -3,8 1,3 2,6 5,9 3,3 7,5 11,5 4,1 7,0 10,-3 3,-3 5,-8 4,-13 0,-5 -3,-10 -7,-14 -4,-4 -10,-7 -16,-8 -5,0 -10,2 -15,7 -5,5 -6,10 -5,15 1,6 5,12 10,18 1,1 1,2 0,3 -1,0 -2,0 -3,0 -5,-7 -9,-14 -11,-20 -1,-7 1,-13 6,-18 6,-6 12,-8 18,-8 7,0 14,4 18,9 5,5 8,10 8,16 1,6 -1,11 -5,15 -3,4 -8,5 -12,5 -5,-1 -10,-3 -14,-7 -3,-3 -5,-7 -5,-11 0,-4 1,-7 4,-10 2,-2 5,-3 8,-3 3,0 6,2 9,5 2,2 3,4 3,6 0,3 -1,6 -2,7 -2,2 -4,2 -6,2 -2,0 -4,-1 -5,-3 -2,-1 -2,-3 -2,-4l0 0 0 0c0,-2 1,-3 1,-4 2,-1 3,-2 4,-1 1,0 2,1 3,1 2,3 1,4 0,5l0 0c-1,2 -2,1 -3,0 -1,0 -1,0 -1,0l0 -1c0,0 0,-1 0,-2z"/>
     <path class="fil23" d="M1175 499c0,0 -1,0 -1,0 0,0 0,0 0,1 0,0 1,0 1,0 0,0 1,0 2,0l0 0c1,-1 1,-2 1,-3 1,-1 1,-3 0,-5 0,-1 -1,-1 -2,-2 -2,0 -4,0 -5,1 -2,1 -3,3 -4,6 -1,3 -1,6 1,9 1,2 2,4 5,4 3,1 6,1 9,-2 3,-2 6,-5 7,-9 1,-6 1,-11 -1,-15 -2,-4 -5,-8 -9,-9 -6,-1 -11,0 -16,4 -5,3 -9,9 -11,16 -1,6 -1,15 2,21 3,5 8,10 16,12 8,2 14,0 19,-4 5,-5 9,-12 13,-22 0,-1 1,-1 2,-1 1,0 2,2 1,3 -3,10 -8,18 -14,23 -6,5 -13,7 -22,5 -9,-3 -15,-8 -18,-14 -5,-8 -5,-17 -3,-24 3,-8 7,-15 13,-19 5,-4 12,-5 19,-4 5,2 9,6 12,11 2,5 2,12 1,18 -2,5 -5,9 -8,12 -4,3 -9,4 -13,2 -4,-1 -7,-3 -8,-7 -2,-3 -2,-8 -1,-12 1,-3 3,-6 5,-7 3,-2 6,-2 9,-2 3,1 4,3 5,5 1,2 1,5 0,7 0,3 -1,4 -3,5l0 0 0 0c-2,1 -4,1 -5,1 -2,-1 -3,-2 -3,-3 -1,-2 -1,-3 0,-5 1,-3 3,-3 5,-2l0 0c2,0 2,2 2,3 0,0 -1,1 -1,1l0 0c0,1 -2,1 -2,1z"/>
     <path class="fil24" d="M91 549c0,0 109,75 132,34 4,-8 4,-17 1,-27 9,-1 17,-5 21,-11 7,-8 8,-20 0,-37 0,-1 0,-1 -1,-2 4,-1 7,-3 10,-6 5,-4 9,-9 11,-15 5,-12 5,-27 -3,-38 -16,-21 -9,-50 -9,-50l-17 6c0,1 -8,27 12,54 4,6 5,14 2,21 -2,4 -4,7 -7,9 -2,2 -4,3 -7,4 -14,-24 -30,-38 -42,-44 -6,-3 -12,-3 -17,-2 -7,2 -10,7 -9,15 1,7 7,17 20,30 14,13 27,19 39,20 1,1 2,3 2,5 5,10 5,17 3,20 -3,3 -8,5 -16,5 -6,-11 -15,-22 -25,-31 -8,-8 -16,-14 -24,-19 -9,-5 -18,-8 -25,-9 -10,0 -17,4 -20,14 -5,16 11,33 34,45 15,7 33,14 49,16 0,0 1,0 1,0 4,7 4,14 2,19 -14,25 -118,-47 -118,-47l1 21zm89 -28c5,5 9,10 13,15 -10,-3 -20,-7 -29,-11 -16,-9 -28,-18 -26,-25 0,-1 2,-2 3,-2 5,1 10,3 17,7 7,4 14,10 22,16zm7 -58c7,3 18,12 28,26 -5,-3 -10,-6 -15,-11 -7,-7 -11,-12 -13,-15l0 0z"/>
     <polygon class="fil25 str0" points="181,315 197,338 223,330 206,352 222,375 196,365 179,387 180,359 154,350 180,343 "/>
     <polygon class="fil25 str1" points="449,560 462,580 485,573 470,592 484,611 461,603 447,622 448,598 425,590 448,584 "/>
     <polygon class="fil25 str0" points="1042,457 1029,476 1006,470 1021,488 1007,508 1030,500 1044,519 1043,495 1066,487 1043,480 "/>
     <polygon class="fil25 str1" points="1140,747 1122,763 1101,750 1111,772 1092,788 1116,786 1125,808 1131,785 1154,783 1134,770 "/>
     <path class="fil26" d="M673 814c19,0 34,6 34,14 0,8 -15,15 -34,15 -18,0 -33,-7 -33,-15 0,-8 15,-14 33,-14z"/>
     <path class="fil26" d="M892 814c-18,0 -33,6 -33,14 0,8 15,15 33,15 19,0 34,-7 34,-15 0,-8 -15,-14 -34,-14z"/>
     <path class="fil25" d="M549 841c0,0 -68,-12 -80,9 0,0 -2,7 9,4 11,-3 20,-13 71,-13z"/>
     <path class="fil25" d="M553 837c0,0 -90,-34 -113,-10 0,0 -4,10 12,9 16,-1 30,-13 101,1z"/>
     <path class="fil25" d="M551 848c0,0 -53,-2 -60,15 0,0 -1,6 8,3 8,-4 13,-12 52,-18z"/>
     <path class="fil25" d="M992 842c0,0 61,-10 71,8 0,0 2,7 -8,4 -10,-3 -17,-12 -63,-12z"/>
     <path class="fil25" d="M988 838c0,0 81,-30 101,-7 0,0 4,8 -10,7 -15,-1 -27,-12 -91,0z"/>
     <path class="fil25" d="M990 848c0,0 47,-1 53,14 0,0 1,5 -6,2 -8,-3 -12,-11 -47,-16z"/>
     <polygon class="fil25 str1" points="495,678 505,693 523,688 511,702 522,717 505,711 493,726 494,707 477,701 494,696 "/>
     <path class="fil27" d="M314 593c0,0 40,28 48,13 2,-3 2,-7 1,-10 3,-1 6,-2 8,-4 2,-3 2,-8 0,-14 -1,0 -1,0 -1,0 2,-1 3,-2 4,-3 2,-1 3,-3 4,-5 2,-5 2,-10 -1,-14 -6,-8 -4,-19 -4,-19l-6 3c0,0 -3,9 5,20 1,2 1,5 0,7 0,1 -1,3 -2,4 -1,0 -2,1 -3,1 -5,-9 -11,-14 -15,-16 -3,-1 -5,-2 -6,-1 -3,1 -4,3 -4,6 0,2 3,6 8,11 5,4 10,7 14,7 0,0 1,1 1,2 2,3 2,6 1,7 -1,1 -3,2 -6,2 -2,-4 -6,-8 -9,-12 -3,-2 -6,-5 -9,-6 -4,-2 -7,-3 -9,-4 -4,0 -7,2 -8,5 -2,6 4,12 13,17 5,3 12,5 18,6 0,0 0,0 0,0 1,2 2,5 1,7 -5,9 -44,-17 -44,-17l1 7zm32 -10c2,2 4,4 6,6 -4,-1 -8,-3 -11,-5 -6,-3 -11,-6 -10,-9 0,0 1,0 1,0 2,0 4,1 7,2 2,2 5,4 7,6zm3 -21c3,1 7,4 10,9 -1,-1 -3,-2 -5,-4 -3,-2 -4,-4 -5,-5l0 0z"/>
     <g>
      <path class="fil6" d="M481 1078c-19,-37 19,-57 42,-46 23,10 50,52 34,101 -16,49 42,62 45,79 4,17 -80,82 -110,35 -37,-57 33,-79 -11,-169z"/>
      <g style="clip-path:url(#id5)">
       <g>
        <path id="1" class="fil7" d="M653 1220c0,0 -36,8 -69,10 -32,2 55,2 55,2 0,0 35,-2 14,-12z"/>
        <path class="fil7" d="M653 1281c0,0 -36,7 -69,9 -33,2 55,2 55,2 0,0 35,-2 14,-11z"/>
        <path class="fil7" d="M647 1341c0,0 -30,6 -57,7 -28,2 46,2 46,2 0,0 29,-1 11,-9z"/>
        <path class="fil28" d="M575 1156l-6 -8c0,0 -8,-29 -19,-14 -11,16 -2,51 -57,56 -55,4 78,18 90,-1 12,-19 -7,-33 -8,-33z"/>
       </g>
      </g>
      <path class="fil0" d="M481 1078c-19,-37 19,-57 42,-46 23,10 50,52 34,101 -16,49 42,62 45,79 4,17 -80,82 -110,35 -37,-57 33,-79 -11,-169z"/>
      <path class="fil6" d="M498 1182c44,-8 86,-7 126,0 17,2 31,8 31,25l0 0c0,13 -8,21 -19,25 14,3 26,15 26,30l0 0c0,15 -11,28 -25,30 10,5 18,16 18,28l0 0c0,15 -10,27 -24,30 8,4 14,13 14,23l0 0c0,14 -11,22 -24,25 -36,6 -71,7 -106,0 -33,-7 -20,-28 -28,-44 -9,-16 -10,-10 -16,-32 -3,-8 -1,-18 6,-24 -7,-10 -10,-27 -10,-37 0,-5 2,-20 5,-25 -2,-5 -4,-10 -4,-32l0 0c0,-17 14,-19 30,-22z"/>
      <g style="clip-path:url(#id6)">
       <g>
        <path id="1" class="fil28" d="M658 1213c0,0 -62,13 -112,15 -49,3 83,4 83,4 0,0 60,-5 29,-19z"/>
        <path class="fil28" d="M663 1274c0,0 -63,12 -109,15 -46,3 77,3 77,3 0,0 61,-5 32,-18z"/>
        <path class="fil28" d="M654 1337c0,0 -48,9 -83,11 -36,2 60,2 60,2 0,0 45,-2 23,-13z"/>
        <path class="fil28" d="M467 1326c0,0 19,12 24,25 5,12 7,31 17,35 9,3 58,17 117,10 60,-7 -38,24 -61,16 -22,-8 -65,5 -75,-11 -10,-16 -22,-75 -22,-75z"/>
       </g>
      </g>
      <path class="fil0" d="M498 1182c44,-8 86,-7 126,0 17,2 31,8 31,25l0 0c0,13 -8,21 -19,25 14,3 26,15 26,30l0 0c0,15 -11,28 -25,30 10,5 18,16 18,28l0 0c0,15 -10,27 -24,30 8,4 14,13 14,23l0 0c0,14 -11,22 -24,25 -36,6 -71,7 -106,0 -33,-7 -20,-28 -28,-44 -9,-16 -10,-10 -16,-32 -3,-8 -1,-18 6,-24 -7,-10 -10,-27 -10,-37 0,-5 2,-20 5,-25 -2,-5 -4,-10 -4,-32l0 0c0,-17 14,-19 30,-22z"/>
     </g>
     <g>
      <path class="fil6" d="M1086 1078c18,-37 -20,-57 -42,-46 -23,10 -51,52 -34,101 16,49 -42,62 -46,79 -3,17 81,82 111,35 36,-57 -34,-79 11,-169z"/>
      <g style="clip-path:url(#id7)">
       <g>
        <path id="1" class="fil7" d="M914 1220c0,0 36,8 68,10 33,2 -55,2 -55,2 0,0 -34,-2 -13,-12z"/>
        <path class="fil7" d="M914 1281c0,0 36,7 69,9 32,2 -56,2 -56,2 0,0 -34,-2 -13,-11z"/>
        <path class="fil7" d="M919 1341c0,0 31,6 58,7 28,2 -46,2 -46,2 0,0 -29,-1 -12,-9z"/>
        <path class="fil28" d="M991 1156l7 -8c0,0 7,-29 19,-14 11,16 2,51 57,56 55,4 -78,18 -90,-1 -12,-19 7,-33 7,-33z"/>
       </g>
      </g>
      <path class="fil0" d="M1086 1078c18,-37 -20,-57 -42,-46 -23,10 -51,52 -34,101 16,49 -42,62 -46,79 -3,17 81,82 111,35 36,-57 -34,-79 11,-169z"/>
      <path class="fil6" d="M1069 1182c-44,-8 -86,-7 -127,0 -16,2 -30,8 -30,25l0 0c0,13 8,21 19,25 -15,3 -26,15 -26,30l0 0c0,15 11,28 25,30 -11,5 -18,16 -18,28l0 0c0,15 10,27 24,30 -9,4 -15,13 -15,23l0 0c0,14 12,22 25,25 35,6 70,7 106,0 32,-7 20,-28 28,-44 9,-16 10,-10 16,-32 2,-8 0,-18 -6,-24 7,-10 9,-27 9,-37 0,-5 -1,-20 -4,-25 2,-5 4,-10 4,-32l0 0c0,-17 -14,-19 -30,-22z"/>
      <g style="clip-path:url(#id8)">
       <g>
        <path id="1" class="fil28" d="M909 1213c0,0 62,13 112,15 49,3 -83,4 -83,4 0,0 -60,-5 -29,-19z"/>
        <path class="fil28" d="M903 1274c0,0 64,12 110,15 46,3 -77,3 -77,3 0,0 -62,-5 -33,-18z"/>
        <path class="fil28" d="M913 1337c0,0 47,9 83,11 36,2 -60,2 -60,2 0,0 -46,-2 -23,-13z"/>
        <path class="fil28" d="M1099 1326c0,0 -18,12 -23,25 -5,12 -8,31 -17,35 -10,3 -58,17 -118,10 -59,-7 39,24 62,16 22,-8 65,5 75,-11 10,-16 22,-75 21,-75z"/>
       </g>
      </g>
      <path class="fil0" d="M1069 1182c-44,-8 -86,-7 -127,0 -16,2 -30,8 -30,25l0 0c0,13 8,21 19,25 -15,3 -26,15 -26,30l0 0c0,15 11,28 25,30 -11,5 -18,16 -18,28l0 0c0,15 10,27 24,30 -9,4 -15,13 -15,23l0 0c0,14 12,22 25,25 35,6 70,7 106,0 32,-7 20,-28 28,-44 9,-16 10,-10 16,-32 2,-8 0,-18 -6,-24 7,-10 9,-27 9,-37 0,-5 -1,-20 -4,-25 2,-5 4,-10 4,-32l0 0c0,-17 -14,-19 -30,-22z"/>
     </g>
    </g>
   </g>
   <rect class="fil0" width="1500" height="1500"/>
  </g>
 </g>
</svg>
