<?xml version="1.0" encoding="UTF-8"?>
<!DOCTYPE svg PUBLIC "-//W3C//DTD SVG 1.1//EN" "http://www.w3.org/Graphics/SVG/1.1/DTD/svg11.dtd">
<!-- Creator: CorelDRAW X7 -->
<svg xmlns="http://www.w3.org/2000/svg" xml:space="preserve" width="1500px" height="1500px" version="1.1" style="shape-rendering:geometricPrecision; text-rendering:geometricPrecision; image-rendering:optimizeQuality; fill-rule:evenodd; clip-rule:evenodd"
viewBox="0 0 1500 1500"
 xmlns:xlink="http://www.w3.org/1999/xlink">
 <defs>
  <style type="text/css">
   <![CDATA[
    .str0 {stroke:black;stroke-width:4.50004;stroke-opacity:0.188235}
    .fil0 {fill:none}
    .fil34 {fill:none;fill-rule:nonzero}
    .fil38 {fill:#FDFDFE}
    .fil37 {fill:#006FA6}
    .fil20 {fill:#0077B3}
    .fil15 {fill:#0081C2}
    .fil14 {fill:#0081C2}
    .fil1 {fill:#0083C4}
    .fil13 {fill:#008FD7}
    .fil21 {fill:#048BC9}
    .fil16 {fill:#0E2242}
    .fil11 {fill:#1A1A1A}
    .fil2 {fill:#2CB5F5}
    .fil8 {fill:#2CB5F5}
    .fil23 {fill:#333333}
    .fil3 {fill:#4CC6FF}
    .fil25 {fill:#4D4D4D}
    .fil39 {fill:#575757}
    .fil33 {fill:#5C5C5C}
    .fil24 {fill:#666666}
    .fil41 {fill:#6E6E6E}
    .fil40 {fill:gray}
    .fil12 {fill:#8B4439}
    .fil36 {fill:#999999}
    .fil35 {fill:#B3B3B3}
    .fil7 {fill:#C4E7F2}
    .fil29 {fill:#F0BC95}
    .fil19 {fill:#F0BC95}
    .fil18 {fill:#F9B700}
    .fil28 {fill:#FCCEAB}
    .fil17 {fill:#FFCC00}
    .fil27 {fill:#FFE1BD}
    .fil30 {fill:#FFE1BD}
    .fil10 {fill:#FFEE00}
    .fil9 {fill:white}
    .fil26 {fill:black;fill-rule:nonzero}
    .fil5 {fill:#008FD6;fill-rule:nonzero}
    .fil6 {fill:#0092DB;fill-rule:nonzero}
    .fil4 {fill:#00A0F0;fill-rule:nonzero}
    .fil31 {fill:#0E2242;fill-rule:nonzero}
    .fil32 {fill:#666666;fill-rule:nonzero}
    .fil22 {fill:black;fill-opacity:0.188235}
   ]]>
  </style>
     <clipPath id="id0">
      <path d="M1066 539l185 -61c4,-1 7,1 8,5l20 98c1,4 -2,8 -6,9l-185 61c-4,1 -7,-1 -8,-5l-20 -98c-1,-4 2,-8 6,-9z"/>
     </clipPath>
     <clipPath id="id1">
      <path d="M889 500l156 -98c3,-2 7,-1 9,3l40 85c2,4 0,8 -3,10l-156 97c-4,2 -8,1 -9,-2l-40 -86c-2,-3 0,-7 3,-9z"/>
     </clipPath>
     <clipPath id="id2">
      <path d="M1096 340l177 -83c4,-2 8,0 9,4l31 94c1,4 -1,9 -4,11l-177 82c-3,2 -7,0 -9,-4l-31 -94c-1,-4 1,-9 4,-10z"/>
     </clipPath>
      <clipPath id="id3">
       <path d="M312 1036c-29,9 -35,21 -48,43 -14,22 -82,207 -95,239 -4,10 -6,39 22,45 62,14 201,-19 338,-19 136,0 276,33 338,19 28,-6 25,-35 21,-45 -12,-32 -81,-217 -94,-239 -14,-22 -20,-34 -49,-43 -35,-11 -123,-24 -216,-26 -94,2 -182,15 -217,26z"/>
      </clipPath>
      <clipPath id="id4">
       <path d="M731 760c-17,-2 -35,19 -38,47 -3,29 8,54 26,56 18,2 35,-19 38,-48 3,-28 -8,-53 -26,-55z"/>
      </clipPath>
      <clipPath id="id5">
       <path d="M716 720c-23,-2 -46,35 -52,84 -5,49 8,91 31,94 22,2 45,-35 51,-84 6,-49 -8,-91 -30,-94z"/>
      </clipPath>
      <clipPath id="id6">
       <path d="M695 701c-30,-3 -60,41 -67,100 -7,59 12,110 42,113 30,4 60,-41 67,-100 7,-59 -12,-109 -42,-113z"/>
      </clipPath>
      <clipPath id="id7">
       <path d="M567 1015c-171,0 -197,-131 -197,-266 0,-102 76,-185 170,-185 94,0 170,83 170,185 0,103 2,225 -143,266z"/>
      </clipPath>
      <clipPath id="id8">
       <path d="M596 1276c0,0 166,1 218,-12 52,-13 99,113 12,123 -57,6 -149,-26 -205,-49 -30,-12 -50,-21 -50,-21 -51,-1 -36,-19 -71,-2 -35,17 -58,-20 -50,-26l48 -44c6,-5 15,-5 40,3 26,9 58,28 58,28z"/>
      </clipPath>
      <clipPath id="id9">
       <path d="M461 1312c0,0 -178,-42 -221,-50 -43,-8 -108,99 -23,123 84,24 230,-15 230,-15 0,0 118,29 141,15 23,-14 16,-36 16,-36l-50 -68c0,0 -17,-11 -35,2 -18,12 -58,30 -58,29z"/>
      </clipPath>
      <clipPath id="id10">
       <path d="M554 957c-38,-2 -70,-31 -70,-51 0,-20 45,-6 83,-4 39,2 57,-10 57,10 0,20 -31,47 -70,45z"/>
      </clipPath>
      <clipPath id="id11" style="clip-rule:nonzero">
       <path d="M324 732c0,-1 5,-236 173,-251l-14 5c-113,30 -111,265 -111,266l-48 -20z"/>
      </clipPath>
      <clipPath id="id12">
       <path d="M853 711l395 83c1,0 1,0 1,0 27,144 5,298 -61,457 0,0 0,0 0,0l-412 34 77 -574z"/>
      </clipPath>
      <clipPath id="id13">
       <path d="M1113 1025l0 0c13,0 21,11 23,24l48 284c2,14 -12,14 -171,49 17,-3 6,-38 6,-262 0,-52 42,-95 94,-95z"/>
      </clipPath>
      <clipPath id="id14">
       <path d="M343 709c30,-4 60,41 67,100 7,59 -12,109 -42,113 -30,4 -60,-41 -67,-100 -7,-59 11,-110 42,-113z"/>
      </clipPath>
      <clipPath id="id15">
       <path d="M322 728c23,-3 46,35 52,84 5,49 -8,90 -31,93 -22,3 -45,-35 -51,-84 -6,-49 8,-91 30,-93z"/>
      </clipPath>
      <clipPath id="id16">
       <path d="M307 767c17,-2 34,20 38,48 3,28 -8,53 -26,55 -18,2 -35,-19 -38,-47 -4,-29 8,-54 26,-56z"/>
      </clipPath>
 </defs>
 <g id="Layer_x0020_1">
  <metadata id="CorelCorpID_0Corel-Layer"/>
  <rect class="fil0" width="1500" height="1500"/>
  <g id="_2264102301856">
   <g>
    <g>
     <circle class="fil1" cx="714" cy="722" r="615"/>
     <circle class="fil2" cx="714" cy="775" r="562"/>
     <circle class="fil3" cx="714" cy="847" r="490"/>
    </g>
    <path class="fil4" d="M1218 747c-7,0 -13,-6 -13,-13 0,-7 5,-12 12,-13 47,-1 76,22 91,66 2,6 -2,14 -9,16 -6,2 -13,-2 -15,-8 -11,-32 -32,-49 -66,-48z"/>
    <path class="fil5" d="M1221 696c-8,0 -13,-6 -13,-14 0,-7 6,-13 14,-13 33,2 60,11 83,27 22,17 39,40 51,71 2,7 -1,14 -8,17 -7,3 -15,-1 -17,-8 -10,-25 -24,-45 -42,-58 -18,-14 -41,-21 -68,-22z"/>
    <path class="fil6" d="M1222 648c-7,0 -13,-6 -13,-13 0,-7 6,-13 13,-13 45,0 82,12 112,34 30,21 52,54 67,96 2,7 -2,14 -9,16 -6,3 -14,-1 -16,-8 -13,-37 -32,-65 -57,-83 -25,-19 -58,-29 -97,-29z"/>
    <path class="fil7" d="M1066 539l185 -61c4,-1 7,1 8,5l20 98c1,4 -2,8 -6,9l-185 61c-4,1 -7,-1 -8,-5l-20 -98c-1,-4 2,-8 6,-9z"/>
    <g style="clip-path:url(#id0)">
     <g>
      <g>
       <rect class="fil8" transform="matrix(0.145359 -0.167286 0.190523 0.0572475 1045.25 555.697)" width="684" height="684" rx="76" ry="76"/>
       <rect class="fil7" transform="matrix(0.145359 -0.167286 0.190523 0.0572475 1043.35 546.262)" width="684" height="684" rx="76" ry="76"/>
      </g>
     </g>
    </g>
    <path class="fil0" d="M1066 539l185 -61c4,-1 7,1 8,5l20 98c1,4 -2,8 -6,9l-185 61c-4,1 -7,-1 -8,-5l-20 -98c-1,-4 2,-8 6,-9z"/>
    <path class="fil7" d="M889 500l156 -98c3,-2 7,-1 9,3l40 85c2,4 0,8 -3,10l-156 97c-4,2 -8,1 -9,-2l-40 -86c-2,-3 0,-7 3,-9z"/>
    <g style="clip-path:url(#id1)">
     <g>
      <g>
       <rect class="fil8" transform="matrix(0.0959052 -0.186272 0.187818 0.00977247 873.858 519.766)" width="684" height="684" rx="76" ry="76"/>
       <rect class="fil7" transform="matrix(0.0959052 -0.186272 0.187818 0.00977247 869.995 511.528)" width="684" height="684" rx="76" ry="76"/>
      </g>
     </g>
    </g>
    <path class="fil0" d="M889 500l156 -98c3,-2 7,-1 9,3l40 85c2,4 0,8 -3,10l-156 97c-4,2 -8,1 -9,-2l-40 -86c-2,-3 0,-7 3,-9z"/>
    <path class="fil7" d="M1096 340l177 -83c4,-2 8,0 9,4l31 94c1,4 -1,9 -4,11l-177 82c-3,2 -7,0 -9,-4l-31 -94c-1,-4 1,-9 4,-10z"/>
    <g style="clip-path:url(#id2)">
     <g>
      <g>
       <rect class="fil8" transform="matrix(0.124096 -0.183614 0.196041 0.0338236 1078.22 358.891)" width="684" height="684" rx="76" ry="76"/>
       <rect class="fil7" transform="matrix(0.124096 -0.183614 0.196041 0.0338236 1075.19 349.753)" width="684" height="684" rx="76" ry="76"/>
      </g>
     </g>
    </g>
    <path class="fil0" d="M1096 340l177 -83c4,-2 8,0 9,4l31 94c1,4 -1,9 -4,11l-177 82c-3,2 -7,0 -9,-4l-31 -94c-1,-4 1,-9 4,-10z"/>
    <path class="fil9" d="M342 382l0 -75c0,-8 3,-15 8,-19l0 0 0 0 0 -1c5,-4 12,-8 19,-8l129 0c8,0 15,4 20,9l0 0 0 0 0 0c5,5 8,11 8,19l0 75c0,7 -3,14 -8,19l0 0c-5,5 -12,8 -20,8l-8 0 -4 32c0,1 -1,2 -3,2 0,0 -1,0 -1,-1l-36 -33 -77 0c-7,0 -14,-3 -19,-8l0 0c-5,-5 -8,-12 -8,-19z"/>
    <g>
     <circle class="fil10" cx="431" cy="344" r="45"/>
     <g>
      <g>
       <ellipse class="fil11" cx="410" cy="332" rx="5" ry="6"/>
       <circle class="fil9" cx="412" cy="329" r="2"/>
      </g>
      <g>
       <ellipse class="fil11" cx="453" cy="332" rx="5" ry="6"/>
       <circle class="fil9" cx="454" cy="329" r="2"/>
      </g>
     </g>
     <path class="fil12" d="M431 376c-15,0 -31,-22 -27,-24 9,-4 46,-4 55,0 4,2 -12,24 -28,24z"/>
    </g>
    <g>
     <path class="fil13" d="M312 1036c-29,9 -35,21 -48,43 -14,22 -82,207 -95,239 -4,10 -6,39 22,45 62,14 201,-19 338,-19 136,0 276,33 338,19 28,-6 25,-35 21,-45 -12,-32 -81,-217 -94,-239 -14,-22 -20,-34 -49,-43 -35,-11 -123,-24 -216,-26 -94,2 -182,15 -217,26z"/>
     <g style="clip-path:url(#id3)">
      <g>
       <path id="1" class="fil14" d="M351 1158c0,0 -28,134 5,151 32,17 153,17 193,13 41,-4 65,-6 103,6 38,12 80,19 84,-16 5,-36 -2,-166 -2,-166 0,0 18,175 45,173 28,-3 -14,41 -37,37 -23,-3 -49,14 -88,14 -40,0 -115,0 -153,-2 -39,-3 -197,-2 -201,-3 -4,-1 10,-51 51,-207z"/>
       <path class="fil14" d="M444 1026c0,0 -13,74 -15,84 -2,10 90,-27 99,-25 9,3 84,24 95,30 10,5 -12,-96 -35,-106 -23,-11 -85,-55 -144,17z"/>
       <path class="fil15" d="M328 1030c0,0 100,-7 123,10 23,16 154,0 154,0 0,0 37,-16 99,-15 0,0 -26,-59 -71,-57 -46,3 -205,-54 -305,62z"/>
      </g>
     </g>
     <path class="fil0" d="M312 1036c-29,9 -35,21 -48,43 -14,22 -82,207 -95,239 -4,10 -6,39 22,45 62,14 201,-19 338,-19 136,0 276,33 338,19 28,-6 25,-35 21,-45 -12,-32 -81,-217 -94,-239 -14,-22 -20,-34 -49,-43 -35,-11 -123,-24 -216,-26 -94,2 -182,15 -217,26z"/>
     <path class="fil16" d="M357 871c0,0 27,82 73,85 46,3 -10,-113 -10,-113 0,0 -33,-56 -63,28z"/>
     <polygon class="fil17" points="522,1107 536,1107 568,1373 490,1373 "/>
     <path class="fil18" d="M505 1084c1,18 9,36 24,37 16,-1 24,-19 24,-37l-48 0z"/>
     <path class="fil19" d="M522 901l0 0c37,0 67,30 67,66l0 51c0,36 -45,66 -59,66 -20,0 -74,-30 -74,-66l0 -51c0,-36 30,-66 66,-66z"/>
     <path class="fil20" d="M588 1002c0,0 15,7 20,17 5,10 31,85 31,85 0,0 -45,-10 -109,-19 0,0 49,-34 58,-83z"/>
     <path class="fil21" d="M731 760c-17,-2 -35,19 -38,47 -3,29 8,54 26,56 18,2 35,-19 38,-48 3,-28 -8,-53 -26,-55z"/>
     <g style="clip-path:url(#id4)">
      <g>
       <path id="1" class="fil22 str0" d="M667 819c0,0 42,30 70,0 0,0 19,20 29,2 0,0 27,40 37,4 0,0 18,33 -1,72 -19,40 -83,55 -95,34 -12,-22 -54,-63 -40,-112z"/>
      </g>
     </g>
     <path class="fil0" d="M731 760c-17,-2 -35,19 -38,47 -3,29 8,54 26,56 18,2 35,-19 38,-48 3,-28 -8,-53 -26,-55z"/>
     <path class="fil23" d="M716 720c-23,-2 -46,35 -52,84 -5,49 8,91 31,94 22,2 45,-35 51,-84 6,-49 -8,-91 -30,-94z"/>
     <g style="clip-path:url(#id5)">
      <g>
       <path id="1" class="fil22 str0" d="M667 819c0,0 42,30 70,0 0,0 19,20 29,2 0,0 27,40 37,4 0,0 18,33 -1,72 -19,40 -83,55 -95,34 -12,-22 -54,-63 -40,-112z"/>
      </g>
     </g>
     <path class="fil0" d="M716 720c-23,-2 -46,35 -52,84 -5,49 8,91 31,94 22,2 45,-35 51,-84 6,-49 -8,-91 -30,-94z"/>
     <path class="fil24" d="M688 589c0,0 48,33 40,141 0,0 -1,13 -1,14 -1,1 -59,-76 -59,-76 0,0 20,-79 20,-79z"/>
     <path class="fil25" d="M695 701c-30,-3 -60,41 -67,100 -7,59 12,110 42,113 30,4 60,-41 67,-100 7,-59 -12,-109 -42,-113z"/>
     <g style="clip-path:url(#id6)">
      <g>
       <path id="1" class="fil22 str0" d="M667 819c0,0 42,30 70,0 0,0 19,20 29,2 0,0 27,40 37,4 0,0 18,33 -1,72 -19,40 -83,55 -95,34 -12,-22 -54,-63 -40,-112z"/>
      </g>
     </g>
     <path class="fil0" d="M695 701c-30,-3 -60,41 -67,100 -7,59 12,110 42,113 30,4 60,-41 67,-100 7,-59 -12,-109 -42,-113z"/>
     <path class="fil26" d="M685 886c0,0 58,67 15,72l-80 7 -1 -10 80 -8c22,-2 -22,-54 -23,-54l9 -7z"/>
     <path class="fil27" d="M567 1015c-171,0 -197,-131 -197,-266 0,-102 76,-185 170,-185 94,0 170,83 170,185 0,103 2,225 -143,266z"/>
     <g style="clip-path:url(#id7)">
      <g>
       <path id="1" class="fil28" d="M408 838c0,0 11,29 4,45 -7,15 18,87 43,104 24,17 -75,5 -83,-12 -9,-18 -13,-140 36,-137z"/>
      </g>
     </g>
     <path class="fil0" d="M567 1015c-171,0 -197,-131 -197,-266 0,-102 76,-185 170,-185 94,0 170,83 170,185 0,103 2,225 -143,266z"/>
     <path class="fil0" d="M681 889c0,0 51,60 19,63l-80 8"/>
     <path class="fil26" d="M695 899c15,20 36,56 5,59l-80 7 -1 -10 80 -8c14,-1 3,-21 -8,-36 2,-3 3,-6 3,-9 1,-1 1,-2 1,-3z"/>
     <path class="fil29" d="M525 958c0,0 17,15 60,4 0,0 -33,32 -60,-4z"/>
     <path class="fil29" d="M571 884c0,0 19,1 27,-12 0,0 2,-3 -27,-3 -29,0 -27,3 -27,3 8,13 27,12 27,12z"/>
     <path class="fil16" d="M659 651c0,0 13,24 32,39 19,15 16,92 16,148 0,0 31,-112 -1,-224 0,0 68,-93 36,-172 0,0 -79,50 -101,32 0,0 17,-26 16,-40 -84,56 -352,24 -334,245 -15,160 52,159 52,159 0,0 3,-133 31,-148 39,-37 25,-42 50,-30 24,12 115,48 203,-9z"/>
     <path class="fil0" d="M428 758c0,0 33,-59 82,-18"/>
     <path class="fil30" d="M596 1276c0,0 166,1 218,-12 52,-13 99,113 12,123 -57,6 -149,-26 -205,-49 -30,-12 -50,-21 -50,-21 -51,-1 -36,-19 -71,-2 -35,17 -58,-20 -50,-26l48 -44c6,-5 15,-5 40,3 26,9 58,28 58,28z"/>
     <g style="clip-path:url(#id8)">
      <g>
       <path id="1" class="fil28" d="M527 1294c0,0 21,-19 30,-14 9,5 29,37 41,42 12,4 128,52 158,54 30,2 69,18 95,11 26,-8 -21,32 -159,-5 -138,-38 -165,-88 -165,-88z"/>
      </g>
     </g>
     <path class="fil0" d="M596 1276c0,0 166,1 218,-12 52,-13 99,113 12,123 -57,6 -149,-26 -205,-49 -30,-12 -50,-21 -50,-21 -51,-1 -36,-19 -71,-2 -35,17 -58,-20 -50,-26l48 -44c6,-5 15,-5 40,3 26,9 58,28 58,28z"/>
     <path class="fil31" d="M431 759c-2,3 -3,5 -5,3 -3,-1 -3,-4 -1,-6 -1,0 32,-64 93,-19 2,2 4,4 2,7 -2,2 -3,1 -6,-1 -47,-34 -80,12 -83,16z"/>
     <path class="fil31" d="M674 759c1,3 2,5 4,3 2,-1 2,-4 1,-6 1,0 -28,-64 -82,-19 -2,2 -3,4 -1,7 1,2 3,1 5,-1 41,-34 70,12 73,16z"/>
     <g>
      <ellipse class="fil11" cx="500" cy="794" rx="17" ry="20"/>
      <ellipse class="fil9" cx="506" cy="784" rx="6" ry="7"/>
     </g>
     <g>
      <ellipse class="fil11" cx="644" cy="794" rx="17" ry="20"/>
      <ellipse class="fil9" cx="650" cy="784" rx="6" ry="7"/>
     </g>
     <path class="fil30" d="M461 1312c0,0 -178,-42 -221,-50 -43,-8 -108,99 -23,123 84,24 230,-15 230,-15 0,0 118,29 141,15 23,-14 16,-36 16,-36l-50 -68c0,0 -17,-11 -35,2 -18,12 -58,30 -58,29z"/>
     <g style="clip-path:url(#id9)">
      <g>
       <path id="1" class="fil28" d="M447 1375c0,-5 4,-16 -6,-15 -9,2 -150,34 -190,33 -40,-1 65,26 196,-18z"/>
      </g>
     </g>
     <path class="fil0" d="M461 1312c0,0 -178,-42 -221,-50 -43,-8 -108,99 -23,123 84,24 230,-15 230,-15 0,0 118,29 141,15 23,-14 16,-36 16,-36l-50 -68c0,0 -17,-11 -35,2 -18,12 -58,30 -58,29z"/>
     <path class="fil12" d="M554 957c-38,-2 -70,-31 -70,-51 0,-20 45,-6 83,-4 39,2 57,-10 57,10 0,20 -31,47 -70,45z"/>
     <g style="clip-path:url(#id10)">
      <g>
       <path id="1" class="fil9" d="M628 927c17,-1 -11,-21 -167,-5 0,0 -13,-21 0,-25 13,-3 143,-3 143,-3l31 6 -7 27z"/>
      </g>
     </g>
     <path class="fil0" d="M554 957c-38,-2 -70,-31 -70,-51 0,-20 45,-6 83,-4 39,2 57,-10 57,10 0,20 -31,47 -70,45z"/>
     <path class="fil20" d="M456 997c0,0 -15,8 -20,18 -5,10 -14,89 -14,89 0,0 45,-10 108,-19 0,0 -65,-38 -74,-88z"/>
     <path class="fil32" d="M324 732c0,-1 5,-236 173,-251l-14 5c-113,30 -111,265 -111,266l-48 -20z"/>
     <g style="clip-path:url(#id11)">
      <g>
       <path id="1" class="fil33" d="M321 677l-8 74 74 -11 -2 -60c0,0 -58,54 -64,-3z"/>
      </g>
     </g>
     <path class="fil34" d="M324 732c0,-1 5,-236 173,-251l-14 5c-113,30 -111,265 -111,266l-48 -20z"/>
     <path class="fil24" d="M832 711l21 0 -77 574 -21 0c-7,0 -11,-5 -10,-12l74 -551c1,-6 7,-11 13,-11z"/>
     <path class="fil35" d="M853 711l395 83c1,0 1,0 1,0 27,144 5,298 -61,457 0,0 0,0 0,0l-412 34 77 -574z"/>
     <g style="clip-path:url(#id12)">
      <g>
       <path id="1" class="fil36" d="M545 607l315 104c13,181 -14,373 -77,573l-335 42 97 -719z"/>
      </g>
     </g>
     <path class="fil0" d="M853 711l395 83c1,0 1,0 1,0 27,144 5,298 -61,457 0,0 0,0 0,0l-412 34 77 -574z"/>
     <path class="fil37" d="M1060 872l66 13c5,2 8,5 9,11 3,25 1,47 -9,66 -3,5 -6,10 -12,10l-68 6c-6,0 -11,-5 -9,-11 8,-26 12,-54 11,-85 0,-6 7,-12 12,-10z"/>
     <path class="fil38" d="M1113 910c9,0 12,4 14,11l-3 4 -5 3c-1,-3 -2,-5 -7,-5 -5,0 -10,8 -12,18 -1,11 2,19 7,19 5,0 6,-2 9,-6l3 4 3 3c-5,7 -8,12 -17,12 -9,0 -15,-14 -13,-32 2,-17 12,-31 21,-31z"/>
     <path class="fil39" d="M908 1376l109 5c0,0 89,-18 112,-38 24,-20 40,-31 40,-31l-284 55c0,0 -8,1 -7,5 1,5 7,4 7,4 0,0 23,0 23,0z"/>
     <path class="fil40" d="M1113 1025l0 0c13,0 21,11 23,24l48 284c2,14 -12,14 -171,49 17,-3 6,-38 6,-262 0,-52 42,-95 94,-95z"/>
     <g style="clip-path:url(#id13)">
      <g>
       <path id="1" class="fil41" d="M1057 1043c-18,29 -32,43 -28,84 5,49 10,225 10,225 0,0 2,29 -13,32 -15,4 -46,-14 -46,-9 0,4 31,-338 31,-338l46 6z"/>
      </g>
     </g>
     <path class="fil0" d="M1113 1025l0 0c13,0 21,11 23,24l48 284c2,14 -12,14 -171,49 17,-3 6,-38 6,-262 0,-52 42,-95 94,-95z"/>
     <circle class="fil11" cx="617" cy="961" r="18"/>
     <rect class="fil37" transform="matrix(0.00273699 0.000154014 -0 0.00273699 622.896 1168.58)" width="11200" height="11200" rx="1350" ry="1350"/>
     <path class="fil38" d="M642 1178c4,0 7,2 9,4l-2 1 -2 2c-1,-2 -3,-3 -5,-3 -3,0 -6,3 -6,7 0,3 3,6 6,7 2,0 4,-1 5,-2l2 1 2 2c-2,2 -5,4 -9,3 -6,0 -11,-5 -11,-12 0,-6 5,-11 11,-10z"/>
     <g>
      <path class="fil37" d="M664 1184c2,0 4,1 5,2l-1 1 -1 1c-1,-1 -2,-2 -3,-2 -2,0 -4,2 -4,4 0,2 2,4 4,4 1,0 2,-1 3,-1l1 1 1 0c-1,2 -3,3 -5,2 -3,0 -6,-3 -6,-6 0,-4 3,-7 6,-6z"/>
      <path class="fil37" d="M670 1186l2 2c2,-2 5,-2 5,1l-2 0c-2,0 -5,1 -5,4 0,5 6,5 7,3 0,0 0,1 0,1l3 0 0 -7c0,-7 -7,-6 -10,-4zm7 5c0,4 -4,4 -4,3 -1,-2 0,-3 4,-3z"/>
      <path class="fil37" d="M685 1185l0 1c0,0 1,-1 2,-1 3,0 4,2 4,2l-2 2c0,0 -1,-1 -2,-1 -1,0 -2,1 -2,3l0 7 -3 -1 0 -12 3 0z"/>
      <path class="fil37" d="M695 1189l3 5c1,-4 2,-8 2,-8l3 0c0,0 -4,13 -5,15 -1,2 -3,2 -4,2l-1 0 0 -3c0,0 0,0 1,0 1,0 2,-1 2,-2 -1,-3 -2,-6 -3,-9 0,0 0,1 0,1 1,0 2,-1 2,-1z"/>
      <path class="fil37" d="M709 1189l0 6c0,1 0,1 1,1l2 0 0 3 -3 0c-2,0 -4,-2 -4,-3l0 -7 -1 0 0 -2c2,0 3,-2 3,-4l2 0 0 3 2 1 0 2 -2 0z"/>
      <path class="fil37" d="M713 1188l2 2c1,-1 5,-1 5,2l-2 0c-2,0 -5,0 -5,3 0,5 5,5 7,3 0,1 0,1 0,2l2 0 0 -8c0,-6 -7,-6 -9,-4zm7 6c0,4 -4,3 -5,2 -1,-1 0,-3 5,-2z"/>
      <circle class="fil37" transform="matrix(0.0140166 0.000788732 -0 0.0140166 693.318 1186.34)" r="132"/>
     </g>
     <path class="fil25" d="M343 709c30,-4 60,41 67,100 7,59 -12,109 -42,113 -30,4 -60,-41 -67,-100 -7,-59 11,-110 42,-113z"/>
     <g style="clip-path:url(#id14)">
      <g>
       <path id="1" class="fil22 str0" d="M274 815c0,0 43,30 71,0 0,0 19,20 29,2 0,0 27,40 37,3 0,0 18,33 -1,73 -19,40 -83,55 -95,34 -12,-22 -54,-63 -41,-112z"/>
      </g>
     </g>
     <path class="fil0" d="M343 709c30,-4 60,41 67,100 7,59 -12,109 -42,113 -30,4 -60,-41 -67,-100 -7,-59 11,-110 42,-113z"/>
     <path class="fil23" d="M322 728c23,-3 46,35 52,84 5,49 -8,90 -31,93 -22,3 -45,-35 -51,-84 -6,-49 8,-91 30,-93z"/>
     <g style="clip-path:url(#id15)">
      <g>
       <path id="1" class="fil22 str0" d="M274 815c0,0 43,30 71,0 0,0 19,20 29,2 0,0 27,40 37,3 0,0 18,33 -1,73 -19,40 -83,55 -95,34 -12,-22 -54,-63 -41,-112z"/>
      </g>
     </g>
     <path class="fil0" d="M322 728c23,-3 46,35 52,84 5,49 -8,90 -31,93 -22,3 -45,-35 -51,-84 -6,-49 8,-91 30,-93z"/>
     <path class="fil21" d="M307 767c17,-2 34,20 38,48 3,28 -8,53 -26,55 -18,2 -35,-19 -38,-47 -4,-29 8,-54 26,-56z"/>
     <g style="clip-path:url(#id16)">
      <g>
       <path id="1" class="fil22 str0" d="M275 814c0,0 42,29 70,-1 0,0 19,21 29,2 0,0 27,40 37,4 0,0 18,33 -1,72 -19,40 -83,56 -95,34 -12,-22 -54,-63 -40,-111z"/>
      </g>
     </g>
     <path class="fil0" d="M307 767c17,-2 34,20 38,48 3,28 -8,53 -26,55 -18,2 -35,-19 -38,-47 -4,-29 8,-54 26,-56z"/>
    </g>
   </g>
   <rect class="fil0" width="1500" height="1500"/>
  </g>
 </g>
</svg>
