<?xml version="1.0" encoding="UTF-8"?>
<!DOCTYPE svg PUBLIC "-//W3C//DTD SVG 1.1//EN" "http://www.w3.org/Graphics/SVG/1.1/DTD/svg11.dtd">
<!-- Creator: CorelDRAW X7 -->
<svg xmlns="http://www.w3.org/2000/svg" xml:space="preserve" width="100px" height="100px" version="1.1" style="shape-rendering:geometricPrecision; text-rendering:geometricPrecision; image-rendering:optimizeQuality; fill-rule:evenodd; clip-rule:evenodd"
viewBox="0 0 100 100"
 xmlns:xlink="http://www.w3.org/1999/xlink">
 <defs>
  <style type="text/css">
   <![CDATA[
    .fil0 {fill:none}
    .fil4 {fill:#FEFEFE}
    .fil6 {fill:#FF8C8C}
    .fil5 {fill:#DCDDDD;fill-rule:nonzero}
    .fil1 {fill:#8B8B8C;fill-rule:nonzero}
    .fil3 {fill:#5F5D5D;fill-rule:nonzero}
    .fil7 {fill:#EA6168;fill-rule:nonzero}
    .fil2 {fill:#E62129;fill-rule:nonzero}
   ]]>
  </style>
 </defs>
 <g id="Layer_x0020_1">
  <metadata id="CorelCorpID_0Corel-Layer"/>
  <g id="_723282208">
   <rect class="fil0" width="100" height="100"/>
   <g>
    <path class="fil1" d="M23 66c-1,0 -1,0 -1,-1 0,0 0,0 1,0l0 0c1,0 1,0 1,0 0,1 0,1 -1,1l0 0z"/>
    <path class="fil1" d="M38 70c0,0 0,0 0,0 0,-1 0,-1 0,-1l1 0c1,0 1,0 1,1 0,0 0,0 -1,0l-1 0z"/>
    <path class="fil2" d="M43 63c1,0 2,1 3,2 1,1 1,3 1,5 0,2 0,4 -1,5 -1,1 -2,2 -3,2 -1,0 -2,-1 -3,-2 -1,-1 -1,-3 -1,-5 0,-2 0,-4 1,-5 1,-1 2,-2 3,-2zm2 3c0,-1 -1,-2 -2,-2 -1,0 -2,1 -2,2 -1,1 -1,2 -1,4 0,2 0,3 1,4 0,2 1,2 2,2 1,0 2,0 2,-2 1,-1 2,-2 2,-4 0,-2 -1,-3 -2,-4z"/>
    <path class="fil3" d="M43 66c0,0 1,1 1,1 0,1 1,2 1,3 0,1 -1,2 -1,3 0,0 -1,1 -1,1 -1,0 -1,-1 -2,-1 0,-1 0,-2 0,-3 0,-1 0,-2 0,-2 1,-1 1,-2 2,-2zm0 2c0,-1 0,-1 0,-1 0,0 -1,0 -1,1 0,0 0,1 0,2 0,1 0,2 0,2 0,1 1,1 1,1 0,0 0,0 0,-1 1,0 1,-1 1,-2 0,-1 0,-2 -1,-2z"/>
    <polygon class="fil4" points="35,38 31,40 31,55 35,55 "/>
    <path class="fil5" d="M35 39l-4 1 0 14 4 1 0 -16zm-4 0l4 -1c0,0 0,0 0,0 1,0 1,0 1,0l0 17 0 0 0 0c0,0 -1,0 -1,0l-4 0c-1,0 -1,0 -1,0l0 -15 0 0c0,0 0,0 1,-1z"/>
    <polygon class="fil4" points="35,38 38,39 38,55 35,55 "/>
    <g>
     <path class="fil5" d="M36 38l2 1c0,0 0,0 0,0l0 0 0 16c0,0 0,1 0,1l0 0 -3 -1c0,0 0,0 0,0l0 0 0 -17c0,0 0,0 0,0 0,0 0,0 1,0zm1 1l-1 0 0 16 1 0 0 -16zm1 17l0 0 0 0z"/>
    </g>
    <path class="fil4" d="M35 40l-1 0 0 1 1 0 0 -1zm-2 0l0 0 0 2 0 -1 0 -1zm-1 1l-1 0 0 1 1 0 0 -1z"/>
    <path class="fil5" d="M34 40l0 0 0 1 0 0 0 -1zm0 0l1 -1c0,0 0,0 0,0 0,0 0,1 0,1l0 1 0 0c0,0 0,0 0,0l-1 0c0,1 0,1 0,1 0,0 0,-1 0,-1 0,1 0,1 0,1l-1 0c0,0 0,0 0,0 0,0 -1,0 -1,0 0,0 0,0 0,0l-1 0c0,0 0,0 0,0 0,0 0,0 0,0l0 -1 0 0c0,0 0,-1 0,-1l1 0c0,0 0,0 0,0 0,0 0,0 0,0 0,0 0,0 0,0l1 0c0,0 0,0 0,0 0,0 1,0 1,0 0,0 0,0 0,0zm-1 1l0 0 0 0 0 0 0 0zm-1 0l0 0 0 0 0 0 0 0z"/>
    <path class="fil4" d="M35 42l-1 0 0 2 1 -1 0 -1zm-2 1l0 0 0 1 0 0 0 -1zm-1 0l-1 0 0 1 1 0 0 -1z"/>
    <path class="fil5" d="M34 43l0 0 0 0 0 0 0 0zm0 -1l1 0c0,0 0,0 0,0 0,0 0,0 0,0l0 1 0 0c0,1 0,1 0,1l-1 0c0,0 0,0 0,0 0,0 0,0 0,0 0,0 0,0 -1,0l0 0c0,0 0,0 0,0 0,0 -1,0 -1,0 0,0 0,0 0,0l-1 1c0,0 0,0 0,0 0,0 0,-1 0,-1l0 -1 0 0c0,0 0,0 0,0l1 0c0,0 0,0 0,0 0,0 0,0 0,0 0,0 0,-1 1,-1l0 0c0,0 0,0 0,0 0,0 1,0 1,0 0,0 0,0 0,0zm-1 1l0 0 0 0 0 0 0 0zm-1 0l0 0 0 1 0 0 0 -1z"/>
    <path class="fil4" d="M35 45l-1 0 0 1 1 0 0 -1zm-2 0l0 0 0 1 0 0 0 -1zm-1 0l-1 0 0 2 1 -1 0 -1z"/>
    <g>
     <path class="fil5" d="M34 45l0 0 0 1 0 0 0 -1zm0 0l1 -1 -1 1zm0 0c0,0 0,0 0,0l0 0zm0 1c0,0 0,0 0,0 0,0 0,0 0,0 0,0 0,1 -1,1l0 0c0,0 0,0 0,0 0,0 -1,0 -1,0 0,0 0,0 0,0l-1 0c0,0 0,0 0,0 0,0 0,0 0,0l0 -2 0 0c0,0 0,0 0,0l1 0 2 1zm1 0l-1 0 1 0zm0 0c0,0 0,0 0,0l0 0zm0 -1l0 1 0 0 0 -1zm0 -1c0,0 0,1 0,1l0 -1zm-2 1l0 0 0 1 0 0 0 -1zm0 0l0 0 0 0zm-1 0c0,0 0,0 1,0l-1 0zm1 0c0,0 1,0 1,0l-1 0zm-1 1l0 0 0 0 0 0 0 0zm0 -1c0,0 0,0 0,0l0 0z"/>
    </g>
    <path class="fil4" d="M35 47l-1 1 0 1 1 0 0 -2zm-2 1l0 0 0 1 0 0 0 -1zm-1 0l-1 0 0 1 1 0 0 -1z"/>
    <path class="fil5" d="M34 48l0 0 0 0 0 0 0 0zm0 -1l1 0c0,0 0,0 0,0 0,0 0,0 0,0l0 2 0 0c0,0 0,0 0,0l-1 0c0,0 0,0 0,0 0,0 0,0 0,0 0,0 0,0 -1,0l0 0c0,0 0,0 0,0 0,0 -1,0 -1,0 0,0 0,0 0,0l-1 0c0,0 0,0 0,0 0,0 0,0 0,0l0 -1 0 0c0,0 0,0 0,0l1 -1c0,0 0,0 0,0 0,0 0,0 0,0 0,0 0,0 1,0l0 0c0,0 0,0 0,0 0,0 1,0 1,0 0,0 0,0 0,0zm-1 1l0 0 0 0 0 0 0 0zm-1 0l0 0 0 1 0 0 0 -1z"/>
    <path class="fil4" d="M35 50l-1 0 0 1 1 0 0 -1zm-2 0l0 0 0 1 0 0 0 -1zm-1 0l-1 0 0 1 1 0 0 -1z"/>
    <g>
     <path class="fil5" d="M34 50l0 0 0 1 0 0 0 -1zm0 0l1 0 0 0c0,0 0,0 0,0l0 1 0 0c0,0 0,1 0,1l-1 0 0 0c0,0 0,0 0,0 0,0 0,0 -1,0l0 0 0 0c0,0 -1,0 -1,0 0,0 0,0 0,0l-1 0 0 0c0,0 0,0 0,-1l0 -1 0 0c0,0 0,0 0,0l1 0 0 0c0,0 0,0 0,0 0,0 0,0 1,0l0 0 0 0c0,0 1,0 1,0 0,0 0,0 0,0zm1 0l0 0 0 0zm-2 0l0 0 0 1 0 0 0 -1zm0 0l0 0 0 0zm-1 1l0 0 0 0 0 0 0 0zm0 -1l0 0 0 0z"/>
    </g>
    <polygon class="fil4" points="36,40 37,40 37,42 36,41 "/>
    <path class="fil5" d="M36 40l1 0c0,0 0,0 0,0l0 0 0 2c0,0 0,0 0,0 0,0 0,0 0,0l-1 0c0,0 0,-1 0,-1l0 0 0 -1c0,0 0,0 0,0 0,0 0,0 0,0zm0 1l0 0 0 0 0 0 0 0z"/>
    <polygon class="fil4" points="36,43 37,43 37,44 36,44 "/>
    <g>
     <path class="fil5" d="M36 42l1 0c0,0 0,1 0,1l0 0 0 1c0,0 0,0 0,0 0,0 0,0 0,0l-1 0c0,0 0,0 0,0l0 0 0 -1c0,-1 0,-1 0,-1 0,0 0,0 0,0zm0 1l0 0 0 0 0 0 0 0zm0 -1c0,0 0,0 0,1l0 -1z"/>
    </g>
    <polygon class="fil4" points="36,45 37,45 37,46 36,46 "/>
    <path class="fil5" d="M36 45l1 0c0,0 0,0 0,0l0 0 0 1c0,1 0,1 0,1 0,0 0,0 0,0l-1 0c0,0 0,-1 0,-1l0 0 0 -1c0,0 0,0 0,0 0,0 0,0 0,0zm0 0l0 0 0 1 0 0 0 -1z"/>
    <polygon class="fil4" points="36,48 37,48 37,49 36,49 "/>
    <g>
     <path class="fil5" d="M36 47l1 0c0,0 0,1 0,1l0 0 0 1c0,0 0,0 0,0 0,0 0,0 0,0l-1 0c0,0 0,0 0,0l0 0 0 -1c0,-1 0,-1 0,-1 0,0 0,0 0,0zm0 1l0 0 0 0 0 0 0 0zm1 1c0,0 -1,0 -1,0l1 0z"/>
    </g>
    <polygon class="fil4" points="36,50 37,50 37,51 36,51 "/>
    <g>
     <path class="fil5" d="M36 50l0 0 0 0c0,0 0,0 0,0l0 1 0 0c0,1 0,1 0,1l1 0 0 0c0,0 0,0 0,-1l0 -1 0 0c0,0 0,0 0,0l-1 0 0 0zm0 0l0 0 0 1 0 0 0 -1z"/>
    </g>
    <polygon class="fil4" points="41,34 35,36 35,55 41,56 "/>
    <path class="fil5" d="M41 34l-5 2 0 19 5 0 0 -21zm-6 2l6 -3c0,0 0,0 0,0 0,0 1,0 1,1l0 22 0 0 0 0c0,0 -1,0 -1,0l-6 -1c0,0 0,0 0,0l0 -19 0 0c0,0 0,0 0,0z"/>
    <polygon class="fil4" points="41,34 44,35 44,56 41,56 "/>
    <g>
     <path class="fil5" d="M41 33l3 2c0,0 0,0 0,0l0 0 0 21c0,0 0,0 0,0l0 0 -3 0c0,0 0,0 0,0l0 0 0 -22c0,-1 0,-1 0,-1 0,0 0,0 0,0zm3 2l-2 -1 0 21 2 0 0 -20zm0 21l0 0 0 0z"/>
    </g>
    <path class="fil4" d="M40 36l-1 0 0 2 1 -1 0 -1zm-1 0l-1 1 0 1 1 0 0 -2zm-2 1l-1 0 0 2 1 -1 0 -1z"/>
    <path class="fil5" d="M40 36l0 0 0 1 0 0 0 -1zm-1 0l1 0c0,-1 0,-1 0,-1 1,0 1,1 1,1l0 1 0 0c0,1 0,1 0,1l-1 0c0,0 0,0 -1,0 0,0 0,0 0,0 0,0 0,0 0,0l-1 1c0,0 0,0 0,0 0,0 0,-1 -1,-1 0,1 0,1 0,1l-1 0c0,0 0,0 0,0 0,0 0,0 0,0l0 -2 0 0c0,0 0,0 0,0l1 0c0,0 0,0 0,0 0,0 0,0 0,0 0,0 0,-1 1,-1l1 0c0,0 0,0 0,0 0,0 0,0 0,0 0,0 0,0 0,0zm-1 1l0 0 0 1 0 0 0 -1zm-1 0l-1 1 0 0 1 0 0 -1z"/>
    <path class="fil4" d="M40 39l-1 0 0 2 1 0 0 -2zm-1 1l-1 0 0 1 1 0 0 -1zm-2 0l-1 0 0 2 1 -1 0 -1z"/>
    <path class="fil5" d="M40 40l0 0 0 0 0 0 0 0zm-1 -1l1 0c0,0 0,0 0,0 1,0 1,0 1,0l0 2 0 0c0,0 0,0 0,0l-1 0c0,0 0,0 -1,0 0,0 0,0 0,0 0,0 0,0 0,0l-1 1c0,0 0,0 0,0 0,0 0,0 -1,0 0,0 0,0 0,0l-1 0c0,0 0,0 0,0 0,0 0,0 0,0l0 -2 0 0c0,0 0,0 0,0l1 0c0,0 0,0 0,0 0,0 0,0 0,0 0,0 1,-1 1,-1l1 0c0,0 0,0 0,0 0,0 0,0 0,0 0,0 0,0 0,0zm-1 1l0 0 0 1 0 0 0 -1zm-1 0l-1 1 0 0 1 0 0 -1z"/>
    <path class="fil4" d="M40 42l-1 1 0 1 1 0 0 -2zm-1 1l-1 0 0 1 1 0 0 -1zm-2 0l-1 0 0 2 1 -1 0 -1z"/>
    <g>
     <path class="fil5" d="M40 43l0 0 0 1 0 0 0 -1zm-1 -1l1 0 -1 0zm0 0c0,0 0,0 0,0l0 0zm1 2c0,0 0,0 -1,0 0,0 0,0 0,0 0,0 0,1 0,1l-1 0c0,0 0,0 0,0 0,0 0,0 -1,0 0,0 0,0 0,0l-1 0c0,0 0,0 0,0 0,0 0,0 0,0l0 -2 0 0c0,0 0,0 0,0l1 0 3 1zm1 0l-1 0 1 0zm0 0c0,0 0,0 0,0l0 0zm0 -2l0 2 0 0 0 -2zm-1 0c1,0 1,0 1,0l-1 0zm-2 1l0 0 0 1 0 0 0 -1zm0 -1l1 0 -1 0zm-1 1c0,0 1,0 1,-1l-1 1zm2 -1c0,0 0,0 0,0l0 0zm-2 1l-1 1 0 0 1 0 0 -1zm0 0c0,0 0,0 0,0l0 0z"/>
    </g>
    <path class="fil4" d="M40 46l-1 0 0 1 1 0 0 -1zm-1 0l-1 0 0 2 1 -1 0 -1zm-2 0l-1 0 0 2 1 0 0 -2z"/>
    <path class="fil5" d="M40 46l0 0 0 1 0 0 0 -1zm-1 0l1 -1c0,0 0,0 0,0 1,0 1,1 1,1l0 1 0 0c0,0 0,1 0,1l-1 0c0,0 -1,0 -1,0 0,0 0,0 0,0 0,0 0,0 0,0l-1 0c0,0 0,0 0,0 0,0 0,0 -1,0 0,0 0,0 0,0l-1 0c0,0 0,0 0,0 0,0 0,0 0,0l0 -2 0 0c0,0 0,0 0,0l1 0c0,0 0,0 0,0 0,0 0,0 0,0 0,0 1,0 1,0l1 0c0,0 0,0 0,0 0,0 0,0 0,0 0,0 0,0 0,0zm-1 0l0 0 0 1 0 0 0 -1zm-1 1l-1 0 0 0 1 0 0 0z"/>
    <path class="fil4" d="M40 49l-1 0 0 2 1 0 0 -2zm-1 0l-1 0 0 2 1 0 0 -2zm-2 0l-1 0 0 2 1 0 0 -2z"/>
    <g>
     <path class="fil5" d="M40 49l0 0 0 1 0 0 0 -1zm-1 0l1 0 0 0c1,0 1,0 1,0l0 2 0 0c0,0 0,0 0,0l-1 0 -1 0c0,0 0,0 0,0 0,0 0,0 0,0l-1 0 0 0c0,0 -1,0 -1,0 0,0 0,0 0,0l-1 0 0 0c0,0 0,0 0,0l0 -2 0 0c0,0 0,0 0,0l1 0 0 0c0,0 0,0 0,0 0,0 1,0 1,0l1 0 0 0c0,0 0,0 0,0 0,0 0,0 0,0zm1 0l0 0 0 0zm-2 1l0 0 0 0 0 0 0 0zm1 -1l0 0 0 0zm-2 1l-1 0 0 0 1 0 0 0zm0 -1l0 0 0 0z"/>
    </g>
    <polygon class="fil4" points="42,36 43,37 43,38 42,38 "/>
    <path class="fil5" d="M42 36l1 0c0,0 1,1 1,1l0 0 0 1c0,0 -1,1 -1,1 0,0 0,0 0,0l-1 -1c0,0 0,0 0,0l0 0 0 -2c0,0 0,0 0,0 0,0 0,0 0,0zm1 1l0 0 0 1 0 0 0 -1z"/>
    <polygon class="fil4" points="42,40 43,40 43,41 42,41 "/>
    <g>
     <path class="fil5" d="M42 39l1 0c0,0 1,1 1,1l0 0 0 1c0,1 -1,1 -1,1 0,0 0,0 0,0l-1 -1c0,0 0,0 0,0l0 0 0 -1c0,-1 0,-1 0,-1 0,0 0,0 0,0zm1 1l0 0 0 1 0 0 0 -1zm-1 -1c0,0 1,0 1,1l-1 -1z"/>
    </g>
    <polygon class="fil4" points="42,43 43,43 43,44 42,44 "/>
    <path class="fil5" d="M42 42l1 0c0,1 1,1 1,1l0 0 0 1c0,1 -1,1 -1,1 0,0 0,0 0,0l-1 0c0,0 0,-1 0,-1l0 0 0 -1c0,-1 0,-1 0,-1 0,0 0,0 0,0zm1 1l0 0 0 1 0 0 0 -1z"/>
    <polygon class="fil4" points="42,46 43,46 43,48 42,47 "/>
    <path class="fil5" d="M42 46l1 0c0,0 1,0 1,0l0 0 0 2c0,0 -1,0 -1,0 0,0 0,0 0,0l-1 0c0,0 0,0 0,-1l0 0 0 -1c0,0 0,0 0,0 0,0 0,0 0,0zm1 0l0 0 0 1 0 0 0 -1z"/>
    <polygon class="fil4" points="42,49 43,49 43,51 42,51 "/>
    <g>
     <path class="fil5" d="M42 49l0 0 0 0c0,0 0,0 0,0l0 2 0 0c0,0 0,0 0,0l1 0 0 0c0,0 1,0 1,0l0 -2 0 0c0,0 -1,0 -1,0l-1 0 0 0zm1 1l0 0 0 0 0 0 0 0z"/>
    </g>
    <polygon class="fil4" points="49,35 43,37 43,56 49,56 "/>
    <path class="fil5" d="M49 35l-5 2 0 18 5 1 0 -21zm-6 2l6 -2c0,0 0,0 0,0 0,0 0,0 0,0l0 21 0 0 0 0c0,0 0,1 0,1l-6 -1c0,0 0,0 0,0l0 -19 0 0c0,0 0,0 0,0z"/>
    <polygon class="fil4" points="49,35 52,36 52,56 49,56 "/>
    <g>
     <path class="fil5" d="M49 35l3 1c0,0 0,0 0,0l0 0 0 20c0,1 0,1 0,1l0 0 -3 0c0,0 0,-1 0,-1l0 0 0 -21c0,0 0,0 0,0 0,0 0,0 0,0zm2 2l-2 -1 0 20 2 0 0 -19zm1 20l0 0 0 0z"/>
    </g>
    <path class="fil4" d="M48 37l-1 0 0 2 1 0 0 -2zm-1 1l-1 0 0 1 1 0 0 -1zm-2 0l-1 0 0 2 1 0 0 -2z"/>
    <path class="fil5" d="M48 38l0 0 0 0 0 0 0 0zm-1 -1l1 0c0,0 0,0 0,0 1,0 1,0 1,0l0 2 0 0c0,0 0,0 -1,0l-1 0c0,0 0,0 0,0 0,0 0,0 0,0 0,0 0,0 0,0l-1 1c0,0 0,0 0,0 0,0 -1,0 -1,0 0,0 0,0 0,0l-1 0c0,0 0,0 0,0 0,0 0,0 0,0l0 -2 0 0c0,0 0,0 0,0l1 0c0,0 0,0 0,0 0,0 0,0 0,0 0,0 0,0 1,0l1 -1c0,0 0,0 0,0 0,0 0,0 0,0 0,0 0,0 0,0zm-1 1l0 0 0 1 0 0 0 -1zm-1 1l-1 0 0 0 1 0 0 0z"/>
    <path class="fil4" d="M48 40l-1 1 0 1 1 0 0 -2zm-1 1l-1 0 0 1 1 0 0 -1zm-2 0l-1 0 0 2 1 0 0 -2z"/>
    <path class="fil5" d="M48 41l0 0 0 1 0 0 0 -1zm-1 -1l1 0c0,0 0,0 0,0 1,0 1,0 1,0l0 2 0 0c0,0 0,0 -1,0l-1 0c0,0 0,0 0,0 0,0 0,0 0,0 0,0 0,1 0,1l-1 0c0,0 0,0 0,0 0,0 -1,0 -1,0 0,0 0,0 0,0l-1 0c0,0 0,0 0,0 0,0 0,0 0,0l0 -2 0 0c0,0 0,0 0,0l1 0c0,0 0,0 0,0 0,0 0,0 0,0 0,0 0,0 1,0l1 -1c0,0 0,0 0,0 0,0 0,0 0,0 0,0 0,0 0,0zm-1 1l0 0 0 1 0 0 0 -1zm-1 1l-1 0 0 0 1 0 0 0z"/>
    <path class="fil4" d="M48 43l-1 1 0 1 1 0 0 -2zm-1 1l-1 0 0 1 1 0 0 -1zm-2 0l-1 0 0 2 1 -1 0 -1z"/>
    <g>
     <path class="fil5" d="M48 44l0 0 0 1 0 0 0 -1zm-1 -1l1 0 -1 0zm0 0c0,0 0,0 0,0l0 0zm0 2c0,0 0,0 0,0 0,0 0,0 0,0 0,0 0,1 0,1l-1 0c0,0 0,0 0,0 0,0 -1,0 -1,0 0,0 0,0 0,0l-1 0c0,0 0,0 0,0 0,0 0,0 0,0l0 -2 0 0c0,0 0,0 0,0l1 0 2 1zm1 0l-1 0 1 0zm1 0c0,0 0,0 -1,0l1 0zm0 -2l0 2 0 0 0 -2zm-1 0c1,0 1,0 1,0l-1 0zm-2 1l0 0 0 1 0 0 0 -1zm0 0l1 -1 -1 1zm-1 0c0,0 0,0 1,0l-1 0zm2 -1c0,0 0,0 0,0l0 0zm-2 1l-1 1 0 0 1 0 0 -1zm0 0c0,0 0,0 0,0l0 0z"/>
    </g>
    <path class="fil4" d="M48 47l-1 0 0 1 1 0 0 -1zm-1 0l-1 0 0 1 1 0 0 -1zm-2 0l-1 0 0 2 1 -1 0 -1z"/>
    <path class="fil5" d="M48 47l0 0 0 1 0 0 0 -1zm-1 -1l1 0c0,0 0,0 0,0 1,0 1,0 1,1l0 1 0 0c0,0 0,0 -1,1l-1 0c0,0 0,0 0,0 0,0 0,0 0,-1 0,1 0,1 0,1l-1 0c0,0 0,0 0,0 0,0 -1,0 -1,0 0,0 0,0 0,0l-1 0c0,0 0,0 0,0 0,0 0,0 0,0l0 -2 0 0c0,0 0,0 0,0l1 0c0,0 0,0 0,0 0,0 0,0 0,0 0,0 1,0 1,0l1 0c0,0 0,0 0,0 0,0 0,0 0,0 0,0 0,-1 0,-1zm-1 1l0 0 0 1 0 0 0 -1zm-1 1l-1 0 0 0 1 0 0 0z"/>
    <path class="fil4" d="M48 50l-1 0 0 1 1 0 0 -1zm-1 0l-1 0 0 2 1 0 0 -2zm-2 0l-1 0 0 2 1 0 0 -2z"/>
    <g>
     <path class="fil5" d="M48 50l0 0 0 1 0 0 0 -1zm-1 0l1 -1 0 0c1,0 1,1 1,1l0 1 0 0c0,1 0,1 -1,1l-1 0 0 0c0,0 0,0 0,0 0,0 0,0 0,0l-1 0 0 0c0,0 -1,0 -1,0 0,0 0,0 0,0l-1 0 0 0c0,0 0,0 0,0l0 -2 0 0c0,0 0,0 0,0l1 0 0 0c0,0 0,0 0,0 0,0 1,0 1,0l1 0 0 0c0,0 0,0 0,0 0,0 0,0 0,0zm1 -1l0 0 0 0zm-2 1l0 0 0 1 0 0 0 -1zm1 0l0 0 0 0zm-2 0l-1 1 0 0 1 0 0 -1zm0 0l0 0 0 0z"/>
    </g>
    <polygon class="fil4" points="50,38 51,38 51,39 50,39 "/>
    <path class="fil5" d="M50 37l1 1c0,0 0,0 0,0l0 0 0 1c0,1 0,1 0,1 0,0 0,0 0,0l-1 -1c0,0 0,0 0,0l0 0 0 -1c0,-1 0,-1 0,-1 0,0 0,0 0,0zm1 1l-1 0 0 1 1 0 0 -1z"/>
    <polygon class="fil4" points="50,41 51,41 51,42 50,42 "/>
    <g>
     <path class="fil5" d="M50 40l1 1c0,0 0,0 0,0l0 0 0 1c0,1 0,1 0,1 0,0 0,0 0,0l-1 0c0,0 0,-1 0,-1l0 0 0 -1c0,-1 0,-1 0,-1 0,0 0,0 0,0zm1 1l-1 0 0 1 1 0 0 -1zm-1 -1c0,0 0,1 0,1l0 -1z"/>
    </g>
    <polygon class="fil4" points="50,44 51,44 51,45 50,45 "/>
    <path class="fil5" d="M50 43l1 1c0,0 0,0 0,0l0 0 0 1c0,1 0,1 0,1 0,0 0,0 0,0l-1 0c0,0 0,-1 0,-1l0 0 0 -1c0,-1 0,-1 0,-1 0,0 0,0 0,0zm1 1l-1 0 0 1 1 0 0 -1z"/>
    <polygon class="fil4" points="50,47 51,47 51,48 50,48 "/>
    <path class="fil5" d="M50 47l1 0c0,0 0,0 0,0l0 0 0 1c0,1 0,1 0,1 0,0 0,0 0,0l-1 0c0,0 0,-1 0,-1l0 0 0 -1c0,0 0,0 0,0 0,0 0,0 0,0zm1 0l-1 0 0 1 1 0 0 -1z"/>
    <polygon class="fil4" points="50,50 51,50 51,52 50,52 "/>
    <g>
     <path class="fil5" d="M50 50l0 0 0 0c0,0 0,0 0,0l0 2 0 0c0,0 0,0 0,0l1 0 0 0c0,0 0,0 0,0l0 -2 0 0c0,0 0,0 0,0l-1 0 0 0zm1 0l-1 0 0 1 1 0 0 -1z"/>
    </g>
    <polygon class="fil4" points="58,28 50,31 50,56 58,57 "/>
    <path class="fil5" d="M57 29l-7 2 0 25 7 1 0 -28zm-7 2l8 -3c0,0 0,0 0,0 0,0 0,0 0,0l0 29 0 0 0 0c0,0 0,0 0,0l-8 0c0,0 0,0 0,-1l0 -25 0 0c0,0 0,0 0,0z"/>
    <polygon class="fil4" points="58,28 62,30 62,57 58,57 "/>
    <g>
     <path class="fil5" d="M58 28l4 2c0,0 0,0 0,0l0 0 0 27c0,0 0,1 0,1l0 0 -4 -1c0,0 -1,0 -1,0l0 0 0 -29c0,0 1,0 1,0 0,0 0,0 0,0zm3 2l-3 -1 0 28 3 0 0 -27zm1 28l0 0 0 0z"/>
    </g>
    <path class="fil4" d="M57 31l-2 0 0 2 2 0 0 -2zm-2 1l-2 0 0 2 2 0 0 -2zm-3 0l-1 1 0 2 1 -1 0 -2z"/>
    <path class="fil5" d="M56 31l0 1 0 1 0 0 0 -2zm-1 0l2 0c0,0 0,0 0,0 0,0 0,0 0,0l0 2 0 0c0,0 0,0 0,0l-1 1c0,0 0,0 -1,0 0,0 0,0 0,-1l0 -2 0 0c0,0 0,0 0,0zm-1 1l0 0 0 1 0 0 0 -1zm-1 0l1 -1c0,0 1,0 1,0 0,0 0,0 0,1l0 2 0 0c0,0 0,0 0,0l-2 0c0,0 0,0 0,0 0,0 0,0 0,0l0 -2 0 0c0,0 0,0 0,0zm-1 1l-1 0 0 1 1 0 0 -1zm-1 -1l1 0c0,0 0,0 0,0 1,0 1,0 1,0l0 2 0 0c0,0 0,1 -1,1l-1 0c0,0 0,0 0,0 0,0 0,0 0,0l0 -2 0 0c0,0 0,-1 0,-1z"/>
    <path class="fil4" d="M57 35l-2 1 0 2 2 -1 0 -2zm-2 1l-2 0 0 2 2 0 0 -2zm-3 0l-1 1 0 2 1 -1 0 -2z"/>
    <path class="fil5" d="M56 36l0 0 0 1 0 0 0 -1zm-1 -1l2 0c0,0 0,0 0,0 0,0 0,0 0,0l0 2 0 0c0,0 0,1 0,1l-1 0c0,0 0,0 -1,0 0,0 0,0 0,0l0 -2 0 0c0,-1 0,-1 0,-1zm-1 1l0 0 0 2 0 0 0 -2zm-1 0l1 -1c1,0 1,0 1,0 0,0 0,1 0,1l0 2 0 0c0,0 0,0 0,0l-2 0c0,0 0,0 0,0 0,0 0,0 0,0l0 -2 0 0c0,0 0,0 0,0zm-1 1l-1 0 0 1 1 0 0 -1zm-1 -1l1 0c0,0 0,0 0,0 1,0 1,0 1,0l0 2 0 0c0,0 0,1 -1,1l-1 0c0,0 0,0 0,0 0,0 0,0 0,0l0 -2 0 0c0,0 0,-1 0,-1z"/>
    <path class="fil4" d="M57 39l-2 1 0 2 2 0 0 -3zm-2 1l-2 0 0 2 2 0 0 -2zm-3 0l-1 1 0 1 1 0 0 -2z"/>
    <g>
     <path class="fil5" d="M56 40l0 0 0 1 0 0 0 -1zm-1 -1l2 0 -2 0zm0 1c0,0 0,-1 0,-1l0 1zm0 2l0 -2 0 0 0 2zm1 0c0,0 0,0 -1,0 0,0 0,0 0,0l1 0zm1 0l-1 0 1 0zm0 0c0,0 0,0 0,0l0 0zm0 -3l0 3 0 0 0 -3zm0 0c0,0 0,0 0,0l0 0zm-3 1l0 0 0 2 0 0 0 -2zm-1 0l1 0 -1 0zm0 0c0,0 0,0 0,0l0 0zm0 2l0 -2 0 0 0 2zm0 0c0,0 0,0 0,0 0,0 0,0 0,0l0 0zm2 0l-2 0 2 0zm0 0c0,0 0,0 0,0l0 0zm0 -2l0 2 0 0 0 -2zm0 -1c0,0 0,1 0,1l0 -1zm-3 2l-1 0 0 1 1 0 0 -1zm-1 -1l1 0 -1 0zm0 1c0,-1 0,-1 0,-1l0 1zm0 1l0 -1 0 0 0 1zm0 1c0,0 0,0 0,0 0,0 0,0 0,-1l0 1zm1 0l-1 0 1 0zm1 -1c0,0 0,1 -1,1l1 -1zm0 -2l0 2 0 0 0 -2zm-1 0c1,0 1,0 1,0l-1 0z"/>
    </g>
    <path class="fil4" d="M57 44l-2 0 0 2 2 0 0 -2zm-2 0l-2 0 0 2 2 0 0 -2zm-3 1l-1 0 0 2 1 -1 0 -1z"/>
    <path class="fil5" d="M56 44l0 0 0 2 0 0 0 -2zm-1 0l2 0c0,0 0,0 0,0 0,0 0,0 0,0l0 2 0 0c0,0 0,0 0,0l-1 0c0,0 0,0 -1,0 0,0 0,0 0,0l0 -2 0 0c0,0 0,0 0,0zm-1 1l0 0 0 1 0 0 0 -1zm-1 -1l1 0c1,0 1,0 1,0 0,0 0,0 0,0l0 2 0 0c0,0 0,1 0,1l-2 0c0,0 0,0 0,0 0,0 0,0 0,-1l0 -2 0 0c0,0 0,0 0,0zm-1 1l-1 0 0 1 1 0 0 -1zm-1 -1l1 0c0,0 0,0 0,0 1,0 1,0 1,1l0 1 0 0c0,1 0,1 -1,1l-1 0c0,0 0,0 0,0 0,0 0,0 0,0l0 -2 0 0c0,0 0,-1 0,-1z"/>
    <path class="fil4" d="M57 48l-2 0 0 2 2 0 0 -2zm-2 0l-2 1 0 2 2 0 0 -3zm-3 1l-1 0 0 2 1 0 0 -2z"/>
    <g>
     <path class="fil5" d="M56 49l0 0 0 1 0 0 0 -1zm-1 -1l2 0 0 0c0,0 0,0 0,0l0 2 0 0c0,1 0,1 0,1l-1 0 -1 0c0,0 0,0 0,-1l0 -2 0 0c0,0 0,0 0,0zm2 0l0 0 0 0zm-3 1l0 0 0 1 0 0 0 -1zm-1 -1l2 0 0 0c0,0 0,0 0,0l0 3 0 0c0,0 0,0 0,0l-2 0 0 0c0,0 0,0 0,0l0 -2 0 0c0,-1 0,-1 0,-1zm2 0l0 0 0 0zm-3 1l-1 0 0 1 1 0 0 -1zm-1 -1l1 0 0 0c1,0 1,0 1,1l0 2 0 0c0,0 0,0 -1,0l-1 0 0 0c0,0 0,0 0,0l0 -2 0 0c0,-1 0,-1 0,-1zm1 0l0 0 0 0z"/>
    </g>
    <polygon class="fil4" points="59,32 60,32 60,34 59,34 "/>
    <path class="fil5" d="M59 31l2 1c0,0 0,0 0,0l0 0 0 2c0,0 0,0 -1,0 0,0 0,0 0,0l-1 0c0,0 0,0 0,0l0 0 0 -2c0,-1 0,-1 0,-1 0,0 0,0 0,0zm1 1l-1 0 0 1 1 0 0 -1z"/>
    <polygon class="fil4" points="59,36 60,36 60,38 59,38 "/>
    <g>
     <path class="fil5" d="M59 35l2 1c0,0 0,0 0,0l0 0 0 2c0,0 0,0 -1,0 0,0 0,0 0,0l-1 0c0,0 0,0 0,0l0 0 0 -2c0,0 0,-1 0,-1 0,0 0,0 0,0zm1 1l-1 0 0 2 1 0 0 -2zm-1 -1c0,0 0,1 0,1l0 -1z"/>
    </g>
    <polygon class="fil4" points="59,40 60,40 60,42 59,42 "/>
    <path class="fil5" d="M59 40l1 0c1,0 1,0 1,0l0 0 0 2c0,0 0,0 -1,0 0,0 0,0 0,0l-1 0c0,0 0,0 0,0l0 0 0 -2c0,0 0,-1 0,-1 0,0 0,0 0,1zm1 0l-1 0 0 2 1 0 0 -2z"/>
    <polygon class="fil4" points="59,44 60,44 60,46 59,46 "/>
    <path class="fil5" d="M59 44l1 0c1,0 1,0 1,0l0 0 0 2c0,1 0,1 -1,1 0,0 0,0 0,0l-1 0c0,0 0,-1 0,-1l0 0 0 -2c0,0 0,0 0,0 0,0 0,0 0,0zm1 1l-1 0 0 1 1 0 0 -1z"/>
    <polygon class="fil4" points="59,48 60,49 60,51 59,51 "/>
    <g>
     <path class="fil5" d="M59 48l0 0 0 0c0,0 0,0 0,0l0 3 0 0c0,0 0,0 0,0l1 0c0,0 0,0 0,0l-1 -3zm0 0l1 0c1,0 1,0 1,1l0 0 0 2c0,0 0,0 -1,0l0 0 -1 -3zm1 1l-1 0 0 1 1 0 0 -1z"/>
    </g>
    <polygon class="fil4" points="71,15 59,20 59,57 71,58 "/>
    <path class="fil5" d="M70 16l-10 4 0 37 10 1 0 -42zm-11 4l11 -5c0,0 1,0 1,0 0,0 0,0 0,0l0 43 0 0 0 0c0,0 0,0 0,0l-12 -1c0,0 0,0 0,0l0 -37 0 0c0,0 0,0 0,0z"/>
    <polygon class="fil4" points="71,15 76,18 76,58 71,58 "/>
    <g>
     <path class="fil5" d="M71 15l5 3c0,0 1,0 1,0l0 0 0 40c0,1 -1,1 -1,1l0 0 -5 -1c-1,0 -1,0 -1,0l0 0 0 -43c0,0 0,0 1,0 0,0 0,0 0,0zm5 4l-5 -3 0 42 5 0 0 -39zm0 40l0 0 0 0z"/>
    </g>
    <path class="fil4" d="M69 20l-2 0 0 3 2 0 0 -3zm-3 1l-2 0 0 3 2 0 0 -3zm-3 1l-2 0 0 3 2 0 0 -3z"/>
    <path class="fil5" d="M69 20l-1 1 0 2 1 -1 0 -2zm-2 0l2 -1c0,0 0,0 0,0 0,0 1,1 1,1l0 3 0 0c0,0 -1,0 -1,0l-2 1c0,0 0,0 0,0 0,0 0,-1 0,-1l0 -3 0 0c0,0 0,0 0,0zm-2 1l-1 1 0 2 1 -1 0 -2zm-1 0l2 -1c0,0 0,0 0,0 0,0 0,1 0,1l0 3 0 0c0,0 0,0 0,0l-2 1c0,0 0,0 0,0 0,0 0,-1 0,-1l0 -3 0 0c0,0 0,0 0,0zm-2 1l-1 1 0 2 1 -1 0 -2zm-2 0l2 -1c0,0 1,0 1,0 0,0 0,1 0,1l0 3 0 0c0,0 0,0 0,0l-2 0c0,1 0,1 0,1 -1,0 -1,-1 -1,-1l0 -3 0 0c0,0 0,0 0,0z"/>
    <path class="fil4" d="M69 26l-2 1 0 3 2 -1 0 -3zm-3 1l-2 0 0 3 2 0 0 -3zm-3 1l-2 0 0 3 2 0 0 -3z"/>
    <path class="fil5" d="M69 27l-1 0 0 2 1 0 0 -2zm-2 -1l2 0c0,0 0,0 0,0 0,0 1,0 1,0l0 3 0 0c0,0 -1,0 -1,0l-2 1c0,0 0,0 0,0 0,0 0,0 0,0l0 -3 0 0c0,-1 0,-1 0,-1zm-2 1l-1 1 0 2 1 0 0 -3zm-1 0l2 0c0,-1 0,-1 0,-1 0,0 0,1 0,1l0 3 0 0c0,0 0,0 0,0l-2 1c0,0 0,0 0,0 0,0 0,0 0,-1l0 -3 0 0c0,0 0,0 0,0zm-2 1l-1 0 0 3 1 -1 0 -2zm-2 0l2 -1c0,0 1,0 1,0 0,0 0,0 0,1l0 3 0 0c0,0 0,0 0,0l-2 0c0,0 0,0 0,0 -1,0 -1,0 -1,0l0 -3 0 0c0,0 0,0 0,0z"/>
    <path class="fil4" d="M69 32l-2 1 0 3 2 -1 0 -3zm-3 1l-2 0 0 3 2 0 0 -3zm-3 1l-2 0 0 3 2 -1 0 -2z"/>
    <g>
     <path class="fil5" d="M69 33l-1 0 0 2 1 0 0 -2zm-2 -1l2 0 -2 0zm0 1c0,-1 0,-1 0,-1l0 1zm0 3l0 -3 0 0 0 3zm0 0c0,0 0,0 0,0 0,0 0,0 0,0l0 0zm2 0l-2 0 2 0zm1 -1c0,0 -1,1 -1,1l1 -1zm0 -3l0 3 0 0 0 -3zm-1 0c0,0 1,0 1,0l-1 0zm-4 1l-1 1 0 2 1 0 0 -3zm-1 0l2 0 -2 0zm0 0c0,0 0,0 0,0l0 0zm0 3l0 -3 0 0 0 3zm0 1c0,0 0,0 0,0 0,0 0,-1 0,-1l0 1zm2 -1l-2 1 2 -1zm0 0c0,0 0,0 0,0l0 0zm0 -3l0 3 0 0 0 -3zm0 0c0,0 0,0 0,0l0 0zm-4 1l-1 0 0 2 1 0 0 -2zm-1 0l1 -1 -1 1zm-1 0c0,0 0,0 1,0l-1 0zm0 3l0 -3 0 0 0 3zm1 0c0,0 0,0 0,0 -1,0 -1,0 -1,0l1 0zm2 0l-2 0 2 0zm0 -1c0,1 0,1 0,1l0 -1zm0 -2l0 2 0 0 0 -2zm0 -1c0,0 0,0 0,1l0 -1z"/>
    </g>
    <path class="fil4" d="M69 39l-2 0 0 3 2 0 0 -3zm-3 0l-2 1 0 2 2 0 0 -3zm-3 1l-2 0 0 3 2 -1 0 -2z"/>
    <path class="fil5" d="M69 39l-1 1 0 2 1 -1 0 -2zm-2 0l2 0c0,0 0,0 0,0 0,0 1,0 1,0l0 3 0 0c0,0 -1,0 -1,0l-2 0c0,0 0,0 0,0 0,0 0,0 0,0l0 -3 0 0c0,0 0,0 0,0zm-2 1l-1 0 0 2 1 0 0 -2zm-1 -1l2 0c0,0 0,0 0,0 0,0 0,0 0,0l0 3 0 0c0,0 0,0 0,1l-2 0c0,0 0,0 0,0 0,0 0,0 0,-1l0 -2 0 0c0,-1 0,-1 0,-1zm-2 1l-1 0 0 2 1 0 0 -2zm-1 0l1 -1c1,0 1,0 1,0 0,0 0,1 0,1l0 2 0 0c0,1 0,1 0,1l-2 0c0,0 0,0 0,0 -1,0 -1,0 -1,0l0 -3 0 0c0,0 0,0 1,0z"/>
    <path class="fil4" d="M69 45l-2 0 0 3 2 0 0 -3zm-3 0l-2 1 0 3 2 0 0 -4zm-3 1l-2 0 0 3 2 0 0 -3z"/>
    <g>
     <path class="fil5" d="M69 46l-1 0 0 2 1 0 0 -2zm-2 -1l2 0 0 0c0,0 1,0 1,0l0 3 0 0c0,1 -1,1 -1,1l-2 0 0 0c0,0 0,0 0,-1l0 -3 0 0c0,0 0,0 0,0zm2 0l0 0 0 0zm-4 1l-1 0 0 2 1 0 0 -2zm-1 -1l2 0 0 0c0,0 0,0 0,0l0 4 0 0c0,0 0,0 0,0l-2 0 0 0c0,0 0,0 0,0l0 -3 0 0c0,-1 0,-1 0,-1zm2 0l0 0 0 0zm-4 1l-1 0 0 2 1 0 0 -2zm-1 -1l2 0 0 0c0,0 0,0 0,1l0 3 0 0c0,0 0,0 0,0l-2 0 0 0c-1,0 -1,0 -1,0l0 -3 0 0c0,0 0,-1 1,-1zm2 0l0 0 0 0z"/>
    </g>
    <polygon class="fil4" points="72,21 74,21 74,24 72,24 "/>
    <path class="fil5" d="M73 20l2 1c0,0 0,0 0,0l0 0 0 3c0,0 0,1 -1,1 0,0 0,0 0,0l-2 -1c0,0 0,0 0,0l0 0 0 -3c0,0 0,-1 0,-1 1,0 1,0 1,0zm1 2l-1 -1 0 2 1 1 0 -2z"/>
    <polygon class="fil4" points="72,27 74,27 74,30 72,30 "/>
    <g>
     <path class="fil5" d="M73 27l2 0c0,0 0,0 0,0l0 0 0 3c0,1 0,1 -1,1 0,0 0,0 0,0l-2 -1c0,0 0,0 0,0l0 0 0 -3c0,0 0,-1 0,-1 1,0 1,0 1,1zm1 1l-1 -1 0 3 1 0 0 -2zm-1 -1c0,0 0,0 0,0l0 0z"/>
    </g>
    <polygon class="fil4" points="72,33 74,33 74,36 72,36 "/>
    <path class="fil5" d="M73 33l2 0c0,0 0,0 0,0l0 0 0 3c0,0 0,1 -1,1 0,0 0,0 0,0l-2 -1c0,0 0,0 0,0l0 0 0 -3c0,0 0,0 0,0 0,0 1,0 1,0zm1 1l-1 -1 0 3 1 0 0 -2z"/>
    <polygon class="fil4" points="72,39 74,40 74,42 72,42 "/>
    <path class="fil5" d="M73 39l1 0c1,0 1,0 1,1l0 0 0 2c0,1 0,1 -1,1 0,0 0,0 0,0l-2 0c0,-1 0,-1 0,-1l0 0 0 -3c0,0 0,0 0,0 0,0 1,0 1,0zm1 1l-1 0 0 2 1 0 0 -2z"/>
    <polygon class="fil4" points="72,45 74,46 74,49 72,49 "/>
    <g>
     <path class="fil5" d="M72 45l1 0 -1 0c0,0 0,0 0,0l0 4 0 0c0,0 0,0 0,0l2 0 0 0c1,0 1,0 1,0l0 -3 0 0c0,-1 0,-1 -1,-1l-1 0 -1 0zm2 1l-1 0 0 2 1 0 0 -2z"/>
    </g>
    <line class="fil0" x1="93" y1="60" x2="76" y2= "58" />
    <path class="fil5" d="M93 59c0,0 0,0 0,1 0,0 0,0 0,0l-17 -1c-1,0 -1,0 -1,-1 0,0 0,0 1,0l17 1z"/>
    <polygon class="fil4" points="85,23 74,27 74,58 85,59 "/>
    <path class="fil5" d="M85 24l-11 3 0 31 11 1 0 -35zm-11 3l11 -4c0,0 0,0 0,0 1,0 1,0 1,0l0 36 0 0 0 0c0,0 -1,0 -1,0l-11 0c0,0 -1,-1 -1,-1l0 -31 0 0c0,0 1,0 1,0z"/>
    <polygon class="fil4" points="85,23 91,26 91,59 85,59 "/>
    <g>
     <path class="fil5" d="M85 23l6 2c0,0 0,1 0,1l0 0 0 33c0,1 0,1 0,1l0 0 -6 -1c0,0 0,0 0,0l0 0 0 -36c0,0 0,0 0,0 0,0 0,0 0,0zm5 3l-4 -2 0 35 4 0 0 -33zm1 34l0 0 0 0z"/>
    </g>
    <path class="fil4" d="M84 27l-2 0 0 3 2 -1 0 -2zm-3 1l-2 0 0 3 2 -1 0 -2zm-4 1l-2 0 0 2 2 0 0 -2z"/>
    <path class="fil5" d="M83 27l-1 1 0 1 1 0 0 -2zm-1 0l2 -1c0,0 0,0 0,0 0,0 0,1 0,1l0 2 0 0c0,0 0,1 0,1l-2 0c0,0 0,0 0,0 0,0 0,0 0,0l0 -3 0 0c0,0 0,0 0,0zm-2 1l-1 0 0 2 1 0 0 -2zm-2 0l2 -1c0,0 1,0 1,0 0,0 0,0 0,1l0 2 0 0c0,0 0,0 0,0l-2 1c0,0 0,0 0,0 -1,0 -1,0 -1,0l0 -3 0 0c0,0 0,0 0,0zm-1 1l-1 0 0 2 1 0 0 -2zm-2 0l2 -1c0,0 0,0 0,0 0,0 1,0 1,1l0 2 0 0c0,0 0,0 -1,0l-2 1c0,0 0,0 0,0 0,0 0,0 0,-1l0 -2 0 0c0,0 0,0 0,0z"/>
    <path class="fil4" d="M84 32l-2 1 0 2 2 0 0 -3zm-3 1l-2 0 0 3 2 -1 0 -2zm-4 1l-2 0 0 2 2 0 0 -2z"/>
    <path class="fil4" d="M84 37l-2 1 0 2 2 0 0 -3zm-3 1l-2 0 0 3 2 -1 0 -2zm-4 0l-2 1 0 2 2 0 0 -3z"/>
    <path class="fil5" d="M83 38l-1 0 0 2 1 0 0 -2zm-1 -1l2 0c0,0 0,0 0,0 0,0 0,0 0,0l0 3 0 0c0,0 0,0 0,0l-2 1c0,0 0,0 0,0 0,0 0,-1 0,-1l0 -2 0 0c0,0 0,-1 0,-1zm-2 1l-1 1 0 1 1 0 0 -2zm-1 0l1 0c0,0 1,0 1,0 0,0 0,0 0,0l0 2 0 0c0,1 0,1 0,1l-2 0c0,0 0,0 0,0 -1,0 -1,0 -1,0l0 -3 0 0c0,0 0,0 1,0zm-2 1l-1 0 0 2 1 0 0 -2zm-2 -1l2 0c0,0 0,0 0,0 0,0 1,0 1,0l0 3 0 0c0,0 -1,0 -1,0l-2 1c0,0 0,0 0,0 0,0 0,-1 0,-1l0 -2 0 0c0,0 0,-1 0,-1z"/>
    <path class="fil4" d="M84 43l-2 0 0 3 2 -1 0 -2zm-3 0l-2 1 0 2 2 0 0 -3zm-4 1l-2 0 0 2 2 0 0 -2z"/>
    <g>
     <path class="fil5" d="M83 43l-1 1 0 1 1 0 0 -2zm-1 0l2 0c0,0 0,0 0,0 0,0 0,0 0,0l0 2 0 0c0,1 0,1 0,1l-2 0 0 0c0,0 0,0 0,0l0 -3 0 0c0,0 0,0 0,0zm0 3l0 0 0 0zm-2 -2l-1 0 0 1 1 0 0 -1zm-1 -1l1 0c1,0 1,0 1,0 0,0 0,0 0,0l0 3 0 0c0,0 0,0 0,0l-2 0 0 0c-1,0 -1,0 -1,0l0 -2 0 0c0,-1 0,-1 1,-1zm0 3l0 0 0 0zm-2 -2l-1 0 0 2 1 0 0 -2zm-2 0l2 -1c0,0 0,0 0,0 0,0 1,1 1,1l0 2 0 0c0,0 -1,0 -1,0l-2 1 0 0c0,0 0,-1 0,-1l0 -2 0 0c0,0 0,0 0,0zm0 3l0 0 0 0z"/>
    </g>
    <path class="fil4" d="M84 48l-2 0 0 3 2 0 0 -3zm-3 1l-2 0 0 2 2 0 0 -2zm-4 0l-2 0 0 2 2 0 0 -2z"/>
    <path class="fil5" d="M83 49l-1 0 0 2 1 0 0 -2zm-1 -1l2 0 0 0c0,0 0,0 0,0l0 3 0 0c0,0 0,0 0,0l-2 0 0 0c0,0 0,0 0,0l0 -3 0 0c0,0 0,0 0,0zm-2 1l-1 0 0 2 1 0 0 -2zm-1 -1l2 0 0 0c0,0 0,0 0,1l0 2 0 0c0,0 0,1 0,1l-2 0 0 0c-1,0 -1,-1 -1,-1l0 -2 0 0c0,-1 0,-1 1,-1zm-2 1l-1 0 0 2 1 0 0 -2zm-2 -1l2 0 0 0c0,0 1,1 1,1l0 2 0 0c0,0 -1,1 -1,1l-2 0 0 0c0,0 0,0 0,-1l0 -2 0 0c0,0 0,-1 0,-1z"/>
    <polygon class="fil4" points="87,28 89,28 89,31 87,30 "/>
    <g>
     <path class="fil5" d="M87 27l2 1c0,0 1,0 1,0l0 0 0 3c0,0 -1,0 -1,0 0,0 0,0 0,0l-2 -1c0,0 0,0 0,0l0 0 0 -2c0,-1 0,-1 0,-1 0,0 0,0 0,0zm2 1l-1 0 0 2 1 0 0 -2zm0 3c0,0 0,0 0,0l0 0zm-2 -4c0,0 1,1 1,1l-1 -1z"/>
    </g>
    <polygon class="fil4" points="87,33 89,33 89,36 87,35 "/>
    <path class="fil5" d="M87 32l2 1c0,0 1,0 1,0l0 0 0 3c0,0 -1,0 -1,0 0,0 0,0 0,0l-2 0c0,0 0,0 0,-1l0 0 0 -2c0,0 0,-1 0,-1 0,0 0,0 0,0zm2 2l-1 -1 0 2 1 0 0 -1z"/>
    <polygon class="fil4" points="87,38 89,38 89,41 87,40 "/>
    <path class="fil5" d="M87 38l2 0c0,0 0,0 0,0l1 0 0 3c0,0 -1,0 -1,0 0,0 0,0 0,0l-2 0c0,0 0,0 0,-1l0 0 0 -2c0,0 0,0 0,0 0,0 0,0 0,0zm2 1l-1 -1 0 2 1 0 0 -1z"/>
    <polygon class="fil4" points="87,43 89,44 89,46 87,46 "/>
    <g>
     <path class="fil5" d="M87 43l2 0c0,0 1,0 1,1l0 0 0 2c0,0 -1,0 -1,0l0 0 -2 0c0,0 0,0 0,0l0 0 0 -3c0,0 0,0 0,0 0,0 0,0 0,0zm2 1l-1 0 0 1 1 0 0 -1zm0 2c0,0 0,0 0,0l0 0zm0 0l0 0 0 0z"/>
    </g>
    <polygon class="fil4" points="87,49 89,49 89,51 87,51 "/>
    <path class="fil5" d="M87 48l2 0c0,0 1,0 1,1l0 0 0 2c0,0 -1,1 -1,1l0 0 -2 0c0,0 0,-1 0,-1l0 0 0 -2c0,-1 0,-1 0,-1l0 0zm2 1l-1 0 0 2 1 0 0 -2z"/>
    <polygon class="fil4" points="70,29 62,32 62,57 70,58 "/>
    <path class="fil5" d="M70 29l-7 3 0 25 7 0 0 -28zm-8 3l8 -3c0,-1 0,-1 0,-1 0,0 0,1 0,1l0 29 0 0 0 0c0,0 0,0 0,0l-8 0c0,0 0,-1 0,-1l0 -25 0 0c0,0 0,0 0,0z"/>
    <polygon class="fil4" points="70,29 74,31 74,58 70,58 "/>
    <g>
     <path class="fil5" d="M70 29l4 2c0,0 0,0 0,0l0 0 0 27c0,0 0,1 0,1l0 0 -4 -1c0,0 0,0 0,0l0 0 0 -29c0,0 0,-1 0,-1 0,0 0,0 0,1zm3 2l-3 -2 0 29 3 0 0 -27zm1 28l0 0 0 0z"/>
    </g>
    <path class="fil4" d="M69 32l-1 0 0 2 1 0 0 -2zm-2 1l-2 0 0 2 2 -1 0 -1zm-2 0l-2 1 0 1 2 0 0 -2z"/>
    <path class="fil5" d="M69 32l-1 0 0 2 1 0 0 -2zm-1 0l1 -1c0,0 0,0 0,0 0,0 0,1 0,1l0 2 0 0c0,0 0,0 0,0l-1 1c0,0 0,0 0,0 0,0 -1,-1 -1,-1l0 -2 0 0c0,0 0,0 1,0zm-2 1l0 0 0 1 0 0 0 -1zm-1 0l2 -1c0,0 0,0 0,0 0,0 0,0 0,1l0 1 0 0c0,1 0,1 0,1l-1 0c0,0 0,0 -1,0 0,0 0,0 0,0l0 -2 0 0c0,0 0,0 0,0zm-1 1l0 0 0 1 0 0 0 -1zm-1 -1l1 0c0,0 1,0 1,0 0,0 0,0 0,0l0 2 0 0c0,0 0,0 0,0l-2 1c0,0 0,0 0,0 0,0 0,0 0,-1l0 -1 0 0c0,-1 0,-1 0,-1z"/>
    <path class="fil4" d="M69 36l-1 0 0 3 1 -1 0 -2zm-2 1l-2 0 0 2 2 0 0 -2zm-2 0l-2 1 0 2 2 -1 0 -2z"/>
    <path class="fil5" d="M69 37l-1 0 0 1 1 0 0 -1zm-1 -1l1 0c0,0 0,0 0,0 0,0 0,0 0,0l0 2 0 0c0,0 0,1 0,1l-1 0c0,0 0,0 0,0 0,0 -1,0 -1,0l0 -3 0 0c0,0 0,0 1,0zm-2 1l0 0 0 2 0 -1 0 -1zm-1 0l2 -1c0,0 0,0 0,0 0,0 0,0 0,1l0 2 0 0c0,0 0,0 0,0l-1 0c0,0 0,0 -1,0 0,0 0,0 0,0l0 -2 0 0c0,0 0,0 0,0zm-1 1l0 0 0 1 0 0 0 -1zm-1 -1l1 0c0,0 1,0 1,0 0,0 0,0 0,0l0 2 0 0c0,0 0,1 0,1l-2 0c0,0 0,0 0,0 0,0 0,0 0,0l0 -2 0 0c0,-1 0,-1 0,-1z"/>
    <path class="fil4" d="M69 40l-1 1 0 2 1 -1 0 -2zm-2 1l-2 0 0 2 2 0 0 -2zm-2 0l-2 0 0 2 2 0 0 -2z"/>
    <g>
     <path class="fil5" d="M69 41l-1 0 0 1 1 0 0 -1zm-1 -1l1 0 -1 0zm-1 1c0,-1 0,-1 1,-1l-1 1zm0 2l0 -2 0 0 0 2zm1 0c0,0 0,0 0,0 0,0 -1,0 -1,0l1 0zm1 0l-1 0 1 0zm0 -1c0,1 0,1 0,1l0 -1zm0 -2l0 2 0 0 0 -2zm0 0c0,0 0,0 0,0l0 0zm-3 1l0 0 0 2 0 -1 0 -1zm-1 0l2 -1 -2 1zm0 0c0,0 0,0 0,0l0 0zm0 2l0 -2 0 0 0 2zm1 0c0,0 -1,0 -1,0 0,0 0,0 0,0l1 0zm1 0l-1 0 1 0zm0 0c0,0 0,0 0,0l0 0zm0 -2l0 2 0 0 0 -2zm0 -1c0,0 0,1 0,1l0 -1zm-3 2l0 0 0 1 0 0 0 -1zm-1 -1l1 0 -1 0zm0 0c0,0 0,0 0,0l0 0zm0 2l0 -2 0 0 0 2zm0 1c0,0 0,0 0,0 0,0 0,0 0,-1l0 1zm2 0l-2 0 2 0zm0 -1c0,0 0,1 0,1l0 -1zm0 -2l0 2 0 0 0 -2zm0 0c0,0 0,0 0,0l0 0z"/>
    </g>
    <path class="fil4" d="M69 45l-1 0 0 2 1 0 0 -2zm-2 0l-2 0 0 2 2 0 0 -2zm-2 0l-2 1 0 1 2 0 0 -2z"/>
    <path class="fil5" d="M69 45l-1 0 0 2 1 -1 0 -1zm-1 0l1 0c0,-1 0,-1 0,-1 0,0 0,1 0,1l0 2 0 0c0,0 0,0 0,0l-1 0c0,0 0,0 0,0 0,0 -1,0 -1,0l0 -2 0 0c0,0 0,0 1,0zm-2 1l0 0 0 1 0 0 0 -1zm-1 -1l2 0c0,0 0,0 0,0 0,0 0,0 0,0l0 2 0 0c0,0 0,0 0,0l-1 1c0,0 -1,0 -1,0 0,0 0,-1 0,-1l0 -2 0 0c0,0 0,0 0,0zm-1 1l0 0 0 1 0 0 0 -1zm-1 -1l1 0c0,0 1,0 1,0 0,0 0,0 0,0l0 2 0 0c0,0 0,1 0,1l-2 0c0,0 0,0 0,0 0,0 0,0 0,-1l0 -1 0 0c0,-1 0,-1 0,-1z"/>
    <path class="fil4" d="M69 49l-1 0 0 2 1 0 0 -2zm-2 0l-2 0 0 2 2 0 0 -2zm-2 0l-2 1 0 2 2 0 0 -3z"/>
    <g>
     <path class="fil5" d="M69 50l-1 0 0 1 1 0 0 -1zm-1 -1l1 0 0 0c0,0 0,0 0,0l0 2 0 0c0,1 0,1 0,1l-1 0 0 0c0,0 -1,0 -1,-1l0 -2 0 0c0,0 0,0 1,0zm1 0l0 0 0 0zm-3 1l0 0 0 1 0 0 0 -1zm-1 -1l2 0 0 0c0,0 0,0 0,0l0 2 0 0c0,1 0,1 0,1l-1 0 -1 0c0,0 0,0 0,-1l0 -2 0 0c0,0 0,0 0,0zm2 0l0 0 0 0zm-3 1l0 0 0 1 0 0 0 -1zm-1 -1l2 0 0 0c0,0 0,0 0,0l0 3 0 0c0,0 0,0 0,0l-2 0 0 0c0,0 0,0 0,0l0 -2 0 0c0,-1 0,-1 0,-1zm2 0l0 0 0 0z"/>
    </g>
    <polygon class="fil4" points="71,33 73,33 73,35 71,34 "/>
    <path class="fil5" d="M71 32l2 1c0,0 0,0 0,0l0 0 0 2c0,0 0,0 0,0 0,0 0,0 0,0l-2 0c0,0 0,0 0,-1l0 0 0 -1c0,-1 0,-1 0,-1 0,0 0,0 0,0zm1 1l0 0 0 1 0 0 0 -1z"/>
    <polygon class="fil4" points="71,37 73,37 73,39 71,39 "/>
    <g>
     <path class="fil5" d="M71 36l2 1c0,0 0,0 0,0l0 0 0 2c0,0 0,0 0,0 0,0 0,0 0,0l-2 0c0,0 0,0 0,0l0 0 0 -2c0,-1 0,-1 0,-1 0,0 0,0 0,0zm1 1l0 0 0 1 0 1 0 -2zm-1 -1c1,0 1,0 1,1l-1 -1z"/>
    </g>
    <polygon class="fil4" points="71,41 73,41 73,43 71,43 "/>
    <path class="fil5" d="M71 40l2 1c0,0 0,0 0,0l0 0 0 2c0,0 0,0 0,0 0,0 0,0 0,0l-2 0c0,0 0,0 0,0l0 0 0 -2c0,0 0,-1 0,-1 0,0 0,0 0,0zm1 1l0 0 0 1 0 1 0 -2z"/>
    <polygon class="fil4" points="71,45 73,45 73,47 71,47 "/>
    <path class="fil5" d="M71 45l2 0c0,0 0,0 0,0l0 0 0 2c0,0 0,1 0,1 0,0 0,0 0,0l-2 -1c0,0 0,0 0,0l0 0 0 -2c0,0 0,0 0,0 0,0 0,0 0,0zm1 1l0 0 0 1 0 0 0 -1z"/>
    <polygon class="fil4" points="71,49 73,49 73,51 71,51 "/>
    <g>
     <path class="fil5" d="M71 49l0 0 0 0c0,0 0,0 0,0l0 2 0 0c0,1 0,1 0,1l2 0 0 0c0,0 0,0 0,-1l0 -2 0 0c0,0 0,0 0,0l-2 0 0 0zm1 1l0 0 0 1 0 0 0 -1z"/>
    </g>
    <polygon class="fil4" points="91,66 31,56 91,60 93,60 93,65 "/>
    <g>
     <path class="fil5" d="M91 66l-60 -10c-1,0 -1,0 -1,0 0,-1 1,-1 1,-1l0 0 60 5 2 -1c0,0 0,0 0,1 0,0 0,0 0,0l0 5c0,0 0,0 0,0l0 0 -2 1c0,0 0,0 0,0zm-51 -9l51 8 2 -1 0 -4 -2 1c0,0 0,0 0,0l-51 -4zm51 4l0 0 0 0z"/>
    </g>
    <line class="fil0" x1="91" y1="60" x2="91" y2= "66" />
    <path class="fil5" d="M90 60c0,0 1,0 1,0 0,0 0,0 0,0l0 6c0,0 0,0 0,0 0,0 -1,0 -1,0l0 -6z"/>
    <path class="fil6" d="M75 64c1,0 3,2 3,5 0,2 -2,5 -3,5l-3 0c2,0 3,-3 3,-5 0,-3 -1,-5 -3,-5l3 0z"/>
    <path class="fil2" d="M75 63c1,0 2,1 2,2 1,1 1,2 1,4 0,1 0,2 -1,3 0,1 -1,2 -2,2l-3 0 0 -1c1,0 1,0 2,-1 0,-1 1,-2 1,-3 0,-2 -1,-3 -1,-4 -1,-1 -1,-1 -2,-1l0 -1 3 0zm2 2c-1,-1 -1,-1 -2,-1l-1 0c0,0 0,0 0,1 1,1 1,2 1,4 0,1 0,2 -1,3 0,1 0,1 0,1l1 0c1,0 1,0 2,-1 0,-1 0,-2 0,-3 0,-2 0,-3 0,-4z"/>
    <path class="fil2" d="M72 63c1,0 2,1 2,2 1,1 1,2 1,4 0,1 0,2 -1,3 0,1 -1,2 -2,2 -1,0 -2,-1 -2,-2 -1,-1 -1,-2 -1,-3 0,-2 0,-3 1,-4 0,-1 1,-2 2,-2zm2 2c-1,-1 -1,-1 -2,-1 -1,0 -1,0 -2,1 0,1 -1,2 -1,4 0,1 1,2 1,3 1,1 1,1 2,1 1,0 1,0 2,-1 0,-1 1,-2 1,-3 0,-2 -1,-3 -1,-4z"/>
    <path class="fil6" d="M27 63c1,0 2,1 2,3 0,2 -1,4 -2,4l-2 0c2,0 2,-2 2,-4 0,-2 0,-3 -2,-3l2 0z"/>
    <path class="fil2" d="M27 63c1,0 2,0 2,1 1,0 1,1 1,2 0,1 0,2 -1,3 0,1 -1,1 -2,1l-2 0 0 -1c1,0 1,0 2,0 0,-1 0,-2 0,-3 0,-1 0,-1 0,-2 -1,0 -1,-1 -2,-1l0 0 2 0zm1 1c0,0 0,-1 -1,-1l0 0c0,0 0,1 0,1 1,0 1,1 1,2 0,1 0,2 -1,3 0,0 0,0 0,0l0 0c1,0 1,0 1,0 1,-1 1,-2 1,-3 0,-1 0,-1 -1,-2z"/>
    <path class="fil6" d="M47 64c2,0 4,2 4,6 0,4 -2,7 -4,7l-4 0c2,0 4,-3 4,-7 0,-4 -2,-6 -4,-6l4 0z"/>
    <path class="fil2" d="M47 63c1,0 2,1 3,2 1,1 1,3 1,5 0,2 0,4 -1,5 -1,1 -2,2 -3,2l-4 0 0 -1c1,0 2,0 2,-2 1,-1 2,-2 2,-4 0,-2 -1,-3 -2,-4 0,-1 -1,-2 -2,-2l0 -1 4 0zm2 3c0,-1 -1,-2 -2,-2l-2 0c0,0 1,1 1,1 1,1 1,3 1,5 0,2 0,4 -1,5 0,0 -1,1 -1,1l2 0c1,0 2,0 2,-2 1,-1 1,-2 1,-4 0,-2 0,-3 -1,-4z"/>
    <path class="fil4" d="M23 50l23 -16c0,0 4,-4 9,-3 5,2 16,8 17,9 1,1 2,2 3,4 1,1 1,2 2,4 1,3 4,15 3,17 0,0 0,0 0,1 0,1 1,3 -1,4 -1,1 -5,2 -12,3 -8,1 -8,1 -8,1 0,0 -5,0 -7,-1 0,0 -2,0 -4,-1 0,0 0,0 0,-1 0,-4 -2,-8 -5,-8 -2,0 -4,3 -5,7l-10 -3 0 0c0,-3 -2,-5 -3,-5 -1,0 -2,2 -2,3l-3 0c0,0 0,-4 0,-8 1,-4 1,-5 1,-5 1,-1 2,-2 2,-2z"/>
    <g>
     <path class="fil3" d="M23 50l23 -16c0,-1 4,-4 9,-3 2,1 5,2 8,3 4,2 8,5 9,6l0 0 1 0c1,1 2,1 3,3 0,1 0,2 0,2 1,1 1,2 1,3 1,2 2,7 3,11 0,3 1,5 0,6 0,0 0,0 1,1 0,0 0,0 0,0 0,2 0,4 -1,4 -1,1 -3,1 -5,2 -2,0 -5,1 -8,1 -8,1 -8,1 -8,1l0 0c-1,0 -5,0 -7,0l-4 -1c0,0 0,-1 0,-1l0 0c0,0 0,0 0,0 0,0 0,-1 0,-1 0,-2 -1,-4 -2,-5 -1,-2 -2,-3 -3,-3 -1,0 -2,1 -3,2 -1,1 -1,3 -1,5 0,0 -1,0 -1,0 0,0 0,0 0,0l-10 -3c-1,0 -1,0 -1,0l0 0 0 0c0,-1 0,-2 0,-3 -1,-1 -1,-1 -2,-1 0,0 -1,0 -1,0 -1,1 -1,2 -1,2 0,1 0,1 0,1l0 0 0 0 -3 -1c0,0 0,0 0,0 0,-1 0,-4 0,-8 0,-2 0,-3 0,-4 1,-1 1,-1 1,-2 1,0 2,-1 2,-1l0 0 0 0zm23 -16l-22 16 0 0c-1,0 -2,1 -2,2 -1,0 -1,0 -1,1 0,1 0,2 0,4 -1,3 0,6 0,7l1 1c1,-1 1,-2 1,-2 1,-1 1,-1 2,-1 1,0 2,1 2,1 1,1 1,2 1,3l10 3c0,-2 1,-3 2,-4 1,-2 2,-2 3,-2 2,0 3,1 4,2 1,2 1,4 1,6 0,0 0,1 0,1l0 0 4 1c2,0 6,0 7,0l0 0c0,0 0,0 8,-1 3,0 5,0 7,-1 3,0 5,-1 5,-1 1,-1 1,-3 1,-4 0,0 0,0 0,0 0,0 0,0 0,0 0,0 0,0 0,0 -1,-1 -1,-1 -1,-1 1,-1 1,-3 0,-6 -1,-4 -2,-9 -2,-11 -1,-1 -1,-2 -1,-2 0,-1 -1,-2 -1,-2 -1,-2 -2,-3 -3,-4l0 0 0 0 0 0c-1,0 -5,-3 -9,-5 -3,-1 -6,-3 -8,-3 -4,-1 -8,2 -9,2 0,0 0,0 0,0zm34 32l0 0 0 0 0 0zm-42 4l0 0 0 0z"/>
    </g>
    <path class="fil3" d="M80 59c0,0 0,1 0,2 0,0 0,1 0,1 0,0 0,0 0,0 0,1 0,1 0,1 -1,0 -1,1 -2,1 0,0 -1,0 -2,-1 0,0 0,0 0,0 0,0 0,-1 0,-1 0,0 0,-1 1,-1 1,0 1,-1 1,-1 1,0 1,-1 1,-1 0,0 1,0 1,0 0,0 0,0 0,0zm-1 2c0,-1 0,-1 0,-1 0,0 0,0 0,0 0,1 -1,1 -1,1 -1,1 -1,1 -1,1 0,0 0,0 0,0 0,1 0,1 0,1 0,0 1,0 1,0 1,0 1,0 1,-1 0,0 0,0 1,0 -1,0 -1,-1 -1,-1z"/>
    <path class="fil3" d="M78 56c1,3 0,4 -2,5 -1,0 -3,0 -5,0 -1,0 -1,0 -2,0 -2,-1 -5,-2 -7,-3 -2,-1 -3,-3 -3,-4 0,-4 0,-7 0,-10 -1,-3 -2,-6 -3,-9l0 0c0,0 -1,-3 3,-1 0,0 1,0 1,1 4,1 12,5 13,7l0 0 0 0c2,2 3,3 5,14l0 0zm-2 4c1,0 2,-1 2,-3 -3,-12 -4,-13 -5,-14l0 0 0 0 0 -1c-2,-1 -10,-5 -13,-7 -1,0 -1,0 -2,0 -1,-1 -1,0 -1,0l0 0c1,3 2,6 2,9 1,3 1,6 1,10 0,1 1,2 3,4 1,1 4,2 6,2 1,0 1,0 2,0 2,0 4,0 5,0z"/>
    <path class="fil3" d="M60 58c0,0 2,1 4,2 1,1 1,1 2,1 1,0 2,1 2,2 0,1 0,1 -1,2 0,0 -1,0 -3,0 -3,-1 -5,-3 -5,-5 -1,0 -1,-1 -1,-2 0,0 1,-1 1,-1 0,0 1,0 1,1l0 0zm4 3c-3,-1 -4,-3 -4,-3l0 0 0 0c-1,0 -1,0 -1,0 0,0 0,0 0,0 0,1 0,1 0,2 1,2 2,4 5,4 2,0 3,0 3,0 1,0 1,-1 1,-1 0,-1 -1,-1 -2,-1 -1,-1 -2,-1 -2,-1z"/>
    <path class="fil3" d="M80 65c0,0 0,0 0,0 0,0 0,1 0,1l-21 1c0,0 0,0 0,0l0 0 -12 -1c-1,0 -1,0 -1,0 0,-1 0,-1 1,-1l12 1 21 -1zm-40 0c0,0 0,0 0,0 0,0 0,0 0,0l-13 -1c0,0 0,0 0,0 0,0 0,0 0,0l13 1zm-17 -2c0,0 1,0 1,1 0,0 -1,0 -1,0l-3 0c0,0 0,0 0,-1 0,0 0,0 0,0l3 0z"/>
    <circle class="fil6" cx="65" cy="63" r="1"/>
    <path class="fil2" d="M65 61c0,0 1,0 1,0 0,1 0,1 0,2 0,0 0,1 0,1 0,0 -1,0 -1,0 -1,0 -1,0 -2,0l0 0c0,0 0,-1 0,-1 0,-1 0,-1 0,-2 1,0 1,0 2,0zm0 1c0,0 0,0 0,0 -1,0 -1,0 -1,0 0,0 0,0 0,1 0,0 0,0 0,0l0 0 0 0c0,1 0,1 1,1 0,0 0,0 0,-1 1,0 1,0 1,0 0,-1 0,-1 -1,-1z"/>
    <circle class="fil6" cx="61" cy="61" r="1"/>
    <path class="fil2" d="M61 59c1,0 1,1 2,1 0,0 0,1 0,1 0,1 0,1 0,1 -1,1 -1,1 -2,1 0,0 0,0 -1,-1l0 0 0 0c0,0 0,0 0,-1 0,0 0,-1 0,-1l0 0 0 0c1,0 1,-1 1,-1zm1 1c0,0 0,0 -1,0 0,0 0,0 0,0l0 0c0,1 -1,1 -1,1 0,0 1,1 1,1l0 0c0,0 0,0 0,0 1,0 1,0 1,0 0,0 0,-1 0,-1 0,0 0,0 0,-1z"/>
    <circle class="fil6" cx="79" cy="62" r="1"/>
    <path class="fil2" d="M79 60c0,0 0,1 1,1l0 0c0,0 0,0 0,1 0,0 0,1 0,1l0 0 0 0c-1,0 -1,0 -1,0 -1,0 -1,0 -2,0 0,0 0,-1 0,-1 0,-1 0,-1 0,-1 1,0 1,-1 2,-1zm0 1c0,0 0,0 0,0 -1,0 -1,0 -1,0 0,0 0,1 0,1 0,0 0,0 0,0 0,0 0,0 1,0 0,0 0,0 0,0 0,0 0,0 0,0 0,0 0,-1 0,-1l0 0z"/>
    <path class="fil2" d="M25 63c1,0 2,0 2,1 1,0 1,1 1,2 0,1 0,2 -1,3 0,1 -1,1 -2,1 0,0 -1,0 -1,-1 -1,-1 -1,-2 -1,-3 0,-1 0,-2 1,-2 0,-1 1,-1 1,-1zm2 1c-1,0 -1,-1 -2,-1 0,0 0,1 -1,1 0,1 0,1 0,2 0,1 0,2 0,3 1,0 1,0 1,0 1,0 1,0 2,0 0,-1 0,-2 0,-3 0,-1 0,-1 0,-2z"/>
    <path class="fil3" d="M25 64c1,0 1,1 1,1 0,0 0,1 0,1 0,1 0,1 0,2 0,0 0,0 -1,0 0,0 0,0 -1,0 0,-1 0,-1 0,-2 0,0 0,-1 0,-1 1,0 1,-1 1,-1zm0 1c0,0 0,0 0,0 0,0 0,0 0,0 0,1 0,1 0,1 0,1 0,1 0,1 0,1 0,1 0,1 0,0 0,0 0,-1 0,0 1,0 1,-1 0,0 -1,0 -1,-1z"/>
    <polygon class="fil6" points="70,70 70,68 76,67 76,69 "/>
    <path class="fil2" d="M70 70l0 -2c0,-1 0,-1 0,-1l6 0c0,0 0,0 0,0l0 0 0 0 0 2c0,0 0,0 0,0l-6 1c0,0 0,0 0,0 0,0 0,0 0,0zm1 -2l0 1 4 0 0 -1 -4 0z"/>
    <path class="fil5" d="M7 65c0,0 0,0 0,0 0,0 0,0 0,0l37 19c0,0 0,1 0,1 0,0 0,0 0,0l-37 -20z"/>
    <path class="fil5" d="M7 65c0,0 0,0 0,0 0,0 0,0 0,0l28 19c0,0 0,0 0,0 0,1 0,1 -1,1l-27 -20z"/>
    <path class="fil4" d="M44 54l2 4 10 -1c0,0 2,0 2,-3 0,-4 -1,-9 -2,-13 -1,-4 -1,-6 -2,-7 -1,0 -5,1 -18,9 -12,9 -14,9 -14,11 0,3 0,5 0,5l8 -1 0 5 8 0 0 -7 6 -2z"/>
    <path class="fil3" d="M45 53l1 4 10 0c0,0 0,0 0,0l0 0c0,0 1,0 1,-3 0,-2 0,-4 0,-6 0,-2 0,-5 -1,-7l0 0 0 -1c-1,-3 -1,-5 -2,-5 -1,-1 -2,0 -6,1 -2,2 -6,4 -11,8 -5,3 -8,5 -10,6 -4,2 -4,3 -4,4 -1,2 -1,4 -1,5l8 -2c0,0 0,0 1,1 0,0 0,0 0,0l0 0 0 5 6 0 0 -7c0,-1 0,-1 1,-1l6 -2c0,0 1,0 1,0zm1 5l-2 -4 -6 2 0 7 0 0 0 0c0,1 0,1 0,1l-8 -1 0 0c0,0 0,0 0,0l0 -5 -8 2 0 0 0 0c0,0 0,0 0,0 0,0 0,0 0,-1 0,0 0,-2 0,-5 0,-2 1,-2 5,-5 2,-1 5,-3 9,-6 5,-4 9,-6 12,-7 4,-2 6,-2 6,-2 1,1 2,2 3,6l0 1 0 0c0,2 1,5 1,7 0,2 0,4 0,6 0,3 -2,3 -2,3l-10 1 0 0c0,0 0,0 0,0z"/>
    <path class="fil7" d="M31 58c0,0 -1,0 -1,0 0,0 0,0 0,0l0 -9c0,0 0,0 0,0l7 -5c1,0 1,0 1,0 0,0 0,0 0,0l0 12c0,0 0,0 0,0 -1,0 -1,0 -1,0l0 -11 -6 4 0 9z"/>
    <path class="fil3" d="M45 54c0,0 0,0 -1,0 0,0 0,0 0,0l0 -13 -6 3c0,0 -1,0 -1,0 0,0 0,0 0,0l7 -4c0,0 0,0 0,0 1,0 1,0 1,0l0 14z"/>
    <path class="fil3" d="M45 40c0,1 0,1 -1,1 0,0 0,0 0,-1l0 -2c0,0 0,0 0,0 1,0 1,0 1,0l0 2z"/>
    <path class="fil3" d="M30 49c0,-1 0,-1 0,0 1,0 1,0 0,0l-8 5c0,0 0,0 0,0 0,0 0,-1 0,-1l8 -4z"/>
    <polygon class="fil6" points="38,44 30,49 30,63 38,63 "/>
    <g>
     <path class="fil2" d="M37 45l-6 4 0 14 6 0 0 -18zm-7 4l7 -5 0 0c1,0 1,0 1,0 0,0 0,0 0,0l0 19 0 0c0,1 0,1 0,1l-8 -1 0 0c0,0 0,0 0,0l0 -14 0 0c0,0 0,0 0,0zm8 14l0 0 0 0z"/>
    </g>
    <line class="fil0" x1="34" y1="63" x2="34" y2= "47" />
    <path class="fil2" d="M34 63c0,0 0,1 0,1 0,0 0,-1 0,-1l0 -16c0,-1 0,-1 0,-1 0,0 0,0 0,1l0 16z"/>
    <path class="fil6" d="M75 44c1,-1 5,0 7,0 1,0 1,4 1,5 0,0 0,0 -1,1 -1,0 -1,0 -1,-2 0,-1 -1,-3 -1,-3 -1,0 -3,0 -4,0l-1 -1z"/>
    <path class="fil2" d="M75 43c1,0 2,0 4,0 1,0 2,1 3,1 0,0 1,1 1,2 1,1 1,3 1,3 0,0 0,0 0,0l0 0c-1,1 -1,1 -1,1l0 0c0,0 0,0 -1,0 -1,0 -1,0 -1,-1l0 0 0 -1c-1,0 -1,-2 -1,-2 -2,-1 -3,-1 -4,-1l0 0c0,0 0,0 0,0l0 0 -1 -1c0,0 0,-1 0,-1 0,0 0,0 0,0zm4 1c-1,0 -2,0 -3,0l0 1c1,0 3,0 4,0 1,0 1,0 1,0 0,0 0,2 0,3l1 0 0 0 0 0c0,1 0,1 0,1 0,0 1,0 1,0l0 0 0 0c0,0 0,0 0,0 0,-1 0,-2 -1,-3 0,-1 0,-1 -1,-2 0,0 -1,0 -2,0z"/>
    <path class="fil6" d="M55 36c1,0 6,0 7,1 1,1 2,5 2,6 0,0 0,1 -2,1 -1,0 -2,0 -2,-1 0,-1 -1,-5 -1,-5 -1,0 -2,0 -3,0l-1 -2z"/>
    <path class="fil2" d="M55 36c1,0 3,0 4,0 2,0 3,0 3,0 1,1 2,5 2,6 0,0 0,1 0,1 0,0 0,0 0,0 0,0 0,1 0,1 0,0 0,0 -1,0 0,0 0,0 -1,0 -1,0 -1,0 -1,0 -1,0 -1,0 -1,-1 -1,-1 -1,-4 -1,-5 -1,0 -1,0 -2,0 0,0 -1,0 -1,0 -1,0 -1,0 -1,0l0 0 0 -2c0,0 0,0 0,0 0,0 0,0 0,0zm4 1c-1,-1 -2,-1 -3,-1l0 1c0,0 1,0 1,0 1,0 1,0 2,0 0,0 1,1 1,1 0,0 0,3 0,5 1,0 1,0 1,0 0,1 1,1 1,1 0,0 1,0 1,0 0,-1 0,-1 0,-1 1,0 1,0 1,0 0,0 0,0 0,0 0,0 0,-1 -1,-1 0,-1 0,-4 -1,-5 -1,0 -2,0 -3,0z"/>
    <path class="fil5" d="M84 33l-2 0 0 2 1 -1 1 -1zm-2 -1l2 0c0,0 0,0 0,0 0,0 0,0 0,0l0 3 0 0c0,0 0,0 0,0l-2 0c0,0 0,0 0,0 0,0 -1,0 -1,0l1 -2 0 0c0,-1 0,-1 0,-1zm-2 1l-1 1 0 1 1 0 0 -2zm-1 0l1 -1c1,0 1,0 1,0 0,0 0,1 0,1l0 2 0 0c0,0 0,1 0,1l-2 0c0,0 0,0 0,0 -1,0 -1,0 -1,0l0 -3 0 0c0,0 0,0 1,0zm-2 1l-1 0 0 2 1 0 0 -2zm-2 0l2 -1c0,0 0,0 0,0 0,0 1,0 1,1l0 2 0 0c0,0 -1,0 -1,0l-2 1c0,0 0,0 0,0 0,0 0,0 0,-1l0 -2 0 0c0,0 0,0 0,0z"/>
   </g>
  </g>
 </g>
</svg>
