<?xml version="1.0" encoding="UTF-8"?>
<!DOCTYPE svg PUBLIC "-//W3C//DTD SVG 1.1//EN" "http://www.w3.org/Graphics/SVG/1.1/DTD/svg11.dtd">
<!-- Creator: CorelDRAW X7 -->
<svg xmlns="http://www.w3.org/2000/svg" xml:space="preserve" width="350px" height="350px" version="1.1" style="shape-rendering:geometricPrecision; text-rendering:geometricPrecision; image-rendering:optimizeQuality; fill-rule:evenodd; clip-rule:evenodd"
viewBox="0 0 350 350"
 xmlns:xlink="http://www.w3.org/1999/xlink">
 <defs>
  <style type="text/css">
   <![CDATA[
    .str0 {stroke:#DCDDDD;stroke-width:2.36222;stroke-linecap:round;stroke-linejoin:round}
    .str1 {stroke:#F7104D;stroke-width:2.36222;stroke-linecap:round;stroke-linejoin:round}
    .fil1 {fill:none}
    .fil3 {fill:#FEFEFE}
    .fil5 {fill:#FCFEFF}
    .fil2 {fill:#FFD1D3}
    .fil4 {fill:white}
    .fil0 {fill:white}
   ]]>
  </style>
 </defs>
 <g id="Layer_x0020_1">
  <metadata id="CorelCorpID_0Corel-Layer"/>
  <g id="_782752184">
   <g>
    <g>
     <polygon class="fil0 str0" points="129,138 115,143 115,190 129,191 "/>
     <polygon class="fil0 str0" points="129,138 136,142 136,192 129,191 "/>
     <g>
      <path class="fil0 str0" d="M128 143l-3 1 0 3 3 0 0 -4zm-5 1l-2 1 0 4 2 -1 0 -4zm-4 2l-2 0 0 4 2 -1 0 -3z"/>
      <path class="fil0 str0" d="M128 151l-3 1 0 3 3 0 0 -4zm-5 1l-2 1 0 3 2 0 0 -4zm-4 1l-2 1 0 3 2 0 0 -4z"/>
      <path class="fil0 str0" d="M128 159l-3 0 0 4 3 0 0 -4zm-5 1l-2 0 0 4 2 -1 0 -3zm-4 0l-2 1 0 3 2 0 0 -4z"/>
      <path class="fil0 str0" d="M128 167l-3 0 0 4 3 0 0 -4zm-5 1l-2 0 0 3 2 0 0 -3zm-4 0l-2 0 0 4 2 0 0 -4z"/>
      <path class="fil0 str0" d="M128 175l-3 0 0 4 3 0 0 -4zm-5 0l-2 0 0 4 2 0 0 -4zm-4 1l-2 0 0 3 2 0 0 -3z"/>
     </g>
     <g>
      <polygon class="fil0 str0" points="132,144 134,145 134,149 132,148 "/>
      <polygon class="fil0 str0" points="132,152 134,153 134,156 132,156 "/>
      <polygon class="fil0 str0" points="132,160 134,160 134,164 132,163 "/>
      <polygon class="fil0 str0" points="132,168 134,168 134,171 132,171 "/>
      <polygon class="fil0 str0" points="132,175 134,175 134,179 132,179 "/>
     </g>
    </g>
    <g>
     <polygon class="fil0 str0" points="148,124 129,131 129,191 148,192 "/>
     <polygon class="fil0 str0" points="148,124 157,129 157,193 148,192 "/>
     <g>
      <path class="fil0 str0" d="M145 131l-3 1 0 5 3 -1 0 -5zm-5 2l-3 1 0 4 3 -1 0 -4zm-5 1l-3 1 0 5 3 -1 0 -5z"/>
      <path class="fil0 str0" d="M145 141l-3 1 0 5 3 -1 0 -5zm-5 2l-3 0 0 5 3 -1 0 -4zm-5 1l-3 1 0 4 3 0 0 -5z"/>
      <path class="fil0 str0" d="M145 151l-3 1 0 5 3 -1 0 -5zm-5 1l-3 1 0 5 3 -1 0 -5zm-5 1l-3 1 0 4 3 0 0 -5z"/>
      <path class="fil0 str0" d="M145 162l-3 0 0 5 3 0 0 -5zm-5 1l-3 0 0 4 3 0 0 -4zm-5 0l-3 1 0 4 3 0 0 -5z"/>
      <path class="fil0 str0" d="M145 172l-3 0 0 5 3 0 0 -5zm-5 0l-3 1 0 4 3 0 0 -5zm-5 1l-3 0 0 5 3 0 0 -5z"/>
     </g>
     <g>
      <polygon class="fil0 str0" points="151,133 154,134 154,138 151,137 "/>
      <polygon class="fil0 str0" points="151,143 154,143 154,148 151,147 "/>
      <polygon class="fil0 str0" points="151,152 154,153 154,158 151,157 "/>
      <polygon class="fil0 str0" points="151,163 154,163 154,167 151,167 "/>
      <polygon class="fil0 str0" points="151,172 154,173 154,177 151,177 "/>
     </g>
    </g>
    <g>
     <polygon class="fil0 str0" points="172,128 154,135 154,193 172,194 "/>
     <polygon class="fil0 str0" points="172,128 181,133 181,195 172,194 "/>
     <g>
      <path class="fil0 str0" d="M170 135l-3 1 0 4 3 0 0 -5zm-5 2l-3 1 0 4 3 -1 0 -4zm-5 1l-3 1 0 4 3 0 0 -5z"/>
      <path class="fil0 str0" d="M170 145l-3 1 0 4 3 0 0 -5zm-5 1l-3 1 0 4 3 0 0 -5zm-5 1l-3 1 0 5 3 -1 0 -5z"/>
      <path class="fil0 str0" d="M170 154l-3 1 0 5 3 -1 0 -5zm-5 1l-3 1 0 5 3 -1 0 -5zm-5 1l-3 1 0 4 3 0 0 -5z"/>
      <path class="fil0 str0" d="M170 165l-3 0 0 5 3 -1 0 -4zm-5 0l-3 1 0 4 3 0 0 -5zm-5 1l-3 1 0 4 3 -1 0 -4z"/>
      <path class="fil0 str0" d="M170 175l-3 0 0 5 3 0 0 -5zm-5 0l-3 0 0 5 3 0 0 -5zm-5 0l-3 1 0 4 3 0 0 -5z"/>
     </g>
     <g>
      <polygon class="fil0 str0" points="175,137 178,138 178,142 175,141 "/>
      <polygon class="fil0 str0" points="175,146 178,147 178,151 175,151 "/>
      <polygon class="fil0 str0" points="175,155 178,156 178,161 175,160 "/>
      <polygon class="fil0 str0" points="175,165 178,166 178,170 175,170 "/>
      <polygon class="fil0 str0" points="175,175 178,175 178,180 175,180 "/>
     </g>
    </g>
    <g>
     <polygon class="fil0 str0" points="199,106 175,116 175,195 199,197 "/>
     <polygon class="fil0 str0" points="199,106 211,113 211,198 199,197 "/>
     <g>
      <path class="fil0 str0" d="M196 116l-4 1 0 6 4 -1 0 -6zm-7 2l-4 1 0 6 4 -1 0 -6zm-7 2l-4 1 0 6 4 -1 0 -6z"/>
      <path class="fil0 str0" d="M196 129l-4 1 0 7 4 -1 0 -7zm-7 2l-4 1 0 6 4 -1 0 -6zm-7 2l-4 1 0 6 4 -1 0 -6z"/>
      <path class="fil0 str0" d="M196 142l-4 1 0 6 4 0 0 -7zm-7 2l-4 0 0 7 4 -1 0 -6zm-7 1l-4 1 0 6 4 -1 0 -6z"/>
      <path class="fil0 str0" d="M196 156l-4 1 0 6 4 -1 0 -6zm-7 1l-4 1 0 6 4 -1 0 -6zm-7 1l-4 1 0 5 4 0 0 -6z"/>
      <path class="fil0 str0" d="M196 170l-4 0 0 7 4 -1 0 -6zm-7 0l-4 0 0 7 4 0 0 -7zm-7 1l-4 0 0 6 4 0 0 -6z"/>
     </g>
     <g>
      <polygon class="fil0 str0" points="203,118 207,119 207,125 203,124 "/>
      <polygon class="fil0 str0" points="203,131 207,132 207,138 203,137 "/>
      <polygon class="fil0 str0" points="203,144 207,144 207,151 203,150 "/>
      <polygon class="fil0 str0" points="203,157 207,158 207,164 203,163 "/>
      <polygon class="fil0 str0" points="203,170 207,170 207,177 203,177 "/>
     </g>
    </g>
    <g>
     <polygon class="fil0 str0" points="239,67 204,82 204,197 239,200 "/>
     <polygon class="fil0 str0" points="239,67 257,77 257,201 239,200 "/>
     <g>
      <path class="fil0 str0" d="M235 81l-6 2 0 9 6 -2 0 -9zm-11 3l-6 2 0 9 6 -2 0 -9zm-10 3l-6 2 0 9 6 -2 0 -9z"/>
      <path class="fil0 str0" d="M235 100l-6 2 0 9 6 -1 0 -10zm-11 3l-6 2 0 9 6 -2 0 -9zm-10 3l-6 1 0 9 6 -1 0 -9z"/>
      <path class="fil0 str0" d="M235 120l-6 1 0 9 6 -1 0 -9zm-11 2l-6 1 0 9 6 -1 0 -9zm-10 2l-6 1 0 9 6 -1 0 -9z"/>
      <path class="fil0 str0" d="M235 141l-6 0 0 9 6 -1 0 -8zm-11 1l-6 1 0 8 6 0 0 -9zm-10 1l-6 1 0 8 6 0 0 -9z"/>
      <path class="fil0 str0" d="M235 160l-6 1 0 9 6 0 0 -10zm-11 1l-6 0 0 10 6 0 0 -10zm-10 1l-6 0 0 9 6 0 0 -9z"/>
     </g>
     <g>
      <polygon class="fil0 str0" points="245,84 251,86 251,95 245,93 "/>
      <polygon class="fil0 str0" points="245,103 251,105 251,114 245,112 "/>
      <polygon class="fil0 str0" points="245,122 251,123 251,132 245,131 "/>
      <polygon class="fil0 str0" points="245,142 251,143 251,151 245,151 "/>
      <polygon class="fil0 str0" points="245,161 251,161 251,171 245,171 "/>
     </g>
    </g>
    <line class="fil1 str0" x1="309" y1="205" x2="255" y2= "201" />
    <g>
     <polygon class="fil0 str0" points="285,91 249,103 249,201 285,203 "/>
     <polygon class="fil0 str0" points="285,91 302,100 302,205 285,203 "/>
     <g>
      <path class="fil0 str0" d="M280 103l-6 1 0 8 6 -1 0 -8zm-10 3l-6 1 0 8 6 -2 0 -7zm-10 2l-6 2 0 7 6 -1 0 -8z"/>
      <path class="fil0 str0" d="M280 119l-6 2 0 8 6 -1 0 -9zm-10 3l-6 1 0 8 6 -1 0 -8zm-10 2l-6 1 0 8 6 -2 0 -7z"/>
      <path class="fil0 str0" d="M280 136l-6 1 0 8 6 -1 0 -8zm-10 2l-6 1 0 7 6 -1 0 -7zm-10 1l-6 1 0 8 6 -1 0 -8z"/>
      <path class="fil0 str0" d="M280 153l-6 1 0 7 6 0 0 -8zm-10 1l-6 1 0 7 6 0 0 -8zm-10 2l-6 0 0 7 6 0 0 -7z"/>
      <path class="fil0 str0" d="M280 170l-6 0 0 8 6 0 0 -8zm-10 1l-6 0 0 8 6 0 0 -8zm-10 0l-6 1 0 7 6 0 0 -8z"/>
     </g>
     <g>
      <polygon class="fil0 str0" points="291,106 297,107 297,115 291,113 "/>
      <polygon class="fil0 str0" points="291,122 297,123 297,131 291,130 "/>
      <polygon class="fil0 str0" points="291,138 297,139 297,146 291,145 "/>
      <polygon class="fil0 str0" points="291,154 297,155 297,162 291,162 "/>
      <polygon class="fil0 str0" points="291,171 297,171 297,179 291,179 "/>
     </g>
    </g>
    <g>
     <polygon class="fil0 str0" points="237,109 213,119 213,197 237,200 "/>
     <polygon class="fil0 str0" points="237,109 249,116 249,200 237,200 "/>
     <g>
      <path class="fil0 str0" d="M234 118l-4 2 0 6 4 -1 0 -7zm-7 3l-4 1 0 6 4 -1 0 -6zm-7 2l-4 1 0 6 4 -1 0 -6z"/>
      <path class="fil0 str0" d="M234 132l-4 1 0 6 4 -1 0 -6zm-7 2l-4 1 0 6 4 -1 0 -6zm-7 1l-4 1 0 6 4 -1 0 -6z"/>
      <path class="fil0 str0" d="M234 145l-4 1 0 6 4 -1 0 -6zm-7 1l-4 1 0 6 4 0 0 -7zm-7 2l-4 1 0 5 4 0 0 -6z"/>
      <path class="fil0 str0" d="M234 159l-4 1 0 6 4 -1 0 -6zm-7 1l-4 1 0 5 4 0 0 -6zm-7 1l-4 1 0 5 4 0 0 -6z"/>
      <path class="fil0 str0" d="M234 172l-4 1 0 6 4 0 0 -7zm-7 1l-4 0 0 7 4 -1 0 -6zm-7 0l-4 1 0 6 4 0 0 -7z"/>
     </g>
     <g>
      <polygon class="fil0 str0" points="241,121 246,122 246,128 241,127 "/>
      <polygon class="fil0 str0" points="241,134 246,135 246,141 241,140 "/>
      <polygon class="fil0 str0" points="241,146 246,147 246,153 241,153 "/>
      <polygon class="fil0 str0" points="241,160 246,161 246,166 241,166 "/>
      <polygon class="fil0 str0" points="241,173 246,173 246,180 241,179 "/>
     </g>
    </g>
    <polygon class="fil0 str0" points="302,223 115,192 302,208 309,205 309,221 "/>
    <line class="fil1 str0" x1="302" y1="208" x2="302" y2= "223" />
   </g>
   <path class="fil2 str1" d="M253 217c4,0 9,7 9,16 0,8 -5,15 -9,15l-9 0c5,0 9,-7 9,-15 0,-9 -4,-16 -9,-16l9 0z"/>
   <ellipse class="fil1 str1" cx="244" cy="233" rx="9" ry="16"/>
   <path class="fil2 str1" d="M105 215c3,0 6,5 6,11 0,6 -3,11 -6,11l-6 0c3,0 6,-5 6,-11 0,-6 -3,-11 -6,-11l6 0z"/>
   <path class="fil2 str1" d="M165 217c7,0 12,9 12,20 0,12 -5,21 -12,21l-11 0c6,0 11,-9 11,-21 0,-11 -5,-20 -11,-20l11 0z"/>
   <path class="fil3 str1" d="M92 175l71 -50c0,0 13,-12 28,-8 15,4 48,23 53,27 3,3 6,5 10,11 2,3 3,8 5,14 3,8 12,45 9,53 0,0 1,0 1,3 0,2 2,10 -2,12 -4,3 -16,6 -40,9 -24,3 -25,3 -25,3 0,0 -16,0 -20,-1 -1,-1 -6,-2 -13,-4 0,-1 0,-2 0,-3 0,-14 -7,-26 -16,-26 -7,0 -13,9 -15,21l-32 -9 0 0c0,-7 -4,-13 -9,-13 -3,0 -6,3 -7,9l-8 -2c0,0 0,-12 1,-25 1,-12 1,-14 3,-16 1,-2 6,-5 6,-5z"/>
   <path class="fil1 str1" d="M267 203c0,3 1,7 1,10 -1,1 -2,3 -5,4 -4,1 -10,-5 -3,-8 3,-1 5,-3 7,-6z"/>
   <path class="fil2 str1" d="M262 195c2,15 -8,13 -27,12 -16,-2 -30,-11 -30,-20 0,-21 -2,-38 -9,-58 0,0 -3,-7 6,-3 9,4 40,18 45,24 4,7 6,9 15,45z"/>
   <path class="fil2 str1" d="M157 186l6 13 31 -2c0,0 5,1 5,-10 0,-11 -1,-26 -4,-40 -3,-13 -4,-19 -7,-21 -3,-2 -16,2 -56,29 -39,27 -43,25 -43,33 -1,8 -1,17 -1,17l25 -6 0 17 24 1 0 -25 20 -6z"/>
   <polyline class="fil1 str1" points="113,199 113,172 137,157 137,192 "/>
   <line class="fil1 str1" x1="125" y1="216" x2="125" y2= "165" />
   <polyline class="fil1 str1" points="157,186 157,145 137,157 "/>
   <line class="fil1 str1" x1="157" y1="145" x2="157" y2= "139" />
   <line class="fil1 str1" x1="113" y1="172" x2="89" y2= "187" />
   <path class="fil1 str1" d="M206 200c0,0 4,5 12,8 7,3 13,3 13,7 0,4 -2,5 -12,4 -20,-2 -19,-26 -13,-19z"/>
   <path class="fil1 str1" d="M268 222l-65 5 -38 -3m-22 -2l-39 -3m-12 -1l-10 -1"/>
   <circle class="fil1 str1" cx="221" cy="214" r="4"/>
   <circle class="fil1 str1" cx="211" cy="210" r="4"/>
   <circle class="fil1 str1" cx="264" cy="212" r="3"/>
   <path class="fil4 str1" d="M254 155c3,0 16,1 19,2 4,1 6,13 6,15 -1,1 -2,1 -4,2 -2,0 -2,0 -3,-4 -1,-4 -2,-10 -2,-10 -6,0 -10,0 -14,0l-2 -5z"/>
   <path class="fil5 str1" d="M191 131c4,0 17,1 21,3 4,2 6,16 7,18 0,2 -2,4 -6,4 -4,0 -6,0 -7,-3 -1,-4 -2,-16 -2,-16 -5,-1 -8,-1 -12,-1l-1 -5z"/>
   <ellipse class="fil1 str1" cx="154" cy="237" rx="12" ry="20"/>
   <ellipse class="fil1 str1" cx="99" cy="226" rx="6" ry="11"/>
   <line class="fil1 str1" x1="138" y1="236" x2="142" y2= "236" />
   <ellipse class="fil1 str1" cx="153" cy="237" rx="4" ry="11"/>
   <ellipse class="fil1 str1" cx="98" cy="226" rx="2" ry="5"/>
   <line class="fil1 str1" x1="90" y1="223" x2="93" y2= "223" />
   <polygon class="fil2 str1" points="238,236 238,230 255,228 255,234 "/>
   <g>
    <line class="fil1 str0" x1="41" y1="222" x2="156" y2= "283" />
    <line class="fil1 str0" x1="41" y1="222" x2="127" y2= "282" />
   </g>
   <g>
    <path class="fil1 str1" d="M64 209l-2 -2m-5 -5l-1 -1"/>
    <path class="fil1 str1" d="M56 209l1 -2m5 -5l2 -1"/>
   </g>
   <circle class="fil1 str1" cx="294" cy="193" r="4"/>
   <g>
    <path class="fil1 str1" d="M166 102l-2 0m-7 0l-2 0"/>
    <path class="fil1 str1" d="M161 108l0 -2m0 -7l0 -2"/>
   </g>
  </g>
 </g>
</svg>
