<?xml version="1.0" encoding="UTF-8"?>
<!DOCTYPE svg PUBLIC "-//W3C//DTD SVG 1.1//EN" "http://www.w3.org/Graphics/SVG/1.1/DTD/svg11.dtd">
<!-- Creator: CorelDRAW X7 -->
<svg xmlns="http://www.w3.org/2000/svg" xml:space="preserve" width="100px" height="100px" version="1.1" style="shape-rendering:geometricPrecision; text-rendering:geometricPrecision; image-rendering:optimizeQuality; fill-rule:evenodd; clip-rule:evenodd"
viewBox="0 0 100 100"
 xmlns:xlink="http://www.w3.org/1999/xlink">
 <defs>
  <style type="text/css">
   <![CDATA[
    .fil0 {fill:none}
    .fil1 {fill:#FEFEFE}
    .fil5 {fill:#FF8C8C}
    .fil2 {fill:#DCDDDD;fill-rule:nonzero}
    .fil3 {fill:#C9CACA;fill-rule:nonzero}
    .fil4 {fill:#5F5D5D;fill-rule:nonzero}
    .fil6 {fill:#E62129;fill-rule:nonzero}
   ]]>
  </style>
 </defs>
 <g id="Layer_x0020_1">
  <metadata id="CorelCorpID_0Corel-Layer"/>
  <g id="_447334936">
   <rect class="fil0" width="100" height="100"/>
   <g>
    <path class="fil1" d="M78 43c0,1 0,1 0,1 0,1 1,1 1,1 0,1 -3,2 -3,2 0,0 -3,-1 -3,-2 0,0 1,0 1,-1 0,0 0,0 0,-1 0,0 2,0 2,0 1,0 2,0 2,0z"/>
    <path class="fil2" d="M78 43c1,0 1,1 0,1 0,0 0,0 0,0 0,0 0,0 1,0l0 1c0,0 0,0 0,0l0 0c0,0 0,0 0,0 0,1 0,1 -1,2 -1,0 -1,1 -2,1l0 0 0 0c0,0 0,0 0,0 0,0 0,0 0,0l0 0c0,0 -1,-1 -2,-1 -1,-1 -1,-1 -1,-2l0 0c0,0 0,0 0,0l0 0c0,0 0,0 0,-1l1 0c0,0 0,0 0,0l0 0c0,0 0,0 0,0 0,0 -1,-1 0,-1l0 0c0,0 0,0 1,0 0,0 1,-1 1,-1 0,0 0,0 0,0 0,0 1,1 1,1 1,0 1,0 1,0l0 0zm0 1c0,0 0,0 0,0l0 0c0,0 -1,-1 -1,-1 0,0 -1,0 -1,0 0,0 -1,0 -1,0 0,0 -1,1 -1,1l0 0 0 0c0,0 0,0 0,0 0,0 1,0 0,1l0 0c0,0 0,0 0,0l0 0c0,0 0,0 0,0l0 0c0,1 0,1 1,1 0,1 1,1 1,1l0 0 0 0 0 0 0 0c0,0 1,0 2,-1 0,0 1,0 1,-1 -1,0 -1,0 -1,0l0 0c0,0 0,0 0,0 0,-1 0,-1 0,-1zm1 1l0 0 0 0 0 0 0 0z"/>
    <rect class="fil1" x="75" y="35" width="1.36001" height="10.3432" rx="1" ry="5"/>
    <path class="fil2" d="M76 45l0 0c0,0 0,0 -1,0l0 0c0,0 0,0 0,-1l0 -9c0,0 0,0 0,0l0 0c1,0 1,-1 1,-1l0 0c0,0 1,1 1,1l0 0c0,0 0,0 0,0l0 9c0,1 0,1 0,1l0 0c0,0 -1,0 -1,0zm0 0l0 0c0,0 0,0 0,0l0 0c0,0 0,-1 0,-1l0 -9c0,0 0,0 0,0l0 0 0 0c0,0 0,0 0,0l0 0c0,0 0,0 0,0l0 0c0,0 0,0 0,0l0 9c0,0 0,1 0,1l0 0 0 0c0,0 0,0 0,0z"/>
    <polygon class="fil1" points="76,33 78,33 80,38 82,40 76,40 70,40 72,38 74,33 "/>
    <g>
     <path class="fil2" d="M76 33l2 0c0,0 1,0 1,0l1 4 2 3c0,0 0,1 0,1 0,0 0,0 0,0l0 0 -6 0 -6 0c0,0 0,0 0,-1 0,0 0,0 0,0l2 -3 2 -4c0,0 0,0 0,0l0 0 2 0zm2 1l-2 0 -2 0 -1 4 0 0c0,0 0,0 0,0l-2 2 5 0 5 0 -1 -2c0,0 0,0 0,0l-2 -4zm1 -1c0,0 0,0 0,0l0 0z"/>
    </g>
    <path class="fil1" d="M22 43c0,1 0,1 0,1 0,1 -1,1 -1,1 0,1 3,2 3,2 0,0 3,-1 3,-2 0,0 -1,0 -1,-1 0,0 0,0 0,-1 0,0 -2,0 -2,0 -1,0 -2,0 -2,0z"/>
    <path class="fil2" d="M22 44c0,0 0,0 0,0 0,0 0,0 0,1l0 0c0,0 0,0 0,0l0 0c0,0 0,0 -1,0 0,1 1,1 1,1 1,1 2,1 2,1l0 0 0 0 0 0 0 0 0 0c0,0 1,0 1,-1 1,0 1,0 1,-1l0 0c0,0 0,0 0,0l0 0 0 0c0,0 0,0 0,0 -1,-1 0,-1 0,-1 0,0 0,0 0,0l0 0 0 0c0,0 -1,-1 -1,-1 0,0 -1,0 -1,0 0,0 -1,0 -1,0 0,0 -1,1 -1,1l0 0zm0 0c-1,0 -1,-1 0,-1l0 0c0,0 0,0 1,0 0,0 1,-1 1,-1 0,0 0,0 0,0 0,0 1,1 1,1 1,0 1,0 1,0l0 0c1,0 0,1 0,1 0,0 0,0 0,0 0,0 0,0 1,0l0 0c0,1 0,1 0,1l0 0c0,0 0,0 0,0l0 0c0,1 0,1 -1,2 -1,0 -2,1 -2,1l0 0c0,0 0,0 0,0 0,0 0,0 0,0l0 0c-1,0 -1,-1 -2,-1 -1,-1 -1,-1 -1,-2 0,0 0,0 0,0l0 0c0,0 0,0 0,-1l0 0 0 0c1,0 1,0 1,0l0 0 0 0c0,0 0,0 0,0zm-1 1l0 0 0 0 0 0 0 0z"/>
    <rect class="fil1" x="23" y="35" width="1.36001" height="10.3432" rx="1" ry="5"/>
    <path class="fil2" d="M24 45l0 0c0,0 0,0 0,0l0 0 0 0c0,0 0,-1 0,-1l0 -9c0,0 0,0 0,0l0 0c0,0 0,0 0,0l0 0c0,0 0,0 0,0 0,0 0,0 0,0l0 9c0,0 0,1 0,1 0,0 0,0 0,0zm0 0l0 0c0,0 -1,0 -1,0 0,0 0,0 0,-1l0 -9c0,0 0,0 0,0 0,0 1,-1 1,-1l0 0c0,0 0,1 1,1l0 0c0,0 0,0 0,0l0 9c0,1 0,1 0,1l0 0c-1,0 -1,0 -1,0z"/>
    <polygon class="fil1" points="24,33 22,33 20,38 18,40 24,40 30,40 28,38 26,33 "/>
    <path class="fil2" d="M24 34l-2 0 -2 4c0,0 0,0 0,0l-1 2 5 0 5 0 -2 -2c0,0 0,0 0,0l0 0 -1 -4 -2 0zm-2 -1l2 0 2 0 0 0c0,0 0,0 0,0l2 4 2 3c0,0 0,0 0,0 0,1 0,1 0,1l-6 0 -6 0 0 0c0,0 0,0 0,0 0,0 0,-1 0,-1l2 -3 1 -4c0,0 1,0 1,0z"/>
    <polygon class="fil1" points="11,62 32,62 25,75 11,75 "/>
    <g>
     <path class="fil3" d="M11 61l0 0 21 0c0,0 0,1 0,1 0,0 0,0 0,0l-7 13c0,1 0,1 0,1l-14 0c0,0 0,-1 0,-1l0 0 0 -13c0,0 0,-1 0,-1zm21 1l-20 0 0 13 12 0 8 -13zm-7 14c0,0 0,0 -1,0l1 0z"/>
    </g>
    <path class="fil1" d="M11 62l6 -4 18 0c0,0 -3,4 -3,4l-21 0z"/>
    <path class="fil3" d="M11 61l6 -4c0,0 0,0 0,0l0 0 18 0c0,0 0,0 0,1 0,0 0,0 0,0l-3 4c0,0 0,0 0,0l0 0 -21 0c0,0 0,0 0,0 0,0 0,0 0,-1zm6 -3l-5 3 20 0 2 -3 -17 0z"/>
    <line class="fil0" x1="11" y1="68" x2="28" y2= "68" />
    <path class="fil3" d="M11 69c0,0 0,0 0,-1 0,0 0,0 0,0l17 0c0,0 0,0 0,0 0,1 0,1 0,1l-17 0z"/>
    <polyline class="fil0" points="19,64 19,66 24,66 24,64 "/>
    <path class="fil3" d="M19 64c0,0 0,0 0,0 0,0 0,0 0,0l0 1 5 0 0 -1c0,0 0,0 0,0 1,0 1,0 1,0l0 2 0 0c0,0 0,0 -1,0l-5 0 0 0c0,0 0,0 0,0l0 -2z"/>
    <polyline class="fil0" points="19,71 19,72 24,72 24,71 "/>
    <path class="fil3" d="M19 71c0,0 0,-1 0,-1 0,0 0,1 0,1l0 1 5 0 0 -1c0,0 0,-1 0,-1 1,0 1,1 1,1l0 1 0 0c0,0 0,0 -1,0l-5 0 0 0c0,0 0,0 0,0l0 -1z"/>
    <polygon class="fil1" points="89,62 68,62 75,75 89,75 "/>
    <path class="fil3" d="M88 62l-20 0 8 13 12 0 0 -13zm-20 -1l21 0 0 0c0,0 0,1 0,1l0 13 0 0c0,0 0,1 0,1l-14 0c0,0 0,0 0,-1l-7 -13c0,0 0,0 0,0 0,0 0,-1 0,-1z"/>
    <path class="fil1" d="M89 62l-6 -4 -18 0c0,0 3,4 3,4l21 0z"/>
    <path class="fil3" d="M88 61l-5 -3 -17 0 2 3 20 0zm-5 -4l6 4c0,1 0,1 0,1 0,0 0,0 0,0l-21 0 0 0c0,0 0,0 0,0l-3 -4c0,0 0,0 0,0 0,-1 0,-1 0,-1l18 0 0 0c0,0 0,0 0,0z"/>
    <line class="fil0" x1="89" y1="68" x2="72" y2= "68" />
    <path class="fil3" d="M89 68c0,0 0,0 0,0 0,1 0,1 0,1l-17 0c0,0 0,0 0,-1 0,0 0,0 0,0l17 0z"/>
    <polyline class="fil0" points="81,64 81,66 76,66 76,64 "/>
    <path class="fil3" d="M81 64c0,0 0,0 0,0 0,0 0,0 0,0l0 2c0,0 0,0 0,0l0 0 -5 0c-1,0 -1,0 -1,0l0 0 0 -2c0,0 0,0 1,0 0,0 0,0 0,0l0 1 5 0 0 -1z"/>
    <polyline class="fil0" points="81,71 81,72 76,72 76,71 "/>
    <path class="fil3" d="M81 71c0,0 0,-1 0,-1 0,0 0,1 0,1l0 1c0,0 0,0 0,0l0 0 -5 0c-1,0 -1,0 -1,0l0 0 0 -1c0,0 0,-1 1,-1 0,0 0,1 0,1l0 1 5 0 0 -1z"/>
    <rect class="fil1" x="33" y="24" width="33.5616" height="10.2608"/>
    <path class="fil2" d="M33 23l0 0 34 0c0,0 0,0 0,1l0 0 0 10c0,0 0,0 0,0l0 0 -34 0c0,0 0,0 0,0l0 0 0 -10c0,-1 0,-1 0,-1zm33 1l-32 0 0 10 32 0 0 -10z"/>
    <rect class="fil1" x="35" y="25" width="30.5297" height="7.07666"/>
    <path class="fil2" d="M35 25l0 0 30 0c0,0 1,0 1,0l0 0 0 7c0,1 -1,1 -1,1l0 0 -30 0c0,0 -1,0 -1,-1l0 0 0 -7c0,0 1,0 1,0zm30 1l-30 0 0 6 30 0 0 -6z"/>
    <line class="fil0" x1="35" y1="25" x2="33" y2= "24" />
    <path class="fil2" d="M35 25c0,0 0,0 0,1 0,0 0,0 -1,-1l-1 -1c0,0 0,0 0,-1 0,0 0,0 0,0l2 2z"/>
    <line class="fil0" x1="35" y1="32" x2="33" y2= "34" />
    <path class="fil2" d="M34 32c1,0 1,0 1,0 0,0 0,0 0,1l-2 1c0,0 0,0 0,0 0,0 0,0 0,0l1 -2z"/>
    <line class="fil0" x1="65" y1="25" x2="67" y2= "24" />
    <path class="fil2" d="M66 25c-1,1 -1,1 -1,1 0,-1 0,-1 0,-1l2 -2c0,0 0,0 0,0 0,1 0,1 0,1l-1 1z"/>
    <line class="fil0" x1="65" y1="32" x2="67" y2= "34" />
    <path class="fil2" d="M65 33c0,-1 0,-1 0,-1 0,0 0,0 1,0l1 2c0,0 0,0 0,0 0,0 0,0 0,0l-2 -1z"/>
    <path class="fil2" d="M50 19l3 2 2 2c0,1 0,1 0,1 0,0 0,0 0,0l0 0 -5 0 -5 0c0,0 0,0 0,0 0,0 0,-1 0,-1l2 -2 3 -2c0,0 0,0 0,0zm2 3l-2 -2 -2 2 -2 1 4 0 4 0 -2 -1z"/>
    <circle class="fil1" cx="50" cy="20" r="1"/>
    <path class="fil2" d="M50 18c0,0 1,0 1,1l0 0 0 0c0,0 0,0 0,1 0,0 0,0 0,0l0 0 0 0c0,1 -1,1 -1,1 0,0 -1,0 -1,-1l0 0 0 0c0,0 0,0 0,0 0,-1 0,-1 0,-1l0 0 0 0c0,-1 1,-1 1,-1zm0 1c0,0 0,0 0,0 0,0 0,0 0,0l0 0 0 0c-1,0 -1,0 -1,1 0,0 0,0 1,0l0 0 0 0c0,0 0,0 0,0 0,0 0,0 0,0l0 0 0 0c1,0 1,0 1,0 0,-1 0,-1 -1,-1l0 0 0 0z"/>
    <rect class="fil1" x="22" y="76" width="55.0464" height="5.44006"/>
    <path class="fil4" d="M22 76l0 0 56 0c0,0 0,0 0,0l0 0 0 5c0,1 0,1 0,1l0 0 -56 0c0,0 0,0 0,-1l0 0 0 -5c0,0 0,0 0,0zm55 0l-54 0 0 5 54 0 0 -5z"/>
    <path class="fil1" d="M76 73l2 3 -4 0c1,0 2,-1 2,-2l0 -1zm-54 3l2 -3 0 1c0,1 1,2 2,2l-4 0z"/>
    <path class="fil4" d="M76 73l2 3c0,0 0,0 0,0 0,0 0,0 0,0l0 0 -4 0 0 0 0 0c0,0 1,-1 1,-1l0 0c0,0 1,-1 1,-1l0 -1c0,0 0,0 0,0 0,0 0,0 0,0zm1 3l-1 -2c0,1 0,1 0,2l1 0zm-55 0l2 -3c0,0 0,0 0,0 0,0 0,0 0,0l0 0 0 1c0,0 1,1 1,1l0 0 0 0c0,0 0,1 1,1l0 0 0 0 -4 0c0,0 0,0 0,0 0,0 0,0 0,0zm2 -2l-1 2 1 0c0,-1 0,-1 0,-2z"/>
    <rect class="fil1" x="32" y="38" width="35.359" height="16.0539" rx="5" ry="2"/>
    <path class="fil4" d="M35 37l30 0c1,0 2,1 2,1 1,1 1,1 1,2l0 11c0,1 0,2 -1,2 0,1 -1,1 -2,1l-30 0c-1,0 -2,0 -2,-1l0 0c-1,0 -1,-1 -1,-2l0 -11c0,-1 0,-1 1,-2l0 0c0,0 1,-1 2,-1zm30 1l-30 0c-1,0 -1,0 -2,0l0 1c0,0 0,0 0,1l0 11c0,1 0,1 0,2l0 0 0 0c1,0 1,0 2,0l30 0c1,0 1,0 2,0 0,-1 0,-1 0,-2l0 -11c0,-1 0,-1 0,-1 -1,-1 -1,-1 -2,-1z"/>
    <path class="fil1" d="M35 54l15 0 15 0c2,0 2,1 3,2l7 13c2,2 1,5 -2,5l-23 0 -23 0c-3,0 -4,-3 -2,-5l7 -13c1,-1 1,-2 3,-2z"/>
    <path class="fil4" d="M35 53l15 0 15 0c2,0 2,1 3,2l0 0 0 1 0 0 8 13c0,1 0,1 0,2 0,0 0,1 0,1 0,1 -1,1 -1,1 -1,1 -1,1 -2,1l-23 0 -23 0c-1,0 -1,0 -2,-1 0,0 -1,0 -1,-1 0,0 0,-1 0,-1 0,-1 0,-1 0,-2l8 -13 0 0 0 -1 0 0c1,-1 1,-2 3,-2zm15 1l-15 0c-1,0 -2,1 -2,2l0 0 0 0 0 0 0 0 -8 13c0,1 -1,1 -1,2 0,0 0,1 1,1 0,0 0,1 0,1 1,0 2,0 2,0l23 0 23 0c0,0 1,0 2,0 0,0 0,-1 0,-1 1,0 1,-1 1,-1 0,-1 -1,-1 -1,-2l-8 -13 0 0 0 0 0 0 0 0c0,-1 -1,-2 -2,-2l-15 0z"/>
    <path class="fil4" d="M39 46c0,0 -1,0 -1,0 0,0 0,0 0,0l0 -1c0,-1 0,-1 0,-1l0 0 1 0c1,0 1,0 1,1 0,0 0,0 -1,0l0 0 0 1z"/>
    <path class="fil4" d="M39 42c0,1 -1,1 -1,1 0,0 0,0 0,-1l0 -1c0,0 0,0 0,0l0 0 1 0c1,0 1,0 1,0 0,0 0,0 -1,0l0 0 0 1z"/>
    <path class="fil4" d="M39 50c0,0 -1,0 -1,0 0,0 0,0 0,0l0 -2c0,0 0,0 0,0l0 0 1 0c1,0 1,0 1,0 0,0 0,1 -1,1l0 0 0 1z"/>
    <path class="fil4" d="M44 46c0,0 0,0 0,0 0,0 -1,0 -1,0l0 -1c0,-1 1,-1 1,-1l0 0 1 0c0,0 0,0 0,1 0,0 0,0 0,0l-1 0 0 1z"/>
    <path class="fil4" d="M44 42c0,1 0,1 0,1 0,0 -1,0 -1,-1l0 -1c0,0 1,0 1,0l0 0 1 0c0,0 0,0 0,0 0,0 0,0 0,0l-1 0 0 1z"/>
    <path class="fil4" d="M44 50c0,0 0,0 0,0 0,0 -1,0 -1,0l0 -2c0,0 1,0 1,0l0 0 1 0c0,0 0,0 0,0 0,0 0,1 0,1l-1 0 0 1z"/>
    <path class="fil4" d="M50 46c0,0 0,0 -1,0 0,0 0,0 0,0l0 -1c0,-1 0,-1 0,-1l0 0 2 0c0,0 0,0 0,1 0,0 0,0 0,0l-1 0 0 1z"/>
    <path class="fil4" d="M50 42c0,1 0,1 -1,1 0,0 0,0 0,-1l0 -1c0,0 0,0 0,0l0 0 2 0c0,0 0,0 0,0 0,0 0,0 0,0l-1 0 0 1z"/>
    <path class="fil4" d="M50 50c0,0 0,0 -1,0 0,0 0,0 0,0l0 -2c0,0 0,0 0,0l0 0 2 0c0,0 0,0 0,0 0,0 0,1 0,1l-1 0 0 1z"/>
    <path class="fil4" d="M55 46c0,0 0,0 0,0 0,0 0,0 0,0l0 -1c0,-1 0,-1 0,-1l0 0 1 0c0,0 1,0 1,1 0,0 -1,0 -1,0l-1 0 0 1z"/>
    <path class="fil4" d="M55 42c0,1 0,1 0,1 0,0 0,0 0,-1l0 -1c0,0 0,0 0,0l0 0 1 0c0,0 1,0 1,0 0,0 -1,0 -1,0l-1 0 0 1z"/>
    <path class="fil4" d="M55 50c0,0 0,0 0,0 0,0 0,0 0,0l0 -2c0,0 0,0 0,0l0 0 1 0c0,0 1,0 1,0 0,0 -1,1 -1,1l-1 0 0 1z"/>
    <path class="fil4" d="M61 46c0,0 0,0 -1,0 0,0 0,0 0,0l0 -1c0,-1 0,-1 0,-1l1 0 1 0c0,0 0,0 0,1 0,0 0,0 0,0l-1 0 0 1z"/>
    <path class="fil4" d="M61 42c0,1 0,1 -1,1 0,0 0,0 0,-1l0 -1c0,0 0,0 0,0l1 0 1 0c0,0 0,0 0,0 0,0 0,0 0,0l-1 0 0 1z"/>
    <path class="fil4" d="M61 50c0,0 0,0 -1,0 0,0 0,0 0,0l0 -2c0,0 0,0 0,0l1 0 1 0c0,0 0,0 0,0 0,0 0,1 0,1l-1 0 0 1z"/>
    <path class="fil5" d="M32 54c1,-2 4,-3 9,-3 4,0 8,1 8,3l0 1c0,0 0,1 -1,1l-15 0c0,0 -1,-1 -1,-1l0 -1z"/>
    <path class="fil6" d="M32 54c0,-1 1,-2 3,-2 1,-1 3,-1 6,-1 2,0 4,0 6,1 1,0 2,1 3,2 0,0 0,0 0,0l0 0 0 1c0,0 -1,0 -1,1l0 0c0,0 0,0 -1,0l-15 0c0,0 -1,0 -1,0l0 0 0 0c0,-1 0,-1 0,-1l0 -1c0,0 0,0 0,0zm3 -2c-1,1 -2,1 -2,2l0 1c0,0 0,0 0,0l0 0c0,0 0,0 0,0l15 0c1,0 1,0 1,0l0 0c0,0 0,0 0,0l0 -1c0,-1 -1,-1 -2,-2 -2,0 -4,0 -6,0 -2,0 -5,0 -6,0z"/>
    <path class="fil5" d="M68 54c-1,-2 -4,-3 -9,-3 -4,0 -8,1 -8,3l0 1c0,0 0,1 1,1l15 0c0,0 1,-1 1,-1l0 -1z"/>
    <path class="fil1" d="M24 72l0 0c1,1 2,2 3,2l23 0 23 0c1,0 2,-1 3,-2l0 0 0 2c0,1 -1,2 -2,2l-48 0c-1,0 -2,-1 -2,-2l0 -2z"/>
    <path class="fil4" d="M24 72l0 0 0 0c0,0 1,0 1,0 0,0 0,1 1,1 0,0 1,0 1,0l23 0 23 0c0,0 1,0 1,0 1,0 1,-1 1,-1 1,0 1,0 1,0l0 0 0 0c0,0 0,0 0,0l0 0 0 2c0,1 0,1 0,2 -1,0 -1,0 -2,0l-48 0c-1,0 -1,0 -2,0l0 0 0 0c0,-1 0,-1 0,-2l0 -2c0,0 0,0 0,0zm1 1c0,0 0,0 -1,0l0 1c0,0 1,1 1,1l0 0c0,0 0,1 1,1l48 0c0,0 1,-1 1,-1 0,0 1,-1 1,-1l0 -1c-1,0 -1,0 -1,0 -1,1 -2,1 -2,1l-23 0 -23 0c0,0 -1,0 -2,-1z"/>
    <path class="fil5" d="M50 69l-25 0c-1,1 -1,2 -1,2l0 2c-1,0 -1,0 -1,-2 0,-3 6,-12 7,-12l20 0 0 0 0 0 20 0c1,0 7,9 7,12 0,2 0,2 -1,2l0 -2c0,0 0,-1 -1,-2l-25 0 0 0 0 0z"/>
    <path class="fil6" d="M50 69l-25 0c0,1 0,1 -1,1 0,1 0,1 0,1 0,0 0,0 0,0l0 2c0,0 0,0 0,0l0 0c0,0 -1,0 -1,0 0,-1 0,-1 0,-2 0,-2 1,-4 2,-7 2,-2 4,-5 5,-5l20 0 0 0 0 0 20 0c1,0 3,3 5,5 1,3 2,5 2,7 0,1 0,1 0,2 0,0 -1,0 -1,0 0,0 0,0 0,0l0 0 0 -2 0 0 0 0c0,0 0,0 0,-1 -1,0 -1,0 -1,-1l-25 0 0 0 0 0zm-25 0l25 0 0 0 0 0 25 0 0 0c0,0 1,0 1,0 0,0 0,1 0,1 0,0 0,1 0,1l0 1 0 0c0,0 1,0 1,-1 0,-1 -2,-4 -3,-6 -1,-3 -3,-5 -4,-5l-20 0 0 0 0 0 -20 0c-1,0 -3,2 -4,5 -1,2 -3,5 -3,6 0,1 1,1 1,1l0 0 0 -1c0,0 0,-1 0,-1 0,0 0,-1 0,-1 0,0 0,0 1,0z"/>
    <path class="fil6" d="M50 54c1,-1 2,-2 3,-2 2,-1 4,-1 6,-1 3,0 5,0 6,1 2,0 3,1 3,2 0,0 0,0 0,0l0 0 0 1c0,0 0,0 0,1l0 0c0,0 -1,0 -1,0l-15 0c-1,0 -1,0 -1,0l0 0 0 0c0,-1 -1,-1 -1,-1l0 -1c0,0 0,0 0,0zm3 -2c-1,1 -2,1 -2,2l0 1c0,0 0,0 0,0l0 0c0,0 0,0 1,0l15 0c0,0 0,0 0,0l0 0c0,0 0,0 0,0l0 -1c0,-1 -1,-1 -2,-2 -1,0 -4,0 -6,0 -2,0 -4,0 -6,0z"/>
   </g>
  </g>
 </g>
</svg>
