<?xml version="1.0" encoding="UTF-8"?>
<!DOCTYPE svg PUBLIC "-//W3C//DTD SVG 1.1//EN" "http://www.w3.org/Graphics/SVG/1.1/DTD/svg11.dtd">
<!-- Creator: CorelDRAW X7 -->
<svg xmlns="http://www.w3.org/2000/svg" xml:space="preserve" width="350px" height="350px" version="1.1" style="shape-rendering:geometricPrecision; text-rendering:geometricPrecision; image-rendering:optimizeQuality; fill-rule:evenodd; clip-rule:evenodd"
viewBox="0 0 350 350"
 xmlns:xlink="http://www.w3.org/1999/xlink">
 <defs>
  <style type="text/css">
   <![CDATA[
    .str0 {stroke:#DCDDDD;stroke-width:2.36222;stroke-linecap:round;stroke-linejoin:round}
    .str1 {stroke:#F7104D;stroke-width:2.36222;stroke-linecap:round;stroke-linejoin:round}
    .fil1 {fill:none}
    .fil0 {fill:#FEFEFE}
    .fil2 {fill:#FFD1D3}
   ]]>
  </style>
 </defs>
 <g id="Layer_x0020_1">
  <metadata id="CorelCorpID_0Corel-Layer"/>
  <g id="_543741896">
   <g>
    <g>
     <path class="fil0 str0" d="M271 152c2,1 -1,2 0,4 1,1 3,1 3,3 1,2 -8,7 -9,7 -2,0 -11,-5 -10,-7 0,-2 2,-2 3,-3 1,-2 -2,-3 0,-4 1,0 5,-2 7,-2 1,0 5,2 6,2z"/>
     <rect class="fil0 str0" x="262" y="123" width="4.67205" height="35.532" rx="2" ry="18"/>
     <polygon class="fil0 str0" points="265,118 272,118 278,132 284,142 265,142 245,142 251,132 257,118 "/>
    </g>
    <g>
     <path class="fil0 str0" d="M79 152c-2,1 1,2 0,4 -1,1 -3,1 -3,3 -1,2 8,7 10,7 1,0 10,-5 9,-7 0,-2 -2,-2 -3,-3 0,-2 2,-3 1,-4 -2,0 -6,-2 -7,-2 -2,0 -6,2 -7,2z"/>
     <rect class="fil0 str0" x="83" y="123" width="4.67205" height="35.532" rx="2" ry="18"/>
     <polygon class="fil0 str0" points="86,118 78,118 72,132 66,142 86,142 105,142 99,132 93,118 "/>
    </g>
   </g>
   <g>
    <g>
     <polygon class="fil0 str0" points="43,215 114,215 88,262 43,262 "/>
     <path class="fil0 str0" d="M43 215l18 -14 61 0c0,0 -8,14 -8,14l-71 0z"/>
     <line class="fil1 str0" x1="43" y1="239" x2="100" y2= "239" />
     <polyline class="fil1 str0" points="69,224 69,229 87,229 87,224 "/>
     <polyline class="fil1 str0" points="69,246 69,251 87,251 87,246 "/>
    </g>
    <g>
     <polygon class="fil0 str0" points="308,215 237,215 262,262 308,262 "/>
     <path class="fil0 str0" d="M308 215l-19 -14 -61 0c0,0 9,14 9,14l71 0z"/>
     <line class="fil1 str0" x1="308" y1="239" x2="250" y2= "239" />
     <polyline class="fil1 str0" points="281,224 281,229 263,229 263,224 "/>
     <polyline class="fil1 str0" points="281,246 281,251 263,251 263,246 "/>
    </g>
   </g>
   <g>
    <rect class="fil0 str0" x="117" y="85" width="115.294" height="35.249"/>
    <rect class="fil0 str0" x="123" y="90" width="104.879" height="24.3104"/>
    <line class="fil1 str0" x1="123" y1="90" x2="117" y2= "85" />
    <line class="fil1 str0" x1="123" y1="114" x2="117" y2= "120" />
    <line class="fil1 str0" x1="228" y1="90" x2="233" y2= "85" />
    <line class="fil1 str0" x1="228" y1="114" x2="233" y2= "120" />
   </g>
   <polygon class="fil1 str0" points="175,71 183,78 191,85 175,85 159,85 167,78 "/>
   <circle class="fil0 str0" cx="175" cy="71" r="3"/>
   <rect class="fil0 str1" x="81" y="264" width="189.101" height="18.6882"/>
   <path class="fil0 str1" d="M264 254l6 10 -12 0c3,0 6,-3 6,-7l0 -3zm-183 10l5 -10 0 3c0,4 3,7 6,7l-11 0z"/>
   <rect class="fil0 str1" x="114" y="132" width="121.469" height="55.1499" rx="18" ry="9"/>
   <path class="fil0 str1" d="M123 187l52 0 52 0c5,0 7,4 9,8l26 45c5,9 1,16 -9,16l-78 0 -78 0c-10,0 -14,-7 -9,-16l26 -45c2,-4 4,-8 9,-8z"/>
   <g>
    <g>
     <polyline class="fil1 str1" points="134,161 134,157 139,157 "/>
     <g>
      <polyline class="fil1 str1" points="134,149 134,144 139,144 "/>
      <polyline class="fil1 str1" points="134,173 134,169 139,169 "/>
     </g>
    </g>
    <g>
     <polyline class="fil1 str1" points="154,161 154,157 158,157 "/>
     <g>
      <polyline class="fil1 str1" points="154,149 154,144 158,144 "/>
      <polyline class="fil1 str1" points="154,173 154,169 158,169 "/>
     </g>
    </g>
    <g>
     <polyline class="fil1 str1" points="173,161 173,157 178,157 "/>
     <g>
      <polyline class="fil1 str1" points="173,149 173,144 178,144 "/>
      <polyline class="fil1 str1" points="173,173 173,169 178,169 "/>
     </g>
    </g>
    <g>
     <polyline class="fil1 str1" points="192,161 192,157 196,157 "/>
     <g>
      <polyline class="fil1 str1" points="192,149 192,144 196,144 "/>
      <polyline class="fil1 str1" points="192,173 192,169 196,169 "/>
     </g>
    </g>
    <g>
     <polyline class="fil1 str1" points="211,161 211,157 216,157 "/>
     <g>
      <polyline class="fil1 str1" points="211,149 211,144 216,144 "/>
      <polyline class="fil1 str1" points="211,173 211,169 216,169 "/>
     </g>
    </g>
   </g>
   <g>
    <path class="fil2 str1" d="M114 188c1,-5 14,-8 29,-8 15,0 28,3 29,8l0 3c0,2 -1,4 -2,4l-53 0c-2,0 -3,-2 -3,-4l0 -3z"/>
    <path class="fil2 str1" d="M236 188c-1,-5 -14,-8 -29,-8 -15,0 -28,3 -29,8l0 3c0,2 1,4 2,4l53 0c2,0 3,-2 3,-4l0 -3z"/>
   </g>
   <path class="fil2 str1" d="M174 240l-86 0c-2,3 -2,6 -2,8l0 6c-2,0 -3,-1 -3,-7 0,-11 18,-40 23,-40l68 0 1 0 1 0 68 0c5,0 23,29 23,40 0,6 -1,7 -3,7l0 -6c1,-2 0,-5 -2,-8l-86 0 -1 0 -1 0z"/>
   <path class="fil0 str1" d="M86 251l1 0c1,3 5,5 10,5l78 0 78 0c5,0 9,-2 11,-5l0 0 0 6c0,4 -3,7 -6,7l-166 0c-3,0 -6,-3 -6,-7l0 -6z"/>
   <g>
    <path class="fil1 str1" d="M78 179l-2 2m-5 5l-1 1"/>
    <path class="fil1 str1" d="M78 187l-2 -1m-5 -5l-1 -2"/>
   </g>
   <g>
    <path class="fil1 str1" d="M207 114l-2 0m-7 0l-2 0"/>
    <path class="fil1 str1" d="M201 120l0 -2m0 -7l0 -2"/>
   </g>
   <circle class="fil1 str1" cx="295" cy="251" r="4"/>
  </g>
 </g>
</svg>
