<?xml version="1.0" encoding="UTF-8"?>
<!DOCTYPE svg PUBLIC "-//W3C//DTD SVG 1.1//EN" "http://www.w3.org/Graphics/SVG/1.1/DTD/svg11.dtd">
<!-- Creator: CorelDRAW X7 -->
<svg xmlns="http://www.w3.org/2000/svg" xml:space="preserve" width="350px" height="350px" version="1.1" style="shape-rendering:geometricPrecision; text-rendering:geometricPrecision; image-rendering:optimizeQuality; fill-rule:evenodd; clip-rule:evenodd"
viewBox="0 0 350 350"
 xmlns:xlink="http://www.w3.org/1999/xlink">
 <defs>
  <style type="text/css">
   <![CDATA[
    .str1 {stroke:#DCDDDD;stroke-width:2.36222}
    .str0 {stroke:#DCDDDD;stroke-width:2.36222;stroke-linecap:round;stroke-linejoin:round}
    .str2 {stroke:#F7104D;stroke-width:2.36222;stroke-linecap:round;stroke-linejoin:round}
    .fil1 {fill:none}
    .fil0 {fill:#FEFEFE}
    .fil3 {fill:#FEFEFE}
    .fil2 {fill:#FFD1D3}
   ]]>
  </style>
 </defs>
 <g id="Layer_x0020_1">
  <metadata id="CorelCorpID_0Corel-Layer"/>
  <g id="_542595624">
   <g>
    <path class="fil0 str0" d="M261 157c1,4 0,9 -3,14l-16 27c-2,4 -6,5 -10,3l-20 -11c-3,-2 -4,-7 -2,-11l16 -27c2,-5 6,-8 11,-9l-1 -1c-2,-1 -2,-4 -1,-6l6 -10c4,-8 13,-11 20,-7l4 2 4 3c7,4 9,13 5,20l-7 11c-1,2 -4,3 -6,2l0 0z"/>
    <path class="fil1 str0" d="M268 130c3,2 3,5 2,7"/>
    <path class="fil1 str0" d="M255 159c0,3 -1,5 -2,8m-4 6l-10 19c-2,3 -5,4 -7,3"/>
    <path class="fil0 str0" d="M237 143l-1 -1c-2,-1 -2,-4 -1,-6l6 -10 0 -1 33 19 0 0 -7 11c-1,2 -4,3 -6,2l0 0 -24 -14z"/>
    <rect class="fil0 str0" transform="matrix(1.57047 0.906713 -0.520818 0.902083 262.218 106.804)" width="10.7552" height="10.7552" rx="3" ry="3"/>
    <rect class="fil0 str0" transform="matrix(0.902083 0.520818 -0.520818 0.902083 244.96 133.658)" width="21.6426" height="6.52326"/>
    <g>
     <line class="fil1 str0" x1="263" y1="114" x2="261" y2= "118" />
     <line class="fil1 str0" x1="272" y1="119" x2="270" y2= "124" />
    </g>
    <line class="fil1 str0" x1="268" y1="117" x2="265" y2= "121" />
   </g>
   <g>
    <path class="fil0 str1" d="M242 232l58 0c2,0 4,3 4,6l0 6c0,3 -2,6 -4,6 2,0 4,2 4,5l0 6c0,3 -2,6 -4,6l-58 0c-6,0 -9,-4 -9,-13l0 -4 0 -5c0,-9 3,-13 9,-13z"/>
    <line class="fil1 str1" x1="300" y1="250" x2="250" y2= "250" />
    <polyline class="fil1 str0" points="246,254 250,250 246,245 "/>
    <path class="fil0 str1" d="M242 198l58 0c2,0 4,2 4,5l0 6c0,3 -2,6 -4,6 2,0 4,3 4,6l0 5c0,4 -2,6 -4,6l-58 0c-6,0 -9,-3 -9,-13l0 -4 0 -4c0,-10 3,-13 9,-13z"/>
    <line class="fil1 str1" x1="300" y1="215" x2="250" y2= "215" />
    <polyline class="fil1 str0" points="246,219 250,215 246,211 "/>
   </g>
   <polygon class="fil0 str0" points="171,162 63,162 46,182 154,182 154,267 171,247 "/>
   <rect class="fil0 str0" x="46" y="182" width="108.262" height="84.9447"/>
   <line class="fil1 str2" x1="171" y1="162" x2="154" y2= "182" />
   <polygon class="fil0 str0" points="120,162 105,162 87,182 87,209 102,209 102,182 "/>
   <rect class="fil0 str0" x="56" y="239" width="29.2236" height="15.2594"/>
   <g>
    <line class="fil1 str0" x1="56" y1="200" x2="78" y2= "200" />
    <line class="fil1 str0" x1="56" y1="215" x2="71" y2= "215" />
    <line class="fil1 str0" x1="56" y1="207" x2="67" y2= "207" />
   </g>
   <rect class="fil2 str2" x="118" y="113" width="115" height="155" rx="19" ry="23"/>
   <g>
    <rect class="fil2 str2" x="134" y="268" width="12.2753" height="14.3084" rx="3" ry="3"/>
    <rect class="fil2 str2" x="204" y="268" width="12.2753" height="14.3084" rx="3" ry="3"/>
   </g>
   <rect class="fil1 str2" x="118" y="121" width="115" height="148" rx="19" ry="22"/>
   <rect class="fil2 str2" x="137" y="74" width="8.20715" height="38.8708"/>
   <rect class="fil2 str2" x="206" y="74" width="8.20715" height="38.8708"/>
   <rect class="fil2 str2" x="145" y="67" width="60.9606" height="14.0557"/>
   <rect class="fil3 str2" x="118" y="121" width="115" height="148" rx="19" ry="22"/>
   <rect class="fil1 str2" x="125" y="154" width="102" height="108" rx="13" ry="13"/>
   <rect class="fil1 str2" x="152" y="107" width="45.9165" height="6.4443"/>
   <g>
    <polyline class="fil1 str2" points="216,225 216,229 134,229 134,225 "/>
    <polyline class="fil1 str2" points="216,206 216,209 134,209 134,206 "/>
    <polyline class="fil1 str2" points="216,187 216,190 134,190 134,187 "/>
    <polyline class="fil1 str2" points="216,168 216,171 134,171 134,168 "/>
    <polyline class="fil1 str2" points="216,244 216,248 134,248 134,244 "/>
   </g>
   <rect class="fil2 str2" x="154" y="133" width="43.2602" height="9.56254"/>
   <rect class="fil2 str2" x="152" y="101" width="45.9165" height="5.6221"/>
   <g>
    <path class="fil1 str2" d="M275 236l-1 1m-5 5l-2 2"/>
    <path class="fil1 str2" d="M275 244l-1 -2m-5 -5l-2 -1"/>
   </g>
   <circle class="fil1 str2" cx="89" cy="120" r="4"/>
   <g>
    <path class="fil1 str2" d="M89 225l-2 0m-7 0l-2 0"/>
    <path class="fil1 str2" d="M83 231l0 -2m0 -7l0 -2"/>
   </g>
  </g>
 </g>
</svg>
