<?xml version="1.0" encoding="UTF-8"?>
<!DOCTYPE svg PUBLIC "-//W3C//DTD SVG 1.1//EN" "http://www.w3.org/Graphics/SVG/1.1/DTD/svg11.dtd">
<!-- Creator: CorelDRAW X7 -->
<svg xmlns="http://www.w3.org/2000/svg" xml:space="preserve" width="100px" height="100px" version="1.1" style="shape-rendering:geometricPrecision; text-rendering:geometricPrecision; image-rendering:optimizeQuality; fill-rule:evenodd; clip-rule:evenodd"
viewBox="0 0 100 100"
 xmlns:xlink="http://www.w3.org/1999/xlink">
 <defs>
  <style type="text/css">
   <![CDATA[
    .fil0 {fill:none}
    .fil3 {fill:#FEFEFE}
    .fil8 {fill:#FEFEFE}
    .fil6 {fill:#FF8C8C}
    .fil4 {fill:#DCDDDD;fill-rule:nonzero}
    .fil1 {fill:#DCDDDD;fill-rule:nonzero}
    .fil2 {fill:#5F5D5D;fill-rule:nonzero}
    .fil7 {fill:#E62129;fill-rule:nonzero}
    .fil5 {fill:#FFE0DB;fill-rule:nonzero}
   ]]>
  </style>
 </defs>
 <g id="Layer_x0020_1">
  <metadata id="CorelCorpID_0Corel-Layer"/>
  <g id="_541696568">
   <rect class="fil0" width="100" height="100"/>
   <g>
    <path class="fil1" d="M15 46l17 0c0,0 0,0 0,0l0 0 0 6c0,0 0,1 0,1l0 0 -22 0c-1,0 -1,-1 -1,-1 0,0 0,0 0,0l6 -6c0,0 0,0 0,0l0 0zm17 0l-17 0 -5 6 22 0 0 -6z"/>
    <path class="fil2" d="M38 30l2 0 0 -11 -2 0 0 11zm3 1l-3 0 0 0c0,0 0,0 0,0l0 -13 0 0c0,0 0,0 0,0l3 0 0 0c0,0 0,0 0,0l0 13 0 0c0,0 0,0 0,0z"/>
    <path class="fil2" d="M60 30l2 0 0 -11 -2 0 0 11zm2 1l-2 0 0 0c-1,0 -1,0 -1,0l0 -13 0 0c0,0 0,0 1,0l2 0 0 0c0,0 1,0 1,0l0 13 0 0c0,0 -1,0 -1,0z"/>
    <path class="fil2" d="M43 30l14 0 0 -1 -14 0 0 1zm14 1l-14 0 0 0c0,0 0,0 0,0l0 -2 0 0c0,-1 0,-1 0,-1l14 0 0 0c1,0 1,0 1,1l0 2 0 0c0,0 0,0 -1,0z"/>
    <path class="fil2" d="M43 28l14 0 0 -1 -14 0 0 1zm14 1l-14 0 0 0c0,0 0,0 0,0l0 -2 0 0c0,0 0,-1 0,-1l14 0 0 0c1,0 1,1 1,1l0 2 0 0c0,0 0,0 -1,0z"/>
    <path class="fil3" d="M77 44c0,2 0,3 -1,5l-5 8c-1,1 -2,2 -3,1l-6 -3c-1,-1 -2,-2 -1,-4l5 -8c1,-2 2,-3 3,-3l0 0c-1,-1 -1,-1 0,-2l2 -4c1,-2 4,-3 6,-2l1 1 2 1c2,1 2,4 1,6l-2 4c-1,0 -1,1 -2,0l0 0z"/>
    <g>
     <path class="fil4" d="M77 45c0,0 0,1 0,2 0,0 0,1 -1,2l-5 8c0,1 -1,2 -1,2 -1,0 -2,0 -2,0l0 -1 -6 -3 0 0 0 0c-1,0 -2,-1 -2,-2 0,0 0,-1 1,-2l0 0 0 0 5 -8c0,-1 1,-2 1,-2 1,-1 1,-1 2,-1 -1,0 -1,-1 -1,-1 0,0 0,-1 0,-1l0 0 2 -4c1,-1 2,-2 3,-2 2,-1 3,-1 4,0l0 0 1 1 0 0 0 0 2 1c1,0 2,1 2,3 0,1 0,2 -1,4l-2 3 0 0c0,0 0,1 -1,1l0 0 0 0c0,0 0,0 -1,0zm0 1c0,0 0,-1 0,-2l0 0c0,0 0,0 0,0 0,0 0,0 0,0l0 0 0 0c0,0 1,0 1,0l0 0c0,0 0,0 1,0l0 0 2 -4c0,-1 0,-2 0,-3 0,-1 -1,-2 -2,-3l-1 -1 0 0 -1 0 0 0c-1,-1 -2,-1 -3,-1 -1,1 -2,2 -3,3l-2 3 0 0c0,0 0,1 0,1 0,0 0,0 0,0l0 0 0 1c1,0 1,0 1,0 0,0 0,0 -1,0 0,0 -1,1 -1,1 -1,1 -1,1 -2,2l-5 9 0 0c0,0 0,1 0,1 0,1 0,1 1,1l0 0 6 4 0 0c1,0 1,0 2,0 0,0 0,0 1,-1l5 -9c0,0 0,-1 1,-2zm2 -2c0,0 0,0 0,0l0 0z"/>
    </g>
    <path class="fil0" d="M79 36c1,0 1,1 1,2"/>
    <path class="fil4" d="M79 36c0,0 0,0 0,0 0,-1 0,-1 0,-1 1,1 1,1 1,2 0,0 0,1 0,1 0,1 0,1 0,1 -1,-1 -1,-1 -1,-1 1,0 1,-1 1,-1 0,0 -1,-1 -1,-1z"/>
    <path class="fil0" d="M75 45c0,1 0,2 -1,3m-1 1l-3 6c-1,1 -1,2 -2,1"/>
    <path class="fil4" d="M75 45c0,0 0,0 0,0 0,0 0,0 0,0 0,0 0,1 0,1 0,1 0,1 0,2 0,0 -1,0 -1,0 0,0 0,0 0,-1 0,0 0,0 0,-1 0,0 1,-1 1,-1zm-2 4c0,0 0,0 0,0 1,0 1,0 1,1l-4 6c0,0 0,0 -1,1 0,0 -1,0 -1,0 0,0 0,-1 0,-1 0,0 0,0 0,0 0,0 1,0 1,0 0,0 0,-1 1,-1l3 -6z"/>
    <path class="fil3" d="M69 40l0 0c-1,-1 -1,-1 0,-2l2 -4 0 0 10 6 0 0 -2 4c-1,0 -1,1 -2,0l0 0 -8 -4z"/>
    <g>
     <path class="fil4" d="M69 40l0 0 0 0c0,0 -1,-1 -1,-1 0,0 0,-1 0,-1l0 0 2 -4 0 0 0 0 0 0c0,0 1,0 1,0l0 0 10 6c0,0 0,0 0,1l0 0 0 0 0 0 0 0 -2 3 0 0c0,0 0,1 -1,1l0 0 0 0c0,0 -1,0 -1,0l0 0 0 0 0 0 0 0 -8 -5zm0 -1l0 1 8 4 0 0 0 0 0 0c0,0 1,0 1,0l0 0c0,0 0,0 1,0l0 0 1 -4 -9 -5 -2 3 0 0c0,0 0,1 0,1 0,0 0,0 0,0l0 0zm10 5c0,0 0,0 0,0l0 0z"/>
    </g>
    <rect class="fil3" transform="matrix(0.282638 0.163181 -0.163181 0.282638 71.8953 37.0254)" width="21.6427" height="6.52328"/>
    <path class="fil4" d="M72 37l6 3c0,0 0,1 0,1l0 0 -1 2c0,0 0,0 0,0l-6 -4c-1,0 -1,0 0,0l1 -2c0,0 0,0 0,0l0 0 0 0zm6 4l-6 -3 -1 1 6 3 1 -1z"/>
    <line class="fil0" x1="78" y1="31" x2="77" y2= "32" />
    <path class="fil4" d="M77 31c0,-1 1,-1 1,0 0,0 0,0 0,0l-1 1c0,1 0,1 0,1 -1,-1 -1,-1 -1,-1l1 -1z"/>
    <line class="fil0" x1="81" y1="33" x2="80" y2= "34" />
    <path class="fil4" d="M80 32c0,0 1,0 1,0 0,0 0,1 0,1l-1 1c0,0 0,0 0,0 -1,0 -1,0 -1,0l1 -2z"/>
    <line class="fil0" x1="79" y1="32" x2="78" y2= "33" />
    <path class="fil4" d="M79 32c0,-1 0,-1 0,-1 0,0 0,1 0,1l0 1c-1,0 -1,0 -1,0 0,0 0,0 0,0l1 -1z"/>
    <path class="fil3" d="M71 68l18 0c1,0 1,1 1,2l0 2c0,1 0,1 -1,1 1,0 1,1 1,2l0 2c0,1 0,2 -1,2l-18 0c-2,0 -3,-1 -3,-4l0 -2 0 -1c0,-3 1,-4 3,-4z"/>
    <path class="fil4" d="M71 68l18 0c1,0 1,0 1,0l0 0c1,1 1,1 1,2l0 2c0,0 0,1 -1,1 0,0 0,0 0,0 0,0 0,1 0,1l0 0c1,0 1,1 1,1l0 2c0,1 0,1 -1,1l0 0c0,1 0,1 -1,1l-18 0c-1,0 -2,0 -2,-1 -1,-1 -1,-2 -1,-3l0 -2 0 -1c0,-2 0,-3 1,-3 0,-1 1,-1 2,-1zm18 0l-18 0c-1,0 -1,1 -2,1 0,1 -1,2 -1,3l0 1 0 2c0,1 1,2 1,3 1,0 1,0 2,0l18 0c0,0 1,0 1,0l0 0c0,0 0,-1 0,-1l0 -2c0,0 0,-1 0,-1l0 0c0,0 -1,0 -1,0l0 -1c0,0 1,0 1,0 0,-1 0,-1 0,-1l0 -2c0,-1 0,-1 0,-1l0 0c0,-1 -1,-1 -1,-1z"/>
    <line class="fil0" x1="89" y1="73" x2="73" y2= "73" />
    <polygon class="fil4" points="89,74 73,74 73,73 89,73 "/>
    <polyline class="fil0" points="72,75 73,73 72,72 "/>
    <path class="fil4" d="M72 75c0,0 0,0 0,0 0,0 0,0 0,-1l1 -1 -1 -1c0,0 0,0 0,0 0,0 0,0 0,0l2 1c0,0 0,0 0,1l-2 1z"/>
    <path class="fil3" d="M71 57l18 0c1,0 1,1 1,2l0 2c0,1 0,1 -1,1 1,0 1,1 1,2l0 2c0,1 0,2 -1,2l-18 0c-2,0 -3,-1 -3,-4l0 -2 0 -1c0,-3 1,-4 3,-4z"/>
    <path class="fil4" d="M71 57l18 0c1,0 1,0 1,0l0 0c1,1 1,1 1,2l0 2c0,0 0,1 -1,1l0 0c0,0 0,0 0,0 0,1 0,1 0,1l0 0c1,0 1,1 1,1l0 2c0,1 0,1 -1,2l0 0c0,0 0,0 -1,0l-18 0c-1,0 -2,0 -2,-1 -1,-1 -1,-2 -1,-3l0 -2 0 -1c0,-1 0,-3 1,-3 0,-1 1,-1 2,-1zm18 0l-18 0c-1,0 -1,1 -2,1 0,1 -1,2 -1,3l0 1 0 2c0,1 1,2 1,3 1,0 1,1 2,1l18 0c0,0 1,-1 1,-1l0 0c0,0 0,0 0,-1l0 -2c0,0 0,-1 0,-1l0 0c0,0 -1,0 -1,0l0 -1c0,0 1,0 1,0l0 0c0,-1 0,-1 0,-1l0 -2c0,-1 0,-1 0,-1l0 0c0,0 -1,-1 -1,-1z"/>
    <line class="fil0" x1="89" y1="62" x2="73" y2= "62" />
    <polygon class="fil4" points="89,63 73,63 73,62 89,62 "/>
    <polyline class="fil0" points="72,64 73,62 72,61 "/>
    <path class="fil4" d="M72 64c0,0 0,0 0,0 0,0 0,0 0,0l1 -2 -1 -1c0,0 0,0 0,0 0,0 0,0 0,0l2 1c0,0 0,1 0,1l-2 1z"/>
    <rect class="fil3" x="10" y="52" width="33.9205" height="26.6148"/>
    <path class="fil4" d="M43 53l-33 0 0 25 33 0 0 -25zm-33 -1l33 0 0 0c1,0 1,0 1,0l0 27 0 0c0,0 0,0 -1,0l-33 0 0 0c-1,0 -1,0 -1,0l0 -27 0 0c0,0 0,0 1,0z"/>
    <line class="fil0" x1="49" y1="46" x2="43" y2= "52" />
    <path class="fil5" d="M49 46c0,0 0,0 0,0 0,0 0,0 0,0l-5 6c0,1 -1,1 -1,0 0,0 0,0 0,0l6 -6z"/>
    <polygon class="fil3" points="33,46 28,46 23,52 23,61 27,61 27,52 "/>
    <g>
     <path class="fil4" d="M32 46l-4 0 -5 6 0 8 4 0 0 -8c0,0 0,0 0,0l0 0 5 -6zm-4 0l5 0 0 0c0,0 0,0 0,0 0,0 0,0 0,0l-5 6 0 9 0 0c0,0 -1,0 -1,0l-4 0 0 0c-1,0 -1,0 -1,0l0 -9 0 0c0,0 0,0 0,0l6 -6 0 0z"/>
    </g>
    <rect class="fil3" x="13" y="70" width="9.15629" height="4.78105"/>
    <path class="fil4" d="M22 70l-9 0 0 5 9 0 0 -5zm-9 0l9 0 0 0c0,0 0,0 0,0l0 5 0 0c0,0 0,0 0,0l-9 0 0 0c0,0 -1,0 -1,0l0 -5 0 0c0,0 1,0 1,0z"/>
    <line class="fil0" x1="13" y1="58" x2="20" y2= "58" />
    <path class="fil4" d="M13 58c0,0 -1,0 -1,0 0,-1 1,-1 1,-1l7 0c0,0 0,0 0,1 0,0 0,0 0,0l-7 0z"/>
    <line class="fil0" x1="13" y1="62" x2="17" y2= "62" />
    <path class="fil4" d="M13 63c0,0 -1,0 -1,-1 0,0 1,0 1,0l4 0c1,0 1,0 1,0 0,1 0,1 -1,1l-4 0z"/>
    <line class="fil0" x1="13" y1="60" x2="16" y2= "60" />
    <path class="fil4" d="M13 60c0,0 -1,0 -1,0 0,0 1,0 1,0l3 0c0,0 0,0 0,0 0,0 0,0 0,0l-3 0z"/>
    <rect class="fil6" x="37" y="79" width="3.84608" height="4.48308" rx="1" ry="1"/>
    <g>
     <path class="fil7" d="M38 79l2 0c1,0 1,0 1,0l0 0c0,1 0,1 0,1l0 3c0,0 0,1 0,1 0,0 0,0 -1,0l-2 0c0,0 -1,0 -1,0l0 0c0,0 0,-1 0,-1l0 -3c0,0 0,-1 0,-1l0 0 0 0c0,0 1,0 1,0zm2 1l-2 0c0,0 0,0 0,0l0 0c0,0 0,0 0,0l0 3c0,0 0,0 0,0l0 0c0,0 0,0 0,0l2 0c0,0 0,0 1,0 0,0 0,0 0,0l0 -3c0,0 0,0 0,0l0 0c-1,0 -1,0 -1,0zm1 -1c0,0 0,1 0,1l0 -1zm-4 5c0,0 0,-1 0,-1l0 1z"/>
    </g>
    <rect class="fil6" x="59" y="79" width="3.84608" height="4.48308" rx="1" ry="1"/>
    <g>
     <path class="fil7" d="M60 79l2 0c0,0 1,0 1,0l0 0c0,1 0,1 0,1l0 3c0,0 0,1 0,1l0 0 0 0c0,0 -1,0 -1,0l-2 0c0,0 -1,0 -1,0 0,0 0,-1 0,-1l0 -3c0,0 0,-1 0,-1l0 0 0 0c0,0 1,0 1,0zm2 1l-2 0c0,0 0,0 0,0l0 0c0,0 0,0 0,0l0 3c0,0 0,0 0,0 0,0 0,0 0,0l2 0c0,0 0,0 1,0l0 0c0,0 0,0 0,0l0 -3c0,0 0,0 0,0l0 0c-1,0 -1,0 -1,0zm1 -1c0,0 0,1 0,1l0 -1z"/>
    </g>
    <rect class="fil6" x="41" y="16" width="19.1001" height="4.4039"/>
    <path class="fil7" d="M41 16l0 0 19 0c0,0 0,0 0,0l0 0 0 5c0,0 0,0 0,0l0 0 -19 0c-1,0 -1,0 -1,0l0 0 0 -5c0,0 0,0 1,0zm18 1l-18 0 0 3 18 0 0 -3z"/>
    <rect class="fil8" x="32" y="33" width="36.0031" height="46.2889" rx="6" ry="7"/>
    <path class="fil2" d="M38 33l24 0c2,0 4,0 5,1 1,2 1,3 1,5l0 34c0,2 0,4 -1,5 -1,1 -3,2 -5,2l-24 0c-2,0 -3,-1 -4,-2 -2,-1 -2,-3 -2,-5l0 -34c0,-2 0,-3 2,-5 1,-1 2,-1 4,-1zm24 0l-24 0c-2,0 -3,1 -4,2 -1,1 -2,2 -2,4l0 34c0,2 1,3 2,4 1,1 2,2 4,2l24 0c2,0 3,-1 4,-2 1,-1 2,-2 2,-4l0 -34c0,-2 -1,-3 -2,-4 -1,-1 -2,-2 -4,-2z"/>
    <path class="fil2" d="M38 43l24 0c1,0 2,0 3,1l0 0c1,1 1,2 1,3l0 26c0,1 0,2 -1,3l0 0c-1,1 -2,2 -3,2l-24 0c-1,0 -2,-1 -3,-2l0 0c-1,-1 -1,-2 -1,-3l0 -26c0,-1 0,-2 1,-3l0 0 0 0 0 0c1,-1 2,-1 3,-1zm24 1l-24 0c-1,0 -2,0 -2,1l0 0c-1,0 -1,1 -1,2l0 26c0,1 0,2 1,3l0 0c0,0 1,1 2,1l24 0c1,0 2,-1 3,-1l0 0c0,-1 1,-2 1,-3l0 -26c0,-1 -1,-2 -1,-2l0 0 0 0c-1,-1 -2,-1 -3,-1z"/>
    <polyline class="fil0" points="63,66 63,67 37,67 37,66 "/>
    <path class="fil2" d="M63 66c0,-1 0,-1 0,-1 0,0 0,0 0,1l0 1c0,0 0,0 0,0l0 0 -26 0c0,0 0,0 0,0l0 0 0 -1c0,-1 0,-1 0,-1 0,0 1,0 1,1l0 0 25 0 0 0z"/>
    <path class="fil2" d="M63 60c0,-1 0,-1 0,-1 0,0 0,0 0,1l0 1c0,0 0,0 0,0l0 0 -26 0c0,0 0,0 0,0l0 0 0 -1c0,-1 0,-1 0,-1 0,0 1,0 1,1l0 0 25 0 0 0z"/>
    <path class="fil2" d="M63 54c0,-1 0,-1 0,-1 0,0 0,0 0,1l0 1c0,0 0,0 0,0l0 0 -26 0c0,0 0,0 0,0l0 0 0 -1c0,-1 0,-1 0,-1 0,0 1,0 1,1l0 0 25 0 0 0z"/>
    <path class="fil2" d="M63 48c0,-1 0,-1 0,-1 0,0 0,0 0,1l0 1c0,0 0,0 0,0l0 0 -26 0c0,0 0,0 0,0l0 0 0 -1c0,-1 0,-1 0,-1 0,0 1,0 1,1l0 0 25 0 0 0z"/>
    <path class="fil2" d="M63 72c0,0 0,-1 0,-1 0,0 0,1 0,1l0 1c0,0 0,0 0,0l0 0 -26 0c0,0 0,0 0,0l0 0 0 -1c0,0 0,-1 0,-1 0,0 1,1 1,1l0 0 25 0 0 0z"/>
    <rect class="fil6" x="43" y="37" width="13.5542" height="2.99612"/>
    <path class="fil7" d="M43 36l0 0 14 0c0,0 0,1 0,1l0 0 0 3c0,0 0,0 0,0l0 0 -14 0c0,0 0,0 0,0l0 0 0 -3c0,0 0,-1 0,-1zm14 1l-13 0 0 2 13 0 0 -2z"/>
    <path class="fil6" d="M38 31l24 0c3,0 6,2 6,6l0 2c0,-3 -3,-6 -6,-6l-24 0c-3,0 -6,3 -6,6l0 -2c0,-4 3,-6 6,-6z"/>
    <path class="fil7" d="M38 30l24 0c2,0 4,1 5,2 1,1 1,3 1,5l0 2 0 0c0,-2 -1,-3 -2,-4 -1,-1 -2,-2 -4,-2l-24 0c-2,0 -3,1 -4,2 -1,1 -2,2 -2,4l0 0 0 -2c0,-2 0,-4 2,-5 1,-1 2,-2 4,-2zm24 1l-24 0c-2,0 -3,1 -4,2 -1,0 -1,2 -1,3 0,-1 0,-1 1,-2 1,-1 2,-1 4,-1l24 0c2,0 4,0 5,1 0,1 0,1 1,2 0,-1 -1,-3 -2,-3 -1,-1 -2,-2 -4,-2z"/>
    <path class="fil1" d="M78 28l5 3c0,0 0,0 0,0 0,1 0,1 0,1l-1 2c0,1 0,1 -1,1 0,0 0,0 -1,0l-4 -3 0 0 0 0c0,0 -1,0 -1,-1 0,0 0,0 0,0l0 0 0 0 1 -2 0 0c1,-1 1,-1 1,-1 0,0 1,0 1,0l0 0 0 0zm4 3l-4 -2 0 0c0,0 -1,0 -1,0 0,0 0,0 0,0l0 0 -1 2 0 0 0 0c0,0 0,0 0,0 0,0 0,0 0,0l0 0 5 3c0,0 0,0 0,0 0,0 0,0 0,0l1 -2c0,0 0,0 0,0 0,0 0,-1 0,-1z"/>
   </g>
  </g>
 </g>
</svg>
