<?xml version="1.0" encoding="UTF-8"?>
<!DOCTYPE svg PUBLIC "-//W3C//DTD SVG 1.1//EN" "http://www.w3.org/Graphics/SVG/1.1/DTD/svg11.dtd">
<!-- Creator: CorelDRAW X7 -->
<svg xmlns="http://www.w3.org/2000/svg" xml:space="preserve" width="350px" height="350px" version="1.1" style="shape-rendering:geometricPrecision; text-rendering:geometricPrecision; image-rendering:optimizeQuality; fill-rule:evenodd; clip-rule:evenodd"
viewBox="0 0 350 350"
 xmlns:xlink="http://www.w3.org/1999/xlink">
 <defs>
  <style type="text/css">
   <![CDATA[
    .str1 {stroke:#EEEEEF;stroke-width:0.900004}
    .str2 {stroke:#EEEEEF;stroke-width:2.36222;stroke-linecap:round;stroke-linejoin:round}
    .str0 {stroke:#DCDDDD;stroke-width:2.36222;stroke-linecap:round;stroke-linejoin:round}
    .str3 {stroke:#F7104D;stroke-width:2.36222;stroke-linecap:round;stroke-linejoin:round}
    .fil1 {fill:none}
    .fil3 {fill:none;fill-rule:nonzero}
    .fil0 {fill:#FEFEFE}
    .fil5 {fill:#FCFEFF}
    .fil4 {fill:#FFD1D3}
    .fil2 {fill:#DCDDDD;fill-rule:nonzero}
   ]]>
  </style>
 </defs>
 <g id="Layer_x0020_1">
  <metadata id="CorelCorpID_0Corel-Layer"/>
  <g id="_822895088">
   <g>
    <g>
     <path class="fil0 str0" d="M253 229l-7 6c-3,-3 -7,-4 -11,-1 -3,2 -3,7 -1,10l-15 12c-3,3 -8,3 -11,-1l-23 -28c2,-2 3,-6 0,-8 -2,-3 -5,-3 -8,-1l-58 -71c-3,-3 -2,-9 1,-11l15 -13c3,3 7,4 11,1 3,-2 3,-7 1,-10l7 -6 99 121z"/>
     <path class="fil0 str0" d="M173 103l58 71c-2,2 -3,5 -1,8 3,2 6,3 9,1l23 28c3,3 2,9 -1,11l-8 7 -99 -121 8 -7c3,-2 8,-2 11,2z"/>
     <g>
      <rect class="fil0 str0" transform="matrix(0.186267 0.226698 -0.720293 0.591831 172.012 175.572)" width="49.3762" height="6.71932"/>
      <rect class="fil0 str0" transform="matrix(0.447388 0.544497 -0.720293 0.591831 143.277 140.599)" width="49.3762" height="6.71932"/>
      <g>
       <line class="fil1 str0" x1="133" y1="150" x2="150" y2= "171" />
       <line class="fil1 str0" x1="160" y1="184" x2="155" y2= "178" />
       <line class="fil1 str0" x1="165" y1="190" x2="170" y2= "196" />
      </g>
      <circle class="fil0 str0" transform="matrix(0.981282 1.19428 -1.19428 0.981282 157.962 138.535)" r="5"/>
      <g>
       <line class="fil1 str0" x1="170" y1="149" x2="193" y2= "177" />
       <line class="fil1 str0" x1="165" y1="153" x2="177" y2= "167" />
      </g>
     </g>
     <rect class="fil0 str0" transform="matrix(0.261697 0.3185 -0.720293 0.591831 217.636 206.229)" width="49.3762" height="6.71932"/>
     <g>
      <line class="fil1 str0" x1="205" y1="229" x2="211" y2= "237" />
      <g>
       <line class="fil1 str0" x1="202" y1="219" x2="215" y2= "234" />
       <line class="fil1 str0" x1="201" y1="233" x2="207" y2= "240" />
      </g>
     </g>
    </g>
    <path class="fil0 str0" d="M254 238l-10 2c-1,-4 -4,-7 -9,-6 -4,0 -6,4 -6,8l-19 3c-4,1 -8,-2 -9,-6l-6 -36c3,-1 5,-4 5,-7 -1,-3 -4,-6 -7,-5l-15 -91c-1,-4 2,-8 7,-9l19 -3c0,4 4,7 8,6 4,-1 7,-5 6,-9l10 -1 26 154z"/>
    <path class="fil0 str0" d="M247 89l15 90c-3,1 -5,4 -5,7 1,3 4,6 7,5l6 36c1,5 -2,9 -7,10l-9 1 -26 -154 10 -2c4,0 8,3 9,7z"/>
    <g>
     <rect class="fil0 str0" transform="matrix(0.047963 0.289459 -0.919708 0.152394 209.585 151.635)" width="49.3762" height="6.71932"/>
     <rect class="fil0 str0" transform="matrix(0.115201 0.695242 -0.919708 0.152394 202.185 106.979)" width="49.3762" height="6.71932"/>
     <g>
      <line class="fil1 str0" x1="188" y1="110" x2="193" y2= "137" />
      <line class="fil1 str0" x1="196" y1="153" x2="194" y2= "145" />
      <line class="fil1 str0" x1="197" y1="160" x2="198" y2= "168" />
     </g>
     <circle class="fil0 str0" transform="matrix(0.252676 1.52492 -1.52492 0.252676 215.935 112.534)" r="5"/>
     <g>
      <line class="fil1 str0" x1="222" y1="127" x2="227" y2= "163" />
      <line class="fil1 str0" x1="215" y1="128" x2="218" y2= "146" />
     </g>
    </g>
    <rect class="fil0 str0" transform="matrix(0.0673858 0.406678 -0.919708 0.152394 233.767 200.996)" width="49.3762" height="6.71932"/>
    <g>
     <line class="fil1 str0" x1="211" y1="215" x2="213" y2= "224" />
     <g>
      <line class="fil1 str0" x1="214" y1="204" x2="218" y2= "223" />
      <line class="fil1 str0" x1="206" y1="215" x2="207" y2= "225" />
     </g>
    </g>
   </g>
   <g>
    <circle class="fil0 str0" cx="85" cy="189" r="47"/>
    <path class="fil0 str0" d="M96 234c-4,1 -7,2 -11,2 -10,0 -19,-3 -27,-9 5,-1 11,-3 12,-1 1,2 8,4 6,0 -2,-4 0,-7 3,-8 3,-1 5,0 7,5 1,6 7,3 8,7 1,2 1,3 2,4z"/>
    <path class="fil0 str0" d="M124 163c5,8 7,16 7,26 0,13 -5,24 -13,33 -3,-2 -5,-4 -6,-6 -2,-4 5,-10 2,-13 -3,-4 -2,-7 5,-9 8,-1 5,-9 5,-12 1,-3 -2,-6 -4,-11 -1,-3 1,-6 4,-8z"/>
    <path class="fil0 str0" d="M38 190c0,0 0,-1 0,-1 0,-25 19,-45 44,-47 1,3 2,5 2,7 -1,6 -6,4 -6,9 0,4 9,9 9,14 0,5 4,5 3,10 0,6 -6,12 -9,7 -3,-5 -8,2 -13,-3 -5,-5 -5,6 -10,5 -4,-1 -4,10 -11,9 -6,-2 -3,-7 -6,-9 -1,-1 -2,-1 -3,-1z"/>
    <line class="fil1 str0" x1="85" y1="236" x2="85" y2= "243" />
    <path class="fil0 str0" d="M102 263c1,0 1,0 1,1 0,2 -8,4 -18,4 -10,0 -18,-2 -18,-4 0,-1 0,-1 0,-1 1,-7 13,-2 15,-20l5 0c2,18 14,13 15,20z"/>
   </g>
   <circle class="fil0 str0" cx="276" cy="222" r="46"/>
   <circle class="fil0 str0" cx="276" cy="222" r="31"/>
   <polygon class="fil0 str0" points="269,209 274,214 279,220 281,227 284,235 279,229 273,223 271,216 "/>
   <g>
    <polygon class="fil2" points="274,201 272,195 274,195 275,199 276,195 277,195 278,199 279,195 281,195 279,201 277,201 277,197 276,201 "/>
    <polygon id="1" class="fil3 str1" points="274,201 272,195 274,195 275,199 276,195 277,195 278,199 279,195 281,195 279,201 277,201 277,197 276,201 "/>
    <path class="fil2" d="M273 246l2 0c0,0 0,1 1,1 0,0 0,0 1,0 0,0 0,0 1,0 0,0 0,0 0,-1 0,0 0,0 0,0 0,0 -1,0 -1,0 -1,-1 -2,-1 -3,-1 0,0 0,-1 0,-2 0,0 0,-1 0,-1 1,0 1,0 2,0 1,0 2,0 2,0 1,0 1,1 1,1l-1 1c0,-1 -1,-1 -1,-1 0,0 0,0 -1,0 0,0 0,0 -1,0 0,0 0,0 0,0 0,0 0,1 0,1 1,0 1,0 2,0 1,0 2,1 2,1 0,0 0,1 0,1 0,1 0,1 0,2 -1,0 -2,0 -2,0 -1,0 -2,0 -3,0 0,-1 0,-1 -1,-2z"/>
   </g>
   <line class="fil1 str0" x1="302" y1="222" x2="297" y2= "222" />
   <line class="fil1 str2" x1="289" y1="199" x2="286" y2= "204" />
   <line class="fil1 str0" x1="299" y1="208" x2="294" y2= "211" />
   <line class="fil1 str0" x1="299" y1="235" x2="294" y2= "232" />
   <line class="fil1 str0" x1="289" y1="244" x2="286" y2= "239" />
   <line class="fil1 str0" x1="263" y1="244" x2="266" y2= "239" />
   <line class="fil1 str0" x1="253" y1="235" x2="259" y2= "232" />
   <line class="fil1 str0" x1="250" y1="222" x2="256" y2= "222" />
   <line class="fil1 str0" x1="253" y1="209" x2="259" y2= "212" />
   <line class="fil1 str0" x1="263" y1="199" x2="266" y2= "204" />
   <path class="fil0 str0" d="M284 176l0 -7c0,-5 -3,-9 -8,-9l0 0c-4,0 -8,4 -8,9l0 7c3,0 5,-1 8,-1 3,0 6,1 8,1z"/>
   <circle class="fil1 str0" cx="276" cy="169" r="3"/>
   <g>
    <path class="fil1 str3" d="M303 148l-1 2m-5 5l-2 1"/>
    <path class="fil1 str3" d="M303 156l-1 -1m-5 -5l-2 -2"/>
   </g>
   <path class="fil0 str3" d="M207 186c2,1 6,3 12,4 14,3 53,2 53,2l68 1c0,0 -7,7 -18,9 -11,1 -69,7 -69,7 0,0 -32,5 -45,11 -4,1 -7,2 -10,3 4,-14 7,-27 8,-33 1,-1 1,-3 1,-4z"/>
   <path class="fil1 str3" d="M322 202c-12,1 -69,7 -69,7 0,0 -28,4 -42,10l-1 -5 12 -4 27 -5 69 -7 4 4z"/>
   <circle class="fil0 str3" cx="241" cy="200" r="15"/>
   <path class="fil4 str3" d="M227 195l0 0c0,0 -7,14 -9,21 -4,21 13,16 23,6 5,-5 8,-9 10,-11 -2,3 -6,4 -10,4 -8,0 -15,-6 -15,-15 0,-2 0,-3 1,-5zm26 14l0 0 0 0 0 0z"/>
   <path class="fil4 str3" d="M187 255c4,0 11,0 20,1 16,1 21,2 21,2 0,0 1,2 -6,3 -6,0 -40,2 -40,2l0 0c2,-2 3,-5 5,-8z"/>
   <path class="fil0 str3" d="M175 131c-12,0 -21,12 -25,21 -4,6 -10,23 -6,38 4,15 16,77 31,78 15,-1 27,-63 31,-78 5,-15 -2,-32 -5,-38 -5,-9 -15,-21 -26,-21z"/>
   <path class="fil0 str3" d="M154 212c5,23 13,55 21,56 9,-1 16,-33 21,-56 4,-18 -6,-52 -21,-52 -15,0 -24,34 -21,52z"/>
   <path class="fil0 str3" d="M143 186c-2,1 -6,3 -11,4 -14,3 -54,2 -54,2l-68 1c0,0 7,7 18,9 11,1 70,7 70,7 0,0 31,5 45,11 3,1 6,2 9,3 -4,-14 -7,-27 -8,-33 -1,-1 -1,-3 -1,-4z"/>
   <path class="fil1 str3" d="M29 202c11,1 69,7 69,7 0,0 27,4 42,10l0 -5 -12 -4 -27 -5 -69 -7 -3 4z"/>
   <circle class="fil0 str3" cx="109" cy="200" r="15"/>
   <circle class="fil5 str3" cx="109" cy="200" r="9"/>
   <path class="fil4 str3" d="M118 204c-1,3 -5,6 -9,6 -1,0 -2,-1 -3,-1 -1,-4 -3,-12 1,-13 4,-1 9,5 11,8z"/>
   <path class="fil4 str3" d="M123 195l0 0c0,0 7,14 9,21 4,21 -13,16 -23,6 -5,-5 -8,-9 -10,-11 2,3 6,4 10,4 8,0 15,-6 15,-15 0,-2 0,-3 -1,-5zm-26 14l0 0 0 0 0 0z"/>
   <path class="fil4 str3" d="M163 255c-4,0 -11,0 -20,1 -16,1 -21,2 -21,2 0,0 -1,2 6,3 6,0 40,2 40,2l0 0c-2,-2 -3,-5 -5,-8z"/>
   <rect class="fil1 str3" x="173" y="184" width="4.27621" height="10.0385"/>
   <g>
    <rect class="fil4 str3" x="170" y="194" width="5.50375" height="10.6898" rx="2" ry="2"/>
    <rect class="fil4 str3" x="175" y="194" width="5.50375" height="10.6898" rx="2" ry="2"/>
   </g>
   <g>
    <path class="fil4 str3" d="M175 139c-9,0 -16,8 -20,14 0,1 -1,2 -1,3 7,-5 14,-9 21,-9 7,0 14,4 21,9 0,-1 -1,-2 -1,-3 -4,-6 -11,-14 -20,-14z"/>
    <g>
     <line class="fil1 str3" x1="168" y1="141" x2="168" y2= "148" />
     <line class="fil1 str3" x1="183" y1="141" x2="183" y2= "148" />
    </g>
   </g>
   <circle class="fil5 str3" cx="241" cy="200" r="9"/>
   <path class="fil4 str3" d="M232 204c2,3 5,6 9,6 1,0 2,-1 3,-1 1,-4 3,-12 -1,-13 -3,-1 -9,5 -11,8z"/>
   <g>
    <path class="fil1 str3" d="M50 252l-3 0m-7 0l-2 0"/>
    <path class="fil1 str3" d="M44 257l0 -2m0 -7l0 -2"/>
   </g>
   <circle class="fil1 str3" cx="100" cy="118" r="4"/>
  </g>
 </g>
</svg>
