<?xml version="1.0" encoding="UTF-8"?>
<!DOCTYPE svg PUBLIC "-//W3C//DTD SVG 1.1//EN" "http://www.w3.org/Graphics/SVG/1.1/DTD/svg11.dtd">
<!-- Creator: CorelDRAW X7 -->
<svg xmlns="http://www.w3.org/2000/svg" xml:space="preserve" width="100px" height="100px" version="1.1" style="shape-rendering:geometricPrecision; text-rendering:geometricPrecision; image-rendering:optimizeQuality; fill-rule:evenodd; clip-rule:evenodd"
viewBox="0 0 100 100"
 xmlns:xlink="http://www.w3.org/1999/xlink">
 <defs>
  <style type="text/css">
   <![CDATA[
    .fil0 {fill:none}
    .fil3 {fill:#FEFEFE}
    .fil9 {fill:#FCFEFF}
    .fil1 {fill:#FF8C8C}
    .fil7 {fill:#EEEEEF;fill-rule:nonzero}
    .fil5 {fill:#EEEEEF;fill-rule:nonzero}
    .fil4 {fill:#DCDDDD;fill-rule:nonzero}
    .fil6 {fill:#DCDDDD;fill-rule:nonzero}
    .fil8 {fill:#5F5D5D;fill-rule:nonzero}
    .fil2 {fill:#E62129;fill-rule:nonzero}
   ]]>
  </style>
 </defs>
 <g id="Layer_x0020_1">
  <metadata id="CorelCorpID_0Corel-Layer"/>
  <g id="_541699088">
   <rect class="fil0" width="100" height="100"/>
   <g>
    <path class="fil1" d="M46 74c-1,0 -3,0 -6,0 -4,1 -6,1 -6,1 0,0 0,1 2,1 2,0 12,0 12,0l0 0c-1,0 -1,-1 -2,-2z"/>
    <path class="fil2" d="M46 74c0,0 -1,0 -2,0 -1,0 -2,0 -4,0 -5,0 -6,0 -6,0 0,0 0,1 0,1 0,0 0,1 2,1 2,0 12,1 12,1 0,0 0,0 0,-1l0 0 0 0 0 0c0,0 0,0 0,0 0,0 0,0 -1,-1 0,0 0,-1 0,-1 0,0 0,0 -1,0zm-2 0c1,0 2,0 2,0 0,1 1,1 1,2 0,0 0,0 0,0 -2,0 -10,0 -11,-1 -1,0 -1,0 -1,0 0,0 2,0 5,0 2,0 3,0 4,-1z"/>
    <path class="fil3" d="M74 66l-3 2c0,-1 -2,-1 -3,0 -1,0 -1,2 0,3l-5 3c-1,1 -2,1 -3,0l-7 -8c1,-1 1,-2 0,-3 0,-1 -2,-1 -2,0l-18 -21c-1,-1 -1,-3 0,-4l5 -4c1,1 2,1 3,1 1,-1 1,-2 0,-3l3 -2 30 36z"/>
    <path class="fil4" d="M74 66l-2 2c-1,0 -1,0 -1,0l0 0 0 0c0,0 0,0 0,0 0,0 -1,0 -1,-1 -1,0 -1,1 -2,1 0,0 0,0 0,0 0,0 0,1 0,1l0 0c0,1 0,1 0,2 0,0 0,0 0,0l-4 4c-1,0 -2,0 -2,0 -1,0 -2,0 -2,-1l-7 -8c-1,0 0,-1 0,-1 0,0 0,0 0,-1 0,0 0,0 0,-1 0,0 -1,0 -1,0 0,0 -1,0 -1,0 0,0 -1,0 -1,0l-17 -21c0,0 0,0 0,0 -1,-1 -1,-2 -1,-2 0,-1 1,-2 1,-2 0,0 0,0 0,0l5 -4c0,0 0,0 0,0 1,1 1,1 2,1l0 0c0,0 0,0 1,-1 0,0 1,0 1,-1l0 0c0,0 -1,-1 -1,-1 0,0 0,-1 0,-1l2 -2c1,0 1,0 1,1l30 36c0,0 0,0 0,0zm-3 1l2 -1 -29 -36 -2 2c0,0 0,1 0,1 0,1 0,2 -1,2 0,0 -1,1 -2,1l0 0c0,0 -1,-1 -1,-1l-4 3 0 0c-1,1 -1,1 -1,2 0,0 0,1 0,1l0 0 18 21c0,0 1,0 1,0 1,0 1,0 1,1 1,0 1,1 1,1 0,1 0,1 -1,2l7 8c1,0 1,1 2,1 0,0 1,0 1,-1l4 -3c0,-1 0,-1 0,-2 0,-1 0,-1 1,-2l0 0c0,0 1,0 2,0 0,0 1,0 1,0z"/>
    <path class="fil3" d="M49 28l18 22c-1,0 -1,1 0,2 0,1 1,1 2,0l7 9c1,1 1,2 0,3l-2 2 -30 -36 2 -2c1,-1 3,-1 3,0z"/>
    <g>
     <path class="fil4" d="M50 28l17 21c0,0 0,1 0,1 0,0 0,0 0,1 0,0 0,0 0,1 0,0 1,0 1,0 0,0 1,0 1,0 0,0 0,0 0,0l7 9c1,0 1,1 1,2l0 0c0,0 0,1 -1,1l-2 2c0,0 -1,0 -1,0l-30 -36c0,0 0,0 0,-1l3 -1c0,0 0,0 0,0 0,-1 1,-1 2,-1l0 0c0,0 1,0 2,1 0,0 0,0 0,0zm16 22l-17 -22 0 0c0,0 -1,0 -1,0 -1,0 -1,0 -2,0l0 0 -2 2 30 36 2 -2c0,0 0,-1 0,-1l0 0c0,-1 0,-2 0,-2l-7 -8c0,0 -1,0 -1,0 -1,0 -1,0 -2,-1 0,0 0,-1 0,-1 0,-1 0,-1 0,-1zm11 13c0,0 0,0 0,0l0 0z"/>
    </g>
    <rect class="fil3" transform="matrix(0.0560189 0.0681783 -0.216625 0.17799 49.0778 50.1491)" width="49.3764" height="6.71934"/>
    <path class="fil4" d="M49 50l3 3c0,0 0,1 0,1l-1 1c-1,0 -1,0 -1,0l-3 -3c0,-1 0,-1 0,-1l2 -1c0,0 0,0 0,0zm2 3l-2 -2 -1 0 2 3 1 -1z"/>
    <rect class="fil3" transform="matrix(0.13455 0.163755 -0.216625 0.17799 40.4356 39.6312)" width="49.3764" height="6.71934"/>
    <path class="fil4" d="M41 39l6 8c0,1 0,1 0,1l-1 1c0,0 -1,0 -1,0l-6 -8c0,0 0,0 0,0l1 -2c0,0 1,0 1,0zm6 9l-7 -8 -1 1 7 7 1 0z"/>
    <line class="fil0" x1="37" y1="42" x2="43" y2= "49" />
    <path class="fil4" d="M37 43c0,-1 0,-1 0,-1 0,0 0,0 1,0l5 7c0,0 0,0 0,0 0,0 -1,0 -1,0l-5 -6z"/>
    <line class="fil0" x1="46" y1="53" x2="44" y2= "51" />
    <path class="fil4" d="M46 52c0,0 0,1 0,1 0,0 -1,0 -1,0l-1 -2c0,0 0,0 0,-1 0,0 0,0 0,1l2 1z"/>
    <line class="fil0" x1="47" y1="54" x2="49" y2= "56" />
    <path class="fil4" d="M47 55c0,-1 0,-1 0,-1 0,0 0,0 0,0l2 2c0,0 0,0 0,0 0,1 -1,1 -1,0l-1 -1z"/>
    <circle class="fil3" transform="matrix(0.295116 0.359173 -0.359173 0.295116 44.8521 39.0104)" r="5"/>
    <g>
     <path class="fil4" d="M47 37c0,1 1,2 1,2 -1,1 -1,2 -1,2 0,0 0,0 0,0 -1,1 -2,1 -2,1 -1,0 -2,-1 -2,-1 0,0 0,0 0,0 -1,-1 -1,-2 -1,-2 0,-1 1,-2 1,-2 1,-1 1,-1 2,-1 1,0 1,1 2,1zm0 2c0,0 0,-1 -1,-1 0,-1 0,-1 -1,-1 0,0 -1,0 -1,0 -1,1 -1,1 -1,2 0,0 0,1 0,1l0 0c1,1 1,1 2,1 0,0 1,0 1,0l0 0c1,-1 1,-1 1,-2zm-1 2l0 0 0 0zm-3 -1l0 0 0 0z"/>
    </g>
    <line class="fil0" x1="49" y1="42" x2="56" y2= "51" />
    <path class="fil4" d="M48 42c0,0 0,0 0,0 0,0 1,0 1,0l7 8c0,0 0,1 0,1 0,0 -1,0 -1,0l-7 -9z"/>
    <line class="fil0" x1="47" y1="43" x2="51" y2= "47" />
    <path class="fil4" d="M47 43c0,0 0,0 0,0 0,0 0,0 0,0l4 4c0,0 0,1 0,1 0,0 -1,0 -1,0l-3 -5z"/>
    <rect class="fil3" transform="matrix(0.078704 0.0957874 -0.216625 0.17799 62.7989 59.369)" width="49.3764" height="6.71934"/>
    <path class="fil4" d="M63 59l4 5c0,0 0,0 0,0l-2 2c0,0 0,0 0,0l-4 -5c0,0 0,-1 0,-1l2 -1c0,0 0,0 0,0zm3 5l-3 -4 -1 1 3 4 1 -1z"/>
    <line class="fil0" x1="59" y1="66" x2="61" y2= "69" />
    <path class="fil4" d="M59 67c-1,-1 0,-1 0,-1 0,0 0,0 0,0l2 2c0,1 0,1 0,1 0,0 0,0 -1,0l-1 -2z"/>
    <line class="fil0" x1="58" y1="63" x2="62" y2= "68" />
    <path class="fil4" d="M58 63c0,0 0,0 0,0 0,0 0,0 1,0l3 4c0,1 0,1 0,1 0,0 0,0 0,0l-4 -5z"/>
    <line class="fil0" x1="58" y1="67" x2="60" y2= "70" />
    <path class="fil4" d="M57 68c0,-1 0,-1 0,-1 1,0 1,0 1,0l2 2c0,0 0,1 0,1 0,0 -1,0 -1,0l-2 -2z"/>
    <path class="fil3" d="M74 69l-3 0c0,-1 -2,-2 -3,-1 -1,0 -2,1 -2,2l-5 1c-2,0 -3,-1 -3,-2l-2 -11c1,0 2,-1 1,-2 0,-1 -1,-1 -2,-1l-4 -27c0,-2 1,-3 2,-3l6 -1c0,1 1,2 2,2 1,-1 2,-2 2,-3l3 0 8 46z"/>
    <path class="fil4" d="M74 69l-3 1c0,0 -1,0 -1,0 0,-1 0,-1 0,-2 -1,0 -1,0 -2,0 0,0 -1,0 -1,1l0 0 0 0c0,0 0,1 0,1 0,0 0,1 -1,1l-5 1c-1,0 -2,-1 -2,-1 -1,0 -1,-1 -2,-2l-1 -11c0,0 0,0 0,0 0,0 1,0 1,-1 0,0 0,0 0,-1 0,0 0,0 -1,-1l0 0 0 0c0,0 0,0 -1,0 0,0 0,0 0,0l-4 -27c-1,-1 0,-2 0,-2 0,-1 1,-1 2,-2l6 -1c0,0 0,1 0,1 0,0 0,1 1,1 0,0 1,0 1,0l0 0c1,0 1,0 1,-1 1,0 1,0 1,-1 0,0 0,0 0,0l0 0 0 0c0,0 0,0 0,0l3 -1c0,0 0,0 0,1l8 46c0,0 0,0 0,0zm-3 0l2 0 -7 -46 -3 0c0,1 0,1 0,2 0,0 -1,1 -2,1 0,0 0,0 0,0 0,0 -1,0 -2,0 0,-1 0,-1 -1,-2l-5 1c-1,0 -1,0 -1,1 -1,0 -1,1 -1,1l5 27c0,0 1,1 1,1l0 0c0,0 1,1 1,1 0,1 0,1 -1,2 0,0 0,0 -1,1l2 10c0,1 1,1 1,1 0,1 1,1 1,1l6 -1c0,-1 0,-1 0,-2l0 0c1,0 1,-1 2,-1 1,0 1,0 2,1 0,0 1,1 1,1z"/>
    <path class="fil3" d="M72 24l4 27c-1,0 -1,1 -1,2 0,1 1,2 2,2l2 11c0,1 -1,2 -3,3l-2 0 -8 -46 3 -1c1,0 2,1 3,2z"/>
    <path class="fil4" d="M72 24l4 27c1,0 0,1 0,1l0 0c0,0 -1,0 -1,0 0,1 0,1 0,1l0 0c0,1 0,1 1,1 0,0 0,1 1,0 0,0 0,1 0,1l2 11c0,0 0,1 -1,2l0 0 0 0c0,0 -1,1 -1,1l-3 0c-1,0 -1,0 -1,0l-7 -46c0,-1 0,-1 0,-1l3 0c1,0 1,0 2,0l0 0 0 0c0,1 1,1 1,2zm4 27l-5 -27c0,0 0,-1 -1,-1l0 0c0,-1 -1,-1 -1,-1l-3 1 8 46 2 -1c1,0 1,0 2,-1l0 0c0,0 0,-1 0,-1l-2 -11c0,0 0,0 -1,0 0,-1 -1,-1 -1,-2 0,0 0,0 0,0 0,0 0,-1 1,-1 0,-1 0,-1 1,-1z"/>
    <rect class="fil3" transform="matrix(0.0144246 0.0870535 -0.276598 0.0458318 60.3775 42.95)" width="49.3764" height="6.71934"/>
    <path class="fil4" d="M61 43l0 4c0,0 0,1 0,1l-2 0c0,0 0,0 0,0l-1 -5c0,0 0,0 0,0l2 0c1,0 1,0 1,0zm0 4l-1 -4 -1 1 1 3 1 0z"/>
    <rect class="fil3" transform="matrix(0.034646 0.209091 -0.276598 0.0458318 58.1522 29.5201)" width="49.3764" height="6.71934"/>
    <path class="fil4" d="M59 29l1 11c0,0 0,0 0,0l-2 1c0,0 0,-1 0,-1l-2 -10c0,0 0,0 0,-1l2 0c0,0 0,0 1,0zm0 11l-1 -10 -1 0 1 10 1 0z"/>
    <line class="fil0" x1="54" y1="30" x2="55" y2= "39" />
    <path class="fil4" d="M54 30c0,0 0,0 0,0 0,0 0,0 0,0l2 9c0,0 0,0 -1,0 0,0 0,0 0,0l-1 -9z"/>
    <line class="fil0" x1="56" y1="43" x2="56" y2= "41" />
    <path class="fil4" d="M56 43c1,0 0,1 0,1 0,0 0,0 0,-1l-1 -2c0,0 1,0 1,0 0,0 0,0 0,0l0 2z"/>
    <line class="fil0" x1="57" y1="46" x2="57" y2= "48" />
    <path class="fil4" d="M56 46c0,-1 0,-1 0,-1 1,0 1,0 1,1l0 2c0,0 0,0 0,0 0,0 0,0 0,0l-1 -2z"/>
    <circle class="fil3" transform="matrix(0.0759911 0.458611 -0.458611 0.0759911 62.2873 31.1907)" r="5"/>
    <path class="fil4" d="M65 31c0,0 0,1 -1,2l0 0c0,0 -1,1 -1,1 -1,0 -2,0 -2,-1l0 0c-1,0 -1,-1 -1,-1l0 0c0,-1 0,-2 0,-2l0 0 0 0c1,-1 1,-1 2,-1l0 0c1,-1 1,0 2,0l0 0c0,0 1,1 1,2zm-1 1c0,0 0,-1 0,-1 0,-1 0,-1 -1,-1l0 0c0,-1 0,-1 -1,-1 0,0 0,0 0,0 -1,0 -1,1 -1,1l0 0c-1,0 -1,1 -1,1 0,1 0,1 0,1 0,0 1,0 1,1l0 0c1,0 1,0 2,0 0,0 1,0 1,-1l0 0z"/>
    <line class="fil0" x1="64" y1="36" x2="66" y2= "46" />
    <path class="fil4" d="M64 36c0,0 0,-1 0,-1 0,0 0,0 0,1l2 10c0,1 0,1 0,1 0,0 -1,0 -1,0l-1 -11z"/>
    <line class="fil0" x1="62" y1="36" x2="63" y2= "41" />
    <path class="fil4" d="M62 36c0,0 0,0 0,0 0,0 0,0 0,0l1 5c0,1 0,1 0,1 0,0 0,0 0,-1l-1 -5z"/>
    <line class="fil0" x1="61" y1="62" x2="61" y2= "65" />
    <path class="fil4" d="M60 62c0,0 1,0 1,0 0,0 0,0 0,0l1 3c0,0 0,0 -1,0 0,0 0,0 0,0l-1 -3z"/>
    <line class="fil0" x1="62" y1="59" x2="63" y2= "65" />
    <path class="fil4" d="M61 59c0,0 1,-1 1,-1 0,0 0,1 0,1l1 5c0,1 0,1 0,1 0,0 -1,0 -1,0l-1 -6z"/>
    <line class="fil0" x1="59" y1="62" x2="60" y2= "65" />
    <path class="fil4" d="M59 62c0,0 0,0 0,0 0,0 1,0 1,0l0 3c0,0 0,0 0,0 0,0 -1,0 -1,0l0 -3z"/>
    <circle class="fil3" cx="23" cy="54" r="14"/>
    <path class="fil4" d="M23 40c4,0 7,1 10,4 3,3 4,6 4,10 0,4 -1,8 -4,10 -3,3 -6,5 -10,5 -4,0 -8,-2 -10,-5 -3,-2 -5,-6 -5,-10 0,-4 2,-7 5,-10 2,-3 6,-4 10,-4zm9 4c-2,-2 -5,-4 -9,-4 -4,0 -7,2 -10,4 -2,3 -4,6 -4,10 0,4 2,7 4,10 3,2 6,4 10,4 4,0 7,-2 9,-4 3,-3 4,-6 4,-10 0,-4 -1,-7 -4,-10z"/>
    <path class="fil3" d="M26 68c-1,0 -2,0 -3,0 -3,0 -6,-1 -8,-2 1,-1 3,-1 3,-1 1,1 3,1 2,0 0,-1 0,-2 1,-2 1,-1 2,0 2,2 1,1 2,0 3,2 0,0 0,0 0,1z"/>
    <path class="fil4" d="M26 68c0,0 -1,0 -1,0 -1,1 -2,1 -2,1 -2,0 -3,-1 -5,-1 -1,-1 -2,-1 -3,-2 -1,0 -1,0 0,0 0,-1 0,-1 0,-1l0 0c1,0 2,0 2,0 1,0 1,0 2,0 0,0 0,1 1,1 0,0 0,0 0,0l0 0c0,0 0,0 0,-1 0,0 0,0 0,0 0,0 0,-1 0,-1 0,-1 0,-1 1,-1 0,0 0,0 0,0 1,-1 1,-1 2,0 0,0 0,1 0,1 1,1 1,1 2,1 0,1 1,1 1,2 0,0 0,0 0,0l1 1c0,0 0,0 -1,0 0,0 0,0 0,0zm-2 0c1,0 1,0 2,0 0,-1 -1,-1 -1,-1 0,-1 0,-1 -1,-1 0,0 -1,0 -1,-1 0,-1 -1,-2 -1,-2 0,0 0,0 -1,0 0,0 0,0 0,0 0,0 0,1 -1,1 0,0 0,0 0,1 0,0 1,0 1,0 0,0 0,1 0,1 0,0 -1,0 -1,0l0 0c0,0 0,0 0,0 -1,0 -2,0 -2,-1 0,0 0,0 -1,0 0,0 -1,1 -1,1 1,0 2,1 3,1 1,1 2,1 4,1 0,0 1,0 1,0z"/>
    <path class="fil3" d="M35 46c1,3 2,5 2,8 0,4 -2,7 -4,10 -1,0 -2,-1 -2,-2 -1,-1 1,-3 1,-4 -1,-1 -1,-2 1,-2 2,-1 2,-3 2,-4 0,-1 -1,-2 -2,-3 0,-1 1,-2 2,-3z"/>
    <path class="fil4" d="M35 46c1,1 1,3 2,4 0,1 0,3 0,4 0,2 0,4 -1,6 -1,1 -2,3 -3,4 0,0 0,0 0,0 -1,0 -1,0 -1,0l0 0c-1,-1 -1,-1 -1,-1 -1,-1 0,-2 0,-3l0 0c0,0 1,-1 0,-1 0,-1 0,-1 0,-1 0,-1 0,-1 0,-1 0,0 0,-1 0,-1 1,0 1,0 2,-1 2,0 1,-1 1,-2 0,-1 0,-1 0,-1 0,-1 0,-1 0,-2l0 0 0 0c0,0 -1,-1 -1,-1 0,-1 0,-1 0,-2 1,0 1,-1 1,-1 0,0 1,0 1,0 0,0 0,0 0,0zm1 4c0,-1 -1,-2 -2,-3 0,0 0,0 0,1 0,0 0,0 0,1 0,0 0,0 0,1l0 0c1,1 1,1 1,2 0,0 0,0 0,1 0,1 0,3 -2,3 0,0 -1,0 -1,1 0,0 0,0 -1,0 0,0 0,0 0,0 1,1 1,1 1,1 0,1 0,2 0,2l0 0c-1,1 -1,2 -1,2 1,0 1,1 1,1l0 0 0 0c0,0 1,0 1,1 1,-2 2,-3 2,-5 1,-1 1,-3 1,-5 0,-1 0,-3 0,-4z"/>
    <path class="fil3" d="M9 54c0,0 0,0 0,0 0,-7 6,-13 13,-14 0,1 1,2 1,2 -1,2 -2,1 -2,3 0,1 3,3 3,4 -1,2 1,1 1,3 -1,2 -2,4 -3,2 -1,-1 -3,1 -4,-1 -2,-1 -2,2 -3,2 -1,0 -1,3 -3,2 -2,0 -1,-2 -2,-2 -1,0 -1,0 -1,-1z"/>
    <path class="fil4" d="M8 54l0 0 0 0c0,-4 2,-7 4,-10 3,-2 6,-4 10,-4 0,0 0,0 0,0 0,0 1,1 1,1 0,1 0,1 0,1 0,1 -1,2 -1,2l0 0c-1,0 -1,0 -1,1 0,0 1,1 1,2 1,0 2,1 2,2 0,1 0,1 0,1l0 0c1,1 1,1 1,2 0,1 -1,2 -1,2 0,1 -1,1 -1,1 0,0 0,0 -1,0 0,0 0,0 0,-1 -1,0 -1,0 -2,0 -1,0 -2,0 -2,-1 -1,0 -1,0 -1,0 0,0 0,1 0,1 -1,1 -1,1 -2,1 -1,0 -1,1 -1,1 -1,1 -1,2 -2,2 -2,-1 -2,-1 -2,-2 0,0 0,-1 0,-1 -1,0 -1,0 -1,0 0,0 0,0 0,0 0,0 -1,0 -1,-1zm5 -9c-2,2 -4,6 -4,9 0,0 0,0 0,0 1,0 1,0 1,0 0,1 1,1 1,2 0,0 0,1 1,1 1,0 1,-1 1,-1 1,-1 1,-2 2,-2 0,0 1,0 1,0 0,-1 0,-1 0,-1 1,-1 1,-1 2,0 1,1 1,0 2,0 1,0 2,0 2,1 0,0 0,0 0,0 1,0 1,0 1,0 0,0 0,0 0,0 1,-1 1,-1 1,-2 0,-1 0,-1 0,-1l0 0 0 0c-1,-1 -1,-1 -1,-2 0,-1 0,-1 -1,-2 -1,-1 -2,-1 -2,-2 0,-1 1,-1 1,-2l0 0c1,0 1,0 1,-1 0,0 0,0 0,-1 0,0 0,0 0,0 -4,0 -7,1 -9,4z"/>
    <line class="fil0" x1="23" y1="68" x2="23" y2= "70" />
    <path class="fil4" d="M22 68c0,0 1,0 1,0 0,0 0,0 0,0l0 2c0,1 0,1 0,1 0,0 -1,0 -1,-1l0 -2z"/>
    <path class="fil3" d="M28 76c0,1 0,1 0,1 0,0 -2,1 -5,1 -3,0 -6,-1 -6,-1 0,0 0,0 0,-1 1,-2 4,0 5,-6l2 0c0,6 4,4 4,6z"/>
    <path class="fil4" d="M29 76c0,0 0,0 0,0 0,1 0,1 0,1 0,0 -1,1 -2,1 -1,0 -3,0 -4,0 -2,0 -3,0 -4,0 -1,0 -2,-1 -2,-1 0,0 0,0 0,-1 0,0 0,0 0,0 0,-1 1,-1 2,-1 1,-1 2,-1 3,-5 0,0 0,0 0,0l0 0 2 0c0,0 0,0 0,0 0,4 2,4 3,5 1,0 1,0 2,1zm-2 1c0,0 1,0 1,0 0,0 0,0 0,0 0,-1 -1,-1 -2,-2 -1,0 -2,-1 -3,-4l-1 0c0,3 -2,4 -3,4 -1,1 -1,1 -1,2l0 0c0,0 0,0 0,0l0 0c0,0 0,0 0,0 0,0 0,0 1,0 1,0 2,1 4,1 1,0 3,-1 4,-1z"/>
    <circle class="fil3" cx="80" cy="64" r="14"/>
    <path class="fil4" d="M80 50c4,0 8,1 11,4 2,2 4,6 4,10 0,4 -2,8 -4,10 -3,3 -7,4 -11,4 -4,0 -7,-1 -10,-4 -2,-2 -4,-6 -4,-10 0,-4 2,-8 4,-10 3,-3 6,-4 10,-4zm10 4c-2,-2 -6,-4 -10,-4 -3,0 -7,2 -9,4 -3,3 -4,6 -4,10 0,4 1,7 4,10 2,2 6,4 9,4 4,0 8,-2 10,-4 2,-3 4,-6 4,-10 0,-4 -2,-7 -4,-10z"/>
    <circle class="fil3" cx="80" cy="64" r="9"/>
    <path class="fil4" d="M80 54c3,0 6,1 7,3 2,2 3,4 3,7 0,3 -1,5 -3,7 -1,2 -4,3 -7,3 -2,0 -5,-1 -7,-3 -1,-2 -2,-4 -2,-7 0,-3 1,-5 2,-7 2,-2 5,-3 7,-3zm7 4c-2,-2 -4,-3 -7,-3 -2,0 -4,1 -6,3 -2,1 -3,4 -3,6 0,3 1,5 3,6 2,2 4,3 6,3 3,0 5,-1 7,-3 1,-1 2,-3 2,-6 0,-2 -1,-5 -2,-6z"/>
    <polygon class="fil3" points="78,60 80,62 81,64 82,66 83,68 81,66 80,64 79,62 "/>
    <g>
     <path class="fil4" d="M78 60l2 2 2 1c0,0 0,0 0,0l0 3 1 2c0,0 0,0 0,0 0,0 -1,0 -1,0l-1 -2 -2 -1c0,0 0,0 0,0l0 -3 -1 -2c0,0 0,0 0,0 0,0 0,0 0,0zm1 2l0 0 0 0 1 2 1 2 1 0 0 0 -1 -2 -2 -2zm3 1c0,1 0,1 -1,1l1 -1zm-3 2c0,-1 0,-1 0,-1l0 1z"/>
    </g>
    <polygon class="fil5" points="80,58 79,56 80,56 80,57 80,56 81,56 81,57 81,56 82,56 81,58 81,58 81,57 80,58 "/>
    <path class="fil6" d="M80 71l0 0c0,0 0,1 0,1 0,0 0,0 1,0 0,0 0,0 0,0 0,0 0,-1 0,-1 0,0 0,0 0,0 0,0 0,0 0,0 -1,0 -1,0 -1,0 0,0 0,0 0,0 0,-1 0,-1 0,-1 0,0 0,0 0,0 1,0 1,0 1,0 0,0 0,0 0,0l0 1c0,0 0,-1 0,-1 0,0 0,0 -1,0 0,0 0,0 0,0 0,0 0,0 0,1 0,0 0,0 0,0 0,0 0,0 1,0 0,0 0,0 0,0 0,0 0,0 0,0 0,1 0,1 0,1 0,0 0,0 0,0 -1,0 -1,0 -1,0 0,0 0,0 0,-1z"/>
    <line class="fil0" x1="88" y1="64" x2="87" y2= "64" />
    <path class="fil4" d="M88 64c0,0 1,0 1,0 0,0 -1,0 -1,0l-1 0c-1,0 -1,0 -1,0 0,0 0,0 1,0l1 0z"/>
    <line class="fil0" x1="84" y1="57" x2="83" y2= "59" />
    <path class="fil4" d="M84 57c0,0 0,0 1,0 0,0 0,0 0,0l-1 2c0,0 -1,0 -1,0 0,0 0,0 0,0l1 -2z"/>
    <line class="fil0" x1="87" y1="60" x2="86" y2= "61" />
    <path class="fil4" d="M87 60c0,0 0,0 1,0 0,0 0,0 -1,0l-1 1c0,0 -1,0 -1,0 0,0 0,0 1,0l1 -1z"/>
    <line class="fil0" x1="87" y1="68" x2="86" y2= "67" />
    <path class="fil4" d="M87 68c1,0 1,0 1,0 -1,0 -1,0 -1,0l-1 -1c-1,0 -1,0 -1,0 1,0 1,0 1,0l1 1z"/>
    <line class="fil0" x1="84" y1="71" x2="83" y2= "69" />
    <path class="fil4" d="M85 71c0,0 0,0 0,0 -1,0 -1,0 -1,0l-1 -2c0,0 0,0 0,0 0,0 1,0 1,0l1 2z"/>
    <path class="fil4" d="M77 71c0,0 -1,0 -1,0 0,0 0,0 0,0l1 -2c0,0 0,0 1,0 0,0 0,0 0,0l-1 2z"/>
    <path class="fil7" d="M76 57c0,0 0,0 0,0 0,0 1,0 1,0l1 2c0,0 0,0 0,0 -1,0 -1,0 -1,0l-1 -2z"/>
    <path class="fil3" d="M83 50l0 -2c0,-1 -1,-2 -3,-2l0 0c-1,0 -2,1 -2,2l0 2c1,0 2,0 2,0 1,0 2,0 3,0z"/>
    <path class="fil4" d="M83 50l0 -2c0,-1 -1,-1 -1,-1l0 0c0,-1 -1,-1 -2,-1l0 0c0,0 -1,0 -1,1 0,0 -1,0 -1,1l0 2c1,0 1,0 1,0 1,0 1,0 1,0 1,0 1,0 2,0 0,0 0,0 1,0zm0 -2l0 2 0 0c0,0 0,0 0,0 0,1 0,1 0,1 -1,0 -1,0 -1,-1 -1,0 -1,0 -2,0 0,0 0,0 -1,0 0,1 -1,1 -1,1 0,0 0,0 0,0 0,0 0,-1 0,-1l0 -2c0,-1 0,-1 0,-2l0 0 0 0c1,0 2,-1 2,-1l0 0c1,0 2,1 2,1l0 0 0 0 0 0c1,1 1,1 1,2z"/>
    <path class="fil4" d="M80 47c1,0 1,0 1,0l0 0c1,0 1,1 1,1 0,0 0,1 -1,1l0 0c0,0 0,0 -1,0 0,0 0,0 0,0 -1,0 -1,-1 -1,-1 0,0 0,-1 1,-1l0 0c0,0 0,0 0,0zm1 1c0,0 0,0 -1,0 0,0 0,0 0,0l0 0 0 0c0,0 0,0 0,0 0,0 0,0 0,0 0,1 0,1 0,1 1,0 1,0 1,-1l0 0c0,0 0,0 0,0 0,0 0,0 0,0l0 0z"/>
    <path class="fil3" d="M60 54c0,0 1,1 3,1 4,1 16,1 16,1l21 0c0,0 -3,2 -6,3 -3,0 -21,2 -21,2 0,0 -9,1 -13,3 -1,0 -2,1 -3,1 1,-4 2,-8 2,-10 1,0 1,-1 1,-1z"/>
    <path class="fil3" d="M40 53c0,1 -1,1 -3,2 -4,1 -16,0 -16,0l-21 0c0,0 3,3 6,3 3,0 21,2 21,2 0,0 9,2 13,3 1,1 2,1 3,1 -1,-4 -2,-8 -2,-9 -1,-1 -1,-1 -1,-2z"/>
    <g>
     <path class="fil8" d="M40 54c0,0 -1,0 -1,0 -1,1 -1,1 -2,1 -4,1 -16,0 -16,0l-20 1c1,0 3,1 5,2 3,0 21,2 21,2l13 -6zm-1 0c0,-1 1,-1 1,-1 0,0 0,0 0,0 0,0 1,0 1,0 0,0 0,1 0,1 0,0 0,0 0,0 0,1 0,2 1,3 0,2 1,5 1,7 0,0 0,1 0,1 0,0 0,0 0,0 0,0 -1,0 -1,-1 -1,0 -1,0 -2,0 -4,-2 -13,-3 -13,-3 -1,0 -18,-2 -21,-3 -4,0 -6,-2 -6,-2l0 0c0,-1 0,-1 0,-1 0,0 0,0 0,0l21 0 0 0 0 0c0,0 12,0 16,-1 1,0 1,0 2,0zm-12 6l0 0c0,0 9,1 13,3 1,0 1,0 2,1 0,0 0,0 1,0 -1,-3 -2,-5 -2,-7 0,-1 -1,-2 -1,-2 0,-1 0,-1 0,-1l0 0 -13 6zm16 4l0 0 0 0z"/>
    </g>
    <g>
     <path class="fil8" d="M7 58c4,0 20,2 20,2l0 0 -20 -2zm20 3c-1,0 -18,-2 -21,-3l0 0c0,0 0,0 0,0 0,0 0,0 0,0l1 -1c0,0 0,0 0,0l21 2 0 0 8 1 0 0 4 1c0,0 0,1 0,1l0 1 0 0c0,0 0,0 0,0 0,0 -1,0 -1,0 -4,-1 -12,-2 -12,-2zm12 2l0 -1 -3 -1 -8 -2 -21 -2 0 1 32 5zm-11 -4l0 0 0 0z"/>
    </g>
    <circle class="fil3" cx="30" cy="58" r="4"/>
    <path class="fil2" d="M30 53c2,0 3,0 4,1 0,1 1,2 1,4 0,1 -1,2 -1,3l0 0 0 0c-1,1 -2,1 -4,1 -1,0 -2,0 -3,-1l0 0c-1,-1 -2,-2 -2,-3 0,-2 1,-3 2,-4 1,-1 2,-1 3,-1zm3 2c-1,-1 -2,-1 -3,-1 -1,0 -2,0 -3,1 0,0 -1,1 -1,3 0,1 1,2 1,3l0 0c1,0 2,1 3,1 1,0 2,-1 3,-1l0 0c1,-1 1,-2 1,-3 0,-2 0,-3 -1,-3z"/>
    <circle class="fil9" cx="30" cy="58" r="3"/>
    <path class="fil2" d="M30 55c1,0 2,0 2,0l0 0c1,1 1,2 1,3 0,0 0,1 -1,2 0,0 -1,1 -2,1 -1,0 -1,-1 -2,-1l0 0c-1,-1 -1,-2 -1,-2 0,-1 0,-2 1,-3l0 0 0 0 0 0c1,0 1,0 2,0zm2 1c-1,-1 -1,-1 -2,-1 0,0 -1,0 -1,1l0 0 0 0c-1,0 -1,1 -1,2 0,0 0,1 1,1l0 0 0 0c0,1 1,1 1,1 1,0 1,0 2,-1 0,0 1,-1 1,-1 0,-1 -1,-2 -1,-2l0 0z"/>
    <path class="fil1" d="M33 59c-1,1 -2,1 -3,1 0,0 0,0 -1,0 0,-1 -1,-3 1,-4 1,0 2,2 3,3z"/>
    <path class="fil2" d="M33 59c0,0 -1,1 -1,1 -1,1 -1,1 -2,1 0,0 0,0 0,0 0,0 -1,0 -1,0 0,0 0,-1 0,-1l0 0 0 0 0 0c0,-1 0,-1 0,-2 0,-1 0,-2 0,-2l0 0c1,0 2,0 2,0 1,1 2,2 2,2 0,0 0,1 0,1l0 0zm-1 1c0,-1 0,-1 0,-1 0,-1 -1,-2 -1,-2 -1,0 -1,0 -1,0l0 0c-1,0 -1,0 -1,1 0,0 0,1 1,2l0 0 0 0c0,0 0,0 0,0 0,0 0,0 0,0 1,0 1,0 2,0z"/>
    <path class="fil1" d="M34 56l0 0c0,0 3,4 3,6 1,7 -4,5 -7,2 -1,-1 -2,-3 -3,-3 1,1 2,1 3,1 3,0 5,-2 5,-4 0,-1 0,-2 -1,-2zm-7 4l0 0 0 0 0 0z"/>
    <path class="fil2" d="M34 56l0 0c0,0 1,0 1,0 0,0 2,4 2,6 1,2 1,3 0,4l0 0 0 0c0,0 0,1 -1,1 -1,0 -1,0 -2,0 -1,0 -3,-1 -4,-3 -1,0 -1,-1 -2,-1 0,-1 -1,-2 -1,-2 0,0 0,0 0,0 0,-1 0,-1 0,0 1,0 1,0 2,0 0,1 1,1 1,1 1,0 2,-1 3,-1l0 0c1,-1 1,-2 1,-3 0,-1 0,-1 0,-1 0,0 0,-1 0,-1 0,0 0,0 0,0 0,0 0,0 0,0l0 0zm3 6c-1,-1 -1,-2 -2,-4 0,1 -1,2 -1,3l0 0c-1,1 -2,1 -4,1 0,0 -1,0 -1,0 0,1 1,1 2,2 1,1 2,2 3,2 1,0 1,0 2,0 0,0 0,0 1,-1l0 0c0,0 0,-1 0,-3zm-11 -2l0 0 0 0 0 0 0 0 0 0c0,0 0,0 0,0l0 0 0 0c0,0 1,0 1,0 0,0 0,0 0,0l0 0 0 0 0 0 0 0 0 0c0,0 0,0 0,0 0,0 0,1 0,1 0,0 -1,0 -1,-1z"/>
    <path class="fil1" d="M54 74c1,0 3,0 6,0 4,1 6,1 6,1 0,0 0,1 -2,1 -2,0 -12,0 -12,0l0 0c1,0 1,-1 2,-2z"/>
    <path class="fil2" d="M54 74c0,0 1,0 2,0 1,0 2,0 4,0 5,0 6,0 6,0 0,0 0,1 0,1 0,0 0,1 -2,1 -2,0 -12,1 -12,1 0,0 0,0 0,-1l0 0 0 0 0 0c0,0 0,0 0,0 0,0 0,0 1,-1 0,0 0,-1 0,-1 0,0 0,0 1,0zm2 0c-1,0 -2,0 -2,0 0,1 -1,1 -1,2 0,0 0,0 0,0 2,0 10,0 11,-1 1,0 1,0 1,0 0,0 -2,0 -5,0 -2,0 -3,0 -4,-1z"/>
    <path class="fil3" d="M50 37c-4,0 -6,3 -8,6 -1,2 -3,7 -1,12 1,4 5,23 9,23 4,0 8,-19 9,-23 2,-5 0,-10 -1,-12 -2,-3 -5,-6 -8,-6z"/>
    <path class="fil8" d="M50 37c-1,0 -3,1 -4,2 -1,1 -3,3 -3,4 -1,1 -2,4 -2,6 -1,2 -1,4 0,5 0,1 0,2 1,3 1,7 4,20 8,21 4,-1 7,-14 8,-21 1,-1 1,-2 1,-3 1,-1 1,-3 0,-5 0,-2 -1,-5 -2,-6 0,-1 -2,-3 -3,-4l0 0c-1,-1 -3,-2 -4,-2zm-4 1c1,-1 2,-2 4,-2 2,0 3,1 4,2l0 0c2,1 3,3 4,5 1,1 2,3 2,6 0,2 0,4 0,6 0,0 -1,1 -1,2 -2,7 -5,21 -9,21l0 0 0 0c0,0 0,0 0,0 -4,0 -7,-14 -9,-21 0,-1 -1,-2 -1,-2 0,-2 0,-4 0,-6 0,-3 1,-5 2,-6 1,-2 2,-4 4,-5z"/>
    <path class="fil3" d="M44 61c1,7 3,17 6,17 3,0 5,-10 6,-17 1,-5 -1,-15 -6,-15 -5,0 -7,10 -6,15z"/>
    <path class="fil8" d="M44 61c1,4 2,8 3,11 1,3 2,5 3,6 1,-1 2,-3 3,-6 1,-3 2,-7 3,-11 0,-1 0,-2 0,-3 0,-2 0,-5 -1,-8 -1,-2 -3,-4 -4,-4 -1,0 -1,0 -1,0 0,0 0,0 -1,0 -1,0 -3,2 -4,4 -1,3 -1,6 -1,8l0 0c0,1 0,2 0,3zm2 11c-1,-3 -2,-7 -3,-11 0,-1 0,-2 0,-3l0 0c0,-2 1,-5 2,-8 1,-2 2,-4 4,-5 1,0 1,0 1,0 0,0 0,0 1,0 2,1 3,3 4,5 1,3 2,6 2,8 0,1 0,2 0,3 -1,4 -2,8 -3,11 -1,4 -2,6 -4,6 0,0 0,0 0,0 -1,0 -3,-2 -4,-6z"/>
    <path class="fil2" d="M49 52l0 0 2 0c0,0 0,1 0,1l0 0 0 3c0,0 0,0 0,0l0 0 -2 0c0,0 0,0 0,0l0 0 0 -3c0,0 0,-1 0,-1zm1 1l0 0 0 2 0 0 0 -2z"/>
    <rect class="fil1" x="48" y="56" width="1.65523" height="3.21492" rx="1" ry="1"/>
    <path class="fil2" d="M49 55l0 0c1,0 1,1 1,1l0 0c0,0 0,0 0,0l0 2c0,1 0,1 0,1l0 0c0,0 0,0 -1,0l0 0c0,0 -1,0 -1,0 0,0 0,0 0,-1l0 -2c0,0 0,0 0,0 0,0 1,-1 1,-1zm0 1l0 0c0,0 0,0 0,0 0,0 0,0 0,0l0 2c0,1 0,1 0,1 0,0 0,0 0,0l0 0c0,0 1,0 1,0l0 0c0,0 0,0 0,-1l0 -2c0,0 0,0 0,0l0 0 0 0c0,0 -1,0 -1,0z"/>
    <rect class="fil1" x="50" y="56" width="1.65523" height="3.21492" rx="1" ry="1"/>
    <path class="fil2" d="M51 55l0 0c0,0 1,1 1,1 0,0 0,0 0,0l0 2c0,1 0,1 0,1 0,0 -1,0 -1,0l0 0c-1,0 -1,0 -1,0 0,0 0,0 0,-1l0 -2c0,0 0,0 0,0 0,0 0,-1 1,-1zm0 1l0 0c0,0 -1,0 -1,0 0,0 0,0 0,0l0 2c0,1 0,1 0,1 0,0 1,0 1,0l0 0c0,0 0,0 0,0 0,0 0,0 0,-1l0 -2c0,0 0,0 0,0 0,0 0,0 0,0z"/>
    <path class="fil1" d="M50 39c-3,0 -5,3 -6,4 0,1 0,1 0,1 2,-1 4,-3 6,-3 2,0 4,2 6,3 0,0 0,0 0,-1 -1,-1 -3,-4 -6,-4z"/>
    <path class="fil2" d="M50 39c-1,0 -2,1 -3,2 -1,0 -2,1 -2,2 0,0 1,-1 2,-1 1,-1 2,-1 3,-1 1,0 2,0 3,1 1,0 2,1 2,1 0,-1 -1,-2 -2,-2 -1,-1 -2,-2 -3,-2zm-3 1c1,-1 2,-1 3,-1 1,0 2,0 3,1 2,1 3,2 3,3 0,0 0,0 0,1l0 0c1,0 1,0 1,0l0 0c0,0 0,0 0,0 0,1 -1,1 -1,1 -1,-1 -2,-2 -3,-2 -1,-1 -2,-1 -3,-1 -1,0 -2,0 -3,1 -1,0 -2,1 -3,2 0,0 0,0 -1,0 0,0 0,-1 0,-1 0,0 0,0 1,0l0 0c0,0 0,-1 0,-1 0,-1 1,-2 3,-3z"/>
    <line class="fil0" x1="48" y1="40" x2="48" y2= "42" />
    <path class="fil2" d="M47 40c0,-1 1,-1 1,-1 0,0 0,0 0,1l0 2c0,0 0,0 0,0 0,0 -1,0 -1,0l0 -2z"/>
    <line class="fil0" x1="52" y1="40" x2="52" y2= "42" />
    <path class="fil2" d="M52 40c0,-1 0,-1 0,-1 0,0 1,0 1,1l0 2c0,0 -1,0 -1,0 0,0 0,0 0,0l0 -2z"/>
    <path class="fil4" d="M73 60c0,0 0,0 0,0 0,0 1,0 1,0l1 1c0,0 1,0 0,0 0,0 0,0 0,0l-2 -1z"/>
    <g>
     <path class="fil8" d="M60 54c0,1 1,1 1,1 1,0 1,0 2,0 4,1 16,1 16,1l20 0c-1,1 -3,2 -5,2 -3,1 -21,2 -21,2l-13 -6zm1 0c0,0 -1,0 -1,-1 0,0 0,0 0,0 0,0 -1,0 -1,1 0,0 0,0 0,0 0,1 0,1 0,1 0,1 0,1 -1,3 0,2 -1,4 -1,7 0,0 0,0 0,0 0,0 0,0 0,0 0,0 1,0 1,0 1,0 1,-1 2,-1 4,-1 13,-3 13,-3 1,0 18,-2 21,-2 4,-1 6,-3 6,-3l0 0c0,0 0,0 0,0 0,0 0,-1 0,-1l-21 0 0 0 0 0c0,0 -12,1 -16,0 -1,0 -1,-1 -2,-1zm12 6l0 0c0,0 -9,2 -13,4 -1,0 -1,0 -2,0 0,0 0,0 -1,0 1,-2 2,-4 2,-6 0,-1 1,-2 1,-3 0,0 0,0 0,-1l0 0 13 6zm-16 5l0 0 0 0z"/>
    </g>
    <g>
     <path class="fil8" d="M73 61c1,0 18,-2 21,-3l0 0c0,0 0,0 0,0 0,0 0,0 0,0l-1 -1c0,0 0,0 0,0l-21 2 0 0 -8 1 0 0 -4 1c0,0 0,1 0,1l0 1 0 0c0,0 0,0 0,0 0,0 1,0 1,0 4,-1 12,-2 12,-2zm-12 2l0 -1 3 -1 8 -2 21 -2 0 1 -32 5zm11 -4l0 0 0 0z"/>
    </g>
    <rect class="fil3" transform="matrix(0.020266 0.122306 -0.276598 0.0458318 67.6504 57.7952)" width="49.3764" height="6.71934"/>
    <path class="fil4" d="M68 58l1 6c0,0 0,0 0,0l-2 0c0,1 -1,0 -1,0l-1 -6c0,0 1,0 1,0l2 -1c0,0 0,1 0,1zm0 6l-1 -6 -1 0 1 6 1 0z"/>
    <line class="fil0" x1="76" y1="71" x2="77" y2= "69" />
    <line class="fil0" x1="74" y1="68" x2="75" y2= "67" />
    <path class="fil4" d="M74 68c0,0 -1,0 -1,0 0,0 0,0 0,0l2 -1c0,0 0,0 0,0 1,0 0,0 0,0l-1 1z"/>
    <line class="fil0" x1="73" y1="64" x2="74" y2= "64" />
    <path class="fil4" d="M73 64c-1,0 -1,0 -1,0 0,0 0,0 1,0l1 0c0,0 1,0 1,0 0,0 -1,0 -1,0l-1 0z"/>
    <line class="fil0" x1="74" y1="60" x2="75" y2= "61" />
    <line class="fil0" x1="76" y1="57" x2="77" y2= "59" />
    <circle class="fil3" cx="70" cy="58" r="4"/>
    <path class="fil2" d="M70 54c-1,0 -2,0 -3,1 -1,0 -1,1 -1,3 0,1 0,2 1,3l0 0c1,0 2,1 3,1 1,0 2,-1 3,-1l0 0c0,-1 1,-2 1,-3 0,-2 -1,-3 -1,-3 -1,-1 -2,-1 -3,-1zm-4 0c1,-1 2,-1 4,-1 1,0 2,0 3,1 1,1 2,2 2,4 0,1 -1,2 -2,3l0 0c-1,1 -2,1 -3,1 -2,0 -3,0 -4,-1l0 0 0 0c0,-1 -1,-2 -1,-3 0,-2 1,-3 1,-4z"/>
    <path class="fil1" d="M66 56l0 0c0,0 -3,4 -3,6 -1,7 4,5 7,2 1,-1 2,-3 3,-3 -1,1 -2,1 -3,1 -3,0 -5,-2 -5,-4 0,-1 0,-2 1,-2zm7 4l0 0 0 0 0 0z"/>
    <path class="fil2" d="M66 56l0 0 0 0c0,0 0,0 0,0 0,0 0,0 0,0 0,0 0,1 0,1 0,0 0,0 0,1 0,1 0,2 1,3l0 0c1,0 2,1 3,1 0,0 1,0 1,-1 1,0 1,0 2,0 0,-1 0,-1 0,0 0,0 0,0 0,0 0,0 -1,1 -1,2 -1,0 -1,1 -2,1 -1,2 -3,3 -4,3 -1,0 -1,0 -2,0 -1,0 -1,-1 -1,-1 -1,-1 -1,-2 0,-4 0,-2 2,-6 2,-6 0,0 1,0 1,0zm-1 2c-1,2 -1,3 -2,4 0,2 0,3 0,3 1,1 1,1 1,1 1,0 1,0 2,0 1,0 2,-1 3,-2 1,-1 2,-1 2,-2 0,0 -1,0 -1,0 -2,0 -3,0 -4,-1l0 0c0,-1 -1,-2 -1,-3zm9 2c0,0 0,0 0,0l0 0 0 0 0 0 0 0 0 0c0,1 -1,1 -1,1 0,0 0,-1 0,-1 0,0 0,0 0,0l0 0 0 0 0 0 0 0 0 0c0,0 0,0 0,0 0,0 1,0 1,0l0 0 0 0z"/>
    <circle class="fil9" cx="70" cy="58" r="3"/>
    <path class="fil2" d="M70 55c-1,0 -1,0 -2,1l0 0 0 0c0,0 -1,1 -1,2 0,0 1,1 1,1l0 0 0 0c1,1 1,1 2,1 0,0 1,0 1,-1l0 0 0 0c1,0 1,-1 1,-1 0,-1 0,-2 -1,-2l0 0 0 0c0,-1 -1,-1 -1,-1zm-2 0l0 0 0 0c0,0 1,0 2,0 1,0 1,0 2,0l0 0 0 0 0 0c1,1 1,2 1,3 0,0 0,1 -1,2l0 0 0 0 0 0c-1,0 -1,1 -2,1 -1,0 -2,-1 -2,-1l0 0 0 0 0 0c-1,-1 -1,-2 -1,-2 0,-1 0,-2 1,-3l0 0z"/>
    <path class="fil1" d="M67 59c1,1 2,1 3,1 0,0 0,0 1,0 0,-1 1,-3 -1,-4 -1,0 -2,2 -3,3z"/>
    <path class="fil2" d="M68 59c0,0 0,0 0,1 1,0 1,0 2,0 0,0 0,0 0,0 0,0 0,0 0,0l0 0 0 0c1,-1 1,-2 1,-2 0,-1 0,-1 -1,-1l0 0c0,0 0,0 -1,0 0,0 -1,1 -1,2zm0 1c0,0 -1,-1 -1,-1l0 0c0,0 0,-1 0,-1 0,0 1,-1 2,-2 0,0 1,0 2,0l0 0c0,0 0,1 0,2 0,1 0,1 0,2l0 0 0 0 0 0 0 0c0,0 0,1 0,1 0,0 -1,0 -1,0 0,0 0,0 0,0 -1,0 -1,0 -2,-1z"/>
   </g>
  </g>
 </g>
</svg>
