<?xml version="1.0" encoding="UTF-8"?>
<!DOCTYPE svg PUBLIC "-//W3C//DTD SVG 1.1//EN" "http://www.w3.org/Graphics/SVG/1.1/DTD/svg11.dtd">
<!-- Creator: CorelDRAW X7 -->
<svg xmlns="http://www.w3.org/2000/svg" xml:space="preserve" width="350px" height="350px" version="1.1" style="shape-rendering:geometricPrecision; text-rendering:geometricPrecision; image-rendering:optimizeQuality; fill-rule:evenodd; clip-rule:evenodd"
viewBox="0 0 350 350"
 xmlns:xlink="http://www.w3.org/1999/xlink">
 <defs>
  <style type="text/css">
   <![CDATA[
    .str1 {stroke:#F7104D;stroke-width:2.36222}
    .str0 {stroke:#DCDDDD;stroke-width:2.36222;stroke-linecap:round;stroke-linejoin:round}
    .str2 {stroke:#F7104D;stroke-width:2.36222;stroke-linecap:round;stroke-linejoin:round}
    .str3 {stroke:#F7104D;stroke-width:2.36222;stroke-linecap:round;stroke-linejoin:round}
    .fil0 {fill:none}
    .fil1 {fill:#FEFEFE}
    .fil2 {fill:#FFD1D3}
    .fil3 {fill:white}
   ]]>
  </style>
 </defs>
 <g id="Layer_x0020_1">
  <metadata id="CorelCorpID_0Corel-Layer"/>
  <g id="_532741120">
   <g>
    <path class="fil0 str0" d="M106 265c0,0 0,0 0,0 0,4 -11,7 -25,7 -14,0 -25,-3 -25,-7 0,0 0,0 0,0 2,-11 19,-3 21,-28l7 0c3,25 20,17 22,28z"/>
    <path class="fil0 str0" d="M77 237l7 0 0 -31c-1,0 -2,0 -3,0l0 0 0 0c-1,0 -3,0 -4,0l0 31z"/>
    <path class="fil0 str0" d="M56 140l-15 0c0,0 0,-10 4,-19 4,-9 19,-8 23,-12 3,-4 4,-9 4,-9l9 0 9 0c0,0 1,5 4,9 3,4 19,3 23,12 4,9 4,19 4,19l-15 0c-8,26 4,35 4,62 0,2 -10,4 -29,4l0 0 0 0c-20,0 -29,-2 -29,-4 0,-27 12,-36 4,-62z"/>
   </g>
   <g>
    <path class="fil0 str0" d="M273 242l12 0 0 -4m-12 4l-12 0 0 -4"/>
    <rect class="fil0 str0" x="240" y="210" width="66.5632" height="55.0945"/>
    <rect class="fil0 str0" x="240" y="219" width="66.5632" height="46.1166"/>
   </g>
   <g>
    <path class="fil1 str0" d="M193 174c0,6 5,7 11,7 7,0 7,0 11,-6 4,-5 5,-11 6,-8 3,4 1,14 1,14l4 0c0,0 1,-8 3,-18 1,-9 -1,-12 -4,-13 -2,-1 -4,5 -8,10 -3,4 -6,7 -9,8 -11,1 -14,1 -15,6z"/>
    <path class="fil0 str0" d="M225 150c0,0 -3,-2 -11,8 -9,9 -15,11 -15,11"/>
    <g>
     <path class="fil1 str0" d="M183 148l-10 0c-3,0 -5,0 -5,4 0,16 -7,15 -14,15 -3,0 -11,-1 -11,8l43 0 0 -23c0,-2 -1,-4 -3,-4z"/>
     <path class="fil1 str0" d="M171 152l-1 0c-3,0 -4,0 -4,3 0,13 -7,12 -13,12l0 1 0 6c13,0 19,-7 18,-21l0 -1z"/>
     <g>
      <line class="fil0 str0" x1="168" y1="157" x2="165" y2= "157" />
      <line class="fil0 str0" x1="167" y1="163" x2="165" y2= "162" />
      <line class="fil0 str0" x1="163" y1="168" x2="162" y2= "166" />
      <line class="fil0 str0" x1="157" y1="170" x2="157" y2= "167" />
     </g>
     <path class="fil1 str0" d="M143 175l0 6c0,1 0,2 1,2l41 0c0,0 1,-1 1,-2l0 -6 -43 0z"/>
     <path class="fil1 str0" d="M171 152c0,0 0,-2 -2,-3 -2,-2 -3,-2 -3,-2l0 6 0 0c1,-1 2,-1 4,-1l1 0z"/>
     <circle class="fil1 str0" cx="177" cy="160" r="3"/>
    </g>
   </g>
   <rect class="fil0 str0" x="129" y="129" width="177.226" height="9.25654"/>
   <rect class="fil0 str0" x="124" y="183" width="182.597" height="9.25654"/>
   <g>
    <path class="fil0 str0" d="M248 93c0,0 -4,4 -5,6 0,3 2,7 0,14 -1,7 -12,15 10,15 22,0 49,-4 49,-4 0,0 6,-1 7,-10 0,-9 -6,-15 -7,-19"/>
    <rect class="fil0 str0" x="248" y="86" width="53.8638" height="42.0811" rx="6" ry="7"/>
    <path class="fil0 str0" d="M268 86l0 -4 15 0 0 4 3 0 0 -5c0,-2 -1,-3 -2,-3l-18 0c-1,0 -2,1 -2,3l0 5 4 0z"/>
    <rect class="fil1 str0" x="248" y="86" width="53.8638" height="42.0811" rx="6" ry="7"/>
    <line class="fil0 str0" x1="248" y1="104" x2="302" y2= "104" />
    <g>
     <rect class="fil1 str0" x="260" y="99" width="4.62903" height="9.46543" rx="1" ry="1"/>
     <rect class="fil1 str0" x="285" y="99" width="4.62903" height="9.46543" rx="1" ry="1"/>
    </g>
    <rect class="fil0 str0" x="264" y="115" width="21.6591" height="7.46987"/>
   </g>
   <g>
    <path class="fil1 str0" d="M155 91l15 0c10,0 18,9 18,19l0 17c0,1 0,2 -1,2l-49 0c-1,0 -2,-1 -2,-2l0 -17c0,-10 9,-19 19,-19z"/>
    <g>
     <path class="fil0 str0" d="M174 97l0 -7c0,-6 -6,-11 -12,-11l0 0c-6,0 -11,5 -11,11l0 7"/>
     <path class="fil1 str0" d="M148 97l6 0 0 6 -2 3c-1,1 -1,1 -2,0l-2 -3 0 -6z"/>
     <path class="fil1 str0" d="M171 97l6 0 0 6 -3 3c0,1 -1,1 -1,0l-2 -3 0 -6z"/>
    </g>
    <polygon class="fil1 str0" points="136,113 133,121 136,122 "/>
    <polygon class="fil1 str0" points="188,113 191,121 188,122 "/>
   </g>
   <g>
    <path class="fil0 str0" d="M196 96c1,0 -5,20 -10,24 -6,5 -1,4 8,6"/>
    <polygon class="fil1 str0" points="197,95 238,95 242,129 193,129 "/>
    <polygon class="fil1 str0" points="218,110 193,105 195,92 218,92 241,92 242,105 "/>
    <line class="fil0 str0" x1="240" y1="110" x2="196" y2= "110" />
    <path class="fil1 str0" d="M215 103c-4,0 -6,2 -5,7 1,4 2,9 5,10l5 0c4,-1 4,-6 5,-10 1,-5 -1,-7 -5,-7l-5 0z"/>
    <rect class="fil1 str0" x="215" y="120" width="5.32049" height="8.57801"/>
    <path class="fil1 str0" d="M216 110c-2,0 -4,1 -3,4 1,2 1,5 3,6l3 0c2,-1 3,-4 3,-6 1,-3 0,-4 -3,-4l-3 0z"/>
    <g>
     <line class="fil0 str0" x1="200" y1="92" x2="200" y2= "88" />
     <line class="fil0 str0" x1="235" y1="92" x2="235" y2= "88" />
    </g>
   </g>
   <g>
    <path class="fil0 str0" d="M287 161c3,0 5,3 5,7l0 10 -51 0c0,0 -4,-5 6,-8 9,-3 25,-9 25,-9 5,7 12,5 15,0z"/>
    <path class="fil0 str0" d="M292 178l-51 0 0 2c0,2 1,3 2,3l47 0c1,0 2,-1 2,-3l0 -2z"/>
    <line class="fil0 str0" x1="252" y1="168" x2="252" y2= "178" />
    <path class="fil0 str0" d="M280 178c0,0 -2,-5 -8,-5 -5,0 -16,0 -16,-6"/>
    <line class="fil0 str0" x1="260" y1="165" x2="262" y2= "167" />
    <line class="fil0 str0" x1="264" y1="164" x2="267" y2= "166" />
    <line class="fil0 str0" x1="268" y1="162" x2="271" y2= "165" />
   </g>
   <g>
    <g>
     <path class="fil2 str1" d="M181 227l-58 0c-2,0 -4,2 -4,6l0 5c0,4 2,6 4,6 -2,0 -4,3 -4,6l0 6c0,3 2,5 4,5l58 0c7,0 10,-3 10,-13l0 -4 0 -4c0,-10 -3,-13 -10,-13z"/>
     <line class="fil0 str1" x1="123" y1="244" x2="174" y2= "244" />
     <polyline class="fil0 str2" points="178,248 174,244 178,240 "/>
    </g>
    <g>
     <g>
      <path class="fil2 str1" d="M186 192l-58 0c-3,0 -4,3 -4,6l0 6c0,3 1,5 4,5 -3,0 -4,3 -4,6l0 6c0,3 1,6 4,6l58 0c6,0 9,-4 9,-13l0 -5 0 -4c0,-9 -3,-13 -9,-13z"/>
      <line class="fil0 str1" x1="128" y1="209" x2="178" y2= "209" />
     </g>
     <polyline class="fil0 str2" points="182,214 178,209 182,205 "/>
    </g>
    <g>
     <path class="fil2 str1" d="M178 157l-58 0c-3,0 -4,3 -4,6l0 6c0,3 1,6 4,6 -3,0 -4,2 -4,6l0 5c0,3 1,6 4,6l58 0c6,0 9,-3 9,-13l0 -4 0 -5c0,-9 -3,-13 -9,-13z"/>
     <line class="fil0 str1" x1="120" y1="175" x2="170" y2= "175" />
     <polyline class="fil0 str2" points="174,179 170,175 174,171 "/>
    </g>
   </g>
   <rect class="fil2 str2" x="228" y="179" width="24.984" height="75.7729"/>
   <rect class="fil2 str2" x="170" y="179" width="24.984" height="75.7729"/>
   <path class="fil1 str2" d="M256 189l-17 75c-1,4 -5,8 -9,8l-52 0 -52 0c-4,0 -8,-4 -9,-8l-17 -75c0,-4 2,-6 6,-6l72 0 72 0c4,0 6,2 6,6zm-103 71l3 -5 -10 -17 -10 17 3 5 14 0zm-30 -28l7 12 10 -17 -10 -17 -8 15 1 7zm-4 -23l5 -9 -3 -5 -2 0c-3,0 -3,1 -2,3l2 11zm20 -14l-3 5 10 17 10 -17 -3 -5 -14 0zm32 0l-3 5 10 17 10 -17 -3 -5 -14 0zm32 0l-3 5 10 17 10 -17 -3 -5 -14 0zm32 0l-3 5 5 9 2 -11c1,-2 1,-3 -2,-3l-2 0zm-1 30l-8 -15 -10 17 10 17 7 -11 1 -8zm-17 35l3 -5 -10 -17 -10 17 3 5 14 0zm-32 0l3 -5 -10 -17 -10 17 3 5 7 0 7 0zm-23 -16l10 -17 -10 -17 -10 17 10 17zm32 0l10 -17 -10 -17 -10 17 10 17z"/>
   <line class="fil0 str0" x1="56" y1="140" x2="56" y2= "131" />
   <line class="fil0 str0" x1="106" y1="140" x2="106" y2= "131" />
   <rect class="fil3 str3" transform="matrix(0.904656 0.426143 -0.529004 1.12302 104.654 185.836)" width="10.9382" height="44.7923" rx="5" ry="5"/>
   <rect class="fil1 str2" transform="matrix(-0.899396 0.423665 0.525928 1.11649 242.908 186.336)" width="10.9382" height="44.7923" rx="5" ry="5"/>
   <g>
    <polygon class="fil2 str2" points="170,179 205,179 208,187 211,196 215,187 218,179 253,179 238,232 211,232 185,232 "/>
    <g>
     <line class="fil0 str2" x1="185" y1="226" x2="238" y2= "226" />
     <path class="fil0 str2" d="M182 217c0,0 13,-2 13,9"/>
     <path class="fil0 str2" d="M241 217c0,0 -13,-2 -13,9"/>
     <line class="fil0 str2" x1="212" y1="226" x2="212" y2= "209" />
    </g>
   </g>
  </g>
 </g>
</svg>
