<?xml version="1.0" encoding="UTF-8"?>
<!DOCTYPE svg PUBLIC "-//W3C//DTD SVG 1.1//EN" "http://www.w3.org/Graphics/SVG/1.1/DTD/svg11.dtd">
<!-- Creator: CorelDRAW X7 -->
<svg xmlns="http://www.w3.org/2000/svg" xml:space="preserve" width="100px" height="100px" version="1.1" style="shape-rendering:geometricPrecision; text-rendering:geometricPrecision; image-rendering:optimizeQuality; fill-rule:evenodd; clip-rule:evenodd"
viewBox="0 0 100 100"
 xmlns:xlink="http://www.w3.org/1999/xlink">
 <defs>
  <style type="text/css">
   <![CDATA[
    .fil0 {fill:none}
    .fil2 {fill:#FEFEFE}
    .fil3 {fill:#FF8C8C}
    .fil1 {fill:#DCDDDD;fill-rule:nonzero}
    .fil6 {fill:#5F5D5D;fill-rule:nonzero}
    .fil4 {fill:#E62129;fill-rule:nonzero}
    .fil5 {fill:#F7104D;fill-rule:nonzero}
   ]]>
  </style>
 </defs>
 <g id="Layer_x0020_1">
  <metadata id="CorelCorpID_0Corel-Layer"/>
  <g id="_725907992">
   <rect class="fil0" width="100" height="100"/>
   <g>
    <path class="fil1" d="M82 72l0 0 -4 0c0,0 -1,0 -1,0l0 0 0 -2c0,0 1,0 1,0 0,0 0,0 0,0l0 1 4 0 0 0 0 0 3 0 0 -1c0,0 0,0 0,0 0,0 1,0 1,0l0 2 0 0c0,0 -1,0 -1,0l-3 0 0 0z"/>
    <path class="fil1" d="M71 61l0 0 21 0c0,0 1,0 1,0l0 0 0 18c0,0 -1,0 -1,0l0 0 -21 0c0,0 -1,0 -1,0l0 0 0 -18c0,0 1,0 1,0zm21 1l-21 0 0 17 21 0 0 -17z"/>
    <path class="fil1" d="M71 64l0 0 21 0c0,0 1,0 1,0l0 0 0 15c0,0 -1,0 -1,0l0 0 -21 0c0,0 -1,0 -1,0l0 0 0 -15c0,0 1,0 1,0zm21 0l-21 0 0 15 21 0 0 -15z"/>
    <path class="fil2" d="M56 50c0,2 1,2 3,2 3,0 3,0 4,-2 1,-2 1,-3 2,-3 1,2 0,5 0,5l2 0c0,0 0,-3 0,-6 1,-3 0,-4 -1,-4 0,0 -1,1 -3,3 0,2 -1,2 -2,3 -4,0 -5,0 -5,2z"/>
    <path class="fil1" d="M56 50c0,0 1,1 1,1 1,0 1,1 2,1 2,0 2,-1 3,-2l1 0 0 0c0,-1 0,-2 1,-2 0,-1 0,-1 0,-1l0 0c1,0 1,0 1,0l0 0c1,1 1,4 1,5l0 0c0,-1 0,-3 1,-6 0,-1 0,-2 0,-3 0,0 -1,-1 -1,-1 0,0 -1,1 -1,2 -1,1 -1,1 -1,1 -1,1 -1,2 -2,2 0,1 -1,1 -1,1 -1,0 -1,0 -1,0 -3,1 -4,1 -4,2zm1 2c-1,-1 -1,-1 -1,-2 0,-2 1,-2 3,-3 1,0 1,0 1,0 1,0 1,0 2,0 0,-1 1,-1 1,-2 0,0 1,-1 1,-1 1,-2 2,-3 2,-2 1,0 1,0 2,1 0,1 0,2 0,3 -1,3 -1,6 -1,6l0 0c0,0 0,0 0,0l-2 0 0 0 0 0c0,0 0,0 0,0 0,0 0,-3 0,-4 0,0 -1,0 -1,0 0,1 0,1 -1,2l0 0 0 0c-1,2 -1,2 -4,2 -1,0 -2,0 -2,0z"/>
    <path class="fil0" d="M66 42c0,0 -1,-1 -4,2 -2,3 -4,4 -4,4"/>
    <path class="fil1" d="M66 41c0,1 1,1 0,1 0,0 0,0 0,0 0,0 -1,0 -3,3 -3,3 -5,3 -5,3 0,0 0,0 -1,0 0,0 0,0 1,0 0,0 2,-1 4,-4 3,-3 4,-3 4,-3z"/>
    <path class="fil2" d="M53 41l-4 0c-1,0 -1,0 -1,2 0,5 -2,4 -5,4 -1,0 -3,0 -3,3l13 0 0 -7c0,-1 0,-2 0,-2z"/>
    <path class="fil1" d="M53 42l-4 0c0,0 0,0 0,0 0,0 0,0 0,0 -1,0 -1,0 -1,1 0,5 -2,5 -4,5l0 0 -1 0 0 0 0 0c-1,0 -3,0 -3,2l13 0 0 -7 0 0 0 0c0,-1 0,-1 0,-1l0 0c0,0 0,0 0,0l0 0 0 0zm-4 -1l4 0 0 0 0 0c0,0 0,0 1,0l0 1c0,0 0,0 0,1l0 0 0 0 0 7 0 0c0,0 0,0 -1,0l-13 0 0 0 0 0c-1,0 -1,0 -1,0 0,-3 3,-3 4,-3 0,0 0,0 0,0l0 0 1 0 0 0c2,0 3,0 3,-4 0,-2 1,-2 2,-2l0 0c0,0 0,0 0,0z"/>
    <path class="fil2" d="M49 43l-1 0c-1,0 -1,0 -1,1 0,4 -2,3 -4,3l0 1 0 2c4,0 6,-3 6,-7l0 0z"/>
    <g>
     <path class="fil1" d="M48 43l0 0c0,0 0,0 0,0l0 0c0,0 0,0 0,0 -1,0 -1,0 -1,1 0,4 -2,4 -4,4l0 1c2,0 3,0 4,-1 1,-1 1,-3 1,-5zm0 -1l1 0 0 0c0,0 0,0 0,1l0 0c0,2 0,4 -1,5 -1,1 -3,2 -5,2l0 0c0,0 -1,0 -1,0l0 -2 0 0 0 -1 0 0c0,0 1,0 1,0l0 0 0 0c2,0 4,0 4,-3 0,-2 0,-2 1,-2l0 0 0 0c0,0 0,0 0,0zm-6 6l0 0 0 0z"/>
    </g>
    <line class="fil0" x1="48" y1="44" x2="47" y2= "44" />
    <path class="fil1" d="M48 44c0,0 0,0 0,0 0,0 0,1 0,1l-1 0c0,0 0,-1 0,-1 0,0 0,0 0,0l1 0z"/>
    <line class="fil0" x1="47" y1="46" x2="47" y2= "46" />
    <path class="fil1" d="M48 46c0,0 0,0 0,0 0,1 -1,1 -1,1l-1 -1c0,0 0,0 0,0 0,-1 1,-1 1,-1l1 1z"/>
    <line class="fil0" x1="46" y1="48" x2="46" y2= "47" />
    <path class="fil1" d="M46 48c0,0 0,0 0,0 0,0 0,0 0,0l-1 -1c0,0 0,0 0,0 1,0 1,0 1,0l0 1z"/>
    <line class="fil0" x1="44" y1="48" x2="44" y2= "47" />
    <path class="fil1" d="M45 48c0,0 -1,1 -1,1 0,0 0,-1 0,-1l0 -1c0,0 0,0 0,0 0,0 1,0 1,0l0 1z"/>
    <path class="fil2" d="M40 50l0 2c0,0 0,0 0,0l13 0c0,0 0,0 0,0l0 -2 -13 0z"/>
    <path class="fil1" d="M40 50l0 2c0,0 0,0 0,0l13 0c0,0 0,0 0,0l0 -2 -13 0zm-1 2l0 -2 0 0c0,0 0,0 1,0l13 0 0 0c1,0 1,0 1,0l0 2c0,0 0,0 0,1 -1,0 -1,0 -1,0l-13 0c0,0 0,0 -1,0 0,-1 0,-1 0,-1z"/>
    <path class="fil2" d="M49 43c0,0 0,-1 -1,-1 -1,-1 -1,-1 -1,-1l0 2 0 0c0,0 1,0 1,0l1 0z"/>
    <path class="fil1" d="M49 42c0,0 0,0 0,1 0,0 0,0 0,0 0,0 0,0 0,0l-1 0 0 0c0,0 -1,0 -1,0l0 0c0,0 0,0 0,0l0 0 0 0c0,0 0,0 0,0l0 -2 0 0c0,0 0,0 0,0 0,0 1,0 1,0 1,1 1,1 1,1zm-1 0c0,0 0,0 0,0 0,0 -1,0 -1,0l0 0c1,0 1,0 1,0l0 0z"/>
    <circle class="fil2" cx="51" cy="45" r="1"/>
    <path class="fil1" d="M51 45c0,0 -1,0 -1,0 0,0 0,0 0,0 0,0 0,1 0,1 0,0 1,0 1,0 0,0 0,0 0,0 0,0 0,-1 0,-1 0,0 0,0 0,0 0,0 0,0 0,0zm-1 -1c0,0 0,0 1,0 0,0 0,0 1,0 0,1 0,1 0,1 0,1 0,1 0,1 -1,1 -1,1 -1,1 -1,0 -1,0 -1,-1 0,0 -1,0 -1,-1 0,0 1,0 1,-1z"/>
    <path class="fil1" d="M35 35l0 0 57 0c0,0 1,0 1,0l0 0 0 3c0,0 -1,0 -1,0l0 0 -57 0c0,0 0,0 0,0l0 0 0 -3c0,0 0,0 0,0zm57 0l-56 0 0 3 56 0 0 -3z"/>
    <path class="fil1" d="M33 52l0 0 59 0c0,0 1,0 1,0l0 0 0 3c0,1 -1,1 -1,1l0 0 -59 0c0,0 0,0 0,-1l0 0 0 -3c0,0 0,0 0,0zm59 1l-58 0 0 2 58 0 0 -2z"/>
    <path class="fil2" d="M28 79c0,0 0,0 0,0 0,1 -4,2 -8,2 -5,0 -8,-1 -8,-2 0,0 0,0 0,0 0,-3 6,-1 7,-9l2 0c1,8 6,6 7,9z"/>
    <path class="fil1" d="M28 79c0,0 0,0 0,0l0 0c0,0 0,0 0,0 0,1 -1,2 -2,2 -2,0 -4,1 -6,1 -3,0 -5,-1 -6,-1 -2,0 -3,-1 -3,-2 0,0 0,0 0,0l0 0 0 0c0,0 0,0 0,0 0,-2 2,-2 3,-3 1,0 4,-1 4,-6 0,0 0,-1 1,-1l0 0 2 0c0,0 0,1 0,1 1,5 3,6 5,6 1,1 2,1 2,3zm-1 0l0 0c0,0 0,0 0,0 0,-1 -1,-1 -2,-2 -2,-1 -4,-2 -5,-7l-1 0c-1,5 -3,6 -5,7 -1,1 -2,1 -2,2l0 0c0,0 0,0 0,0l0 0 0 0c0,0 1,1 2,1 1,1 3,1 6,1 2,0 4,0 5,-1 2,0 2,-1 2,-1l0 0 0 0z"/>
    <polygon class="fil2" points="19,70 21,70 21,59 19,59 "/>
    <path class="fil1" d="M19 69l1 0 0 -10 -1 0 0 10zm2 1l-2 0 0 0c-1,0 -1,0 -1,0l0 -11 0 0c0,-1 0,-1 1,-1l2 0 0 0c0,0 0,0 0,1l0 11 0 0c0,0 0,0 0,0z"/>
    <path class="fil2" d="M12 39l-5 0c0,0 0,-4 1,-6 1,-3 6,-3 7,-4 1,-2 2,-3 2,-3l3 0 3 0c0,0 0,1 1,3 1,1 6,1 7,4 1,2 1,6 1,6l-4 0c-3,8 1,11 1,20 0,0 -3,1 -9,1l0 0 0 0c-7,0 -10,-1 -10,-1 0,-9 4,-12 2,-20z"/>
    <path class="fil1" d="M11 39l-4 0c0,0 -1,0 -1,0l0 0c0,0 0,-4 2,-7 1,-2 3,-2 5,-3 1,0 2,0 2,0 1,-2 1,-3 1,-3 0,-1 1,-1 1,-1l0 0 3 0 3 0c0,0 0,0 0,1 0,0 0,1 1,3 1,0 2,0 3,0 1,1 4,1 5,3 1,3 1,7 1,7 0,0 0,0 -1,0l0 0 -4 0c-1,5 -1,8 0,11 1,2 1,5 1,9 0,0 0,1 -2,1 -2,0 -4,0 -7,0l0 0 0 0c-3,0 -6,0 -7,0 -2,0 -3,-1 -3,-1 0,-4 1,-7 1,-9 1,-3 2,-6 0,-11zm-4 -1l5 0 0 0c0,0 0,1 0,1 2,5 1,8 0,11 -1,2 -1,5 -1,9 0,0 0,0 2,0 1,0 4,1 7,1l0 0 0 0c3,0 5,-1 6,-1 2,0 3,0 3,0 0,-4 -1,-7 -2,-9 0,-3 -1,-6 0,-11 0,0 0,-1 1,-1l4 0c0,-1 0,-3 -1,-5 -1,-2 -3,-2 -5,-3 -1,0 -2,0 -2,-1 -1,-1 -2,-2 -2,-3l-2 0 -3 0c0,1 -1,2 -1,3 -1,1 -2,1 -3,1 -2,1 -4,1 -5,3 -1,2 -1,4 -1,5z"/>
    <line class="fil0" x1="12" y1="39" x2="12" y2= "36" />
    <path class="fil1" d="M12 39c0,0 0,0 0,0 0,0 -1,0 -1,0l0 -3c0,0 1,-1 1,-1 0,0 0,1 0,1l0 3z"/>
    <line class="fil0" x1="28" y1="39" x2="28" y2= "36" />
    <path class="fil1" d="M28 39c0,0 0,0 0,0 -1,0 -1,0 -1,0l0 -3c0,0 0,-1 1,-1 0,0 0,1 0,1l0 3z"/>
    <path class="fil1" d="M73 23c0,0 1,0 1,0 0,1 0,1 0,1 0,0 -2,1 -2,2 0,0 0,0 0,1 1,0 1,2 0,3 0,1 0,1 0,2l0 0c-1,0 -1,1 -1,1 0,1 1,2 4,2 7,0 16,-2 16,-2 0,0 2,0 2,-3 0,-1 -1,-3 -2,-4 0,-1 0,-1 0,-2 -1,0 0,0 0,0 0,0 0,0 0,0 0,0 1,1 1,2 1,1 2,2 2,4 -1,3 -3,4 -3,4l0 0 0 0 0 0c0,0 -9,1 -16,1 -4,0 -5,-1 -5,-2 0,0 1,-1 1,-2l0 0c0,0 1,-1 1,-1 0,-1 0,-3 0,-3 0,-1 0,-1 0,-2 0,0 1,-2 1,-2z"/>
    <path class="fil1" d="M76 21l13 0c0,0 1,0 2,1l0 0 0 0c0,0 0,1 0,2l0 9c0,1 0,1 0,2 -1,0 -2,0 -2,0l-13 0c-1,0 -2,0 -2,0 -1,-1 -1,-1 -1,-2l0 -9c0,-1 0,-2 1,-2l0 0 0 0c0,-1 1,-1 2,-1zm13 1l-13 0c-1,0 -1,0 -2,0l0 0 0 0c0,1 0,1 0,2l0 9c0,0 0,1 0,1 1,0 1,1 2,1l13 0c0,0 1,-1 1,-1 0,0 1,-1 1,-1l0 -9c0,-1 -1,-1 -1,-2l0 0 0 0c0,0 -1,0 -1,0z"/>
    <path class="fil1" d="M79 21l0 -1c0,0 1,0 1,0l0 0 5 0c0,0 0,0 0,0l0 0 0 1 0 0 0 -1c0,-1 0,-1 0,-1l0 0c0,0 0,0 0,0l-6 0c0,0 0,0 0,0l0 0c0,0 0,0 0,1l0 1 0 0zm1 -1l0 1 0 0c0,1 0,1 0,1l-1 0 0 0c-1,0 -1,0 -1,-1l0 -1c0,-1 0,-1 1,-1l0 0c0,0 0,-1 0,-1l6 0c0,0 1,1 1,1l0 0 0 0c0,0 0,0 0,1l0 1 0 0c0,1 0,1 0,1l-1 0 0 0c-1,0 -1,0 -1,-1l0 -1 -4 0z"/>
    <rect class="fil2" x="74" y="21" width="17.3582" height="13.5611" rx="2" ry="2"/>
    <path class="fil1" d="M76 21l13 0c0,0 1,0 2,1l0 0 0 0c0,0 0,1 0,2l0 9c0,1 0,1 0,2 -1,0 -2,0 -2,0l-13 0c-1,0 -2,0 -2,0 -1,-1 -1,-1 -1,-2l0 -9c0,-1 0,-2 1,-2l0 0 0 0c0,-1 1,-1 2,-1zm13 1l-13 0c-1,0 -1,0 -2,0l0 0 0 0c0,1 0,1 0,2l0 9c0,0 0,1 0,1 1,0 1,1 2,1l13 0c0,0 1,-1 1,-1 0,0 1,-1 1,-1l0 -9c0,-1 -1,-1 -1,-2l0 0 0 0c0,0 -1,0 -1,0z"/>
    <path class="fil1" d="M74 28c-1,0 -1,-1 -1,-1 0,0 0,0 1,0l17 0c0,0 0,0 0,0 0,0 0,1 0,1l-17 0z"/>
    <rect class="fil2" x="77" y="26" width="1.49176" height="3.05034"/>
    <g>
     <path class="fil1" d="M78 25l1 0c0,0 0,0 0,0 0,1 0,1 0,1l0 2c0,1 0,1 0,1l0 0 0 0 0 0c0,0 0,0 0,0l-1 -4zm1 1l-1 0 0 2 1 0 0 -2zm0 3l-1 0c0,0 -1,0 -1,0 0,0 0,0 0,-1l0 -2c0,0 0,0 0,-1l0 0 0 0c0,0 1,0 1,0l1 4z"/>
    </g>
    <rect class="fil2" x="85" y="26" width="1.49176" height="3.05034"/>
    <g>
     <path class="fil1" d="M86 25l1 0c0,0 0,0 0,0 0,1 0,1 0,1l0 2c0,1 0,1 0,1l0 0 0 0 0 0c0,0 0,0 0,0l-1 -4zm1 1l-1 0 0 2 1 0 0 -2zm0 3l-1 0c0,0 -1,0 -1,0 0,0 0,0 0,-1l0 -2c0,0 0,0 0,-1l0 0 0 0c0,0 1,0 1,0l1 4z"/>
    </g>
    <path class="fil1" d="M79 30l0 0 7 0c0,0 0,0 0,1l0 0 0 2c0,0 0,0 0,0l0 0 -7 0c0,0 -1,0 -1,0l0 0 0 -2c0,-1 1,-1 1,-1zm6 1l-6 0 0 2 6 0 0 -2z"/>
    <path class="fil2" d="M43 23l5 0c4,0 6,3 6,6l0 6c0,0 0,0 0,0l-16 0c0,0 -1,0 -1,0l0 -6c0,-3 3,-6 6,-6z"/>
    <path class="fil1" d="M43 23l5 0c2,0 4,0 5,2l0 0c1,1 2,2 2,4l0 6c0,0 0,0 -1,0l0 0 0 0 0 0c0,0 0,0 0,0l-16 0c0,0 -1,0 -1,0l0 0 0 0 0 0c0,0 0,0 0,0l0 -6c0,-2 1,-3 2,-4 1,-2 3,-2 4,-2zm5 0l-5 0c-1,0 -3,1 -4,2 -1,1 -1,2 -1,4l0 6c0,0 0,0 0,0l0 0c0,0 0,0 0,0l16 0c0,0 0,0 0,0l0 0c0,0 0,0 0,0l0 -6c0,-2 -1,-3 -2,-4l0 0c-1,-1 -2,-2 -4,-2z"/>
    <path class="fil0" d="M50 25l0 -2c0,-2 -2,-4 -4,-4l0 0c-2,0 -4,2 -4,4l0 2"/>
    <path class="fil1" d="M50 25c0,0 0,0 0,0 -1,0 -1,0 -1,0l0 -2c0,-1 0,-2 -1,-3 0,0 -1,-1 -2,-1l0 0c-1,0 -2,1 -2,1 -1,1 -1,2 -1,3l0 2c0,0 -1,0 -1,0 0,0 0,0 0,0l0 -2c0,-1 0,-2 1,-3l0 0 0 0c1,-1 2,-1 3,-1l0 0c1,0 2,0 3,1l0 0 0 0c0,1 1,2 1,3l0 2z"/>
    <path class="fil2" d="M41 25l2 0 0 2 0 1c-1,0 -1,0 -1,0l-1 -1 0 -2z"/>
    <path class="fil1" d="M41 25l0 0 2 0c0,0 1,0 1,0l0 0 0 2c0,0 0,0 0,0l-1 1 0 0c0,0 0,0 0,0 0,0 -1,0 -1,0 0,0 0,0 0,0l0 0c0,0 0,0 0,0l0 0 -1 -1c0,0 0,0 0,0l0 0 0 -2c0,0 0,0 0,0zm2 0l-1 0 0 2 0 1 1 -1 0 -2z"/>
    <path class="fil2" d="M49 25l1 0 0 2 0 1c0,0 -1,0 -1,0l0 -1 0 -2z"/>
    <path class="fil1" d="M49 25l0 0 1 0c1,0 1,0 1,0l0 0 0 2c0,0 0,0 0,0l-1 1 0 0c0,0 0,0 0,0l0 0c0,0 0,0 0,0 -1,0 -1,0 -1,0 0,0 0,0 0,0l0 0 -1 -1c0,0 0,0 0,0l0 0 0 -2c0,0 0,0 1,0zm1 0l-1 0 0 2 1 1 0 -1 0 -2z"/>
    <polygon class="fil2" points="37,30 36,32 37,33 "/>
    <g>
     <path class="fil1" d="M37 32l0 0 0 0 0 0zm-1 0l1 -2c0,0 0,0 0,0 1,0 1,0 1,0l0 3 0 0c0,0 0,0 0,0 0,0 -1,0 -1,0l-1 0 0 -1zm0 1c0,0 0,0 0,-1l0 1z"/>
    </g>
    <polygon class="fil2" points="54,30 55,32 54,33 "/>
    <g>
     <path class="fil1" d="M55 30l1 2c0,1 0,1 -1,1l0 -3zm0 2l0 0 0 0 0 0zm0 1l-1 0c0,0 0,0 0,0 0,0 0,0 0,0l0 0 0 -3c0,0 0,0 0,0 0,0 1,0 1,0l0 3z"/>
    </g>
    <path class="fil0" d="M57 25c0,0 -2,6 -4,7 -1,2 0,2 3,2"/>
    <path class="fil1" d="M56 25c0,0 0,0 0,0 0,-1 0,-1 1,-1 0,0 0,0 0,0l0 0 0 0c0,0 0,0 0,0 0,0 0,0 0,0l0 0c0,1 0,1 0,1 0,1 0,1 0,2 -1,2 -2,5 -3,6 -1,0 -1,0 -1,0 0,0 1,0 2,1 0,0 1,0 1,0 0,0 0,0 0,0 0,0 0,1 0,1 -1,-1 -1,-1 -2,-1 -1,0 -1,0 -2,0 0,-1 0,-1 1,-2 1,-1 2,-4 3,-5 0,-1 0,-1 0,-2 0,0 0,0 0,0z"/>
    <polygon class="fil2" points="57,24 70,24 72,35 56,35 "/>
    <path class="fil1" d="M57 24l13 0c1,0 1,0 1,0l1 11c0,0 0,0 0,0l0 0 0 0 -16 0c0,0 0,0 0,0 0,0 0,0 0,0l1 -11c0,0 0,0 0,0l0 0zm13 0l-13 0 -1 11 15 0 -1 -11z"/>
    <polygon class="fil2" points="64,29 56,27 56,23 64,23 71,23 72,27 "/>
    <g>
     <path class="fil1" d="M64 30l-8 -2c0,0 -1,-1 -1,-1l1 -4c0,0 0,0 0,0l0 0 8 0 7 0c0,0 0,0 0,0l1 4c0,0 0,1 0,1l-8 2c0,0 0,0 0,0zm-8 -3l8 2 7 -2 0 -3 -7 0 -7 0 -1 3zm8 3c-1,-1 -1,-1 -1,-1l1 1z"/>
    </g>
    <line class="fil0" x1="71" y1="29" x2="57" y2= "29" />
    <path class="fil1" d="M71 29c0,0 0,0 0,0 0,0 0,0 0,0l-14 0c-1,0 -1,0 -1,0 0,0 0,0 1,0l14 0z"/>
    <path class="fil2" d="M63 27c-1,0 -2,0 -2,2 1,1 1,3 2,3l2 0c1,0 1,-2 1,-3 1,-2 0,-2 -1,-2l-2 0z"/>
    <path class="fil1" d="M63 27c0,0 -1,0 -1,0l0 0c0,0 0,0 0,1l0 0c0,0 0,0 0,0 0,0 0,1 0,1 0,0 0,0 0,1 0,1 0,2 1,2l2 0c0,0 0,-1 1,-2 0,-1 0,-1 0,-1 0,0 0,-1 0,-1 0,0 0,0 0,0 0,-1 -1,-1 -1,-1 0,0 0,0 0,0l-2 0zm-1 0c0,-1 1,-1 1,-1l2 0c0,0 0,0 0,1 1,0 1,0 1,0 1,0 1,1 1,1 0,0 0,1 0,1 -1,0 -1,0 -1,1 0,1 0,2 -1,3 0,0 0,0 0,0l-2 0 0 0c0,0 0,0 0,0 -1,-1 -2,-2 -2,-3 0,-1 0,-1 0,-1 0,0 0,-1 0,-1 0,0 0,-1 0,-1l0 0c0,0 1,0 1,0l0 0 0 0z"/>
    <rect class="fil2" x="63" y="32" width="1.71459" height="2.76436"/>
    <path class="fil1" d="M63 32l0 0 2 0c0,0 0,0 0,0l0 0 0 3c0,0 0,0 0,0l0 0 -2 0c0,0 -1,0 -1,0l0 0 0 -3c0,0 1,0 1,0zm1 1l-1 0 0 2 1 0 0 -2z"/>
    <path class="fil2" d="M63 29c-1,0 -1,0 -1,1 0,1 1,2 1,2l1 0c1,0 1,-1 1,-2 0,-1 0,-1 -1,-1l-1 0z"/>
    <path class="fil1" d="M63 29c0,0 0,0 0,0 0,0 0,0 0,0 0,1 0,1 0,1 0,0 0,0 0,0 0,0 0,0 0,1 0,0 0,1 0,1l1 0c0,0 1,-1 1,-1 0,-1 0,-1 0,-1 0,0 0,0 0,0 0,0 0,0 0,-1 0,0 0,0 0,0 -1,0 -1,0 -1,0l-1 0zm0 0c0,0 0,0 0,0l1 0c0,0 1,0 1,0 0,0 0,0 0,0 1,0 1,0 1,1 0,0 0,0 0,0 0,0 0,1 -1,1 0,1 0,1 -1,2 0,0 0,0 0,0l-1 0 0 0c0,0 0,0 0,0 -1,-1 -1,-1 -1,-2 0,0 0,-1 0,-1 0,0 0,0 0,0 0,-1 0,-1 0,-1l0 0c0,0 0,0 1,0z"/>
    <line class="fil0" x1="58" y1="23" x2="58" y2= "22" />
    <path class="fil1" d="M59 23c0,0 -1,1 -1,1 0,0 0,-1 0,-1l0 -1c0,0 0,-1 0,-1 0,0 1,1 1,1l0 1z"/>
    <line class="fil0" x1="69" y1="23" x2="69" y2= "22" />
    <path class="fil1" d="M70 23c0,0 -1,1 -1,1 0,0 0,-1 0,-1l0 -1c0,0 0,-1 0,-1 0,0 1,1 1,1l0 1z"/>
    <path class="fil1" d="M86 45c1,0 1,0 2,1 0,0 0,1 0,2l0 3c0,0 0,0 0,0l0 0 -17 0c0,0 0,0 0,0 0,0 -2,-2 2,-3 3,-1 8,-3 8,-3 0,0 1,0 1,0 0,1 0,1 1,1 0,0 0,1 1,1 0,0 1,-1 1,-1 0,0 1,0 1,-1 0,0 0,0 0,0l0 0zm1 1c0,0 0,0 -1,0 0,0 0,1 -1,1 0,0 -1,0 -1,0 -1,0 -1,0 -2,0 0,0 0,-1 -1,-1 -1,0 -5,2 -8,3 -2,0 -2,1 -2,2l16 0 0 -3c0,-1 0,-1 0,-2z"/>
    <path class="fil1" d="M87 51l-15 0 0 1c0,0 0,0 0,0l0 0c0,0 0,0 0,0l15 0c0,0 0,0 0,0 0,0 0,0 0,0l0 -1zm-16 0l17 0 0 0c0,0 0,0 0,0l0 1c0,0 0,0 0,0 0,1 -1,1 -1,1l-15 0c0,0 -1,0 -1,0l0 -1c0,0 0,0 0,0l0 -1 0 0c0,0 0,0 0,0z"/>
    <path class="fil1" d="M74 48c0,0 1,-1 1,-1 0,0 0,1 0,1l0 3c0,0 0,0 0,0 0,0 -1,0 -1,0l0 -3z"/>
    <path class="fil1" d="M84 51c0,0 0,0 0,0 0,0 0,0 -1,0 0,0 0,-1 -2,-1 -1,0 -2,0 -3,-1 -1,0 -2,0 -2,-2 0,0 0,0 0,0 0,0 0,0 0,0 0,1 1,1 2,2 1,0 2,0 3,0 2,0 3,2 3,2z"/>
    <path class="fil1" d="M77 47c0,0 0,0 0,0 0,0 0,-1 0,0l1 0c0,0 0,1 0,1 0,0 0,0 0,0l-1 -1z"/>
    <path class="fil1" d="M78 47c0,0 0,-1 0,-1 1,0 1,0 1,0l1 1c0,0 0,0 0,0 0,0 -1,1 -1,0l-1 0z"/>
    <path class="fil1" d="M80 46c0,0 0,0 0,0 0,-1 0,-1 0,0l1 0c0,0 0,1 0,1 0,0 0,0 0,0l-1 -1z"/>
    <path class="fil3" d="M52 67l-19 0c0,0 -1,1 -1,2l0 1c0,1 1,2 1,2 0,0 -1,1 -1,2l0 2c0,1 1,2 1,2l19 0c2,0 3,-1 3,-4l0 -2 0 -1c0,-3 -1,-4 -3,-4z"/>
    <path class="fil4" d="M52 67l-19 0c0,0 0,0 0,0l0 0c0,1 -1,1 -1,2l0 1c0,1 1,1 1,1 0,1 0,1 0,1l0 1c0,0 0,0 0,0l0 0c0,0 -1,1 -1,1l0 2c0,0 1,1 1,1l0 0c0,0 0,0 0,0l19 0c1,0 2,0 2,0 0,-1 1,-2 1,-3l0 -2 0 -1c0,-2 -1,-3 -1,-3 0,-1 -1,-1 -2,-1zm-19 -1l19 0c1,0 2,1 3,1 0,1 0,2 0,4l0 1 0 2c0,1 0,2 0,3 -1,1 -2,1 -3,1l-19 0c0,0 -1,0 -1,0l0 0c0,-1 0,-1 0,-2l0 -2c0,0 0,-1 0,-1l0 0c0,-1 0,-1 0,-1 0,0 0,0 0,0 0,0 0,-1 0,-2l0 -1c0,-1 0,-2 0,-2l0 0c0,0 1,-1 1,-1z"/>
    <line class="fil0" x1="33" y1="72" x2="50" y2= "72" />
    <polygon class="fil4" points="33,72 50,72 50,73 33,73 "/>
    <polyline class="fil0" points="51,74 50,72 51,71 "/>
    <path class="fil5" d="M51 73c0,1 0,1 0,1 0,0 0,0 0,0l-2 -1c0,-1 0,-1 0,-1l2 -1c0,-1 0,-1 0,0 0,0 0,0 0,0l-1 1 1 1z"/>
    <path class="fil3" d="M53 55l-18 0c-1,0 -2,1 -2,2l0 2c0,1 1,2 2,2 -1,0 -2,1 -2,2l0 2c0,1 1,2 2,2l18 0c2,0 3,-1 3,-5l0 -1 0 -1c0,-3 -1,-5 -3,-5z"/>
    <path class="fil4" d="M53 56l-18 0c0,0 -1,0 -1,0l0 0c0,1 0,1 0,1l0 2c0,1 0,1 0,1l0 0c0,1 1,1 1,1l0 0c0,0 -1,1 -1,1l0 0c0,0 0,1 0,1l0 2c0,0 0,1 0,1l0 0c0,0 1,0 1,0l18 0c1,0 2,0 2,-1 1,0 1,-1 1,-3l0 -1 0 -1c0,-2 0,-3 -1,-3 0,-1 -1,-1 -2,-1zm-18 -1l18 0c2,0 2,0 3,1 1,1 1,2 1,4l0 1 0 1c0,2 0,3 -1,4 -1,1 -1,1 -3,1l-18 0c-1,0 -1,0 -1,-1l0 0c-1,0 -1,-1 -1,-1l0 -2c0,-1 0,-1 1,-2l0 0c0,0 0,0 0,0 0,0 0,0 0,0l0 0c-1,-1 -1,-1 -1,-2l0 -2c0,0 0,-1 1,-1l0 0c0,-1 0,-1 1,-1z"/>
    <line class="fil0" x1="35" y1="61" x2="51" y2= "61" />
    <polygon class="fil4" points="35,61 51,61 51,61 35,61 "/>
    <polyline class="fil0" points="52,62 51,61 52,60 "/>
    <path class="fil5" d="M53 62c0,0 0,1 -1,1 0,0 0,0 0,0l-1 -2c0,0 0,0 0,0l1 -2c0,0 0,0 1,0 0,1 0,1 0,1l-2 1 2 1z"/>
    <path class="fil3" d="M51 44l-19 0c-1,0 -1,1 -1,2l0 2c0,1 0,2 1,2 -1,0 -1,1 -1,2l0 2c0,1 0,1 1,1l19 0c2,0 3,-1 3,-4l0 -1 0 -1c0,-4 -1,-5 -3,-5z"/>
    <path class="fil4" d="M51 45l-19 0c0,0 0,0 0,0l0 0c-1,0 -1,1 -1,1l0 2c0,0 0,1 1,1 0,0 0,1 0,1l0 0c0,0 0,0 0,1l0 0c-1,0 -1,0 -1,1l0 2c0,0 0,0 1,1l0 0c0,0 0,0 0,0l19 0c1,0 1,0 2,-1 0,0 0,-1 0,-3l0 -1 0 -1c0,-2 0,-3 0,-4 -1,0 -1,0 -2,0zm-19 -1l19 0c1,0 2,0 2,1 1,1 1,2 1,4l0 1 0 1c0,2 0,3 -1,4 0,1 -1,1 -2,1l-19 0c0,0 -1,0 -1,-1l0 0c0,0 -1,-1 -1,-1l0 -2c0,-1 1,-1 1,-2l0 0c0,0 0,0 0,0 0,0 0,0 0,0 0,-1 -1,-1 -1,-2l0 -2c0,0 1,-1 1,-1l0 0c0,-1 1,-1 1,-1z"/>
    <line class="fil0" x1="32" y1="50" x2="48" y2= "50" />
    <polygon class="fil4" points="32,50 48,50 48,50 32,50 "/>
    <polyline class="fil0" points="50,51 48,50 50,49 "/>
    <path class="fil4" d="M50 51c0,0 0,0 0,1 0,0 -1,0 -1,0l-1 -2c0,0 0,0 0,0l1 -2c1,0 1,0 1,0 0,0 0,1 0,1l-1 1 1 1z"/>
    <rect class="fil3" x="67" y="51" width="8.05138" height="24.4187"/>
    <path class="fil4" d="M67 51l0 0 8 0c0,0 0,0 0,0l0 0 0 25c0,0 0,0 0,0l0 0 -8 0c0,0 0,0 0,0l0 0 0 -25c0,0 0,0 0,0zm8 1l-8 0 0 23 8 0 0 -23z"/>
    <rect class="fil3" x="48" y="51" width="8.05138" height="24.4187"/>
    <path class="fil4" d="M48 51l0 0 8 0c1,0 1,0 1,0l0 0 0 25c0,0 0,0 -1,0l0 0 -8 0c0,0 0,0 0,0l0 0 0 -25c0,0 0,0 0,0zm8 1l-7 0 0 23 7 0 0 -23z"/>
    <path class="fil2" d="M76 54l-5 25c-1,1 -2,2 -3,2l-17 0 -17 0c-1,0 -3,-1 -3,-2l-5 -25c0,-1 0,-2 2,-2l23 0 23 0c2,0 2,1 2,2zm-33 23l1 -1 -3 -6 -3 6 0 1 5 0zm-10 -9l3 4 3 -5 -3 -6 -3 5 0 2zm-1 -7l2 -3 -1 -2 -1 0c-1,0 -1,1 -1,1l1 4zm6 -5l0 2 3 5 3 -5 -1 -2 -5 0zm11 0l-1 2 3 5 3 -5 -1 -2 -4 0zm10 0l-1 2 3 5 3 -5 0 -2 -5 0zm10 0l-1 2 2 3 1 -4c0,0 0,-1 -1,-1l-1 0zm0 10l-3 -5 -3 6 3 5 3 -3 0 -3zm-5 11l0 -1 -3 -6 -3 6 1 1 5 0zm-11 0l1 -1 -3 -6 -3 6 1 1 2 0 2 0zm-7 -5l3 -5 -3 -6 -3 6 3 5zm10 0l3 -5 -3 -6 -3 6 3 5z"/>
    <path class="fil6" d="M76 54l-5 25c0,0 -1,1 -1,2 -1,0 -2,1 -2,1l-17 0 -17 0c-1,0 -1,-1 -2,-1 -1,-1 -1,-2 -1,-2l-5 -25c0,0 0,0 0,0 0,-1 0,-1 0,-1 0,-1 1,-1 1,-1l0 0c0,0 0,0 1,0l23 0 23 0c0,0 1,0 1,0l0 0 0 0c0,0 1,0 1,1 0,0 0,0 0,1 0,0 0,0 0,0zm-6 24l6 -24c0,0 0,0 0,0 0,0 0,-1 -1,-1 0,0 0,0 0,0l0 0c0,0 -1,0 -1,0l-23 0 -23 0c0,0 -1,0 -1,0l0 0c0,0 0,0 0,0 -1,0 -1,1 -1,1 0,0 0,0 0,0l6 24c0,1 0,2 1,2 0,1 1,1 1,1l17 0 17 0c0,0 1,0 1,-1 1,0 1,-1 1,-2zm-27 -1l0 -1 -2 -5 -3 5 1 1 4 0zm1 -1l-1 1c0,1 0,1 0,1l-5 0 0 0c0,0 0,0 0,-1l-1 -1c0,0 0,0 0,0l3 -6c0,0 0,0 1,0 0,0 0,0 0,0l3 6c0,0 0,0 0,0zm-10 -8l2 3 2 -4 -2 -5 -3 4 1 2zm1 4l-2 -3c0,0 0,0 0,-1l0 -2 0 0c-1,0 0,0 0,0l2 -5c0,0 0,0 0,0 1,0 1,0 1,0l3 6c0,0 0,0 0,0l-3 5c0,0 0,1 0,1 0,0 -1,0 -1,-1zm-3 -12l1 -2 -1 -1 0 0c0,0 0,0 0,0 -1,0 -1,0 0,0l0 3zm2 -2l-2 3c0,0 0,0 0,0 0,0 0,0 -1,0l0 -4c0,0 0,0 0,-1 0,0 0,0 1,0l1 0 0 0c0,0 0,0 0,0l1 2c0,0 0,0 0,0zm5 -1l-1 1 3 5 2 -5 0 -1 -4 0zm-2 1l1 -2c0,0 0,0 0,0l5 0 0 0c0,0 0,0 0,0l1 2 0 0c0,0 0,0 0,0l-3 6c0,0 0,0 0,0 0,0 -1,0 -1,0l-3 -6c0,0 0,0 0,0zm12 -1l-1 1 3 5 3 -5 -1 -1 -4 0zm-1 1l0 -2c0,0 1,0 1,0l4 0 0 0c0,0 1,0 1,0l0 2c1,0 1,0 0,0l-3 6c0,0 0,0 0,0 0,0 0,0 0,0l-3 -6c-1,0 -1,0 0,0zm11 -1l0 1 2 5 3 -5 -1 -1 -4 0zm-1 1l1 -2c0,0 0,0 0,0l5 0 0 0c0,0 0,0 0,0l1 2 0 0c0,0 0,0 0,0l-3 6c0,0 0,0 -1,0 0,0 0,0 0,0l-3 -6 0 0c0,0 0,0 0,0zm11 -1l0 1 1 2 0 -3c0,0 0,0 0,0 0,0 0,0 0,0l-1 0zm-1 1l1 -2c0,0 0,0 0,0l1 0c1,0 1,0 1,0 0,1 0,1 0,1l-1 4 0 0c0,0 0,0 0,0 0,0 0,0 0,0l-2 -3 0 0c0,0 0,0 0,0zm1 8l-3 -4 -2 5 2 5 2 -4 1 -2zm-2 -5l2 5c0,0 0,0 0,0l0 3 0 0c0,0 0,0 0,0l-2 3c0,1 0,1 0,1 -1,0 -1,0 -1,-1l-3 -5c0,0 0,0 0,0l3 -6c0,0 0,0 0,0 0,0 1,0 1,0zm-4 16l1 -1 -3 -5 -2 5 0 1 4 0zm2 -1l-1 1c0,1 0,1 0,1l-5 0 0 0c0,0 0,0 0,-1l-1 -1c0,0 0,0 0,0l3 -6c0,0 0,0 0,0 0,0 0,0 1,0l3 6c0,0 0,0 0,0zm-12 1l1 -1 -3 -5 -3 5 1 1 2 0 2 0zm1 -1l0 1c0,1 -1,1 -1,1l-2 0 -2 0 0 0c0,0 -1,0 -1,-1l0 -1c-1,0 -1,0 0,0l3 -6c0,0 0,0 0,0 0,0 0,0 0,0l3 6c1,0 1,0 0,0zm-8 -4l3 -5 -3 -5 -3 5 3 5zm3 -5l-3 5c0,1 0,1 0,1 0,0 0,0 0,-1l-4 -5c0,0 0,0 0,0l4 -6c0,0 0,0 0,0 0,0 0,0 0,0l3 6c0,0 0,0 0,0zm7 4l3 -4 -3 -5 -3 5 3 4zm4 -4l-4 5 0 0c0,1 0,1 0,1 0,0 0,0 0,-1l-3 -5c0,0 0,0 0,0l3 -6c0,0 0,0 0,0 0,0 0,0 0,0l4 6c0,0 0,0 0,0z"/>
    <rect class="fil2" transform="matrix(0.291535 0.137329 -0.170477 0.361905 27.3053 53.4689)" width="10.9383" height="44.7925" rx="5" ry="5"/>
    <g>
     <path class="fil6" d="M29 54c0,0 0,0 0,0 1,0 1,1 1,1 0,1 0,1 0,2l-6 13c0,0 -1,1 -1,1 -1,0 -1,0 -2,0 0,0 0,0 0,0 0,0 -1,-1 -1,-1 0,-1 0,-2 0,-2l9 -14zm0 1c0,0 0,0 0,0l0 0c-1,-1 -1,-1 -1,0 -1,0 -1,0 -1,0l0 0 -6 13 0 0c0,1 0,1 0,1 0,1 0,1 0,1 0,0 0,0 0,0 1,0 1,0 1,0 1,0 1,0 1,-1l6 -13c1,0 1,0 0,-1zm-9 13l6 -13c0,0 0,0 0,0 0,-1 1,-1 1,-1 1,0 2,0 2,0l-9 14z"/>
    </g>
    <rect class="fil2" transform="matrix(-0.28984 0.13653 0.169486 0.3598 71.8592 53.6299)" width="10.9383" height="44.7925" rx="5" ry="5"/>
    <g>
     <path class="fil6" d="M70 55l0 0c0,0 0,0 0,0 0,1 0,1 0,2l6 12 0 0 0 1c0,0 0,0 1,0 0,0 0,0 1,0l0 0c0,0 0,0 0,-1 1,0 1,0 0,-1l0 0 0 0 0 0 -6 -13c0,0 0,0 -1,0 0,0 0,0 -1,0zm-1 0c0,0 1,-1 1,-1l0 0c1,0 1,0 2,0 0,0 1,1 1,1l6 13 0 0c0,1 0,1 0,2 0,0 0,1 -1,1 0,0 0,0 0,0 -1,0 -1,0 -2,0 0,0 -1,-1 -1,-1l0 0 -6 -13c0,-1 0,-1 0,-2zm10 13l0 0 0 0z"/>
    </g>
    <polygon class="fil3" points="48,51 60,51 61,54 62,57 63,54 64,51 75,51 70,68 62,68 53,68 "/>
    <path class="fil4" d="M48 51l12 0c0,0 0,0 0,0l1 3 0 0 1 2 0 -2 0 0 1 -3c0,0 1,0 1,0l0 0 11 0c0,0 0,0 0,0 0,0 0,0 0,0l-4 18c0,0 -1,0 -1,0l0 0 -8 0 -9 0c0,0 0,0 0,-1l-5 -17c0,0 0,0 0,0 0,0 0,0 0,0l0 0zm11 1l-10 0 4 16 9 0 8 0 5 -16 -11 0 -1 2 0 0 -1 3 0 0c0,0 0,0 0,0 0,0 -1,0 -1,0l-1 -3 0 0 -1 -2z"/>
    <line class="fil0" x1="53" y1="66" x2="70" y2= "66" />
    <path class="fil4" d="M53 67c0,0 0,0 0,-1 0,0 0,0 0,0l17 0c1,0 1,0 1,0 0,1 0,1 -1,1l-17 0z"/>
    <path class="fil0" d="M52 63c0,0 4,0 4,3"/>
    <path class="fil4" d="M52 64c0,0 0,0 0,-1 0,0 0,0 0,0 0,0 5,-1 5,3 0,1 0,1 -1,1 0,0 0,0 0,-1 0,-3 -4,-2 -4,-2z"/>
    <path class="fil0" d="M71 63c0,0 -4,0 -4,3"/>
    <path class="fil4" d="M71 63c0,0 1,0 1,0 0,1 -1,1 -1,1 0,0 -3,-1 -3,2 0,1 -1,1 -1,1 0,0 0,0 0,-1 0,-4 4,-3 4,-3z"/>
    <line class="fil0" x1="62" y1="66" x2="62" y2= "61" />
    <path class="fil4" d="M62 66c0,1 0,1 0,1 0,0 -1,0 -1,-1l0 -5c0,0 1,0 1,0 0,0 0,0 0,0l0 5z"/>
   </g>
  </g>
 </g>
</svg>
