<?xml version="1.0" encoding="UTF-8"?>
<!DOCTYPE svg PUBLIC "-//W3C//DTD SVG 1.1//EN" "http://www.w3.org/Graphics/SVG/1.1/DTD/svg11.dtd">
<!-- Creator: CorelDRAW X7 -->
<svg xmlns="http://www.w3.org/2000/svg" xml:space="preserve" width="100px" height="100px" version="1.1" style="shape-rendering:geometricPrecision; text-rendering:geometricPrecision; image-rendering:optimizeQuality; fill-rule:evenodd; clip-rule:evenodd"
viewBox="0 0 100 100"
 xmlns:xlink="http://www.w3.org/1999/xlink">
 <defs>
  <style type="text/css">
   <![CDATA[
    .fil0 {fill:none}
    .fil1 {fill:#FEFEFE}
    .fil6 {fill:#FEFEFE}
    .fil11 {fill:#D9F0FF}
    .fil10 {fill:#FF8C8C}
    .fil8 {fill:#FFD1D3}
    .fil5 {fill:#FFFCFC}
    .fil4 {fill:#EEEEEF;fill-rule:nonzero}
    .fil2 {fill:#DCDDDD;fill-rule:nonzero}
    .fil3 {fill:#DCDDDD;fill-rule:nonzero}
    .fil7 {fill:#5F5D5D;fill-rule:nonzero}
    .fil12 {fill:#EA6168;fill-rule:nonzero}
    .fil9 {fill:#E62129;fill-rule:nonzero}
   ]]>
  </style>
 </defs>
 <g id="Layer_x0020_1">
  <metadata id="CorelCorpID_0Corel-Layer"/>
  <g id="_730036384">
   <rect class="fil0" width="100" height="100"/>
   <g>
    <circle class="fil1" cx="17" cy="49" r="16"/>
    <path class="fil2" d="M17 33c4,0 8,2 11,5 4,3 5,7 5,11 0,5 -1,9 -5,12 -3,3 -7,5 -11,5 -5,0 -9,-2 -12,-5 -3,-3 -5,-7 -5,-12 0,-4 2,-8 5,-11 3,-3 7,-5 12,-5zm11 5c-3,-3 -7,-5 -11,-5 -5,0 -9,2 -12,5 -2,3 -4,7 -4,11 0,5 2,9 4,12 3,2 7,4 12,4 4,0 8,-2 11,-4 3,-3 5,-7 5,-12 0,-4 -2,-8 -5,-11z"/>
    <path class="fil1" d="M21 65c-2,0 -3,1 -4,1 -4,0 -7,-1 -10,-3 2,-1 4,-1 5,-1 0,1 3,2 2,0 -1,-1 0,-2 1,-3 1,0 2,0 2,2 1,2 3,1 3,3 0,0 0,1 1,1z"/>
    <g>
     <path class="fil2" d="M21 66c-1,0 -2,0 -2,0l0 0c-1,0 -2,0 -2,0 -2,0 -4,0 -5,-1 -2,0 -3,-1 -5,-2 0,0 0,0 0,0 0,-1 0,-1 0,-1l0 0c1,0 2,0 3,0 1,-1 2,0 2,0 0,0 1,1 1,1 0,0 0,0 0,0l0 0 0 0 0 0c0,0 0,-1 0,-1 0,0 0,0 0,0 0,-1 0,-1 0,-2 0,0 1,-1 1,-1 0,0 0,0 1,0 0,0 1,0 1,0l0 0c1,1 1,1 1,2 1,1 1,1 2,1 1,1 1,1 1,2 1,0 1,0 1,1l0 0c0,0 0,0 0,1 0,0 0,0 0,0zm-2 -1c0,0 1,0 1,0 0,0 0,-1 0,-1 0,-1 -1,-1 -1,-1 -1,0 -2,0 -2,-2 -1,0 -1,-1 -1,-1l0 0c0,0 -1,0 -1,0 0,0 0,0 0,0 -1,0 -1,0 -1,1 0,0 0,0 0,1 0,0 0,0 0,0 0,0 0,1 0,1 0,0 0,0 0,0l0 0 0 0c-1,0 -1,0 -1,0 -1,0 -2,0 -2,-1 0,0 0,0 -1,0 0,0 -1,1 -2,1 1,1 3,1 4,2 1,0 3,0 5,0 0,0 1,0 2,0l0 0zm-6 -2l0 0 0 0z"/>
    </g>
    <path class="fil1" d="M30 40c2,3 3,6 3,9 0,5 -2,9 -5,12 -1,-1 -1,-1 -2,-2 -1,-2 2,-4 1,-5 -1,-1 -1,-2 2,-3 2,0 1,-3 2,-4 0,-1 -1,-2 -2,-4 0,-1 0,-2 1,-3z"/>
    <path class="fil2" d="M31 40c1,1 1,3 2,5 0,1 0,3 0,4 0,3 0,5 -1,7 -1,2 -2,3 -3,5 -1,0 -1,0 -1,0 0,0 -1,-1 -1,-1l0 0c0,0 -1,-1 -1,-1 -1,-1 0,-2 0,-3l0 0c1,0 1,-1 1,-2 -1,0 -1,0 -1,-1 0,0 0,0 0,-1 0,0 0,0 1,0 0,-1 1,-1 2,-1 1,-1 1,-2 1,-3 0,-1 0,-1 0,-1 0,-1 0,-1 -1,-2l0 0 0 0c0,-1 0,-1 0,-2 -1,0 -1,-1 0,-1 0,-1 1,-1 1,-2 0,0 0,0 1,0 0,0 0,0 0,0zm1 5c-1,-2 -1,-3 -2,-4 0,0 0,1 -1,1 0,0 0,1 0,1 1,0 1,1 1,1l0 0c1,1 1,2 1,3 0,0 0,0 0,1 0,1 0,3 -2,4 -1,0 -2,0 -2,0 0,0 0,1 0,1 0,0 0,0 0,0 0,0 0,1 0,1 1,1 0,2 0,3l0 0c0,0 -1,1 0,2 0,0 0,0 0,1l0 0 0 0c1,0 1,0 1,0 2,-1 3,-3 3,-5 1,-2 2,-4 2,-6 0,-1 -1,-3 -1,-4z"/>
    <path class="fil1" d="M0 50c0,0 0,-1 0,-1 0,-8 7,-15 16,-16 0,1 1,2 1,2 -1,2 -3,2 -3,3 0,2 4,4 4,5 0,2 1,2 1,4 0,2 -2,4 -3,2 -1,-1 -3,1 -5,-1 -2,-1 -2,2 -3,2 -2,0 -2,4 -4,3 -3,0 -1,-2 -2,-3 -1,0 -1,0 -2,0z"/>
    <path class="fil2" d="M0 50l0 0 0 0 0 -1c0,-4 2,-8 5,-11l0 0c2,-3 6,-5 11,-5 0,0 0,0 0,0 0,0 1,1 1,1 0,1 0,1 0,2 0,1 -1,1 -2,2 0,0 0,0 0,0 0,1 0,2 1,3 1,0 2,1 2,2 0,1 0,1 0,2l0 0c1,0 1,1 1,2 0,1 0,2 -1,3 0,0 -1,0 -1,0 0,0 -1,1 -1,0 0,0 -1,0 -1,0 0,-1 -1,-1 -1,-1 -1,0 -2,1 -3,0 -1,-1 -1,-1 -1,-1 0,0 0,1 -1,1l0 0 0 0c0,1 -1,2 -2,1 0,0 0,1 -1,2 0,1 -1,2 -2,2 -2,-1 -2,-2 -2,-3 0,0 0,0 -1,-1l0 0c0,0 0,0 0,0 0,0 0,0 -1,0 0,0 0,0 0,0l0 0zm5 -11c-3,2 -4,6 -4,10 0,0 0,0 0,0 0,0 1,1 1,1l0 0c0,0 0,1 1,1 0,1 0,1 1,2 1,0 1,-1 2,-2 0,-1 1,-2 2,-1 0,0 0,-1 1,-1l0 0c0,-1 0,-1 0,-1 1,-1 1,-1 2,0 1,1 2,1 2,0 1,0 2,0 3,1 0,0 0,1 0,1 0,0 1,0 1,0 0,-1 0,-1 0,-1 1,0 1,-1 1,-2 0,-1 0,-1 0,-2l0 0c-1,0 -1,-1 -1,-2 0,0 -1,-1 -1,-2 -1,-1 -2,-2 -2,-3 0,-1 0,-1 1,-1 0,0 1,-1 1,-2 0,0 0,0 0,0 0,-1 0,-1 -1,-1 -4,0 -7,2 -10,4l0 1z"/>
    <line class="fil0" x1="17" y1="66" x2="17" y2= "68" />
    <path class="fil2" d="M16 66c0,-1 0,-1 1,-1 0,0 0,0 0,1l0 2c0,0 0,1 0,1 -1,0 -1,-1 -1,-1l0 -2z"/>
    <path class="fil1" d="M23 75c0,0 0,0 0,0 0,1 -3,2 -6,2 -4,0 -7,-1 -7,-2 0,0 0,0 0,0 1,-2 5,0 6,-7l2 0c0,7 4,5 5,7z"/>
    <path class="fil2" d="M23 75c0,0 0,0 0,0l0 0 0 0c0,0 0,0 0,0 0,1 0,2 -2,2 -1,0 -3,0 -4,0 -2,0 -4,0 -5,0 -1,0 -2,-1 -2,-2 0,0 0,0 0,0 0,0 0,0 0,0 0,-1 1,-1 2,-2 1,0 3,-1 3,-5 0,0 1,0 1,0l0 0 2 0c0,0 0,0 0,0 0,4 2,5 3,5 1,1 2,1 2,2zm-2 1c1,0 2,0 2,-1 0,0 0,0 0,0 -1,-1 -1,-1 -2,-1 -1,-1 -3,-2 -4,-5l-1 0c0,3 -2,4 -4,5 0,0 -1,0 -1,1l0 0c0,0 0,0 0,0l0 0c0,0 0,0 0,0 0,1 0,1 1,1 1,0 3,0 5,0 1,0 3,0 4,0z"/>
    <path class="fil1" d="M53 24l-17 7c-1,0 -2,2 -2,4l14 33c1,2 3,2 4,2l24 -10c1,-1 2,-2 1,-4l-10 -26 -14 -6z"/>
    <g>
     <path class="fil2" d="M53 24l-17 7c0,0 -1,1 -1,2 0,0 0,1 0,2l13 33 0 0c1,1 1,1 2,1 1,1 1,1 2,0l0 0 24 -9 0 0c0,-1 1,-1 1,-2 0,0 0,-1 0,-2l0 0 -11 -26 -13 -6zm-17 6l17 -6c0,-1 0,-1 0,0l14 5 0 0c0,0 0,0 0,1l11 26c0,0 0,0 0,0 0,1 0,2 0,3 0,0 -1,1 -2,1 0,0 0,0 0,0l-24 10c0,0 0,0 0,0 -1,1 -2,0 -2,0 -1,0 -2,-1 -2,-2 0,0 0,0 0,0l-14 -33c0,-1 0,-2 0,-3 0,-1 1,-1 2,-2zm42 26c0,0 0,0 0,0l0 0z"/>
    </g>
    <path class="fil1" d="M53 24c0,0 14,6 14,6l-7 2c-2,1 -4,0 -5,-2l-2 -6z"/>
    <path class="fil2" d="M53 24l14 5c0,0 0,1 0,1 0,0 0,0 0,0l-6 3c-2,0 -3,0 -4,0 -1,-1 -1,-2 -2,-3l-3 -6c0,0 0,0 1,0 0,-1 0,-1 0,0l0 0zm13 6l-12 -5 2 5c0,1 1,2 2,2 0,0 1,0 2,0l6 -2z"/>
    <circle class="fil1" transform="matrix(0.58459 -0.240237 0.240237 0.58459 45.3734 36.9984)" r="5"/>
    <path class="fil2" d="M44 34c1,-1 2,-1 3,0 1,0 1,1 2,2 0,1 0,2 0,2 -1,1 -1,2 -2,2 -1,1 -2,1 -3,0 -1,0 -2,-1 -2,-2 0,-1 0,-2 0,-2 0,-1 1,-2 2,-2zm2 0c0,0 -1,0 -2,0 0,1 -1,1 -1,2 0,1 0,1 0,2 0,1 1,1 1,2 1,0 2,0 2,0 1,-1 2,-1 2,-2 0,-1 0,-1 0,-2 0,-1 -1,-1 -2,-2z"/>
    <line class="fil0" x1="45" y1="47" x2="65" y2= "39" />
    <path class="fil2" d="M45 48c0,0 0,0 0,-1 -1,0 0,0 0,0l20 -8c0,-1 0,0 0,0 1,0 0,0 0,0l-20 9z"/>
    <line class="fil0" x1="44" y1="45" x2="64" y2= "36" />
    <path class="fil2" d="M44 45c0,0 0,0 -1,0 0,0 0,-1 1,-1l20 -8c0,0 0,0 0,0 0,0 0,1 0,1l-20 8z"/>
    <line class="fil0" x1="46" y1="50" x2="66" y2= "42" />
    <path class="fil2" d="M46 50c0,0 0,0 0,0 0,0 0,0 0,0l20 -9c0,0 1,0 1,0 0,1 0,1 -1,1l-20 8z"/>
    <path class="fil1" d="M58 24l-18 3c-2,0 -3,2 -2,3l5 36c1,1 2,3 4,2l25 -4c2,0 3,-2 3,-4l-5 -27 -12 -9z"/>
    <path class="fil2" d="M58 24l-18 3c-1,0 -1,1 -2,1 0,1 0,2 0,2l6 36c0,0 0,1 1,1 0,1 1,1 2,1l25 -4c1,0 1,-1 2,-1 0,-1 0,-2 0,-2l-4 -28 -12 -9zm-18 2l18 -3 0 0c0,0 0,0 0,0l12 9c0,0 1,0 1,0l4 28c0,1 0,2 -1,3 0,1 -1,1 -2,2l-25 4c-1,0 -2,0 -3,-1 0,-1 -1,-1 -1,-2l-6 -36c0,-1 0,-2 1,-2 0,-1 1,-2 2,-2z"/>
    <path class="fil1" d="M58 24c0,0 12,9 12,9l-7 1c-2,0 -4,-1 -4,-4l-1 -6z"/>
    <path class="fil2" d="M58 23l12 9c1,0 1,1 0,1 0,0 0,0 0,0l0 0 -7 1c-1,0 -2,0 -3,-1 -1,0 -1,-1 -1,-2l-1 -7c-1,0 0,-1 0,-1 0,0 0,0 0,0zm11 9l-10 -7 0 5c1,1 1,2 2,3 1,0 1,0 2,0l6 -1z"/>
    <circle class="fil1" transform="matrix(0.623752 -0.101948 0.101948 0.623752 47.6915 34.8029)" r="5"/>
    <g>
     <path class="fil2" d="M47 31c1,0 2,0 3,1 1,0 1,1 1,2 0,1 0,2 0,3 -1,1 -2,1 -3,1 -1,0 -2,0 -2,0 -1,-1 -2,-2 -2,-3l0 0c0,-1 0,-2 1,-2 0,-1 1,-2 2,-2l0 0zm2 2c0,-1 -1,-1 -2,-1l2 1zm1 1c0,0 0,-1 -1,-1l1 1zm0 2c0,0 1,-1 0,-2l0 2zm-2 2c1,-1 2,-1 2,-2l-2 2zm-2 -1c1,0 1,1 2,1l-2 -1zm-1 -2c0,1 1,2 1,2l-1 -2zm0 -2c0,1 0,1 0,2l0 -2zm2 -1c-1,0 -1,1 -2,1l2 -1z"/>
    </g>
    <line class="fil0" x1="45" y1="45" x2="66" y2= "41" />
    <path class="fil2" d="M45 45c0,0 0,0 0,0 0,0 0,-1 0,-1l21 -3c1,0 1,0 1,0 0,0 0,1 0,1l-22 3z"/>
    <line class="fil0" x1="44" y1="42" x2="66" y2= "38" />
    <path class="fil2" d="M45 42c-1,0 -1,0 -1,0 0,0 0,-1 0,-1l22 -3c0,0 0,0 0,0 0,0 0,1 0,1l-21 3z"/>
    <line class="fil0" x1="45" y1="48" x2="67" y2= "44" />
    <path class="fil2" d="M45 48c0,0 0,0 0,0 0,-1 0,-1 0,-1l22 -3c0,0 0,0 0,0 0,0 0,0 0,0l-22 4z"/>
    <path class="fil1" d="M65 23l-18 0c-2,0 -3,2 -3,3l0 36c0,2 1,3 3,3l25 0c2,0 3,-1 3,-3l0 -28 -10 -11z"/>
    <path class="fil2" d="M65 24l-18 0c-1,0 -2,0 -2,0l0 0c-1,1 -1,2 -1,2l0 36c0,1 0,2 1,2 0,1 1,1 2,1l25 0c1,0 2,0 2,-1 1,0 1,-1 1,-2l0 -28 -10 -10zm-18 -1l18 0c0,0 0,0 0,0l11 10 0 0c0,1 0,1 0,1l0 28c0,1 -1,2 -1,3 -1,0 -2,1 -3,1l-25 0c-1,0 -2,-1 -3,-1 0,-1 -1,-2 -1,-3l0 -36c0,-1 1,-2 1,-2l0 0c1,-1 2,-1 3,-1z"/>
    <path class="fil1" d="M65 23c0,0 10,11 10,11l-6 0c-2,0 -4,-2 -4,-4l0 -7z"/>
    <path class="fil2" d="M65 23l0 0 11 10c0,1 0,1 0,1 0,0 0,0 -1,0l0 0 -6 0c-2,0 -3,0 -3,-1l0 0c-1,-1 -2,-2 -2,-3l0 -7c0,0 1,0 1,0 0,0 0,0 0,0zm9 10l-9 -9 0 6c0,1 1,2 1,2l0 0c1,1 2,1 3,1l5 0z"/>
    <circle class="fil1" cx="53" cy="32" r="3"/>
    <path class="fil2" d="M53 29c1,0 2,0 2,1l0 0 0 0 0 0c1,0 1,1 1,2 0,1 0,2 -1,3l0 0 0 0 0 0c0,1 -1,1 -2,1 -1,0 -2,0 -3,-1l0 0c0,-1 -1,-2 -1,-3 0,-1 1,-2 1,-2l0 0c1,-1 2,-1 3,-1zm2 1c-1,0 -1,0 -2,0 -1,0 -2,0 -2,0l0 0 0 0c-1,1 -1,2 -1,2 0,1 0,2 1,2l0 0c0,1 1,1 2,1 1,0 1,0 2,-1l0 0c0,0 1,-1 1,-2 0,0 -1,-1 -1,-2l0 0z"/>
    <line class="fil0" x1="49" y1="42" x2="70" y2= "42" />
    <path class="fil2" d="M49 42c-1,0 -1,0 -1,0 0,-1 0,-1 1,-1l21 0c1,0 1,0 1,1 0,0 0,0 -1,0l-21 0z"/>
    <line class="fil0" x1="49" y1="39" x2="70" y2= "39" />
    <path class="fil2" d="M49 39c-1,0 -1,0 -1,0 0,0 0,-1 1,-1l21 0c1,0 1,1 1,1 0,0 0,0 -1,0l-21 0z"/>
    <line class="fil0" x1="49" y1="45" x2="70" y2= "45" />
    <path class="fil2" d="M49 45c-1,0 -1,0 -1,0 0,-1 0,-1 1,-1l21 0c1,0 1,0 1,1 0,0 0,0 -1,0l-21 0z"/>
    <circle class="fil1" cx="83" cy="61" r="16"/>
    <path class="fil2" d="M83 44c5,0 9,2 12,5 3,3 5,7 5,12 0,4 -2,8 -5,11 -3,3 -7,5 -12,5 -4,0 -8,-2 -11,-5 -3,-3 -5,-7 -5,-11 0,-5 2,-9 5,-12 3,-3 7,-5 11,-5zm12 6c-3,-3 -7,-5 -12,-5 -4,0 -8,2 -11,5 -3,2 -4,6 -4,11 0,4 1,8 4,11 3,3 7,4 11,4 5,0 9,-1 12,-4 2,-3 4,-7 4,-11 0,-5 -2,-9 -4,-11z"/>
    <circle class="fil1" cx="83" cy="61" r="11"/>
    <path class="fil2" d="M83 49c4,0 6,2 8,4 3,2 4,5 4,8 0,3 -1,6 -4,8 -2,2 -4,3 -8,3 -3,0 -6,-1 -8,-3 -2,-2 -3,-5 -3,-8 0,-3 1,-6 3,-8 2,-2 5,-4 8,-4zm8 4c-2,-2 -5,-3 -8,-3 -2,0 -5,1 -7,3 -2,2 -3,5 -3,8 0,3 1,5 3,7 2,2 5,3 7,3 3,0 6,-1 8,-3 2,-2 3,-4 3,-7 0,-3 -1,-6 -3,-8z"/>
    <g>
     <path class="fil2" d="M81 56l2 2 2 2c0,0 0,0 0,0l1 3 0 2c1,0 0,1 0,1 0,0 0,0 0,0l-2 -2 -2 -2c0,0 0,-1 0,-1l-1 -2 -1 -3c0,0 0,0 1,0 0,0 0,0 0,0zm1 2l0 0 0 1 1 2 2 2 0 1 0 -1 -1 -3 -2 -2zm3 2c0,0 0,0 0,1l0 -1zm-3 1c0,0 0,0 0,0l0 0z"/>
    </g>
    <polygon class="fil3" points="83,53 82,51 83,51 83,53 83,51 84,51 84,53 84,51 85,51 84,53 84,53 84,52 83,53 "/>
    <path class="fil3" d="M82 69l1 0c0,0 0,0 0,0 0,1 0,1 1,1 0,0 0,0 0,0 0,-1 0,-1 0,-1 0,0 0,0 0,0 0,0 0,0 0,0 -1,0 -1,0 -1,0 0,0 0,0 0,-1 0,0 0,0 0,0 0,0 0,0 0,0 1,0 1,0 1,0 0,0 0,0 0,0l0 0c0,0 0,0 0,0 0,0 0,0 0,0 -1,0 -1,0 -1,0 0,0 0,0 0,0 0,0 0,0 0,0 0,0 0,0 1,1 0,0 0,0 0,0 1,0 1,0 1,0 0,0 -1,1 -1,1 0,0 0,0 0,0 -1,0 -1,0 -1,0 0,0 0,0 -1,-1z"/>
    <line class="fil0" x1="93" y1="61" x2="91" y2= "61" />
    <path class="fil2" d="M93 60c0,0 0,1 0,1 0,0 0,0 0,0l-2 0c-1,0 -1,0 -1,0 0,0 0,-1 1,-1l2 0z"/>
    <line class="fil0" x1="88" y1="53" x2="87" y2= "55" />
    <path class="fil2" d="M88 53c0,-1 0,-1 0,-1 0,1 0,1 0,1l-1 2c0,0 0,0 0,0 0,0 0,0 0,-1l1 -1z"/>
    <line class="fil0" x1="91" y1="56" x2="90" y2= "57" />
    <path class="fil2" d="M91 56c0,0 1,0 1,0 0,0 0,0 0,1l-2 1c0,0 -1,0 -1,-1 0,0 0,0 0,0l2 -1z"/>
    <line class="fil0" x1="91" y1="65" x2="90" y2= "64" />
    <path class="fil2" d="M92 65c0,0 0,0 0,1 0,0 -1,0 -1,0l-2 -1c0,0 0,-1 0,-1 0,0 1,0 1,0l2 1z"/>
    <line class="fil0" x1="88" y1="69" x2="87" y2= "67" />
    <path class="fil2" d="M88 68c0,1 0,1 0,1 0,0 0,0 0,0l-1 -2c0,0 0,0 0,0 0,-1 0,-1 0,0l1 1z"/>
    <line class="fil0" x1="79" y1="69" x2="80" y2= "67" />
    <path class="fil2" d="M79 69c0,0 0,0 0,0 -1,0 -1,0 0,-1l1 -1c0,-1 0,-1 0,0 0,0 0,0 0,0l-1 2z"/>
    <line class="fil0" x1="76" y1="65" x2="77" y2= "64" />
    <path class="fil2" d="M76 66c0,0 -1,0 -1,0 0,-1 0,-1 0,-1l2 -1c0,0 1,0 1,0 0,0 0,1 0,1l-2 1z"/>
    <line class="fil0" x1="74" y1="61" x2="76" y2= "61" />
    <path class="fil4" d="M74 61c0,0 0,0 0,0 0,0 0,-1 0,-1l2 0c1,0 1,1 1,1 0,0 0,0 -1,0l-2 0z"/>
    <line class="fil0" x1="76" y1="56" x2="77" y2= "57" />
    <path class="fil4" d="M75 57c0,-1 0,-1 0,-1 0,0 1,0 1,0l2 1c0,0 0,0 0,0 0,1 -1,1 -1,1l-2 -1z"/>
    <line class="fil0" x1="79" y1="53" x2="80" y2= "55" />
    <path class="fil4" d="M79 53c-1,0 -1,0 0,-1 0,0 0,0 0,1l1 1c0,1 0,1 0,1 0,0 0,0 0,0l-1 -2z"/>
    <path class="fil2" d="M86 44l0 -2c0,0 0,-1 -1,-1l0 0c0,-1 -1,-1 -2,-1l0 0c0,0 -1,0 -1,1l0 0c-1,0 -1,1 -1,1l0 2c0,0 1,0 1,0 0,0 1,0 1,0 1,0 1,0 2,0 0,0 1,0 1,0zm1 -2l0 3 0 0c0,0 0,0 0,0 0,0 -1,0 -1,0 0,0 -1,0 -1,0 -1,0 -1,0 -2,0 0,0 0,0 -1,0 0,0 -1,0 -1,0 0,0 0,0 0,0 -1,0 -1,0 -1,0l0 -3c0,-1 1,-1 1,-2l0 0 0 0 0 0c1,-1 2,-1 2,-1l0 0c1,0 2,0 3,1l0 0 0 0 0 0c0,1 1,1 1,2z"/>
    <circle class="fil5" cx="83" cy="42" r="1"/>
    <path class="fil2" d="M83 41c1,0 1,0 1,0l0 0c1,1 1,1 1,1 0,1 0,1 -1,1 0,1 0,1 -1,1 0,0 0,0 -1,-1 0,0 0,0 0,-1 0,0 0,0 0,-1 1,0 1,0 1,0zm1 1c0,0 0,0 -1,0 0,0 0,0 0,0 0,0 0,0 0,0 0,0 0,1 0,1 0,0 0,0 0,0 1,0 1,0 1,0 0,0 0,-1 0,-1 0,0 0,0 0,0l0 0 0 0z"/>
    <path class="fil6" d="M78 58l0 4c-2,0 -3,1 -3,2 0,2 1,3 3,3l0 7c0,2 -1,3 -3,3l-13 0c0,-1 -1,-2 -2,-2 -1,0 -2,1 -2,2l-33 0c-2,0 -3,-1 -3,-3l0 -7c2,0 3,-1 3,-3 0,-1 -1,-2 -3,-2l0 -4 56 0z"/>
    <path class="fil7" d="M78 58l0 0 0 4c0,0 0,0 0,0l0 0c-1,0 -1,0 -2,1 0,0 0,1 0,1 0,1 0,2 0,2l0 0c1,0 1,1 2,1 0,0 0,0 0,0l0 0 0 7c0,1 0,2 -1,2l0 0 0 0 0 0c0,1 -1,1 -2,1l-13 0c0,0 0,0 0,0l0 0c0,-1 -1,-1 -1,-1l0 0c0,-1 -1,-1 -1,-1l0 0c-1,0 -1,0 -1,1 -1,0 -1,0 -1,1 0,0 0,0 0,0l0 0 -33 0c-1,0 -2,0 -2,-1 -1,0 -1,-1 -1,-2l0 -7c0,0 0,0 0,0l0 0c1,0 1,-1 2,-1 0,0 0,-1 0,-2 0,0 0,-1 0,-1l0 0c-1,-1 -1,-1 -2,-1 0,0 0,0 0,0l0 0 0 -4c0,0 0,0 0,0l0 0 56 0c0,0 0,0 0,0zm0 3l0 -2 -56 0 0 2c1,0 2,1 2,1l0 0c1,1 1,2 1,2 0,1 0,2 -1,3 0,0 -1,0 -2,0l0 7c0,1 1,1 1,2 1,0 1,0 2,0l32 0c0,0 1,-1 1,-1l0 0 0 0c1,0 1,-1 2,-1l0 0c1,0 1,1 2,1l0 0c0,0 0,1 0,1l13 0c1,0 1,0 2,0l0 0 0 0c0,-1 1,-1 1,-2l0 -7c-1,0 -2,0 -2,0l0 0c-1,-1 -1,-2 -1,-3 0,0 0,-1 1,-2 0,0 1,-1 2,-1z"/>
    <path class="fil8" d="M25 52l33 0c0,1 1,2 2,2 1,0 2,-1 2,-2l13 0c2,0 3,1 3,3l0 3 -56 0 0 -3c0,-2 1,-3 3,-3z"/>
    <path class="fil9" d="M25 51l33 0c0,0 0,1 0,1l0 0c0,0 0,1 1,1 0,0 0,1 1,1 0,0 1,-1 1,-1 0,0 1,-1 1,-1 0,0 0,-1 0,-1l0 0 13 0c1,0 2,1 2,1 1,1 1,2 1,3l0 3c0,1 0,1 0,1l0 0 -56 0c0,0 0,0 0,-1l0 0 0 -3c0,-1 0,-2 1,-3l0 0 0 0c0,0 1,-1 2,-1zm32 1l-32 0c-1,0 -1,1 -2,1 0,0 -1,1 -1,2l0 3 56 0 0 -3c0,-1 -1,-2 -1,-2 -1,0 -1,-1 -2,-1l-13 0c0,1 0,1 0,2 -1,0 -1,0 -2,0 -1,0 -1,0 -2,0 0,-1 -1,-1 -1,-2z"/>
    <rect class="fil10" x="45" y="69" width="5.17755" height="2.23869"/>
    <path class="fil9" d="M45 68l0 0 5 0c0,0 0,1 0,1l0 0 0 2c0,0 0,0 0,0l0 0 -5 0c0,0 -1,0 -1,0l0 0 0 -2c0,0 1,-1 1,-1zm5 1l-5 0 0 2 5 0 0 -2z"/>
    <rect class="fil10" x="29" y="69" width="12.4358" height="2.23869"/>
    <path class="fil9" d="M29 68l0 0 12 0c0,0 1,1 1,1l0 0 0 2c0,0 -1,0 -1,0l0 0 -12 0c-1,0 -1,0 -1,0l0 0 0 -2c0,0 0,-1 1,-1zm12 1l-12 0 0 2 12 0 0 -2z"/>
    <line class="fil0" x1="29" y1="74" x2="39" y2= "74" />
    <path class="fil7" d="M29 74c0,0 -1,0 -1,0 0,0 1,-1 1,-1l10 0c0,0 0,1 0,1 0,0 0,0 0,0l-10 0z"/>
    <line class="fil0" x1="44" y1="74" x2="42" y2= "74" />
    <path class="fil7" d="M44 73c1,0 1,1 1,1 0,0 0,0 -1,0l-2 0c-1,0 -1,0 -1,0 0,0 0,-1 1,-1l2 0z"/>
    <line class="fil0" x1="47" y1="74" x2="50" y2= "74" />
    <path class="fil7" d="M47 74c0,0 0,0 0,0 0,0 0,-1 0,-1l3 0c0,0 0,1 0,1 0,0 0,0 0,0l-3 0z"/>
    <circle class="fil10" cx="31" cy="64" r="3"/>
    <path class="fil9" d="M31 61c1,0 2,0 3,1l0 0c0,1 1,1 1,2 0,1 -1,2 -1,2l0 0 0 0 0 0c-1,1 -2,1 -3,1 0,0 -1,0 -2,-1l0 0c0,0 -1,-1 -1,-2 0,-1 1,-1 1,-2l0 0 0 0 0 0c1,-1 2,-1 2,-1zm2 2c0,-1 -1,-1 -2,-1 0,0 -1,0 -1,1l0 0c-1,0 -1,1 -1,1 0,1 0,1 1,2l0 0c0,0 1,1 1,1 1,0 2,-1 2,-1l0 0c1,-1 1,-1 1,-2 0,0 0,-1 -1,-1l0 0 0 0z"/>
    <line class="fil0" x1="37" y1="63" x2="50" y2= "63" />
    <path class="fil7" d="M37 64c0,0 0,-1 0,-1 0,0 0,0 0,0l13 0c0,0 0,0 0,0 0,0 0,1 0,1l-13 0z"/>
    <line class="fil0" x1="37" y1="65" x2="44" y2= "65" />
    <path class="fil7" d="M37 66c0,0 0,0 0,-1 0,0 0,0 0,0l7 0c0,0 0,0 0,0 0,1 0,1 0,1l-7 0z"/>
    <rect class="fil11" x="64" y="63" width="7.27423" height="2.23869"/>
    <path class="fil12" d="M64 63l0 0 7 0c0,0 0,0 0,0l0 0 0 2c0,1 0,1 0,1l0 0 -7 0c-1,0 -1,0 -1,-1l0 0 0 -2c0,0 0,0 1,0zm7 0l-7 0 0 2 7 0 0 -2z"/>
    <path class="fil7" d="M67 72c0,0 0,0 0,0 0,0 0,0 0,0l4 0c0,0 0,0 0,0 0,0 0,0 0,0l-4 0z"/>
    <path class="fil7" d="M64 71c-1,0 -1,-1 -1,-1 0,0 0,0 1,0l7 0c0,0 0,0 0,0 0,0 0,1 0,1l-7 0z"/>
    <path class="fil7" d="M67 74c0,0 0,0 0,0 0,0 0,-1 0,-1l4 0c0,0 0,1 0,1 0,0 0,0 0,0l-4 0z"/>
    <path class="fil1" d="M81 59l-1 3c-2,0 -3,0 -4,2 0,1 1,3 2,3l-2 7c-1,1 -3,2 -4,1l-13 -4c1,-1 0,-3 -1,-3 -1,0 -2,0 -2,1l-31 -11c-2,-1 -2,-3 -2,-4l3 -7c1,1 3,0 3,-1 1,-2 0,-3 -2,-4l2 -3 52 20z"/>
    <path class="fil7" d="M81 59l0 0 -1 3c0,0 0,1 0,0l0 0c-1,0 -2,0 -2,1 -1,0 -1,0 -1,1l0 0c0,0 0,1 0,1 0,1 1,1 1,2 0,0 0,0 0,0l0 0 -2 7c0,1 -1,1 -2,2 -1,0 -2,0 -2,0l-13 -5c0,0 0,0 0,-1 0,0 0,0 0,-1 0,0 0,-1 -1,-1 0,0 -1,0 -1,0 -1,1 -1,1 -1,1 0,1 0,1 -1,1l0 0 -30 -12c-1,0 -2,-1 -2,-2 0,0 -1,-1 0,-2l2 -7c0,0 1,0 1,0 0,0 1,0 1,0 1,0 1,-1 2,-1l0 0c0,-1 0,-2 0,-2 -1,-1 -1,-1 -2,-1 0,0 0,-1 0,-1l0 0 1 -3c0,0 1,0 1,0l0 0 52 19c0,1 0,1 0,1zm-1 3l1 -3 -52 -19 -1 2c1,1 1,1 1,2 1,0 1,1 0,2l0 0c0,1 0,1 -1,2 -1,0 -1,0 -2,0l-2 6c-1,1 -1,1 0,2 0,1 0,1 1,1l30 12c1,-1 1,-1 1,-1 1,-1 2,-1 2,0 1,0 2,0 2,1 0,0 0,1 0,1l12 5c1,0 1,0 2,0 0,0 1,-1 1,-2l2 -6c0,0 -1,-1 -1,-1 0,-1 0,-2 0,-3l0 0c0,0 1,-1 2,-1 0,0 1,-1 2,0z"/>
    <path class="fil10" d="M34 34l30 12c0,1 1,2 2,2 1,1 2,0 2,-1l13 5c1,0 2,2 1,4l-1 3 -52 -20 1 -3c0,-2 2,-2 4,-2z"/>
    <path class="fil9" d="M34 34l31 11c0,0 0,1 0,1 0,0 0,1 0,1 0,1 0,1 1,1l0 0c0,0 1,0 1,0 0,0 1,0 1,-1 0,0 0,0 0,0 0,0 0,0 0,0l13 4c1,1 1,1 2,2 0,1 0,2 0,3l-2 3c0,0 0,0 0,0l0 0 -52 -19c-1,-1 -1,-1 -1,-1l0 0 2 -3c0,-1 0,-2 1,-2 1,0 2,0 3,0zm30 12l-30 -11c-1,-1 -2,-1 -2,0 -1,0 -1,0 -2,1l-1 3 52 19 1 -3c0,0 0,-1 0,-1 0,-1 -1,-2 -2,-2l-12 -4c0,0 0,1 -1,1 0,0 -1,0 -2,0l0 0c0,0 -1,-1 -1,-1 0,-1 0,-1 0,-2z"/>
    <rect class="fil10" transform="matrix(0.0981596 0.0368795 -0.117178 0.311885 46.3829 56.9794)" width="49.3764" height="6.71934"/>
    <path class="fil9" d="M47 57l0 0 4 1c1,0 1,1 1,1l0 0 -1 2c0,0 0,0 -1,0l0 0 -5 -2c0,0 0,0 0,0l0 0 1 -2c0,0 0,0 1,0zm4 2l-4 -1 -1 1 4 1 1 -1z"/>
    <rect class="fil10" transform="matrix(0.235766 0.0885795 -0.117178 0.311885 31.2396 51.2899)" width="49.3764" height="6.71934"/>
    <path class="fil9" d="M31 51l0 0 12 4c0,0 0,1 0,1l0 0 -1 2c0,0 0,0 0,0l0 0 -12 -4c0,0 0,-1 0,-1l0 0 1 -2c0,0 0,0 0,0zm11 5l-11 -4 0 1 11 4 0 -1z"/>
    <line class="fil0" x1="30" y1="56" x2="39" y2= "60" />
    <path class="fil7" d="M29 56c0,0 0,0 0,0 0,0 1,0 1,0l9 3c0,0 0,0 0,1 0,0 0,0 0,0l-10 -4z"/>
    <line class="fil0" x1="44" y1="62" x2="42" y2= "61" />
    <path class="fil7" d="M44 61c1,0 1,0 1,1 0,0 -1,0 -1,0l-3 -1c0,0 0,0 0,-1 0,0 1,0 1,0l2 1z"/>
    <line class="fil0" x1="47" y1="63" x2="49" y2= "64" />
    <path class="fil7" d="M47 63c-1,0 -1,0 -1,-1 1,0 1,0 1,0l3 1c0,0 0,0 0,1 0,0 0,0 -1,0l-2 -1z"/>
    <circle class="fil10" transform="matrix(0.51712 0.194287 -0.194287 0.51712 35.4159 48.027)" r="5"/>
    <path class="fil9" d="M37 45c0,0 1,1 1,2 1,0 1,1 0,2 0,1 -1,2 -1,2 -1,0 -2,0 -3,0l0 0c-1,0 -1,-1 -1,-2 -1,0 -1,-1 -1,-2l0 0 0 0c1,-1 1,-2 2,-2 1,0 2,0 3,0zm1 2c-1,0 -1,-1 -2,-1 0,0 -1,0 -2,0 0,0 -1,1 -1,1l0 0c0,1 0,1 0,2 1,1 1,1 2,1l0 0c0,0 1,0 1,0 1,0 1,-1 2,-1 0,-1 0,-1 0,-2z"/>
    <line class="fil0" x1="41" y1="49" x2="53" y2= "54" />
    <path class="fil7" d="M41 49c0,0 0,0 0,0 0,0 0,-1 0,0l12 4c1,0 1,0 1,1 0,0 -1,0 -1,0l-12 -5z"/>
    <line class="fil0" x1="40" y1="51" x2="46" y2= "53" />
    <path class="fil7" d="M40 51c0,0 0,0 0,0 0,0 0,0 0,0l6 2c1,0 1,0 1,0 0,1 -1,1 -1,1l-6 -3z"/>
    <rect class="fil10" transform="matrix(0.13791 0.051814 -0.117178 0.311885 65.9818 58.3152)" width="49.3764" height="6.71934"/>
    <path class="fil9" d="M66 58l0 0 7 2c0,1 0,1 0,1l0 0 -1 2c0,0 0,0 0,0l0 0 -7 -2c0,0 0,-1 0,-1l0 0 1 -2c0,0 0,0 0,0zm6 3l-6 -2 0 1 6 2 0 -1z"/>
    <line class="fil0" x1="66" y1="68" x2="69" y2= "69" />
    <path class="fil7" d="M66 68c0,0 0,0 0,0 0,-1 0,-1 0,-1l3 2c1,0 1,0 1,0 0,0 -1,0 -1,0l-3 -1z"/>
    <line class="fil0" x1="64" y1="65" x2="70" y2= "67" />
    <path class="fil7" d="M63 65c0,0 0,0 0,0 0,0 0,-1 1,0l6 2c0,0 0,0 0,0 0,1 0,1 0,1l-7 -3z"/>
    <line class="fil0" x1="65" y1="70" x2="69" y2= "71" />
    <path class="fil7" d="M65 70c0,0 0,0 0,-1 0,0 0,0 1,0l3 1c0,0 0,1 0,1 0,0 0,0 0,0l-4 -1z"/>
   </g>
  </g>
 </g>
</svg>
