<?xml version="1.0" encoding="UTF-8"?>
<!DOCTYPE svg PUBLIC "-//W3C//DTD SVG 1.1//EN" "http://www.w3.org/Graphics/SVG/1.1/DTD/svg11.dtd">
<!-- Creator: CorelDRAW X7 -->
<svg xmlns="http://www.w3.org/2000/svg" xml:space="preserve" width="350px" height="350px" version="1.1" style="shape-rendering:geometricPrecision; text-rendering:geometricPrecision; image-rendering:optimizeQuality; fill-rule:evenodd; clip-rule:evenodd"
viewBox="0 0 350 350"
 xmlns:xlink="http://www.w3.org/1999/xlink">
 <defs>
  <style type="text/css">
   <![CDATA[
    .str1 {stroke:#DCDDDD;stroke-width:2.36222;stroke-linecap:round;stroke-linejoin:round}
    .str0 {stroke:#DCDDDD;stroke-width:2.36222;stroke-linecap:round;stroke-linejoin:round}
    .str3 {stroke:#EA6168;stroke-width:2.36222;stroke-linecap:round;stroke-linejoin:round}
    .str2 {stroke:#F7104D;stroke-width:2.36222;stroke-linecap:round;stroke-linejoin:round}
    .fil1 {fill:none}
    .fil0 {fill:#FEFEFE}
    .fil4 {fill:#FEFEFE}
    .fil6 {fill:#D9F0FF}
    .fil5 {fill:#FFD1D3}
    .fil3 {fill:white}
    .fil2 {fill:#DCDDDD;fill-rule:nonzero}
   ]]>
  </style>
 </defs>
 <g id="Layer_x0020_1">
  <metadata id="CorelCorpID_0Corel-Layer"/>
  <g id="_714133232">
   <g>
    <circle class="fil0 str0" cx="79" cy="173" r="47"/>
    <path class="fil0 str0" d="M91 219c-4,0 -8,1 -12,1 -9,0 -19,-3 -26,-8 5,-2 11,-4 12,-2 1,2 8,4 6,0 -2,-4 0,-7 3,-8 3,-1 5,0 6,6 2,5 8,3 9,7 0,1 1,2 2,4z"/>
    <path class="fil0 str0" d="M118 147c5,8 8,17 8,26 0,13 -5,24 -13,33 -3,-2 -5,-4 -6,-5 -3,-5 5,-10 2,-14 -4,-4 -2,-7 5,-9 7,-1 5,-9 5,-12 1,-3 -2,-6 -4,-10 -1,-3 1,-6 3,-9z"/>
    <path class="fil0 str0" d="M33 174c0,0 0,0 0,-1 0,-25 19,-45 43,-46 2,2 3,5 3,6 -1,6 -6,4 -6,9 0,4 9,9 9,14 0,5 4,5 3,11 0,5 -6,11 -9,6 -3,-4 -9,2 -13,-3 -5,-5 -5,6 -10,5 -4,-1 -4,11 -11,9 -6,-1 -3,-7 -6,-9 -1,0 -2,-1 -3,-1z"/>
    <line class="fil1 str0" x1="79" y1="220" x2="79" y2= "227" />
    <path class="fil0 str0" d="M97 247c0,1 0,1 0,1 0,2 -8,4 -18,4 -9,0 -17,-2 -17,-4 0,0 0,0 0,-1 1,-7 13,-2 15,-20l5 0c2,18 14,13 15,20z"/>
   </g>
   <g>
    <g>
     <path class="fil0 str0" d="M183 100l-47 20c-5,2 -7,7 -5,12l38 95c2,4 8,7 13,5l67 -28c5,-2 7,-7 5,-12l-31 -75 -40 -17z"/>
     <path class="fil0 str0" d="M183 100c0,0 40,17 40,17l-18 7c-6,3 -12,0 -14,-6l-8 -18z"/>
     <circle class="fil0 str0" transform="matrix(1.67779 -0.689488 0.689488 1.67779 161.801 137.756)" r="5"/>
     <g>
      <line class="fil1 str0" x1="161" y1="167" x2="218" y2= "143" />
      <g>
       <line class="fil1 str0" x1="157" y1="160" x2="215" y2= "136" />
       <line class="fil1 str0" x1="164" y1="175" x2="222" y2= "151" />
      </g>
     </g>
    </g>
    <g>
     <path class="fil0 str0" d="M198 100l-51 8c-5,1 -9,6 -8,11l17 101c1,5 5,8 10,7l72 -11c5,-1 9,-6 8,-11l-13 -80 -35 -25z"/>
     <path class="fil0 str0" d="M198 100c0,0 35,25 35,25l-19 3c-6,1 -12,-3 -13,-9l-3 -19z"/>
     <circle class="fil0 str0" transform="matrix(1.79019 -0.292594 0.292594 1.79019 168.454 131.455)" r="5"/>
     <g>
      <line class="fil1 str0" x1="161" y1="160" x2="222" y2= "150" />
      <g>
       <line class="fil1 str0" x1="159" y1="152" x2="221" y2= "142" />
       <line class="fil1 str0" x1="162" y1="168" x2="224" y2= "158" />
      </g>
     </g>
    </g>
    <g>
     <path class="fil0 str0" d="M218 98l-52 0c-5,0 -9,4 -9,9l0 103c0,5 4,9 9,9l73 0c5,0 9,-4 9,-9l0 -82 -30 -30z"/>
     <path class="fil0 str0" d="M218 98c0,0 30,30 30,30l-20 0c-6,0 -10,-5 -10,-10l0 -20z"/>
     <circle class="fil0 str0" cx="183" cy="124" r="9"/>
     <g>
      <line class="fil1 str0" x1="171" y1="151" x2="234" y2= "151" />
      <g>
       <line class="fil1 str0" x1="171" y1="143" x2="234" y2= "143" />
       <line class="fil1 str0" x1="171" y1="160" x2="234" y2= "160" />
      </g>
     </g>
    </g>
   </g>
   <circle class="fil0 str1" cx="271" cy="206" r="46"/>
   <circle class="fil0 str1" cx="271" cy="206" r="31"/>
   <polygon class="fil1 str1" points="264,193 269,199 274,204 276,212 279,219 273,213 268,208 266,200 "/>
   <g>
    <polygon class="fil2" points="269,185 267,179 269,179 270,183 271,179 272,179 273,183 274,179 275,179 274,185 272,185 271,181 270,185 "/>
    <path class="fil2" d="M268 231l2 -1c0,1 0,1 0,1 1,0 1,0 1,0 1,0 1,0 1,0 1,0 1,0 1,0 0,-1 0,-1 -1,-1 0,0 0,0 0,0 -1,0 -2,-1 -3,-1 0,0 0,-1 0,-1 0,-1 0,-1 0,-2 1,0 1,0 2,0 1,0 2,0 2,0 1,1 1,1 1,1l-2 1c0,0 0,-1 0,-1 0,0 0,0 -1,0 0,0 -1,0 -1,0 0,0 0,0 0,1 0,0 0,0 0,0 0,0 1,0 2,0 1,1 1,1 2,1 0,0 0,1 0,1 0,1 0,1 0,2 -1,0 -2,1 -3,1 -1,0 -1,-1 -2,-1 0,0 -1,-1 -1,-1z"/>
   </g>
   <g>
    <g>
     <line class="fil1 str1" x1="297" y1="206" x2="291" y2= "206" />
     <line class="fil1 str1" x1="284" y1="183" x2="281" y2= "188" />
     <line class="fil1 str1" x1="294" y1="193" x2="289" y2= "196" />
     <line class="fil1 str1" x1="294" y1="219" x2="289" y2= "216" />
     <line class="fil1 str1" x1="284" y1="229" x2="281" y2= "224" />
     <line class="fil1 str1" x1="258" y1="229" x2="261" y2= "224" />
     <line class="fil1 str1" x1="248" y1="219" x2="253" y2= "216" />
    </g>
    <line class="fil1 str1" x1="245" y1="206" x2="251" y2= "206" />
    <line class="fil1 str1" x1="248" y1="193" x2="253" y2= "196" />
    <line class="fil1 str1" x1="258" y1="183" x2="261" y2= "188" />
   </g>
   <path class="fil3 str1" d="M279 160l0 -7c0,-5 -3,-8 -8,-8l0 0c-4,0 -8,3 -8,8l0 7c3,0 5,0 8,0 3,0 6,0 8,0z"/>
   <circle class="fil1 str1" cx="271" cy="153" r="3"/>
   <path class="fil4 str2" d="M255 199l0 10c-4,0 -7,3 -7,7 0,5 3,8 7,8l0 20c0,5 -3,8 -8,8l-38 0c0,-3 -2,-6 -6,-6 -3,0 -6,3 -6,6l-94 0c-4,0 -8,-3 -8,-8l0 -20c4,0 7,-3 7,-8 0,-4 -3,-7 -7,-7l0 -10 160 0z"/>
   <path class="fil5 str2" d="M103 181l94 0c0,3 3,6 6,6 4,0 6,-3 6,-6l38 0c5,0 8,3 8,8l0 10 -160 0 0 -10c0,-5 4,-8 8,-8z"/>
   <g>
    <rect class="fil5 str2" x="160" y="229" width="14.8597" height="6.4251"/>
    <rect class="fil5 str2" x="114" y="229" width="35.691" height="6.4251"/>
    <g>
     <line class="fil1 str2" x1="114" y1="243" x2="143" y2= "243" />
     <line class="fil1 str2" x1="159" y1="243" x2="151" y2= "243" />
     <line class="fil1 str2" x1="167" y1="243" x2="175" y2= "243" />
    </g>
    <circle class="fil5 str2" cx="122" cy="216" r="8"/>
    <g>
     <line class="fil1 str2" x1="138" y1="213" x2="175" y2= "213" />
     <line class="fil1 str2" x1="138" y1="219" x2="157" y2= "219" />
    </g>
   </g>
   <rect class="fil6 str2" x="214" y="213" width="20.8772" height="6.4251"/>
   <g>
    <line class="fil1 str2" x1="224" y1="238" x2="234" y2= "238" />
    <g>
     <line class="fil1 str2" x1="214" y1="233" x2="234" y2= "233" />
     <line class="fil1 str2" x1="224" y1="243" x2="234" y2= "243" />
    </g>
   </g>
   <path class="fil0 str3" d="M264 200l-3 10c-4,-2 -9,0 -10,4 -2,4 0,9 4,10l-7 19c-1,4 -6,6 -10,5l-36 -14c2,-3 0,-6 -3,-7 -3,-2 -7,0 -8,3l-88 -33c-4,-2 -7,-6 -5,-11l7 -18c4,1 8,-1 10,-5 1,-4 -1,-8 -5,-10l4 -9 150 56z"/>
   <path class="fil5 str2" d="M128 130l88 33c-1,3 1,6 4,8 3,1 6,-1 8,-4l35 13c4,2 6,7 5,11l-4 9 -150 -56 3 -9c2,-5 7,-7 11,-5z"/>
   <g>
    <rect class="fil5 str2" transform="matrix(0.281721 0.105845 -0.336305 0.895121 164.698 195.102)" width="49.3762" height="6.71932"/>
    <rect class="fil5 str2" transform="matrix(0.676656 0.254226 -0.336305 0.895121 121.236 178.773)" width="49.3762" height="6.71932"/>
    <g>
     <line class="fil1 str2" x1="117" y1="192" x2="143" y2= "203" />
     <line class="fil1 str2" x1="158" y1="208" x2="151" y2= "205" />
     <line class="fil1 str2" x1="166" y1="211" x2="174" y2= "214" />
    </g>
    <circle class="fil5 str2" transform="matrix(1.48415 0.557609 -0.557609 1.48415 133.222 169.408)" r="5"/>
    <g>
     <line class="fil1 str2" x1="149" y1="172" x2="184" y2= "185" />
     <line class="fil1 str2" x1="147" y1="178" x2="165" y2= "185" />
    </g>
   </g>
   <rect class="fil5 str2" transform="matrix(0.395806 0.148708 -0.336305 0.895121 220.947 198.936)" width="49.3762" height="6.71932"/>
   <g>
    <line class="fil1 str2" x1="221" y1="226" x2="231" y2= "230" />
    <g>
     <line class="fil1 str2" x1="214" y1="218" x2="232" y2= "225" />
     <line class="fil1 str2" x1="219" y1="231" x2="229" y2= "235" />
    </g>
   </g>
   <g>
    <path class="fil1 str2" d="M46 237l-1 -1m-5 -5l-2 -2"/>
    <path class="fil1 str2" d="M38 237l2 -1m5 -5l1 -2"/>
   </g>
   <circle class="fil1 str2" cx="265" cy="120" r="4"/>
   <g>
    <path class="fil1 str2" d="M118 107l-2 0m-7 0l-2 0"/>
    <path class="fil1 str2" d="M112 113l0 -2m0 -7l0 -2"/>
   </g>
  </g>
 </g>
</svg>
