<?xml version="1.0" encoding="UTF-8"?>
<!DOCTYPE svg PUBLIC "-//W3C//DTD SVG 1.1//EN" "http://www.w3.org/Graphics/SVG/1.1/DTD/svg11.dtd">
<!-- Creator: CorelDRAW X7 -->
<svg xmlns="http://www.w3.org/2000/svg" xml:space="preserve" width="1500px" height="1500px" version="1.1" style="shape-rendering:geometricPrecision; text-rendering:geometricPrecision; image-rendering:optimizeQuality; fill-rule:evenodd; clip-rule:evenodd"
viewBox="0 0 1500 1500"
 xmlns:xlink="http://www.w3.org/1999/xlink">
 <defs>
  <style type="text/css">
   <![CDATA[
    .str0 {stroke:black;stroke-width:0.438485}
    .fil0 {fill:none}
    .fil6 {fill:black}
    .fil1 {fill:black}
    .fil19 {fill:#00CCFF}
    .fil23 {fill:lime}
    .fil5 {fill:#333333}
    .fil25 {fill:#333333}
    .fil9 {fill:#3B1E00}
    .fil4 {fill:#4D4D4D}
    .fil26 {fill:#C92F34}
    .fil21 {fill:#E6E6E6}
    .fil15 {fill:#EB3136}
    .fil16 {fill:#EB3136}
    .fil7 {fill:#F0BC95}
    .fil20 {fill:whitesmoke}
    .fil3 {fill:#F7D5AA}
    .fil18 {fill:#FAD8B6}
    .fil2 {fill:#FFE1BD}
    .fil22 {fill:yellow}
    .fil13 {fill:white}
    .fil12 {fill:white}
    .fil27 {fill:black;fill-rule:nonzero}
    .fil14 {fill:#3B1E00;fill-rule:nonzero}
    .fil24 {fill:#666666;fill-rule:nonzero}
    .fil17 {fill:#EB3136;fill-rule:nonzero}
    .fil11 {fill:#F0BC95;fill-rule:nonzero}
    .fil28 {fill:#1A1A1A;fill-opacity:0.250980}
    .fil10 {fill:#F0BC95;fill-opacity:0.501961}
    .fil8 {fill:#3B1E00;fill-opacity:0.788235}
   ]]>
  </style>
     <clipPath id="id0">
      <path d="M774 411l0 0c34,0 68,29 63,64 -4,21 -14,66 6,76 71,47 152,23 128,168 0,0 -36,1 -40,44 -4,42 -15,159 10,251 -152,100 -187,100 -331,-1 25,-92 14,-204 10,-246 -4,-43 -55,-46 -55,-46 -9,-141 68,-123 139,-170 23,-11 12,-53 7,-76 -7,-34 28,-64 63,-64z"/>
     </clipPath>
     <clipPath id="id1">
      <path d="M773 1107l0 0c-50,-1 -100,-31 -171,-92 24,-93 10,-207 7,-250 -1,-7 -3,-13 -6,-18 -8,38 16,47 -18,108 -20,36 -62,32 -58,-25 2,-44 34,-205 61,-226 30,-24 74,-30 114,-56 0,-1 0,-2 1,-1 16,29 43,43 70,43 27,0 54,-14 71,-43 0,-1 1,0 1,1 39,26 83,32 113,56 28,21 59,182 62,226 3,57 -39,61 -59,25 -34,-61 -9,-70 -18,-108 -2,5 -4,11 -5,18 -4,43 -18,157 7,250 -72,61 -122,91 -172,92l0 0z"/>
     </clipPath>
     <clipPath id="id2">
      <path d="M598 356c-34,28 32,61 36,84 2,13 27,6 26,-7 -1,-13 1,-29 -4,-40 0,-1 0,-1 0,-1 -2,-7 -5,-15 -11,-22 -14,-17 -35,-23 -47,-14z"/>
     </clipPath>
     <clipPath id="id3">
      <path d="M948 354c34,27 -32,61 -36,83 -2,14 -26,7 -26,-6 1,-14 0,-30 4,-41 0,0 0,0 0,0 2,-8 6,-15 12,-22 14,-18 35,-24 46,-14z"/>
     </clipPath>
     <clipPath id="id4">
      <path d="M769 162c82,-2 150,64 151,145 0,20 -3,38 -9,55l1 44c0,37 -58,139 -136,141 -79,1 -140,-99 -140,-136l-1 -44c-7,-16 -11,-35 -12,-54 -1,-82 64,-149 146,-151z"/>
     </clipPath>
      <clipPath id="id5">
       <path d="M813 396c-9,-72 55,-79 49,-1 -9,-2 -31,-2 -49,1z"/>
      </clipPath>
      <clipPath id="id6">
       <path d="M734 397c6,-72 -58,-76 -49,2 8,-3 30,-4 49,-2z"/>
      </clipPath>
      <clipPath id="id7">
       <path d="M1031 599l249 0c5,0 9,4 9,9l0 178c0,5 -4,9 -9,9l-249 0c-5,0 -9,-4 -9,-9l0 -178c0,-5 4,-9 9,-9z"/>
      </clipPath>
      <clipPath id="id8">
       <path d="M82 658l176 0c4,0 7,3 7,7l0 126c0,4 -3,7 -7,7l-176 0c-4,0 -7,-3 -7,-7l0 -126c0,-4 3,-7 7,-7z"/>
      </clipPath>
      <clipPath id="id9">
       <path d="M967 400l145 0c3,0 5,2 5,5l0 104c0,3 -2,5 -5,5l-145 0c-3,0 -5,-2 -5,-5l0 -104c0,-3 2,-5 5,-5z"/>
      </clipPath>
      <clipPath id="id10">
       <path d="M974 1003l203 0c4,0 7,3 7,7l0 146c0,4 -3,7 -7,7l-203 0c-4,0 -8,-3 -8,-7l0 -146c0,-4 4,-7 8,-7z"/>
      </clipPath>
 </defs>
 <g id="Layer_x0020_1">
  <metadata id="CorelCorpID_0Corel-Layer"/>
  <g id="_2487463840448">
   <rect class="fil0" x="1" width="1500" height="1500"/>
   <g>
    <path class="fil1" d="M705 537c4,-1 63,-44 137,0 0,0 2,18 -4,20 -7,2 -109,-2 -121,-2 -13,0 -13,-18 -12,-18z"/>
    <path class="fil2" d="M774 411l0 0c34,0 68,29 63,64 -4,21 -14,66 6,76 71,47 152,23 128,168 0,0 -36,1 -40,44 -4,42 -15,159 10,251 -152,100 -187,100 -331,-1 25,-92 14,-204 10,-246 -4,-43 -55,-46 -55,-46 -9,-141 68,-123 139,-170 23,-11 12,-53 7,-76 -7,-34 28,-64 63,-64z"/>
    <g style="clip-path:url(#id0)">
     <g>
      <ellipse class="fil3" cx="774" cy="465" rx="74" ry="93"/>
     </g>
    </g>
    <path class="fil0" d="M774 411l0 0c34,0 68,29 63,64 -4,21 -14,66 6,76 71,47 152,23 128,168 0,0 -36,1 -40,44 -4,42 -15,159 10,251 -152,100 -187,100 -331,-1 25,-92 14,-204 10,-246 -4,-43 -55,-46 -55,-46 -9,-141 68,-123 139,-170 23,-11 12,-53 7,-76 -7,-34 28,-64 63,-64z"/>
    <path class="fil4" d="M773 1107l0 0c-50,-1 -100,-31 -171,-92 24,-93 10,-207 7,-250 -1,-7 -3,-13 -6,-18 -8,38 16,47 -18,108 -20,36 -62,32 -58,-25 2,-44 34,-205 61,-226 30,-24 74,-30 114,-56 0,-1 0,-2 1,-1 16,29 43,43 70,43 27,0 54,-14 71,-43 0,-1 1,0 1,1 39,26 83,32 113,56 28,21 59,182 62,226 3,57 -39,61 -59,25 -34,-61 -9,-70 -18,-108 -2,5 -4,11 -5,18 -4,43 -18,157 7,250 -72,61 -122,91 -172,92l0 0z"/>
    <g style="clip-path:url(#id1)">
     <g>
      <path id="1" class="fil5" d="M602 765c0,0 4,-34 1,-50 0,0 -32,97 -38,102 -7,6 27,-13 32,-32 5,-19 5,-19 5,-20z"/>
      <path class="fil5" d="M944 765c0,0 -3,-35 -1,-51 0,0 32,97 38,103 7,5 -27,-14 -32,-33 -5,-18 -5,-18 -5,-19z"/>
     </g>
    </g>
    <path class="fil0" d="M773 1107l0 0c-50,-1 -100,-31 -171,-92 24,-93 10,-207 7,-250 -1,-7 -3,-13 -6,-18 -8,38 16,47 -18,108 -20,36 -62,32 -58,-25 2,-44 34,-205 61,-226 30,-24 74,-30 114,-56 0,-1 0,-2 1,-1 16,29 43,43 70,43 27,0 54,-14 71,-43 0,-1 1,0 1,1 39,26 83,32 113,56 28,21 59,182 62,226 3,57 -39,61 -59,25 -34,-61 -9,-70 -18,-108 -2,5 -4,11 -5,18 -4,43 -18,157 7,250 -72,61 -122,91 -172,92l0 0z"/>
    <path class="fil6" d="M705 537c0,0 -3,8 -7,13 0,0 14,53 75,53l0 -14c0,0 0,-9 -6,-10 -5,-2 -17,7 -62,-42z"/>
    <path class="fil6" d="M842 537c0,0 3,8 6,13 0,0 -14,53 -75,53l0 -14c0,0 1,-9 6,-10 6,-2 17,7 63,-42z"/>
    <path class="fil2" d="M598 356c-34,28 32,61 36,84 2,13 27,6 26,-7 -1,-13 1,-29 -4,-40 0,-1 0,-1 0,-1 -2,-7 -5,-15 -11,-22 -14,-17 -35,-23 -47,-14z"/>
    <g style="clip-path:url(#id2)">
     <g>
      <ellipse class="fil7" transform="matrix(-0.312758 0.135852 0.13614 0.312097 634.161 395.987)" rx="56" ry="87"/>
     </g>
    </g>
    <path class="fil0" d="M598 356c-34,28 32,61 36,84 2,13 27,6 26,-7 -1,-13 1,-29 -4,-40 0,-1 0,-1 0,-1 -2,-7 -5,-15 -11,-22 -14,-17 -35,-23 -47,-14z"/>
    <path class="fil2" d="M948 354c34,27 -32,61 -36,83 -2,14 -26,7 -26,-6 1,-14 0,-30 4,-41 0,0 0,0 0,0 2,-8 6,-15 12,-22 14,-18 35,-24 46,-14z"/>
    <g style="clip-path:url(#id3)">
     <g>
      <ellipse class="fil7" transform="matrix(0.312758 0.135852 -0.13614 0.312097 912.3 393.487)" rx="56" ry="87"/>
     </g>
    </g>
    <path class="fil0" d="M948 354c34,27 -32,61 -36,83 -2,14 -26,7 -26,-6 1,-14 0,-30 4,-41 0,0 0,0 0,0 2,-8 6,-15 12,-22 14,-18 35,-24 46,-14z"/>
    <path class="fil2" d="M769 162c82,-2 150,64 151,145 0,20 -3,38 -9,55l1 44c0,37 -58,139 -136,141 -79,1 -140,-99 -140,-136l-1 -44c-7,-16 -11,-35 -12,-54 -1,-82 64,-149 146,-151z"/>
    <g style="clip-path:url(#id4)">
     <g>
      <path id="1" class="fil8" d="M777 564c15,-1 28,-14 28,-23 -1,-8 -25,-36 -30,-36 -4,0 -27,30 -27,38 0,8 13,21 29,21z"/>
     </g>
    </g>
    <path class="fil0" d="M769 162c82,-2 150,64 151,145 0,20 -3,38 -9,55l1 44c0,37 -58,139 -136,141 -79,1 -140,-99 -140,-136l-1 -44c-7,-16 -11,-35 -12,-54 -1,-82 64,-149 146,-151z"/>
    <path class="fil9" d="M773 116c30,0 56,14 83,20 81,20 87,80 88,145 1,38 -11,73 -31,101 -2,3 -2,6 -2,3 0,-3 -9,-74 -9,-74 -41,-19 -76,-69 -76,-69 -38,49 -97,51 -97,51 0,0 8,-23 -10,-31 -19,-8 -60,66 -60,66 -3,-4 -6,-9 -7,-15 -7,3 -15,51 -17,60l0 2 -1 -1c0,1 0,1 0,0 0,0 0,0 0,0 -16,-25 -25,-55 -26,-87 -2,-100 50,-168 165,-171z"/>
    <path class="fil10" d="M753 430c1,10 16,12 21,12l0 0c5,0 20,-4 21,-13 -14,-2 -28,-2 -42,1z"/>
    <path class="fil11" d="M834 489c1,1 2,2 3,0 1,-2 0,-2 -2,-3 -35,-27 -85,-27 -121,-2 -2,1 -2,1 -2,3 1,1 2,1 4,0 33,-20 84,-19 118,2z"/>
    <path class="fil10" d="M750 491c0,0 20,8 52,-1 4,-2 -16,11 -27,11 -11,1 -34,-12 -25,-10z"/>
    <g>
     <path class="fil12" d="M813 396c-9,-72 55,-79 49,-1 -9,-2 -31,-2 -49,1z"/>
     <g style="clip-path:url(#id5)">
      <g>
       <g>
        <circle class="fil1" transform="matrix(0.260396 0.0558196 -0.0516089 0.277844 836.246 371.77)" r="62"/>
        <circle class="fil13" transform="matrix(0.0918871 0.0196973 -0.0182115 0.0980438 841.703 364.414)" r="62"/>
        <circle class="fil13" transform="matrix(0.0653069 0.0139995 -0.0129434 0.0696827 830.19 382.762)" r="62"/>
       </g>
       <g>
        <circle class="fil1" transform="matrix(0.260396 0.0558196 -0.0516089 0.277844 709.568 374.208)" r="62"/>
        <circle class="fil13" transform="matrix(0.0918871 0.0196973 -0.0182115 0.0980438 715.331 367.05)" r="62"/>
        <circle class="fil13" transform="matrix(0.0653069 0.0139995 -0.0129434 0.0696827 703.819 385.398)" r="62"/>
       </g>
      </g>
     </g>
     <path class="fil0" d="M813 396c-9,-72 55,-79 49,-1 -9,-2 -31,-2 -49,1z"/>
     <path class="fil12" d="M734 397c6,-72 -58,-76 -49,2 8,-3 30,-4 49,-2z"/>
     <g style="clip-path:url(#id6)">
      <g>
       <g>
        <circle class="fil1" transform="matrix(0.260396 0.0558196 -0.0516089 0.277844 836.246 371.77)" r="62"/>
        <circle class="fil13" transform="matrix(0.0918871 0.0196973 -0.0182115 0.0980438 841.703 364.414)" r="62"/>
        <circle class="fil13" transform="matrix(0.0653069 0.0139995 -0.0129434 0.0696827 830.19 382.762)" r="62"/>
       </g>
       <g>
        <circle class="fil1" transform="matrix(0.260396 0.0558196 -0.0516089 0.277844 709.568 374.208)" r="62"/>
        <circle class="fil13" transform="matrix(0.0918871 0.0196973 -0.0182115 0.0980438 715.331 367.05)" r="62"/>
        <circle class="fil13" transform="matrix(0.0653069 0.0139995 -0.0129434 0.0696827 703.819 385.398)" r="62"/>
       </g>
      </g>
     </g>
     <path class="fil0" d="M734 397c6,-72 -58,-76 -49,2 8,-3 30,-4 49,-2z"/>
    </g>
    <path class="fil14" d="M826 301c-2,-2 -7,-2 -10,1 -3,2 -3,7 0,10 7,7 15,13 24,17 8,4 18,6 28,5 4,0 7,-4 7,-8 0,-4 -4,-7 -8,-7 -8,1 -15,-1 -21,-4 -7,-3 -13,-8 -20,-14z"/>
    <path class="fil14" d="M728 316c3,-3 3,-8 1,-11 -3,-3 -8,-3 -11,0 -6,6 -13,10 -20,13 -6,3 -14,4 -21,3 -4,0 -8,3 -8,7 -1,4 2,8 6,8 11,1 20,-1 29,-4 9,-4 17,-9 24,-16z"/>
    <g>
     <ellipse class="fil15" cx="773" cy="852" rx="291" ry="290"/>
     <g>
      <path class="fil12" d="M791 731c3,0 6,0 8,0 3,4 7,9 10,13 -3,0 -5,0 -8,0 -8,0 -16,1 -24,2 -3,-5 -6,-9 -8,-14 7,-1 15,-1 22,-1zm16 0c71,5 133,44 170,100 -37,-48 -94,-81 -159,-86 -4,-5 -7,-9 -11,-14zm-37 15c-5,1 -10,2 -14,3 -1,-2 -3,-4 -4,-6 -1,-3 -2,-5 -3,-8 4,-1 8,-2 13,-2 2,4 5,9 8,13zm-21 4c-4,1 -9,3 -14,4 -1,-5 -1,-10 -1,-16 3,0 6,-1 8,-2 2,4 3,7 5,10 0,1 1,3 2,4zm-20 6c-87,30 -150,112 -150,210 0,44 13,86 36,120 -28,-37 -45,-83 -45,-134 0,-100 66,-185 158,-212 0,6 0,11 1,16z"/>
      <path class="fil12" d="M772 982l0 0zm-36 -68c37,-24 42,16 42,20 -2,16 -37,14 -51,9 -21,-8 -1,-23 9,-29zm36 68c-2,18 -31,53 -51,65 -11,7 -28,14 -45,9 -23,-7 -27,-20 -34,-24 2,19 35,74 91,37 27,-18 47,-46 57,-76 2,-5 3,-12 5,-15 19,0 37,-4 49,-10 61,-30 -16,-120 -43,-154 -18,-21 -39,-46 -51,-70 -7,-13 -13,-29 -14,-47 -17,27 2,85 20,108 17,23 127,129 43,129 0,-29 -15,-62 -40,-78 -47,25 -123,129 -22,129 24,0 26,-3 35,-3z"/>
      <path class="fil12" d="M741 652c0,116 173,217 137,314 5,2 13,7 18,9 75,-112 -148,-254 -148,-357 -6,4 -7,26 -7,34z"/>
      <path class="fil12" d="M692 904c-42,11 -70,106 20,131 20,5 34,-19 43,-34 -16,1 -22,5 -44,-2 -36,-11 -46,-44 -29,-78l10 -17z"/>
      <path class="fil12" d="M791 1003c-5,10 -10,20 -17,30 10,-2 21,-3 31,-4 10,-2 18,-5 27,-7l0 -25c-13,4 -20,6 -41,6z"/>
      <polygon class="fil12" points="642,1032 641,1029 "/>
      <polygon class="fil12" points="613,1081 612,1079 "/>
      <g>
       <path class="fil12" d="M885 982c0,0 2,1 2,1l8 5 0 7 0 28 1 -1c0,0 0,0 0,0l0 0c2,-1 3,-1 4,-4 0,0 0,-1 0,-2l0 -21c0,-3 0,-7 0,-10l-3 -2c-2,-1 -4,-2 -6,-3 -2,-2 -4,-3 -6,-4 -2,-1 -4,-2 -6,-4 -1,0 -1,0 -1,0l-29 17c-1,0 -1,0 -2,1l0 15 5 2c0,0 0,0 0,0 0,0 0,-1 0,-1 0,-1 0,-1 0,-2l0 -12c1,0 3,-1 4,-1l3 -2c4,-3 8,-5 13,-7l6 -4c0,0 7,4 7,4z"/>
       <path class="fil12" d="M846 1014c0,0 21,13 22,14 1,0 1,0 2,0 0,-1 0,-1 1,-1 0,-1 1,-1 2,-1l7 -4c1,-1 1,-1 2,-2l0 -4c0,0 0,-1 -1,-1 0,1 -6,4 -7,4l-5 3c0,0 0,0 -1,0l-25 -15 0 -19c0,0 7,-4 8,-5 2,-1 5,-3 7,-4l16 -9c-1,0 -2,-1 -2,-1 -2,-1 -3,-1 -5,-1 0,0 -2,2 -3,2l-25 14c0,0 0,1 -1,1l0 25c0,0 1,0 1,0 1,1 1,1 1,1 1,0 5,3 6,3z"/>
       <path class="fil12" d="M876 984c0,0 0,0 0,0 0,0 0,0 0,0l-1 1c-1,0 -1,0 -1,0 0,1 4,3 4,3 1,0 5,3 5,3 0,0 1,1 2,1 0,0 1,1 1,1 0,1 0,20 0,20 0,0 0,2 0,2 0,1 0,2 0,3l0 5c0,0 -5,3 -6,3 -1,1 -2,2 -3,2 -1,1 -2,1 -3,2 -1,0 -2,1 -3,1 -2,2 -2,2 -3,1 -2,-1 -4,-2 -6,-3 -4,-2 -7,-5 -11,-7l-9 -5c-1,0 -3,-2 -3,-2 -1,1 0,2 0,3 0,1 0,1 1,2 0,0 0,1 1,1 1,2 2,2 3,2l20 12c0,1 5,3 5,3l8 -5c5,-2 9,-5 13,-7 0,0 1,-1 1,-1l0 -35 -11 -6c0,0 -1,-1 -1,-1 0,0 -1,0 -1,0 0,0 -1,1 -2,1z"/>
       <path class="fil12" d="M868 992c-1,1 -1,0 -2,1 -3,2 -4,4 -6,6 0,1 0,2 -1,3 0,1 0,3 0,4 1,1 3,2 5,3 0,0 -1,1 -1,1 0,1 -1,1 -1,2 0,0 0,1 0,1 1,2 2,0 3,0 0,-1 1,-1 1,-1 1,-1 2,-2 3,-2 2,-1 4,-2 6,-3 1,0 3,0 3,-1 1,-1 0,-2 1,-2 0,-1 0,-1 0,-1 0,0 0,-1 0,-1 0,0 0,0 0,0 0,0 0,0 0,0l0 0c-1,-1 -1,0 -2,0 -2,0 -3,1 -5,2 -2,0 -2,1 -4,0 -1,-1 -2,-1 -3,-2 0,0 -2,-2 -1,-3 2,-1 4,-3 7,-2 2,1 1,2 3,2 0,0 1,-4 1,-4 0,0 -1,-1 -1,-1 0,-1 -1,-1 -2,-2 -1,0 -2,0 -4,0z"/>
      </g>
     </g>
    </g>
    <path class="fil16" d="M1365 552l0 415 52 0 0 57 -52 0 0 128 -73 0 0 -128 -236 0 309 -472zm-73 233l-118 182 118 0 0 -182z"/>
    <g>
     <path class="fil17" d="M1378 552l0 401 39 0c7,0 13,6 13,14l0 57c0,7 -6,13 -13,13l-39 0 0 115c0,7 -6,13 -13,13l-73 0c-7,0 -14,-6 -14,-13l0 -115 -222 0c-8,0 -14,-6 -14,-13 0,-3 1,-6 3,-8l308 -471c4,-6 13,-8 19,-4 4,3 6,7 6,11l0 0zm-27 415l0 -369 -270 412 211 0c7,0 14,6 14,14l0 114 45 0 0 -114c0,-8 6,-14 14,-14l38 0 0 -30 -38 0c-8,0 -14,-6 -14,-13zm-189 -8l118 -181 -118 181zm12 21c-3,0 -5,-1 -8,-2 -6,-4 -8,-12 -4,-19l12 21zm118 0l-118 0 0 0 118 0zm14 -13c0,7 -7,13 -14,13l14 -13zm0 -182l0 182 0 -182zm-14 -14c7,0 14,6 14,14l-14 -14z"/>
    </g>
    <path class="fil16" d="M394 552l0 415 52 0 0 57 -52 0 0 128 -73 0 0 -128 -236 0 309 -472zm-73 233l-118 182 118 0 0 -182z"/>
    <g>
     <path class="fil17" d="M407 552l0 401 39 0c8,0 14,6 14,14l0 57c0,7 -6,13 -14,13l-39 0 0 115c0,7 -6,13 -13,13l-73 0c-7,0 -13,-6 -13,-13l0 -115 -223 0c-7,0 -14,-6 -14,-13 0,-3 1,-6 3,-8l309 -471c4,-6 12,-8 18,-4 4,3 6,7 6,11l0 0zm-27 415l0 -369 -270 412 211 0c8,0 14,6 14,14l0 114 45 0 0 -114c0,-8 6,-14 14,-14l39 0 0 -30 -39 0c-8,0 -14,-6 -14,-13zm-189 -8l118 -181 -118 181zm12 21c-3,0 -5,-1 -8,-2 -6,-4 -8,-12 -4,-19l12 21zm118 0l-118 0 0 0 118 0zm14 -13c0,7 -6,13 -14,13l14 -13zm0 -182l0 182 0 -182zm-14 -14c8,0 14,6 14,14l-14 -14z"/>
    </g>
    <path class="fil18" d="M575 615c4,-2 9,-1 12,3l22 31c4,4 3,11 -2,14l0 0c-4,3 -10,2 -13,-3l-16 -21c0,0 0,0 0,0l15 22c3,4 2,10 -2,13l0 0c-4,4 -11,3 -14,-2l-14 -19 0 0 14 20c3,4 2,10 -2,13l0 0c-5,3 -11,2 -14,-2l-13 -18 0 1c6,7 7,9 13,17 3,4 2,11 -2,14l0 0c-5,3 -11,2 -14,-3l-16 -21c0,0 -13,-13 17,-37 0,0 14,-19 29,-22l0 0z"/>
    <path class="fil18" d="M970 615c-4,-2 -9,-1 -12,3l-22 31c-3,4 -2,11 2,14l0 0c4,3 10,2 13,-3l16 -21c0,0 0,0 0,0l-15 22c-3,4 -2,10 2,13l0 0c5,4 11,3 14,-2l14 -19 0 0 -14 20c-3,4 -2,10 2,13l0 0c5,3 11,2 14,-2l13 -18 0 1c-6,7 -7,9 -13,17 -3,4 -2,11 3,14l0 0c4,3 10,2 13,-3l16 -21c0,0 13,-13 -17,-37 0,0 -14,-19 -29,-22l0 0z"/>
    <path class="fil19" d="M697 397c0,0 -10,-10 -23,-3 -12,6 -6,17 -1,15 6,-2 3,-10 24,-12z"/>
    <path class="fil19" d="M847 394c0,0 10,-10 23,-3 12,7 6,17 1,15 -6,-2 -4,-10 -24,-12z"/>
    <g id="_2487463836128">
     <path class="fil20" d="M1031 599l249 0c5,0 9,4 9,9l0 178c0,5 -4,9 -9,9l-249 0c-5,0 -9,-4 -9,-9l0 -178c0,-5 4,-9 9,-9z"/>
     <g style="clip-path:url(#id7)">
      <g>
       <path id="1" class="fil21 str0" d="M1007 590l296 0c0,0 1,0 1,1l0 34c0,1 -1,1 -1,1l-295 0c0,0 -1,0 -1,-1l0 -35z"/>
      </g>
     </g>
     <path class="fil0 str0" d="M1031 599l249 0c5,0 9,4 9,9l0 178c0,5 -4,9 -9,9l-249 0c-5,0 -9,-4 -9,-9l0 -178c0,-5 4,-9 9,-9z"/>
     <g>
      <circle class="fil16" cx="1033" cy="613" r="5"/>
      <circle class="fil22" cx="1045" cy="613" r="5"/>
      <circle class="fil23" cx="1057" cy="613" r="5"/>
     </g>
     <line class="fil0" x1="1071" y1="614" x2="1255" y2= "614" />
     <path class="fil24" d="M1074 615c-2,0 -4,-1 -4,-2 0,-1 2,-2 4,-2l179 0c2,0 3,1 3,2 0,1 -1,2 -3,2l-179 0z"/>
     <path class="fil25" d="M1123 715l-16 0c0,0 0,-1 0,-1l0 -26c0,-1 0,-1 0,-2l16 0 0 5c-1,0 -1,0 -2,0l-9 0 0 7 10 0 0 5 -10 0 0 7 9 0c0,0 1,0 2,0l0 5zm21 0l-6 0c0,0 -1,-1 -1,-1l-5 -13 0 13c0,0 0,1 0,1l-5 0c0,0 0,-1 0,-1l0 -26c0,0 0,-1 0,-1l7 0c3,0 5,0 7,2 1,2 2,4 2,7 0,3 -2,6 -4,7l5 12zm-7 -20c0,-1 -1,-2 -1,-3 -1,0 -2,0 -4,0l0 7c2,0 3,0 4,-1 0,0 1,-1 1,-3zm27 20l-6 0c0,0 0,-1 -1,-1l-4 -13 0 13c0,0 0,1 0,1l-6 0c0,0 0,-1 0,-1l0 -26c0,0 0,-1 0,-1l7 0c3,0 5,0 7,2 1,2 2,4 2,7 0,3 -1,6 -4,7l5 12zm-7 -20c0,-1 0,-2 -1,-3 -1,0 -2,0 -3,0l0 7c1,0 2,0 3,-1 1,0 1,-1 1,-3zm27 6c0,4 -1,8 -1,10 -2,3 -4,5 -8,5 -3,0 -6,-2 -7,-5 -1,-2 -1,-6 -1,-10 0,-5 0,-8 1,-10 1,-3 4,-5 7,-5 4,0 6,2 8,5 0,2 1,5 1,10zm-6 0c0,-4 0,-6 -1,-7 0,-2 -1,-3 -2,-3 -1,0 -2,1 -2,3 0,1 0,3 0,7 0,4 0,6 0,7 0,2 1,3 2,3 1,0 2,-1 2,-3 1,-1 1,-3 1,-7zm26 14l-6 0c0,0 0,-1 0,-1l-5 -13 0 13c0,0 0,1 0,1l-6 0c0,0 0,-1 0,-1l0 -26c0,0 0,-1 0,-1l8 0c2,0 5,0 6,2 2,2 2,4 2,7 0,3 -1,6 -4,7l5 12zm-7 -20c0,-1 0,-2 -1,-3 -1,0 -2,0 -3,0l0 7c1,0 3,0 3,-1 1,0 1,-1 1,-3z"/>
    </g>
    <ellipse class="fil26" cx="651" cy="736" rx="13" ry="14"/>
    <path class="fil27" d="M405 569l-31 17 -24 -17 32 -17c-1,-2 -1,-5 1,-7 1,-2 4,-3 6,-3l6 -36 23 17 -5 35 15 11 6 -35 23 17 -5 35 202 144c3,2 3,6 1,9 -2,3 -6,4 -9,2l-202 -144 -31 17 -24 -17 31 -17 -15 -11z"/>
    <ellipse class="fil26" cx="655" cy="888" rx="13" ry="14"/>
    <path class="fil27" d="M370 804l-25 25 -28 -9 26 -26c-2,-1 -3,-4 -2,-7 1,-2 3,-4 5,-4l-5 -36 27 9 6 35 18 6 -5 -35 27 9 6 35 236 75c3,1 5,5 4,9 -1,3 -5,5 -9,4l-236 -76 -24 26 -28 -9 25 -25 -18 -6z"/>
    <path class="fil28" d="M751 1252c388,0 702,30 702,66 0,37 -314,66 -702,66 -388,0 -702,-29 -702,-66 0,-36 314,-66 702,-66z"/>
    <g id="_2487463859520">
     <path class="fil20" d="M82 658l176 0c4,0 7,3 7,7l0 126c0,4 -3,7 -7,7l-176 0c-4,0 -7,-3 -7,-7l0 -126c0,-4 3,-7 7,-7z"/>
     <g style="clip-path:url(#id8)">
      <g>
       <path id="1" class="fil21 str0" d="M65 652l210 0c0,0 1,0 1,0l0 25c0,1 -1,1 -1,1l-210 0c0,0 0,0 0,-1l0 -25z"/>
      </g>
     </g>
     <path class="fil0 str0" d="M82 658l176 0c4,0 7,3 7,7l0 126c0,4 -3,7 -7,7l-176 0c-4,0 -7,-3 -7,-7l0 -126c0,-4 3,-7 7,-7z"/>
     <g>
      <circle class="fil16" cx="83" cy="669" r="3"/>
      <circle class="fil22" cx="92" cy="669" r="3"/>
      <circle class="fil23" cx="100" cy="669" r="3"/>
     </g>
     <line class="fil0" x1="110" y1="669" x2="241" y2= "669" />
     <path class="fil24" d="M112 670c-2,0 -3,-1 -3,-1 0,-1 1,-2 3,-2l127 0c2,0 3,1 3,2 0,0 -1,1 -3,1l-127 0z"/>
     <path class="fil25" d="M147 741l-12 0c0,0 0,-1 0,-1l0 -18c0,-1 0,-1 0,-1l12 0 0 3c-1,0 -1,0 -1,0l-7 0 0 5 7 0 0 3 -7 0 0 6 7 0c0,0 0,0 1,0l0 3zm15 0l-5 0c0,0 0,-1 0,-1l-3 -9 0 9c0,1 0,1 0,1l-5 0c0,0 1,0 1,-1l0 -18c0,-1 -1,-1 -1,-1l6 0c2,0 3,0 5,2 1,1 1,2 1,4 0,3 -1,5 -3,6l4 8zm-5 -14c0,-1 -1,-2 -1,-2 -1,0 -1,-1 -2,-1l0 6c1,0 2,0 2,-1 1,0 1,-1 1,-2zm19 14l-4 0c0,0 0,-1 -1,-1l-3 -9 0 9c0,1 0,1 0,1l-4 0c0,0 0,0 0,-1l0 -18c0,-1 0,-1 0,-1l5 0c2,0 4,0 5,2 1,1 1,2 1,4 0,3 -1,5 -3,6l4 8zm-5 -14c0,-1 0,-2 -1,-2 0,0 -1,-1 -2,-1l0 6c1,0 2,0 2,-1 1,0 1,-1 1,-2zm19 4c0,3 0,6 -1,7 -1,2 -2,4 -5,4 -2,0 -4,-2 -5,-4 0,-1 -1,-4 -1,-7 0,-3 1,-6 1,-7 1,-3 3,-4 5,-4 3,0 4,1 5,4 1,1 1,4 1,7zm-4 0c0,-3 0,-4 0,-5 0,-2 -1,-2 -2,-2 -1,0 -1,0 -1,2 0,1 0,2 0,5 0,3 0,4 0,5 0,1 0,2 1,2 1,0 2,-1 2,-2 0,-1 0,-2 0,-5zm19 10l-5 0c0,0 0,-1 0,-1l-3 -9 0 9c0,1 0,1 0,1l-5 0c0,0 1,0 1,-1l0 -18c0,-1 -1,-1 -1,-1l6 0c2,0 3,0 5,2 1,1 1,2 1,4 0,3 -1,5 -3,6l4 8zm-5 -14c0,-1 -1,-2 -1,-2 -1,0 -1,-1 -2,-1l0 6c1,0 2,0 2,-1 1,0 1,-1 1,-2z"/>
    </g>
    <g id="_2487463852352">
     <path class="fil20" d="M967 400l145 0c3,0 5,2 5,5l0 104c0,3 -2,5 -5,5l-145 0c-3,0 -5,-2 -5,-5l0 -104c0,-3 2,-5 5,-5z"/>
     <g style="clip-path:url(#id9)">
      <g>
       <path id="1" class="fil21 str0" d="M953 394l172 0c1,0 1,1 1,1l0 20c0,0 0,1 -1,1l-171 0c-1,0 -1,-1 -1,-1l0 -21z"/>
      </g>
     </g>
     <path class="fil0 str0" d="M967 400l145 0c3,0 5,2 5,5l0 104c0,3 -2,5 -5,5l-145 0c-3,0 -5,-2 -5,-5l0 -104c0,-3 2,-5 5,-5z"/>
     <g>
      <circle class="fil16" cx="968" cy="408" r="3"/>
      <circle class="fil22" cx="975" cy="408" r="3"/>
      <circle class="fil23" cx="982" cy="408" r="3"/>
     </g>
     <line class="fil0" x1="990" y1="408" x2="1098" y2= "408" />
     <path class="fil24" d="M992 409c-1,0 -2,0 -2,-1 0,-1 1,-1 2,-1l104 0c1,0 2,0 2,1 0,1 -1,1 -2,1l-104 0z"/>
     <path class="fil25" d="M1020 467l-9 0c0,0 0,0 0,0l0 -16c0,0 0,0 0,0l9 0 0 3c0,0 0,-1 -1,-1l-5 0 0 4 6 0 0 3 -6 0 0 5 5 0c1,0 1,0 1,0l0 2zm13 0l-4 0c0,0 0,0 0,0l-3 -8 0 8c0,0 0,0 0,0l-3 0c0,0 0,0 0,0l0 -15c0,-1 0,-1 0,-1l4 0c2,0 3,0 4,1 1,1 1,2 1,4 0,2 -1,4 -2,4l3 7zm-4 -11c0,-1 -1,-1 -1,-2 0,0 -1,0 -2,0l0 4c1,0 2,0 2,0 0,-1 1,-1 1,-2zm16 11l-4 0c0,0 0,0 0,0l-3 -8 0 8c0,0 0,0 0,0l-4 0c0,0 0,0 0,0l0 -15c0,-1 0,-1 0,-1l5 0c1,0 3,0 4,1 0,1 1,2 1,4 0,2 -1,4 -3,4l4 7zm-5 -11c0,-1 0,-1 0,-2 -1,0 -1,0 -2,0l0 4c1,0 1,0 2,0 0,-1 0,-1 0,-2zm16 3c0,3 0,5 -1,6 0,2 -2,3 -4,3 -2,0 -3,-1 -4,-3 -1,-1 -1,-3 -1,-6 0,-2 0,-4 1,-6 1,-2 2,-3 4,-3 2,0 4,1 4,3 1,2 1,4 1,6zm-4 0c0,-2 0,-3 0,-4 0,-1 0,-2 -1,-2 -1,0 -1,1 -1,2 0,1 0,2 0,4 0,2 0,4 0,4 0,1 0,2 1,2 1,0 1,-1 1,-2 0,0 0,-2 0,-4zm16 8l-4 0c0,0 0,0 0,0l-3 -8 0 8c0,0 0,0 0,0l-3 0c0,0 0,0 0,0l0 -15c0,-1 0,-1 0,-1l4 0c2,0 3,0 4,1 1,1 1,2 1,4 0,2 0,4 -2,4l3 7zm-4 -11c0,-1 0,-1 -1,-2 0,0 -1,0 -2,0l0 4c1,0 2,0 2,0 1,-1 1,-1 1,-2z"/>
    </g>
    <g id="_2487463840320">
     <path class="fil20" d="M974 1003l203 0c4,0 7,3 7,7l0 146c0,4 -3,7 -7,7l-203 0c-4,0 -8,-3 -8,-7l0 -146c0,-4 4,-7 8,-7z"/>
     <g style="clip-path:url(#id10)">
      <g>
       <path id="1" class="fil21 str0" d="M954 995l242 0c0,0 1,0 1,1l0 28c0,1 -1,1 -1,1l-242 0c0,0 0,0 0,-1l0 -29z"/>
      </g>
     </g>
     <path class="fil0 str0" d="M974 1003l203 0c4,0 7,3 7,7l0 146c0,4 -3,7 -7,7l-203 0c-4,0 -8,-3 -8,-7l0 -146c0,-4 4,-7 8,-7z"/>
     <g>
      <circle class="fil16" cx="975" cy="1014" r="4"/>
      <circle class="fil22" cx="985" cy="1014" r="4"/>
      <circle class="fil23" cx="995" cy="1014" r="4"/>
     </g>
     <line class="fil0" x1="1006" y1="1015" x2="1157" y2= "1015" />
     <path class="fil24" d="M1008 1016c-1,0 -3,-1 -3,-2 0,-1 2,-1 3,-1l147 0c1,0 3,0 3,1 0,1 -2,2 -3,2l-147 0z"/>
     <path class="fil25" d="M1049 1098l-14 0c0,-1 0,-1 0,-1l0 -22c0,0 0,0 0,-1l13 0 0 4c0,0 0,0 -1,0l-7 0 0 6 8 0 0 4 -8 0 0 6 7 0c0,0 1,0 2,0l0 4zm17 0l-5 0c0,-1 -1,-1 -1,-1l-4 -11 0 11c0,0 0,0 0,1l-4 0c0,-1 0,-1 0,-1l0 -22c0,0 0,0 0,-1l6 0c2,0 4,1 5,2 1,2 2,3 2,6 0,3 -1,5 -4,6l5 10zm-6 -16c0,-2 0,-2 -1,-3 -1,0 -1,-1 -3,-1l0 7c2,0 3,0 3,-1 1,0 1,-1 1,-2zm22 16l-5 0c0,-1 0,-1 0,-1l-4 -11 0 11c0,0 0,0 0,1l-5 0c0,-1 0,-1 0,-1l0 -22c0,0 0,0 0,-1l6 0c3,0 4,1 6,2 1,2 1,3 1,6 0,3 -1,5 -3,6l4 10zm-6 -16c0,-2 0,-2 0,-3 -1,0 -2,-1 -3,-1l0 7c1,0 2,0 3,-1 0,0 0,-1 0,-2zm22 4c0,4 0,6 -1,8 -1,3 -2,4 -5,4 -3,0 -5,-1 -6,-4 -1,-2 -1,-4 -1,-8 0,-4 0,-6 1,-8 1,-3 3,-4 6,-4 2,0 4,1 5,4 1,2 1,4 1,8zm-5 0c0,-3 0,-5 0,-6 0,-1 -1,-2 -1,-2 -1,0 -2,1 -2,2 0,1 0,3 0,6 0,3 0,5 0,6 0,1 1,2 2,2 0,0 1,-1 1,-2 0,-1 0,-3 0,-6zm22 12l-5 0c0,-1 0,-1 0,-1l-4 -11 0 11c0,0 0,0 0,1l-5 0c0,-1 0,-1 0,-1l0 -22c0,0 0,0 0,-1l6 0c3,0 4,1 6,2 1,2 1,3 1,6 0,3 -1,5 -3,6l4 10zm-6 -16c0,-2 0,-2 0,-3 -1,0 -2,-1 -3,-1l0 7c1,0 2,0 3,-1 0,0 0,-1 0,-2z"/>
    </g>
   </g>
  </g>
 </g>
</svg>
