<?xml version="1.0" encoding="UTF-8"?>
<!DOCTYPE svg PUBLIC "-//W3C//DTD SVG 1.1//EN" "http://www.w3.org/Graphics/SVG/1.1/DTD/svg11.dtd">
<!-- Creator: CorelDRAW X7 -->
<svg xmlns="http://www.w3.org/2000/svg" xml:space="preserve" width="1500px" height="1500px" version="1.1" style="shape-rendering:geometricPrecision; text-rendering:geometricPrecision; image-rendering:optimizeQuality; fill-rule:evenodd; clip-rule:evenodd"
viewBox="0 0 1500 1500"
 xmlns:xlink="http://www.w3.org/1999/xlink">
 <defs>
  <style type="text/css">
   <![CDATA[
    .str0 {stroke:black;stroke-width:2.12599}
    .fil0 {fill:none}
    .fil7 {fill:#1A1A1A}
    .fil18 {fill:#363636}
    .fil16 {fill:#4D4D4D}
    .fil3 {fill:#999999}
    .fil17 {fill:#AD5529}
    .fil4 {fill:#B3B3B3}
    .fil15 {fill:#CC6633}
    .fil2 {fill:#CCCCCC}
    .fil22 {fill:#CCCCCC}
    .fil8 {fill:#DB2E34}
    .fil6 {fill:#E6E6E6}
    .fil1 {fill:#F2F2F2}
    .fil5 {fill:#FF9966}
    .fil19 {fill:#FFCC99}
    .fil21 {fill:#FFCC99}
    .fil12 {fill:white}
    .fil13 {fill:white}
    .fil14 {fill:black;fill-rule:nonzero}
    .fil20 {fill:black;fill-rule:nonzero}
    .fil10 {fill:#FF9966;fill-rule:nonzero}
    .fil11 {fill:#FF9966;fill-rule:nonzero}
    .fil9 {fill:#C92F34;fill-opacity:0.541176}
   ]]>
  </style>
    <clipPath id="id0">
     <path d="M828 486c22,0 42,11 53,29 6,-2 11,-2 17,-2 32,0 59,23 64,54 19,6 35,21 41,41l20 0c6,0 11,4 11,10l0 0c0,6 -5,11 -11,11l-371 0c-6,0 -10,-5 -10,-11l0 0c0,-6 4,-10 10,-10l6 0c8,-26 31,-45 60,-45 10,-17 27,-28 47,-31 8,-27 33,-46 63,-46z"/>
    </clipPath>
    <clipPath id="id1">
     <path d="M1007 524c13,0 25,6 31,16 3,0 7,-1 10,-1 18,0 34,14 37,32 11,3 20,12 24,23l11 0c4,0 6,3 6,6l0 0c0,3 -2,6 -6,6l-214 0c-3,0 -6,-3 -6,-6l0 0c0,-3 3,-6 6,-6l3 0c5,-15 19,-26 35,-26 6,-9 16,-16 27,-17 5,-16 19,-27 36,-27z"/>
    </clipPath>
    <clipPath id="id2">
     <path d="M478 542c13,0 24,7 31,17 3,-1 6,-1 9,-1 19,0 34,13 37,31 11,4 20,12 24,24l12 0c3,0 6,2 6,6l0 0c0,3 -3,6 -6,6l-214 0c-4,0 -6,-3 -6,-6l0 0c0,-4 2,-6 6,-6l3 0c4,-15 18,-26 34,-27 6,-9 16,-16 28,-17 4,-16 19,-27 36,-27z"/>
    </clipPath>
    <clipPath id="id3">
     <path d="M455 594l433 0 0 47 58 0 0 48 56 0 0 48 57 0 0 48 38 0 0 250c0,14 -12,26 -26,26l-616 0c-14,0 -26,-12 -26,-26l0 -415c0,-14 12,-26 26,-26z"/>
    </clipPath>
     <clipPath id="id4">
      <path d="M457 626l431 0 0 15 58 0 0 48 56 0 0 48 57 0 0 48 10 0 0 159 -612 0 0 -318z"/>
     </clipPath>
     <clipPath id="id5">
      <path d="M455 594l433 0 0 47 58 0 0 48 56 0 0 48 57 0 0 48 38 0 0 250c0,14 -12,26 -26,26l-616 0c-14,0 -26,-12 -26,-26l0 -415c0,-14 12,-26 26,-26z"/>
     </clipPath>
      <clipPath id="id6">
       <path d="M315 570l61 0 0 -25c0,-5 -4,-9 -9,-9l-43 0c-5,0 -9,4 -9,9l0 25z"/>
      </clipPath>
      <clipPath id="id7">
       <path d="M317 539l57 0c1,0 2,-1 2,-2l0 -8c0,-1 -1,-2 -2,-2l-57 0c-1,0 -2,1 -2,2l0 8c0,1 1,2 2,2z"/>
      </clipPath>
      <clipPath id="id8">
       <path d="M321 528l44 0c10,0 18,-8 18,-19l0 -33 -62 0 0 52z"/>
      </clipPath>
       <clipPath id="id9">
        <path d="M383 488l-33 0c-1,0 -2,1 -2,2l0 19c0,2 1,3 2,3l33 0c0,-1 0,-2 0,-3l0 -21z"/>
       </clipPath>
       <clipPath id="id10">
        <path d="M321 528l44 0c10,0 18,-8 18,-19l0 -33 -62 0 0 52z"/>
       </clipPath>
      <clipPath id="id11">
       <path d="M1222 480l-60 0 0 -24c0,-5 4,-9 9,-9l42 0c5,0 9,4 9,9l0 24z"/>
      </clipPath>
      <clipPath id="id12">
       <path d="M1220 450l-56 0c-1,0 -2,-1 -2,-2l0 -8c0,-1 1,-2 2,-2l56 0c1,0 2,1 2,2l0 8c0,1 -1,2 -2,2z"/>
      </clipPath>
      <clipPath id="id13">
       <path d="M1216 439l-43 0c-10,0 -18,-8 -18,-18l0 -34 61 0 0 52z"/>
      </clipPath>
    <clipPath id="id14">
     <path d="M1331 571c13,0 24,6 31,16 3,0 6,-1 9,-1 19,0 34,14 37,32 12,3 20,12 24,23l12 0c3,0 6,3 6,6l0 0c0,3 -3,6 -6,6l-214 0c-4,0 -6,-3 -6,-6l0 0c0,-3 2,-6 6,-6l3 0c4,-15 18,-26 35,-26 5,-10 15,-16 27,-17 5,-16 19,-27 36,-27z"/>
    </clipPath>
    <clipPath id="id15">
     <path d="M217 596c13,0 24,7 31,17 3,-1 6,-1 10,-1 18,0 34,13 36,31 12,4 21,12 24,24l12 0c3,0 6,2 6,6l0 0c0,3 -3,6 -6,6l-214 0c-4,0 -6,-3 -6,-6l0 0c0,-4 2,-6 6,-6l3 0c5,-15 18,-26 35,-27 5,-9 16,-16 27,-17 5,-16 19,-27 36,-27z"/>
    </clipPath>
 </defs>
 <g id="Layer_x0020_1">
  <metadata id="CorelCorpID_0Corel-Layer"/>
  <g id="_2734787064624">
   <rect class="fil0" y="4" width="1500" height="1500"/>
   <path class="fil1" d="M828 486c22,0 42,11 53,29 6,-2 11,-2 17,-2 32,0 59,23 64,54 19,6 35,21 41,41l20 0c6,0 11,4 11,10l0 0c0,6 -5,11 -11,11l-371 0c-6,0 -10,-5 -10,-11l0 0c0,-6 4,-10 10,-10l6 0c8,-26 31,-45 60,-45 10,-17 27,-28 47,-31 8,-27 33,-46 63,-46z"/>
   <g style="clip-path:url(#id0)">
    <g>
     <path id="1" class="fil2" d="M967 528c0,0 -67,-18 -84,-6 0,0 -6,-22 -9,-29 -4,-6 -37,-22 -39,-19 -2,4 -53,29 -60,62 0,0 -20,-11 -24,-7 -4,4 -27,32 -25,40l-13 -12c0,0 72,-92 95,-100 23,-8 103,9 159,71z"/>
    </g>
   </g>
   <path class="fil0" d="M828 486c22,0 42,11 53,29 6,-2 11,-2 17,-2 32,0 59,23 64,54 19,6 35,21 41,41l20 0c6,0 11,4 11,10l0 0c0,6 -5,11 -11,11l-371 0c-6,0 -10,-5 -10,-11l0 0c0,-6 4,-10 10,-10l6 0c8,-26 31,-45 60,-45 10,-17 27,-28 47,-31 8,-27 33,-46 63,-46z"/>
   <path class="fil3" d="M1325 718l-94 0 0 270 -42 0 0 -40 -94 0 0 40 -18 0 0 -162c0,-26 -22,-47 -48,-47l-47 0 0 209 -34 0 0 -152 -95 0 0 152 -27 0 0 -198 -95 0 0 198 -62 0 0 -270 -47 0c-26,0 -48,22 -48,48l0 222 -41 0 0 -40 -47 0c-24,0 -44,17 -47,40l-19 0 0 -209 -94 0 0 209 -35 0 0 -152 -94 0 0 152 -27 0 0 -198 -95 0 0 198 0 155 95 0 27 0 94 0 35 0 94 0 18 0 95 0 41 0 95 0 62 0 45 0 50 0 27 0 95 0 34 0 95 0 18 0 94 0 42 0 94 0 107 0 0 -155 -107 0 0 -270z"/>
   <path class="fil4" d="M156 718l95 0 0 270 41 0 0 -40 95 0 0 40 18 0 0 -162c0,-26 21,-47 47,-47l48 0 0 209 34 0 0 -152 94 0 0 152 28 0 0 -198 94 0 0 198 63 0 0 -270 47 0c26,0 47,22 47,48l0 222 42 0 0 -40 47 0c23,0 43,17 47,40l18 0 0 -209 95 0 0 209 34 0 0 -152 95 0 0 152 27 0 0 -198 94 0 0 198 0 155 -94 0 -27 0 -95 0 -34 0 -95 0 -18 0 -94 0 -42 0 -94 0 -63 0 -44 0 -50 0 -28 0 -94 0 -34 0 -95 0 -18 0 -95 0 -41 0 -95 0 -106 0 0 -155 106 0 0 -270z"/>
   <g>
    <rect class="fil5 str0" x="965" y="686" width="30.3669" height="17.8023"/>
    <rect class="fil5 str0" x="995" y="686" width="30.3669" height="17.8023"/>
    <rect class="fil5 str0" x="1026" y="686" width="30.3669" height="17.8023"/>
    <rect class="fil5 str0" x="904" y="686" width="30.3669" height="17.8023"/>
    <rect class="fil5 str0" x="934" y="686" width="30.3669" height="17.8023"/>
    <rect class="fil5 str0" x="843" y="686" width="30.3669" height="17.8023"/>
    <rect class="fil5 str0" x="874" y="686" width="30.3669" height="17.8023"/>
    <rect class="fil5 str0" x="783" y="686" width="30.3669" height="17.8023"/>
    <rect class="fil5 str0" x="813" y="686" width="30.3669" height="17.8023"/>
    <rect class="fil5 str0" x="949" y="704" width="30.3669" height="17.8023"/>
    <rect class="fil5 str0" x="979" y="704" width="30.3669" height="17.8023"/>
    <path class="fil5 str0" d="M1010 704l27 0c2,0 3,2 3,4l0 14 -30 0 0 -18z"/>
    <rect class="fil5 str0" x="888" y="704" width="30.3669" height="17.8023"/>
    <rect class="fil5 str0" x="919" y="704" width="30.3669" height="17.8023"/>
    <rect class="fil5 str0" x="828" y="704" width="30.3669" height="17.8023"/>
    <rect class="fil5 str0" x="858" y="704" width="30.3669" height="17.8023"/>
    <rect class="fil5 str0" x="767" y="704" width="30.3669" height="17.8023"/>
    <rect class="fil5 str0" x="797" y="704" width="30.3669" height="17.8023"/>
    <rect class="fil5 str0" x="965" y="722" width="30.3669" height="17.8023"/>
    <rect class="fil5 str0" x="995" y="722" width="30.3669" height="17.8023"/>
    <rect class="fil5 str0" x="1026" y="722" width="30.3669" height="17.8023"/>
    <rect class="fil5 str0" x="904" y="722" width="30.3669" height="17.8023"/>
    <rect class="fil5 str0" x="934" y="722" width="30.3669" height="17.8023"/>
    <rect class="fil5 str0" x="843" y="722" width="30.3669" height="17.8023"/>
    <rect class="fil5 str0" x="874" y="722" width="30.3669" height="17.8023"/>
    <rect class="fil5 str0" x="783" y="722" width="30.3669" height="17.8023"/>
    <rect class="fil5 str0" x="813" y="722" width="30.3669" height="17.8023"/>
    <rect class="fil5 str0" x="949" y="740" width="30.3669" height="17.8023"/>
    <rect class="fil5 str0" x="979" y="740" width="30.3669" height="17.8023"/>
    <rect class="fil5 str0" x="1010" y="740" width="30.3669" height="17.8023"/>
    <rect class="fil5 str0" x="888" y="740" width="30.3669" height="17.8023"/>
    <rect class="fil5 str0" x="919" y="740" width="30.3669" height="17.8023"/>
    <rect class="fil5 str0" x="828" y="740" width="30.3669" height="17.8023"/>
    <rect class="fil5 str0" x="858" y="740" width="30.3669" height="17.8023"/>
    <rect class="fil5 str0" x="767" y="740" width="30.3669" height="17.8023"/>
    <rect class="fil5 str0" x="797" y="740" width="30.3669" height="17.8023"/>
    <rect class="fil5 str0" x="965" y="616" width="30.3669" height="17.8023"/>
    <rect class="fil5 str0" x="995" y="616" width="30.3669" height="17.8023"/>
    <path class="fil5 str0" d="M1026 616l27 0c1,0 3,1 3,3l0 15 -30 0 0 -18z"/>
    <rect class="fil5 str0" x="904" y="616" width="30.3669" height="17.8023"/>
    <rect class="fil5 str0" x="934" y="616" width="30.3669" height="17.8023"/>
    <rect class="fil5 str0" x="843" y="616" width="30.3669" height="17.8023"/>
    <rect class="fil5 str0" x="874" y="616" width="30.3669" height="17.8023"/>
    <rect class="fil5 str0" x="783" y="616" width="30.3669" height="17.8023"/>
    <rect class="fil5 str0" x="813" y="616" width="30.3669" height="17.8023"/>
    <rect class="fil5 str0" x="949" y="634" width="30.3669" height="17.8023"/>
    <rect class="fil5 str0" x="979" y="634" width="30.3669" height="17.8023"/>
    <rect class="fil5 str0" x="1010" y="634" width="30.3669" height="17.8023"/>
    <rect class="fil5 str0" x="888" y="634" width="30.3669" height="17.8023"/>
    <rect class="fil5 str0" x="919" y="634" width="30.3669" height="17.8023"/>
    <rect class="fil5 str0" x="828" y="634" width="30.3669" height="17.8023"/>
    <rect class="fil5 str0" x="858" y="634" width="30.3669" height="17.8023"/>
    <rect class="fil5 str0" x="767" y="634" width="30.3669" height="17.8023"/>
    <rect class="fil5 str0" x="797" y="634" width="30.3669" height="17.8023"/>
    <rect class="fil5 str0" x="965" y="651" width="30.3669" height="17.8023"/>
    <rect class="fil5 str0" x="995" y="651" width="30.3669" height="17.8023"/>
    <rect class="fil5 str0" x="1026" y="651" width="30.3669" height="17.8023"/>
    <rect class="fil5 str0" x="904" y="651" width="30.3669" height="17.8023"/>
    <rect class="fil5 str0" x="934" y="651" width="30.3669" height="17.8023"/>
    <rect class="fil5 str0" x="843" y="651" width="30.3669" height="17.8023"/>
    <rect class="fil5 str0" x="874" y="651" width="30.3669" height="17.8023"/>
    <rect class="fil5 str0" x="783" y="651" width="30.3669" height="17.8023"/>
    <rect class="fil5 str0" x="813" y="651" width="30.3669" height="17.8023"/>
    <rect class="fil5 str0" x="949" y="669" width="30.3669" height="17.8023"/>
    <rect class="fil5 str0" x="979" y="669" width="30.3669" height="17.8023"/>
    <rect class="fil5 str0" x="1010" y="669" width="30.3669" height="17.8023"/>
    <rect class="fil5 str0" x="888" y="669" width="30.3669" height="17.8023"/>
    <rect class="fil5 str0" x="919" y="669" width="30.3669" height="17.8023"/>
    <rect class="fil5 str0" x="828" y="669" width="30.3669" height="17.8023"/>
    <rect class="fil5 str0" x="858" y="669" width="30.3669" height="17.8023"/>
    <rect class="fil5 str0" x="767" y="669" width="30.3669" height="17.8023"/>
    <rect class="fil5 str0" x="797" y="669" width="30.3669" height="17.8023"/>
    <rect class="fil5 str0" x="965" y="828" width="30.3669" height="17.8023"/>
    <rect class="fil5 str0" x="995" y="828" width="30.3669" height="17.8023"/>
    <rect class="fil5 str0" x="1026" y="828" width="30.3669" height="17.8023"/>
    <rect class="fil5 str0" x="904" y="828" width="30.3669" height="17.8023"/>
    <rect class="fil5 str0" x="934" y="828" width="30.3669" height="17.8023"/>
    <rect class="fil5 str0" x="843" y="828" width="30.3669" height="17.8023"/>
    <rect class="fil5 str0" x="874" y="828" width="30.3669" height="17.8023"/>
    <rect class="fil5 str0" x="783" y="828" width="30.3669" height="17.8023"/>
    <rect class="fil5 str0" x="813" y="828" width="30.3669" height="17.8023"/>
    <rect class="fil5 str0" x="949" y="846" width="30.3669" height="17.8023"/>
    <rect class="fil5 str0" x="979" y="846" width="30.3669" height="17.8023"/>
    <path class="fil5 str0" d="M1010 846l27 0c2,0 3,2 3,3l0 15 -30 0 0 -18z"/>
    <rect class="fil5 str0" x="888" y="846" width="30.3669" height="17.8023"/>
    <rect class="fil5 str0" x="919" y="846" width="30.3669" height="17.8023"/>
    <rect class="fil5 str0" x="828" y="846" width="30.3669" height="17.8023"/>
    <rect class="fil5 str0" x="858" y="846" width="30.3669" height="17.8023"/>
    <rect class="fil5 str0" x="767" y="846" width="30.3669" height="17.8023"/>
    <rect class="fil5 str0" x="797" y="846" width="30.3669" height="17.8023"/>
    <rect class="fil5 str0" x="965" y="864" width="30.3669" height="17.8023"/>
    <rect class="fil5 str0" x="995" y="864" width="30.3669" height="17.8023"/>
    <rect class="fil5 str0" x="1026" y="864" width="30.3669" height="17.8023"/>
    <rect class="fil5 str0" x="904" y="864" width="30.3669" height="17.8023"/>
    <rect class="fil5 str0" x="934" y="864" width="30.3669" height="17.8023"/>
    <rect class="fil5 str0" x="843" y="864" width="30.3669" height="17.8023"/>
    <rect class="fil5 str0" x="874" y="864" width="30.3669" height="17.8023"/>
    <rect class="fil5 str0" x="783" y="864" width="30.3669" height="17.8023"/>
    <rect class="fil5 str0" x="813" y="864" width="30.3669" height="17.8023"/>
    <rect class="fil5 str0" x="949" y="882" width="30.3669" height="17.8023"/>
    <rect class="fil5 str0" x="979" y="882" width="30.3669" height="17.8023"/>
    <rect class="fil5 str0" x="1010" y="882" width="30.3669" height="17.8023"/>
    <rect class="fil5 str0" x="888" y="882" width="30.3669" height="17.8023"/>
    <rect class="fil5 str0" x="919" y="882" width="30.3669" height="17.8023"/>
    <rect class="fil5 str0" x="828" y="882" width="30.3669" height="17.8023"/>
    <rect class="fil5 str0" x="858" y="882" width="30.3669" height="17.8023"/>
    <rect class="fil5 str0" x="767" y="882" width="30.3669" height="17.8023"/>
    <rect class="fil5 str0" x="797" y="882" width="30.3669" height="17.8023"/>
    <rect class="fil5 str0" x="965" y="758" width="30.3669" height="17.8023"/>
    <rect class="fil5 str0" x="995" y="758" width="30.3669" height="17.8023"/>
    <path class="fil5 str0" d="M1026 758l27 0c1,0 3,1 3,3l0 14 -30 0 0 -17z"/>
    <rect class="fil5 str0" x="904" y="758" width="30.3669" height="17.8023"/>
    <rect class="fil5 str0" x="934" y="758" width="30.3669" height="17.8023"/>
    <rect class="fil5 str0" x="843" y="758" width="30.3669" height="17.8023"/>
    <rect class="fil5 str0" x="874" y="758" width="30.3669" height="17.8023"/>
    <rect class="fil5 str0" x="783" y="758" width="30.3669" height="17.8023"/>
    <rect class="fil5 str0" x="813" y="758" width="30.3669" height="17.8023"/>
    <rect class="fil5 str0" x="949" y="776" width="30.3669" height="17.8023"/>
    <rect class="fil5 str0" x="979" y="776" width="30.3669" height="17.8023"/>
    <rect class="fil5 str0" x="1010" y="776" width="30.3669" height="17.8023"/>
    <rect class="fil5 str0" x="888" y="776" width="30.3669" height="17.8023"/>
    <rect class="fil5 str0" x="919" y="776" width="30.3669" height="17.8023"/>
    <rect class="fil5 str0" x="828" y="776" width="30.3669" height="17.8023"/>
    <rect class="fil5 str0" x="858" y="776" width="30.3669" height="17.8023"/>
    <rect class="fil5 str0" x="767" y="776" width="30.3669" height="17.8023"/>
    <rect class="fil5 str0" x="797" y="776" width="30.3669" height="17.8023"/>
    <rect class="fil5 str0" x="965" y="793" width="30.3669" height="17.8023"/>
    <rect class="fil5 str0" x="995" y="793" width="30.3669" height="17.8023"/>
    <rect class="fil5 str0" x="1026" y="793" width="30.3669" height="17.8023"/>
    <rect class="fil5 str0" x="904" y="793" width="30.3669" height="17.8023"/>
    <rect class="fil5 str0" x="934" y="793" width="30.3669" height="17.8023"/>
    <rect class="fil5 str0" x="843" y="793" width="30.3669" height="17.8023"/>
    <rect class="fil5 str0" x="874" y="793" width="30.3669" height="17.8023"/>
    <rect class="fil5 str0" x="783" y="793" width="30.3669" height="17.8023"/>
    <rect class="fil5 str0" x="813" y="793" width="30.3669" height="17.8023"/>
    <rect class="fil5 str0" x="949" y="811" width="30.3669" height="17.8023"/>
    <rect class="fil5 str0" x="979" y="811" width="30.3669" height="17.8023"/>
    <rect class="fil5 str0" x="1010" y="811" width="30.3669" height="17.8023"/>
    <rect class="fil5 str0" x="888" y="811" width="30.3669" height="17.8023"/>
    <rect class="fil5 str0" x="919" y="811" width="30.3669" height="17.8023"/>
    <rect class="fil5 str0" x="828" y="811" width="30.3669" height="17.8023"/>
    <rect class="fil5 str0" x="858" y="811" width="30.3669" height="17.8023"/>
    <rect class="fil5 str0" x="767" y="811" width="30.3669" height="17.8023"/>
    <rect class="fil5 str0" x="797" y="811" width="30.3669" height="17.8023"/>
   </g>
   <path class="fil6" d="M1007 524c13,0 25,6 31,16 3,0 7,-1 10,-1 18,0 34,14 37,32 11,3 20,12 24,23l11 0c4,0 6,3 6,6l0 0c0,3 -2,6 -6,6l-214 0c-3,0 -6,-3 -6,-6l0 0c0,-3 3,-6 6,-6l3 0c5,-15 19,-26 35,-26 6,-9 16,-16 27,-17 5,-16 19,-27 36,-27z"/>
   <g style="clip-path:url(#id1)">
    <g>
     <path id="1" class="fil2" d="M1088 548c0,0 -39,-10 -48,-4 0,0 -4,-12 -6,-16 -2,-3 -21,-13 -22,-11 -2,2 -31,16 -35,35 0,0 -12,-6 -14,-3 -2,2 -16,18 -14,23l-8 -7c0,0 42,-53 55,-58 14,-4 60,5 92,41z"/>
    </g>
   </g>
   <path class="fil0" d="M1007 524c13,0 25,6 31,16 3,0 7,-1 10,-1 18,0 34,14 37,32 11,3 20,12 24,23l11 0c4,0 6,3 6,6l0 0c0,3 -2,6 -6,6l-214 0c-3,0 -6,-3 -6,-6l0 0c0,-3 3,-6 6,-6l3 0c5,-15 19,-26 35,-26 6,-9 16,-16 27,-17 5,-16 19,-27 36,-27z"/>
   <path class="fil6" d="M478 542c13,0 24,7 31,17 3,-1 6,-1 9,-1 19,0 34,13 37,31 11,4 20,12 24,24l12 0c3,0 6,2 6,6l0 0c0,3 -3,6 -6,6l-214 0c-4,0 -6,-3 -6,-6l0 0c0,-4 2,-6 6,-6l3 0c4,-15 18,-26 34,-27 6,-9 16,-16 28,-17 4,-16 19,-27 36,-27z"/>
   <g style="clip-path:url(#id2)">
    <g>
     <path id="1" class="fil2" d="M444 619l-64 1c0,0 2,-5 5,-11 4,-6 3,-14 31,-24 0,0 3,-22 -7,-19 -11,2 -61,43 -50,56 12,13 64,12 70,11 6,-2 41,1 15,-14z"/>
    </g>
   </g>
   <path class="fil0" d="M478 542c13,0 24,7 31,17 3,-1 6,-1 9,-1 19,0 34,13 37,31 11,4 20,12 24,24l12 0c3,0 6,2 6,6l0 0c0,3 -3,6 -6,6l-214 0c-4,0 -6,-3 -6,-6l0 0c0,-4 2,-6 6,-6l3 0c4,-15 18,-26 34,-27 6,-9 16,-16 28,-17 4,-16 19,-27 36,-27z"/>
   <g>
    <path class="fil2" d="M681 1147c25,-65 35,-131 34,-198 32,-18 63,-18 96,0 -1,67 9,133 34,198l-164 0z"/>
    <rect class="fil6" x="637" y="1137" width="251.909" height="10.2404" rx="8" ry="5"/>
   </g>
   <path class="fil6" d="M455 594l433 0 0 47 58 0 0 48 56 0 0 48 57 0 0 48 38 0 0 250c0,14 -12,26 -26,26l-616 0c-14,0 -26,-12 -26,-26l0 -415c0,-14 12,-26 26,-26z"/>
   <g style="clip-path:url(#id3)">
    <g>
     <rect class="fil7" x="429" y="504" width="667" height="467"/>
     <polygon class="fil8" points="457,626 1069,626 1069,944 457,944 "/>
    </g>
    <g style="clip-path:url(#id4)">
     <g>
      <path id="1" class="fil9" d="M504 706l34 0c7,0 12,5 12,12l0 44c12,3 23,7 33,14l31 -32c5,-4 12,-4 17,0l24 25c4,4 4,12 0,16l-31 31c6,10 11,22 14,34l44 0c6,0 11,5 11,11l0 35c0,6 -5,11 -11,11l-44 0c-3,12 -8,23 -14,33l31 32c4,4 4,11 0,16l-24 24c-5,5 -12,5 -17,0l-31 -31c-10,6 -21,11 -33,14l0 44c0,6 -5,11 -12,11l-34 0c-6,0 -12,-5 -12,-11l0 -44c-12,-3 -23,-8 -33,-14l-31 31c-5,5 -12,5 -16,0l-25 -24c-4,-5 -4,-12 0,-16l31 -32c-6,-10 -10,-21 -13,-33l-44 0c-7,0 -12,-5 -12,-11l0 -35c0,-6 5,-11 12,-11l44 0c3,-12 7,-24 13,-34l-31 -31c-4,-4 -4,-12 0,-16l25 -25c4,-4 11,-4 16,0l31 32c10,-7 21,-11 33,-14l0 -44c0,-7 6,-12 12,-12zm17 125c26,0 48,21 48,47 0,27 -22,48 -48,48 -26,0 -47,-21 -47,-48 0,-26 21,-47 47,-47z"/>
      <path class="fil9" d="M586 565l18 -5c3,-2 6,0 8,4l7 23c7,-1 13,0 20,1l11 -22c1,-3 5,-4 8,-2l17 8c3,2 4,6 3,9l-11 21c5,5 9,10 13,15l23 -7c3,-1 7,1 8,4l6 18c1,3 -1,7 -4,8l-23 7c0,7 0,14 -2,20l22 11c3,2 4,5 3,8l-9 17c-2,3 -5,5 -8,3l-22 -11c-4,5 -9,10 -15,13l7 23c1,3 0,7 -4,8l-18 6c-3,1 -6,-1 -8,-4l-7 -23c-7,0 -13,0 -20,-2l-11 22c-1,3 -5,4 -8,3l-17 -9c-3,-1 -4,-5 -3,-8l11 -22c-5,-4 -9,-9 -13,-15l-23 8c-3,1 -7,-1 -8,-4l-6 -18c-1,-4 1,-7 4,-8l23 -8c0,-7 0,-13 2,-20l-22 -11c-3,-1 -4,-5 -3,-8l9 -17c2,-3 5,-4 8,-3l22 11c4,-5 9,-9 15,-13l-7 -23c-1,-3 0,-6 4,-8zm30 62c14,-4 28,3 33,17 4,14 -3,29 -17,33 -14,5 -28,-3 -33,-17 -4,-13 3,-28 17,-33z"/>
     </g>
    </g>
    <g style="clip-path:url(#id5)">
     <polygon class="fil0" points="457,626 1069,626 1069,944 457,944 "/>
    </g>
   </g>
   <path class="fil0" d="M455 594l433 0 0 47 58 0 0 48 56 0 0 48 57 0 0 48 38 0 0 250c0,14 -12,26 -26,26l-616 0c-14,0 -26,-12 -26,-26l0 -415c0,-14 12,-26 26,-26z"/>
   <g>
    <line class="fil0" x1="474" y1="980" x2="474" y2= "1145" />
    <path class="fil10" d="M472 980c0,-1 1,-2 2,-2 1,0 2,1 2,2l0 165c0,1 -1,2 -2,2 -1,0 -2,-1 -2,-2l0 -165z"/>
    <line class="fil0" x1="498" y1="980" x2="498" y2= "1145" />
    <path class="fil10" d="M496 980c0,-1 1,-2 2,-2 1,0 2,1 2,2l0 165c0,1 -1,2 -2,2 -1,0 -2,-1 -2,-2l0 -165z"/>
    <line class="fil0" x1="474" y1="994" x2="498" y2= "994" />
    <path class="fil10" d="M474 996c-1,0 -2,-1 -2,-2 0,-1 1,-2 2,-2l24 0c1,0 2,1 2,2 0,1 -1,2 -2,2l-24 0z"/>
    <line class="fil0" x1="474" y1="1012" x2="498" y2= "1012" />
    <path class="fil10" d="M474 1014c-1,0 -2,-1 -2,-2 0,-1 1,-2 2,-2l24 0c1,0 2,1 2,2 0,1 -1,2 -2,2l-24 0z"/>
    <line class="fil0" x1="474" y1="1028" x2="498" y2= "1028" />
    <path class="fil10" d="M474 1030c-1,0 -2,-1 -2,-2 0,-1 1,-2 2,-2l24 0c1,0 2,1 2,2 0,1 -1,2 -2,2l-24 0z"/>
    <line class="fil0" x1="474" y1="1046" x2="498" y2= "1046" />
    <path class="fil10" d="M474 1048c-1,0 -2,-1 -2,-2 0,-1 1,-2 2,-2l24 0c1,0 2,1 2,2 0,1 -1,2 -2,2l-24 0z"/>
    <line class="fil0" x1="474" y1="1063" x2="498" y2= "1063" />
    <path class="fil10" d="M474 1065c-1,0 -2,-1 -2,-2 0,-1 1,-2 2,-2l24 0c1,0 2,1 2,2 0,1 -1,2 -2,2l-24 0z"/>
    <line class="fil0" x1="474" y1="1080" x2="498" y2= "1080" />
    <path class="fil10" d="M474 1082c-1,0 -2,-1 -2,-2 0,-1 1,-2 2,-2l24 0c1,0 2,1 2,2 0,1 -1,2 -2,2l-24 0z"/>
    <line class="fil0" x1="474" y1="1097" x2="498" y2= "1097" />
    <path class="fil10" d="M474 1099c-1,0 -2,-1 -2,-2 0,-1 1,-2 2,-2l24 0c1,0 2,1 2,2 0,1 -1,2 -2,2l-24 0z"/>
    <line class="fil0" x1="474" y1="1115" x2="498" y2= "1115" />
    <path class="fil10" d="M474 1117c-1,0 -2,-1 -2,-2 0,-1 1,-2 2,-2l24 0c1,0 2,1 2,2 0,1 -1,2 -2,2l-24 0z"/>
    <line class="fil0" x1="474" y1="1131" x2="498" y2= "1131" />
    <path class="fil10" d="M474 1133c-1,0 -2,-1 -2,-2 0,-1 1,-2 2,-2l24 0c1,0 2,1 2,2 0,1 -1,2 -2,2l-24 0z"/>
   </g>
   <path class="fil11" d="M1094 984c0,-1 -1,-1 -2,-1 -1,0 -2,2 -1,3l46 160c1,1 2,2 3,1 1,0 2,-1 1,-2l-47 -161z"/>
   <g>
    <path class="fil12" d="M756 682c-10,33 31,58 38,85 1,5 1,10 -1,14l3 2 2 1c4,-5 5,-11 4,-17 -1,-27 -45,-59 -46,-85zm34 117l5 -2 0 -9 -4 -2 1 0 4 2 0 9 -6 4c0,0 -7,-4 -8,-4 -1,-1 -1,-1 -1,-2l0 0 9 4zm7 -12l-5 -3 -7 4 0 4 -1 0 0 -4 8 -5 6 3c0,0 0,8 0,9 0,1 0,1 0,1l-1 1 0 -10zm-14 0l0 5 7 5 3 -2 0 1 -3 2 -9 -5 0 -7c0,0 7,-4 8,-4 1,-1 1,-1 2,0l0 0 -8 5zm5 6c0,0 0,0 0,0 0,1 0,1 0,1l0 0c1,-1 3,-2 4,-2l1 -1c-1,0 -2,0 -3,1 -1,-1 -1,-1 -1,-1 -1,0 -1,0 -1,-1 0,0 1,-1 2,-1 0,0 1,1 1,1l0 -1c0,-1 -1,-1 -1,-1 -1,0 -1,0 -2,1 0,0 -1,2 -1,2 0,1 1,2 1,2zm-4 -1l1 0 -1 0zm4 2l0 0 0 0zm-8 -3c-4,1 -8,1 -11,1 -2,3 -3,6 -5,9 4,-1 11,-2 16,-4l0 -6zm-22 1c-18,3 -31,-10 -17,-29 -23,17 -9,36 8,39 2,-2 4,-4 6,-6 1,-2 2,-3 3,-4l0 0zm1 -42c9,8 12,14 12,23 2,0 10,-1 8,-7 -4,-23 -34,-28 -26,-61 1,18 17,29 27,45 12,17 18,34 -11,35 -5,24 -33,44 -43,14 13,21 33,0 37,-13 -5,2 -10,1 -14,1 -3,0 -7,-2 -9,-5 -1,-2 -1,-6 0,-9 0,-1 0,-2 1,-3 2,-4 4,-7 6,-9l0 0c3,-4 7,-7 12,-11zm5 19c-3,-8 -9,-5 -16,1 -4,4 6,8 15,5 2,-1 3,-2 1,-6zm-45 46c-27,-34 -12,-85 30,-98 0,2 0,3 1,5 -38,14 -53,60 -31,93zm39 -100c0,0 0,0 0,0 1,1 2,3 3,4 0,0 -1,0 -1,0 -1,-1 -2,-2 -2,-4 0,0 0,0 0,0zm17 -1c18,2 35,13 45,28 -10,-13 -26,-21 -42,-23 -1,-2 -2,-3 -3,-5z"/>
   </g>
   <path class="fil13" d="M577 850l0 34c0,0 0,1 0,2 0,1 -1,2 -1,3 -1,1 -2,1 -3,2 -1,0 -2,1 -3,1l-6 0c-2,0 -3,-1 -4,-1 -1,-1 -2,-1 -3,-2 0,-1 -1,-2 -1,-3 0,-1 0,-2 0,-2l0 -34 8 0 0 32 -3 2 6 0c1,0 2,0 2,0 0,-1 1,-1 1,-2l0 -32 7 0zm19 42l0 -23c0,0 0,-1 -1,-1 0,0 0,-1 -1,-1l-7 0 3 2 0 23 -8 0 0 -32 14 0c1,0 3,0 4,1 1,0 1,1 2,2 1,0 1,1 1,2 1,1 1,2 1,3l0 24 -8 0zm34 -42l0 42 -14 0c-2,0 -3,-1 -4,-1 -1,-1 -2,-1 -3,-2 0,-1 -1,-2 -1,-3 0,-1 0,-2 0,-2l0 -16c0,-1 0,-3 1,-4 0,-1 1,-2 1,-2 1,-1 2,-1 3,-2 1,0 2,0 3,0l5 0 0 -10 9 0zm-9 17l-3 0c-1,0 -2,0 -2,0 0,1 0,1 0,2l0 14 -3 1 8 0 0 -17zm27 -7c1,0 1,0 2,0 1,1 2,1 3,2 1,0 1,1 2,2 0,1 1,3 1,4l0 10 -13 0 0 5 -4 1 17 0 0 8 -14 0c-1,0 -3,-1 -3,-1 -1,0 -2,-1 -3,-2 -1,0 -1,-1 -1,-2 -1,-1 -1,-2 -1,-3l0 -16c0,-1 0,-3 1,-4 0,-1 1,-2 2,-2 0,-1 1,-1 2,-2 1,0 2,0 3,0l6 0zm0 12l0 -5 -5 0 0 3 0 2 5 0zm26 -12c2,0 3,0 4,1 1,0 2,1 2,2 1,0 1,1 1,2 1,1 1,2 1,3l0 5 -8 0 0 -4c0,0 0,-1 0,-1 -1,0 -1,-1 -2,-1l-4 0 0 25 -8 0 0 -32 14 0zm48 -10l5 0 0 42 -9 0 0 -20 -4 9 -2 0 -5 -9 0 20 -8 0 0 -42 4 0 9 16 -3 2 4 0 9 -18zm30 42l-13 0c-3,0 -5,-1 -6,-2 -1,-2 -2,-4 -2,-6l0 -3c0,-2 0,-4 1,-5 1,-1 1,-2 3,-3 1,-1 2,-2 3,-2 1,-1 2,-1 3,-1l3 0 0 -1c0,-1 0,-2 0,-2 -1,0 -1,0 -2,0l-11 0 0 -7 15 0c2,0 4,1 5,2 1,1 1,3 1,5l0 25zm-8 -16l0 0c-1,0 -2,0 -2,0 -1,0 -2,1 -2,1 0,0 -1,1 -1,2 0,0 0,1 0,2l0 2 -3 1 8 0 0 -8zm21 -16l-8 0 0 32 8 0 0 -32zm-8 -6c0,-1 0,-2 1,-3 1,-1 2,-1 3,-1 1,0 2,0 3,1 1,1 1,2 1,3 0,1 0,2 -1,3 -1,1 -2,1 -3,1 -1,0 -2,0 -3,-1 -1,-1 -1,-2 -1,-3zm27 38l0 -23c0,0 -1,-1 -1,-1 0,0 -1,-1 -2,-1l-6 0 3 2 0 23 -8 0 0 -32 14 0c1,0 2,0 3,1 1,0 2,1 3,2 0,0 1,1 1,2 0,1 0,2 0,3l0 24 -7 0zm22 -32l8 0 0 7 -5 0 0 25 -8 0 0 -25 -5 0 0 -7 5 0 0 -10 8 0 0 8 -3 2zm26 0c1,0 1,0 2,0 1,1 2,1 3,2 1,0 1,1 2,2 0,1 1,3 1,4l0 10 -13 0 0 5 -4 1 17 0 0 8 -14 0c-1,0 -3,-1 -4,-1 0,0 -1,-1 -2,-2 -1,0 -1,-1 -1,-2 -1,-1 -1,-2 -1,-3l0 -16c0,-1 0,-3 1,-4 0,-1 1,-2 2,-2 0,-1 1,-1 2,-2 1,0 2,0 3,0l6 0zm0 12l0 -5 -5 0 0 3 0 2 5 0zm26 20l0 -23c0,0 0,-1 -1,-1 0,0 -1,-1 -2,-1l-6 0 3 2 0 23 -8 0 0 -32 14 0c1,0 3,0 4,1 1,0 1,1 2,2 1,0 1,1 1,2 0,1 1,2 1,3l0 24 -8 0zm33 0l-14 0c-2,0 -4,-1 -5,-2 -2,-2 -2,-4 -2,-6l0 -3c0,-2 0,-4 1,-5 0,-1 1,-2 2,-3 1,-1 2,-2 4,-2 1,-1 2,-1 3,-1l3 0 0 -1c0,-1 0,-2 -1,-2 0,0 -1,0 -1,0l-11 0 0 -7 14 0c3,0 5,1 6,2 1,1 1,3 1,5l0 25zm-8 -16l-1 0c0,0 -1,0 -2,0 0,0 -1,1 -1,1 -1,0 -1,1 -1,2 -1,0 -1,1 -1,2l0 2 -3 1 9 0 0 -8zm26 16l0 -23c0,0 0,-1 0,-1 0,0 -1,-1 -2,-1l-7 0 3 2 0 23 -8 0 0 -32 14 0c2,0 3,0 4,1 1,0 2,1 2,2 1,0 2,1 2,2 0,1 0,2 0,3l0 24 -8 0zm35 0l-14 0c-2,0 -3,-1 -4,-1 -1,0 -1,-1 -2,-2 -1,0 -1,-1 -2,-2 0,-1 0,-2 0,-3l0 -16c0,-1 0,-3 1,-4 0,-1 1,-2 2,-2 0,-1 1,-1 2,-2 1,0 2,0 3,0l14 0 0 7 -8 4 0 -4 -6 0 0 16 -3 1 9 0 0 -4 8 0 0 12zm18 -32c1,0 2,0 2,0 1,1 2,1 3,2 1,0 1,1 2,2 0,1 1,3 1,4l0 10 -13 0 0 5 -4 1 17 0 0 8 -14 0c-1,0 -2,-1 -3,-1 -1,0 -2,-1 -3,-2 0,0 -1,-1 -1,-2 -1,-1 -1,-2 -1,-3l0 -16c0,-1 0,-3 1,-4 0,-1 1,-2 2,-2 1,-1 1,-1 2,-2 1,0 2,0 3,0l6 0zm0 12l0 -5 -5 0 0 3 0 2 5 0z"/>
   <g id="_2734775638880">
    <path class="fil14" d="M332 751l29 0 2 0 0 2 0 389 0 2 -2 0 -29 0 -2 0 0 -2 0 -389 0 -2 2 0zm1 36l24 0 -24 -29 0 29zm2 -32l24 29 0 -29 -24 0zm24 38l-23 29 23 0 0 -29zm0 33l-23 0 23 29 0 -29zm0 38l-23 29 23 0 0 -29zm0 32l-24 0 24 30 0 -30zm0 39l-24 29 24 0 0 -29zm0 33l-23 0 23 28 0 -28zm0 38l-23 29 23 0 0 -29zm0 32l-23 0 23 29 0 -29zm0 38l-23 29 23 0 0 -29zm0 33l-23 0 23 29 0 -29zm-2 31l-24 -29 0 29 24 0zm-24 -37l24 -29 -24 0 0 29zm0 -33l24 0 -24 -29 0 29zm0 -38l24 -29 -24 0 0 29zm0 -33l24 0 -24 -29 0 29zm0 -38l24 -29 -24 0 0 29zm0 -33l24 0 -24 -29 0 29zm0 -37l24 -29 -24 0 0 29zm0 -33l24 0 -24 -30 0 30zm0 -38l24 -29 -24 0 0 29z"/>
    <path class="fil14" d="M332 360l29 0 2 0 0 2 0 390 0 1 -2 0 -29 0 -2 0 0 -1 0 -390 0 -2 2 0zm1 37l24 0 -24 -30 0 30zm2 -33l24 29 0 -29 -24 0zm24 39l-23 28 23 0 0 -28zm0 32l-23 0 23 29 0 -29zm0 38l-23 29 23 0 0 -29zm0 33l-24 0 24 29 0 -29zm0 38l-24 29 24 0 0 -29zm0 33l-23 0 23 29 0 -29zm0 38l-23 29 23 0 0 -29zm0 33l-23 0 23 28 0 -28zm0 38l-23 28 23 0 0 -28zm0 32l-23 0 23 29 0 -29zm-2 32l-24 -29 0 29 24 0zm-24 -38l24 -29 -24 0 0 29zm0 -33l24 0 -24 -29 0 29zm0 -38l24 -29 -24 0 0 29zm0 -33l24 0 -24 -29 0 29zm0 -37l24 -30 -24 0 0 30zm0 -33l24 0 -24 -30 0 30zm0 -38l24 -29 -24 0 0 29zm0 -33l24 0 -24 -29 0 29zm0 -38l24 -29 -24 0 0 29z"/>
   </g>
   <path class="fil14" d="M324 543l45 0 1 0 0 1 0 77 0 1 -1 0 -45 0 -2 0 0 -1 0 -77 0 -1 2 0zm43 2l-42 0 0 73 42 0 0 -73z"/>
   <g id="_2734787060592">
    <path class="fil14" d="M645 486l0 31 0 1 -2 0 -449 0 -2 0 0 -1 0 -31 0 -1 2 0 1 0 0 0 0 0 78 0 1 0 0 0 2 0 1 0 0 0 78 0 0 0 1 0 2 0 0 0 1 0 78 0 0 0 0 0 3 0 0 0 0 0 78 0 1 0 0 0 3 0 0 0 0 0 78 0 0 0 1 0 2 0 1 0 0 0 39 0 2 0 0 1zm-37 2l15 11 15 -11 -30 0zm18 13l15 11 0 -22 -15 11zm13 14l-16 -11 -16 11 32 0zm-19 -14l-18 -13 0 0 -18 13 18 13 18 -13zm-39 3l-16 11 32 0 -16 -11zm-20 9l17 -12 -17 -12 -17 12 17 12zm20 -14l15 -11 -30 0 15 11zm-54 -11l14 11 15 -11 -29 0zm30 27l-16 -11 -15 11 31 0zm-19 -14l-18 -13 0 0 -18 13 18 13 18 -13zm-99 -13l-18 13 18 13 18 -13 -18 -13 0 0zm-21 16l-16 11 31 0 -15 -11zm-20 9l16 -12 -16 -12 -17 12 17 12zm20 -14l14 -11 -29 0 15 11zm-55 -11l15 11 15 -11 -30 0zm31 27l-16 -11 -16 11 32 0zm-19 -14l-18 -13 0 0 -18 13 18 13 18 -13zm70 -13l15 11 14 -11 -29 0zm18 13l16 12 17 -12 -17 -12 -16 12zm12 14l-15 -11 -16 11 31 0zm24 -11l-16 11 32 0 -16 -11zm0 -5l15 -11 -30 0 15 11zm-218 -11l15 11 15 -11 -30 0zm18 13l17 12 17 -12 -17 -12 -17 12zm13 14l-16 -11 -15 11 31 0zm-19 -14l-18 -13 0 0 -18 13 18 13 18 -13zm43 3l-16 11 32 0 -16 -11zm0 -5l15 -11 -30 0 15 11zm-82 5l-16 11 32 0 -16 -11zm-20 9l17 -12 -17 -12 -16 12 16 12zm20 -14l15 -11 -30 0 15 11zm-54 -11l15 11 14 -11 -29 0zm30 27l-15 -11 -16 11 31 0zm-19 -14l-15 -11 0 23 15 -12z"/>
    <g>
     <path class="fil15" d="M315 570l61 0 0 -25c0,-5 -4,-9 -9,-9l-43 0c-5,0 -9,4 -9,9l0 25z"/>
     <g style="clip-path:url(#id6)">
      <g>
       <rect class="fil16" x="348" y="486" width="37.7884" height="23.2546" rx="2" ry="2"/>
       <path class="fil17" d="M363 574l0 -31c0,0 -1,-5 -6,-5 0,0 21,-1 21,0 0,0 0,34 0,34l-15 2z"/>
      </g>
     </g>
     <path class="fil0" d="M315 570l61 0 0 -25c0,-5 -4,-9 -9,-9l-43 0c-5,0 -9,4 -9,9l0 25z"/>
     <path class="fil15" d="M317 539l57 0c1,0 2,-1 2,-2l0 -8c0,-1 -1,-2 -2,-2l-57 0c-1,0 -2,1 -2,2l0 8c0,1 1,2 2,2z"/>
     <g style="clip-path:url(#id7)">
      <g>
       <rect class="fil16" x="348" y="488" width="37.7884" height="23.2546" rx="2" ry="2"/>
      </g>
     </g>
     <path class="fil0" d="M317 539l57 0c1,0 2,-1 2,-2l0 -8c0,-1 -1,-2 -2,-2l-57 0c-1,0 -2,1 -2,2l0 8c0,1 1,2 2,2z"/>
     <path class="fil15" d="M321 528l44 0c10,0 18,-8 18,-19l0 -33 -62 0 0 52z"/>
     <g style="clip-path:url(#id8)">
      <g>
       <path id="1" class="fil17" d="M371 471l0 47c0,0 -1,11 -10,11 -9,0 21,1 21,0 0,-1 15,-21 14,-26 -1,-4 -9,-32 -9,-32l-16 0z"/>
       <path class="fil16" d="M383 488l-33 0c-1,0 -2,1 -2,2l0 19c0,2 1,3 2,3l33 0c1,0 2,-1 2,-3l0 -19c0,-1 -1,-2 -2,-2z"/>
      </g>
      <g style="clip-path:url(#id9)">
       <g>
        <rect class="fil18" x="371" y="483" width="19.102" height="30.2347"/>
       </g>
      </g>
      <g style="clip-path:url(#id10)">
       <path class="fil0" d="M383 488l-33 0c-1,0 -2,1 -2,2l0 19c0,2 1,3 2,3l33 0c1,0 2,-1 2,-3l0 -19c0,-1 -1,-2 -2,-2z"/>
      </g>
     </g>
     <path class="fil0" d="M321 528l44 0c10,0 18,-8 18,-19l0 -33 -62 0 0 52z"/>
    </g>
    <g>
     <path class="fil14" d="M637 522l0 118 0 0 0 0c0,0 1,4 -4,4 -5,0 -4,-4 -4,-4l0 0 0 0 0 -119 -2 0 0 119c-1,1 -1,6 6,6 7,0 7,-5 7,-6l0 -118 -3 0z"/>
     <path class="fil19" d="M643 518l-21 0 0 4c0,2 2,4 4,4l13 0c2,0 4,-2 4,-4l0 -4z"/>
     <path class="fil20" d="M643 517l-21 0 0 0 0 1 0 4c0,1 0,2 1,3l0 0c1,1 2,1 3,1l13 0c1,0 3,0 3,-1 1,-1 2,-2 2,-3l0 -4 0 -1 -1 0zm-20 1l20 0 0 4c0,1 -1,2 -1,2 -1,1 -2,1 -3,1l-13 0c-1,0 -1,0 -2,-1l0 0c-1,0 -1,-1 -1,-2l0 -4z"/>
     <path class="fil14" d="M635 644c0,-1 -1,-1 -1,-1 -1,0 -1,0 -1,1l0 6c0,1 0,1 1,1 0,0 0,0 0,0 0,0 3,0 3,4 0,2 0,3 -1,3 0,1 -2,1 -3,1 -1,0 -3,0 -3,-1 -1,0 -1,0 -1,0 0,0 0,0 0,0l0 0 0 0c0,-1 0,-1 1,-1 0,0 0,-1 0,-1 0,-1 -1,-1 -2,-1 0,1 -1,1 -1,2l0 0c0,0 0,1 0,2 0,0 1,1 1,1 2,1 3,1 5,1 2,0 3,0 4,-1 2,-1 2,-2 2,-5 0,-5 -3,-6 -4,-6l0 -5z"/>
     <circle class="fil21" cx="633" cy="638" r="8"/>
     <path class="fil14" d="M633 629c-2,0 -4,1 -6,3 -2,1 -3,3 -3,6 0,2 1,4 3,6 2,2 4,3 6,3 3,0 5,-1 6,-3 2,-2 3,-4 3,-6 0,-3 -1,-5 -3,-6 -1,-2 -3,-3 -6,-3zm-4 4c1,-1 2,-2 4,-2 2,0 4,1 5,2 1,1 2,3 2,5 0,2 -1,3 -2,4 -1,2 -3,2 -5,2 -2,0 -3,0 -4,-2 -2,-1 -2,-2 -2,-4 0,-2 0,-4 2,-5z"/>
    </g>
   </g>
   <g id="_2734787059216">
    <path class="fil14" d="M1206 756l-29 0 -2 0 0 2 0 384 0 2 2 0 29 0 1 0 0 -2 0 -384 0 -2 -1 0zm-2 36l-24 0 24 -30 0 30zm-2 -32l-24 28 0 -28 24 0zm-24 38l24 28 -24 0 0 -28zm0 32l24 0 -24 28 0 -28zm0 38l24 28 -24 0 0 -28zm0 31l24 0 -24 29 0 -29zm0 38l24 29 -24 0 0 -29zm0 33l24 0 -24 28 0 -28zm0 37l24 29 -24 0 0 -29zm0 33l24 0 -24 28 0 -28zm0 37l24 29 -24 0 0 -29zm0 32l24 0 -24 29 0 -29zm3 31l23 -28 0 28 -23 0zm23 -37l-24 -29 24 0 0 29zm0 -32l-24 0 24 -29 0 29zm0 -38l-24 -29 24 0 0 29zm0 -32l-23 0 23 -29 0 29zm0 -38l-24 -28 24 0 0 28zm0 -32l-24 0 24 -29 0 29zm0 -37l-23 -29 23 0 0 29zm0 -33l-24 0 24 -29 0 29zm0 -37l-23 -29 23 0 0 29z"/>
    <path class="fil14" d="M1206 370l-29 0 -2 0 0 2 0 384 0 2 2 0 29 0 1 0 0 -2 0 -384 0 -2 -1 0zm-2 36l-24 0 24 -30 0 30zm-2 -32l-24 29 0 -29 24 0zm-24 38l24 28 -24 0 0 -28zm0 32l24 0 -24 28 0 -28zm0 38l24 28 -24 0 0 -28zm0 32l24 0 -24 28 0 -28zm0 37l24 29 -24 0 0 -29zm0 33l24 0 -24 28 0 -28zm0 37l24 29 -24 0 0 -29zm0 33l24 0 -24 28 0 -28zm0 37l24 29 -24 0 0 -29zm0 32l24 0 -24 29 0 -29zm3 31l23 -28 0 28 -23 0zm23 -37l-24 -28 24 0 0 28zm0 -32l-24 0 24 -29 0 29zm0 -38l-24 -29 24 0 0 29zm0 -32l-23 0 23 -29 0 29zm0 -37l-24 -29 24 0 0 29zm0 -33l-24 0 24 -29 0 29zm0 -37l-23 -29 23 0 0 29zm0 -33l-24 0 24 -29 0 29zm0 -37l-23 -29 23 0 0 29z"/>
   </g>
   <path class="fil14" d="M1169 445l44 0 2 0 0 0 0 77 0 1 -2 0 -44 0 -2 0 0 -1 0 -77 0 0 2 0zm43 1l-41 0 0 73 41 0 0 -73z"/>
   <g id="_2734787055152">
    <path class="fil14" d="M896 398l0 30 0 1 2 0 444 0 2 0 0 -1 0 -30 0 -2 -2 0 -1 0 -1 0 0 0 -77 0 0 0 0 0 -3 0 0 0 -1 0 -77 0 0 0 0 0 -3 0 0 0 0 0 -77 0 -1 0 0 0 -2 0 -1 0 0 0 -77 0 0 0 -1 0 -2 0 0 0 -1 0 -77 0 0 0 0 0 -3 0 0 0 0 0 -39 0 -2 0 0 2zm36 2l-14 10 -15 -10 29 0zm-17 13l-15 10 0 -21 15 11zm-13 13l16 -11 15 11 -31 0zm19 -13l17 -13 0 0 18 13 -18 13 -17 -13zm38 2l16 11 -31 0 15 -11zm20 10l-17 -12 17 -13 16 13 -16 12zm-20 -15l-14 -10 29 0 -15 10zm54 -10l-15 10 -14 -10 29 0zm-30 26l15 -11 16 11 -31 0zm18 -13l18 -13 0 0 18 13 -18 13 -18 -13zm99 -13l18 13 -18 13 -18 -13 18 -13 0 0zm21 15l15 11 -31 0 16 -11zm19 10l-16 -12 16 -13 17 13 -17 12zm-19 -15l-15 -10 29 0 -14 10zm53 -10l-14 10 -15 -10 29 0zm-30 26l16 -11 15 11 -31 0zm19 -13l18 -13 0 0 17 13 -17 13 -18 -13zm-69 -13l-15 10 -15 -10 30 0zm-18 13l-16 12 -17 -12 17 -13 16 13zm-12 13l15 -11 16 11 -31 0zm-24 -11l16 11 -32 0 16 -11zm0 -5l-15 -10 30 0 -15 10zm215 -10l-15 10 -14 -10 29 0zm-18 13l-16 12 -17 -12 17 -13 16 13zm-12 13l15 -11 16 11 -31 0zm19 -13l17 -13 0 0 18 13 -18 13 -17 -13zm-43 2l16 11 -31 0 15 -11zm0 -5l-14 -10 29 0 -15 10zm81 5l16 11 -31 0 15 -11zm20 10l-17 -12 17 -13 16 13 -16 12zm-20 -15l-15 -10 30 0 -15 10zm54 -10l-15 10 -14 -10 29 0zm-30 26l15 -11 16 11 -31 0zm18 -13l16 -12 0 23 -16 -11z"/>
    <g>
     <path class="fil15" d="M1222 480l-60 0 0 -24c0,-5 4,-9 9,-9l42 0c5,0 9,4 9,9l0 24z"/>
     <g style="clip-path:url(#id11)">
      <g>
       <rect class="fil16" x="1152" y="398" width="37.3281" height="22.9714" rx="2" ry="2"/>
       <path class="fil17" d="M1212 484l0 -31c0,0 0,-3 -3,-3 0,0 0,-4 0,-4 -1,0 14,-1 14,0 0,1 13,43 13,43l-24 -5z"/>
      </g>
     </g>
     <path class="fil0" d="M1222 480l-60 0 0 -24c0,-5 4,-9 9,-9l42 0c5,0 9,4 9,9l0 24z"/>
     <path class="fil15" d="M1220 450l-56 0c-1,0 -2,-1 -2,-2l0 -8c0,-1 1,-2 2,-2l56 0c1,0 2,1 2,2l0 8c0,1 -1,2 -2,2z"/>
     <g style="clip-path:url(#id12)">
      <g>
       <rect class="fil16" x="1152" y="400" width="37.3281" height="22.9714" rx="2" ry="2"/>
      </g>
     </g>
     <path class="fil0" d="M1220 450l-56 0c-1,0 -2,-1 -2,-2l0 -8c0,-1 1,-2 2,-2l56 0c1,0 2,1 2,2l0 8c0,1 -1,2 -2,2z"/>
     <path class="fil15" d="M1216 439l-43 0c-10,0 -18,-8 -18,-18l0 -34 61 0 0 52z"/>
     <g style="clip-path:url(#id13)">
      <g>
       <rect class="fil16" x="1152" y="400" width="37.3281" height="22.9714" rx="2" ry="2"/>
       <path class="fil17" d="M1201 384c0,0 6,1 6,14 0,12 0,48 0,48l12 0 0 -66 -18 4z"/>
      </g>
     </g>
     <path class="fil0" d="M1216 439l-43 0c-10,0 -18,-8 -18,-18l0 -34 61 0 0 52z"/>
    </g>
    <g>
     <path class="fil14" d="M904 433l0 117 0 0 0 0c0,0 -1,4 4,4 5,0 4,-4 4,-4l0 0 0 0 0 -118 2 0 0 118c0,0 0,6 -6,6 -7,0 -7,-6 -7,-6l0 -117 3 0z"/>
     <path class="fil19" d="M898 429l20 0 0 4c0,2 -1,4 -4,4l-12 0c-3,0 -4,-2 -4,-4l0 -4z"/>
     <path class="fil20" d="M898 428l20 0 1 0 0 1 0 4c0,1 -1,2 -1,3l0 0c-1,1 -2,1 -4,1l-12 0c-2,0 -3,0 -4,-1 0,-1 -1,-2 -1,-3l0 -4 0 -1 1 0zm20 1l-20 0 0 4c0,1 1,2 1,2 1,1 2,1 3,1l12 0c1,0 2,0 3,-1l0 0c0,0 1,-1 1,-2l0 -4z"/>
     <path class="fil14" d="M906 554c0,-1 1,-1 1,-1 1,0 1,0 1,1l0 6c0,0 0,1 -1,1 0,0 0,0 0,0 0,0 -3,0 -3,3 0,2 0,3 1,4 0,0 1,0 3,0 1,0 2,0 3,-1 0,0 1,0 1,0 0,0 0,0 0,0l0 0 0 0c0,0 0,0 -1,0 0,-1 0,-1 0,-2 0,0 1,-1 1,0 1,0 2,1 2,1l0 0c0,1 0,1 0,2 -1,1 -1,1 -2,1 -1,1 -3,2 -4,2 -2,0 -3,0 -5,-1 -1,-1 -2,-3 -2,-6 0,-4 3,-5 5,-5l0 -5z"/>
     <circle class="fil21" cx="908" cy="548" r="7"/>
     <path class="fil14" d="M908 539c2,0 4,1 6,3 1,1 2,3 2,6 0,2 -1,4 -2,6 -2,1 -4,2 -6,2 -3,0 -5,-1 -6,-2 -2,-2 -3,-4 -3,-6 0,-3 1,-5 3,-6 1,-2 3,-3 6,-3zm4 4c-1,-1 -3,-2 -4,-2 -2,0 -4,1 -5,2 -1,1 -2,3 -2,5 0,1 1,3 2,4 1,1 3,2 5,2 1,0 3,-1 4,-2 1,-1 2,-3 2,-4 0,-2 -1,-4 -2,-5z"/>
    </g>
   </g>
   <path class="fil22" d="M193 516l42 0 0 21c0,4 -3,8 -7,8l-28 0c-4,0 -7,-4 -7,-8l0 -21z"/>
   <path class="fil14" d="M193 515l42 0 2 0 0 1 0 21c0,3 -1,5 -3,6 -1,2 -3,3 -6,3l-28 0c-2,0 -4,-1 -6,-3 -1,-1 -2,-3 -2,-6l0 -21 0 -1 1 0zm41 3l-40 0 0 19c0,2 1,3 2,5 1,1 3,1 4,1l28 0c2,0 3,0 4,-1 1,-2 2,-3 2,-5l0 -19z"/>
   <path class="fil22" d="M1300 428l42 0 0 21c0,3 -3,7 -7,7l-28 0c-4,0 -7,-4 -7,-7l0 -21z"/>
   <path class="fil14" d="M1300 426l42 0 1 0 0 2 0 21c0,2 -1,4 -2,5l0 0c-2,2 -4,3 -6,3l-28 0c-2,0 -4,-1 -6,-3 -1,-1 -2,-3 -2,-5l0 -21 0 -2 1 0zm41 3l-40 0 0 20c0,1 1,3 2,4 1,1 3,1 4,1l28 0c2,0 3,0 4,-1l0 0c1,-1 2,-3 2,-4l0 -20z"/>
   <path class="fil6" d="M1331 571c13,0 24,6 31,16 3,0 6,-1 9,-1 19,0 34,14 37,32 12,3 20,12 24,23l12 0c3,0 6,3 6,6l0 0c0,3 -3,6 -6,6l-214 0c-4,0 -6,-3 -6,-6l0 0c0,-3 2,-6 6,-6l3 0c4,-15 18,-26 35,-26 5,-10 15,-16 27,-17 5,-16 19,-27 36,-27z"/>
   <g style="clip-path:url(#id14)">
    <g id="_2734787081808">
     <path id="1" class="fil2" d="M1232 659c0,0 3,-15 16,-18 13,-3 31,-32 43,-33 12,-2 10,-24 30,-30 21,-6 22,-17 32,-13 9,4 -95,-7 -101,15 -6,23 -68,66 -20,79z"/>
    </g>
   </g>
   <path class="fil0" d="M1331 571c13,0 24,6 31,16 3,0 6,-1 9,-1 19,0 34,14 37,32 12,3 20,12 24,23l12 0c3,0 6,3 6,6l0 0c0,3 -3,6 -6,6l-214 0c-4,0 -6,-3 -6,-6l0 0c0,-3 2,-6 6,-6l3 0c4,-15 18,-26 35,-26 5,-10 15,-16 27,-17 5,-16 19,-27 36,-27z"/>
   <path class="fil6" d="M217 596c13,0 24,7 31,17 3,-1 6,-1 10,-1 18,0 34,13 36,31 12,4 21,12 24,24l12 0c3,0 6,2 6,6l0 0c0,3 -3,6 -6,6l-214 0c-4,0 -6,-3 -6,-6l0 0c0,-4 2,-6 6,-6l3 0c5,-15 18,-26 35,-27 5,-9 16,-16 27,-17 5,-16 19,-27 36,-27z"/>
   <g style="clip-path:url(#id15)">
    <g id="_2734787082864">
     <path id="1" class="fil2" d="M228 589c0,0 -34,19 -37,39 0,0 -7,-5 -21,-10 0,0 -12,17 -11,24 0,0 -12,-7 -15,-5 -3,2 -20,22 -20,29 0,0 -10,-2 -14,-1 -4,2 -8,-47 16,-56 25,-8 85,-33 102,-20z"/>
    </g>
   </g>
   <path class="fil0" d="M217 596c13,0 24,7 31,17 3,-1 6,-1 10,-1 18,0 34,13 36,31 12,4 21,12 24,24l12 0c3,0 6,2 6,6l0 0c0,3 -3,6 -6,6l-214 0c-4,0 -6,-3 -6,-6l0 0c0,-4 2,-6 6,-6l3 0c5,-15 18,-26 35,-27 5,-9 16,-16 27,-17 5,-16 19,-27 36,-27z"/>
   <g id="_2734787066288">
    <line class="fil0" x1="521" y1="980" x2="521" y2= "1145" />
    <path class="fil10" d="M519 980c0,-1 1,-2 2,-2 1,0 2,1 2,2l0 165c0,1 -1,2 -2,2 -1,0 -2,-1 -2,-2l0 -165z"/>
    <line class="fil0" x1="544" y1="980" x2="544" y2= "1145" />
    <path class="fil10" d="M542 980c0,-1 1,-2 2,-2 1,0 2,1 2,2l0 165c0,1 -1,2 -2,2 -1,0 -2,-1 -2,-2l0 -165z"/>
    <line class="fil0" x1="521" y1="994" x2="544" y2= "994" />
    <path class="fil10" d="M521 996c-1,0 -2,-1 -2,-2 0,-1 1,-2 2,-2l23 0c1,0 2,1 2,2 0,1 -1,2 -2,2l-23 0z"/>
    <line class="fil0" x1="521" y1="1012" x2="544" y2= "1012" />
    <path class="fil10" d="M521 1014c-1,0 -2,-1 -2,-2 0,-1 1,-2 2,-2l23 0c1,0 2,1 2,2 0,1 -1,2 -2,2l-23 0z"/>
    <line class="fil0" x1="521" y1="1028" x2="544" y2= "1028" />
    <path class="fil10" d="M521 1030c-1,0 -2,-1 -2,-2 0,-1 1,-2 2,-2l23 0c1,0 2,1 2,2 0,1 -1,2 -2,2l-23 0z"/>
    <line class="fil0" x1="521" y1="1046" x2="544" y2= "1046" />
    <path class="fil10" d="M521 1048c-1,0 -2,-1 -2,-2 0,-1 1,-2 2,-2l23 0c1,0 2,1 2,2 0,1 -1,2 -2,2l-23 0z"/>
    <line class="fil0" x1="521" y1="1063" x2="544" y2= "1063" />
    <path class="fil10" d="M521 1065c-1,0 -2,-1 -2,-2 0,-1 1,-2 2,-2l23 0c1,0 2,1 2,2 0,1 -1,2 -2,2l-23 0z"/>
    <line class="fil0" x1="521" y1="1080" x2="544" y2= "1080" />
    <path class="fil10" d="M521 1082c-1,0 -2,-1 -2,-2 0,-1 1,-2 2,-2l23 0c1,0 2,1 2,2 0,1 -1,2 -2,2l-23 0z"/>
    <line class="fil0" x1="521" y1="1097" x2="544" y2= "1097" />
    <path class="fil10" d="M521 1099c-1,0 -2,-1 -2,-2 0,-1 1,-2 2,-2l23 0c1,0 2,1 2,2 0,1 -1,2 -2,2l-23 0z"/>
    <line class="fil0" x1="521" y1="1115" x2="544" y2= "1115" />
    <path class="fil10" d="M521 1117c-1,0 -2,-1 -2,-2 0,-1 1,-2 2,-2l23 0c1,0 2,1 2,2 0,1 -1,2 -2,2l-23 0z"/>
    <line class="fil0" x1="521" y1="1131" x2="544" y2= "1131" />
    <path class="fil10" d="M521 1133c-1,0 -2,-1 -2,-2 0,-1 1,-2 2,-2l23 0c1,0 2,1 2,2 0,1 -1,2 -2,2l-23 0z"/>
   </g>
   <circle class="fil7" cx="763" cy="1018" r="23"/>
  </g>
 </g>
</svg>
