<svg id="Layer_1" data-name="Layer 1" xmlns="http://www.w3.org/2000/svg" viewBox="0 0 80 80"><defs><style>.cls-1{fill:#fff;}</style></defs><title>Artboard 1 copy</title><path class="cls-1" d="M40,60.51a11.72,11.72,0,0,1-5.86-1.57L20.41,51a11.76,11.76,0,0,1-5.86-10.15V25a11.76,11.76,0,0,1,5.86-10.15L34.14,6.93a11.76,11.76,0,0,1,11.73,0l13.73,7.93A11.76,11.76,0,0,1,65.45,25V40.86A11.76,11.76,0,0,1,59.59,51L45.86,58.94A11.72,11.72,0,0,1,40,60.51ZM40,8.42a8.66,8.66,0,0,0-4.33,1.16L21.94,17.5A8.69,8.69,0,0,0,17.61,25V40.86a8.69,8.69,0,0,0,4.33,7.51l13.73,7.93a8.69,8.69,0,0,0,8.67,0l13.73-7.93a8.69,8.69,0,0,0,4.33-7.51V25a8.69,8.69,0,0,0-4.33-7.51L44.33,9.58A8.67,8.67,0,0,0,40,8.42Z"/><path class="cls-1" d="M39.66,44.45h-.59c-5.08,0-9.08-1.38-10.69-3.66a1.53,1.53,0,0,0-2.5,1.77c2,2.81,6.05,4.55,11.3,4.89A6.4,6.4,0,0,0,39.66,44.45Z"/><path class="cls-1" d="M55.17,34c-1.27-6.86-5.69-16.23-14.33-22a1.53,1.53,0,1,0-1.69,2.55c7.84,5.2,11.91,14,13,20,.66,3.59.28,5.12-.49,6.11-1.14,1.46-2.73,2.16-5.46,2.87.06-.25.14-.51.19-.76a7.25,7.25,0,0,0,4.29-2.23c1.12-1.4,1-3.08.77-4.69C50.38,29.25,45.61,21.52,41,19a1.53,1.53,0,0,0-1.48,2.68c3.37,1.87,7.85,8.36,8.88,14.7.21,1.28.17,1.9-.14,2.29a3.32,3.32,0,0,1-1.57.89,19.71,19.71,0,0,0-1-6.31,10.38,10.38,0,0,0-3-4.89,2.52,2.52,0,0,0-2.06-.41c-2.68.52-6.5,4.87-6.81,5.39-.08.14-.24.37-.42.61-1.12,1.58-3.2,4.53-1.81,7,1.14,2,4.05,2.85,9.18,2.54q1.21-.07,2.25-.18a11.7,11.7,0,0,1-.77,1.91l-.05.1c-.13.25-.28.49-.43.74l-.17.27c-.19.28-.39.56-.61.83l0,0a13,13,0,0,1-4.33,3.4,1.53,1.53,0,1,0,1.37,2.73A15.24,15.24,0,0,0,44.91,47a27.76,27.76,0,0,0,3.22-.77c2.11-.66,4.91-1.86,6.34-3.86C56,40.17,55.57,36.2,55.17,34ZM40.68,40.44c-4.13.25-6-.37-6.32-1-.45-.81,1.12-3,1.64-3.76.2-.29.38-.54.52-.76.67-.92,3.5-3.6,4.64-4,1.13,1.14,2.73,5,2.51,9.2Q42.34,40.34,40.68,40.44Z"/><path class="cls-1" d="M18.42,67.5v.6a2.89,2.89,0,0,0-2-.71,3.29,3.29,0,0,0-2.55,1.06,4,4,0,0,0,0,5.12,3.22,3.22,0,0,0,2.49,1.06,3,3,0,0,0,2.06-.7v.6h1.52v-7ZM18,72.58a1.79,1.79,0,0,1-1.46.63A1.88,1.88,0,0,1,15,72.58a2.52,2.52,0,0,1,0-3.12,1.88,1.88,0,0,1,1.49-.64,1.79,1.79,0,0,1,1.46.63,2.62,2.62,0,0,1,0,3.13Z"/><path class="cls-1" d="M26.75,68.46a3.18,3.18,0,0,0-2.48-1.06,3,3,0,0,0-2.06.71h0V65.17H20.71v9.37h1.52v-.59h0a2.89,2.89,0,0,0,2,.7,3.26,3.26,0,0,0,2.55-1.06,4,4,0,0,0,0-5.12Zm-1.12,4.12a1.88,1.88,0,0,1-1.49.64,1.79,1.79,0,0,1-1.46-.63,2.62,2.62,0,0,1,0-3.13,1.78,1.78,0,0,1,1.46-.63,1.88,1.88,0,0,1,1.49.64,2.52,2.52,0,0,1,0,3.12Z"/><path class="cls-1" d="M31.48,74.64a3.38,3.38,0,0,1-1.22-.2,2.53,2.53,0,0,1-.92-.61,3.07,3.07,0,0,1-.88-2.28V67.5H30v4a1.72,1.72,0,0,0,.43,1.24,1.46,1.46,0,0,0,1.12.45,1.67,1.67,0,0,0,1.2-.47,1.64,1.64,0,0,0,.49-1.23v-4h1.52v7H33.22v-.6a3.63,3.63,0,0,1-.44.33A2.37,2.37,0,0,1,31.48,74.64Z"/><path class="cls-1" d="M39,74.64a3.17,3.17,0,0,1-1.63-.42,2.48,2.48,0,0,1-1.14-2.46c0-.69,0-2.77,0-2.77h-.66v-1.4h.66V65.26h1.52v2.33h1.49V69H37.72s0,1.63,0,2.17c0,.83.08,2,.71,1.8h0l.77,1.52S39.08,74.64,39,74.64Z"/><path class="cls-1" d="M46,68.45a3.63,3.63,0,0,0-5.13,0,4,4,0,0,0,0,5.12,3.63,3.63,0,0,0,5.13,0,4,4,0,0,0,0-5.12ZM44.9,72.58a2,2,0,0,1-2.91,0,2.62,2.62,0,0,1,0-3.13,2,2,0,0,1,2.91,0,2.62,2.62,0,0,1,0,3.13Z"/><path class="cls-1" d="M50.75,74.64a3.38,3.38,0,0,1-1.22-.2,2.53,2.53,0,0,1-.92-.61,3.07,3.07,0,0,1-.88-2.28V67.5h1.52v4a1.72,1.72,0,0,0,.43,1.24,1.46,1.46,0,0,0,1.12.45,1.67,1.67,0,0,0,1.2-.47,1.64,1.64,0,0,0,.49-1.23v-4H54v7H52.49v-.6a3.63,3.63,0,0,1-.44.33A2.37,2.37,0,0,1,50.75,74.64Z"/><path class="cls-1" d="M58.91,67.64a.13.13,0,0,0-.14-.14,4.06,4.06,0,0,0-1.51.23,2.68,2.68,0,0,0-1,.7V67.6H54.77v7h1.52V71.51a2.76,2.76,0,0,1,.57-1.76A1.8,1.8,0,0,1,58.24,69h0A3,3,0,0,1,58.91,67.64Z"/><path class="cls-1" d="M61.89,74.64a3.36,3.36,0,0,1-2.24-.71,2.25,2.25,0,0,1-.85-1.69V72h1.54l0,.24a1.08,1.08,0,0,0,.83,1,2.7,2.7,0,0,0,1.16.05,2.22,2.22,0,0,0,.5-.13.6.6,0,0,0,.45-.59.43.43,0,0,0-.2-.39,2.58,2.58,0,0,0-.72-.31q-.47-.13-1-.24a5.85,5.85,0,0,1-1.1-.32,2.51,2.51,0,0,1-.89-.6A1.58,1.58,0,0,1,59,69.52a1.89,1.89,0,0,1,.75-1.59,3.39,3.39,0,0,1,2.07-.54,3.14,3.14,0,0,1,2.06.63,2.15,2.15,0,0,1,.76,1.45l0,.3H63.11l0-.24c0-.33-.23-.78-1.36-.78s-1.23.48-1.23.67a.39.39,0,0,0,.19.36,2.68,2.68,0,0,0,.72.3q.47.13,1,.24a5.58,5.58,0,0,1,1.1.33,2.5,2.5,0,0,1,.89.62,1.64,1.64,0,0,1,.39,1.14A1.92,1.92,0,0,1,64,74.09,3.6,3.6,0,0,1,61.89,74.64Z"/><path class="cls-1" d="M66.33,67.55a.06.06,0,0,1,0,.05l-.06,0a.09.09,0,0,1-.07,0L66,67.24a.24.24,0,0,0-.08-.08l-.11,0h-.19v.4a.09.09,0,0,1,0,.06l-.06,0-.06,0a.08.08,0,0,1,0-.06v-1a.08.08,0,0,1,0-.06l.06,0h.41a.44.44,0,0,1,.29.09.31.31,0,0,1,.1.25.31.31,0,0,1-.08.22.36.36,0,0,1-.22.11l.08,0,.07.08.17.27A.08.08,0,0,1,66.33,67.55ZM65.88,67a.3.3,0,0,0,.19-.05.19.19,0,0,0,.06-.16.18.18,0,0,0-.06-.15.31.31,0,0,0-.19,0h-.31V67Z"/><path class="cls-1" d="M65.87,68.21A1.18,1.18,0,1,1,67,67,1.18,1.18,0,0,1,65.87,68.21Zm0-2.23A1.05,1.05,0,1,0,66.92,67,1.05,1.05,0,0,0,65.87,66Z"/></svg>